<svg xmlns="http://www.w3.org/2000/svg" xmlns:xlink="http://www.w3.org/1999/xlink" width="6885.688" height="8657.036" viewBox="0 0 6885.688 8657.036">
  <defs>
    <linearGradient id="linear-gradient" x1="3.941" y1="4.67" x2="4.893" y2="4.67" gradientUnits="objectBoundingBox">
      <stop offset="0" stop-color="#444"/>
      <stop offset="0.105" stop-color="#7b7b7c"/>
      <stop offset="0.228" stop-color="#b6b6b8"/>
      <stop offset="0.318" stop-color="#dbdbdd"/>
      <stop offset="0.366" stop-color="#e9e9ec"/>
      <stop offset="0.608" stop-color="#e9e9ec"/>
      <stop offset="1" stop-color="#444"/>
    </linearGradient>
    <linearGradient id="linear-gradient-2" x1="6.75" y1="6.04" x2="6.859" y2="6.04" gradientUnits="objectBoundingBox">
      <stop offset="0"/>
      <stop offset="0.232" stop-color="#1f1f21"/>
      <stop offset="0.366" stop-color="#2d2d30"/>
      <stop offset="0.608" stop-color="#2d2d30"/>
      <stop offset="1"/>
    </linearGradient>
    <linearGradient id="linear-gradient-3" x1="-0.918" y1="0.289" x2="2.126" y2="0.891" gradientUnits="objectBoundingBox">
      <stop offset="0" stop-color="#606060"/>
      <stop offset="0.092" stop-color="#8d8d8e"/>
      <stop offset="0.22" stop-color="#c9c9ca"/>
      <stop offset="0.315" stop-color="#ededef"/>
      <stop offset="0.366" stop-color="#fcfcfe"/>
      <stop offset="0.608" stop-color="#fcfcfe"/>
      <stop offset="1" stop-color="#606060"/>
    </linearGradient>
    <linearGradient id="linear-gradient-4" x1="0.018" y1="0.508" x2="1.374" y2="0.508" xlink:href="#linear-gradient"/>
    <linearGradient id="linear-gradient-5" x1="-1.017" y1="4.657" x2="9.295" y2="4.501" xlink:href="#linear-gradient-2"/>
    <linearGradient id="linear-gradient-6" x1="-0.797" y1="2.13" x2="7.186" y2="2.049" xlink:href="#linear-gradient-2"/>
    <linearGradient id="linear-gradient-7" x1="-0.889" y1="1.229" x2="5.726" y2="1.157" xlink:href="#linear-gradient-2"/>
    <linearGradient id="linear-gradient-8" x1="-1.346" y1="0.556" x2="5.495" y2="0.47" xlink:href="#linear-gradient-2"/>
    <linearGradient id="linear-gradient-9" x1="-1.818" y1="-0.147" x2="5.278" y2="-0.244" xlink:href="#linear-gradient-2"/>
    <linearGradient id="linear-gradient-10" x1="-2.381" y1="-0.915" x2="5.196" y2="-1.028" xlink:href="#linear-gradient-2"/>
    <linearGradient id="linear-gradient-11" x1="-3.052" y1="-1.693" x2="5.249" y2="-1.816" xlink:href="#linear-gradient-2"/>
    <linearGradient id="linear-gradient-12" x1="-3.685" y1="-2.52" x2="5.256" y2="-2.652" xlink:href="#linear-gradient-2"/>
    <linearGradient id="linear-gradient-13" x1="-3.861" y1="-2.676" x2="4.725" y2="-2.784" xlink:href="#linear-gradient-2"/>
    <linearGradient id="linear-gradient-14" x1="-5.315" y1="-6.275" x2="5.48" y2="-6.465" xlink:href="#linear-gradient-2"/>
  </defs>
  <g id="Group_6470" data-name="Group 6470" transform="matrix(-0.966, -0.259, 0.259, -0.966, 4917.511, 8662.974)" opacity="0.09" style="mix-blend-mode: normal;isolation: isolate">
    <g id="Group_241" data-name="Group 241" transform="translate(81.469 5.783)" style="mix-blend-mode: normal;isolation: isolate">
      <path id="Path_242" data-name="Path 242" d="M1289.137,6.373,0,809.81a127.046,127.046,0,0,1,30.312-13.8A165.958,165.958,0,0,1,65.335,789.1a238.09,238.09,0,0,1,39.533-.068,334.624,334.624,0,0,1,43.881,6.481L1387.5,26.882a274.816,274.816,0,0,0-30.757-16.121,140.945,140.945,0,0,0-26.706-8.884A72.046,72.046,0,0,0,1307.4.311a42.516,42.516,0,0,0-18.268,6.062" transform="translate(0 0)" fill="#858585"/>
    </g>
    <g id="Group_242" data-name="Group 242" transform="translate(81.496 5.783)">
      <path id="Path_243" data-name="Path 243" d="M1213.676,54.412c6.994-4.321,14.1-8.466,20.7-13.434a.168.168,0,0,1-.175-.014c-.378.2-.743.392-1.161.581-.392.189-.756.378-1.134.607-.378.2-.756.419-1.12.634a10.318,10.318,0,0,0-1.135.648c-34.159,21.292-79.741,49.687-113.888,71.006.406-.23.81-.432,1.188-.689a3.977,3.977,0,0,1,1.216-.675c.377-.229.809-.446,1.215-.675a5.9,5.9,0,0,1,1.242-.608c9.208-4.887,17.957-10.572,26.774-16.108l66.281-41.275M1251.7,36.658c-4.59,1.323-17.391,8.911-27.314,15.1l-65.876,41.072c-17.35,10.869-19.145,12.975-19.767,13.839a1.748,1.748,0,0,1,.311.2c1.3-.095,2.551-.216,3.861-.284,1.323-.027,2.632-.108,4-.081,1.337.054,2.713.081,4.1.2a32.1,32.1,0,0,1,4.186.3c6.157-.864,21.4-9.964,27.664-13.826l65.254-40.6c17.093-10.693,18.822-13.785,19.375-14.758a5.365,5.365,0,0,1-.391-.472c-1.337-.135-2.7-.378-4.024-.432-1.337-.175-2.605-.2-3.9-.27a27.688,27.688,0,0,0-3.794-.095c-1.255.041-2.471.041-3.686.108M1290.42,43.3c-5.549-.2-18.322,6.872-28.03,12.881l-64.9,40.3c-16.9,10.693-18.038,13.934-18.457,15.163.149.189.338.378.54.607,1.647.527,3.254.986,4.969,1.634,1.674.581,3.388,1.215,5.077,1.85s3.417,1.255,5.144,1.958c1.755.7,3.551,1.472,5.279,2.16,6.927.972,22.143-7.791,28.408-11.517l64.12-39.9c13.178-8.331,20.064-14.96,17.526-16.945-1.729-.81-3.39-1.553-5.05-2.268-1.674-.783-3.348-1.5-4.982-2.174s-3.281-1.323-4.888-2.012c-1.593-.58-3.213-1.215-4.753-1.742M146.279,719.645c5.805-3.632,11.665-7.264,17.268-11.206l-.149-.121a19.311,19.311,0,0,1-1.89.972c-.581.338-1.188.662-1.769,1.013-.621.324-1.161.729-1.782,1.094a12.564,12.564,0,0,0-1.755,1.08c-31.769,19.794-74.137,46.149-105.934,65.9.621-.338,1.228-.689,1.877-1.053.58-.405,1.188-.756,1.809-1.107.649-.351,1.242-.689,1.864-1.08.62-.338,1.282-.675,1.944-.972,9.1-5.144,18.011-10.626,26.883-16.148l61.636-38.372m43.543-21.454c-5.792,2.093-18.147,9.438-27.436,15.244L101.034,751.55c-14.5,9.195-15.919,10.909-16.769,11.76a7.051,7.051,0,0,1,.77.162c1.809-.513,3.672-.972,5.522-1.4,1.9-.365,3.768-.851,5.67-1.215,1.918-.405,3.875-.7,5.819-1.026s3.956-.554,5.914-.837c4.456-.823,15.433-6.319,27.908-14.042L196.6,707.156c14.3-9.006,15.81-11.558,16.364-12.584a4.565,4.565,0,0,1-.85-.432c-1.931.23-3.848.5-5.766.783-1.877.27-3.754.567-5.618.891-1.835.351-3.712.675-5.522,1.121-1.81.351-3.632.769-5.387,1.256m55.034-4.618c-4.51.176-15.365,5.2-28.327,13.2L156.081,744.3c-14.176,8.952-15.122,11.584-15.568,12.854a2.612,2.612,0,0,0,1.108.675c2.187.054,4.442.176,6.738.365,2.2.108,4.523.351,6.818.54,2.269.162,4.618.445,6.968.729,2.336.256,4.671.54,7.061.877,5.049.229,16.31-4.5,28.718-12l59.8-37.143c14.109-8.965,14.933-12.206,15.284-13.6a2.6,2.6,0,0,0-1.256-.986c-2.309-.378-4.59-.688-6.913-1.08-2.268-.324-4.523-.527-6.765-.851-2.241-.216-4.469-.432-6.643-.594-2.241-.27-4.429-.419-6.575-.513M1387.471,26.882,1182.028,154.326A273.4,273.4,0,0,0,1149,139.865a155.062,155.062,0,0,0-28.894-7.318,83.44,83.44,0,0,0-24.79-.121A54.053,54.053,0,0,0,1075,139.893Q1182.075,73.119,1289.11,6.373A42.518,42.518,0,0,1,1307.378.311a72.047,72.047,0,0,1,22.629,1.567,140.935,140.935,0,0,1,26.706,8.884,274.835,274.835,0,0,1,30.757,16.121M346.079,672.983,148.749,795.471A335.122,335.122,0,0,0,104.9,789a241.336,241.336,0,0,0-39.547.041,176.709,176.709,0,0,0-35.064,6.845A132.85,132.85,0,0,0,0,809.77q102.479-63.857,205.012-127.822a117.393,117.393,0,0,1,28.475-12.638,153.644,153.644,0,0,1,33.161-5.563,216.482,216.482,0,0,1,37.616,1.337,317.728,317.728,0,0,1,41.816,7.9" transform="translate(0 0)" fill="url(#linear-gradient)"/>
      <path id="Path_244" data-name="Path 244" d="M977.016,22.766A273.4,273.4,0,0,0,943.99,8.306,155.072,155.072,0,0,0,915.1.988a83.446,83.446,0,0,0-24.79-.121,54.062,54.062,0,0,0-20.32,7.467Q434.919,279.293,0,550.389a117.4,117.4,0,0,1,28.475-12.638,153.649,153.649,0,0,1,33.16-5.563,216.485,216.485,0,0,1,37.616,1.337,317.7,317.7,0,0,1,41.815,7.9L977.016,22.766" transform="translate(205.011 131.559)" opacity="0.8" fill="url(#linear-gradient-2)"/>
    </g>
    <g id="Group_243" data-name="Group 243" transform="translate(1337.104 0)">
      <path id="Path_245" data-name="Path 245" d="M3364.568,6357.495q-18.51-37.387-37.8-75.907-19.422-38.662-39.628-78.445-20.294-39.958-41.424-81-21.245-41.194-43.381-83.576-106.407-203.944-219.607-407.511-115.258-207.306-239.346-417.461-127.227-215.286-266.133-437.31-143.349-228.976-302.278-469.551c-86.142-130.36-176-269.969-268.416-417.057-94.9-151.058-192.239-309.555-290.653-473.413-100.845-167.948-202.459-340.865-303.209-516.213-102.87-179.047-204.417-359.891-302.818-539.518q-54.723-99.967-107.556-198.125-53.022-98.611-103.828-195.074-51.077-96.788-99.616-190.888-48.728-94.418-94.715-185.677-85.629-169.839-160.887-326.851-75.4-157.262-139.109-299.078Q240.546,823.3,189.529,699.276,138.835,575.955,101.6,472.149,48.422,324.02,24.929,222.3C9.442,155.437,3.677,104.184,7.309,68.31,10.9,33.137,23.51,12.912,44.9,7.281c20.874-5.388,50,3.214,86.965,25.383C93.275,7.687,62.841-3.115,41,.774,18.6,4.744,5.229,24,1.26,58.8c-4.024,35.442,1.566,86.762,17.079,153.961Q41.894,315.082,95.624,464.9,132.95,569.078,184.1,693.524,235.3,818.058,299.461,960.8q64,142.458,140,300.982,75.563,157.688,161.846,328.755,46.237,91.785,95.161,186.554,48.789,94.478,99.994,191.672,51.016,96.686,104.247,195.694,52.982,98.59,107.947,198.855c98.7,180.14,200.515,361.456,303.682,540.935,100.994,175.766,202.824,349.035,303.911,517.308,98.658,164.155,196.208,322.99,291.328,474.3,92.568,147.291,182.626,287.075,268.915,417.571q159.186,240.763,302.116,469.146,139.014,222.05,265.931,436.823,124.169,210.162,239.157,416.961,113.193,203.54,219.54,407.255,22.1,42.347,43.233,83.359,21.1,40.992,41.329,80.768,20.172,39.715,39.479,78.216,19.382,38.54,37.751,75.732,72.606,146.588,132.655,274.639c40.033,85.048,76.137,163.885,108.446,235.835,32.215,71.924,60.664,137.1,85.264,194.507,24.667,57.558,45.5,107.5,62.486,148.87-16.864-41.922-37.656-92.378-62.3-150.369-24.587-57.813-53.049-123.284-85.332-195.546-32.3-72.14-68.521-151.3-108.648-236.646Q3437.248,6504.684,3364.568,6357.495Z" transform="translate(0 -0.001)" fill="url(#linear-gradient-3)"/>
    </g>
    <g id="Group_245" data-name="Group 245" transform="translate(0 6.147)">
      <path id="Path_246" data-name="Path 246" d="M1295.886,43.909c-.958.147-1.89.3-21.238,12.273l-66.861,41.734c-8.749,5.4-23.8,15-26.625,17.484-.9.932-1.8,1.889-2.647,2.876-.837,1.04-1.674,2.066-2.457,3.185a25.156,25.156,0,0,0-2.309,3.35c-.728,1.255-1.484,2.456-2.16,3.726.931.35,2.633.972,21.806-10.815l67.536-42.111c15.851-9.925,24.506-16.742,26.086-19.065.648-1.243,1.31-2.4,2-3.577.688-1.095,1.417-2.2,2.106-3.309.769-1,1.526-2.025,2.322-2.97a25.529,25.529,0,0,1,2.444-2.782m-16.715,36.049a5.749,5.749,0,0,0-.284-.783c-1.391-.081-4.7-.405-22.818,10.693L1188.21,132.2c-14.515,9.167-24.06,16.688-25.478,20.266-.405,1.714-.77,3.538-1.134,5.373s-.688,3.7-1.013,5.577c-.27,1.971-.539,3.9-.8,5.9-.216,2.052-.486,4.049-.648,6.17.081.3.257.715.379,1.026,1.336.364,5.427,1.524,23.358-9.371l68.535-42.585c14.1-9.006,23.844-17.579,24.843-21.94.149-2.053.3-4.1.5-6.036.189-2,.364-3.982.621-5.832.242-1.9.513-3.727.837-5.5.27-1.85.621-3.551.959-5.292m-2.755,59.5c-2.268-4.955-14.838,1.323-25.032,7.44l-68.818,42.761c-14.407,9.086-23.629,17.984-24.128,23.1.067,2.579.189,5.158.365,7.858s.324,5.374.513,8.114c.229,2.782.5,5.577.756,8.412.324,2.943.621,5.86.932,8.75,1.337,5.008,11.436,2.78,25.708-5.78l69.44-42.949c14.258-9.154,23.48-18.929,23.507-24.788-.392-2.945-.743-5.835-1.04-8.615q-.486-4.253-.878-8.358c-.27-2.742-.527-5.455-.756-8.114-.217-2.688-.392-5.24-.567-7.832m11.733,83.44c-1.944-5.737-12.286-3.887-26.963,4.876l-69.751,43.029c-14.434,9.357-23.182,19.253-22.764,25.95.648,3.416,1.324,6.928,2.012,10.438s1.417,7.1,2.119,10.624c.783,3.66,1.539,7.306,2.336,11.045.837,3.686,1.674,7.494,2.538,11.261,2.377,6.589,13.245,5.373,27.693-3.2l70.209-43.218c14.421-9.289,23.142-20.064,22.17-27.529-.9-3.809-1.822-7.549-2.647-11.248-.85-3.645-1.661-7.3-2.471-10.924-.81-3.591-1.552-7.154-2.349-10.692-.743-3.538-1.432-6.954-2.134-10.411m26.612,107.515c-2.984-7.371-14.1-6.561-29,2.134l-70.466,43.288c-14.582,9.4-22.7,20.427-21.333,28.7,1.175,4.281,2.363,8.561,3.591,12.949,1.229,4.361,2.5,8.79,3.848,13.339,1.283,4.455,2.579,8.951,3.956,13.529,1.337,4.522,2.755,9.194,4.105,13.784,3.388,8.129,15.027,7.912,29.7-.594l70.924-43.327c14.528-9.37,22.643-21.251,20.753-30.217q-2.188-6.967-4.307-13.867c-1.364-4.469-2.755-9.086-4.078-13.488-1.35-4.5-2.673-8.9-3.956-13.271-1.269-4.335-2.525-8.682-3.74-12.964M1356.469,461.9c-4-8.965-15.824-9.168-30.973-.54l-71.182,43.287c-14.394,9.41-22.2,21.738-19.821,31.418,1,2.931,1.972,5.833,2.971,8.75s2.026,5.941,3.011,8.831c1.026,3,2.052,5.981,3.092,8.978,1.067,3,2.079,5.994,3.092,8.965.729,2,1.378,3.929,2.093,5.914.689,1.958,1.324,3.861,2.052,5.874.689,2.011,1.418,3.983,2.107,5.98.7,1.959,1.4,3.944,2.12,5.929,3.767,7.992,15.742,7.708,30.541-.744l71.546-43.26c14.637-9.437,22.629-21.211,20.307-30.095-.715-1.957-1.485-4.065-2.187-6.022s-1.431-3.956-2.134-5.94c-.7-1.958-1.431-3.93-2.092-5.887-.716-1.971-1.445-3.982-2.093-5.874-1.094-3.051-2.16-5.994-3.2-9-1.107-3.08-2.093-6-3.159-8.953-1.027-2.985-2.053-5.86-3.092-8.871-.985-2.93-2-5.82-3-8.735m49.24,135.261c-4.185-8.547-16.255-8.519-31.526.095l-71.667,43.272c-14.73,9.491-22.292,21.158-19.618,30.691,1.836,4.874,3.713,9.842,5.616,14.8,1.891,5,3.808,9.951,5.752,15.027,1.971,5.077,3.942,10.14,5.873,15.164,1.93,5.049,3.943,10.192,5.968,15.309,4.469,9.019,16.958,9.371,31.918,1.067L1410,689.469c14.676-9.464,22.264-21.9,19.267-31.809-2.066-5.185-4.078-10.33-6.09-15.433-1.958-5.037-4-10.167-5.914-15.136-1.958-5.049-3.943-10.112-5.847-15.068s-3.848-9.951-5.711-14.865m57.707,144.928c-4.9-9.574-17.471-10.221-32.783-1.607L1358.467,783.5c-14.568,9.33-21.832,22.035-18.592,32.229,2.255,5.535,4.5,10.95,6.778,16.446,2.241,5.494,4.5,10.949,6.818,16.5,2.3,5.549,4.6,11.112,6.954,16.756,2.362,5.6,4.725,11.192,7.088,16.85,5.117,9.829,18.093,10.842,33.147,2.566L1473,841.972c14.731-9.344,21.9-22.427,18.282-33.215-2.417-5.684-4.766-11.314-7.129-16.9q-3.585-8.445-7.061-16.8c-2.309-5.549-4.618-11.1-6.913-16.58-2.255-5.441-4.51-10.936-6.765-16.391m67.577,158.888c-5.414-10.26-18.822-11.557-34-3.185l-72.438,42.785c-14.622,9.262-21.535,22.468-17.593,33.634,2.566,5.872,5.131,11.814,7.763,17.768s5.253,11.962,7.925,18.012c2.661,6.021,5.28,11.989,8.007,18.091,2.673,6.035,5.414,12.138,8.114,18.254,5.712,10.666,19.173,12.327,34.322,4.185l72.572-42.585c14.771-9.383,21.549-22.939,17.323-34.577q-4.071-9.156-8.155-18.3c-2.741-6.13-5.414-12.179-8.074-18.2-2.673-6.049-5.293-12-7.912-17.984-2.687-6.035-5.266-11.935-7.858-17.9m77.055,171.906c-6.036-11.086-19.847-13.017-35.145-4.794l-72.68,42.4c-14.649,9.248-21.117,23.033-16.607,34.97,2.93,6.318,5.846,12.706,8.79,19.078,2.917,6.385,5.927,12.866,8.871,19.24q4.5,9.659,8.992,19.361c3.065,6.521,6.035,12.962,9.1,19.483,6.305,11.436,20.212,13.665,35.415,5.685l72.774-42.085c14.717-9.426,21.211-23.386,16.364-35.78-3.064-6.562-6.1-13.1-9.1-19.536-3.039-6.548-6.049-13-9.02-19.456s-5.968-12.935-8.9-19.309c-3-6.467-5.927-12.813-8.857-19.252m85.925,183.61c-6.7-12-20.536-14.311-36.117-6.129l-72.828,41.9c-14.6,9.235-20.806,23.317-15.689,35.955,3.241,6.778,6.467,13.5,9.735,20.293q4.86,10.126,9.829,20.388c3.267,6.791,6.562,13.6,9.856,20.468,3.335,6.831,6.656,13.718,10.005,20.577,6.926,12.178,21.157,14.878,36.374,7.007l72.9-41.545c14.744-9.235,20.806-23.656,15.46-36.7-3.349-6.953-6.711-13.838-10.031-20.779-3.322-6.872-6.616-13.731-9.911-20.508-3.294-6.928-6.561-13.692-9.829-20.511q-4.861-10.206-9.749-20.414m94.216,194.047c-7.129-12.5-21.657-15.4-37.062-7.493l-72.842,41.4c-14.609,9.128-20.4,23.616-14.8,36.833,3.5,7.047,7.021,14.2,10.571,21.265,3.524,7.089,7.1,14.245,10.653,21.361,3.591,7.236,7.183,14.366,10.788,21.562,3.578,7.076,7.156,14.312,10.828,21.563,7.385,12.706,22.035,16,37.278,8.29l72.829-40.951c14.744-9.128,20.455-23.9,14.6-37.6-3.645-7.25-7.237-14.46-10.842-21.738-3.645-7.209-7.182-14.365-10.747-21.548q-5.367-10.835-10.667-21.509c-3.537-7.142-7.048-14.272-10.585-21.428m98.347,196.357c-6.319-10.464-19.861-11.922-35.483-3.956l-72.761,40.817c-14.636,8.844-21.1,21.684-16.4,32.742,3.01,5.846,6,11.746,8.992,17.538,3.011,5.874,6.049,11.815,9.06,17.674,3.065,5.9,6.049,11.747,9.127,17.715q4.557,8.849,9.168,17.755c6.319,10.342,20.212,12.017,35.388,4.293l72.774-40.3c14.757-8.911,21.17-21.967,16.378-33.242q-4.558-8.91-9.114-17.8-4.537-8.911-9.114-17.822c-3.024-5.941-6.049-11.881-9.019-17.768-3.051-5.927-6.022-11.761-8.992-17.648m85.453,166.464c-6.413-10.437-20.455-12.234-35.793-4.524L1863.488,1849c-14.621,8.736-20.833,21.765-15.9,33.079,3.146,5.955,6.3,12,9.438,18.013,3.2,6.061,6.373,12.084,9.546,18.132,3.146,6.008,6.345,12.044,9.532,18.079s6.4,12.192,9.6,18.228c6.575,10.6,20.671,12.569,35.793,4.954l72.6-39.721c14.73-8.79,20.955-21.968,15.906-33.485-3.16-6.049-6.386-12.192-9.519-18.254-3.2-6.116-6.359-12.178-9.545-18.241q-4.719-9.093-9.465-18.228-4.759-9.071-9.478-18.2m89.464,170.7c-6.684-10.8-20.942-12.895-36.212-5.28l-72.558,39.574c-14.528,8.7-20.577,21.738-15.338,33.336,3.268,6.09,6.535,12.218,9.856,18.389q4.86,9.153,9.883,18.457c3.254,6.1,6.6,12.3,9.9,18.457,3.349,6.2,6.657,12.355,9.992,18.524,6.805,10.828,21.009,13.07,36.158,5.6l72.356-39.168c14.69-8.655,20.766-21.793,15.5-33.525-3.335-6.278-6.643-12.476-9.951-18.659-3.308-6.225-6.63-12.449-9.884-18.619-3.294-6.185-6.6-12.381-9.855-18.552-3.322-6.238-6.562-12.341-9.843-18.538m92.892,173.862c-6.9-10.99-21.211-13.259-36.5-5.765l-72.289,38.94c-14.528,8.505-20.388,21.562-14.96,33.349,3.389,6.224,6.791,12.422,10.194,18.673,3.416,6.225,6.845,12.53,10.248,18.754,3.456,6.278,6.859,12.516,10.315,18.822,3.416,6.2,6.886,12.5,10.289,18.714,7.048,11.017,21.306,13.407,36.387,6.116l72.154-38.467c14.609-8.532,20.523-21.684,15.041-33.605-3.43-6.292-6.832-12.611-10.275-18.9-3.416-6.333-6.846-12.638-10.234-18.89-3.4-6.319-6.818-12.665-10.208-18.875-3.416-6.3-6.778-12.557-10.167-18.862m95.957,176.442c-7.115-11.193-21.495-13.6-36.739-6.264l-72.018,38.264c-14.434,8.317-20.145,21.455-14.555,33.268q3.929,7.049,7.844,14.1c2.62,4.671,5.2,9.383,7.872,14.15q3.929,7.026,7.817,14.015c2.633,4.7,5.225,9.37,7.9,14.149.756,1.35,1.512,2.727,2.269,4.037.756,1.378,1.525,2.768,2.281,4.119s1.5,2.7,2.283,4.064c.756,1.377,1.5,2.727,2.281,4.091,6.131,9.249,19.794,10.546,34.794,3.321l71.856-37.831c14.568-8.263,21.022-20.158,16.391-30.352-.77-1.35-1.526-2.7-2.3-4.091-.729-1.35-1.471-2.7-2.241-4.078-.743-1.35-1.512-2.741-2.3-4.131-.756-1.377-1.526-2.781-2.268-4.131-2.592-4.7-5.225-9.479-7.8-14.163-2.619-4.754-5.2-9.465-7.791-14.177-2.619-4.753-5.2-9.491-7.8-14.163-2.62-4.78-5.212-9.491-7.777-14.191m87.384,158.093c-6.157-9.276-19.875-10.545-34.97-3.255l-71.762,37.535c-14.406,8.223-20.671,20-16.014,29.974,2.97,5.28,6.009,10.626,8.979,15.919,2.97,5.239,5.981,10.6,8.992,15.851,2.97,5.306,6.008,10.626,8.992,15.891s6.022,10.613,9.005,15.878c6.2,9.195,19.834,10.586,34.767,3.443l71.519-37.211c14.528-8.209,20.941-19.956,16.27-29.987-3.024-5.387-6.036-10.72-8.979-16.026-3-5.374-5.955-10.653-8.952-16.013-2.984-5.32-5.927-10.6-8.952-16-2.93-5.279-5.886-10.64-8.9-16m83.346,148.641c-6.17-9.235-19.929-10.626-35-3.5l-71.411,36.968c-14.325,8.1-20.523,19.753-15.824,29.663,3.078,5.387,6.089,10.613,9.1,15.864s6.062,10.559,9.073,15.824q4.536,7.857,9.046,15.743c3.079,5.334,6.075,10.586,9.127,15.824,6.211,9.181,19.875,10.545,34.727,3.578l71.208-36.536c14.433-8.074,20.738-19.74,16-29.771-2.97-5.266-6.008-10.654-9.019-15.906-3.024-5.319-6.008-10.585-9.005-15.932-3.011-5.279-6.05-10.625-9.02-15.891-3.011-5.361-5.981-10.64-9.006-15.932m84.021,147.777c-6.224-9.181-19.982-10.653-34.943-3.591l-71.073,36.36c-14.244,7.925-20.347,19.5-15.567,29.406,3.065,5.225,6.089,10.464,9.154,15.676,2.984,5.144,6.036,10.437,9.114,15.662,3.024,5.239,6.075,10.45,9.06,15.595,3.065,5.252,6.1,10.463,9.168,15.662,6.265,9.113,19.848,10.5,34.659,3.672l70.8-35.969c14.366-7.952,20.6-19.442,15.824-29.353-2.984-5.238-6.036-10.518-9.019-15.757-3.037-5.239-6.022-10.477-9.06-15.743-3.011-5.279-6.035-10.49-9.033-15.756q-4.6-7.958-9.086-15.864m84.319,146.44c-6.224-9.1-19.875-10.531-34.794-3.659l-70.7,35.739c-14.177,7.818-20.24,19.187-15.419,28.989,3.024,5.131,6.1,10.329,9.141,15.486s6.076,10.275,9.127,15.487q4.577,7.715,9.127,15.432c3.038,5.144,6.13,10.343,9.155,15.473,6.292,8.979,19.847,10.464,34.537,3.686l70.426-35.293c14.3-7.777,20.415-19.173,15.648-28.989-3.052-5.239-6.049-10.41-9.046-15.554-3.065-5.239-6.049-10.383-9.1-15.622-3-5.171-5.994-10.315-9.032-15.553-3.011-5.226-6.022-10.384-9.073-15.622m84.359,144.55c-6.238-8.979-19.807-10.369-34.619-3.6l-70.277,35.09c-14.1,7.669-20.1,18.889-15.3,28.529,3.078,5.117,6.063,10.127,9.128,15.244q4.537,7.616,9.14,15.311c3.011,5.05,6.063,10.1,9.115,15.216,3.037,5.077,6.1,10.18,9.154,15.217,6.224,8.817,19.726,10.248,34.308,3.605l69.967-34.673c14.177-7.669,20.333-18.768,15.581-28.435-3.038-5.131-5.995-10.18-9.059-15.324-3.025-5.157-6.009-10.221-9.047-15.352-3-5.145-6.022-10.3-9.019-15.365-3.024-5.171-6.035-10.3-9.073-15.459m84.062,142.3c-6.2-8.83-19.672-10.18-34.443-3.564l-69.778,34.51c-14.015,7.48-20,18.443-15.19,27.949,3.011,5,6.063,10,9.1,15.054,3.024,4.956,6.063,10.005,9.06,14.92,3.052,5.076,6.062,10.018,9.114,15.027,3.024,4.955,6.021,9.91,9.087,14.933,6.156,8.628,19.564,10,34.105,3.551l69.48-34.092c14.109-7.466,20.185-18.417,15.473-27.881-2.984-4.955-5.995-10-8.992-15.041s-6.008-10.059-9.006-15.122c-2.97-4.955-5.981-10.046-9.005-15.123q-4.516-7.534-9.006-15.122m83.6,139.73c-6.224-8.736-19.645-10.113-34.254-3.565l-69.332,33.836c-13.893,7.4-19.808,18.2-15.041,27.489,3,4.874,6.035,9.857,9.019,14.717s6.008,9.816,8.992,14.649c3,4.874,6.008,9.735,8.992,14.609s5.995,9.749,8.993,14.582c6.2,8.533,19.469,9.883,33.862,3.47l69.035-33.39c13.988-7.4,20-18.146,15.379-27.341-2.958-4.9-5.982-9.87-8.925-14.758-2.97-4.887-5.913-9.775-8.9-14.73-2.957-4.874-5.955-9.856-8.911-14.744-3-4.942-5.968-9.937-8.912-14.825m82.712,136.6c-6.076-8.492-19.4-9.829-33.89-3.362l-68.818,33.214c-13.853,7.184-19.726,17.741-15.028,26.8,2.984,4.793,5.927,9.573,8.9,14.339,2.983,4.821,5.954,9.546,8.938,14.366q4.4,7.047,8.9,14.244c2.971,4.793,5.887,9.438,8.884,14.244,6.035,8.209,19.227,9.546,33.539,3.267L2944,3582.781c13.947-7.183,19.942-17.714,15.325-26.734-2.93-4.779-5.82-9.492-8.79-14.312-2.916-4.793-5.832-9.573-8.8-14.406-2.917-4.82-5.859-9.586-8.776-14.38-2.97-4.9-5.914-9.681-8.844-14.46m81.7,133.169c-6.009-8.263-19.172-9.478-33.593-3.227l-68.292,32.607c-13.758,7.034-19.6,17.377-14.987,26.18,2.957,4.739,5.873,9.33,8.83,14.015,2.943,4.644,5.819,9.222,8.776,13.934,2.9,4.6,5.833,9.195,8.736,13.853,2.917,4.563,5.833,9.208,8.763,13.772,6.035,8.141,19.078,9.343,33.281,3.2l67.968-32.135c13.745-7.142,19.753-17.35,15.2-26.18-2.89-4.645-5.766-9.316-8.628-13.921-2.943-4.725-5.792-9.316-8.668-13.988-2.917-4.726-5.846-9.424-8.708-14.069-2.9-4.712-5.82-9.451-8.682-14.042m80.4,129.415c-5.886-8.02-18.9-9.1-33.215-2.957l-67.792,31.931c-13.583,6.967-19.429,17.039-14.878,25.613,2.862,4.5,5.778,9.06,8.681,13.583,2.876,4.483,5.779,9.006,8.628,13.462,2.862,4.549,5.738,9.005,8.6,13.5,2.876,4.469,5.779,8.992,8.627,13.421,5.914,7.8,18.794,8.884,32.877,2.822l67.415-31.5c13.691-6.926,19.645-16.931,15.189-25.464-2.808-4.442-5.657-8.992-8.479-13.488-2.836-4.551-5.711-9.087-8.547-13.651-2.862-4.536-5.657-9.005-8.547-13.609-2.862-4.564-5.7-9.141-8.56-13.664m78.972,125.458c-5.806-7.737-18.7-8.8-32.864-2.727l-67.185,31.378c-13.488,6.832-19.321,16.567-14.893,24.884q4.254,6.542,8.493,13.1c2.875,4.442,5.657,8.722,8.479,13.1,2.848,4.361,5.656,8.7,8.492,13.084,2.795,4.28,5.617,8.641,8.412,12.934,5.846,7.52,18.605,8.574,32.526,2.619l66.78-30.973c13.6-6.764,19.578-16.485,15.216-24.749-2.768-4.294-5.536-8.709-8.344-13.07-2.795-4.388-5.576-8.79-8.344-13.151-2.795-4.4-5.576-8.79-8.4-13.164-2.768-4.4-5.591-8.857-8.372-13.259m77.379,121.313c-5.7-7.494-18.444-8.438-32.512-2.511l-66.6,30.744c-13.38,6.656-19.226,16.2-14.824,24.249,2.741,4.226,5.548,8.493,8.3,12.705s5.536,8.4,8.291,12.6l8.249,12.516c2.727,4.131,5.522,8.316,8.236,12.435,5.657,7.25,18.281,8.183,32.107,2.376l66.213-30.365c13.448-6.67,19.429-16.108,15.2-24.033-2.727-4.212-5.428-8.371-8.141-12.583-2.741-4.213-5.442-8.466-8.169-12.678s-5.44-8.452-8.155-12.678-5.468-8.546-8.2-12.773m75.515,116.817c-5.577-7.183-18.159-8.06-32.067-2.214L3220,4152.61c-13.259,6.575-19.105,15.811-14.866,23.547q4.07,6.055,8.115,12.111c2.686,4.064,5.4,8.088,8.1,12.125s5.347,7.993,8.048,12.057c2.7,4.023,5.346,7.993,8.006,11.962,5.576,6.967,18.052,7.8,31.716,2.066l65.6-29.785c13.327-6.521,19.281-15.648,15.149-23.331-2.605-4-5.266-8.061-7.939-12.125-2.593-3.969-5.252-8.047-7.912-12.125-2.619-4.05-5.306-8.1-7.966-12.192-2.687-4.146-5.334-8.2-7.98-12.26m73.49,112.079c-5.387-6.778-17.782-7.561-31.554-1.8l-65.4,29.6c-13.137,6.414-19.024,15.3-14.906,22.7,2.66,3.956,5.306,7.845,7.939,11.707,2.62,3.9,5.212,7.709,7.831,11.571,2.647,3.889,5.279,7.764,7.858,11.571,2.633,3.875,5.211,7.669,7.817,11.477,5.415,6.669,17.661,7.331,31.189,1.688l65.038-29.19c13.164-6.427,19.159-15.257,15.217-22.562-2.552-3.821-5.171-7.723-7.7-11.57q-3.889-5.813-7.763-11.693-3.889-5.854-7.764-11.706c-2.592-3.9-5.171-7.818-7.8-11.787m72.154,108.366c-1.594-1.985-10.464-11.382-31.81-2.444l-64.809,28.975c-20.442,9.735-15.393,20.887-14.2,22.994,2.809,4.078,5.59,8.168,8.344,12.178,2.795,4.092,5.576,8.169,8.317,12.192,2.795,4.091,5.549,8.074,8.317,12.192,2.727,4.01,5.5,8.033,8.249,12.1,5.684,7.048,17.985,7.966,31.392,2.512l64.377-28.638c13.07-6.264,18.795-15.244,14.555-22.98-2.7-4.05-5.441-8.168-8.141-12.206-2.741-4.1-5.414-8.155-8.169-12.259s-5.5-8.236-8.182-12.273q-4.111-6.178-8.236-12.34m75.394,113.5c-5.523-7.034-17.809-8.02-31.324-2.511l-64.134,28.38c-12.881,6.17-18.457,15.082-14.177,22.7,2.673,3.943,5.333,7.912,8.06,11.922q3.97,5.955,8.007,11.882,3.99,5.934,7.966,11.881c2.687,3.97,5.333,7.9,7.992,11.868,5.469,6.859,17.621,7.858,30.906,2.471l63.729-28.07c12.921-6.185,18.673-14.987,14.582-22.521-2.62-3.983-5.225-7.966-7.858-11.949s-5.225-7.979-7.912-12.017c-2.606-4.01-5.225-7.966-7.858-11.949-2.674-4.078-5.293-8.033-7.979-12.084m72.856,111.053c-5.32-6.819-17.4-7.764-30.784-2.417l-63.539,27.868c-12.746,6.076-18.4,14.717-14.285,22.144q3.868,5.852,7.75,11.692c2.606,3.889,5.2,7.8,7.8,11.693,2.579,3.9,5.131,7.736,7.709,11.652,2.593,3.889,5.144,7.723,7.723,11.639,5.32,6.724,17.241,7.655,30.42,2.39l63.134-27.5c12.813-6.035,18.564-14.744,14.609-22.143-2.484-3.834-5.036-7.776-7.588-11.706s-5.05-7.777-7.6-11.707-5.1-7.845-7.655-11.747c-2.539-3.929-5.09-7.885-7.7-11.854m70.479,108.918c-5.171-6.724-17.066-7.683-30.325-2.376l-62.946,27.3c-12.665,5.954-18.294,14.474-14.339,21.792,2.47,3.768,5.009,7.6,7.52,11.437s5,7.642,7.508,11.449c2.538,3.861,5.009,7.628,7.507,11.477,2.471,3.781,4.969,7.615,7.454,11.382,5.157,6.642,16.958,7.615,29.973,2.458l62.594-26.991c12.733-5.981,18.471-14.488,14.649-21.778-2.457-3.861-4.887-7.656-7.372-11.518-2.417-3.808-4.887-7.669-7.358-11.544-2.458-3.767-4.928-7.642-7.4-11.5-2.5-3.861-4.982-7.737-7.466-11.584m68.305,106.948c-5.063-6.684-16.756-7.534-29.92-2.39l-62.365,26.9c-12.57,5.778-18.187,14.217-14.42,21.306,2.444,3.78,4.847,7.506,7.291,11.287,2.471,3.768,4.847,7.494,7.277,11.288s4.847,7.507,7.318,11.288c2.363,3.713,4.793,7.493,7.21,11.22,5.023,6.495,16.608,7.4,29.528,2.323l62.055-26.545c12.61-5.805,18.416-14.123,14.744-21.306-2.363-3.713-4.739-7.534-7.13-11.261-2.4-3.821-4.779-7.628-7.169-11.355-2.417-3.78-4.793-7.615-7.223-11.408-2.349-3.727-4.753-7.548-7.2-11.342m66.253,105.138c-4.914-6.548-16.5-7.48-29.488-2.335l-61.892,26.342c-12.489,5.711-18.16,13.974-14.46,21.036,2.323,3.646,4.686,7.385,7.075,11.1s4.725,7.372,7.061,11.112c2.336,3.659,4.7,7.385,7.035,11.044,2.376,3.713,4.685,7.386,7.061,11.085,4.861,6.4,16.337,7.385,29.137,2.349l61.582-26.031c12.5-5.765,18.322-14,14.758-21.022-2.3-3.686-4.618-7.439-6.9-11.1-2.336-3.767-4.671-7.507-6.967-11.166q-3.524-5.649-7.021-11.247c-2.3-3.672-4.631-7.413-6.98-11.166m64.336,103.559c-4.78-6.454-16.2-7.358-29.137-2.363l-61.406,25.937c-12.367,5.617-18.052,13.771-14.5,20.7,2.322,3.646,4.6,7.331,6.913,11,2.255,3.591,4.577,7.237,6.872,10.922,2.269,3.578,4.55,7.265,6.792,10.856,2.309,3.672,4.55,7.277,6.846,10.937,4.793,6.359,16.08,7.223,28.8,2.35l61.122-25.6c12.625-5.738,18.282-13.664,14.812-20.658-2.241-3.686-4.523-7.385-6.738-10.99-2.255-3.7-4.51-7.385-6.751-10.99-2.254-3.7-4.523-7.372-6.817-11.058-2.269-3.686-4.55-7.372-6.805-11.044m62.566,102.128c-4.617-6.306-15.958-7.278-28.771-2.323l-60.948,25.491c-12.476,5.63-18.038,13.421-14.541,20.4,2.228,3.578,4.469,7.21,6.643,10.734,2.228,3.632,4.47,7.21,6.7,10.829s4.456,7.21,6.656,10.747c2.2,3.619,4.443,7.224,6.589,10.775,4.712,6.292,15.891,7.25,28.5,2.4l60.717-25.154c12.354-5.577,18.174-13.624,14.825-20.469-2.2-3.632-4.348-7.182-6.549-10.814s-4.4-7.251-6.6-10.883q-3.281-5.407-6.575-10.868c-2.2-3.619-4.428-7.224-6.644-10.869m60.921,100.8c-4.55-6.238-15.689-7.129-28.462-2.322l-60.542,25.072c-12.206,5.482-17.917,13.38-14.6,20.131,2.174,3.537,4.321,7.088,6.481,10.653,2.214,3.592,4.375,7.169,6.521,10.707q3.261,5.347,6.481,10.653,3.24,5.325,6.467,10.639c4.537,6.2,15.581,7.1,28.165,2.417l60.3-24.843c12.272-5.427,18.146-13.286,14.892-20.09-2.119-3.564-4.267-7.143-6.386-10.707-2.146-3.551-4.293-7.21-6.44-10.774s-4.253-7.129-6.427-10.761c-2.16-3.551-4.28-7.129-6.454-10.774m59.354,99.7c-4.415-6.144-15.473-7.062-28.138-2.322l-60.178,24.681c-12.151,5.359-17.876,13.164-14.649,19.861,2.119,3.483,4.239,7.048,6.373,10.625,2.093,3.47,4.252,7.035,6.332,10.519,2.134,3.577,4.227,7.061,6.306,10.531,2.147,3.564,4.212,7.089,6.332,10.626,4.456,6.143,15.365,7.048,27.814,2.309l59.988-24.357c12.219-5.4,18.065-13.165,14.892-19.9-2.052-3.524-4.145-7.088-6.2-10.585-2.134-3.591-4.186-7.088-6.292-10.667-2.079-3.51-4.2-7.088-6.292-10.639-2.065-3.511-4.185-7.1-6.292-10.68m57.977,98.792c-4.375-6.17-15.338-7.128-27.881-2.458l-59.854,24.385c-12.057,5.292-17.808,13.016-14.689,19.577q3.139,5.246,6.2,10.519c2.08,3.5,4.145,6.98,6.224,10.491,2.039,3.523,4.078,6.953,6.13,10.437,2.066,3.511,4.145,7.007,6.143,10.437,4.348,6.089,15.149,7.047,27.584,2.444l59.638-24.06c12.125-5.347,18.039-13.043,14.959-19.658q-3.078-5.266-6.1-10.559c-2.012-3.429-4.064-6.94-6.09-10.464-2.052-3.51-4.077-7.047-6.129-10.545-2.039-3.524-4.091-7.021-6.13-10.545m56.586,97.862c-4.268-6.1-15.109-7.062-27.6-2.417l-59.556,23.938c-12,5.266-17.768,12.88-14.731,19.429,2.039,3.484,4.064,6.927,6.036,10.369,2.052,3.511,4.05,6.954,6.076,10.4,2.011,3.51,4.023,6.953,6.021,10.4s4.024,6.967,6.022,10.423c4.24,6.036,14.934,6.954,27.329,2.485l59.326-23.8c12.071-5.226,17.945-12.895,14.961-19.457-1.985-3.457-3.929-6.913-5.967-10.437-1.985-3.456-3.956-6.927-5.968-10.437-1.958-3.47-4-6.98-5.968-10.437s-4.023-6.994-5.98-10.45m55.317,97.131c-4.213-6.076-14.893-7.008-27.368-2.471l-59.22,23.642c-11.935,5.131-17.754,12.692-14.743,19.24,1.958,3.443,3.942,6.9,5.873,10.261q2.977,5.205,5.914,10.383c1.985,3.442,3.983,6.913,5.9,10.274,1.944,3.47,3.942,6.927,5.887,10.4,4.171,5.967,14.838,7.021,27.111,2.5l59.03-23.439c12.07-5.117,17.971-12.678,15.014-19.281-1.944-3.456-3.9-6.926-5.807-10.329-1.943-3.47-3.888-6.926-5.846-10.41-1.984-3.457-3.929-6.913-5.886-10.383s-3.889-6.926-5.859-10.382m54.183,96.538c-4.118-6.021-14.8-7.048-27.125-2.5l-59,23.3c-11.854,5.1-17.7,12.557-14.785,19.064,1.917,3.389,3.862,6.845,5.779,10.249,1.972,3.47,3.861,6.859,5.806,10.315,1.9,3.416,3.861,6.886,5.779,10.275,1.931,3.456,3.848,6.845,5.752,10.261,4.131,6.008,14.663,7.021,26.882,2.606l58.841-23.1c11.949-5.171,17.849-12.651,15.054-19.1-1.945-3.483-3.834-6.873-5.751-10.37-1.9-3.4-3.821-6.886-5.711-10.274-1.944-3.484-3.875-6.954-5.751-10.356-1.944-3.5-3.875-6.953-5.765-10.369m53.088,96.065c-4.05-6.049-14.609-7.035-26.936-2.579l-58.706,23.034c-11.855,5-17.688,12.449-14.866,18.9,1.89,3.416,3.794,6.805,5.67,10.207,1.876,3.429,3.753,6.819,5.711,10.289,1.85,3.43,3.753,6.818,5.644,10.207,1.877,3.416,3.74,6.846,5.644,10.234,4.037,5.968,14.487,7.021,26.666,2.66l58.611-22.8c11.962-5.037,17.877-12.53,15.054-19-1.849-3.429-3.712-6.832-5.576-10.248-1.89-3.429-3.793-6.926-5.656-10.329s-3.727-6.846-5.6-10.248c-1.917-3.484-3.78-6.9-5.657-10.329m52.118,95.741c-3.97-6.008-14.474-7.034-26.774-2.687l-58.517,22.75c-11.828,4.956-17.674,12.328-14.879,18.795,1.877,3.429,3.727,6.832,5.563,10.167l5.589,10.261c1.864,3.416,3.672,6.764,5.523,10.18,1.876,3.43,3.726,6.846,5.549,10.194,3.982,5.981,14.366,7.008,26.5,2.741l58.4-22.575c12.1-5.036,17.89-12.273,15.163-18.768-1.851-3.416-3.687-6.859-5.536-10.289s-3.672-6.859-5.522-10.289c-1.823-3.348-3.646-6.778-5.509-10.207s-3.686-6.859-5.549-10.275m51.171,95.471c-3.889-5.94-14.326-7.034-26.585-2.714l-58.341,22.454c-11.841,4.875-17.661,12.233-14.933,18.632,1.823,3.362,3.645,6.791,5.481,10.221,1.81,3.334,3.632,6.792,5.455,10.14,1.823,3.443,3.632,6.8,5.481,10.221,1.769,3.362,3.619,6.778,5.4,10.14,3.929,6.022,14.285,7.156,26.342,2.849l58.3-22.224c11.828-4.969,17.809-12.3,15.109-18.754-1.8-3.442-3.619-6.859-5.4-10.248-1.835-3.442-3.632-6.886-5.427-10.234-1.823-3.456-3.632-6.818-5.428-10.261-1.836-3.416-3.618-6.792-5.455-10.221m51.914,98.415c-4.645-7.494-15.581-9.694-27.813-5.468l-58.192,22.183c-11.706,4.955-17.04,13.246-13.542,21.225,2.214,4.2,4.415,8.412,6.656,12.625q3.3,6.319,6.656,12.637c2.2,4.213,4.389,8.331,6.589,12.544,2.188,4.145,4.348,8.276,6.535,12.5,4.549,7.264,15.27,9.276,27.381,5.225l58.1-22.008c11.8-4.942,17.269-13.205,13.988-20.981-2.174-4.132-4.321-8.277-6.508-12.5-2.228-4.226-4.375-8.357-6.576-12.583-2.173-4.24-4.388-8.452-6.588-12.678-2.214-4.2-4.442-8.492-6.684-12.719M4556.7,6188.9c-4.4-7.156-15.163-9.155-27.314-4.969l-58.031,21.873c-11.733,4.793-17.214,12.868-13.987,20.469,2.133,4.078,4.172,8.088,6.265,12.151q3.119,6.015,6.184,12,3.1,6.015,6.211,12.017c2.052,4,4.1,8.006,6.116,11.922,4.307,7.007,14.878,8.9,26.937,4.792l57.949-21.724c11.8-4.847,17.4-12.786,14.366-20.212-2.039-4.01-4.078-8.034-6.116-12.03s-4.092-8.02-6.158-12.03c-2.052-3.983-4.132-8.087-6.2-12.1-2.052-4.077-4.118-8.074-6.224-12.165m56.41,110.984c-4.172-6.9-14.744-8.7-26.922-4.59l-57.9,21.6c-11.693,4.793-17.3,12.61-14.3,19.956,1.944,3.875,3.916,7.709,5.833,11.5,1.944,3.875,3.9,7.709,5.806,11.5,1.971,3.862,3.875,7.656,5.765,11.463,1.972,3.862,3.862,7.642,5.779,11.437,4.132,6.724,14.258,8.371,26.45,4.267l57.842-21.481c11.814-4.767,17.62-12.4,14.771-19.523-1.89-3.808-3.807-7.683-5.724-11.464q-2.856-5.731-5.792-11.543c-1.876-3.821-3.835-7.655-5.751-11.531-1.985-3.861-3.9-7.75-5.86-11.6m62.528,125.607c-6-10.733-17.8-15.19-30.055-11.382l-57.829,21.346c-11.571,4.942-15.918,15.338-11.084,26.517,2.943,6,5.913,11.963,8.83,17.877,2.93,5.967,5.833,11.868,8.749,17.8,2.9,5.9,5.725,11.747,8.6,17.579s5.711,11.679,8.5,17.458c5.861,10.41,17.067,14.5,29.354,10.666l57.8-21.049c11.882-5.009,16.418-14.905,11.842-25.816-2.822-5.764-5.645-11.625-8.507-17.47-2.9-5.915-5.725-11.76-8.627-17.661-2.889-5.94-5.833-11.921-8.722-17.835-2.9-5.982-5.874-11.977-8.857-18.025m78.309,161.576c-5.467-9.911-16.85-13.839-29.055-10.033l-57.761,21.037c-11.625,4.753-16.351,14.541-12.112,24.884,2.647,5.549,5.253,11.031,7.858,16.5,2.646,5.468,5.239,10.95,7.8,16.364,2.592,5.387,5.131,10.815,7.7,16.229,2.525,5.307,5.09,10.721,7.6,16.054,5.144,9.424,16.324,13.15,28.368,9.343l57.813-20.751c11.72-4.834,16.756-14.3,12.76-24.277-2.525-5.333-5.036-10.652-7.588-16.08-2.538-5.4-5.1-10.815-7.723-16.31-2.552-5.414-5.171-10.869-7.75-16.337-2.606-5.509-5.266-11.058-7.913-16.621m69.724,148.357c-4.9-9.032-15.918-12.367-28.083-8.6l-57.841,20.685c-11.6,4.739-16.743,13.894-13.043,23.332,2.309,5.022,4.645,10.085,6.994,15.108,2.268,4.969,4.6,10,6.846,14.906,2.268,4.969,4.563,9.938,6.8,14.812q3.383,7.351,6.751,14.69c4.686,8.682,15.19,11.679,27.436,7.872l57.842-20.577c11.949-4.753,17.256-13.38,13.771-22.548q-3.3-7.251-6.737-14.677c-2.241-4.888-4.523-9.856-6.792-14.852-2.282-4.941-4.563-9.911-6.913-14.933-2.322-5.05-4.658-10.1-7.034-15.217m61.542,134.883c-4.361-8.141-15.069-10.963-27.221-7.183l-57.909,20.5c-11.651,4.591-17.161,13.151-13.987,21.7,2,4.537,4.078,9.1,6.1,13.637,2,4.536,4,8.952,5.995,13.488,1.985,4.442,3.983,8.885,5.9,13.272,1.985,4.415,3.929,8.8,5.887,13.164,4.05,7.629,14.527,10.181,26.558,6.373l58.017-20.279c11.868-4.591,17.606-12.8,14.73-20.888-1.931-4.375-3.928-8.816-5.874-13.191-2-4.442-3.955-8.884-5.98-13.394-2-4.443-4.01-8.966-6.049-13.475-2.012-4.523-4.078-9.114-6.169-13.718m53.643,120.91c-3.876-7.237-14.286-9.533-26.423-5.671l-58.085,20.2c-11.719,4.522-17.553,12.476-14.919,20.145q2.632,6.075,5.252,12.016c1.714,4,3.442,7.979,5.143,11.9,1.715,4,3.416,7.9,5.063,11.732,1.688,3.916,3.335,7.764,5,11.585,3.591,6.709,13.7,8.586,25.72,4.752l58.166-20.118c12.058-4.631,18.092-11.908,15.662-19.173q-2.491-5.731-5-11.557c-1.714-3.9-3.416-7.845-5.144-11.828-1.687-3.9-3.431-7.885-5.159-11.881-1.754-3.97-3.523-8.047-5.278-12.1m45.663,105.908c-3.376-6.238-13.38-7.75-25.586-3.944l-58.219,20.065c-11.774,4.468-18.012,11.638-15.919,18.308,1.458,3.456,2.97,6.98,4.415,10.423s2.862,6.818,4.266,10.208c1.433,3.361,2.864,6.709,4.281,10.1,1.378,3.281,2.754,6.576,4.1,9.789,3.092,5.806,12.624,6.994,24.938,3.146l58.354-19.983c12.1-4.537,18.443-11.179,16.58-17.391-1.376-3.281-2.78-6.575-4.2-9.937-1.377-3.295-2.795-6.656-4.227-10.019-1.444-3.457-2.861-6.832-4.347-10.262-1.445-3.456-2.958-6.966-4.442-10.5M1054.326,341.893c40.208-26.6,61.811-49.794,64.322-68.751a404.486,404.486,0,0,1-2.592-51.469,206.557,206.557,0,0,1,4.307-40.358q3.89-17.274,11.112-29.176a54.364,54.364,0,0,1,17.647-18.282Q713.385,405.486,277.622,677.2a105.732,105.732,0,0,0-26.666,23.764A136.156,136.156,0,0,0,231.271,734.9a212.976,212.976,0,0,0-12.57,44.218,363.711,363.711,0,0,0-5.131,54.643c1.472,2.295,3.429,5.345,4.888,7.588,16.432,3.16,32.823-3.984,59.218-19.038l776.65-480.42m79.756,21.792c-10.707-21.658-46.46-6.346-74.544,10.329L279.85,855.217c-37.967,24.492-61.284,52.117-60.731,72.262,2.039,16.526,4.713,33.89,7.953,51.981,3.24,18.146,7.047,36.942,11.448,56.587q6.644,29.547,15,61.27,8.344,31.777,18.471,65.727,16.688,56.038,37.886,117.262,21.306,61.408,47.067,127.862,25.762,66.47,55.978,137.812,30.237,71.332,64.66,147.062c25.789,40.978,68.185,26.6,91.124,14.38l810.35-471.59c40.073-25.371,57.963-63.135,45.555-96.147q-35.544-78.175-67.334-151.463-31.776-73.213-59.61-141.256-27.766-67.886-51.523-130.253-23.716-62.236-43.206-118.6-11.808-34.149-22.116-66.078c-6.778-21.09-13.07-41.5-18.808-61.069q-8.588-29.226-15.595-56.128-6.947-26.773-12.34-51.158m371.191,949.364c-18-32.323-55.479-38.52-97.821-16.188l-810.89,469.849c-38.534,24.384-53.913,60.353-40.182,93.905,14.839,30.609,30.177,61.838,45.88,93.243q23.614,47.391,48.457,95.755,24.79,48.281,50.821,97.753,25.983,49.375,53.183,99.818,35.078,65.032,72.073,131.71,36.9,66.511,75.489,134.3,38.581,67.6,78.729,136.4,40.06,68.636,81.7,138.244c19.821,28.854,58,35.213,97.28,16.27L1964.954,2374.6c39.75-23.156,55.533-59.246,40.3-91.84q-40.221-73.213-79.174-145.293-39.109-72.342-76.771-143.281-37.792-71.108-74.071-140.729-36.374-69.791-71.154-137.841-26.855-52.616-52.805-104.151-25.883-51.545-50.794-101.98-24.91-50.451-48.728-99.536-23.777-49.113-46.487-96.9M2098.7,2451.331c-19.713-30.581-59.246-37.413-100.683-17.539l-803.937,426.954c-37.413,21.9-50.956,56.046-34.484,87.073,1.364,2.2,2.7,4.416,4.091,6.657,1.323,2.16,2.7,4.4,4.037,6.616,1.336,2.119,2.7,4.374,4.05,6.548,1.377,2.228,2.714,4.428,4.091,6.63q56.5,91.784,114.765,183.651,57.74,91.239,116.979,182.166,58.753,90.206,118.491,179.723,59.32,88.848,119.207,176.238c28.8,31.527,70.385,19.416,92.582,9.37l780.349-385.179c38.521-20.711,54.79-51.01,41.545-77.176q-56.181-92.839-112.159-187.013-56.262-94.7-112.064-190.307-56.1-96.2-111.336-192.59-55.513-97.091-109.864-193.9c-1.324-2.35-2.633-4.659-3.956-7.022-1.3-2.335-2.552-4.577-3.861-6.913-1.31-2.363-2.619-4.671-3.943-7.048-1.283-2.268-2.566-4.591-3.9-6.94m542.677,925.71c-27.6-32.944-70.831-20.212-94.175-9.748L1768.53,3750.108c-36.346,19.523-50.456,47.837-36,72.14q61.122,87.673,122.326,173.228,60.656,84.818,121.124,167.139,59.826,81.619,119.261,160.469,58.774,78.013,116.845,153.083c27.1,26.044,66.712,14.852,87.924,5.873l743.907-341.73c21.414-10.667,55.155-33.457,40.533-66.24q-52.982-80.2-107.083-163.641-54.46-84.07-109.837-171.108-55.756-87.714-112.2-178.075-56.808-90.955-113.955-184.205m517.159,808.312c-25.181-27.031-66.132-15.365-88.315-6.063L2328.49,4518.9c-34.16,16.945-48.282,41.6-35.1,61.285q20.658,26.188,41.14,51.86,20.415,25.6,40.681,50.753,20.253,25.094,40.235,49.605,19.949,24.526,39.735,48.512,37.386,45.365,73.72,90.219,36.233,44.656,71.411,88.828,35,43.847,69.143,87.41,33.924,43.3,67.05,86.236c24.64,23.56,61.865,13.8,81.888,5.914l702.147-302.642c34.106-15.933,49.9-39.723,39.344-59.179q-30.136-45.73-60.987-91.96-30.967-46.4-62.689-93.338-31.9-47.229-64.565-95.052-32.89-48.059-66.551-96.713c-11.9-17.242-23.844-34.551-35.888-52.09-12.071-17.619-24.168-35.307-36.4-53.251s-24.546-36.117-36.887-54.371c-12.382-18.349-24.87-36.941-37.373-55.573m467.553,693.532c-22.669-24.856-61.109-14.717-81.983-6.427l-700.27,300.752c-19.159,8.912-49.133,27.989-34.727,55.505q50.064,66.227,98.374,131.927,47.857,65.051,94.067,129.766,45.851,64.119,90.178,128,43.99,63.391,86.574,126.552c20.86,22.116,56.086,13.475,75.191,6.3L3926.25,5478.3c19.4-8.547,50.362-26.869,40.168-54.089Q3926.8,5357.9,3886,5291.093q-41.072-67.258-83.346-135.018Q3760,5087.784,3716.1,5018.8q-44.313-69.587-90-139.918m395.9,638.9c-19.659-23.074-56.086-14.083-76.042-6.616l-671.565,271.71c-18.47,7.993-47.715,25.464-36.59,51.279q41.153,62.419,81.064,124.8,39.736,62.054,78.189,124.095,38.338,61.832,75.543,123.757,37.083,61.75,73.085,123.636c18.3,21.873,52.266,14.136,70.9,7.615l656.2-251.323c32.4-13.488,48.525-33.579,41.006-51.293q-34.653-64.322-69.995-128.469-35.522-64.4-71.843-128.888-36.474-64.768-73.841-129.63-37.568-65.214-76.11-130.67m342.757,613.129c-18.66-25.005-74.22-12.286-74.773-12.151l-655.62,250.363c-.486.176-45.555,27.462-35.753,53.4q21.306,37.469,41.613,74.044,20.294,36.434,39.682,71.978,19.321,35.421,37.765,69.966,18.389,34.451,35.982,67.982,30.116,57.5,57.734,112.132,27.6,54.56,52.9,106.3,25.3,51.563,48.27,100.277,23.027,48.689,43.894,94.324c19.78,31.945,53.912,27,72.478,21.211L4681.5,6910.025c18.781-7.507,48.674-25.343,37.711-61.271q-21.265-46.642-44.6-96.579-23.332-49.962-48.661-103.019-25.4-53.041-52.846-109.229-27.4-56.181-57.112-115.454-17.317-34.612-35.362-70.128-18.126-35.665-36.94-72.3-18.957-36.678-38.628-74.436-19.767-37.893-40.316-76.69M215.177,717.621c-1.5.378-2,.433-17.633,10.154l-62.149,38.8c-10.045,6.265-22.9,14.352-26.774,17.526-1.5,1.241-2.93,2.578-4.334,3.928s-2.809,2.727-4.173,4.146c-1.391,1.376-2.687,2.916-4,4.374-1.309,1.5-2.619,3.025-3.834,4.632a4.262,4.262,0,0,1-.378.7c1.189,0,3.375.055,18.727-9.491l62.756-39.007c12.6-8.007,23.128-15.608,26.1-19.05,1.215-1.459,2.4-3.051,3.7-4.5,1.242-1.471,2.538-2.916,3.821-4.321,1.337-1.349,2.66-2.713,4-4.036,1.391-1.257,2.781-2.553,4.172-3.862m-32.364,44.961c.027-.3.094-.662.121-.985-.918-.378-3.092-1.31-19.78,8.883l-63.012,39.278c-10.424,6.576-22.575,15.311-25.357,20.158q-1.438,2.977-2.782,6.129c-.891,2.093-1.728,4.226-2.565,6.373-.8,2.255-1.58,4.51-2.376,6.711-.81,2.228-1.539,4.551-2.255,6.9a7.281,7.281,0,0,1,.04,1.188c.932.662,3.767,2.458,20.348-7.682l63.566-39.493c13.11-8.263,22.791-16.8,24.736-21.549.634-2.376,1.35-4.632,2.092-6.86.662-2.254,1.418-4.442,2.228-6.616.783-2.119,1.58-4.253,2.4-6.332.837-2.025,1.674-4.132,2.593-6.1m-17.336,66.442c0-4.576-8.344-2.43-21.616,5.658L80,874.295c-13.367,8.547-22.562,17.189-23.938,22.616-.391,2.8-.729,5.671-1.026,8.547-.365,2.85-.689,5.738-.918,8.749-.283,2.93-.513,5.941-.715,8.979s-.365,6.13-.541,9.2c.432,5.414,9.236,3.821,22.426-4.092l64.351-39.831c13.258-8.465,22.385-17.97,23.209-24.195.081-3.1.23-6.17.418-9.141.136-3.064.311-6.048.554-8.951s.473-5.846.756-8.681.581-5.7.9-8.467m-1.606,88.248c-1.094-6.048-10.181-4.752-23.736,3.268L75.608,960.478c-13.461,8.668-22.075,18.282-22.4,25.166.189,3.618.445,7.263.661,10.91.27,3.618.54,7.332.824,11.018.365,3.793.715,7.548,1.066,11.314.379,3.875.784,7.723,1.229,11.638,1.486,6.7,11.126,6.05,24.506-1.782l65.025-40.019c13.367-8.627,21.846-19.159,21.657-26.693-.472-3.889-.945-7.79-1.35-11.558-.418-3.821-.8-7.574-1.2-11.355-.324-3.658-.634-7.358-.945-11.057-.324-3.619-.581-7.224-.81-10.789m14.663,110.2c-2.215-7.466-12.1-7.183-25.842.851l-65.255,40.06c-13.313,8.614-21.428,19.51-20.766,27.651.824,4.4,1.607,8.723,2.471,13.218.851,4.388,1.729,8.871,2.647,13.393.877,4.5,1.809,9.007,2.795,13.611.985,4.631,1.985,9.208,3.024,13.879,2.593,8.181,13.043,8.452,26.653.7l65.606-40.14c13.475-8.668,21.278-20.157,20-29.15-1.04-4.631-2.119-9.344-3.119-13.921-1.026-4.578-1.971-9.115-2.944-13.651-.918-4.442-1.863-8.952-2.714-13.339q-1.377-6.706-2.551-13.165m31.175,131.967c-3.281-8.993-13.988-9.614-27.921-1.647l-65.821,40.06c-13.38,8.708-20.9,20.468-19.064,30.163.783,2.876,1.566,5.778,2.376,8.7s1.62,5.845,2.43,8.761c.838,3,1.661,5.914,2.538,8.911.81,2.917,1.675,5.928,2.512,8.911.594,1.945,1.175,3.916,1.742,5.875.527,1.862,1.121,3.82,1.687,5.777s1.161,3.916,1.715,5.874c.635,2.026,1.215,3.983,1.809,5.981,3.186,7.9,14.123,7.992,27.787.2l66.173-40.045c13.555-8.628,21.076-19.97,19.226-28.718-.621-2.039-1.229-3.97-1.8-5.9-.58-1.984-1.229-4.01-1.809-5.954s-1.175-3.916-1.728-5.846c-.607-1.985-1.147-3.849-1.729-5.793-.878-3.011-1.742-5.982-2.605-8.965s-1.755-5.967-2.579-8.884c-.824-2.889-1.688-5.9-2.5-8.816-.837-2.9-1.661-5.82-2.444-8.642m41.329,133.775c-3.726-8.547-14.7-8.789-28.8-.877l-66.281,40.02c-13.61,8.815-20.765,19.941-18.47,29.257,1.58,4.82,3.227,9.722,4.86,14.542,1.688,4.914,3.362,9.857,5.063,14.744q2.511,7.371,5.158,14.865c1.742,4.968,3.51,10,5.252,14.986,4.024,8.9,15.541,9.654,29.3,1.864l66.551-39.857c13.57-8.75,20.671-20.578,18.025-30.326-1.81-4.994-3.6-10.058-5.374-15.027-1.755-4.928-3.5-9.964-5.225-14.906-1.715-4.9-3.389-9.8-5.077-14.729-1.688-4.889-3.334-9.735-4.982-14.556m51.348,141.675c-4.4-9.263-16.013-10.208-30.191-2.31l-66.631,39.8c-13.5,8.641-20.28,20.684-17.35,30.594,2.038,5.334,4.1,10.641,6.2,16.028,2.052,5.306,4.131,10.666,6.237,16.026,2.133,5.455,4.24,10.815,6.414,16.27,2.133,5.414,4.361,10.936,6.534,16.351,4.78,9.626,16.755,10.882,30.677,3.281l66.833-39.655c13.6-8.722,20.212-21.089,16.9-31.553-2.255-5.509-4.442-11.018-6.6-16.445-2.174-5.4-4.334-10.829-6.453-16.243-2.147-5.441-4.253-10.788-6.346-16.161-2.12-5.347-4.159-10.653-6.224-15.986m62.661,154.177c-5.1-9.938-17.512-11.477-31.539-3.822l-66.969,39.533c-13.461,8.709-19.821,21.212-16.162,31.906,2.443,5.766,4.9,11.476,7.385,17.214,2.458,5.806,4.942,11.545,7.453,17.378,2.552,5.792,5.064,11.613,7.6,17.43s5.131,11.706,7.723,17.593c5.468,10.356,17.97,12.112,31.972,4.659l67.1-39.318c13.569-8.749,19.78-21.548,15.756-32.715-2.646-5.968-5.211-11.841-7.776-17.647-2.565-5.873-5.131-11.706-7.629-17.526-2.538-5.859-5.05-11.692-7.507-17.444-2.484-5.738-4.955-11.5-7.413-17.241m73.517,165.559c-5.846-10.695-18.727-12.679-32.89-5.212l-67.144,39.223c-13.488,8.6-19.389,21.576-14.947,33.053q4.173,9.134,8.479,18.389c2.876,6.09,5.711,12.234,8.628,18.47,2.835,6.09,5.792,12.287,8.681,18.5,2.93,6.21,5.914,12.448,8.843,18.632,6.17,11.058,19.173,13.339,33.2,5.914l67.265-38.858c13.611-8.682,19.375-21.846,14.637-33.754-2.971-6.279-5.914-12.463-8.871-18.714-2.916-6.226-5.833-12.409-8.736-18.632q-4.354-9.3-8.654-18.552c-2.822-6.142-5.671-12.313-8.493-18.456m83.806,175.887c-6.575-11.517-19.618-13.962-34.051-6.427l-67.239,38.75c-13.515,8.533-19.01,21.832-13.907,33.943,3.159,6.359,6.319,12.8,9.546,19.335,3.2,6.426,6.468,12.961,9.695,19.469,3.2,6.427,6.521,13,9.8,19.538,3.3,6.549,6.536,13.042,9.884,19.6,6.777,11.6,20.266,14.393,34.375,7.156l67.293-38.507c13.61-8.573,18.943-22.076,13.583-34.578q-4.982-9.822-9.924-19.739c-3.24-6.481-6.521-13.044-9.762-19.578-3.268-6.535-6.494-13.029-9.695-19.55q-4.88-9.8-9.6-19.415m93.486,184.8c-7.088-11.882-20.873-14.866-35.118-7.548l-67.361,38.264c-13.448,8.452-18.5,22.048-12.8,34.713,3.483,6.67,7.008,13.434,10.572,20.171,3.564,6.832,7.115,13.557,10.693,20.375,3.578,6.71,7.169,13.556,10.787,20.333,3.646,6.873,7.265,13.65,10.91,20.55,7.385,12.138,21.265,15.324,35.428,8.223l67.307-37.913c13.61-8.426,18.511-22.332,12.5-35.335-3.632-6.886-7.237-13.69-10.869-20.576-3.578-6.791-7.2-13.677-10.8-20.523-3.578-6.818-7.1-13.583-10.667-20.374-3.51-6.764-7.075-13.6-10.585-20.361m99.023,186.271c-6.292-9.883-19.186-11.463-33.579-4.023l-67.334,37.616c-13.516,8.236-19.132,20.307-14.353,30.716,3.011,5.536,6.116,11.139,9.141,16.662,3.052,5.536,6.157,11.166,9.208,16.715q4.658,8.4,9.235,16.729c3.092,5.576,6.211,11.179,9.3,16.783,6.359,9.815,19.578,11.5,33.687,4.455l67.252-37.386c13.61-8.264,19.213-20.469,14.285-31.082-3.092-5.576-6.237-11.273-9.317-16.864-3.078-5.643-6.17-11.219-9.221-16.85-3.105-5.63-6.13-11.179-9.195-16.769-3.011-5.562-6.075-11.152-9.113-16.7m87.1,157.4c-6.507-9.937-19.928-11.787-34.118-4.576l-67.226,37.116c-13.489,8.128-18.862,20.28-13.718,30.973,3.2,5.711,6.386,11.328,9.654,17.025,3.227,5.711,6.454,11.342,9.721,17.107q4.881,8.506,9.775,17.066c3.295,5.724,6.549,11.423,9.87,17.188,6.684,10.032,20.1,12.031,34.147,4.982l67.158-36.846c13.609-8.129,18.984-20.388,13.7-31.257-3.295-5.779-6.549-11.49-9.829-17.269-3.268-5.725-6.5-11.437-9.776-17.242q-4.861-8.567-9.709-17.174c-3.266-5.725-6.426-11.355-9.653-17.094m91.947,160.861c-6.845-10.154-20.428-12.233-34.619-5.226l-67.117,36.617c-13.421,8.074-18.578,20.293-13.123,31.216,3.375,5.765,6.723,11.49,10.14,17.309,3.4,5.752,6.831,11.571,10.261,17.4,3.416,5.793,6.792,11.531,10.221,17.323,3.43,5.819,6.873,11.611,10.315,17.43,7.021,10.261,20.563,12.368,34.632,5.522l67-36.266c13.555-8.02,18.687-20.374,13.178-31.324-3.47-5.887-6.886-11.719-10.288-17.551-3.457-5.887-6.886-11.693-10.275-17.526s-6.819-11.665-10.14-17.39q-5.083-8.81-10.181-17.538m96.309,163.546c-7.075-10.369-20.82-12.556-35-5.67l-66.968,36.023c-13.367,7.926-18.323,20.185-12.584,31.23,3.51,5.846,7.048,11.665,10.6,17.552q5.306,8.748,10.68,17.606c3.524,5.833,7.129,11.773,10.666,17.579,3.632,5.927,7.2,11.747,10.788,17.66,7.224,10.343,20.955,12.611,35.01,5.927l66.807-35.631c13.448-7.939,18.417-20.239,12.624-31.378q-5.387-8.891-10.734-17.741c-3.551-5.941-7.129-11.9-10.653-17.742q-5.367-8.911-10.653-17.754c-3.551-5.9-7.062-11.8-10.586-17.661m100.277,165.546c-7.358-10.464-21.265-12.894-35.361-6.049l-66.7,35.415c-13.394,7.736-18.106,20.023-12.165,31.068,2.741,4.441,5.482,8.829,8.209,13.232,2.754,4.469,5.455,8.763,8.2,13.15s5.536,8.844,8.263,13.246,5.509,8.816,8.25,13.2c.8,1.256,1.607,2.565,2.4,3.821.756,1.229,1.593,2.593,2.39,3.807.838,1.35,1.62,2.593,2.376,3.835.851,1.323,1.62,2.552,2.417,3.768,6.386,8.749,19.523,10.085,33.417,3.321l66.564-34.983c13.475-7.723,18.984-18.848,14.015-28.354-.8-1.256-1.606-2.539-2.389-3.822-.756-1.242-1.581-2.552-2.377-3.82-.81-1.324-1.593-2.606-2.4-3.9-.77-1.256-1.58-2.579-2.363-3.848-2.741-4.416-5.468-8.844-8.25-13.327-2.727-4.428-5.455-8.831-8.2-13.245-2.714-4.428-5.415-8.843-8.169-13.259-2.714-4.456-5.428-8.856-8.128-13.258m91.948,148.047c-6.387-8.735-19.578-9.937-33.634-3.214l-66.468,34.862c-13.354,7.493-18.714,18.47-13.691,27.814,3.186,5.009,6.332,9.978,9.5,14.932,3.146,4.915,6.279,9.883,9.479,14.853,3.146,4.915,6.333,9.9,9.505,14.852l9.492,14.825c6.495,8.668,19.578,9.91,33.484,3.389l66.321-34.511c13.393-7.655,18.849-18.592,13.772-28-3.146-4.955-6.292-9.951-9.438-14.919s-6.319-9.978-9.451-14.933c-3.16-5.063-6.346-10.046-9.492-15.041-3.132-4.969-6.251-9.951-9.384-14.906m88.261,138.907c-6.495-8.668-19.754-9.978-33.741-3.335l-66.2,34.254c-13.259,7.494-18.538,18.322-13.407,27.625,3.2,4.942,6.44,9.883,9.64,14.838,3.187,4.861,6.386,9.8,9.627,14.73,3.227,4.955,6.441,9.9,9.614,14.7,3.227,4.941,6.48,9.9,9.708,14.811,6.508,8.533,19.631,9.87,33.5,3.375l66.037-33.916c13.339-7.439,18.673-18.376,13.529-27.719q-4.781-7.371-9.6-14.811-4.8-7.453-9.6-14.852c-3.173-4.956-6.4-9.924-9.573-14.879s-6.346-9.87-9.532-14.825m89.476,137.88c-6.589-8.587-19.821-9.937-33.755-3.416l-65.916,33.755c-13.2,7.345-18.362,18.092-13.137,27.354,3.213,4.847,6.48,9.735,9.721,14.609s6.495,9.762,9.735,14.622c3.254,4.834,6.467,9.695,9.761,14.6,3.2,4.833,6.508,9.748,9.721,14.555,6.6,8.479,19.753,9.829,33.511,3.443l65.74-33.336c13.286-7.385,18.5-18.092,13.326-27.354-3.213-4.874-6.454-9.748-9.667-14.6q-4.9-7.433-9.667-14.744-4.881-7.351-9.694-14.689-4.84-7.393-9.681-14.8m90.314,136.462c-6.6-8.479-19.807-9.789-33.66-3.375l-65.646,33.119c-13.1,7.278-18.2,17.823-12.935,26.95,3.254,4.807,6.535,9.614,9.8,14.434,3.241,4.779,6.534,9.627,9.789,14.419s6.494,9.533,9.789,14.353q4.9,7.21,9.83,14.42c6.656,8.371,19.78,9.708,33.511,3.47l65.4-32.8c13.2-7.21,18.362-17.781,13.1-26.936-3.228-4.847-6.481-9.627-9.735-14.474-3.268-4.9-6.548-9.722-9.761-14.528-3.268-4.833-6.495-9.654-9.762-14.5-3.2-4.833-6.481-9.749-9.721-14.555m90.84,134.478c-6.6-8.277-19.793-9.586-33.565-3.308l-65.308,32.58c-13.043,7.062-18.065,17.512-12.772,26.464,3.267,4.725,6.575,9.5,9.843,14.217,3.24,4.712,6.575,9.506,9.843,14.217s6.535,9.411,9.883,14.177q4.9,7.089,9.829,14.11c6.6,8.208,19.74,9.572,33.336,3.389l65.025-32.229c13.15-7.129,18.281-17.5,13-26.423-3.24-4.739-6.521-9.532-9.775-14.258-3.214-4.7-6.549-9.505-9.789-14.272-3.282-4.793-6.481-9.478-9.762-14.311-3.241-4.753-6.549-9.532-9.789-14.353m91.016,132.277c-6.576-8.182-19.727-9.5-33.471-3.348L1534,3805.7c-12.948,7.034-17.944,17.133-12.651,26.018,3.268,4.59,6.589,9.276,9.829,13.893,3.308,4.685,6.589,9.3,9.91,13.988,3.267,4.617,6.535,9.249,9.8,13.826,3.307,4.7,6.6,9.316,9.869,13.893,6.643,8.074,19.632,9.3,33.187,3.281l64.647-31.662c13.07-6.967,18.12-17.16,12.868-25.923-3.2-4.6-6.522-9.329-9.749-13.947-3.24-4.645-6.548-9.357-9.748-13.988-3.268-4.686-6.575-9.384-9.816-14-3.268-4.725-6.548-9.464-9.789-14.082m90.948,129.59c-6.589-8.007-19.726-9.369-33.363-3.281l-64.457,31.472c-12.922,6.859-17.85,16.891-12.476,25.6,3.227,4.51,6.521,9.033,9.816,13.623,3.254,4.5,6.508,8.992,9.788,13.543,3.254,4.5,6.563,9.087,9.83,13.609s6.562,9.06,9.829,13.529c6.562,7.817,19.483,9.046,32.944,3.065l64.255-31.027c12.976-6.886,18.038-16.769,12.8-25.37-3.281-4.6-6.508-9.114-9.748-13.677-3.241-4.536-6.468-9.046-9.748-13.677-3.227-4.51-6.481-9.115-9.708-13.651-3.281-4.631-6.468-9.127-9.762-13.758m90.489,126.5c-6.535-7.818-19.5-8.952-33.066-3l-64.052,30.906c-12.84,6.738-17.728,16.513-12.476,24.9,3.268,4.428,6.508,8.857,9.775,13.3,3.214,4.429,6.467,8.816,9.735,13.246s6.522,8.856,9.775,13.272c3.241,4.347,6.481,8.762,9.735,13.15,6.521,7.642,19.442,8.83,32.809,3l63.756-30.582c13.1-6.8,17.957-16.337,12.719-24.8-3.241-4.482-6.44-8.816-9.64-13.245q-4.841-6.643-9.7-13.313-4.779-6.662-9.694-13.394c-3.2-4.456-6.4-8.9-9.681-13.434m89.841,123.231c-6.481-7.547-19.415-8.722-32.863-2.835l-63.58,30.366c-12.745,6.588-17.606,16.161-12.382,24.357,3.2,4.267,6.454,8.573,9.681,12.895,3.2,4.266,6.454,8.574,9.667,12.867,3.24,4.28,6.413,8.56,9.627,12.8,3.281,4.348,6.44,8.574,9.667,12.813,6.508,7.453,19.308,8.573,32.566,2.794l63.351-29.92c12.8-6.589,17.741-16.107,12.6-24.263-3.173-4.28-6.373-8.614-9.572-12.88-3.2-4.361-6.373-8.642-9.573-12.962-3.186-4.361-6.4-8.628-9.56-12.975q-4.84-6.521-9.627-13.056m88.937,119.666c-6.454-7.4-19.24-8.412-32.566-2.62l-63.188,29.785c-12.624,6.454-17.485,15.77-12.341,23.709,3.2,4.146,6.427,8.4,9.6,12.543,3.2,4.159,6.386,8.331,9.586,12.476,3.186,4.172,6.373,8.344,9.532,12.422,3.159,4.158,6.373,8.3,9.573,12.462,6.359,7.143,19.01,8.141,32.229,2.5l62.824-29.435c12.733-6.467,17.647-15.715,12.611-23.574-3.12-4.1-6.266-8.276-9.438-12.462-3.133-4.2-6.292-8.371-9.465-12.556-3.159-4.159-6.332-8.426-9.492-12.611s-6.346-8.439-9.464-12.638m87.721,115.778c-6.318-7.062-19-8.034-32.229-2.363l-62.7,29.244c-12.516,6.359-17.35,15.406-12.273,23.1,3.119,4,6.305,8.047,9.425,12.057,3.173,4.078,6.292,8.061,9.424,12.071,3.119,3.983,6.278,7.979,9.451,12.043,3.1,4,6.251,8.007,9.33,11.909,6.359,6.967,18.862,7.844,31.932,2.269l62.365-28.867c12.651-6.333,17.566-15.351,12.6-22.9-3.078-4-6.184-8.021-9.276-12.03-3.133-4.091-6.251-8.1-9.33-12.125-3.146-4.063-6.224-8.1-9.343-12.205-3.16-4.078-6.238-8.1-9.37-12.206m86.425,111.768c-6.278-6.9-18.808-7.7-31.959-2.161l-62.2,28.691c-12.476,6.224-17.242,15.068-12.233,22.48,3.106,3.916,6.21,7.8,9.276,11.652,3.119,3.9,6.171,7.723,9.3,11.625,3.038,3.848,6.116,7.669,9.181,11.5s6.156,7.669,9.221,11.49c6.264,6.7,18.633,7.48,31.581,1.971l61.879-28.313c12.5-6.251,17.417-14.987,12.557-22.264q-4.558-5.792-9.1-11.558c-3.078-3.916-6.116-7.777-9.181-11.692-3.037-3.862-6.089-7.791-9.127-11.625q-4.617-5.914-9.195-11.8m84.764,107.406c-6.075-6.494-18.484-7.25-31.513-1.782l-61.7,28.178c-12.313,6.143-17.188,14.648-12.3,21.711,3.052,3.767,6.1,7.493,9.127,11.247,3,3.659,6.076,7.413,9.046,11.1,3.052,3.74,6.063,7.4,9.073,11.058s6.021,7.345,9.033,11c6.157,6.453,18.389,7.115,31.271,1.741l61.338-27.8c12.408-6.089,17.309-14.622,12.53-21.656-2.984-3.673-5.941-7.372-8.925-11.072-3.011-3.753-5.981-7.426-8.992-11.207-2.97-3.7-5.94-7.453-8.965-11.22s-6.021-7.534-9.019-11.3m83.05,103.032c-5.995-6.265-18.227-6.832-31.162-1.5l-61.15,27.679c-12.246,6.008-17.08,14.285-12.314,21.036,2.984,3.592,5.981,7.169,8.924,10.747,2.957,3.524,5.955,7.089,8.885,10.6,2.984,3.578,5.927,7.1,8.857,10.612q4.456,5.347,8.9,10.559c5.955,6.075,18.025,6.629,30.757,1.323l60.812-27.3c12.26-6.021,17.228-14.19,12.6-20.887-2.889-3.524-5.805-7.062-8.749-10.653-2.9-3.538-5.819-7.075-8.749-10.68s-5.847-7.129-8.79-10.733-5.874-7.21-8.817-10.8m81.861,99.319c-1.741-1.81-11.463-10.437-31.459-2.025l-60.663,27.112c-19.065,9.141-12.989,19.321-11.585,21.211q4.779,5.691,9.492,11.247c3.132,3.7,6.305,7.466,9.438,11.166s6.251,7.4,9.384,11.179c3.119,3.714,6.251,7.4,9.357,11.113,6.279,6.414,18.47,7.264,31.108,2.12l60.259-26.774c12.192-5.873,16.837-14.244,11.909-21.319-3.079-3.7-6.211-7.521-9.276-11.247s-6.157-7.439-9.3-11.247c-3.078-3.7-6.224-7.521-9.275-11.234-3.159-3.807-6.251-7.507-9.384-11.3m85.628,104.139c-6.116-6.467-18.268-7.278-30.959-2.093l-60.083,26.571c-12,5.792-16.58,14.029-11.666,20.981,3.065,3.727,6.1,7.373,9.114,11.044,3.051,3.66,6.021,7.237,9.045,10.883s6.036,7.345,9.073,10.977c2.957,3.6,5.968,7.264,9.006,10.937,6.008,6.318,18.011,7.1,30.5,2.066l59.7-26.289c12.125-5.738,16.85-13.974,12.07-20.9-2.97-3.7-5.887-7.291-8.857-10.99-3-3.673-5.968-7.373-8.965-11.044s-5.981-7.345-8.938-11.045c-3.011-3.672-6.009-7.332-9.046-11.1m82.456,102.276c-5.873-6.319-17.8-7.143-30.379-2.039l-59.516,26.086c-11.949,5.63-16.607,13.718-11.882,20.59,2.93,3.619,5.847,7.129,8.75,10.748,2.957,3.6,5.806,7.156,8.735,10.774s5.792,7.156,8.722,10.774c2.876,3.538,5.793,7.157,8.642,10.708,5.873,6.238,17.633,7.034,30.028,2.079l59.219-25.734c11.936-5.725,16.729-13.8,12.178-20.577-2.862-3.645-5.671-7.224-8.56-10.869-2.849-3.538-5.711-7.2-8.614-10.829-2.849-3.551-5.725-7.2-8.614-10.829s-5.779-7.264-8.708-10.882M2664,5120.256c-5.684-6.238-17.444-7.048-29.92-2.106l-59,25.68c-11.814,5.576-16.553,13.5-12.043,20.2,2.836,3.551,5.63,7.048,8.452,10.612,2.849,3.564,5.644,7.075,8.452,10.64,2.781,3.5,5.549,6.994,8.385,10.572,2.768,3.482,5.562,6.994,8.357,10.571,5.671,6.144,17.283,6.954,29.569,2.093l58.706-25.316c11.882-5.6,16.729-13.515,12.341-20.252-2.754-3.511-5.522-7.1-8.277-10.626-2.754-3.618-5.509-7.115-8.3-10.707-2.754-3.524-5.549-7.1-8.344-10.68-2.781-3.524-5.563-7.115-8.372-10.68m76.745,99.035c-5.55-6.21-17.093-6.954-29.461-2.079l-58.557,25.14c-11.773,5.455-16.513,13.286-12.192,19.875,2.728,3.537,5.482,7.047,8.169,10.49,2.768,3.524,5.481,7.034,8.182,10.491,2.674,3.442,5.414,6.98,8.1,10.41,2.714,3.551,5.388,7.007,8.074,10.463,5.469,6.036,16.891,6.858,29.069,2.079l58.274-24.883c11.814-5.468,16.716-13.286,12.516-19.861-2.7-3.523-5.347-7.021-8.047-10.558-2.646-3.471-5.333-7.008-7.98-10.492-2.727-3.55-5.373-7.006-8.087-10.544-2.687-3.524-5.4-7.088-8.06-10.531m74.1,97.631c-5.387-6.089-16.755-6.939-29.041-2.106l-58.072,24.776c-11.652,5.387-16.486,13.056-12.341,19.55,2.673,3.457,5.306,6.954,7.9,10.356,2.66,3.457,5.292,6.94,7.9,10.356,2.633,3.457,5.225,6.873,7.818,10.261,2.646,3.5,5.212,6.9,7.858,10.383,5.293,5.941,16.527,6.75,28.61,2.039l57.842-24.452c11.747-5.4,16.7-13.057,12.625-19.619-2.552-3.4-5.157-6.913-7.7-10.329-2.619-3.51-5.184-6.913-7.79-10.41s-5.184-6.926-7.79-10.423-5.239-6.967-7.818-10.383m71.695,96.43c-5.185-6.008-16.418-6.832-28.624-2.133l-57.68,24.33c-11.572,5.333-16.445,12.935-12.408,19.4,2.565,3.416,5.076,6.765,7.628,10.208,2.552,3.416,5.063,6.764,7.615,10.193,2.5,3.363,5.035,6.778,7.534,10.154,2.539,3.429,5.063,6.777,7.588,10.22,5.185,5.927,16.256,6.724,28.259,2.146l57.437-24.127c11.665-5.279,16.675-12.854,12.719-19.375-2.471-3.349-4.982-6.818-7.453-10.18-2.511-3.47-5.023-6.913-7.507-10.261-2.525-3.457-5.023-6.9-7.507-10.262q-3.807-5.164-7.6-10.315m69.413,95.322c-5.037-5.927-16.161-6.79-28.205-2.092l-57.328,23.965c-11.5,5.171-16.472,12.625-12.544,19.077,2.471,3.363,4.915,6.751,7.4,10.127,2.389,3.308,4.888,6.684,7.331,10.059,2.471,3.375,4.888,6.683,7.345,10.045,2.43,3.4,4.887,6.778,7.291,10.086,5.05,5.9,16,6.792,27.935,2.255l57.073-23.722c11.6-5.239,16.634-12.746,12.813-19.119-2.417-3.417-4.821-6.818-7.251-10.221-2.39-3.322-4.82-6.71-7.263-10.1s-4.86-6.792-7.3-10.194-4.847-6.791-7.292-10.167m67.212,94.378c-4.915-5.887-15.811-6.684-27.813-2.133l-56.992,23.587c-11.436,5.145-16.4,12.517-12.65,18.849,2.362,3.334,4.766,6.643,7.182,10.044,2.35,3.322,4.739,6.657,7.1,9.992s4.739,6.657,7.129,9.992c2.362,3.334,4.725,6.656,7.088,10,4.9,5.859,15.7,6.737,27.557,2.227l56.734-23.331c11.5-5.158,16.581-12.6,12.948-18.889-2.322-3.362-4.686-6.683-6.994-10.045-2.4-3.43-4.752-6.764-7.1-10.113s-4.739-6.75-7.088-10.113c-2.363-3.335-4.712-6.683-7.1-10.072m65.227,93.608c-4.792-5.847-15.608-6.724-27.5-2.2l-56.667,23.2c-11.382,5.036-16.377,12.394-12.746,18.7,2.269,3.28,4.618,6.629,6.913,9.9,2.336,3.348,4.618,6.63,6.954,9.978,2.3,3.281,4.618,6.643,6.9,9.911,2.282,3.294,4.617,6.643,6.9,9.9,4.739,5.806,15.433,6.71,27.179,2.309l56.478-23.008c11.448-5.049,16.58-12.421,13.015-18.74-2.268-3.294-4.523-6.576-6.818-9.978-2.268-3.281-4.563-6.643-6.873-10.018-2.268-3.294-4.562-6.657-6.818-9.951-2.335-3.361-4.645-6.724-6.913-9.991m63.31,92.865c-4.671-5.806-15.365-6.711-27.192-2.228l-56.384,22.832c-11.3,4.982-16.337,12.273-12.8,18.538,2.228,3.268,4.469,6.589,6.724,9.884s4.5,6.616,6.7,9.83q3.362,4.961,6.737,9.923c2.241,3.294,4.415,6.535,6.67,9.829,4.6,5.738,15.177,6.656,26.882,2.336l56.167-22.7c11.382-5.036,16.54-12.313,13.138-18.551-2.214-3.294-4.442-6.615-6.6-9.857q-3.322-4.981-6.67-9.964c-2.2-3.308-4.456-6.629-6.67-9.924-2.228-3.321-4.456-6.615-6.7-9.951m61.541,92.339c-4.564-5.778-15.109-6.683-26.909-2.322l-56.073,22.534c-11.288,4.982-16.391,12.125-12.975,18.349,2.173,3.24,4.388,6.548,6.535,9.816,2.174,3.24,4.361,6.562,6.535,9.815s4.361,6.575,6.521,9.816c2.16,3.268,4.307,6.535,6.467,9.776,4.536,5.778,14.973,6.643,26.625,2.375l55.9-22.359c11.368-4.914,16.566-12.111,13.232-18.376-2.134-3.281-4.267-6.535-6.454-9.869-2.119-3.254-4.267-6.535-6.441-9.87-2.16-3.254-4.293-6.521-6.48-9.856-2.16-3.254-4.334-6.589-6.481-9.83m59.772,91.8c-4.415-5.752-14.824-6.643-26.6-2.376l-55.83,22.292c-11.22,4.847-16.351,11.99-13.056,18.187,2.133,3.268,4.24,6.454,6.36,9.722s4.226,6.548,6.359,9.829,4.2,6.454,6.319,9.736,4.226,6.548,6.345,9.829c4.4,5.684,14.744,6.67,26.329,2.444l55.654-22.117c11.354-4.806,16.566-12.016,13.326-18.24-2.093-3.295-4.172-6.495-6.265-9.775s-4.172-6.562-6.278-9.843-4.213-6.576-6.332-9.856c-2.093-3.268-4.2-6.562-6.333-9.829m58.234,91.474c-4.307-5.7-14.636-6.629-26.369-2.417L3249.3,6084.7c-11.179,4.807-16.337,11.908-13.164,18.052,2.052,3.214,4.132,6.494,6.2,9.708,2.079,3.294,4.118,6.521,6.184,9.815,2.065,3.2,4.146,6.508,6.184,9.721,2.092,3.308,4.1,6.535,6.129,9.749,4.321,5.711,14.582,6.683,26.072,2.484l55.507-21.724c11.26-4.86,16.526-11.908,13.42-18.092-2.038-3.309-4.064-6.535-6.13-9.844-2.025-3.226-4.091-6.534-6.1-9.775-2.066-3.307-4.091-6.521-6.157-9.829s-4.091-6.522-6.2-9.83m56.747,91.245c-4.252-5.725-14.514-6.709-26.112-2.457l-55.385,21.684c-11.139,4.765-16.364,11.787-13.272,17.89,2,3.24,4.01,6.467,6.008,9.707s4.05,6.562,6.063,9.8,4,6.467,6.009,9.721,3.969,6.481,5.954,9.735c4.2,5.684,14.366,6.71,25.883,2.605l55.3-21.521c11.247-4.739,16.553-11.814,13.516-17.931-2.012-3.321-4.024-6.588-5.995-9.843s-3.956-6.494-5.982-9.843c-1.971-3.253-3.982-6.48-5.954-9.748-2.052-3.308-4.037-6.562-6.036-9.8m55.344,91.137c-4.132-5.725-14.353-6.778-25.937-2.66l-55.2,21.481c-11.125,4.685-16.391,11.679-13.366,17.835,1.957,3.255,3.955,6.522,5.914,9.79,1.944,3.173,3.888,6.427,5.86,9.694s3.888,6.44,5.846,9.708,3.916,6.548,5.846,9.708c4.118,5.725,14.15,6.724,25.654,2.728l55.087-21.306c11.193-4.712,16.553-11.707,13.61-17.876q-2.875-4.82-5.806-9.749-2.9-4.921-5.846-9.815c-1.89-3.2-3.861-6.455-5.806-9.735-1.971-3.254-3.9-6.535-5.86-9.8m53.967,91.124c-4.064-5.765-14.136-6.832-25.68-2.714l-55.061,21.2c-11.287,4.658-16.472,11.436-13.475,17.7,1.918,3.2,3.821,6.48,5.739,9.694,1.917,3.281,3.807,6.48,5.738,9.762s3.808,6.494,5.725,9.775q2.836,4.82,5.684,9.694c4.024,5.684,14,6.805,25.478,2.821l54.953-21.021c11.193-4.618,16.58-11.612,13.691-17.822-1.931-3.308-3.794-6.522-5.684-9.816-1.877-3.213-3.78-6.494-5.7-9.789-1.89-3.2-3.793-6.495-5.684-9.721-1.9-3.267-3.835-6.562-5.725-9.762m54.4,94.04c-4.821-7.209-15.406-9.289-26.977-5.36l-54.885,21c-11.058,4.645-15.811,12.583-12.138,20.145q3.483,6.075,6.98,12.151c2.336,4.05,4.6,8.033,6.927,12.084,2.281,3.97,4.563,7.953,6.859,12.017,2.268,3.97,4.55,7.966,6.8,11.936,4.685,6.994,15.068,9.02,26.5,5.145l54.8-20.766c11.125-4.658,16.067-12.517,12.57-19.969-2.268-4-4.509-7.979-6.791-12.057-2.281-3.983-4.536-7.98-6.845-12.03-2.255-3.983-4.577-8.074-6.859-12.111q-3.484-6.1-6.953-12.179m62.486,111.147c-4.523-6.9-14.892-8.8-26.409-4.887l-54.736,20.711c-11.031,4.523-15.959,12.26-12.611,19.511,2.174,3.942,4.347,7.777,6.481,11.652,2.133,3.834,4.294,7.7,6.441,11.543,2.133,3.876,4.253,7.737,6.345,11.531,2.134,3.833,4.213,7.628,6.36,11.5,4.361,6.67,14.514,8.507,25.923,4.659l54.71-20.5c11.287-4.671,16.3-12.057,13.015-19.348-2.093-3.793-4.2-7.655-6.292-11.463q-3.159-5.812-6.346-11.6c-2.133-3.861-4.28-7.723-6.373-11.6-2.187-3.942-4.334-7.79-6.508-11.719m58.112,106.637c-4.24-6.643-14.38-8.371-25.924-4.564l-54.629,20.47c-11.017,4.509-16.121,11.949-13.056,18.942,2.025,3.753,4.036,7.48,6.008,11.112,2.025,3.753,3.97,7.4,5.995,11.139,1.931,3.646,3.916,7.332,5.846,10.992,1.971,3.671,3.929,7.317,5.873,10.977,4.159,6.507,13.92,8.169,25.451,4.239l54.628-20.253c11.3-4.576,16.458-11.747,13.461-18.7-1.918-3.672-3.889-7.332-5.833-11s-3.9-7.331-5.9-11.084c-1.944-3.659-3.943-7.4-5.9-11.072q-3-5.59-6.021-11.192m63.769,120.949c-6.062-10.4-17.4-14.73-29.016-11.058l-54.615,20.146c-10.9,4.644-14.771,14.568-9.843,25.383q4.5,8.669,8.911,17.229c3,5.751,5.927,11.449,8.844,17.146,2.943,5.7,5.833,11.315,8.736,17.026q4.314,8.445,8.574,16.81c5.833,10.126,16.607,14.069,28.259,10.491l54.588-19.916c11.22-4.739,15.3-14.19,10.6-24.762q-4.213-8.323-8.56-16.891c-2.862-5.643-5.779-11.354-8.722-17.067-2.876-5.7-5.82-11.4-8.8-17.16-2.957-5.779-5.914-11.544-8.951-17.377m78.77,156.067c-5.374-9.6-16.31-13.462-27.909-9.91l-54.587,19.833c-10.91,4.564-15.23,13.948-10.95,23.939,2.633,5.36,5.239,10.653,7.818,15.945,2.673,5.374,5.2,10.586,7.8,15.878,2.511,5.211,5.077,10.437,7.615,15.663s5.05,10.437,7.561,15.594c5.077,9.141,15.716,12.772,27.125,9.234l54.6-19.644c11.045-4.537,15.649-13.664,11.706-23.277-2.443-5.158-5.008-10.383-7.52-15.608-2.538-5.226-5.077-10.464-7.655-15.744s-5.145-10.6-7.75-15.878c-2.593-5.306-5.212-10.667-7.858-16.026m69.048,143.767c-4.82-8.8-15.365-12.192-26.855-8.587l-54.615,19.522c-10.963,4.5-15.729,13.246-12.111,22.427,2.309,4.928,4.6,9.8,6.9,14.677,2.268,4.888,4.482,9.68,6.751,14.555,2.241,4.792,4.455,9.6,6.629,14.338s4.388,9.545,6.521,14.19c4.482,8.385,14.73,11.463,26.139,7.913l54.683-19.389c11.274-4.564,16.161-12.881,12.8-21.725-2.161-4.711-4.361-9.519-6.562-14.257-2.214-4.806-4.415-9.613-6.67-14.42-2.241-4.874-4.483-9.694-6.738-14.542-2.282-4.887-4.6-9.843-6.873-14.7M3943.8,7202.3c-4.226-7.939-14.38-10.774-25.923-7.25l-54.7,19.294c-11,4.415-16.12,12.665-13.069,20.968,1.97,4.456,3.915,8.817,5.872,13.272q2.917,6.542,5.806,13.125c1.931,4.347,3.808,8.681,5.712,12.948,1.876,4.306,3.713,8.506,5.563,12.758,3.915,7.534,13.772,9.992,25.182,6.468l54.8-19.173c11.153-4.387,16.607-12.233,13.8-20.171-1.836-4.239-3.74-8.534-5.616-12.827s-3.767-8.6-5.712-12.976c-1.917-4.374-3.847-8.736-5.845-13.177-1.918-4.388-3.9-8.817-5.874-13.259m51.293,117.723c-3.7-7.129-13.5-9.357-25.019-5.751l-54.858,19.078c-11.045,4.32-16.567,11.922-14.083,19.361,1.715,4.01,3.375,7.926,4.982,11.787,1.661,3.916,3.281,7.791,4.9,11.625,1.607,3.861,3.2,7.642,4.78,11.409,1.58,3.875,3.133,7.561,4.725,11.341,3.375,6.63,12.705,8.534,24.262,4.888l54.953-19.038c11.4-4.334,17.067-11.4,14.784-18.457-1.58-3.766-3.132-7.547-4.712-11.341-1.594-3.767-3.2-7.628-4.834-11.463-1.633-3.861-3.24-7.722-4.9-11.652s-3.322-7.845-4.982-11.787m42.949,103.478c-3.133-6.171-12.611-7.791-24.114-4.186l-55.007,18.983c-11.1,4.279-17,11.166-15.081,17.633,1.4,3.471,2.781,6.873,4.1,10.18,1.363,3.417,2.687,6.738,4.022,10.046s2.62,6.575,3.9,9.815,2.579,6.5,3.835,9.667c2.889,5.63,11.854,6.913,23.453,3.24l55.127-18.834c11.49-4.28,17.471-10.72,15.73-16.8-1.243-3.146-2.566-6.387-3.835-9.654-1.363-3.295-2.646-6.548-3.969-9.883-1.323-3.308-2.661-6.629-4.051-10.031-1.363-3.39-2.74-6.792-4.118-10.181m-37.373,156.971-52.306,17.836c-15.1-40.438-33.9-89.112-56.654-145.091-22.7-55.9-49.362-119.112-80.187-188.728-30.838-69.575-65.9-145.725-105.517-227.586q-59.562-123.075-133.491-263.406-18.8-35.565-38.723-72.3c-13.286-24.505-26.855-49.3-40.856-74.571-13.961-25.18-28.367-50.861-43.084-76.812q-22.137-39.046-45.434-79.147-112.139-193.23-235.3-383.977-125.384-194.142-264.257-388.608-142.174-199-301.279-401.813-163.926-208.826-349.372-425.374c-100.616-117.344-204.35-243.667-309.866-377.227-108.284-137.151-218.149-281.565-328.066-431.422-112.538-153.407-224.7-311.9-334.7-473.319-112.2-164.627-221.726-331.563-326.541-498.162q-58.348-92.736-113.982-184-55.958-91.825-108.987-181.748-53.223-90.307-103.369-178.561-50.267-88.4-97.159-174.375-87.309-159.935-161.968-309.34-74.651-149.484-135.341-285.9-60.556-136.138-106.192-257.2Q82.724,1399.2,53.128,1295.888,23.8,1193.572,10.665,1111.022-2.4,1029.159.512,967.524q2.8-61,21.1-101.694,17.965-40.2,50.646-60.515Q718,402.651,1363.6,0q-18.693,11.767-24.263,45.42-5.59,34.287,2.633,91.165,8.385,57.56,30.905,137.8,22.7,80.787,59.826,184.393c24.9,69.44,54.48,145.819,88.491,228.6q51.2,124.594,115.345,267.3,63.958,142.476,139.987,300.995,75.6,157.666,161.859,328.741,46.257,91.765,95.187,186.541,48.749,94.5,99.967,191.672,51.037,96.726,104.247,195.707,53.021,98.571,107.92,198.869c98.725,180.127,200.542,361.443,303.7,540.921,101.02,175.766,202.864,349.048,303.925,517.294,98.67,164.2,196.221,322.99,291.328,474.318,92.582,147.3,182.638,287.088,268.915,417.57q159.207,240.743,302.116,469.146,139.054,222.031,265.931,436.824,124.189,210.142,239.157,416.948,113.192,203.561,219.552,407.255,22.076,42.368,43.22,83.373,21.1,40.971,41.329,80.754,20.213,39.716,39.493,78.23,19.381,38.52,37.765,75.731,72.565,146.589,132.642,274.64c40.033,85.047,76.149,163.871,108.432,235.835,32.229,71.925,60.69,137.084,85.291,194.494,24.655,57.585,45.5,107.5,62.459,148.884l-60,20.388,1.013-.756c-7.251-36.037-8.453-38.925-9.654-41.828l-83.171,17.768c-8.668,36.36-7.562,39.1-6.441,41.843s2.215,5.414,3.295,8.087l-33.336,18.552q-11.3-28.01-24.951-61.082c-9.086-21.968-19-45.69-29.677-70.938q-15.938-37.772-34.349-80.336-18.329-42.389-38.994-89.111c-11.125-6.846-25.977-16.054-37.1-22.9-206.875,70.29-482.743,163.939-689.63,234.242-10.815,8.655-25.154,20.32-35.983,28.989,11.693,58.152,24.2,87.343,35.888,115.022q17.518,41.619,32.62,78.81,15.149,37.165,27.854,69.669,12.779,32.545,23.21,60.109l-50.929,17.364.9-.824c-6.306-35.145-7.426-37.994-8.533-40.843l-78.419,16.486c-8.573,35.307-7.561,38.008-6.535,40.708q1.479,3.93,2.957,7.858c-2.754,1.445,6.765,2.646,9.682,3.78" transform="translate(0 0)" fill="url(#linear-gradient-4)"/>
      <g id="Group_244" data-name="Group 244" transform="translate(213.57 133.858)" opacity="0.8">
        <path id="Path_247" data-name="Path 247" d="M917.906,18.282q-7.211,11.888-11.113,29.177a206.485,206.485,0,0,0-4.307,40.357,404.527,404.527,0,0,0,2.592,51.469c-2.511,18.957-24.114,42.152-64.322,68.751C655.012,327.189,45.771,715.3,4.888,707.494,3.43,705.252,1.472,702.2,0,699.906a363.689,363.689,0,0,1,5.131-54.642A212.967,212.967,0,0,1,17.7,601.045,136.181,136.181,0,0,1,37.386,567.1a105.707,105.707,0,0,1,26.666-23.763Q499.81,271.629,935.552,0A54.359,54.359,0,0,0,917.906,18.282Z" transform="translate(0 0)" fill="url(#linear-gradient-5)"/>
        <path id="Path_248" data-name="Path 248" d="M914.962,10.681q5.367,24.384,12.341,51.158,6.986,26.875,15.594,56.127c5.738,19.564,12.03,39.979,18.808,61.069q10.308,31.878,22.116,66.078,19.5,56.343,43.206,118.6,23.715,62.338,51.523,130.252,27.847,67.988,59.61,141.256,31.735,73.213,67.333,151.463c12.408,33.012-5.482,70.776-45.555,96.146l-810.35,471.59c-45.663,24.235-79.268,9.519-91.124-14.38q-34.47-75.765-64.66-147.061-30.176-71.33-55.979-137.813Q112.045,988.716,90.759,927.3,69.494,866,52.873,810.041q-10.085-33.9-18.47-65.727-8.365-31.756-15-61.271C15,663.4,11.193,644.6,7.953,626.457,4.713,608.365,2.038,591,0,574.475c1.85-28.516,34.039-54.993,60.731-72.262L840.419,21.01C868.5,4.336,904.255-10.976,914.962,10.681Z" transform="translate(5.549 219.146)" fill="url(#linear-gradient-6)"/>
        <path id="Path_249" data-name="Path 249" d="M953.831,29.447q22.724,47.857,46.487,96.9,23.8,49.173,48.727,99.535,24.85,50.328,50.794,101.979,25.882,51.482,52.805,104.153Q1187.4,500,1223.8,569.856q36.252,69.507,74.071,140.729,37.69,70.925,76.771,143.281,38.925,72.059,79.174,145.293c15.23,32.593-.553,68.684-40.3,91.839L608.551,1520.5c-45.839,22.1-81.875,7.75-97.281-16.27q-41.619-69.629-81.7-138.245-40.182-68.8-78.729-136.4-38.561-67.786-75.489-134.3-36.982-66.591-72.073-131.71-27.159-50.429-53.183-99.819-25.984-49.437-50.821-97.753-24.85-48.444-48.458-95.755c-15.7-31.405-31.041-62.635-45.88-93.243-13.731-33.552,1.648-69.521,40.182-93.9L856.01,13.258C898.353-9.073,935.833-2.876,953.831,29.447Z" transform="translate(337.871 1149.745)" fill="url(#linear-gradient-7)"/>
        <path id="Path_250" data-name="Path 250" d="M946.016,28.789c1.336,2.349,2.619,4.672,3.9,6.94,1.323,2.376,2.633,4.685,3.943,7.048,1.31,2.336,2.565,4.577,3.862,6.913,1.323,2.363,2.633,4.672,3.956,7.021q54.3,96.747,109.864,193.9,55.188,96.342,111.336,192.589,55.715,95.492,112.064,190.308,55.9,94.053,112.159,187.013c16.229,39.1-19.078,65.106-41.545,77.176l-780.35,385.179c-44.366,20.064-78.486,9.694-92.582-9.37q-59.907-87.491-119.207-176.239-59.684-89.416-118.492-179.722-59.117-90.833-116.98-182.166Q79.721,643.552,23.183,551.727c-1.378-2.2-2.715-4.4-4.091-6.629-1.35-2.174-2.714-4.429-4.05-6.548-1.336-2.214-2.714-4.456-4.037-6.616-1.391-2.241-2.728-4.456-4.091-6.656C-9.56,494.249,3.983,460.1,41.4,438.2L845.332,11.25C886.771-8.625,926.3-1.793,946.016,28.789Z" transform="translate(939.117 2288.684)" fill="url(#linear-gradient-8)"/>
        <path id="Path_251" data-name="Path 251" d="M914.08,21.171q57.092,93.162,113.955,184.205,56.343,90.266,112.2,178.075,55.31,86.965,109.837,171.108,54.054,83.34,107.083,163.642c14.622,32.782-19.119,55.573-40.533,66.24l-743.908,341.73c-42.382,17.9-74.679,9.991-87.924-5.873q-58-74.976-116.844-153.084-59.381-78.864-119.261-160.468Q188.17,724.378,127.561,639.607,66.357,554.06,5.235,466.379c-18.079-36.293,14.8-60.744,36-72.14L819.9,11.423C843.25.959,886.482-11.773,914.08,21.171Z" transform="translate(1513.73 3222.011)" fill="url(#linear-gradient-9)"/>
        <path id="Path_252" data-name="Path 252" d="M781.508,10.673c22.183-9.3,63.134-20.968,88.315,6.062,12.5,18.632,24.991,37.224,37.373,55.574,12.34,18.254,24.668,36.441,36.887,54.372s24.33,35.631,36.4,53.251c12.044,17.539,23.993,34.848,35.888,52.09q33.66,48.627,66.55,96.714,32.648,47.735,64.566,95.053,31.716,46.9,62.689,93.338,30.865,46.237,60.987,91.961c12.894,29.555-19.1,49.754-39.344,59.179L529.672,970.906c-40.005,15.756-69.939,8.412-81.888-5.914q-33.133-43-67.05-86.236-34.187-43.564-69.143-87.411-35.24-44.171-71.411-88.828-36.374-44.88-73.72-90.219-19.786-24.02-39.736-48.512-19.989-24.465-40.235-49.605-20.233-25.093-40.681-50.753-20.516-25.66-41.14-51.861c-16.607-29.866,14.879-51.185,35.1-61.284Z" transform="translate(2075.146 4034.759)" fill="url(#linear-gradient-10)"/>
        <path id="Path_253" data-name="Path 253" d="M738.785,9.255c20.874-8.29,59.313-18.43,81.983,6.427q45.791,70.419,90,139.919,43.888,68.92,86.56,137.273,42.287,67.765,83.347,135.018Q1121.466,494.7,1161.094,561c10.194,27.22-20.766,45.542-40.168,54.088L448.173,888.059c-38.224,14.285-65.295,7.089-75.191-6.306Q330.411,818.626,286.408,755.2q-44.353-63.917-90.178-128-46.2-64.668-94.068-129.766Q53.86,431.7,3.789,365.513C-10.618,338,19.356,318.918,38.515,310.007Z" transform="translate(2591.754 4729.345)" fill="url(#linear-gradient-11)"/>
        <path id="Path_254" data-name="Path 254" d="M710.61,8.162C730.566.7,766.993-8.3,786.652,14.778q38.521,65.4,76.11,130.67,37.366,64.869,73.841,129.63,36.333,64.424,71.843,128.888,35.341,64.242,69.993,128.47c8.411,26.342-22.076,43.408-41.005,51.293l-656.2,251.323c-37.184,13.1-62.433,5.576-70.9-7.616Q274.367,765.5,237.251,703.8q-37.143-61.872-75.543-123.757-38.419-61.994-78.189-124.095Q43.6,393.53,2.455,331.151c-11.125-25.815,18.12-43.286,36.59-51.28Z" transform="translate(3021.77 5369.153)" fill="url(#linear-gradient-12)"/>
        <path id="Path_255" data-name="Path 255" d="M767.681,14.181q20.6,38.885,40.316,76.69Q827.7,128.6,846.626,165.306q18.876,36.718,36.94,72.3,18.066,35.543,35.361,70.128,29.65,59.219,57.113,115.454,27.5,56.14,52.846,109.229,25.316,53.021,48.66,103.019,23.291,49.883,44.6,96.578c10.964,35.928-18.93,53.765-37.71,61.272L431.851,1024.007c-42.369,13.137-65.524-7.182-72.478-21.212q-20.82-45.609-43.894-94.323Q292.452,859.8,267.21,808.194q-25.275-51.725-52.9-106.3-27.665-54.7-57.734-112.132-17.6-33.559-35.982-67.981-18.43-34.47-37.765-69.966-19.381-35.523-39.682-71.978Q22.815,343.219,1.536,305.792c-10.383-27.5,35.267-53.223,35.753-53.4L692.909,2.03C705.006-1.926,757.987-1.184,767.681,14.181Z" transform="translate(3383.497 5982.879)" fill="url(#linear-gradient-13)"/>
        <path id="Path_256" data-name="Path 256" d="M766.318,17.834Q787,64.576,805.311,106.945q18.39,42.531,34.349,80.336c10.68,25.248,20.59,48.971,29.677,70.938q13.671,33.134,24.951,61.082L123.174,581.776q-10.41-27.5-23.21-60.11Q87.226,489.241,72.111,452q-15.149-37.2-32.62-78.81-17.539-41.518-37.535-87.37c-7.439-22.926,6.616-44.151,37.629-56.64C745.215-19.324,745.215-19.324,766.318,17.834Z" transform="translate(3794.8 6820.307)" fill="url(#linear-gradient-14)"/>
      </g>
    </g>
  </g>
</svg>
