<svg id="schneider-electric-2007-1" xmlns="http://www.w3.org/2000/svg" width="343.351" height="101.358" viewBox="0 0 343.351 101.358">
  <path id="Path_11404" data-name="Path 11404" d="M40.892,15.987c-7.85-3.485-12.532-4.838-17.18-4.838-4.879,0-8,1.747-8,4.447,0,8.148,27.638,5.854,27.638,24.7,0,10.391-8.718,16.429-20.832,16.429-9.5,0-14.181-2.459-19.57-5.241V39.826C10.719,44.978,15.477,46.8,21.474,46.8c5.2,0,8-1.818,8-4.99,0-8.871-27.636-5.622-27.636-25.027,0-9.358,8.085-15.554,20.676-15.554,6.077,0,11.56,1.277,18.377,4.208Zm38.7,38.261A35.622,35.622,0,0,1,67.2,56.717c-12.872,0-21.195-7.5-21.195-18.9C46,26.616,54.649,18.7,66.72,18.7A38.238,38.238,0,0,1,79.029,21.08v8.571a21.019,21.019,0,0,0-9.373-2.481c-6.908,0-11.352,4.152-11.352,10.56,0,6.5,4.368,10.774,10.952,10.774,2.778,0,5.248-.636,10.333-2.539Zm100.36-20.635c.472-5.089,3.427-8.029,7.953-8.029,4.449,0,7.464,3.024,7.94,8.029Zm7.157-14.9c-11.294,0-19.334,7.977-19.334,19.2,0,11.309,8.36,18.8,21.247,18.8a26.353,26.353,0,0,0,16.336-4.867V44.692c-5.388,3.838-8.951,5.159-13.55,5.159-7.259,0-11.7-3.756-12.1-10.168H206c.548-13.383-8.239-20.966-18.9-20.966m23.347,37.332h11.5V19.392h-11.5Zm43.5-10.019c-2.4,2.156-4.386,3.02-6.841,3.02-5.416,0-8.843-4.457-8.843-11.134,0-7.319,3.427-11.538,9.224-11.538a12.5,12.5,0,0,1,6.46,2.152Zm0-44.129V21a21.49,21.49,0,0,0-9.551-2.3c-10.489,0-17.747,7.754-17.747,18.972,0,10.976,7.257,19.05,17.1,19.05a15.116,15.116,0,0,0,10.2-3.639v2.951h11.5V1.9Zm28.519,31.712c.478-5.089,3.418-8.029,7.936-8.029,4.455,0,7.5,3.024,7.977,8.029Zm7.15-14.9c-11.292,0-19.319,7.977-19.319,19.2,0,11.309,8.363,18.8,21.234,18.8A26.445,26.445,0,0,0,307.9,51.849V44.692c-5.393,3.838-8.966,5.159-13.586,5.159-7.22,0-11.679-3.756-12.08-10.168h26.289c.546-13.383-8.246-20.966-18.9-20.966" transform="translate(-1.839 -1.225)" fill="#009e4d"/>
  <path id="Path_11405" data-name="Path 11405" d="M739.711-129.2h.17c3.413-7.629,7.234-11.207,11.669-11.207,2.3,0,4.279.876,7.615,3.343L756-126.9c-3.02-1.9-5-2.7-6.828-2.7-4.219,0-6.918,3.977-9.462,10.7v15.814H728.2v-36.648h11.513ZM636.465-155.113c1.08,2.848-.864,6.821-4.328,8.865s-7.153,1.394-8.224-1.454c-1.092-2.853.843-6.83,4.316-8.863,3.469-2.054,7.146-1.4,8.236,1.452" transform="translate(-415.814 157.859)" fill="#009e4d"/>
  <path id="Path_11406" data-name="Path 11406" d="M82.9,32.4c0-9.934-6.752-14-13.415-14-4.531,0-8.254,1.911-11.586,6.128H57.74V1.59H46.23V55.632H57.742V32.4c2.693-3.9,4.992-5.561,7.691-5.561,3.58,0,5.958,2.546,5.958,8.021V47.743A34.447,34.447,0,0,1,82.9,44.089Zm28.87-14.013c-4.687,0-8.267,1.743-11.932,5.934V19.079h-11.5V43.99c3.985.4,9.07,2.227,11.5,5.247V32.116c3.026-4.538,5.172-6.051,8.034-6.051,3.26,0,5.735,2.152,5.735,7.321V55.641h11.51V32.432c0-10.794-7.626-14.041-13.348-14.041m19.7,47.777H118.1v9.5H131v4.078H118.1v9.8h13.772V93.62H113.614V62.1h17.857Zm10.921,27.471h4.1V62.09h-4.1Zm24.374-17.671c2.9,0,4.7,2,4.84,5.144H161.176C161.741,77.83,163.629,75.968,166.768,75.968Zm-5.667,7.88h14.591c0-7.694-3.513-11.406-9.018-11.406-5.711,0-9.675,4.221-9.675,10.517,0,5.754,3.581,11.067,10.03,11.067a13.587,13.587,0,0,0,8.3-2.451V87.589a13.229,13.229,0,0,1-7.271,2.509c-3.968,0-6.323-2.128-6.962-6.252m41.337-5.55c-2.355-1.613-3.927-2.087-5.721-2.087-3.75,0-6.347,2.877-6.347,7.088,0,4.291,2.764,6.877,7.033,6.877A13.122,13.122,0,0,0,202.9,88.8v4.039a16.8,16.8,0,0,1-6.18,1.193c-6.2,0-10.508-4.265-10.508-10.361,0-6.88,3.933-11.224,10.227-11.224a13.6,13.6,0,0,1,6,1.431ZM221.1,72.84h6.574v3.691H221.1V87.2a2.88,2.88,0,0,0,2.962,3.148,8.913,8.913,0,0,0,4.669-1.543v3.842a12.221,12.221,0,0,1-5,1.381c-4.46,0-6.715-2.769-6.715-6.52V76.531h-3.613v-.457l7.694-7.531Zm22.237,0v4.81h.084c2.089-3.68,4.074-5.208,6.007-5.208,1.669,0,3.23.782,4.947,2.407l-2.171,3.609a6.713,6.713,0,0,0-3.832-2.082c-2.821,0-5.037,2.866-5.037,6.417V93.639h-4.089V72.84ZM296.35,78.3c-2.368-1.613-3.94-2.087-5.743-2.087-3.741,0-6.319,2.877-6.319,7.088,0,4.291,2.769,6.877,7.01,6.877a13.3,13.3,0,0,0,5.514-1.379v4.039a17.1,17.1,0,0,1-6.207,1.193c-6.193,0-10.516-4.265-10.516-10.361,0-6.88,3.951-11.224,10.244-11.224a13.7,13.7,0,0,1,6.014,1.431ZM265.234,93.639h4.1v-20.8h-4.1Z" transform="translate(36.272 -0.912)" fill="#009e4d"/>
  <path id="Path_11407" data-name="Path 11407" d="M778.609-115.989c.4,1-.3,2.423-1.531,3.146s-2.553.493-2.927-.513a2.872,2.872,0,0,1,1.549-3.148c1.229-.734,2.535-.5,2.909.516m-183.336,1.682a1.5,1.5,0,0,0-1.322.448.887.887,0,0,0-.2.518l-3.673,13.93c-.862,4.886-6.863,9.764-14.685,9.764H564.514L566.4-96.8h6.986a2.214,2.214,0,0,0,1.738-.785,1.666,1.666,0,0,0,.425-.843l2.9-12.171c.855-4.888,6.019-10.287,13.839-10.287h11.137L602-114.307Zm2.509,8.489,1.243-4.507h11.314c1.4-6.535.3-12.589-3.668-16.555-8.026-8.026-24.818-5.3-37.328,6.67a43.566,43.566,0,0,0-5.106,5.922h6.812l-1.584,4.516h-8.138a37.052,37.052,0,0,0-2.065,4.27h9.65l-1.545,4.516h-9.483c-1.622,6.9-.588,13.335,3.492,17.421,7.927,7.924,24.667,5.139,37.17-6.828a44.44,44.44,0,0,0,5.629-6.635h-8.751l1.333-4.507h10.231a38.714,38.714,0,0,0,1.979-4.284Z" transform="translate(-472.87 180.445)" fill="#009e4d"/>
</svg>
