<svg xmlns="http://www.w3.org/2000/svg" width="400" height="400" viewBox="0 0 469.926 775.693">
  <g id="Group_248" data-name="Group 248" transform="translate(-15.571 -124.89)" opacity="0.77">
    <path id="Path_287" data-name="Path 287" d="M467.783,124.89h-4.477a17.72,17.72,0,0,0-17.719,17.719V152.2a1719.421,1719.421,0,0,1-390.1-.115v-9.474A17.72,17.72,0,0,0,37.763,124.89H33.285a17.717,17.717,0,0,0-17.714,17.719v273L115.978,527.5l75.988,84.676L76.995,739.434a13.584,13.584,0,0,0,1.327,19.5,13.42,13.42,0,0,0,5.01,2.64L52.748,842.051l-24.664,27.3A18.7,18.7,0,0,0,29.4,895.74h0a18.706,18.706,0,0,0,26.479-1.367l194.66-216.927L445.191,894.374a18.7,18.7,0,1,0,27.792-25.023l-25.489-28.214L418.056,761.5a13.428,13.428,0,0,0,4.69-2.569,13.584,13.584,0,0,0,1.331-19.5L309.1,612.18,485.5,415.608v-273A17.717,17.717,0,0,0,467.783,124.89ZM31.786,417.1c-8.524,0-9.683-4.367-9.683-4.367V142.609c0-10.153,9.683-11.245,9.683-11.245ZM72.26,163.745c10.668.675,25.924,1.4,44.2,2.689,9.146.723,19.006,1.1,29.492,1.589,10.464.581,21.522.71,32.94,1.2,11.418.47,23.239.5,35.234.777,12,.022,24.2.151,36.392,0,12.194,0,24.388-.04,36.392-.288,12.008-.12,23.816-.564,35.251-.852,11.427-.4,22.476-.785,32.957-1.149s20.381-.856,29.523-1.3c9.146-.479,17.524-.919,24.952-1.3,7.428-.435,13.9-.817,19.237-1.132l13.792-.9.018.226c-2.773.386-7.411,1.012-13.707,1.771-10.623,1.207-25.8,3-44.073,4.517-18.274,1.482-39.609,3.142-62.511,4.193-11.453.413-23.284.976-35.318,1.225-12.035.377-24.26.546-36.49.674-12.23.049-24.459-.231-36.5-.373-12.035-.408-23.878-.559-35.331-1.154-11.458-.515-22.529-1.069-33-1.992-10.464-.825-20.421-1.526-29.518-2.538-18.229-1.8-33.392-3.648-44.02-4.775-10.619-1.256-16.685-1.97-16.685-1.97Zm299.562,62.879a2.151,2.151,0,0,0-.941-1.189,3.894,3.894,0,0,0-1.633-.47,15.766,15.766,0,0,0-2.383,0v7.366c.99-.067,1.975-.133,2.964-.2v7.362q-9.106.632-18.22,1.163v-7.362l2.7-.16V212.925l-2.7.16v-7.362q10.53-.612,21.047-1.358a21.04,21.04,0,0,1,4.952.177,9.121,9.121,0,0,1,3.745,1.451,7,7,0,0,1,2.356,2.938,11.621,11.621,0,0,1,.83,4.655,11.4,11.4,0,0,1-1.189,5.254,7.339,7.339,0,0,1-3.475,3.364l.044.444q4.3.346,4.3,4.974v3.452c.7-.053,1.4-.107,2.1-.164v7.366q-7.1.559-14.213,1.056V228.781A6.527,6.527,0,0,0,371.822,226.624Zm-22.454-3.306a26.108,26.108,0,0,1-1.211,8.445,15.321,15.321,0,0,1-3.435,5.782,14.1,14.1,0,0,1-5.409,3.426,24.06,24.06,0,0,1-7.091,1.336,23.3,23.3,0,0,1-7.1-.666,12.578,12.578,0,0,1-5.409-2.92,13.42,13.42,0,0,1-3.435-5.458,24.8,24.8,0,0,1-1.216-8.329,25.543,25.543,0,0,1,1.216-8.4,14.858,14.858,0,0,1,3.435-5.747,14.108,14.108,0,0,1,5.409-3.368,24.657,24.657,0,0,1,7.1-1.3,23.909,23.909,0,0,1,7.091.634,12.573,12.573,0,0,1,5.409,2.858,13.3,13.3,0,0,1,3.435,5.423A24.889,24.889,0,0,1,349.368,223.318Zm-46.336-8.081v20.2q1.571-.047,3.142-.1v7.362q-9.432.306-18.868.5v-7.362c1.052-.022,2.1-.044,3.151-.071v-20.2q-1.444.027-2.88.062v3.55q-3.861.08-7.726.142V208.417q16.894-.286,33.778-.9v10.912q-3.861.14-7.721.262v-3.546Q304.47,215.189,303.032,215.237Zm-37.7,1.509a3.026,3.026,0,0,0-2.29-.772,3.1,3.1,0,0,0-2.29.8,3.531,3.531,0,0,0-.763,2.538v13.561a3.5,3.5,0,0,0,.763,2.534,3.722,3.722,0,0,0,4.579-.031,3.568,3.568,0,0,0,.768-2.547V229.2q5.392-.047,10.783-.129V240.7c-.6.368-1.331.759-2.179,1.176a19.067,19.067,0,0,1-2.964,1.118,31.354,31.354,0,0,1-3.825.825,32.781,32.781,0,0,1-4.784.355,23.759,23.759,0,0,1-7.144-.954,13.447,13.447,0,0,1-5.436-3.133,14.151,14.151,0,0,1-3.461-5.6,29.483,29.483,0,0,1,0-16.729,14.224,14.224,0,0,1,3.439-5.609,13.341,13.341,0,0,1,5.414-3.146,24.244,24.244,0,0,1,7.1-1.025,34.087,34.087,0,0,1,4.806.275,32.374,32.374,0,0,1,3.8.746,18.338,18.338,0,0,1,2.964,1.043c.856.391,1.615.763,2.272,1.109v11.227q-5.392.08-10.783.124v-3.235A3.528,3.528,0,0,0,265.335,216.746Zm-37.745-.892v7.1l3.954.053v5.116q-1.977-.02-3.954-.049v7.992c1.81.027,3.625.044,5.436.067v-7.1q5.032.053,10.069.075v14.457q-15.4-.073-30.783-.417v-7.362c.9.018,1.8.04,2.7.058V215.637q-1.345-.027-2.7-.058v-7.362q15.389.346,30.783.417V222.2q-5.039-.027-10.069-.075v-6.2Q230.31,215.894,227.59,215.854Zm-33.4,14.058a2.523,2.523,0,0,0-.945-1.287,4.33,4.33,0,0,0-1.637-.639,16.608,16.608,0,0,0-2.383-.24v7.362l2.964.107v7.362q-9.119-.313-18.234-.723v-7.362l2.7.12V214.4c-.9-.035-1.8-.075-2.7-.115v-7.366q10.53.473,21.065.816a21.971,21.971,0,0,1,4.961.692,10.153,10.153,0,0,1,3.75,1.837,8.092,8.092,0,0,1,2.365,3.182,12.177,12.177,0,0,1,.83,4.739,10.513,10.513,0,0,1-1.194,5.134,6.339,6.339,0,0,1-3.479,3l.044.448q4.313.792,4.313,5.414v3.461l2.108.049v7.366q-7.122-.18-14.24-.413V232.1A6.964,6.964,0,0,0,194.189,229.912Zm-23.825,4.415v7.362q-8.979-.419-17.954-.936v-7.362c.9.053,1.8.1,2.694.151v-20.2c-.9-.053-1.8-.1-2.694-.155v-7.362q8.979.519,17.954.936v7.362c-.9-.04-1.793-.084-2.689-.124v20.2Q169.02,234.265,170.364,234.327Zm-54.377-23.621v-7.362q9.325.732,18.655,1.362a23.832,23.832,0,0,1,6.439,1.3,13.746,13.746,0,0,1,5.179,3.262,15.177,15.177,0,0,1,3.461,5.618,24.409,24.409,0,0,1,1.256,8.316,22.9,22.9,0,0,1-1.256,8.187,13.021,13.021,0,0,1-3.461,5.183,11.663,11.663,0,0,1-5.179,2.614,22.2,22.2,0,0,1-6.439.453q-9.325-.632-18.655-1.367v-7.366l2.689.213V210.915C117.78,210.844,116.883,210.778,115.987,210.707ZM55.482,276.355a1719.414,1719.414,0,0,0,390.1.115v33.237L433.508,307v-4.966a10.9,10.9,0,0,0-10.9-10.9H413.73a10.9,10.9,0,0,0-10.9,10.9v71.346a710.216,710.216,0,0,1-304.59,0V302.035a10.9,10.9,0,0,0-10.9-10.9H78.464a10.9,10.9,0,0,0-10.9,10.9V307l-12.079,2.7Zm378.026,94.594V322.336l12.079,2.707v56.285Zm12.079,15.114v9.052l-22.693-17.976c7.717-1.172,8.777-3.182,8.777-3.182ZM414.741,316.5v56.3c-6.78,0-7.814-4.367-7.814-4.367V304.1c0-8.223,7.814-7.5,7.814-7.5v10.419a7.325,7.325,0,0,0,0,9.474ZM75.153,305.305l-3.927.879V304.1c0-8.223,6.567-7.5,6.567-7.5v8.609A7.371,7.371,0,0,0,75.153,305.305Zm2.64,14.741V372.8c-5.7,0-6.567-4.367-6.567-4.367V321.52Zm-22.312,4.992,12.079-2.7v49.647L55.482,382.118Zm0,61.024L69.4,373.958s1.061,2.01,8.777,3.182L55.482,395.116ZM82.133,741.5l113.4-125.346,3.31,3.692L105.417,728.971a7.467,7.467,0,0,0-11.072,3.612l-6.363,16.752L85.87,751.8C81.57,757.007,74.647,749.7,82.133,741.5Zm128.2-108.847L226.081,650.2,80.376,811.468l23.11-60.807ZM69.087,813.571c.719-2.405,1.642-5.884,2.933-9.984,2.534-8.227,6.217-19.086,10.18-29.838,3.989-10.743,8.254-21.384,11.679-29.279,1.686-3.958,3.244-7.2,4.26-9.5,1.056-2.285,1.708-3.572,1.708-3.572s-.342,1.4-1.025,3.821c-.719,2.41-1.646,5.884-2.938,9.989-2.538,8.223-6.217,19.081-10.175,29.838-3.985,10.743-8.249,21.384-11.675,29.283-1.686,3.958-3.244,7.2-4.264,9.492-1.056,2.281-1.708,3.568-1.708,3.568S68.4,815.994,69.087,813.571ZM42.018,886.564c-5.565,6.732-14.928-3.856-5.245-14.457L231.349,656.071l8.8,9.807Zm419-2.844c9.683,10.6-6.523,13.645-12.083,6.914L50.7,445.424l20.608,3.585,171.74,191.567A11.475,11.475,0,1,0,258.36,657.66ZM235.657,571.8l2.219,2.458-15.327,17.905-2.654-2.938ZM216.3,585.245l-25.675-28.413h31.506l6.346,7.025,3.577,3.954Zm34.235,3.022L266.3,605.684l-15.766,17.453-15.771-17.457Zm-19.667-31.435h3.372l9.922,10.384c-.018.2-.062.4-.062.6a6.43,6.43,0,0,0,6.434,6.43c.106,0,.209-.027.315-.031L273.4,597.825l-2.658,2.942Zm38.149,10.978,9.918-10.978h31.506l-25.675,28.413ZM193.7,545.72l-5.684-6.86H324.9l-6.488,6.86Zm107.751-56.667H210.408l-4.149-5.125h99.932Zm14.866-6.417-45.56,53.219h-2.583Zm-22.676,17-32.718,36.214H240.144l-32.718-36.214Zm4.247,36.214,75.908-84.02c12.2-1.615,24.366-3.426,36.49-5.52l-80.9,89.54Zm11.657-53.818H191.522L168.4,456.451q40.963,3.581,82.134,3.59,41.116,0,82.129-3.59ZM214.2,535.855h-2.365l-44.8-49.367Zm-11.018,0H171.678l-27.712-30.672h0L90.782,446.316c12.123,2.094,24.291,3.9,36.49,5.52Zm71.8,114.345,15.744-17.546,107.716,118.96,22.041,59.631ZM398.4,734.974c1.016,2.294,2.574,5.538,4.264,9.5,3.421,7.894,7.69,18.535,11.675,29.279,3.963,10.752,7.646,21.611,10.18,29.838,1.3,4.1,2.214,7.579,2.933,9.984.683,2.423,1.025,3.821,1.025,3.821s-.652-1.287-1.708-3.568c-1.016-2.294-2.578-5.534-4.264-9.492-3.426-7.9-7.69-18.54-11.671-29.283-3.963-10.757-7.641-21.615-10.18-29.838-1.291-4.1-2.219-7.579-2.938-9.989-.683-2.418-1.025-3.821-1.025-3.821S397.346,732.689,398.4,734.974Zm-3.43-9.9a7.487,7.487,0,0,0-3.04,8.928l.2.537L295.182,627.7l3.275-3.652ZM270.1,632.522l-4.424-14.568L418.185,448.627l20.168-3.51ZM431.4,429.83c-5.329,1.092-11.8,2.432-19.263,3.807-7.446,1.469-15.886,2.876-25.112,4.327-9.234,1.371-19.241,2.893-29.878,4.087-10.614,1.385-21.859,2.418-33.49,3.519-11.653.772-23.674,1.97-35.944,2.343-6.128.235-12.305.595-18.513.732l-18.673.333c-6.235.151-12.469-.027-18.682-.129q-9.312-.186-18.531-.368-9.192-.486-18.22-.954c-6.013-.3-11.941-.657-17.763-1.256-11.648-1.056-22.911-1.979-33.516-3.612-5.307-.732-10.472-1.442-15.465-2.13-5-.617-9.833-1.731-14.382-2.516-18.327-3.386-33.547-6.55-44.224-8.6C59.081,427.279,53,425.947,53,425.947s6.19.635,16.991,1.939c10.783,1.385,26.23,3.124,44.7,5.636,9.243,1.4,19.161,2.179,29.789,3.262,10.561,1.229,21.784,1.673,33.343,2.529,11.564.941,23.572.861,35.726,1.522l18.389.226c6.164.062,12.345.177,18.535,0,6.186-.067,12.376-.129,18.535-.2,6.164-.093,12.3-.4,18.389-.595,12.181-.333,24.158-1.083,35.757-1.646,11.573-.905,22.8-1.442,33.4-2.441,10.619-.852,20.639-1.837,29.9-2.716,9.239-1.038,17.737-1.819,25.245-2.733,7.517-.839,14.054-1.713,19.441-2.423,5.387-.737,9.616-1.318,12.5-1.713l4.42-.657S442.054,427.545,431.4,429.83ZM461.02,417.1c-8.524,0-9.678-4.367-9.678-4.367V275.694c3.563-.572,6.829-1.26,9.678-1.957Zm0-266.911c-2.108.306-5.764.821-9.678,1.318v-8.9c0-10.153,9.678-11.245,9.678-11.245Z" transform="translate(0 0)" fill="#1850aa"/>
    <path id="Path_288" data-name="Path 288" d="M57.131,145.259c-.808-.027-1.62-.058-2.427-.084v7.362c.808.027,1.62.058,2.427.084a2.529,2.529,0,0,0,1.952-.6,3,3,0,0,0,.652-2.179v-1.615A3.211,3.211,0,0,0,59.084,146,2.72,2.72,0,0,0,57.131,145.259Z" transform="translate(134.52 69.73)" fill="#1850aa"/>
    <path id="Path_289" data-name="Path 289" d="M97.163,144.52c-.812.053-1.62.111-2.427.164v7.362c.812-.053,1.62-.106,2.427-.164a2.78,2.78,0,0,0,1.948-.808,3.255,3.255,0,0,0,.652-2.245v-1.615a2.921,2.921,0,0,0-.652-2.157A2.461,2.461,0,0,0,97.163,144.52Z" transform="translate(272.129 67.442)" fill="#1850aa"/>
    <path id="Path_290" data-name="Path 290" d="M89.3,145a3.2,3.2,0,0,0-2.294.892,3.688,3.688,0,0,0-.763,2.569v13.561a3.444,3.444,0,0,0,.763,2.5,2.935,2.935,0,0,0,2.294.679,3.192,3.192,0,0,0,2.285-.892,3.678,3.678,0,0,0,.763-2.578V148.175a3.389,3.389,0,0,0-.763-2.5A2.919,2.919,0,0,0,89.3,145Z" transform="translate(242.924 69.108)" fill="#1850aa"/>
    <path id="Path_291" data-name="Path 291" d="M46.522,164.24a3.319,3.319,0,0,0,.763-2.489V148.189a3.614,3.614,0,0,0-.808-2.591,3.291,3.291,0,0,0-2.241-.936c-.865-.058-1.735-.115-2.6-.178v20.208c.865.058,1.735.12,2.6.177A2.873,2.873,0,0,0,46.522,164.24Z" transform="translate(89.598 67.354)" fill="#1850aa"/>
  </g>
</svg>
