<svg xmlns="http://www.w3.org/2000/svg" width="21.409" height="21.874" viewBox="0 0 21.409 21.874">
  <g id="Google__G__Logo_1_" data-name="Google__G__Logo (1)" transform="translate(26.754 -39.239)">
    <path id="Path_1716" data-name="Path 1716" d="M-4.282,51.308a12.672,12.672,0,0,0-.173-2.069h-10.3V53.35h5.9a5.078,5.078,0,0,1-2.187,3.263v2.734h3.518A10.694,10.694,0,0,0-4.282,51.308Z" transform="translate(-1.063 -0.886)" fill="#4285f4"/>
    <path id="Path_1717" data-name="Path 1717" d="M-15.7,62.379a10.418,10.418,0,0,0,7.228-2.652l-3.518-2.734A6.6,6.6,0,0,1-15.7,58.05a6.532,6.532,0,0,1-6.134-4.521h-3.627v2.816A10.921,10.921,0,0,0-15.7,62.379Z" transform="translate(-0.114 -1.266)" fill="#34a853"/>
    <path id="Path_1718" data-name="Path 1718" d="M-21.951,52.85a6.347,6.347,0,0,1-.346-2.087,6.594,6.594,0,0,1,.346-2.087V45.859h-3.627a10.81,10.81,0,0,0-1.176,4.9,10.81,10.81,0,0,0,1.176,4.9Z" transform="translate(0 -0.586)" fill="#fbbc05"/>
    <path id="Path_1719" data-name="Path 1719" d="M-15.7,43.568a5.934,5.934,0,0,1,4.193,1.641l3.117-3.117a10.457,10.457,0,0,0-7.31-2.853,10.921,10.921,0,0,0-9.761,6.034l3.627,2.816A6.532,6.532,0,0,1-15.7,43.568Z" transform="translate(-0.114)" fill="#ea4335"/>
  </g>
</svg>
