<svg xmlns="http://www.w3.org/2000/svg" width="21.26" height="19.846" viewBox="0 0 21.26 19.846">
  <g id="Group_9704" data-name="Group 9704" transform="translate(-464.483 -242.573)">
    <path id="Path_11704" data-name="Path 11704" d="M477.376,254.824a.712.712,0,0,1-.554.77,1.314,1.314,0,0,1-.263.018h-2.72c-.944,0-1.888,0-2.831,0a.706.706,0,0,1-.179-1.392.739.739,0,0,1,.2-.023q2.808,0,5.618,0A.712.712,0,0,1,477.376,254.824Z" transform="translate(-1.557 -3.116)" fill="#fff"/>
    <path id="Path_11705" data-name="Path 11705" d="M483.045,251.1a.719.719,0,0,1-.641.631c-.073.007-.147,0-.221,0h-5.51q-2.81,0-5.62,0a.708.708,0,0,1-.714-.954.689.689,0,0,1,.6-.459,1.3,1.3,0,0,1,.177,0h11.107a1.014,1.014,0,0,1,.35.04A.716.716,0,0,1,483.045,251.1Z" transform="translate(-1.557 -2.077)" fill="#fff"/>
    <path id="Path_11706" data-name="Path 11706" d="M485.724,244.435a2.119,2.119,0,0,0-2.175-1.86h-8.436q-4.218,0-8.436,0a2.121,2.121,0,0,0-2.191,2.193q0,5.6,0,11.2a2.124,2.124,0,0,0,2.191,2.193c.621,0,1.24.007,1.86,0,.166,0,.206.038.2.2-.008,1.107-.005,2.214,0,3.321a.71.71,0,0,0,1.153.573c.071-.051.138-.109.208-.164q2.357-1.886,4.713-3.777a.677.677,0,0,1,.46-.156q4.119.009,8.237,0a2.127,2.127,0,0,0,2.234-2.238q0-5.558,0-11.115A2.286,2.286,0,0,0,485.724,244.435Zm-1.4,11.522a.718.718,0,0,1-.8.79q-4.3,0-8.612,0a1.069,1.069,0,0,0-.711.244c-1.286,1.038-2.578,2.067-3.867,3.1-.05.04-.1.079-.185.145,0-.927,0-1.8,0-2.683a.72.72,0,0,0-.809-.8h-2.657a.712.712,0,0,1-.786-.779q0-5.6,0-11.2a.711.711,0,0,1,.771-.773h16.869a.716.716,0,0,1,.783.783Q484.327,250.365,484.325,255.957Z" transform="translate(0 0)" fill="#fff"/>
    <path id="Path_11707" data-name="Path 11707" d="M477.376,254.824a.712.712,0,0,1-.554.77,1.314,1.314,0,0,1-.263.018h-2.72c-.944,0-1.888,0-2.831,0a.706.706,0,0,1-.179-1.392.739.739,0,0,1,.2-.023q2.808,0,5.618,0A.712.712,0,0,1,477.376,254.824Z" transform="translate(-1.557 -3.116)" fill="#fff"/>
    <path id="Path_11708" data-name="Path 11708" d="M483.045,251.1a.719.719,0,0,1-.641.631c-.073.007-.147,0-.221,0h-5.51q-2.81,0-5.62,0a.708.708,0,0,1-.714-.954.689.689,0,0,1,.6-.459,1.3,1.3,0,0,1,.177,0h11.107a1.014,1.014,0,0,1,.35.04A.716.716,0,0,1,483.045,251.1Z" transform="translate(-1.557 -2.077)" fill="#fff"/>
    <path id="Path_11709" data-name="Path 11709" d="M483.045,251.1a.719.719,0,0,1-.641.631c-.073.007-.147,0-.221,0h-5.51q-2.81,0-5.62,0a.708.708,0,0,1-.714-.954.689.689,0,0,1,.6-.459,1.3,1.3,0,0,1,.177,0h11.107a1.014,1.014,0,0,1,.35.04A.716.716,0,0,1,483.045,251.1Z" transform="translate(-1.557 -2.077)" fill="#fff"/>
    <path id="Path_11710" data-name="Path 11710" d="M476.822,255.594a1.314,1.314,0,0,1-.263.018h-2.72c-.944,0-1.888,0-2.831,0a.706.706,0,0,1-.179-1.392.739.739,0,0,1,.2-.023q2.808,0,5.618,0a.708.708,0,0,1,.178,1.4Z" transform="translate(-1.557 -3.116)" fill="#fff"/>
  </g>
</svg>
