<svg xmlns="http://www.w3.org/2000/svg" width="670.044" height="306.293" viewBox="0 0 670.044 306.293">
  <g id="Group_10000" data-name="Group 10000" transform="translate(-14.009 -282.891)">
    <g id="Group_9947" data-name="Group 9947" transform="translate(14.009 311.702)">
      <g id="Group_9946" data-name="Group 9946">
        <g id="Group_9889" data-name="Group 9889" transform="translate(479.594 87.85)">
          <g id="Group_9865" data-name="Group 9865" transform="translate(0 23.907)">
            <g id="Group_9864" data-name="Group 9864">
              <path id="Path_11850" data-name="Path 11850" d="M171.558,472.011l-.956-2.147c62.825-28.014,114.045-79.437,140.534-141.076l2.156.928C286.577,391.895,234.915,443.758,171.558,472.011Z" transform="translate(-170.602 -328.788)" fill="#c3ecfe"/>
            </g>
          </g>
          <g id="Group_9888" data-name="Group 9888" transform="translate(19.019)">
            <g id="Group_9867" data-name="Group 9867" transform="translate(114.682)">
              <g id="Group_9866" data-name="Group 9866">
                <path id="Path_11851" data-name="Path 11851" d="M214.257,362.04a51.646,51.646,0,0,0,17.782-31.249c.475-2.965.57-6.34-1.424-8.585a3.35,3.35,0,0,0-2.092-1.213c-1.323-.132-2.487.839-3.369,1.835-4.683,5.262-6.306,12.539-7.112,19.534s-2.334,12.131-3.785,19.678" transform="translate(-214.257 -320.982)" fill="#c3ecfe"/>
              </g>
            </g>
            <g id="Group_9869" data-name="Group 9869" transform="translate(95.21 18.976)">
              <g id="Group_9868" data-name="Group 9868">
                <path id="Path_11852" data-name="Path 11852" d="M214.572,370.632a51.668,51.668,0,0,0,3.932-35.738c-.744-2.909-1.994-6.049-4.713-7.317a3.338,3.338,0,0,0-2.4-.282c-1.268.4-1.948,1.755-2.367,3.017-2.211,6.686-.815,14.012,1.222,20.756s2.668,12.061,4.328,19.564" transform="translate(-207.899 -327.178)" fill="#c3ecfe"/>
              </g>
            </g>
            <g id="Group_9871" data-name="Group 9871" transform="translate(80.214 45.275)">
              <g id="Group_9870" data-name="Group 9870">
                <path id="Path_11853" data-name="Path 11853" d="M205.837,379.21a51.67,51.67,0,0,0,8.272-34.994c-.38-2.977-1.237-6.242-3.782-7.837a3.369,3.369,0,0,0-2.349-.573c-1.3.245-2.15,1.5-2.717,2.707-3.014,6.364-2.524,13.807-1.326,20.747s1.173,12.3,1.9,19.95" transform="translate(-203.003 -335.765)" fill="#c3ecfe"/>
              </g>
            </g>
            <g id="Group_9873" data-name="Group 9873" transform="translate(58.568 68.309)">
              <g id="Group_9872" data-name="Group 9872">
                <path id="Path_11854" data-name="Path 11854" d="M198.771,386.727a51.656,51.656,0,0,0,8.269-34.991c-.38-2.977-1.237-6.245-3.779-7.837a3.377,3.377,0,0,0-2.349-.573c-1.308.245-2.15,1.5-2.72,2.707-3.011,6.364-2.524,13.807-1.326,20.747s1.173,12.3,1.9,19.947" transform="translate(-195.935 -343.286)" fill="#c3ecfe"/>
              </g>
            </g>
            <g id="Group_9875" data-name="Group 9875" transform="translate(28.979 95.382)">
              <g id="Group_9874" data-name="Group 9874">
                <path id="Path_11855" data-name="Path 11855" d="M186.274,395.078a51.635,51.635,0,0,0,11.853-33.947c-.07-3-.585-6.337-2.949-8.187a3.355,3.355,0,0,0-2.276-.812c-1.326.107-2.294,1.271-2.983,2.407-3.657,6.021-3.942,13.473-3.47,20.5s-.107,12.355-.175,20.039" transform="translate(-186.274 -352.125)" fill="#c3ecfe"/>
              </g>
            </g>
            <g id="Group_9877" data-name="Group 9877" transform="translate(3.58 113.501)">
              <g id="Group_9876" data-name="Group 9876">
                <path id="Path_11856" data-name="Path 11856" d="M177.981,399.858c7.715-8.376,12.7-20.054,13.754-32.241.257-2.986.172-6.364-1.657-8.487a2.785,2.785,0,0,0-1.865-1.087c-1.145-.055-2.1.983-2.809,2.028-3.77,5.528-4.805,12.888-5.148,19.92s-1.4,12.248-2.276,19.868" transform="translate(-177.981 -358.041)" fill="#c3ecfe"/>
              </g>
            </g>
            <g id="Group_9879" data-name="Group 9879" transform="translate(95.47 54.112)">
              <g id="Group_9878" data-name="Group 9878">
                <path id="Path_11857" data-name="Path 11857" d="M207.984,356.379a55.984,55.984,0,0,0,36.991-7.1c2.738-1.614,5.574-3.789,6.156-6.827a3.3,3.3,0,0,0-.337-2.423c-.729-1.112-2.266-1.36-3.645-1.381-7.3-.11-14.318,3.488-20.581,7.531s-11.457,6.285-18.584,10.2" transform="translate(-207.984 -338.65)" fill="#c3ecfe"/>
              </g>
            </g>
            <g id="Group_9881" data-name="Group 9881" transform="translate(80.251 83.11)">
              <g id="Group_9880" data-name="Group 9880">
                <path id="Path_11858" data-name="Path 11858" d="M203.015,356.742a55.989,55.989,0,0,0,37.616,1.939c3.041-.913,6.318-2.349,7.6-5.157a3.3,3.3,0,0,0,.254-2.435c-.444-1.253-1.877-1.862-3.21-2.211-7.066-1.85-14.738-.031-21.785,2.4s-12.624,3.366-20.48,5.464" transform="translate(-203.015 -348.118)" fill="#c3ecfe"/>
              </g>
            </g>
            <g id="Group_9883" data-name="Group 9883" transform="translate(57.517 113.031)">
              <g id="Group_9882" data-name="Group 9882">
                <path id="Path_11859" data-name="Path 11859" d="M195.592,359.787a55.951,55.951,0,0,0,36.467,9.424c3.164-.282,6.661-1.035,8.484-3.531a3.286,3.286,0,0,0,.735-2.334c-.184-1.317-1.467-2.2-2.7-2.809-6.551-3.225-14.431-2.977-21.822-2.006s-13.044.775-21.16,1.256" transform="translate(-195.592 -357.888)" fill="#c3ecfe"/>
              </g>
            </g>
            <g id="Group_9885" data-name="Group 9885" transform="translate(25.714 132.29)">
              <g id="Group_9884" data-name="Group 9884">
                <path id="Path_11860" data-name="Path 11860" d="M185.208,373.605a55.978,55.978,0,0,0,37.65,1.1c3.023-.98,6.263-2.49,7.488-5.326a3.292,3.292,0,0,0,.2-2.438c-.472-1.243-1.917-1.822-3.259-2.141-7.1-1.691-14.732.3-21.724,2.885s-12.548,3.648-20.355,5.917" transform="translate(-185.208 -364.176)" fill="#c3ecfe"/>
              </g>
            </g>
            <g id="Group_9887" data-name="Group 9887" transform="translate(0 157.072)">
              <g id="Group_9886" data-name="Group 9886">
                <path id="Path_11861" data-name="Path 11861" d="M176.812,372.268A55.951,55.951,0,0,0,209.935,390.2c3.139.487,6.713.6,9.084-1.381a3.3,3.3,0,0,0,1.277-2.089c.138-1.323-.894-2.49-1.948-3.378-5.583-4.707-13.289-6.367-20.7-7.2s-12.848-2.392-20.838-3.88" transform="translate(-176.812 -372.268)" fill="#c3ecfe"/>
              </g>
            </g>
          </g>
        </g>
        <g id="Group_9915" data-name="Group 9915" transform="translate(157.115)">
          <g id="Group_9891" data-name="Group 9891" transform="translate(21.948 24.967)">
            <g id="Group_9890" data-name="Group 9890">
              <path id="Path_11862" data-name="Path 11862" d="M228.806,500.8C148.282,464.4,88.38,387.8,72.475,300.873l2.312-.423c15.767,86.175,75.155,162.126,154.987,198.207Z" transform="translate(-72.475 -300.45)" fill="#c3ecfe"/>
            </g>
          </g>
          <g id="Group_9914" data-name="Group 9914">
            <g id="Group_9893" data-name="Group 9893" transform="translate(16.619)">
              <g id="Group_9892" data-name="Group 9892">
                <path id="Path_11863" data-name="Path 11863" d="M81.212,335.509a51.642,51.642,0,0,1-10.367-34.428c.2-3,.858-6.309,3.3-8.052a3.362,3.362,0,0,1,2.309-.714c1.32.165,2.236,1.372,2.876,2.536,3.39,6.174,3.351,13.629,2.576,20.63s-.429,12.346-.7,20.027" transform="translate(-70.735 -292.298)" fill="#c3ecfe"/>
              </g>
            </g>
            <g id="Group_9895" data-name="Group 9895" transform="translate(33.322 24.994)">
              <g id="Group_9894" data-name="Group 9894">
                <path id="Path_11864" data-name="Path 11864" d="M77.675,342.363a51.658,51.658,0,0,1,4.135-35.717c1.372-2.671,3.292-5.448,6.226-6.082a3.374,3.374,0,0,1,2.4.26c1.145.674,1.507,2.147,1.632,3.47.665,7.014-2.328,13.843-5.816,19.96s-5.289,11.163-8.582,18.11" transform="translate(-76.189 -300.459)" fill="#c3ecfe"/>
              </g>
            </g>
            <g id="Group_9897" data-name="Group 9897" transform="translate(43.946 53.727)">
              <g id="Group_9896" data-name="Group 9896">
                <path id="Path_11865" data-name="Path 11865" d="M83.019,352.836a51.646,51.646,0,0,1-.26-35.953c1.032-2.818,2.6-5.813,5.433-6.8a3.373,3.373,0,0,1,2.416-.034c1.219.53,1.761,1.945,2.046,3.243,1.516,6.879-.619,14.024-3.332,20.52s-3.887,11.727-6.3,19.022" transform="translate(-79.658 -309.841)" fill="#c3ecfe"/>
              </g>
            </g>
            <g id="Group_9899" data-name="Group 9899" transform="translate(59.909 81.007)">
              <g id="Group_9898" data-name="Group 9898">
                <path id="Path_11866" data-name="Path 11866" d="M88.234,361.745a51.637,51.637,0,0,1-.263-35.956c1.035-2.818,2.6-5.81,5.436-6.8a3.342,3.342,0,0,1,2.416-.034c1.219.527,1.758,1.945,2.046,3.243,1.516,6.876-.619,14.021-3.335,20.52s-3.883,11.727-6.3,19.022" transform="translate(-84.87 -318.748)" fill="#c3ecfe"/>
              </g>
            </g>
            <g id="Group_9901" data-name="Group 9901" transform="translate(83.426 113.69)">
              <g id="Group_9900" data-name="Group 9900">
                <path id="Path_11867" data-name="Path 11867" d="M98.072,372.878a51.651,51.651,0,0,1-3.985-35.735c.738-2.91,1.985-6.049,4.7-7.323a3.341,3.341,0,0,1,2.4-.285c1.268.4,1.951,1.752,2.37,3.014,2.22,6.683.836,14.009-1.191,20.756s-2.649,12.067-4.3,19.574" transform="translate(-92.548 -329.419)" fill="#c3ecfe"/>
              </g>
            </g>
            <g id="Group_9903" data-name="Group 9903" transform="translate(103.157 136.295)">
              <g id="Group_9902" data-name="Group 9902">
                <path id="Path_11868" data-name="Path 11868" d="M105.757,379.871c-5.654-9.886-7.908-22.382-6.217-34.5.413-2.968,1.25-6.239,3.507-7.9a2.765,2.765,0,0,1,2.058-.643c1.13.2,1.828,1.427,2.288,2.6,2.444,6.229,1.81,13.635.576,20.569s-1.363,12.251-2.211,19.874" transform="translate(-98.991 -336.8)" fill="#c3ecfe"/>
              </g>
            </g>
            <g id="Group_9905" data-name="Group 9905" transform="translate(0 51.288)">
              <g id="Group_9904" data-name="Group 9904">
                <path id="Path_11869" data-name="Path 11869" d="M104.27,335.257a55.956,55.956,0,0,1-34.48-15.166c-2.309-2.181-4.588-4.934-4.478-8.024a3.305,3.305,0,0,1,.867-2.288c.959-.919,2.514-.821,3.862-.533,7.142,1.522,13.179,6.591,18.385,11.929s9.767,8.683,15.843,14.082" transform="translate(-65.309 -309.044)" fill="#c3ecfe"/>
              </g>
            </g>
            <g id="Group_9907" data-name="Group 9907" transform="translate(5.896 83.184)">
              <g id="Group_9906" data-name="Group 9906">
                <path id="Path_11870" data-name="Path 11870" d="M110.7,336.559a55.95,55.95,0,0,1-37.1-6.5c-2.766-1.568-5.635-3.7-6.266-6.722a3.3,3.3,0,0,1,.3-2.429c.711-1.124,2.245-1.4,3.623-1.443,7.3-.227,14.37,3.256,20.7,7.2s11.559,6.1,18.75,9.889" transform="translate(-67.234 -319.459)" fill="#c3ecfe"/>
              </g>
            </g>
            <g id="Group_9909" data-name="Group 9909" transform="translate(20.865 118.497)">
              <g id="Group_9908" data-name="Group 9908">
                <path id="Path_11871" data-name="Path 11871" d="M117.607,340.46a55.952,55.952,0,0,1-37.653,1.057c-3.02-.98-6.26-2.493-7.482-5.335a3.3,3.3,0,0,1-.2-2.438c.472-1.24,1.92-1.819,3.262-2.135,7.105-1.681,14.731.315,21.721,2.91s12.545,3.663,20.348,5.942" transform="translate(-72.121 -330.989)" fill="#c3ecfe"/>
              </g>
            </g>
            <g id="Group_9911" data-name="Group 9911" transform="translate(48.239 143.21)">
              <g id="Group_9910" data-name="Group 9910">
                <path id="Path_11872" data-name="Path 11872" d="M124.2,357.021a55.977,55.977,0,0,1-36.948-7.32c-2.726-1.626-5.55-3.822-6.113-6.86a3.313,3.313,0,0,1,.349-2.423c.738-1.106,2.279-1.348,3.657-1.36,7.3-.064,14.294,3.574,20.532,7.657S117.1,353.07,124.2,357.021" transform="translate(-81.059 -339.058)" fill="#c3ecfe"/>
              </g>
            </g>
            <g id="Group_9913" data-name="Group 9913" transform="translate(67.394 180.519)">
              <g id="Group_9912" data-name="Group 9912">
                <path id="Path_11873" data-name="Path 11873" d="M132.942,352.595a55.967,55.967,0,0,1-36.287,10.1c-3.167-.227-6.677-.913-8.548-3.375A3.3,3.3,0,0,1,87.33,357c.159-1.32,1.427-2.23,2.652-2.861,6.49-3.344,14.373-3.243,21.782-2.407s13.056.533,21.178.864" transform="translate(-87.314 -351.24)" fill="#c3ecfe"/>
              </g>
            </g>
          </g>
        </g>
        <g id="Group_9941" data-name="Group 9941" transform="translate(0 114.919)">
          <g id="Group_9917" data-name="Group 9917" transform="translate(24.789 29.13)">
            <g id="Group_9916" data-name="Group 9916">
              <path id="Path_11874" data-name="Path 11874" d="M250.169,448.453c-53.095-69.685-140.436-110.459-227.958-106.5l-.107-2.343c88.263-4.049,176.38,37.135,229.934,107.424Z" transform="translate(-22.103 -339.332)" fill="#c3ecfe"/>
            </g>
          </g>
          <g id="Group_9940" data-name="Group 9940">
            <g id="Group_9919" data-name="Group 9919" transform="translate(0 25.892)">
              <g id="Group_9918" data-name="Group 9918">
                <path id="Path_11875" data-name="Path 11875" d="M57.321,342.8a51.657,51.657,0,0,0-35.879-2.371c-2.873.87-5.954,2.254-7.105,5.029a3.358,3.358,0,0,0-.175,2.41c.456,1.246,1.838,1.871,3.118,2.233,6.778,1.917,14.033.205,20.682-2.126s11.932-3.191,19.359-5.176" transform="translate(-14.009 -338.275)" fill="#c3ecfe"/>
              </g>
            </g>
            <g id="Group_9921" data-name="Group 9921" transform="translate(29.72 32.599)">
              <g id="Group_9920" data-name="Group 9920">
                <path id="Path_11876" data-name="Path 11876" d="M62.116,340.472a51.667,51.667,0,0,0-33.873,12.055c-2.294,1.936-4.573,4.432-4.53,7.433a3.365,3.365,0,0,0,.793,2.282c.916.965,2.432.989,3.749.815,6.983-.928,12.964-5.378,18.143-10.153s9.69-7.663,15.718-12.431" transform="translate(-23.713 -340.465)" fill="#c3ecfe"/>
              </g>
            </g>
            <g id="Group_9923" data-name="Group 9923" transform="translate(59.47 37.602)">
              <g id="Group_9922" data-name="Group 9922">
                <path id="Path_11877" data-name="Path 11877" d="M73.953,342.585a51.663,51.663,0,0,0-35.1,7.819c-2.514,1.642-5.078,3.841-5.4,6.824a3.368,3.368,0,0,0,.508,2.364c.79,1.069,2.291,1.277,3.62,1.265,7.044-.067,13.525-3.755,19.249-7.859s10.554-6.419,17.12-10.413" transform="translate(-33.427 -342.098)" fill="#c3ecfe"/>
              </g>
            </g>
            <g id="Group_9925" data-name="Group 9925" transform="translate(89.638 47.029)">
              <g id="Group_9924" data-name="Group 9924">
                <path id="Path_11878" data-name="Path 11878" d="M83.8,345.663a51.643,51.643,0,0,0-35.092,7.822c-2.514,1.641-5.081,3.837-5.406,6.824a3.361,3.361,0,0,0,.511,2.361c.787,1.069,2.291,1.277,3.62,1.265,7.041-.067,13.525-3.752,19.249-7.859s10.551-6.419,17.117-10.413" transform="translate(-43.277 -345.176)" fill="#c3ecfe"/>
              </g>
            </g>
            <g id="Group_9927" data-name="Group 9927" transform="translate(126.329 63.609)">
              <g id="Group_9926" data-name="Group 9926">
                <path id="Path_11879" data-name="Path 11879" d="M97.158,352.073a51.659,51.659,0,0,0-35.717,4.144c-2.671,1.372-5.448,3.292-6.079,6.226a3.355,3.355,0,0,0,.26,2.4c.674,1.145,2.147,1.507,3.47,1.632,7.014.665,13.84-2.331,19.96-5.822s11.16-5.292,18.107-8.585" transform="translate(-55.257 -350.59)" fill="#c3ecfe"/>
              </g>
            </g>
            <g id="Group_9929" data-name="Group 9929" transform="translate(152.349 78.45)">
              <g id="Group_9928" data-name="Group 9928">
                <path id="Path_11880" data-name="Path 11880" d="M105.994,357.526c-10.9-3.289-23.586-2.677-35.01,1.691-2.8,1.069-5.8,2.619-6.916,5.191a2.782,2.782,0,0,0-.165,2.15c.45,1.057,1.8,1.461,3.05,1.645,6.618.983,13.693-1.3,20.171-4.058s11.632-4.079,18.869-6.618" transform="translate(-63.753 -355.435)" fill="#c3ecfe"/>
              </g>
            </g>
            <g id="Group_9931" data-name="Group 9931" transform="translate(45.662 1.308)">
              <g id="Group_9930" data-name="Group 9930">
                <path id="Path_11881" data-name="Path 11881" d="M62.644,363.212a55.944,55.944,0,0,0-22.523-30.189c-2.643-1.761-5.841-3.366-8.824-2.564a3.31,3.31,0,0,0-2.037,1.36c-.68,1.142-.233,2.634.349,3.883,3.087,6.618,9.384,11.36,15.754,15.234s10.652,7.568,17.28,12.275" transform="translate(-28.918 -330.248)" fill="#c3ecfe"/>
              </g>
            </g>
            <g id="Group_9933" data-name="Group 9933" transform="translate(78.235)">
              <g id="Group_9932" data-name="Group 9932">
                <path id="Path_11882" data-name="Path 11882" d="M65.248,369.11A55.977,55.977,0,0,0,50.58,334.416c-2.147-2.34-4.87-4.661-7.96-4.594a3.31,3.31,0,0,0-2.3.833c-.934.946-.858,2.505-.588,3.856,1.418,7.161,6.4,13.271,11.663,18.554s8.539,9.893,13.853,16.045" transform="translate(-39.554 -329.821)" fill="#c3ecfe"/>
              </g>
            </g>
            <g id="Group_9935" data-name="Group 9935" transform="translate(116.642 6.53)">
              <g id="Group_9934" data-name="Group 9934">
                <path id="Path_11883" data-name="Path 11883" d="M70.17,375.049a55.95,55.95,0,0,0-7.427-36.927c-1.635-2.723-3.838-5.54-6.879-6.092a3.29,3.29,0,0,0-2.42.355c-1.106.741-1.341,2.282-1.351,3.66-.043,7.3,3.617,14.284,7.718,20.511s6.386,11.4,10.358,18.492" transform="translate(-52.094 -331.952)" fill="#c3ecfe"/>
              </g>
            </g>
            <g id="Group_9937" data-name="Group 9937" transform="translate(146.207 27.777)">
              <g id="Group_9936" data-name="Group 9936">
                <path id="Path_11884" data-name="Path 11884" d="M88.239,377.67a55.967,55.967,0,0,0-15.433-34.36c-2.2-2.291-4.971-4.551-8.058-4.413a3.3,3.3,0,0,0-2.282.882c-.913.968-.8,2.524-.505,3.868,1.577,7.13,6.7,13.127,12.076,18.29s8.753,9.7,14.2,15.733" transform="translate(-61.747 -338.89)" fill="#c3ecfe"/>
              </g>
            </g>
            <g id="Group_9939" data-name="Group 9939" transform="translate(188.869 37.42)">
              <g id="Group_9938" data-name="Group 9938" transform="translate(0)">
                <path id="Path_11885" data-name="Path 11885" d="M84.541,387.616a55.967,55.967,0,0,0,1.688-37.628c-.931-3.035-2.392-6.3-5.21-7.571a3.293,3.293,0,0,0-2.435-.236c-1.25.45-1.85,1.89-2.19,3.225-1.8,7.075.067,14.735,2.548,21.766s3.452,12.6,5.6,20.443" transform="translate(-75.677 -342.039)" fill="#c3ecfe"/>
              </g>
            </g>
          </g>
        </g>
        <g id="Group_9943" data-name="Group 9943" transform="translate(47.606 166.069)">
          <g id="Group_9942" data-name="Group 9942">
            <path id="Path_11886" data-name="Path 11886" d="M283.33,362.973a61.915,61.915,0,0,0-47.845-16.156c-11.693,1.182-24.443,7.43-27.019,18.9-1.225,5.461-.793,12.707-5.963,14.854-5.06,2.1-9.948-3.112-15.142-4.854-8.646-2.9-18.511,6.986-15.6,15.626,1.326,3.929,4.649,7.35,4.374,11.488-.377,5.635-7.341,8.572-12.918,7.7s-10.505-4.135-15.978-5.528-12.56.006-14.48,5.314c-1.724,4.759,1.25,11.154-2.49,14.569-1.6,1.461-3.917,1.761-6.076,1.966-47.386,4.5-99.574,13-94.269,21.42,1.449,2.3,5.154,1.568,7.874,1.525,100.857-1.58,192.474-3.084,293.3.009" transform="translate(-29.553 -346.522)" fill="#c3ecfe"/>
          </g>
        </g>
        <g id="Group_9945" data-name="Group 9945" transform="translate(392.356 165.231)">
          <g id="Group_9944" data-name="Group 9944">
            <path id="Path_11887" data-name="Path 11887" d="M191.492,453.072q111.878,1.521,223.759,3.047c2.5.034,10.392-2.407-3.2-11.176-11.516-7.424-47.91-.744-47.91-.744s8.471-3.4,8.432-7.779-3.36-8.236-7.35-10.055-8.53-1.951-12.906-1.7a82.3,82.3,0,0,0-26,5.819,7.54,7.54,0,1,0-8.744-12.242c5.589-7.571,14.232-41.12-12.327-55.906-33.291-18.532-58.574-3.283-63.97,7.871-2.735-10.946-15.3-19.237-23.57-21.292-18.869-4.686-31.16-3.3-48.776,4.931-6.233,2.909-14.575,12.851-18.719,18.339-6.487,8.6-7.5,20.036-7.856,30.8q-.4,12.119-.11,24.25" transform="translate(-142.118 -346.248)" fill="#ccf3ff"/>
          </g>
        </g>
      </g>
    </g>
    <g id="Group_9997" data-name="Group 9997" transform="translate(249.846 282.891)">
      <g id="Group_9996" data-name="Group 9996" transform="translate(0)">
        <g id="Group_9948" data-name="Group 9948" transform="translate(0 0.002)">
          <path id="Path_11888" data-name="Path 11888" d="M108.634,282.893s-28.21-1.381-13.243,84.6c0,0,10.067,29.184-2.643,48H279.841v-132.6Z" transform="translate(-91.012 -282.892)" fill="#afcdfb"/>
        </g>
        <g id="Group_9949" data-name="Group 9949" transform="translate(29.485 50.894)">
          <rect id="Rectangle_6639" data-name="Rectangle 6639" width="195.329" height="254.736" fill="#9abcef"/>
        </g>
        <g id="Group_9950" data-name="Group 9950" transform="translate(35.871 50.894)">
          <rect id="Rectangle_6640" data-name="Rectangle 6640" width="192.046" height="254.736" fill="#e9f3fe"/>
        </g>
        <g id="Group_9951" data-name="Group 9951" transform="translate(19.355)">
          <path id="Path_11889" data-name="Path 11889" d="M305.9,333.78l0,0H113.849c1.06-14.523-.539-25.068-3.106-32.651-4.925-14.581-13.411-18.241-13.411-18.241H278.45c15.457,0,27.445,9.314,30.706,21.675.123.466.236.928.334,1.39C312.586,320.1,306.023,333.523,305.9,333.78Z" transform="translate(-97.332 -282.891)" fill="#e9f3fe"/>
        </g>
        <g id="Group_9952" data-name="Group 9952" transform="translate(32.766 18.241)">
          <path id="Path_11890" data-name="Path 11890" d="M296.865,321.5l0,0H104.817c1.06-14.523-.539-25.068-3.106-32.651,19.629,3.593,68.237,11.252,120.265,9.963,33.662-.836,60.258-3.087,78.481-5.139C303.554,307.814,296.991,321.238,296.865,321.5Z" transform="translate(-101.711 -288.847)" fill="#d8e8fd"/>
        </g>
        <g id="Group_9955" data-name="Group 9955" transform="translate(82.913 62.263)">
          <g id="Group_9953" data-name="Group 9953" transform="translate(16.991)">
            <rect id="Rectangle_6641" data-name="Rectangle 6641" width="67.394" height="5.55" rx="0.906" fill="#bbd5fc"/>
          </g>
          <g id="Group_9954" data-name="Group 9954" transform="translate(0 8.557)">
            <rect id="Rectangle_6642" data-name="Rectangle 6642" width="101.377" height="5.55" rx="0.906" fill="#bbd5fc"/>
          </g>
        </g>
        <g id="Group_9957" data-name="Group 9957" transform="translate(37.81 83.277)">
          <g id="Group_9956" data-name="Group 9956">
            <path id="Path_11891" data-name="Path 11891" d="M190.957,365.023c-23.319,0-45.453-2.925-61.952-7.108-16.667-4.227-25.647-11.133-25.647-17.258,0-5.553,7.317-10.661,21.16-14.771h0c-13.264,3.939-20.361,9.721-20.361,14.771,0,5.6,9.2,11.145,25.233,15.209,16.44,4.168,38.3,6.465,61.566,6.465s45.129-2.3,61.569-6.465c16.036-4.064,25.233-9.608,25.233-15.209,0-5.932-9.684-13.307-25.273-19.243-17.727-6.75-39.576-9.252-61.529-9.252-41.208,0-58.173,4.812-72.892,10.839h0c14.784-6.055,31.536-12.918,72.892-12.918,22.039,0,43.986,3.736,61.793,10.517,15.92,6.061,25.809,13.745,25.809,20.058,0,6.125-9.182,11.825-25.849,16.051C236.211,360.892,214.279,365.023,190.957,365.023Z" transform="translate(-103.358 -310.082)" fill="#c65447"/>
          </g>
        </g>
        <g id="Group_9958" data-name="Group 9958" transform="translate(64.845 101.307)">
          <path id="Path_11892" data-name="Path 11892" d="M231.712,318.845H113.621a1.441,1.441,0,0,1-1.436-1.439h0a1.44,1.44,0,0,1,1.436-1.436H231.712a1.443,1.443,0,0,1,1.439,1.436h0A1.444,1.444,0,0,1,231.712,318.845Z" transform="translate(-112.185 -315.969)" fill="#d2e4fd"/>
        </g>
        <g id="Group_9959" data-name="Group 9959" transform="translate(64.845 107.059)">
          <path id="Path_11893" data-name="Path 11893" d="M231.712,320.723H113.621a1.44,1.44,0,0,1-1.436-1.436h0a1.443,1.443,0,0,1,1.436-1.439H231.712a1.446,1.446,0,0,1,1.439,1.439h0A1.443,1.443,0,0,1,231.712,320.723Z" transform="translate(-112.185 -317.847)" fill="#d2e4fd"/>
        </g>
        <g id="Group_9960" data-name="Group 9960" transform="translate(64.845 113.436)">
          <path id="Path_11894" data-name="Path 11894" d="M231.712,322.8H113.621a1.44,1.44,0,0,1-1.436-1.436h0a1.44,1.44,0,0,1,1.436-1.436H231.712a1.443,1.443,0,0,1,1.439,1.436h0A1.443,1.443,0,0,1,231.712,322.8Z" transform="translate(-112.185 -319.929)" fill="#d2e4fd"/>
        </g>
        <g id="Group_9961" data-name="Group 9961" transform="translate(64.844 119.809)">
          <rect id="Rectangle_6643" data-name="Rectangle 6643" width="105.368" height="2.874" rx="0.469" fill="#d2e4fd"/>
        </g>
        <g id="Group_9962" data-name="Group 9962" transform="translate(64.845 159.272)">
          <path id="Path_11895" data-name="Path 11895" d="M231.712,337.768H113.621a1.44,1.44,0,0,1-1.436-1.436h0a1.44,1.44,0,0,1,1.436-1.436H231.712a1.443,1.443,0,0,1,1.439,1.436h0A1.443,1.443,0,0,1,231.712,337.768Z" transform="translate(-112.185 -334.895)" fill="#d2e4fd"/>
        </g>
        <g id="Group_9963" data-name="Group 9963" transform="translate(64.845 165.023)">
          <path id="Path_11896" data-name="Path 11896" d="M231.712,339.646H113.621a1.44,1.44,0,0,1-1.436-1.436h0a1.44,1.44,0,0,1,1.436-1.436H231.712a1.443,1.443,0,0,1,1.439,1.436h0A1.443,1.443,0,0,1,231.712,339.646Z" transform="translate(-112.185 -336.773)" fill="#d2e4fd"/>
        </g>
        <g id="Group_9964" data-name="Group 9964" transform="translate(64.845 171.397)">
          <path id="Path_11897" data-name="Path 11897" d="M231.712,341.73H113.621a1.44,1.44,0,0,1-1.436-1.436h0a1.441,1.441,0,0,1,1.436-1.439H231.712a1.444,1.444,0,0,1,1.439,1.439h0A1.443,1.443,0,0,1,231.712,341.73Z" transform="translate(-112.185 -338.854)" fill="#d2e4fd"/>
        </g>
        <g id="Group_9965" data-name="Group 9965" transform="translate(64.844 177.772)">
          <rect id="Rectangle_6644" data-name="Rectangle 6644" width="105.368" height="2.874" rx="0.469" fill="#d2e4fd"/>
        </g>
        <g id="Group_9966" data-name="Group 9966" transform="translate(64.845 201.491)">
          <path id="Path_11898" data-name="Path 11898" d="M231.712,351.553H113.621a1.44,1.44,0,0,1-1.436-1.436h0a1.44,1.44,0,0,1,1.436-1.436H231.712a1.443,1.443,0,0,1,1.439,1.436h0A1.443,1.443,0,0,1,231.712,351.553Z" transform="translate(-112.185 -348.68)" fill="#d2e4fd"/>
        </g>
        <g id="Group_9967" data-name="Group 9967" transform="translate(64.845 207.242)">
          <path id="Path_11899" data-name="Path 11899" d="M231.712,353.434H113.621a1.443,1.443,0,0,1-1.436-1.439h0a1.44,1.44,0,0,1,1.436-1.436H231.712a1.443,1.443,0,0,1,1.439,1.436h0A1.446,1.446,0,0,1,231.712,353.434Z" transform="translate(-112.185 -350.558)" fill="#d2e4fd"/>
        </g>
        <g id="Group_9968" data-name="Group 9968" transform="translate(64.845 213.616)">
          <path id="Path_11900" data-name="Path 11900" d="M231.712,355.515H113.621a1.44,1.44,0,0,1-1.436-1.436h0a1.443,1.443,0,0,1,1.436-1.439H231.712a1.446,1.446,0,0,1,1.439,1.439h0A1.443,1.443,0,0,1,231.712,355.515Z" transform="translate(-112.185 -352.639)" fill="#d2e4fd"/>
        </g>
        <g id="Group_9969" data-name="Group 9969" transform="translate(64.844 219.992)">
          <rect id="Rectangle_6645" data-name="Rectangle 6645" width="105.368" height="2.874" rx="0.469" fill="#d2e4fd"/>
        </g>
        <g id="Group_9970" data-name="Group 9970" transform="translate(64.845 251.526)">
          <path id="Path_11901" data-name="Path 11901" d="M231.712,367.89H113.621a1.44,1.44,0,0,1-1.436-1.436h0a1.44,1.44,0,0,1,1.436-1.436H231.712a1.443,1.443,0,0,1,1.439,1.436h0A1.443,1.443,0,0,1,231.712,367.89Z" transform="translate(-112.185 -365.017)" fill="#d2e4fd"/>
        </g>
        <g id="Group_9971" data-name="Group 9971" transform="translate(64.845 257.277)">
          <path id="Path_11902" data-name="Path 11902" d="M231.712,369.771H113.621a1.443,1.443,0,0,1-1.436-1.439h0a1.44,1.44,0,0,1,1.436-1.436H231.712a1.443,1.443,0,0,1,1.439,1.436h0A1.446,1.446,0,0,1,231.712,369.771Z" transform="translate(-112.185 -366.895)" fill="#d2e4fd"/>
        </g>
        <g id="Group_9972" data-name="Group 9972" transform="translate(64.845 263.651)">
          <path id="Path_11903" data-name="Path 11903" d="M231.712,371.852H113.621a1.44,1.44,0,0,1-1.436-1.436h0a1.443,1.443,0,0,1,1.436-1.44H231.712a1.446,1.446,0,0,1,1.439,1.44h0A1.443,1.443,0,0,1,231.712,371.852Z" transform="translate(-112.185 -368.976)" fill="#d2e4fd"/>
        </g>
        <g id="Group_9973" data-name="Group 9973" transform="translate(64.844 270.027)">
          <rect id="Rectangle_6646" data-name="Rectangle 6646" width="105.368" height="2.874" rx="0.469" fill="#d2e4fd"/>
        </g>
        <g id="Group_9995" data-name="Group 9995" transform="translate(142.3 75.501)">
          <g id="Group_9974" data-name="Group 9974" transform="translate(101.16 108.603)">
            <path id="Path_11904" data-name="Path 11904" d="M178.943,344.375s-.689,6.7-1.446,7.966-3.975,5.314-5.344,6.107.836-5.332.557-6.524-1.13,2.175-1.733,2.254-.447-2.953-.469-4.058,2.94-3.825,3.985-6.174S178.943,344.375,178.943,344.375Z" transform="translate(-170.505 -343.003)" fill="#ffb27d"/>
          </g>
          <g id="Group_9975" data-name="Group 9975" transform="translate(16.087 36.609)">
            <path id="Path_11905" data-name="Path 11905" d="M153.953,331.091l-1.541-2.9s.766-5.176-5.718-8.45c0,0-2.371-.965-3.709.968-1.231,1.783,2.349,1.461,2.156,4.505a5.6,5.6,0,0,0,3.265,5.825l1.663,1.926Z" transform="translate(-142.728 -319.496)" fill="#ffb27d"/>
          </g>
          <g id="Group_9976" data-name="Group 9976" transform="translate(21.083 40.259)">
            <path id="Path_11906" data-name="Path 11906" d="M211.873,321.689s-5.571,27.331-36.216,36.262c-9.565,2.79-31.3-28.707-31.3-28.707s.766-2.9,5.55-2.236c0,0,21.163,14.009,23.825,15.531,2.364,1.351,17.911-17.359,25-20.376A18.1,18.1,0,0,1,211.873,321.689Z" transform="translate(-144.359 -320.688)" fill="#046baa"/>
          </g>
          <g id="Group_9980" data-name="Group 9980" transform="translate(0 35.886)">
            <g id="Group_9977" data-name="Group 9977" transform="translate(6.182 0)">
              <rect id="Rectangle_6647" data-name="Rectangle 6647" width="5.724" height="28.792" transform="translate(0 5.657) rotate(-81.268)" fill="#c65447"/>
            </g>
            <g id="Group_9978" data-name="Group 9978">
              <path id="Path_11907" data-name="Path 11907" d="M137.475,321.073l6.182,3.845.869-5.657Z" transform="translate(-137.475 -319.26)" fill="#ffb27d"/>
            </g>
            <g id="Group_9979" data-name="Group 9979" transform="translate(34.639 4.37)">
              <path id="Path_11908" data-name="Path 11908" d="M152.675,323.073l-.273,1.789a2.017,2.017,0,0,1-2.3,1.685l-1.317-.2.87-5.66,1.433.22A1.9,1.9,0,0,1,152.675,323.073Z" transform="translate(-148.785 -320.687)" fill="#ffb27d"/>
            </g>
          </g>
          <g id="Group_9986" data-name="Group 9986" transform="translate(56.194 103.124)">
            <g id="Group_9981" data-name="Group 9981" transform="translate(55.216 108.312)">
              <path id="Path_11909" data-name="Path 11909" d="M187.622,378.224s3.8,3.47,3.06,5.935-4.171,4.107-4.634,7.121-2.318,4.655-3.988,4.655H174.1s-1.228-2.119,1.737-2.759,4.086-4.177,3.9-7.467a57.633,57.633,0,0,1,.279-7.669l6.3-1.461Z" transform="translate(-173.852 -376.579)" fill="#233862"/>
            </g>
            <g id="Group_9982" data-name="Group 9982" transform="translate(0 115.874)">
              <path id="Path_11910" data-name="Path 11910" d="M178.171,382.1s.683,7.9-.986,8.716l-21.362-.043s0-2.465,3.433-3.014,9.458-2.557,10.477-7.029S178.171,382.1,178.171,382.1Z" transform="translate(-155.823 -379.048)" fill="#233862"/>
            </g>
            <g id="Group_9983" data-name="Group 9983" transform="translate(4.315 5.479)">
              <path id="Path_11911" data-name="Path 11911" d="M157.232,344.92s1.124,13.84,2.45,30.477c1.8,22.6,3.963,50.36,4.177,55.618.371,9.133,1.856,23.739,1.856,23.739s3.522,3.47,10.569,2.009a235.769,235.769,0,0,0,8.076-42.917c.028-.361.055-.726.083-1.09C186.113,390.3,188.71,343,188.71,343Z" transform="translate(-157.232 -343.003)" fill="#2b478b"/>
            </g>
            <g id="Group_9984" data-name="Group 9984" transform="translate(4.315 5.479)">
              <path id="Path_11912" data-name="Path 11912" d="M157.232,344.92s1.124,13.84,2.45,30.477l24.679,38.449c.028-.361.055-.726.083-1.09C186.113,390.3,188.71,343,188.71,343Z" transform="translate(-157.232 -343.003)" fill="#233862"/>
            </g>
            <g id="Group_9985" data-name="Group 9985" transform="translate(9.461)">
              <path id="Path_11913" data-name="Path 11913" d="M158.912,350.252s20.306,50.127,33.656,73.682S210.1,454.062,210.1,454.062s7.648-3.014,8.343-5.066c0,0-5.106-45.475-14.045-56.562-5.053-6.263-10.989-25.062-11.268-31.634s-1.807-19.586-1.807-19.586Z" transform="translate(-158.912 -341.214)" fill="#2b478b"/>
            </g>
          </g>
          <g id="Group_9987" data-name="Group 9987" transform="translate(70.711 18.269)">
            <path id="Path_11914" data-name="Path 11914" d="M182.222,330.157s-13.739,6.631-21.659,4.168a18.646,18.646,0,0,1,5.36-4.288c-.273-1.59-.487-2.971-.609-4.141a38.357,38.357,0,0,1-.334-4.23l5.3-4.168,5.026-3.991C174.912,324.727,182.222,330.157,182.222,330.157Z" transform="translate(-160.563 -313.508)" fill="#ffb27d"/>
          </g>
          <g id="Group_9988" data-name="Group 9988" transform="translate(59.366 31.801)">
            <path id="Path_11915" data-name="Path 11915" d="M197.1,391.816c.031.842-1.767,1.8-2.557,2.162a56.163,56.163,0,0,1-17.58,4.98c-7.341.747-16.024-.9-19.01-.842a1.245,1.245,0,0,1-.821-.328c-.214-.153-.368-9-.214-20.128,0-.45,0-.9.031-1.351v-.15c.061-4.352.211-8.909.426-13.47.426-10.018,1.219-19.678,2.56-25.019a27.124,27.124,0,0,1,8.591-13.5l2.741-2.4a13.145,13.145,0,0,0,8.53-1.02c3.17-1.528,6.582-3.179,7.13-2.76,4.144,3.029,6.946,9.84,8.438,18.538a96.286,96.286,0,0,1,1.25,16.5c0,2.159-.061,4.38-.184,6.569a207.082,207.082,0,0,0,.429,28.168C196.981,389.506,197.072,390.857,197.1,391.816Z" transform="translate(-156.859 -317.926)" fill="#046baa"/>
          </g>
          <g id="Group_9989" data-name="Group 9989" transform="translate(75.413 50.406)">
            <path id="Path_11916" data-name="Path 11916" d="M186.054,378.74c-48.115-.095-8.876-52.206-8.876-52.206L184.973,324a151.152,151.152,0,0,1,.9,17.629c0,2.306-.043,4.677-.132,7.017C185.215,361.338,185.744,372.364,186.054,378.74Z" transform="translate(-162.098 -324.001)" fill="#046baa"/>
          </g>
          <g id="Group_9990" data-name="Group 9990" transform="translate(75.127 22.26)">
            <path id="Path_11917" data-name="Path 11917" d="M172.424,315.111s-3.473,6.327-10.085,8.1a38.357,38.357,0,0,1-.334-4.23l5.3-4.168Z" transform="translate(-162.005 -314.811)" fill="#ed985f"/>
          </g>
          <g id="Group_9991" data-name="Group 9991" transform="translate(70.152 4.895)">
            <path id="Path_11918" data-name="Path 11918" d="M162.939,330.491s13.105,2.144,14.336-5.911,3.752-13.209-4.566-14.918-10.416,1.124-11.491,3.715S159.561,329.728,162.939,330.491Z" transform="translate(-160.381 -309.141)" fill="#ffb27d"/>
          </g>
          <g id="Group_9992" data-name="Group 9992" transform="translate(65.917)">
            <path id="Path_11919" data-name="Path 11919" d="M184.893,311.993c.119-.138.392-.248,1-.282a2.5,2.5,0,0,0-1.139-.322,3.071,3.071,0,0,0-2.043-2.717A1.831,1.831,0,0,1,183.6,310c-1.691-1.74-5.32-3-15.365-2.211-13.237,1.044-8.873,9.519-7.161,10.529s6.027-1.758,9.222-1.507,3.8,4.87,4.882,5.5.658-.484,2.125-1.148,1.6,1.767,1.182,3.347,1.59,3.66,1.59,3.66l2.034-2.19c2.037-2.193,3.954-11.476,3.029-13.454C185.056,312.348,184.976,312.171,184.893,311.993Z" transform="translate(-158.998 -307.543)" fill="#2c3a64"/>
          </g>
          <g id="Group_9993" data-name="Group 9993" transform="translate(83.151 31.8)">
            <path id="Path_11920" data-name="Path 11920" d="M170.9,317.926s8.294,3.93,12.269,9.966c6.168,9.366,13.317,43.493,13.448,46.654s-5.216,25.472-5.216,25.472-5.427-.355-6.827-3.1c0,0,1.084-22.924.4-24.4s-22.621-30.752-20.155-37S170.9,317.926,170.9,317.926Z" transform="translate(-164.625 -317.926)" fill="#046baa"/>
          </g>
          <g id="Group_9994" data-name="Group 9994" transform="translate(21.699 39.87)">
            <path id="Path_11921" data-name="Path 11921" d="M148.606,325.853s.453-1.783-.784-2.582-2.374-2.98-2.894-2.683c-1.078.609.591,2.511.285,4.882C145.108,326.3,147.038,328.475,148.606,325.853Z" transform="translate(-144.56 -320.561)" fill="#ffb27d"/>
          </g>
        </g>
      </g>
    </g>
    <g id="Group_9998" data-name="Group 9998" transform="translate(332.307 372.726)">
      <path id="Path_11922" data-name="Path 11922" d="M122.35,318.216l-.374-1.063h-2.429l-.355,1.063h-1.256L120,312.3h1.443l2.086,5.911Zm-2.423-2.153h1.663l-.851-2.413Z" transform="translate(-117.937 -312.054)" fill="#afcdfb"/>
      <path id="Path_11923" data-name="Path 11923" d="M122.394,312.818a1.916,1.916,0,0,1,1.455.646,2.379,2.379,0,0,1,0,3.167,1.926,1.926,0,0,1-1.455.646,1.638,1.638,0,0,1-1.369-.616v2.184h-1.09v-5.908h1.09v.5A1.638,1.638,0,0,1,122.394,312.818Zm-1.041,3.087a1.133,1.133,0,0,0,.836.331,1.147,1.147,0,0,0,.842-.331,1.268,1.268,0,0,0,0-1.715,1.138,1.138,0,0,0-.842-.334,1.124,1.124,0,0,0-.836.334,1.286,1.286,0,0,0,0,1.715Z" transform="translate(-113.816 -310.996)" fill="#afcdfb"/>
      <path id="Path_11924" data-name="Path 11924" d="M124.117,312.818a1.922,1.922,0,0,1,1.458.646,2.379,2.379,0,0,1,0,3.167,1.932,1.932,0,0,1-1.458.646,1.638,1.638,0,0,1-1.369-.616v2.184h-1.087v-5.908h1.087v.5A1.638,1.638,0,0,1,124.117,312.818Zm-1.038,3.087a1.226,1.226,0,0,0,1.675,0,1.268,1.268,0,0,0,0-1.715,1.218,1.218,0,0,0-1.675,0,1.277,1.277,0,0,0,0,1.715Z" transform="translate(-110.256 -310.996)" fill="#afcdfb"/>
      <path id="Path_11925" data-name="Path 11925" d="M123.387,318.385v-6.162h1.087v6.162Z" transform="translate(-106.695 -312.223)" fill="#afcdfb"/>
      <path id="Path_11926" data-name="Path 11926" d="M124.694,313.594a.68.68,0,0,1-.668-.668.659.659,0,0,1,.2-.472.655.655,0,0,1,.946,0,.659.659,0,0,1,.2.472.642.642,0,0,1-.2.469A.652.652,0,0,1,124.694,313.594Zm-.539,4.729V314.1h1.087v4.22Z" transform="translate(-105.377 -312.161)" fill="#afcdfb"/>
      <path id="Path_11927" data-name="Path 11927" d="M125.816,315.495a1.083,1.083,0,0,0,1.191.793,1.115,1.115,0,0,0,.946-.423l.879.508a2.1,2.1,0,0,1-1.844.9,2.27,2.27,0,0,1-1.678-.634,2.227,2.227,0,0,1,1.6-3.825,2.007,2.007,0,0,1,1.531.643,2.213,2.213,0,0,1,.6,1.586,2.578,2.578,0,0,1-.04.447Zm-.015-.842h2.153a1,1,0,0,0-.386-.643,1.094,1.094,0,0,0-.662-.211,1.134,1.134,0,0,0-.726.224A1.05,1.05,0,0,0,125.8,314.653Z" transform="translate(-104.035 -310.996)" fill="#afcdfb"/>
      <path id="Path_11928" data-name="Path 11928" d="M129.7,312.3h1.087v5.911H129.7v-.5a1.638,1.638,0,0,1-1.369.616,1.932,1.932,0,0,1-1.458-.646,2.379,2.379,0,0,1,0-3.167,1.922,1.922,0,0,1,1.458-.646,1.638,1.638,0,0,1,1.369.616Zm-2.006,4.658a1.226,1.226,0,0,0,1.675,0,1.277,1.277,0,0,0,0-1.715,1.218,1.218,0,0,0-1.675,0,1.268,1.268,0,0,0,0,1.715Z" transform="translate(-100.759 -312.054)" fill="#afcdfb"/>
      <path id="Path_11929" data-name="Path 11929" d="M130.634,318.335a1.992,1.992,0,0,1-1.951-1.124l1-.576a1.12,1.12,0,0,0,1.639.34.789.789,0,0,0,.227-.6V312.3h1.158v4.07a1.817,1.817,0,0,1-.582,1.443A2.165,2.165,0,0,1,130.634,318.335Z" transform="translate(-95.771 -312.054)" fill="#afcdfb"/>
      <path id="Path_11930" data-name="Path 11930" d="M134.054,316.631a2.267,2.267,0,0,1-3.17,0,2.234,2.234,0,1,1,3.17,0Zm-2.4-.747a1.1,1.1,0,0,0,.815.328,1.165,1.165,0,1,0,0-2.331,1.089,1.089,0,0,0-.815.331,1.23,1.23,0,0,0,0,1.672Z" transform="translate(-92.564 -310.996)" fill="#afcdfb"/>
      <path id="Path_11931" data-name="Path 11931" d="M134.4,313.876a1.922,1.922,0,0,1,1.458.646,2.379,2.379,0,0,1,0,3.167,1.932,1.932,0,0,1-1.458.646,1.628,1.628,0,0,1-1.366-.616v.5h-1.09V312.3h1.09v2.187A1.628,1.628,0,0,1,134.4,313.876Zm-1.038,3.087a1.226,1.226,0,0,0,1.675,0,1.268,1.268,0,0,0,0-1.715,1.218,1.218,0,0,0-1.675,0,1.286,1.286,0,0,0,0,1.715Z" transform="translate(-89.039 -312.054)" fill="#afcdfb"/>
    </g>
    <g id="Group_9999" data-name="Group 9999" transform="translate(337.842 408.044)">
      <path id="Path_11932" data-name="Path 11932" d="M122.066,329.946a2.621,2.621,0,0,1-1.476-.4,2.078,2.078,0,0,1-.845-1.066l1-.582a1.329,1.329,0,0,0,1.36.9,1.164,1.164,0,0,0,.717-.178.55.55,0,0,0,.227-.45.542.542,0,0,0-.279-.484,4.358,4.358,0,0,0-1-.374,6.055,6.055,0,0,1-.671-.239,2.82,2.82,0,0,1-.551-.315,1.323,1.323,0,0,1-.417-.5,1.663,1.663,0,0,1-.144-.711,1.582,1.582,0,0,1,.57-1.277,2.069,2.069,0,0,1,1.372-.478,2.276,2.276,0,0,1,1.262.349,2.369,2.369,0,0,1,.851.977l-.98.563a1.186,1.186,0,0,0-1.133-.759.889.889,0,0,0-.57.165.518.518,0,0,0-.205.426.543.543,0,0,0,.23.453,3.362,3.362,0,0,0,.891.374c.181.058.319.1.41.132s.221.08.38.144a2.324,2.324,0,0,1,.371.181,2.54,2.54,0,0,1,.3.23,1.122,1.122,0,0,1,.257.294,1.581,1.581,0,0,1,.153.368,1.635,1.635,0,0,1,.064.469,1.583,1.583,0,0,1-.6,1.3A2.4,2.4,0,0,1,122.066,329.946Z" transform="translate(-119.744 -323.664)" fill="#1bb100"/>
      <path id="Path_11933" data-name="Path 11933" d="M123.783,325.406a1.528,1.528,0,0,1,1.142.466,1.755,1.755,0,0,1,.453,1.283v2.591h-1.09V327.29a.874.874,0,0,0-.227-.646.843.843,0,0,0-.609-.224.891.891,0,0,0-.674.26,1.082,1.082,0,0,0-.254.787v2.279h-1.09v-5.908h1.09V326A1.409,1.409,0,0,1,123.783,325.406Z" transform="translate(-116.258 -323.584)" fill="#1bb100"/>
      <path id="Path_11934" data-name="Path 11934" d="M126.769,328.163a2.248,2.248,0,1,1,.652-1.583A2.158,2.158,0,0,1,126.769,328.163Zm-2.4-.747a1.094,1.094,0,0,0,.815.331,1.113,1.113,0,0,0,.821-.331,1.23,1.23,0,0,0,0-1.672,1.122,1.122,0,0,0-.821-.328,1.1,1.1,0,0,0-.815.328,1.239,1.239,0,0,0,0,1.672Z" transform="translate(-113.125 -322.528)" fill="#1bb100"/>
      <path id="Path_11935" data-name="Path 11935" d="M125.752,325.173a1.137,1.137,0,0,1,.5-.606,1.532,1.532,0,0,1,.781-.205v1.216a1.286,1.286,0,0,0-.891.205.966.966,0,0,0-.392.867v2.018h-1.09v-4.22h1.09Z" transform="translate(-109.6 -322.505)" fill="#1bb100"/>
      <path id="Path_11936" data-name="Path 11936" d="M128.342,326.233h-.952v1.755a.428.428,0,0,0,.107.322.494.494,0,0,0,.322.113,5.059,5.059,0,0,0,.524,0v.986a2.3,2.3,0,0,1-1.583-.211,1.4,1.4,0,0,1-.459-1.207v-1.755h-.735v-1.047h.735v-.855l1.09-.328v1.182h.952Z" transform="translate(-107.739 -323.243)" fill="#1bb100"/>
      <path id="Path_11937" data-name="Path 11937" d="M126.722,329.917v-6.162h1.087v6.162Z" transform="translate(-105.351 -323.755)" fill="#1bb100"/>
      <path id="Path_11938" data-name="Path 11938" d="M128.029,325.126a.675.675,0,0,1-.668-.668.658.658,0,0,1,.2-.472.655.655,0,0,1,.946,0,.658.658,0,0,1,.2.472.674.674,0,0,1-.677.668Zm-.539,4.729v-4.22h1.087v4.22Z" transform="translate(-104.033 -323.693)" fill="#1bb100"/>
      <path id="Path_11939" data-name="Path 11939" d="M129.271,325.667c0,.113.074.205.224.276a2.9,2.9,0,0,0,.545.184,5.734,5.734,0,0,1,.64.205,1.247,1.247,0,0,1,.545.41,1.119,1.119,0,0,1,.224.717,1.161,1.161,0,0,1-.484,1,2.009,2.009,0,0,1-1.213.352,1.78,1.78,0,0,1-1.773-1l.946-.533a.778.778,0,0,0,.827.548c.389,0,.582-.119.582-.361,0-.113-.073-.205-.224-.276a3.38,3.38,0,0,0-.545-.19,5.06,5.06,0,0,1-.64-.211,1.281,1.281,0,0,1-.545-.4,1.041,1.041,0,0,1-.224-.689,1.179,1.179,0,0,1,.459-.983,1.808,1.808,0,0,1,1.145-.358,1.9,1.9,0,0,1,.937.233,1.739,1.739,0,0,1,.668.665l-.931.505a.7.7,0,0,0-.674-.432.611.611,0,0,0-.352.1A.286.286,0,0,0,129.271,325.667Z" transform="translate(-102.758 -322.528)" fill="#1bb100"/>
      <path id="Path_11940" data-name="Path 11940" d="M131.959,326.233h-.953v1.755a.417.417,0,0,0,.11.322.479.479,0,0,0,.319.113,5.058,5.058,0,0,0,.524,0v.986a2.3,2.3,0,0,1-1.583-.211,1.4,1.4,0,0,1-.459-1.207v-1.755h-.735v-1.047h.735v-.855l1.09-.328v1.182h.953Z" transform="translate(-100.278 -323.243)" fill="#1bb100"/>
      <path id="Path_11941" data-name="Path 11941" d="M131.365,327.027a1.081,1.081,0,0,0,1.191.793,1.114,1.114,0,0,0,.946-.42l.876.505a2.09,2.09,0,0,1-1.841.9,2.266,2.266,0,0,1-1.678-.634,2.16,2.16,0,0,1-.634-1.6,2.185,2.185,0,0,1,.625-1.593,2.155,2.155,0,0,1,1.6-.637,2.007,2.007,0,0,1,1.531.643,2.227,2.227,0,0,1,.6,1.586,2.576,2.576,0,0,1-.04.447Zm-.015-.842H133.5a1.027,1.027,0,0,0-.386-.643,1.093,1.093,0,0,0-.662-.211,1.134,1.134,0,0,0-.726.224A1.058,1.058,0,0,0,131.35,326.185Z" transform="translate(-98.123 -322.528)" fill="#1bb100"/>
      <path id="Path_11942" data-name="Path 11942" d="M135.241,323.838h1.09v5.908h-1.09v-.5a1.628,1.628,0,0,1-1.366.616,1.922,1.922,0,0,1-1.458-.646,2.379,2.379,0,0,1,0-3.167,1.932,1.932,0,0,1,1.458-.646,1.628,1.628,0,0,1,1.366.616Zm-2,4.655a1.218,1.218,0,0,0,1.675,0,1.286,1.286,0,0,0,0-1.715,1.226,1.226,0,0,0-1.675,0,1.268,1.268,0,0,0,0,1.715Z" transform="translate(-94.847 -323.584)" fill="#1bb100"/>
    </g>
  </g>
</svg>
