<svg xmlns="http://www.w3.org/2000/svg" xmlns:xlink="http://www.w3.org/1999/xlink" width="380.575" height="368.701" viewBox="0 0 380.575 368.701">
  <defs>
    <clipPath id="clip-path">
      <path id="Path_39" data-name="Path 39" d="M931.317,268.965a6.087,6.087,0,1,1-6.086-6.086A6.088,6.088,0,0,1,931.317,268.965Z" transform="translate(-919.143 -262.879)" fill="none"/>
    </clipPath>
  </defs>
  <g id="Group_102" data-name="Group 102" transform="translate(-803.692 -190.831)">
    <g id="Group_100" data-name="Group 100" transform="translate(792.365 143.426)">
      <g id="Group_1" data-name="Group 1" transform="translate(11.327 49.485)">
        <path id="Path_1" data-name="Path 1" d="M926.2,519.267h133.1c25.634,0,46.407-20.478,56.8-46.075a108.8,108.8,0,0,0,7.992-41.384c-.126-17.175-11.3-34.307-17.787-49.565-7.318-17.223-14.189-37-13.417-56.982.889-23.057,13.764-42.239,17.151-64.576,3.442-22.721-2.95-47.344-16.262-64.567-22.662-29.319-62.437-34.335-90.585-12.651-17.986,13.855-31.375,33.624-46.863,50.662-21.144,23.257-49.1,33.522-77.45,39-27.026,5.22-53.848,9.667-69.089,39.376-24.046,46.875-6.461,107.092,21.559,146.149C855.335,492.074,889.733,509.913,926.2,519.267Z" transform="translate(-798.469 -170.095)" fill="#deefff"/>
      </g>
      <g id="Group_81" data-name="Group 81" transform="translate(11.495 69.336)">
        <g id="Group_2" data-name="Group 2" transform="translate(0 327.505)">
          <rect id="Rectangle_6043" data-name="Rectangle 6043" width="380.408" height="1.718" fill="#485070"/>
        </g>
        <g id="Group_3" data-name="Group 3" transform="translate(153.512 56.296)">
          <path id="Path_2" data-name="Path 2" d="M909.751,225.7c6.39,7.305,9.012,17.156,11.183,26.382q4.211,17.885,8.424,35.771a42.617,42.617,0,0,1,1.4,8.5c.13,4.615-1.193,10.484-2.275,14.926-1.39,5.7-4.8,5.351-9.882,4.847-8.033-.8-18.96-3.229-24.384-9.779-2.577-3.114-3.407-7.276-4.149-11.25q-1.531-8.2-3.063-16.392c-4.173-22.324-8.344-45.351-3.624-67.567A42.379,42.379,0,0,1,909.751,225.7Z" transform="translate(-881.292 -211.133)" fill="#fff"/>
        </g>
        <g id="Group_4" data-name="Group 4" transform="translate(167.033 138.264)">
          <path id="Path_3" data-name="Path 3" d="M915.323,258.513c3.552,1.683,6.951,3.852,10.371,5.912,5.429,3.268,11.1,5.567,16.659,8.6a16.583,16.583,0,0,0,4.919,2.021c2.976.525,6.118-.594,9.114-.193,4.008.538,7.424,4.11,8.877,8.832,2.446,7.953-3.282,4.993-7.077,4.3l-8.879-1.627a264.335,264.335,0,0,0-34.719-3.78c-6.478-.336-17.887-.186-22.732-6.088C889.5,273.622,886.9,261.11,890,258.006a4.775,4.775,0,0,1,1.989-1.078,30.142,30.142,0,0,1,18.605-.288A35.418,35.418,0,0,1,915.323,258.513Z" transform="translate(-888.579 -255.308)" fill="#9c5240"/>
        </g>
        <g id="Group_19" data-name="Group 19" transform="translate(63.994 93.637)">
          <g id="Group_5" data-name="Group 5" transform="translate(5.236 126.319)">
            <path id="Path_4" data-name="Path 4" d="M956.207,312.837H842.62a6.751,6.751,0,0,1-6.75-6.75h0a6.751,6.751,0,0,1,6.75-6.752H956.207a6.751,6.751,0,0,1,6.75,6.752h0A6.751,6.751,0,0,1,956.207,312.837Z" transform="translate(-835.87 -299.334)" fill="#485070"/>
          </g>
          <g id="Group_6" data-name="Group 6">
            <rect id="Rectangle_6044" data-name="Rectangle 6044" width="61.619" height="110.586" rx="5.863" transform="translate(110.586) rotate(90)" fill="#485070"/>
          </g>
          <g id="Group_8" data-name="Group 8" transform="translate(14.156 51.6)">
            <g id="Group_7" data-name="Group 7">
              <rect id="Rectangle_6045" data-name="Rectangle 6045" width="6.869" height="81.982" fill="#485070"/>
            </g>
          </g>
          <g id="Group_10" data-name="Group 10" transform="translate(88.254 51.6)">
            <g id="Group_9" data-name="Group 9">
              <rect id="Rectangle_6046" data-name="Rectangle 6046" width="6.869" height="81.982" fill="#485070"/>
            </g>
          </g>
          <g id="Group_12" data-name="Group 12" transform="translate(61.786 136.428)">
            <g id="Group_11" data-name="Group 11">
              <rect id="Rectangle_6047" data-name="Rectangle 6047" width="6.869" height="99.582" fill="#485070"/>
            </g>
          </g>
          <g id="Group_14" data-name="Group 14" transform="translate(10.156 136.428)">
            <g id="Group_13" data-name="Group 13">
              <rect id="Rectangle_6048" data-name="Rectangle 6048" width="6.869" height="99.582" fill="#485070"/>
            </g>
          </g>
          <g id="Group_16" data-name="Group 16" transform="translate(120.261 136.428)">
            <g id="Group_15" data-name="Group 15">
              <rect id="Rectangle_6049" data-name="Rectangle 6049" width="6.869" height="99.582" fill="#485070"/>
            </g>
          </g>
          <g id="Group_18" data-name="Group 18" transform="translate(85.015 136.428)">
            <g id="Group_17" data-name="Group 17">
              <rect id="Rectangle_6050" data-name="Rectangle 6050" width="6.869" height="99.582" fill="#485070"/>
            </g>
          </g>
        </g>
        <g id="Group_32" data-name="Group 32" transform="translate(121.901 164.106)">
          <g id="Group_20" data-name="Group 20" transform="translate(106.64 100.907)">
            <path id="Path_5" data-name="Path 5" d="M953.03,323.617c-3.895.818-6.57,1.015-11.172,1.663-6.689.943-13.4,1.726-20.131,2.306,1.754,12.1,3.351,22.747,3.757,24.89,1.757,9.27.789,32.5,4.926,41.319,5.036.625,9.4-.206,14.108-.59C947.018,369.966,949.072,346.65,953.03,323.617Z" transform="translate(-921.727 -323.617)" fill="#cf9378"/>
          </g>
          <g id="Group_21" data-name="Group 21">
            <path id="Path_6" data-name="Path 6" d="M967.109,390.535a29.183,29.183,0,0,0,.434,5.684c5.325,5.626,13.306,8.522,20.982,8.9a36.183,36.183,0,0,0,12.922-1.8q.74-13.6,1.616-27.2c.753-11.8,1.366-23.588,2.832-35.32.653-5.216,1.425-20.687.173-31.709-3.006-11.523-10.658-14.668-10.658-14.668s-21.4-8.469-37.788-12.067c-20.114-4.416-40.562-7.693-60.793-12.1-9.723-2.117-25.99-1.726-31.01,8.9-5.81,12.3,5.771,28.649,15.1,35.752,9.649,7.346,21.558,11.065,33.407,13.647a217.03,217.03,0,0,0,51.124,4.917C964.9,333.479,967.084,386.282,967.109,390.535Z" transform="translate(-864.255 -269.235)" fill="#5298f2"/>
          </g>
          <g id="Group_22" data-name="Group 22">
            <path id="Path_7" data-name="Path 7" d="M965.418,333.576c.033-.033.069-.061.1-.093-3.737-3.713-7.266-7.645-11-11.354-5.565-5.52-10.968-11.213-16.494-16.774-10.977-11.05-22.012-22.042-32.752-33.325q-4.225-.863-8.441-1.774c-9.723-2.117-25.99-1.726-31.01,8.9-5.81,12.3,5.771,28.649,15.1,35.752,9.649,7.346,21.558,11.065,33.407,13.647a217.03,217.03,0,0,0,51.124,4.917C965.435,333.477,965.428,333.533,965.418,333.576Z" transform="translate(-864.255 -269.235)" fill="#485070"/>
          </g>
          <g id="Group_23" data-name="Group 23" transform="translate(100.675 50.294)">
            <path id="Path_8" data-name="Path 8" d="M919.8,313.66l-1.286,0c.009-2.7.2-5.745.382-8.684s.373-5.958.382-8.632l1.286,0c-.007,2.711-.2,5.761-.382,8.708C920,307.974,919.807,310.995,919.8,313.66Z" transform="translate(-918.512 -296.34)" fill="#485070"/>
          </g>
          <g id="Group_24" data-name="Group 24" transform="translate(66.403 7.595)">
            <path id="Path_9" data-name="Path 9" d="M948.568,286.343l-.6-.191c-13.967-4.492-27.159-8.736-47.93-11.547l.174-1.277c20.884,2.826,34.127,7.088,48.151,11.6l.6.193Z" transform="translate(-900.042 -273.328)" fill="#485070"/>
          </g>
          <g id="Group_31" data-name="Group 31" transform="translate(112.1 156.239)">
            <g id="Group_25" data-name="Group 25" transform="translate(0.753 21.439)">
              <path id="Rectangle_6051" data-name="Rectangle 6051" d="M0,0H46.057a0,0,0,0,1,0,0V4.985a0,0,0,0,1,0,0H.89A.89.89,0,0,1,0,4.095V0A0,0,0,0,1,0,0Z" fill="#b3b3b3"/>
            </g>
            <g id="Group_26" data-name="Group 26" transform="translate(0 5.106)">
              <path id="Path_10" data-name="Path 10" d="M970.832,373.878a5.062,5.062,0,0,0,.434-.731c1.115-2.457-.193-5.414-2.332-7.159s-4.934-2.546-7.641-3.307a127.635,127.635,0,0,0-17.307-3.984c-1.57-.215-18.34-1.752-18.268-2.509q-.387,6.34-.776,12.684c-.108,1.752-.546,3.472-.02,5Z" transform="translate(-924.67 -356.189)" fill="#485070"/>
            </g>
            <g id="Group_27" data-name="Group 27" transform="translate(5.986)">
              <path id="Path_11" data-name="Path 11" d="M930.585,355.053a7.966,7.966,0,0,1,9.272-.254,9.908,9.908,0,0,1,4.09,8.593,2.35,2.35,0,0,1-.594,1.689,2.609,2.609,0,0,1-1.748.445l-7.934.095c-1.651.02-3.754.4-4.9-1.082C926.742,361.922,928.622,357.018,930.585,355.053Z" transform="translate(-927.895 -353.437)" fill="#485070"/>
            </g>
            <g id="Group_28" data-name="Group 28" transform="translate(21.787 8.171)">
              <path id="Path_12" data-name="Path 12" d="M937.055,361.438a.622.622,0,0,1-.223-.041.641.641,0,0,1-.38-.826,4.3,4.3,0,0,1,4.359-2.711.641.641,0,0,1,.573.707.628.628,0,0,1-.707.572,3.008,3.008,0,0,0-3.019,1.878A.643.643,0,0,1,937.055,361.438Z" transform="translate(-936.411 -357.84)" fill="#b3b3b3"/>
            </g>
            <g id="Group_29" data-name="Group 29" transform="translate(26.435 9.981)">
              <path id="Path_13" data-name="Path 13" d="M939.561,362.336a.633.633,0,0,1-.336-.093.644.644,0,0,1-.215-.885,5.4,5.4,0,0,1,4.45-2.542.7.7,0,0,1,.653.633.643.643,0,0,1-.635.653,4.091,4.091,0,0,0-3.366,1.926A.642.642,0,0,1,939.561,362.336Z" transform="translate(-938.916 -358.816)" fill="#b3b3b3"/>
            </g>
            <g id="Group_30" data-name="Group 30" transform="translate(32.26 11.181)">
              <path id="Path_14" data-name="Path 14" d="M942.7,362.411a.658.658,0,0,1-.236-.043.65.65,0,0,1-.364-.837,3.328,3.328,0,0,1,3.034-2.069.644.644,0,0,1,0,1.288A2.035,2.035,0,0,0,943.3,362,.645.645,0,0,1,942.7,362.411Z" transform="translate(-942.055 -359.463)" fill="#b3b3b3"/>
            </g>
          </g>
        </g>
        <g id="Group_43" data-name="Group 43" transform="translate(105.106 160.768)">
          <g id="Group_33" data-name="Group 33" transform="translate(60.674 95.764)">
            <path id="Path_15" data-name="Path 15" d="M905.642,321.273q-8.845,1.247-17.739,2.065c4.479,22.038,6.546,44.479,10.2,66.658,5.03-.02,9.619-1.086,14.969-.967,1.019-6.717,3.069-46.594,6.224-69.983C913.884,320.382,911.16,320.5,905.642,321.273Z" transform="translate(-887.903 -319.046)" fill="#cf9378"/>
          </g>
          <g id="Group_34" data-name="Group 34">
            <path id="Path_16" data-name="Path 16" d="M916.763,396.794c1.219,4.965,2.639,8.009,7.53,9.949a28.306,28.306,0,0,0,13.412,1.885c6.1-.657,11.07-5.127,11.07-5.127s6.311-94.092-1.54-106.148c-9.606-14.753-30.637-17.78-47.023-21.378-14.354-3.151-28.876-5.726-43.369-8.541-3.535,13.417-.982,29.193,4.147,41.566l.078.191a28.5,28.5,0,0,0,23.882,17.186,215.429,215.429,0,0,0,23.087.722C907.938,327.1,912.4,379.024,916.763,396.794Z" transform="translate(-855.204 -267.436)" fill="#5298f2"/>
          </g>
          <g id="Group_35" data-name="Group 35" transform="translate(52.315 45.715)">
            <path id="Path_17" data-name="Path 17" d="M884.686,309.393l-1.288,0c.009-2.707.2-5.752.386-8.7.182-2.926.373-5.951.382-8.621l1.286,0c-.009,2.707-.2,5.752-.384,8.7C884.884,303.7,884.695,306.724,884.686,309.393Z" transform="translate(-883.398 -292.073)" fill="#485070"/>
          </g>
          <g id="Group_42" data-name="Group 42" transform="translate(68.927 158.857)">
            <g id="Group_36" data-name="Group 36" transform="translate(0.753 21.439)">
              <path id="Rectangle_6052" data-name="Rectangle 6052" d="M0,0H46.057a0,0,0,0,1,0,0V4.985a0,0,0,0,1,0,0H.89A.89.89,0,0,1,0,4.095V0A0,0,0,0,1,0,0Z" fill="#b3b3b3"/>
            </g>
            <g id="Group_37" data-name="Group 37" transform="translate(0 5.106)">
              <path id="Path_18" data-name="Path 18" d="M938.513,373.489a4.859,4.859,0,0,0,.434-.731c1.115-2.455-.193-5.414-2.332-7.157s-4.934-2.548-7.641-3.307a127.354,127.354,0,0,0-17.307-3.986c-1.57-.215-18.34-1.75-18.268-2.509q-.387,6.343-.776,12.684c-.108,1.752-.546,3.472-.02,5Z" transform="translate(-892.351 -355.8)" fill="#485070"/>
            </g>
            <g id="Group_38" data-name="Group 38" transform="translate(5.986)">
              <path id="Path_19" data-name="Path 19" d="M898.266,354.664a7.969,7.969,0,0,1,9.272-.254,9.91,9.91,0,0,1,4.09,8.593,2.344,2.344,0,0,1-.594,1.69,2.62,2.62,0,0,1-1.748.445l-7.934.093c-1.651.02-3.754.4-4.9-1.08C894.423,361.533,896.3,356.629,898.266,354.664Z" transform="translate(-895.576 -353.048)" fill="#485070"/>
            </g>
            <g id="Group_39" data-name="Group 39" transform="translate(21.788 8.17)">
              <path id="Path_20" data-name="Path 20" d="M904.737,361.048a.626.626,0,0,1-.225-.041.643.643,0,0,1-.38-.826,4.313,4.313,0,0,1,4.36-2.711.645.645,0,0,1,.573.707.634.634,0,0,1-.707.573,3,3,0,0,0-3.019,1.876A.643.643,0,0,1,904.737,361.048Z" transform="translate(-904.093 -357.452)" fill="#b3b3b3"/>
            </g>
            <g id="Group_40" data-name="Group 40" transform="translate(26.435 9.98)">
              <path id="Path_21" data-name="Path 21" d="M907.24,361.947a.64.64,0,0,1-.549-.978,5.4,5.4,0,0,1,4.451-2.542h.009a.643.643,0,0,1,.009,1.286,4.094,4.094,0,0,0-3.37,1.926A.638.638,0,0,1,907.24,361.947Z" transform="translate(-906.597 -358.427)" fill="#b3b3b3"/>
            </g>
            <g id="Group_41" data-name="Group 41" transform="translate(32.259 11.181)">
              <path id="Path_22" data-name="Path 22" d="M910.38,362.022a.621.621,0,0,1-.236-.043.645.645,0,0,1-.364-.835,3.328,3.328,0,0,1,3.032-2.071h0a.644.644,0,0,1,0,1.288,2.045,2.045,0,0,0-1.837,1.254A.642.642,0,0,1,910.38,362.022Z" transform="translate(-909.736 -359.074)" fill="#b3b3b3"/>
            </g>
          </g>
        </g>
        <g id="Group_50" data-name="Group 50" transform="translate(97.382 54.387)">
          <g id="Group_44" data-name="Group 44">
            <path id="Path_23" data-name="Path 23" d="M858.47,334.666q.607,3.248,1.217,6.494c7.472-3.93,16.41-3.108,24.853-3.123a114.507,114.507,0,0,0,53.243-13.3c-.917-4.594-1.965-9.016-1.989-13.64-.026-4.7-1.969-9.261-1.969-13.978-.31-6.37-.063-12.755.251-19.119.594-12.057,1.41-24.252-.843-36.112a53.02,53.02,0,0,0-9.016-21.608c-2.149-2.909-5.123-6.678-8.417-8.352-3.492-1.774-8.73-1.18-12.658-1.527a33.659,33.659,0,0,0-8.628-.02,28.9,28.9,0,0,0-9.775,4.123c-16.264,9.756-18.238,25.489-23.135,42.423-2.444,8.458-6.276,16.464-8.728,24.92a48,48,0,0,0-1.818,14.559c.108,4.442,1.817,8.4,2.635,12.768Q856.08,321.92,858.47,334.666Z" transform="translate(-851.042 -210.104)" fill="#fff"/>
          </g>
          <g id="Group_45" data-name="Group 45" transform="translate(52.784 13.948)">
            <path id="Path_24" data-name="Path 24" d="M890.2,223.774a16.3,16.3,0,0,1-10.484-3.845.645.645,0,0,1,.835-.983,14.94,14.94,0,0,0,10.5,3.514,6.186,6.186,0,0,0,3.5-1.074,2.7,2.7,0,0,0,1.03-2.889.645.645,0,0,1,1.2-.464,3.973,3.973,0,0,1-1.444,4.368,7.385,7.385,0,0,1-4.212,1.345Q890.664,223.774,890.2,223.774Z" transform="translate(-879.489 -217.621)" fill="#485070"/>
          </g>
          <g id="Group_46" data-name="Group 46" transform="translate(49.049 50.586)">
            <path id="Path_25" data-name="Path 25" d="M902.189,263.991a.682.682,0,0,1-.217-.035A40.1,40.1,0,0,1,877.5,238.2a.643.643,0,0,1,.432-.8.634.634,0,0,1,.8.431,38.789,38.789,0,0,0,23.671,24.912.644.644,0,0,1-.217,1.251Z" transform="translate(-877.475 -237.366)" fill="#485070"/>
          </g>
          <g id="Group_47" data-name="Group 47" transform="translate(59.587 59.563)">
            <path id="Path_26" data-name="Path 26" d="M895.667,249.873a.46.46,0,0,1-.071,0,18.877,18.877,0,0,1-12.293-6.608.645.645,0,1,1,.991-.828,17.572,17.572,0,0,0,11.445,6.157.643.643,0,0,1-.072,1.282Z" transform="translate(-883.155 -242.204)" fill="#485070"/>
          </g>
          <g id="Group_48" data-name="Group 48" transform="translate(38.82 58.858)">
            <path id="Path_27" data-name="Path 27" d="M894.215,278.083a.641.641,0,0,1-.447-.182,84.866,84.866,0,0,1-21.775-35.238.644.644,0,1,1,1.228-.388,83.6,83.6,0,0,0,21.441,34.7.644.644,0,0,1-.447,1.106Z" transform="translate(-871.963 -241.824)" fill="#485070"/>
          </g>
          <g id="Group_49" data-name="Group 49" transform="translate(76.338 14.792)">
            <path id="Path_28" data-name="Path 28" d="M899.355,301.326c-2.056-9.129-1.36-17.6-.62-26.56.339-4.119.69-8.376.746-12.7a150.022,150.022,0,0,0-1.6-23.871c-.141-.959-.265-1.874-.384-2.755-.748-5.518-1.34-9.875-5.314-16.718l1.111-.649c4.1,7.066,4.709,11.534,5.477,17.193.121.88.243,1.787.384,2.742a151.52,151.52,0,0,1,1.614,24.077c-.058,4.362-.41,8.643-.751,12.785-.729,8.86-1.418,17.232.6,26.169Z" transform="translate(-892.182 -218.076)" fill="#485070"/>
          </g>
        </g>
        <g id="Group_53" data-name="Group 53" transform="translate(140.734 36.332)">
          <g id="Group_52" data-name="Group 52">
            <g id="Group_51" data-name="Group 51">
              <path id="Path_29" data-name="Path 29" d="M898.167,216.213a28.379,28.379,0,0,1,2.9-6.364,18.2,18.2,0,0,1-10.094-3.433,31.128,31.128,0,0,1-4.064-3.576c-.449-.46-1.134-1.627-1.854-2.466-.746,8.086-3.757,15.69-10.652,20.307,2.327,4.253,6.231,7.45,10.417,9.877,3.6,2.086,12.556,6.116,12.755-1.169.065-2.384-.881-4.587-.677-7.008A28.44,28.44,0,0,1,898.167,216.213Z" transform="translate(-874.405 -200.374)" fill="#cf9378"/>
            </g>
          </g>
        </g>
        <g id="Group_56" data-name="Group 56" transform="translate(150.902 36.332)">
          <g id="Group_55" data-name="Group 55">
            <g id="Group_54" data-name="Group 54">
              <path id="Path_30" data-name="Path 30" d="M892.193,223.026c0-.213,0-.429.019-.646a29.578,29.578,0,0,1,4.169-12.532,18.2,18.2,0,0,1-10.094-3.433,31.128,31.128,0,0,1-4.064-3.576c-.449-.46-1.134-1.627-1.854-2.466q-.164,1.776-.484,3.513C880.386,211.433,885.552,219.584,892.193,223.026Z" transform="translate(-879.885 -200.374)" fill="#9c5240"/>
            </g>
          </g>
        </g>
        <g id="Group_57" data-name="Group 57" transform="translate(88.819 56.296)">
          <path id="Path_31" data-name="Path 31" d="M867.931,225.7c-6.392,7.305-9.014,17.156-11.185,26.382q-4.211,17.885-8.424,35.771c-.972,4.13-2.533,9.781-1.618,14a18.176,18.176,0,0,0,8.289,11.224c4.244,2.548,10.7,3.711,15.364,1.546,4.566-2.121,9.792-4.277,13.1-8.279,2.577-3.114,3.407-7.276,4.149-11.25q1.534-8.2,3.065-16.392c4.173-22.324,8.342-45.351,3.622-67.567A42.369,42.369,0,0,0,867.931,225.7Z" transform="translate(-846.427 -211.133)" fill="#fff"/>
        </g>
        <g id="Group_58" data-name="Group 58" transform="translate(120.822 92.403)">
          <path id="Path_32" data-name="Path 32" d="M864.917,285.085l-1.243-.336a215.506,215.506,0,0,0,6.155-31.978c.132-1.136.219-2.384.313-3.689.525-7.277,1.178-16.332,9.458-18.49l.326,1.247c-7.389,1.924-8,10.471-8.5,17.336-.095,1.325-.187,2.59-.319,3.743A216.521,216.521,0,0,1,864.917,285.085Z" transform="translate(-863.674 -230.592)" fill="#485070"/>
        </g>
        <g id="Group_59" data-name="Group 59" transform="translate(129.326 90.351)">
          <path id="Path_33" data-name="Path 33" d="M869.485,238.463l-1.228-.39a18.426,18.426,0,0,1,5.847-8.587l.817,1A17.116,17.116,0,0,0,869.485,238.463Z" transform="translate(-868.257 -229.486)" fill="#485070"/>
        </g>
        <g id="Group_60" data-name="Group 60" transform="translate(90.401 142.261)">
          <path id="Path_34" data-name="Path 34" d="M881.331,258.83c4.98,1.089,9.866,2.681,14.755,4.16,7.762,2.347,15.624,3.7,23.51,5.8a27.846,27.846,0,0,0,6.832,1.2c3.986.039,7.836-1.574,11.82-1.661a16.068,16.068,0,0,1,13.432,7.281c4.876,7.454-3.206,5.457-8.294,5.383l-11.9-.173A458.664,458.664,0,0,0,885.5,282.7c-8.5.714-23.317,2.705-30.876-2.336-3.674-2.449-9.729-14.375-6.357-17.941a6.372,6.372,0,0,1,2.36-1.382,50.867,50.867,0,0,1,24.15-3.292A60.569,60.569,0,0,1,881.331,258.83Z" transform="translate(-847.279 -257.462)" fill="#cf9378"/>
        </g>
        <g id="Group_61" data-name="Group 61" transform="translate(237.997 149.5)">
          <path id="Path_35" data-name="Path 35" d="M927.107,261.363h-.284" transform="translate(-926.823 -261.363)" fill="#dc8b77"/>
        </g>
        <g id="Group_67" data-name="Group 67" transform="translate(150.035 131.564)">
          <g id="Group_62" data-name="Group 62" transform="translate(0 50.96)">
            <rect id="Rectangle_6053" data-name="Rectangle 6053" width="107.204" height="4.873" rx="1.122" fill="#485070"/>
          </g>
          <g id="Group_63" data-name="Group 63" transform="translate(26.429)">
            <path id="Path_36" data-name="Path 36" d="M985.27,307.53H893.661l7.971-52.641a3.718,3.718,0,0,1,3.63-3.192H989.61a3.57,3.57,0,0,1,3.483,4.171Z" transform="translate(-893.661 -251.697)" fill="#757e96"/>
          </g>
          <g id="Group_66" data-name="Group 66" transform="translate(73.712 20.749)">
            <g id="Group_65" data-name="Group 65">
              <g id="Group_64" data-name="Group 64" clip-path="url(#clip-path)">
                <path id="Path_37" data-name="Path 37" d="M919.143,262.879v0Z" transform="translate(-919.143 -262.879)" fill="#fff"/>
                <rect id="Rectangle_6054" data-name="Rectangle 6054" width="12.175" height="12.175" transform="translate(0 -0.001)" fill="#fff"/>
                <path id="Path_38" data-name="Path 38" d="M925.7,275.053v0Z" transform="translate(-913.53 -262.879)" fill="#fff"/>
              </g>
            </g>
          </g>
        </g>
        <g id="Group_70" data-name="Group 70" transform="translate(150.206 14.953)">
          <g id="Group_69" data-name="Group 69">
            <g id="Group_68" data-name="Group 68">
              <path id="Path_40" data-name="Path 40" d="M911.952,192.561c-1.05-4.088-5.433-.525-9.424-1.9-3.472-1.195-6.114-2.264-9.829-1.618a13.751,13.751,0,0,0-8.558,4.895c-.56.722-1.067,1.453-1.529,2.186a47.645,47.645,0,0,0-3.082,8.046l-.02.184a25.941,25.941,0,0,0,4.945,14.347,13.536,13.536,0,0,0,12.41,5.863,11.568,11.568,0,0,0,7.142-3.65,25.724,25.724,0,0,0,4.73-7.782C910.561,208.86,913.106,197.065,911.952,192.561Z" transform="translate(-879.51 -188.852)" fill="#cf9378"/>
            </g>
          </g>
        </g>
        <g id="Group_71" data-name="Group 71" transform="translate(145.115)">
          <path id="Path_41" data-name="Path 41" d="M894.974,203.467c.039-.18.069-.384.117-.616.343-1.629-.477-2.9-.289-4.516a2.562,2.562,0,0,1,1.85-2.3,3.78,3.78,0,0,1,2.533.785l8.3,5c4.442,2.676,10.738.373,12.684-4.44a9.337,9.337,0,0,0-4.064-11.311,1.14,1.14,0,0,1,.271,1.87,1.925,1.925,0,0,1-2.158.083,7.093,7.093,0,0,1-1.7-1.536c-5.769-6.207-15.82-7.754-22.706-2.566a13.3,13.3,0,0,0-2.815,2.82c-.358.5-1.872,3.236-1.26,3.763a3.091,3.091,0,0,0-3.5-.1,7.252,7.252,0,0,0-2.431,2.787,23.9,23.9,0,0,0-2.765,15.347,29.727,29.727,0,0,0,2.067,6.535c.707,1.774,1.852,3.754,4.006,3.8,2.976.065,2.646-4.926,3.492-7.5.33-1.011.258-2.277,1.464-2.579,1.223-.308,3.192,2.011,4.132.113a3.517,3.517,0,0,0,.024-2.245,3.017,3.017,0,0,1,.143-2.227c.039-.063,1.575,0,1.807-.076A1.045,1.045,0,0,0,894.974,203.467Z" transform="translate(-876.766 -180.793)" fill="#485070"/>
        </g>
        <g id="Group_72" data-name="Group 72" transform="translate(170.09 31.252)">
          <path id="Path_42" data-name="Path 42" d="M892.9,198.974a1.336,1.336,0,1,1-1.336-1.338A1.336,1.336,0,0,1,892.9,198.974Z" transform="translate(-890.226 -197.636)" fill="#485070"/>
        </g>
        <g id="Group_73" data-name="Group 73" transform="translate(169.75 28.149)">
          <path id="Path_43" data-name="Path 43" d="M893.376,197.517a.651.651,0,0,1-.228-.041,3.443,3.443,0,0,0-2.267-.065.644.644,0,0,1-.388-1.228,4.758,4.758,0,0,1,3.112.089.644.644,0,0,1-.228,1.245Z" transform="translate(-890.043 -195.964)" fill="#485070"/>
        </g>
        <g id="Group_74" data-name="Group 74" transform="translate(178.542 32.625)">
          <path id="Path_44" data-name="Path 44" d="M897.453,199.712a1.336,1.336,0,1,1-1.336-1.336A1.335,1.335,0,0,1,897.453,199.712Z" transform="translate(-894.781 -198.376)" fill="#485070"/>
        </g>
        <g id="Group_75" data-name="Group 75" transform="translate(178.2 29.522)">
          <path id="Path_45" data-name="Path 45" d="M897.931,198.257a.669.669,0,0,1-.23-.041,3.433,3.433,0,0,0-2.264-.063.645.645,0,1,1-.392-1.228,4.747,4.747,0,0,1,3.115.087.644.644,0,0,1-.23,1.245Z" transform="translate(-894.597 -196.704)" fill="#485070"/>
        </g>
        <g id="Group_76" data-name="Group 76" transform="translate(175.418 33.964)">
          <path id="Path_46" data-name="Path 46" d="M894.4,205.251a4.13,4.13,0,0,1-.774-.093.641.641,0,0,1-.512-.753.652.652,0,0,1,.751-.512,1.957,1.957,0,0,0,.714.052.28.28,0,0,0,.152-.1,3.272,3.272,0,0,0-.215-.306,5.331,5.331,0,0,1-1.05-3.885.655.655,0,0,1,.722-.555.64.64,0,0,1,.553.722,3.986,3.986,0,0,0,.757,2.878,1.882,1.882,0,0,1,.514,1.236,1.427,1.427,0,0,1-1.13,1.258A2,2,0,0,1,894.4,205.251Z" transform="translate(-893.098 -199.097)" fill="#485070"/>
        </g>
        <g id="Group_77" data-name="Group 77" transform="translate(169.749 41.293)">
          <path id="Path_47" data-name="Path 47" d="M894.2,203.047a6.03,6.03,0,0,0-3.945,1.468.645.645,0,0,0,.852.969,4.7,4.7,0,0,1,4.06-1.043.643.643,0,1,0,.278-1.256A5.74,5.74,0,0,0,894.2,203.047Z" transform="translate(-890.042 -203.047)" fill="#485070"/>
        </g>
        <g id="Group_80" data-name="Group 80" transform="translate(149.867 25.264)">
          <g id="Group_78" data-name="Group 78">
            <path id="Path_48" data-name="Path 48" d="M879.327,199.313a4.905,4.905,0,1,0,4.906-4.9A4.9,4.9,0,0,0,879.327,199.313Z" transform="translate(-879.327 -194.409)" fill="#cf9378"/>
          </g>
          <g id="Group_79" data-name="Group 79" transform="translate(3.153 2.146)">
            <path id="Path_49" data-name="Path 49" d="M881.675,200.838a.644.644,0,0,1-.642-.59,2.123,2.123,0,0,1,1.156-2.043,2.088,2.088,0,0,1,1.334-.161,1.461,1.461,0,0,0-.293-.649,1.518,1.518,0,0,0-1.323-.531.636.636,0,0,1-.722-.555.644.644,0,0,1,.555-.722,2.753,2.753,0,0,1,2.948,3.641.642.642,0,0,1-.451.412.653.653,0,0,1-.59-.15.795.795,0,0,0-1.331.651.645.645,0,0,1-.588.7Z" transform="translate(-881.026 -195.566)" fill="#485070"/>
          </g>
        </g>
      </g>
    </g>
    <g id="Group_101" data-name="Group 101" transform="translate(859.934 190.831)">
      <path id="Path_61" data-name="Path 61" d="M828.78,168.974h1.032v4.051a1.453,1.453,0,0,0,.414,1.067,1.518,1.518,0,0,0,2.091,0,1.453,1.453,0,0,0,.414-1.067v-4.051h1.041v4.051a2.426,2.426,0,0,1-.733,1.778,2.5,2.5,0,0,1-3.535.011,2.438,2.438,0,0,1-.724-1.789Z" transform="translate(-828.78 -168.974)" fill="#fff"/>
      <path id="Path_62" data-name="Path 62" d="M837.027,175.53l-3.771-3.919v3.93h-1.03v-6.567l3.769,3.95v-3.95h1.032Z" transform="translate(-825.831 -168.974)" fill="#fff"/>
      <path id="Path_63" data-name="Path 63" d="M840.7,172.256a3.326,3.326,0,0,1-.872,2.329,2.9,2.9,0,0,1-2.238.956H835.63v-6.567h2.132a2.644,2.644,0,0,1,2.106.983A3.452,3.452,0,0,1,840.7,172.256Zm-2.969-2.273h-1.071v4.568h1.071a1.735,1.735,0,0,0,1.368-.674,2.581,2.581,0,0,0,.005-3.232A1.742,1.742,0,0,0,837.732,169.983Z" transform="translate(-822.92 -168.974)" fill="#fff"/>
      <path id="Path_64" data-name="Path 64" d="M840.041,170.006v1.737h2.132v1.03h-2.132v1.737h3v1.032h-4.032v-6.567h4.032v1.032Z" transform="translate(-820.027 -168.974)" fill="#fff"/>
      <path id="Path_65" data-name="Path 65" d="M844.538,173.52h-1.687v2.021H841.82v-6.567h2.589a2.285,2.285,0,0,1,1.625.636,2.1,2.1,0,0,1,.677,1.6,2.244,2.244,0,0,1-.88,1.8l-.282.223,1.171,2.314H845.57Zm-.293-3.6h-1.394v2.564h1.394a1.5,1.5,0,0,0,1.037-.364,1.237,1.237,0,0,0,0-1.837A1.5,1.5,0,0,0,844.245,169.924Z" transform="translate(-817.624 -168.974)" fill="#fff"/>
      <path id="Path_66" data-name="Path 66" d="M849.842,173.52h-1.687v2.021h-1.032v-6.567h2.588a2.291,2.291,0,0,1,1.625.636,2.1,2.1,0,0,1,.677,1.6,2.244,2.244,0,0,1-.88,1.8l-.282.223,1.171,2.314h-1.151Zm-.293-3.6h-1.394v2.564h1.394a1.5,1.5,0,0,0,1.035-.364,1.234,1.234,0,0,0,0-1.837A1.5,1.5,0,0,0,849.549,169.924Z" transform="translate(-813.086 -168.974)" fill="#fff"/>
      <path id="Path_67" data-name="Path 67" d="M851.465,170.006v1.737H853.6v1.03h-2.132v1.737h3v1.032h-4.03v-6.567h4.03v1.032Z" transform="translate(-810.253 -168.974)" fill="#fff"/>
      <path id="Path_68" data-name="Path 68" d="M854.018,168.974l1.638,3.889,1.625-3.889h1.1l-2.726,6.567-2.739-6.567Z" transform="translate(-808.129 -168.974)" fill="#fff"/>
      <path id="Path_69" data-name="Path 69" d="M856.358,175.541v-6.567h1.032v6.567Z" transform="translate(-805.186 -168.974)" fill="#fff"/>
      <path id="Path_70" data-name="Path 70" d="M858.761,170.006v1.737h2.132v1.03h-2.132v1.737h3v1.032h-4.03v-6.567h4.03v1.032Z" transform="translate(-804.012 -168.974)" fill="#fff"/>
      <path id="Path_71" data-name="Path 71" d="M861.335,168.974l1.536,4.373,2.041-2.919,2.041,2.919,1.536-4.373H869.6l-2.394,6.567-2.293-3.284-2.293,3.284-2.394-6.567Z" transform="translate(-801.878 -168.974)" fill="#fff"/>
    </g>
  </g>
</svg>
