<svg xmlns="http://www.w3.org/2000/svg" width="38.891" height="37.288" viewBox="0 0 38.891 37.288">
  <g id="Group_9971" data-name="Group 9971" transform="translate(-426.682 -150)">
    <path id="Icon_awesome-wallet" data-name="Icon awesome-wallet" d="M26.577,7.782H4.61a.922.922,0,1,1,0-1.844H26.738a.922.922,0,0,0,.922-.922A2.766,2.766,0,0,0,24.894,2.25H3.688A3.688,3.688,0,0,0,0,5.938v18.44a3.688,3.688,0,0,0,3.688,3.688H26.577A2.853,2.853,0,0,0,29.5,25.3V10.548A2.853,2.853,0,0,0,26.577,7.782Zm-2.6,11.986a1.844,1.844,0,1,1,1.844-1.844A1.844,1.844,0,0,1,23.972,19.768Z" transform="translate(426.682 159.222)" fill="#121212"/>
    <path id="Path_10248" data-name="Path 10248" d="M-1697.633-4817.395h4.231v4.77h4.567v3.882h-4.567v4.748h-4.231v-4.748h-4.49v-3.882h4.49Z" transform="translate(2154.408 4967.395)"/>
  </g>
</svg>
