<svg xmlns="http://www.w3.org/2000/svg" width="25.229" height="25.217" viewBox="0 0 25.229 25.217">
  <g id="Group_8236" data-name="Group 8236" transform="translate(-325.902 -263.69)">
    <path id="Path_9471" data-name="Path 9471" d="M350.213,279.142c-.712,0-1.424-.006-2.136,0-.171,0-.211-.048-.205-.211.012-.339.008-.678,0-1.016a1.211,1.211,0,0,0-1.209-1.216c-1.365-.008-2.729,0-4.094,0a1.007,1.007,0,0,0-.7.247.454.454,0,0,1-.439.1c-1.1-.185-2.2-.364-3.3-.555-.273-.048-.653.013-.789-.179s-.031-.538-.042-.817a.243.243,0,0,1,.133-.243,4.04,4.04,0,0,0,1.882-3.017c.049-.4.054-.4.467-.419a1.219,1.219,0,0,0,.249-2.4c-.15-.039-.3-.019-.472-.05.071-.169.14-.331.208-.493a3.281,3.281,0,0,0-1.648-4.3c-.358-.171-.724-.326-1.084-.492a4.114,4.114,0,0,0-2.627-.292,4.452,4.452,0,0,0-1.85.907,1.836,1.836,0,0,1-.529.343,2.517,2.517,0,0,0-1.483,3.541c.124.258.256.511.4.8-.1,0-.158,0-.217,0a1.225,1.225,0,0,0-1.1,1.591,1.212,1.212,0,0,0,1.225.842c.249-.005.345.025.366.32a3.668,3.668,0,0,0,1.483,2.805,1.114,1.114,0,0,1,.532,1.191.159.159,0,0,0,0,.051c.023.138-.039.189-.174.211-1.545.252-3.087.521-4.634.763a2.852,2.852,0,0,0-2.516,2.9q-.005,4.157,0,8.314c0,.4.135.534.531.534h23.8a.82.82,0,0,0,.9-.9q0-3.98,0-7.958A.824.824,0,0,0,350.213,279.142ZM339.322,270.6c.054-.164-.135-.449.265-.412.362.033.552.142.555.408s-.192.392-.569.419C339.161,271.04,339.4,270.737,339.322,270.6Zm4.75,6.919q1.244,0,2.488,0c.351,0,.5.145.5.487,0,.322,0,.643,0,.965,0,.115,0,.181-.157.179q-1.143-.013-2.285,0c-.121,0-.158-.053-.192-.147a2.884,2.884,0,0,0-1.256-1.483Zm-1.894.619c0-.179.1-.105.182-.084a2,2,0,0,1,1.245,1.092c-.448,0-.869,0-1.291,0-.089,0-.139-.012-.137-.121C342.183,278.726,342.183,278.43,342.178,278.134Zm2.455,1.822c1.814,0,3.627,0,5.441,0,.193,0,.263.039.248.245a11.365,11.365,0,0,1-.047,1.368,2.01,2.01,0,0,1-1.905,1.641c-.787.018-1.576,0-2.364.009-.137,0-.17-.041-.167-.171.009-.33.006-.661,0-.991a.415.415,0,0,0-.47-.468q-.749-.006-1.5,0a.414.414,0,0,0-.47.466c0,.33-.006.661,0,.992,0,.128-.026.173-.166.171-.788-.007-1.576.01-2.364-.009a2.024,2.024,0,0,1-1.946-1.966c-.009-.355.009-.712-.007-1.067-.008-.181.045-.221.222-.22C340.971,279.958,342.8,279.955,344.632,279.955Zm-.421,2.6c0-.118.027-.154.152-.159.664-.027.664-.031.664.632,0,.447,0,.895,0,1.342,0,.293-.168.475-.415.47a.413.413,0,0,1-.4-.462c0-.3,0-.608,0-.912S344.218,282.856,344.211,282.552ZM330.95,271.011c-.379-.028-.574-.145-.57-.419s.193-.4.58-.4c.232,0,.232,0,.232.445C331.146,270.766,331.332,271.038,330.95,271.011Zm.567-2.384a1.761,1.761,0,0,1,.205-2.524,1.826,1.826,0,0,1,2.56.319c.256.318.256.318.594.093s.332-.222.084-.547a2.823,2.823,0,0,0-1.429-.972,3.321,3.321,0,0,1,2.954-.263c.471.185.933.4,1.384.627a2.438,2.438,0,0,1,1.113,3.215c-.159-.315-.31-.615-.462-.914-.184-.359-.411-.415-.733-.177a5.044,5.044,0,0,1-1.608.943A3.214,3.214,0,0,1,333.44,268c-.24-.158-.465-.339-.7-.509-.335-.246-.555-.192-.747.186C331.837,267.99,331.679,268.305,331.517,268.627Zm.491,3.226c-.007-.737,0-1.474,0-2.211a1.781,1.781,0,0,1,.281-.721c.075-.177.141-.437.277-.49.154-.06.314.177.474.282a4.061,4.061,0,0,0,4.7-.184c.177-.131.231-.138.356.072a2.863,2.863,0,0,1,.424,1.833,3.4,3.4,0,0,0,0,.381,8.774,8.774,0,0,1-.093,1.77,3.253,3.253,0,0,1-6.415-.734Zm2.857,9.155a3.876,3.876,0,0,0,.21-.515.171.171,0,0,1,.179-.135.183.183,0,0,1,.2.144q.272.7.554,1.388a.43.43,0,0,1,.019.271q-.369,1.592-.735,3.185l-.056,0c-.177-.761-.309-1.536-.542-2.279A2.489,2.489,0,0,1,334.865,281.008Zm-.235-2.706c.22.112.319.422.617.43s.417-.288.642-.434a.505.505,0,0,1-.058.686,3.465,3.465,0,0,0-.256.377.341.341,0,0,1-.626,0,3.454,3.454,0,0,0-.255-.377A.51.51,0,0,1,334.63,278.3Zm.755-.67c-.089.092-.142.109-.24.007-.328-.341-.66-.678-1-1-.16-.152-.092-.33-.1-.5-.011-.421,0-.428.4-.342a3.891,3.891,0,0,0,1.88-.054c.048-.013.1-.016.162-.027,0,.247,0,.483,0,.719a.25.25,0,0,1-.1.194C336.051,276.96,335.714,277.292,335.384,277.632Zm2.731,10.194c0,.225-.053.273-.274.273q-3.408-.014-6.815,0c-.2,0-.246-.052-.245-.248.007-2.145,0-4.289.01-6.433,0-.2-.052-.25-.248-.246-.57.013-.571,0-.571.579,0,2.034,0,4.069.005,6.1,0,.2-.054.247-.249.245q-1.4-.015-2.8,0c-.182,0-.22-.048-.219-.223.008-1.331,0-2.662,0-3.992,0-1.2.037-2.409-.01-3.611a2.164,2.164,0,0,1,2.015-2.353c1.517-.211,3.023-.494,4.534-.746a.913.913,0,0,1,.708.457.369.369,0,0,1-.036.169c-.081.249-.158.5-.251.744a.483.483,0,0,0,.066.479c.19.279.369.568.566.842a.274.274,0,0,1,.03.3c-.208.508-.4,1.021-.617,1.527a.824.824,0,0,0-.044.539c.395,1.679.78,3.36,1.169,5.04.067.291.207.428.428.413.252-.017.353-.18.407-.412q.588-2.572,1.19-5.14a.633.633,0,0,0-.049-.395c-.211-.525-.421-1.05-.636-1.573a.273.273,0,0,1,.03-.3c.192-.267.365-.549.553-.82a.527.527,0,0,0,.073-.525c-.091-.237-.158-.482-.248-.719a.273.273,0,0,1,.072-.309.756.756,0,0,1,.83-.29c1.23.234,2.469.422,3.7.625.116.019.174.054.169.192-.012.322-.013.644,0,.966.006.15-.06.16-.177.16q-1.094-.006-2.187,0a.822.822,0,0,0-.894.9C338.109,282.639,338.107,285.233,338.116,287.826Zm11.616.266q-5.277,0-10.553.005c-.211,0-.267-.047-.261-.26.016-.559.005-.559.566-.559h5.162c1.814,0,3.628,0,5.442,0,.189,0,.239.043.235.234C350.311,288.093,350.32,288.093,349.732,288.093Zm.584-4.7c0,.948,0,1.9.005,2.846,0,.169-.027.227-.214.227q-5.49-.009-10.979-.007c-.086,0-.208.058-.207-.124.005-1.039,0-2.077,0-3.172a3,3,0,0,0,2.241.861c.669-.016,1.339.005,2.008-.008.194,0,.243.05.23.237a1.224,1.224,0,1,0,2.437.2c.014-.43.014-.43.436-.43.576,0,1.152-.015,1.728,0a2.984,2.984,0,0,0,2.27-.82C350.352,283.262,350.315,283.337,350.316,283.4Z" transform="translate(0)" fill="#21558e"/>
  </g>
</svg>
