<svg xmlns="http://www.w3.org/2000/svg" width="287.316" height="774.915" viewBox="0 0 287.316 774.915">
  <g id="Group_249" data-name="Group 249" transform="translate(-506.964 -215.428)" opacity="0.77">
    <path id="Path_292" data-name="Path 292" d="M534.99,349.863l-.978,4.77h2.194l-.978-4.77Z" transform="translate(115.322 573.175)" fill="#1850aa"/>
    <path id="Path_293" data-name="Path 293" d="M540.208,353.122a1.64,1.64,0,0,0,.347-1.168v-.863a1.649,1.649,0,0,0-.347-1.168,1.383,1.383,0,0,0-1.037-.353h-1.29v3.911h1.29A1.383,1.383,0,0,0,540.208,353.122Z" transform="translate(131.819 571.921)" fill="#1850aa"/>
    <path id="Path_294" data-name="Path 294" d="M526.594,349.863l-.978,4.77h2.2l-.979-4.77Z" transform="translate(79.526 573.175)" fill="#1850aa"/>
    <path id="Path_295" data-name="Path 295" d="M544.269,359.881a1.86,1.86,0,0,0,.405-1.348v-7.2a1.822,1.822,0,0,0-.426-1.347,1.643,1.643,0,0,0-1.195-.416h-1.384V360.3h1.384A1.616,1.616,0,0,0,544.269,359.881Z" transform="translate(147.969 571.921)" fill="#1850aa"/>
    <path id="Path_296" data-name="Path 296" d="M763.692,355.05c-8.6-18.844-22.786-31.518-43.372-38.74-11.985-4.206-28.955-11.264-34.155-14.67-3.279-2.147-6.116-7.527-4.606-14.264a45.827,45.827,0,0,1,1.632-5.458c2.49-7.2,4.032-13.433,2.764-33.729-1.511-24.181-19.3-32.761-34.071-32.761-.511,0-.937.011-1.263.026-.326-.016-.753-.026-1.263-.026-14.769,0-32.555,8.58-34.066,32.761-1.269,20.3.268,26.528,2.763,33.729a46.669,46.669,0,0,1,1.632,5.458c1.511,6.737-1.326,12.117-4.605,14.264-5.2,3.405-22.176,10.464-34.155,14.67-20.586,7.222-34.776,19.9-43.377,38.74-9.664,21.181-10.9,23.9-20.97,37.387-8.916,11.948-11.754,23.3-8,31.95,2.153,4.964,7.39,11.175,20.123,12.591a147.145,147.145,0,0,0,16.275.795c5.9,0,11.648-.232,17.2-.458,4.832-.195,9.4-.384,13.464-.384,2.805,0,5.116.089,7.069.274,5.548.521,7.258,1.479,9.243,2.584a28.193,28.193,0,0,0,4.406,2.111c.552,7.58.852,21.27-2.716,32.487-6.474,20.349-10.4,67.548-2.069,98.181q1.626,5.977,3.148,11.49c6.248,22.733,10.764,39.161,11.443,51.567a134.64,134.64,0,0,1-.342,14.475c-.684,11.959-1.542,26.844,3.432,45.077.9,3.316,1.848,6.606,2.758,9.785,5.879,20.507,10.953,38.213,4.922,56.957-3.374,10.485-8.732,19.107-14.412,28.239-2.953,4.753-5.932,9.59-8.627,14.7h-23.76a18.005,18.005,0,0,0-17.149,12.785l-14.1,47.251c-.021.058-.016.116-.032.179a5.972,5.972,0,0,0-.126.705c-.011.137-.037.269-.037.405-.005.053-.016.1-.016.153v104.5a19.522,19.522,0,0,0,19.5,19.5H743.059a19.523,19.523,0,0,0,19.5-19.5v-104.5c0-.053-.016-.1-.016-.153-.005-.137-.026-.268-.042-.405a5.042,5.042,0,0,0-.121-.705c-.016-.063-.016-.121-.032-.179l-14.1-47.251A18.01,18.01,0,0,0,731.1,804.859h-23.76c-2.7-5.111-5.68-9.948-8.632-14.7-5.674-9.133-11.038-17.754-14.412-28.239-6.032-18.744-.953-36.45,4.927-56.957.91-3.179,1.853-6.469,2.758-9.785,4.974-18.233,4.116-33.118,3.432-45.077a133.37,133.37,0,0,1-.342-14.475c.679-12.406,5.19-28.834,11.443-51.567q1.516-5.519,3.143-11.49c8.327-30.634,4.411-77.832-2.064-98.181-3.59-11.269-3.284-24.918-2.727-32.487a28.039,28.039,0,0,0,4.411-2.111c1.985-1.105,3.7-2.063,9.248-2.584,1.948-.184,4.263-.274,7.069-.274,4.064,0,8.627.189,13.459.384,5.558.226,11.3.458,17.2.458a147.085,147.085,0,0,0,16.275-.795c12.732-1.416,17.975-7.627,20.128-12.591,3.758-8.653.916-20-8-31.95C774.6,378.952,773.356,376.23,763.692,355.05ZM706.719,544.233c-.058,1.969-.252,3.963-.41,5.99-.126,2.021-.379,4.063-.632,6.127-.137,1.032-.232,2.069-.4,3.116-.184,1.042-.369,2.095-.558,3.148-.326,2.137-.832,4.19-1.326,6.269-2.111,8.39-4.516,16.843-6.806,25.544-2.29,8.674-4.585,17.5-6.29,26.386a113.009,113.009,0,0,0-1.921,13.338,105.777,105.777,0,0,0,.037,13.359c.484,8.932.99,17.912.2,26.565a91.622,91.622,0,0,1-1.869,12.648c-.41,2.084-.974,4.016-1.474,5.974-.563,1.942-1.121,3.869-1.669,5.764-2.242,7.532-4.426,14.606-6.106,21.212a128.439,128.439,0,0,0-3.427,18.238,72.64,72.64,0,0,0-.079,14.3c.2,1.974.406,3.742.716,5.253a35.377,35.377,0,0,0,.784,3.858c.521,2.074.8,3.179.8,3.179l-.974-3.132a35.523,35.523,0,0,1-1-3.816c-.168-.763-.4-1.574-.542-2.458l-.432-2.811a73.518,73.518,0,0,1-.516-14.47,111.8,111.8,0,0,1,2.832-18.575c1.526-6.716,3.542-13.875,5.59-21.439q.742-2.827,1.5-5.727c.453-1.958.979-3.958,1.305-5.932a104.332,104.332,0,0,0,1.653-12.3c.7-8.432.137-17.175-.426-26.17a107.857,107.857,0,0,1-.142-13.764A115.672,115.672,0,0,1,687,620.176c1.8-9.043,4.19-17.886,6.558-26.565s4.863-17.212,7-25.407c.511-2.079,1.032-4.143,1.358-6.164.384-2.026.758-4.032,1.026-6.063.3-2.016.6-4.016.774-6.006.205-1.99.447-3.948.552-5.9a216.871,216.871,0,0,0,.569-21.991c-.174-6.822-.474-13.08-.979-18.607-.458-5.532-1.095-10.332-1.716-14.27-.647-3.932-1.258-7.011-1.753-9.09l-.811-3.179.99,3.132c.595,2.058,1.426,5.1,2.221,9.022s1.627,8.716,2.316,14.254c.748,5.527,1.316,11.806,1.627,18.675A220.128,220.128,0,0,1,706.719,544.233Zm-85.559,229.15c.526-1.253,1.179-2.553,1.611-3.779l.71-1.858.363-.931.347-1.063.706-2.158.352-1.079.227-.837c.374-1.311.689-2.642.958-3.984,2.321-10.743,1.163-22.36-1.726-34.35-1.448-6-3.221-12.117-5.032-18.386q-1.358-4.745-2.721-9.5l-1.295-5.09-1.032-5.179a120.256,120.256,0,0,1-1.674-20.875c.074-6.864.669-13.549,1.016-19.76.079-1.526.158-3.137.174-4.511.005-.732.053-1.347.037-2.163l-.042-2.4-.111-2.026c-.026-.721-.121-1.463-.179-2.19-.116-1.458-.337-2.948-.511-4.416-.863-5.922-2.053-11.9-3.363-17.8-2.674-11.806-5.585-23.344-8.159-34.334-.631-2.69-1.311-5.579-1.842-8.348s-.984-5.522-1.347-8.217c-.742-5.39-1.279-10.585-1.574-15.58a246.461,246.461,0,0,1-.242-27.2,183.078,183.078,0,0,1,2.021-20.828,94.24,94.24,0,0,1,2.916-13.138c.448-1.484.858-2.606,1.158-3.342l.442-1.121s-.374,1.616-.769,4.648a116.555,116.555,0,0,0-.816,13.2c-.095,5.7.179,12.611.716,20.5.574,7.89,1.6,16.764,3.116,26.323.789,4.774,1.674,9.722,2.826,14.759.563,2.527,1.211,5.058,1.884,7.616.69,2.563,1.463,5.037,2.322,7.78,3.321,10.748,6.937,22.054,10.216,34.092,1.647,6.021,3.195,12.254,4.348,18.812.258,1.658.552,3.306.748,5.011.1.853.232,1.69.3,2.563l.231,2.748.121,2.4c.042.784.037,1.769.053,2.648.016,1.837-.042,3.443-.089,5.143-.247,6.674-.668,12.964-.616,19.154a105.14,105.14,0,0,0,1.569,18.207l.921,4.458,1.105,4.432q1.3,4.7,2.611,9.374c1.784,6.285,3.59,12.669,5,19.254a111.714,111.714,0,0,1,2.737,20.249,75.034,75.034,0,0,1-2.063,20.459c-.416,1.653-.884,3.279-1.421,4.874l-.2.6-.094.3-.163.442-.405,1.063-.805,2.121-.411,1.063-.505,1.158-1.005,2.289c-.652,1.563-1.405,2.89-2.095,4.327a155.954,155.954,0,0,1-9.4,15.359c-6.458,9.348-12.059,17.633-15.1,26.323-.421,1.069-.7,2.169-1.063,3.237l-.258.8-.132.4c.011-.063-.063.279.011-.116l-.011.053s-.005-.037-.016.021a7.124,7.124,0,0,0-.121,1.121,11.875,11.875,0,0,0,.99,5.016,18.792,18.792,0,0,0,6.985,8,40.48,40.48,0,0,0,9.39,4.648,75.358,75.358,0,0,0,8.89,2.59c5.516,1.237,10,1.821,13.038,2.237l4.695.532-4.721.39a105.052,105.052,0,0,1-13.475,0c-5.8-.495-13.08-1.169-20.923-5.132a25.291,25.291,0,0,1-10.748-9.759,19.97,19.97,0,0,1-2.563-8.18,15.379,15.379,0,0,1-.026-2.426l.048-.421.021-.168.063-.332.095-.463.2-.942c.274-1.247.5-2.537.858-3.8a78.785,78.785,0,0,1,5.764-15.233c2.469-4.99,5.327-9.853,8.148-14.669A150.219,150.219,0,0,0,621.159,773.383ZM536.452,431.435l-2.174-.095c-.9-.084-1.653-.111-2.511-.242a27.5,27.5,0,0,1-5.237-1.179,17.222,17.222,0,0,1-5.558-3.006,13.242,13.242,0,0,1-4.153-6.137,16.529,16.529,0,0,1-.59-6.958A33.251,33.251,0,0,1,520,402.732c.858-1.632,1.768-3.216,2.753-4.732q.726-1.129,1.526-2.284l1.511-2.132c1.969-2.721,3.9-5.448,5.737-8.153a95.83,95.83,0,0,0,5.027-8.311c3.116-5.716,5.927-11.985,8.859-18.059.726-1.532,1.416-3.021,2.284-4.679l1.258-2.395,1.4-2.316a63.386,63.386,0,0,1,6.269-8.6,62.467,62.467,0,0,1,23.634-16.775c1.353-.568,2.711-1.042,4.032-1.521,1.342-.447,2.711-.884,3.927-1.211a109.256,109.256,0,0,0,13.053-4.411c3.827-1.563,7.159-3.037,9.864-4.342,5.443-2.627,8.553-4.132,8.553-4.132L617.8,310.3c-1.253,1.026-3.063,2.6-5.5,4.416s-5.4,4.053-9.043,6.311a91.731,91.731,0,0,1-12.78,6.711,73.941,73.941,0,0,0-13.638,7.922,59.676,59.676,0,0,0-12.122,12,65.261,65.261,0,0,0-4.832,7.569l-1.079,2.016-.968,2.1c-.653,1.337-1.337,2.927-2.016,4.469-2.732,6.216-5.516,12.527-8.916,18.928A99.548,99.548,0,0,1,541.2,392c-2.016,2.953-4.122,5.732-6.2,8.438l-1.479,1.958c-.447.605-.889,1.226-1.331,1.874-.869,1.274-1.711,2.537-2.453,3.806A24.688,24.688,0,0,0,526.7,415.3a6.556,6.556,0,0,0-.069,2.537,3.071,3.071,0,0,0,.889,1.642c1.021,1.137,3.358,2.126,5.806,2.663.59.147,1.3.258,1.843.379.721.116,1.437.232,2.142.342,1.442.242,2.763.411,4.1.605,2.689.374,5.327.705,7.858.968,5.069.569,9.769.995,13.954,1.405s7.853.842,10.869,1.263c3.016.379,5.369.863,6.969,1.168l2.437.548-2.485.153c-1.621.1-3.984.305-6.984.558-6,.537-14.543,1.563-25.023,1.947-2.621.074-5.353.121-8.211.084C539.368,431.53,537.863,431.509,536.452,431.435Zm84.491-181.751a39.056,39.056,0,0,1,.49-5.485,30.268,30.268,0,0,1,1.369-5.527,27.454,27.454,0,0,1,2.484-5.369,25.243,25.243,0,0,1,3.742-4.785,25.618,25.618,0,0,1,10.269-6.243,31.123,31.123,0,0,1,5.711-1.247q1.445-.166,2.895-.19c.49-.011.974-.005,1.474.01.473.016.853.032,1.442.084.4-.005.716.005,1.095.021.505.021,1,.058,1.495.105.99.095,1.958.237,2.921.411a30.9,30.9,0,0,1,5.664,1.584,26.4,26.4,0,0,1,5.279,2.695,21.834,21.834,0,0,1,2.39,1.784,23.3,23.3,0,0,1,2.142,2.058,21.985,21.985,0,0,1,1.848,2.295,25.375,25.375,0,0,1,1.51,2.49,27.317,27.317,0,0,1,1.169,2.611,22.749,22.749,0,0,1,.81,2.69,18.574,18.574,0,0,1,.5,2.711c.148.9.163,1.811.226,2.7a28.964,28.964,0,0,1-.316,5.306l-.773-2.511c-.316-.816-.563-1.611-.874-2.395-.331-.779-.616-1.569-1.011-2.3-.358-.747-.742-1.469-1.158-2.169-.379-.71-.874-1.347-1.295-2.005a22.721,22.721,0,0,0-1.479-1.811,18.574,18.574,0,0,0-1.6-1.616c-.574-.49-1.148-.958-1.753-1.384a16.079,16.079,0,0,0-1.868-1.169,20.732,20.732,0,0,0-1.969-.968,24.978,24.978,0,0,0-4.185-1.332,30.058,30.058,0,0,0-4.4-.616c-.737-.047-1.479-.074-2.211-.058-.363.005-.726.021-1.079.047-.316.016-.768.047-.9.074l-.795-.005-.81.037c-.321.016-.658.042-.99.079a19.94,19.94,0,0,0-2.011.3,21.707,21.707,0,0,0-3.869,1.053,20.131,20.131,0,0,0-3.464,1.69,17.971,17.971,0,0,0-2.926,2.321,15.1,15.1,0,0,0-2.369,2.927,18.71,18.71,0,0,0-1.816,3.49,29.548,29.548,0,0,0-1.284,3.963,43.54,43.54,0,0,0-.8,4.29l-.558,4.827-.495,4.779c-.153,1.595-.321,3.206-.416,4.8-.153,1.6-.216,3.179-.284,4.769s-.063,3.158-.016,4.732c.031,1.574.195,3.137.379,4.737l.695,4.9a41.315,41.315,0,0,1,.405,5.037c-.721-1.526-1.432-3.011-2.19-4.484-.726-1.479-1.527-2.953-2.211-4.527a43.948,43.948,0,0,1-2.937-9.948,89.345,89.345,0,0,1-1.121-10.159c-.089-1.684-.126-3.4-.179-5.079C620.923,253.021,620.917,251.494,620.943,249.683Zm61.968,59.726c.895.447,2.232,1.063,3.937,1.832,3.411,1.548,8.406,3.469,14.406,5.737,3.011,1.095,6.279,2.279,9.732,3.537s7.122,2.342,10.97,3.827a67.794,67.794,0,0,1,11.359,5.564,61.6,61.6,0,0,1,10.375,8.027,63.2,63.2,0,0,1,8.332,10.122,61.852,61.852,0,0,1,3.3,5.564c.932,1.895,1.8,3.653,2.637,5.585,3.243,7.353,6.148,14.259,8.969,19.975a124.631,124.631,0,0,0,7.764,13.359l3.227,4.937-.99-1.184c-.642-.774-1.605-1.895-2.769-3.374a104.821,104.821,0,0,1-8.927-12.827c-1.627-2.806-3.263-5.906-4.9-9.216s-3.358-6.806-5.064-10.443c-.805-1.732-1.795-3.616-2.737-5.406-1.021-1.716-2.021-3.463-3.206-5.158a59.628,59.628,0,0,0-7.979-9.517,65.226,65.226,0,0,0-20.5-13.259c-3.616-1.484-7.343-2.806-10.754-4.227-3.427-1.379-6.632-2.774-9.574-4.1-5.89-2.626-10.664-5.121-13.959-6.937-1.658-.9-2.895-1.716-3.742-2.258-.826-.579-1.263-.89-1.263-.89Zm33,105.835c.911-.153,2.016-.342,3.279-.558,1.258-.232,2.658-.537,4.158-.874A45.343,45.343,0,0,0,728,412.407a18.63,18.63,0,0,0,2.284-1.042l1.074-.632c.416-.263.832-.526,1.253-.795,1.69-1.032,3.39-2.095,5.043-3.195a27.176,27.176,0,0,0,4.416-3.563,5.864,5.864,0,0,0,1.2-1.747,1.293,1.293,0,0,0-.005-1.084c-.374-.89-1.9-1.974-3.563-3-1.532-.974-3.211-1.906-4.763-2.806-1.574-.884-3.1-1.737-4.459-2.632a28.816,28.816,0,0,1-3.621-2.637,15.98,15.98,0,0,1-2.442-2.495,10.1,10.1,0,0,1-1.2-1.879l-.331-.7.579.516a14.157,14.157,0,0,0,1.679,1.29,24.451,24.451,0,0,0,2.826,1.568c1.137.526,2.432,1.074,3.885,1.632,1.474.558,3.068,1.163,4.758,1.805a51.523,51.523,0,0,1,5.416,2.358c.495.253.947.505,1.369.747a16.388,16.388,0,0,1,1.469.916,9.241,9.241,0,0,1,2.816,3.085,6.208,6.208,0,0,1,.316,5,10.042,10.042,0,0,1-2.242,3.505,26.96,26.96,0,0,1-5.443,4.237c-1.843,1.153-3.706,2.116-5.459,3.032l-1.305.668-1.495.679a22.587,22.587,0,0,1-2.958.868,27.394,27.394,0,0,1-5.353.663,40.21,40.21,0,0,1-7.832-.484,25.808,25.808,0,0,1-2.9-.59Zm-8.058-4.237s.337-6.106,3.6-9.843,6.359-14.364,6.359-14.364c3.206,4.874,11.975,9.011,17.612,12.922s-4.837,6.164-10.553,9.459S707.851,411.007,707.851,411.007Zm-115.32-14.5a23.81,23.81,0,0,1-1.094-2.474,26.7,26.7,0,0,1-1.247-4.521,24.273,24.273,0,0,1-.358-3.332,12.173,12.173,0,0,1,.016-1.3s.342.342.868.963,1.237,1.505,2.037,2.574,1.658,2.326,2.553,3.642c.895,1.3,1.821,2.7,2.727,3.811.358.453.568.716.842,1.1.279.426.605.937.848,1.4a15.436,15.436,0,0,1,1.058,2.669,16.724,16.724,0,0,1,.642,4.842,15.224,15.224,0,0,1-.437,3.4,7.39,7.39,0,0,1-.405,1.263s-.263-.426-.642-1.142c-.395-.711-.911-1.716-1.5-2.879s-1.226-2.479-1.932-3.785c-.347-.658-.726-1.295-1.105-1.921l-.542-.811c-.253-.316-.568-.758-.742-1A16.054,16.054,0,0,1,592.531,396.511Zm.858,14.5s-11.3,1.463-17.017-1.827-16.191-5.548-10.553-9.459,14.412-8.048,17.612-12.922c0,0,3.095,10.632,6.358,14.364S593.389,411.007,593.389,411.007ZM545.064,858.653c.137-.532.247-.784.374-1.19.247-.732.49-1.463.731-2.184,1.927-5.758,3.664-11.048,5.3-15.707,1.616-4.664,3.027-8.732,4.184-12.085s2.106-5.969,2.753-7.759.989-2.737.989-2.737l-.695,2.826c-.447,1.848-1.1,4.558-2.006,7.985l-3.206,12.38c-1.211,4.79-2.695,10.153-4.279,16.017l-.6,2.221c-.089.342-.237.821-.274,1.058a3.023,3.023,0,0,0-.078.779,3.349,3.349,0,0,0,1.41,2.684,3.113,3.113,0,0,0,.679.358,3.8,3.8,0,0,0,.642.168l.537.026h.116l.158-.005.311-.005,1.263-.021,5.148-.095c6.958-.089,14.3-.19,21.886-.29s15.433-.168,23.4-.179,16.064-.037,24.16-.052c8.1.026,16.191.052,24.165.084,7.969.079,15.812.158,23.4.232,7.59.058,14.928.237,21.886.347,6.953.153,13.533.295,19.607.432,12.143.295,22.265.721,29.35.937,3.543.105,6.322.268,8.222.342l2.911.137s-1.016.042-2.911.131c-1.9.074-4.679.242-8.222.342-7.085.216-17.207.642-29.35.937-6.074.137-12.654.279-19.607.437-6.958.105-14.3.289-21.886.342-7.59.074-15.433.153-23.4.231-7.974.032-16.07.058-24.165.084-8.1-.016-16.191-.037-24.16-.053s-15.812-.084-23.4-.179-14.928-.2-21.886-.289l-5.148-.095-1.263-.021-.742-.016-.637-.053a6.645,6.645,0,0,1-1.753-.468,7.018,7.018,0,0,1-1.458-.842,6.849,6.849,0,0,1-2.7-5.648A6.31,6.31,0,0,1,545.064,858.653Zm78.274,71.779h.237l2.742-12.859h6.869l2.579,12.859H636l1.168-8.943h-1.548v-3.916H643.9v3.916h-.953l-3.079,14.643h-8.322l-2.174-9.827h-.237l-2.289,9.827h-8.322l-3.316-14.643h-.953v-3.916h9.469v3.916H622.17Zm28.692-.1h-3.221l-.379,1.89h1.426v3.911H641.7v-3.911h.953l4.032-14.648h8.68l4.032,14.648h.952v3.911H651v-3.911h1.432Zm-36.824,1.89h.953v3.911h-9.348v-3.911h1.432l-.406-1.89h-3.221l-.379,1.89h1.432v3.911H597.51v-3.911h.952l4.032-14.648h8.68Zm12.711,27.492c19.233-.326,41.677-.595,65.726-.774l18.307-.126q4.642-.031,9.337-.068,2.345,0,4.7-.011l2.363-.005a6.755,6.755,0,0,0,1.758-.2,6.4,6.4,0,0,0,4.658-4.6,6.026,6.026,0,0,0,.153-.742c.042-.179.053-.874.063-.984l-.005-2.39-.01-4.785q-.024-9.585-.042-19.212.024-9.625.047-19.212l.011-4.785.005-2.39a6.808,6.808,0,0,0-.216-1.732,6.41,6.41,0,0,0-4.658-4.6,18.748,18.748,0,0,0-4.127-.21q-2.353,0-4.7-.011-4.7-.04-9.337-.069l-18.307-.126c-12.027-.116-23.649-.232-34.666-.337-11.022-.158-21.444-.3-31.06-.437-19.238-.284-35.271-.737-46.493-.953-11.222-.311-17.633-.49-17.633-.49l17.633-.489c11.222-.216,27.255-.669,46.493-.953,9.617-.137,20.039-.284,31.06-.437,11.017-.105,22.639-.221,34.666-.337l18.307-.126q4.642-.039,9.337-.068l4.7-.016,2.363-.005.416.005.295.016.611.032a11,11,0,0,1,1.6.279,11.292,11.292,0,0,1,8.248,8.08,11.851,11.851,0,0,1,.395,2.984l.005,2.39.01,4.785q.016,9.577.042,19.212-.024,9.617-.042,19.212l-.01,4.785-.005,2.39c-.031.679-.016.784-.084,1.4a10.968,10.968,0,0,1-.306,1.59,11.317,11.317,0,0,1-8.253,8.08,11.946,11.946,0,0,1-2.921.331l-2.363-.005q-2.353-.008-4.7-.01-4.7-.04-9.337-.068l-18.307-.126c-24.049-.179-46.493-.447-65.726-.774-19.238-.284-35.271-.742-46.493-.958l-17.633-.495s6.411-.173,17.633-.489C592.646,960.456,608.68,960,627.918,959.714Zm33.676-38.224v-3.916h11.185a11.016,11.016,0,0,1,2.637.289,5.174,5.174,0,0,1,1.99.916,4.145,4.145,0,0,1,1.253,1.658,6.341,6.341,0,0,1,.437,2.506,5.746,5.746,0,0,1-.626,2.742,3.522,3.522,0,0,1-1.853,1.648l.026.237a2.507,2.507,0,0,1,2.289,2.816v1.837h1.121v3.911h-7.559v-5.606a3.512,3.512,0,0,0-.158-1.158,1.282,1.282,0,0,0-.5-.668,2.311,2.311,0,0,0-.874-.311,8.5,8.5,0,0,0-1.263-.084v3.916h1.574v3.911h-9.68v-3.911h1.432V921.49Zm19.939,0v-3.916h9.921a12.111,12.111,0,0,1,3.422.468,6.723,6.723,0,0,1,2.753,1.563,7.4,7.4,0,0,1,1.837,2.874,14.7,14.7,0,0,1,0,8.764,7.473,7.473,0,0,1-1.837,2.864,6.713,6.713,0,0,1-2.753,1.558,12.109,12.109,0,0,1-3.422.469h-9.921v-3.911h1.432V921.49Z" transform="translate(0 0)" fill="#1850aa"/>
  </g>
</svg>
