<svg xmlns="http://www.w3.org/2000/svg" width="25.23" height="21.025" viewBox="0 0 25.23 21.025">
  <path id="Icon_material-perm-media" data-name="Icon material-perm-media" d="M2.1,7.2H0v5.256H.011L0,21.922a2.109,2.109,0,0,0,2.1,2.1H21.025v-2.1H2.1ZM23.127,5.1h-8.41L12.615,3H6.307A2.1,2.1,0,0,0,4.215,5.1L4.2,17.717a2.109,2.109,0,0,0,2.1,2.1h16.82a2.109,2.109,0,0,0,2.1-2.1V7.2A2.109,2.109,0,0,0,23.127,5.1ZM7.359,16.666l4.731-6.307L15.769,15.1,18.4,11.935l3.679,4.731Z" transform="translate(0 -3)" fill="#21558E"/>
</svg>
