<svg id="Group_3543" data-name="Group 3543" xmlns="http://www.w3.org/2000/svg" width="24" height="24" viewBox="0 0 24 24">
  <path id="Path_2683" data-name="Path 2683" d="M0,0H24V24H0Z" fill="none"/>
  <line id="Line_360" data-name="Line 360" y2="2" transform="translate(15 5)" fill="none" stroke="#2c3e50" stroke-linecap="round" stroke-linejoin="round" stroke-width="1.5"/>
  <line id="Line_361" data-name="Line 361" y2="2" transform="translate(15 11)" fill="none" stroke="#2c3e50" stroke-linecap="round" stroke-linejoin="round" stroke-width="1.5"/>
  <line id="Line_362" data-name="Line 362" y2="2" transform="translate(15 17)" fill="none" stroke="#2c3e50" stroke-linecap="round" stroke-linejoin="round" stroke-width="1.5"/>
  <path id="Path_2684" data-name="Path 2684" d="M5,5H19a2,2,0,0,1,2,2v3a2,2,0,0,0,0,4v3a2,2,0,0,1-2,2H5a2,2,0,0,1-2-2V14a2,2,0,0,0,0-4V7A2,2,0,0,1,5,5" transform="translate(0 -1)" fill="none" stroke="#2c3e50" stroke-linecap="round" stroke-linejoin="round" stroke-width="1.5"/>
</svg>
