<svg xmlns="http://www.w3.org/2000/svg" xmlns:xlink="http://www.w3.org/1999/xlink" width="2717.362" height="4058.952" viewBox="0 0 2717.362 4058.952">
  <defs>
    <linearGradient id="linear-gradient" x1="3.941" y1="-3.67" x2="4.893" y2="-3.67" gradientUnits="objectBoundingBox">
      <stop offset="0" stop-color="#444"/>
      <stop offset="0.105" stop-color="#7b7b7c"/>
      <stop offset="0.228" stop-color="#b6b6b8"/>
      <stop offset="0.318" stop-color="#dbdbdd"/>
      <stop offset="0.366" stop-color="#e9e9ec"/>
      <stop offset="0.608" stop-color="#e9e9ec"/>
      <stop offset="1" stop-color="#444"/>
    </linearGradient>
    <linearGradient id="linear-gradient-2" x1="6.75" y1="-5.04" x2="6.859" y2="-5.04" gradientUnits="objectBoundingBox">
      <stop offset="0"/>
      <stop offset="0.232" stop-color="#1f1f21"/>
      <stop offset="0.366" stop-color="#2d2d30"/>
      <stop offset="0.608" stop-color="#2d2d30"/>
      <stop offset="1"/>
    </linearGradient>
    <linearGradient id="linear-gradient-3" x1="-0.918" y1="0.711" x2="2.126" y2="0.109" gradientUnits="objectBoundingBox">
      <stop offset="0" stop-color="#606060"/>
      <stop offset="0.092" stop-color="#8d8d8e"/>
      <stop offset="0.22" stop-color="#c9c9ca"/>
      <stop offset="0.315" stop-color="#ededef"/>
      <stop offset="0.366" stop-color="#fcfcfe"/>
      <stop offset="0.608" stop-color="#fcfcfe"/>
      <stop offset="1" stop-color="#606060"/>
    </linearGradient>
    <linearGradient id="linear-gradient-4" x1="0.018" y1="0.492" x2="1.374" y2="0.492" xlink:href="#linear-gradient"/>
    <linearGradient id="linear-gradient-5" x1="-1.017" y1="-3.657" x2="9.295" y2="-3.501" xlink:href="#linear-gradient-2"/>
    <linearGradient id="linear-gradient-6" x1="-0.797" y1="-1.13" x2="7.186" y2="-1.049" xlink:href="#linear-gradient-2"/>
    <linearGradient id="linear-gradient-7" x1="-0.889" y1="-0.229" x2="5.726" y2="-0.157" xlink:href="#linear-gradient-2"/>
    <linearGradient id="linear-gradient-8" x1="-1.346" y1="0.444" x2="5.495" y2="0.53" xlink:href="#linear-gradient-2"/>
    <linearGradient id="linear-gradient-9" x1="-1.818" y1="1.147" x2="5.278" y2="1.244" xlink:href="#linear-gradient-2"/>
    <linearGradient id="linear-gradient-10" x1="-2.381" y1="1.915" x2="5.196" y2="2.028" xlink:href="#linear-gradient-2"/>
    <linearGradient id="linear-gradient-11" x1="-3.052" y1="2.693" x2="5.249" y2="2.816" xlink:href="#linear-gradient-2"/>
    <linearGradient id="linear-gradient-12" x1="-3.685" y1="3.52" x2="5.256" y2="3.652" xlink:href="#linear-gradient-2"/>
    <linearGradient id="linear-gradient-13" x1="-3.861" y1="3.676" x2="4.725" y2="3.784" xlink:href="#linear-gradient-2"/>
    <linearGradient id="linear-gradient-14" x1="-5.315" y1="7.275" x2="5.48" y2="7.465" xlink:href="#linear-gradient-2"/>
  </defs>
  <g id="Group_246" data-name="Group 246" transform="translate(495.244 433.173)" opacity="0.09" style="mix-blend-mode: normal;isolation: isolate">
    <g id="Group_241" data-name="Group 241" transform="translate(-451.759 3190.448)" style="mix-blend-mode: normal;isolation: isolate">
      <path id="Path_242" data-name="Path 242" d="M198.88,498.482-489.21,69.639A67.813,67.813,0,0,0-473.031,77a88.585,88.585,0,0,0,18.694,3.69,127.09,127.09,0,0,0,21.1.036,178.614,178.614,0,0,0,23.422-3.459L251.381,487.535a146.685,146.685,0,0,1-16.417,8.6,75.232,75.232,0,0,1-14.255,4.742,38.455,38.455,0,0,1-12.078.836,22.694,22.694,0,0,1-9.751-3.236" transform="translate(489.21 -69.639)" fill="#858585"/>
    </g>
    <g id="Group_242" data-name="Group 242" transform="translate(-451.745 3190.47)">
      <path id="Path_243" data-name="Path 243" d="M158.6,472.822c3.733,2.306,7.524,4.519,11.048,7.171a.09.09,0,0,0-.094.007c-.2-.108-.4-.209-.62-.31s-.4-.2-.605-.324-.4-.223-.6-.339a5.513,5.513,0,0,1-.606-.346c-18.233-11.365-42.563-26.521-60.789-37.9.216.123.432.23.634.368a2.122,2.122,0,0,0,.649.36c.2.122.432.238.648.36a3.145,3.145,0,0,0,.663.324c4.915,2.609,9.585,5.643,14.291,8.6L158.6,472.822M178.9,482.3c-2.45-.706-9.282-4.756-14.579-8.057l-35.162-21.923c-9.261-5.8-10.219-6.926-10.551-7.387a.935.935,0,0,0,.166-.108c.692.05,1.362.115,2.061.151.706.014,1.405.058,2.133.043s1.448-.043,2.19-.108a17.132,17.132,0,0,0,2.235-.158c3.286.461,11.423,5.319,14.766,7.38l34.83,21.671c9.124,5.708,10.046,7.358,10.342,7.877a2.878,2.878,0,0,0-.209.252c-.714.072-1.441.2-2.148.231-.714.094-1.391.108-2.083.144a14.778,14.778,0,0,1-2.025.051c-.67-.022-1.319-.022-1.967-.058m20.669-3.546c-2.962.108-9.779-3.668-14.961-6.875l-34.643-21.512c-9.023-5.708-9.628-7.437-9.852-8.093.08-.1.18-.2.288-.324.879-.281,1.737-.526,2.652-.872.894-.31,1.809-.649,2.71-.987s1.824-.67,2.746-1.045,1.9-.785,2.817-1.153c3.7-.519,11.819,4.158,15.163,6.147l34.224,21.3c7.034,4.447,10.709,7.985,9.355,9.044-.923.432-1.809.829-2.7,1.211-.893.418-1.787.8-2.659,1.16s-1.751.706-2.609,1.074c-.85.31-1.715.649-2.537.93m-610.7-361.006c3.1,1.939,6.226,3.877,9.217,5.982l-.079.065a10.305,10.305,0,0,0-1.009-.519c-.31-.18-.634-.353-.944-.54-.331-.173-.62-.389-.951-.584a6.708,6.708,0,0,1-.937-.577c-16.957-10.565-39.572-24.633-56.543-35.176.331.18.655.368,1,.562.31.216.634.4.965.591s.663.368.995.577c.331.18.684.36,1.038.519,4.857,2.746,9.614,5.672,14.349,8.619l32.9,20.482m23.241,11.451c-3.092-1.117-9.686-5.037-14.644-8.136l-32.747-20.345c-7.74-4.908-8.5-5.823-8.951-6.277a3.758,3.758,0,0,0,.411-.086c.965.274,1.96.519,2.947.75,1.016.195,2.011.454,3.027.649,1.024.216,2.068.375,3.106.548s2.112.3,3.156.447c2.378.44,8.237,3.373,14.9,7.5l32.416,20.172c7.632,4.807,8.439,6.169,8.734,6.717a2.436,2.436,0,0,0-.454.231c-1.031-.123-2.054-.267-3.077-.418-1-.144-2-.3-3-.476-.98-.187-1.981-.36-2.947-.6-.966-.187-1.939-.411-2.875-.67m29.375,2.465c-2.407-.094-8.2-2.775-15.12-7.048L-405.9,104.587c-7.567-4.778-8.071-6.183-8.31-6.861a1.394,1.394,0,0,1,.591-.36c1.167-.029,2.371-.094,3.6-.195,1.174-.058,2.414-.187,3.639-.288s2.465-.238,3.719-.389,2.493-.288,3.769-.468c2.695-.122,8.706,2.4,15.329,6.407l31.919,19.826c7.531,4.785,7.971,6.515,8.158,7.257a1.39,1.39,0,0,1-.67.526c-1.232.2-2.45.367-3.69.577-1.211.173-2.414.281-3.611.454-1.2.115-2.385.231-3.546.317-1.2.144-2.364.223-3.51.274M251.368,487.516,141.711,419.492a145.934,145.934,0,0,1-17.628,7.718,82.766,82.766,0,0,1-15.422,3.906,44.537,44.537,0,0,1-13.232.065A28.851,28.851,0,0,1,84.583,427.2q57.153,35.641,114.284,71.267a22.693,22.693,0,0,0,9.751,3.236,38.455,38.455,0,0,0,12.078-.836,75.225,75.225,0,0,0,14.255-4.742,146.7,146.7,0,0,0,16.417-8.6M-304.485,142.653-409.812,77.274a178.877,178.877,0,0,1-23.407,3.452,128.814,128.814,0,0,1-21.109-.022,94.321,94.321,0,0,1-18.716-3.654,70.911,70.911,0,0,1-16.165-7.409q54.7,34.084,109.427,68.226a62.661,62.661,0,0,0,15.2,6.745,82.01,82.01,0,0,0,17.7,2.969,115.547,115.547,0,0,0,20.078-.713,169.583,169.583,0,0,0,22.32-4.216" transform="translate(489.208 -69.642)" fill="url(#linear-gradient)"/>
      <path id="Path_244" data-name="Path 244" d="M47.468,360.733a145.924,145.924,0,0,1-17.628,7.718,82.772,82.772,0,0,1-15.422,3.906,44.541,44.541,0,0,1-13.232.065A28.856,28.856,0,0,1-9.66,368.437Q-241.882,223.809-474.024,79.109a62.661,62.661,0,0,0,15.2,6.745,82.012,82.012,0,0,0,17.7,2.969,115.552,115.552,0,0,0,20.078-.713,169.573,169.573,0,0,0,22.319-4.216l446.2,276.839" transform="translate(583.451 -10.883)" opacity="0.8" fill="url(#linear-gradient-2)"/>
    </g>
    <g id="Group_243" data-name="Group 243" transform="translate(218.448 -225.591)">
      <path id="Path_245" data-name="Path 245" d="M1399.659,53.625q-9.881,19.956-20.179,40.516-10.367,20.636-21.152,41.871-10.832,21.328-22.11,43.233-11.34,21.988-23.155,44.609-56.8,108.858-117.217,217.513-61.52,110.652-127.753,222.824Q1000.184,779.1,926.042,897.61,849.528,1019.828,764.7,1148.238c-45.979,69.581-93.94,144.1-143.27,222.608-50.656,80.629-102.609,165.228-155.139,252.689-53.827,89.644-108.065,181.94-161.841,275.534-54.908,95.568-109.11,192.1-161.632,287.973q-29.209,53.358-57.409,105.751-28.3,52.634-55.419,104.123Q2.725,2448.577-23.183,2498.8q-26.009,50.4-50.555,99.107-45.705,90.653-85.875,174.46-40.246,83.94-74.251,159.635-33.954,75.552-61.185,141.749-27.058,65.823-46.931,121.231-28.387,79.065-40.927,133.36c-8.266,35.688-11.343,63.044-9.4,82.193,1.917,18.774,8.648,29.569,20.064,32.575,11.142,2.875,26.687-1.715,46.418-13.549-20.6,13.332-36.841,19.1-48.5,17.022-11.956-2.119-19.091-12.4-21.209-30.974-2.148-18.917.836-46.31,9.116-82.178q12.572-54.613,41.252-134.578,19.923-55.607,47.225-122.032,27.328-66.471,61.575-142.664,34.16-76.038,74.726-160.652,40.332-84.167,86.387-175.476,24.68-48.991,50.793-99.575,26.041-50.429,53.373-102.307,27.23-51.607,55.643-104.454,28.28-52.623,57.618-106.141c52.681-96.152,107.027-192.931,162.093-288.73,53.906-93.817,108.259-186.3,162.216-276.118,52.66-87.619,104.728-172.4,155.5-253.164,49.409-78.618,97.478-153.229,143.536-222.882q84.967-128.51,161.257-250.412,74.2-118.521,141.943-233.159,66.276-112.176,127.652-222.558,60.417-108.642,117.181-217.376,11.794-22.6,23.076-44.494,11.264-21.88,22.06-43.111,10.767-21.2,21.072-41.748,10.345-20.572,20.15-40.423,38.754-78.243,70.806-146.591c21.368-45.4,40.639-87.475,57.884-125.88,17.2-38.39,32.38-73.177,45.51-103.82,13.167-30.722,24.286-57.38,33.353-79.461-9,22.377-20.1,49.308-33.252,80.261-13.124,30.859-28.315,65.8-45.547,104.375-17.238,38.505-36.574,80.758-57.992,126.312Q1438.453-24.939,1399.659,53.625Z" transform="translate(396.212 404.369)" fill="url(#linear-gradient-3)"/>
    </g>
    <g id="Group_245" data-name="Group 245" transform="translate(-495.244 -433.173)">
      <path id="Path_246" data-name="Path 246" d="M196.448,3599.062c-.511-.078-1.009-.158-11.336-6.551l-35.688-22.276c-4.67-2.882-12.705-8.007-14.211-9.333-.483-.5-.959-1.008-1.413-1.535-.447-.555-.893-1.1-1.312-1.7a13.4,13.4,0,0,1-1.232-1.788c-.389-.67-.792-1.311-1.153-1.989.5-.187,1.405-.519,11.639,5.772l36.048,22.478c8.461,5.3,13.08,8.936,13.923,10.176.346.663.7,1.283,1.067,1.91.367.584.756,1.175,1.124,1.766.411.533.814,1.081,1.239,1.585a13.6,13.6,0,0,0,1.3,1.485m-8.922-19.241a3.068,3.068,0,0,1-.151.418c-.742.043-2.508.216-12.179-5.708l-36.221-22.593c-7.747-4.893-12.842-8.907-13.6-10.817-.216-.915-.411-1.888-.605-2.868s-.367-1.975-.54-2.977c-.144-1.052-.288-2.083-.425-3.15-.115-1.095-.26-2.161-.346-3.293.043-.159.137-.382.2-.548.713-.195,2.9-.814,12.467,5l36.581,22.73c7.524,4.807,12.727,9.383,13.26,11.711.079,1.1.159,2.191.267,3.222.1,1.066.194,2.125.332,3.113.129,1.016.274,1.989.447,2.933.144.988.331,1.9.512,2.825m-1.47-31.76c-1.211,2.645-7.92-.706-13.361-3.971l-36.733-22.824c-7.69-4.85-12.612-9.6-12.878-12.33.036-1.377.1-2.753.195-4.194s.173-2.868.274-4.331c.122-1.485.267-2.976.4-4.49.173-1.571.331-3.128.5-4.67.714-2.674,6.1-1.484,13.722,3.085l37.064,22.925c7.61,4.886,12.533,10.1,12.547,13.231-.209,1.572-.4,3.114-.555,4.6q-.259,2.27-.468,4.461c-.144,1.463-.281,2.912-.4,4.331-.115,1.435-.209,2.8-.3,4.18m6.263-44.537c-1.038,3.063-6.558,2.075-14.392-2.6l-37.23-22.968c-7.7-4.994-12.374-10.277-12.151-13.851.346-1.823.706-3.7,1.074-5.572s.756-3.79,1.131-5.671c.418-1.953.822-3.9,1.247-5.9.447-1.968.893-4,1.355-6.011,1.269-3.517,7.07-2.868,14.781,1.708l37.475,23.068c7.7,4.958,12.352,10.709,11.834,14.694-.483,2.033-.973,4.029-1.413,6-.454,1.946-.887,3.9-1.319,5.831-.432,1.917-.829,3.819-1.254,5.707-.4,1.888-.764,3.711-1.139,5.557m14.2-57.387c-1.593,3.934-7.524,3.5-15.48-1.139l-37.612-23.105c-7.783-5.016-12.115-10.9-11.387-15.321.627-2.285,1.261-4.569,1.917-6.911s1.333-4.692,2.054-7.12c.685-2.378,1.377-4.778,2.111-7.221.714-2.414,1.47-4.907,2.191-7.358,1.808-4.339,8.021-4.223,15.855.317L204.03,3401.4c7.755,5,12.086,11.343,11.077,16.128q-1.168,3.719-2.3,7.4c-.728,2.385-1.47,4.85-2.177,7.2-.721,2.4-1.427,4.749-2.112,7.083-.677,2.314-1.348,4.634-2,6.919m22.262-70.179c-2.133,4.785-8.446,4.894-16.532.288l-37.994-23.1c-7.683-5.023-11.848-11.6-10.58-16.77.533-1.564,1.052-3.114,1.585-4.67s1.081-3.171,1.607-4.713c.548-1.6,1.1-3.192,1.65-4.792s1.11-3.2,1.65-4.785c.389-1.067.735-2.1,1.117-3.157s.707-2.061,1.1-3.135c.368-1.074.757-2.126,1.124-3.192.375-1.045.749-2.1,1.132-3.164,2.01-4.266,8.4-4.115,16.3.4l38.188,23.09c7.812,5.037,12.079,11.321,10.839,16.063-.382,1.044-.793,2.169-1.167,3.214s-.764,2.112-1.139,3.171-.764,2.1-1.117,3.142c-.382,1.052-.771,2.125-1.117,3.135-.584,1.629-1.153,3.2-1.708,4.806-.591,1.644-1.117,3.2-1.686,4.778-.548,1.593-1.1,3.128-1.65,4.735-.526,1.564-1.067,3.106-1.6,4.663m26.283-72.2c-2.234,4.562-8.676,4.547-16.828-.05l-38.253-23.1c-7.863-5.066-11.9-11.293-10.471-16.381.98-2.6,1.982-5.253,3-7.9,1.009-2.667,2.032-5.312,3.07-8.021s2.1-5.412,3.135-8.094,2.1-5.44,3.185-8.171c2.386-4.814,9.051-5,17.036-.57l38.419,23.011c7.833,5.052,11.884,11.689,10.284,16.979-1.1,2.768-2.177,5.513-3.251,8.237-1.045,2.689-2.133,5.427-3.157,8.079-1.045,2.7-2.1,5.4-3.121,8.042s-2.054,5.311-3.049,7.935m30.8-77.357c-2.616,5.11-9.325,5.456-17.5.858l-38.52-22.96c-7.776-4.98-11.653-11.761-9.924-17.2,1.2-2.955,2.4-5.845,3.618-8.778,1.2-2.933,2.4-5.844,3.639-8.806s2.458-5.931,3.712-8.944c1.261-2.99,2.522-5.974,3.783-8.994,2.731-5.247,9.657-5.787,17.692-1.369l38.614,22.881c7.863,4.987,11.689,11.971,9.758,17.729-1.29,3.034-2.544,6.039-3.805,9.023q-1.913,4.508-3.769,8.965c-1.232,2.962-2.465,5.924-3.69,8.85-1.2,2.9-2.407,5.838-3.611,8.749m36.07-84.808c-2.89,5.477-10.046,6.169-18.146,1.7l-38.664-22.837c-7.8-4.944-11.495-11.992-9.39-17.952,1.369-3.135,2.739-6.306,4.144-9.484s2.8-6.385,4.23-9.614,2.818-6.4,4.274-9.656c1.427-3.222,2.89-6.479,4.331-9.743,3.049-5.693,10.234-6.58,18.32-2.234l38.736,22.73c7.884,5.009,11.5,12.244,9.246,18.456q-2.173,4.887-4.353,9.765c-1.463,3.272-2.89,6.5-4.31,9.715s-2.825,6.407-4.223,9.6c-1.434,3.221-2.811,6.371-4.194,9.556m41.129-91.756c-3.222,5.917-10.594,6.948-18.759,2.559l-38.794-22.629c-7.819-4.936-11.271-12.294-8.864-18.666,1.564-3.372,3.12-6.782,4.691-10.183s3.164-6.868,4.735-10.27q2.4-5.156,4.8-10.334c1.636-3.481,3.221-6.918,4.857-10.4,3.365-6.1,10.788-7.293,18.9-3.034l38.844,22.463c7.855,5.031,11.322,12.482,8.734,19.1-1.636,3.5-3.257,6.991-4.857,10.428-1.622,3.5-3.229,6.941-4.814,10.385s-3.186,6.9-4.75,10.306c-1.6,3.451-3.164,6.839-4.727,10.276m45.863-98c-3.575,6.407-10.961,7.639-19.278,3.271l-38.873-22.362c-7.79-4.929-11.106-12.446-8.374-19.191,1.73-3.618,3.452-7.207,5.2-10.832q2.594-5.4,5.246-10.882c1.744-3.625,3.5-7.257,5.261-10.925,1.78-3.646,3.553-7.322,5.34-10.983,3.7-6.5,11.293-7.941,19.415-3.74l38.909,22.175c7.87,4.929,11.105,12.626,8.252,19.588-1.787,3.711-3.582,7.386-5.354,11.091-1.773,3.668-3.532,7.329-5.29,10.947-1.758,3.7-3.5,7.308-5.246,10.948s-3.466,7.256-5.2,10.9M459.22,2848.26c-3.8,6.673-11.56,8.223-19.782,4l-38.88-22.1c-7.8-4.872-10.889-12.6-7.9-19.66,1.866-3.761,3.747-7.581,5.643-11.35s3.791-7.6,5.686-11.4c1.917-3.863,3.834-7.668,5.758-11.509,1.91-3.777,3.819-7.639,5.78-11.509,3.942-6.781,11.761-8.54,19.9-4.425l38.873,21.858c7.87,4.872,10.918,12.756,7.79,20.071-1.946,3.87-3.863,7.718-5.787,11.6-1.946,3.848-3.834,7.668-5.736,11.5q-2.864,5.784-5.693,11.48c-1.888,3.812-3.762,7.618-5.65,11.437m52.494-104.807c-3.373,5.585-10.6,6.363-18.939,2.112l-38.837-21.786c-7.812-4.72-11.264-11.574-8.756-17.476,1.607-3.12,3.2-6.27,4.8-9.361,1.607-3.135,3.229-6.306,4.836-9.434,1.636-3.149,3.229-6.27,4.872-9.456q2.433-4.723,4.894-9.477c3.373-5.52,10.788-6.414,18.889-2.292l38.844,21.512c7.877,4.756,11.3,11.725,8.742,17.743q-2.433,4.756-4.865,9.5t-4.865,9.513c-1.614,3.171-3.229,6.342-4.814,9.484-1.629,3.164-3.214,6.277-4.8,9.419m45.611-88.852c-3.423,5.571-10.918,6.53-19.1,2.415l-38.808-21.44c-7.8-4.663-11.12-11.617-8.489-17.656,1.679-3.178,3.365-6.407,5.037-9.614,1.708-3.235,3.4-6.45,5.1-9.678,1.679-3.207,3.387-6.428,5.088-9.65s3.416-6.508,5.124-9.729c3.509-5.657,11.033-6.709,19.1-2.645l38.75,21.2c7.863,4.692,11.185,11.726,8.49,17.873-1.687,3.229-3.409,6.508-5.081,9.743-1.708,3.265-3.394,6.5-5.095,9.737q-2.519,4.853-5.052,9.729-2.54,4.842-5.059,9.714m47.752-91.114c-3.567,5.766-11.178,6.883-19.329,2.818l-38.729-21.123c-7.755-4.642-10.983-11.6-8.187-17.793,1.744-3.25,3.488-6.522,5.261-9.816q2.594-4.886,5.275-9.852c1.737-3.257,3.524-6.565,5.282-9.851,1.788-3.308,3.553-6.594,5.333-9.888,3.632-5.78,11.214-6.976,19.3-2.991L617.9,2505.9c7.841,4.619,11.084,11.632,8.274,17.895-1.78,3.351-3.546,6.659-5.311,9.959-1.766,3.323-3.539,6.645-5.276,9.938-1.758,3.3-3.524,6.609-5.26,9.9-1.773,3.33-3.5,6.587-5.254,9.9m49.582-92.8c-3.683,5.866-11.322,7.077-19.48,3.077l-38.585-20.784c-7.754-4.54-10.882-11.509-7.985-17.8,1.809-3.322,3.625-6.63,5.441-9.967s3.654-6.688,5.47-10.01c1.845-3.351,3.661-6.68,5.506-10.046,1.823-3.308,3.676-6.673,5.492-9.988,3.762-5.881,11.372-7.156,19.422-3.265l38.513,20.532c7.8,4.554,10.954,11.574,8.028,17.938-1.831,3.358-3.646,6.731-5.484,10.089-1.823,3.381-3.654,6.746-5.463,10.083-1.816,3.373-3.639,6.76-5.448,10.075-1.823,3.365-3.618,6.7-5.426,10.068m51.218-94.177c-3.8,5.974-11.473,7.257-19.61,3.344l-38.44-20.424c-7.7-4.439-10.753-11.452-7.769-17.757q2.1-3.762,4.187-7.524c1.4-2.493,2.775-5.008,4.2-7.553q2.1-3.751,4.173-7.48c1.405-2.508,2.789-5,4.216-7.552.4-.72.807-1.456,1.211-2.155.4-.735.814-1.478,1.218-2.2s.8-1.442,1.218-2.169.8-1.456,1.218-2.183c3.272-4.937,10.565-5.629,18.572-1.773l38.354,20.193c7.776,4.411,11.221,10.76,8.749,16.2-.411.72-.814,1.441-1.225,2.184-.389.72-.785,1.441-1.2,2.177-.4.72-.807,1.463-1.225,2.205l-1.211,2.205c-1.384,2.508-2.789,5.059-4.166,7.56-1.4,2.537-2.774,5.052-4.158,7.567-1.4,2.537-2.775,5.066-4.165,7.56-1.4,2.551-2.782,5.066-4.151,7.574m46.642-84.384c-3.286,4.951-10.608,5.629-18.665,1.737l-38.3-20.035c-7.689-4.389-11.033-10.673-8.547-16,1.585-2.818,3.207-5.672,4.793-8.5,1.586-2.8,3.193-5.657,4.8-8.46,1.585-2.832,3.207-5.672,4.8-8.482s3.214-5.665,4.807-8.475c3.308-4.908,10.587-5.65,18.557-1.838l38.174,19.862c7.754,4.382,11.178,10.652,8.684,16.006-1.614,2.875-3.221,5.722-4.793,8.554-1.6,2.868-3.178,5.686-4.778,8.547-1.593,2.84-3.164,5.657-4.778,8.54-1.564,2.818-3.142,5.679-4.749,8.54m44.487-79.339c-3.293,4.929-10.637,5.672-18.68,1.866l-38.116-19.732c-7.646-4.324-10.954-10.543-8.446-15.833,1.643-2.875,3.25-5.665,4.857-8.468s3.236-5.636,4.843-8.446,3.222-5.6,4.829-8.4c1.643-2.847,3.243-5.65,4.872-8.446,3.315-4.9,10.608-5.629,18.536-1.91l38.008,19.5c7.7,4.31,11.069,10.536,8.54,15.891-1.585,2.811-3.207,5.686-4.814,8.49-1.614,2.839-3.207,5.65-4.807,8.5-1.607,2.818-3.229,5.672-4.814,8.482-1.607,2.861-3.193,5.679-4.807,8.5m44.847-78.877c-3.322,4.9-10.666,5.686-18.651,1.917l-37.936-19.407c-7.6-4.23-10.861-10.406-8.309-15.7,1.636-2.789,3.25-5.585,4.886-8.367,1.593-2.746,3.222-5.571,4.865-8.36,1.614-2.8,3.243-5.578,4.836-8.324,1.636-2.8,3.257-5.585,4.893-8.36,3.344-4.865,10.594-5.607,18.5-1.96l37.792,19.2c7.668,4.245,11,10.378,8.446,15.667-1.593,2.8-3.221,5.614-4.814,8.41-1.621,2.8-3.214,5.592-4.836,8.4s-3.221,5.6-4.821,8.41q-2.453,4.248-4.85,8.468m45.006-78.164c-3.322,4.857-10.609,5.621-18.572,1.953l-37.734-19.076c-7.567-4.173-10.8-10.241-8.23-15.473,1.614-2.739,3.257-5.513,4.879-8.266s3.243-5.484,4.872-8.266q2.443-4.118,4.872-8.237c1.622-2.746,3.272-5.52,4.886-8.259,3.358-4.792,10.594-5.585,18.435-1.967l37.59,18.838c7.632,4.151,10.9,10.234,8.353,15.473-1.629,2.8-3.228,5.556-4.829,8.3-1.636,2.8-3.229,5.542-4.857,8.338-1.6,2.76-3.2,5.506-4.821,8.3s-3.214,5.542-4.843,8.339m45.027-77.155c-3.33,4.793-10.572,5.535-18.478,1.924l-37.511-18.73c-7.524-4.094-10.731-10.082-8.165-15.228,1.643-2.731,3.236-5.405,4.872-8.136q2.422-4.065,4.879-8.172c1.607-2.7,3.236-5.391,4.865-8.122,1.621-2.71,3.257-5.434,4.886-8.122,3.322-4.706,10.529-5.47,18.312-1.924l37.345,18.507c7.567,4.094,10.853,10.018,8.316,15.177-1.622,2.739-3.2,5.434-4.836,8.18-1.614,2.753-3.207,5.455-4.829,8.194-1.6,2.746-3.214,5.5-4.814,8.2-1.614,2.76-3.221,5.5-4.843,8.251m44.869-75.951c-3.308,4.713-10.5,5.434-18.384,1.9l-37.245-18.42c-7.48-3.993-10.673-9.844-8.108-14.918,1.607-2.667,3.236-5.34,4.857-8.035,1.614-2.645,3.236-5.34,4.836-7.964,1.629-2.71,3.236-5.347,4.865-8.021,1.614-2.645,3.214-5.29,4.85-7.971,3.286-4.605,10.443-5.34,18.2-1.9l37.086,18.2c7.531,3.985,10.774,9.83,8.259,14.882-1.593,2.645-3.2,5.34-4.8,8.028s-3.207,5.369-4.807,8.071c-1.585,2.645-3.193,5.362-4.807,8.072q-2.411,4.021-4.807,8.072m44.624-74.582c-3.322,4.663-10.486,5.4-18.283,1.9l-37.007-18.06c-7.416-3.949-10.572-9.715-8.028-14.673,1.6-2.6,3.222-5.261,4.814-7.855s3.207-5.239,4.8-7.819c1.6-2.6,3.207-5.2,4.8-7.8s3.2-5.2,4.8-7.783c3.308-4.555,10.392-5.275,18.074-1.852l36.848,17.822c7.466,3.949,10.673,9.686,8.208,14.594-1.578,2.616-3.193,5.268-4.764,7.877s-3.156,5.217-4.749,7.863c-1.578,2.6-3.178,5.261-4.756,7.87-1.6,2.638-3.185,5.3-4.757,7.913m44.148-72.91c-3.243,4.533-10.356,5.246-18.089,1.794l-36.732-17.728c-7.394-3.834-10.529-9.47-8.021-14.305,1.593-2.558,3.164-5.11,4.749-7.654,1.593-2.573,3.178-5.1,4.771-7.668q2.346-3.762,4.749-7.6c1.585-2.558,3.142-5.037,4.742-7.6,3.221-4.382,10.262-5.1,17.9-1.744l36.545,17.519c7.445,3.834,10.644,9.455,8.18,14.269-1.564,2.551-3.106,5.066-4.692,7.639-1.556,2.558-3.113,5.109-4.7,7.69-1.557,2.573-3.128,5.117-4.684,7.675-1.586,2.616-3.156,5.167-4.721,7.718m43.608-71.08c-3.207,4.411-10.234,5.059-17.93,1.723l-36.452-17.4c-7.344-3.755-10.464-9.275-8-13.974,1.578-2.529,3.135-4.98,4.713-7.48,1.571-2.479,3.106-4.922,4.684-7.437,1.549-2.457,3.113-4.908,4.663-7.394,1.557-2.436,3.113-4.915,4.677-7.351,3.221-4.346,10.183-4.987,17.764-1.708l36.279,17.152c7.336,3.812,10.543,9.261,8.115,13.974-1.542,2.479-3.078,4.973-4.605,7.43-1.571,2.522-3.092,4.973-4.627,7.466-1.557,2.522-3.12,5.03-4.648,7.51-1.549,2.515-3.106,5.045-4.634,7.495m42.916-69.076c-3.142,4.281-10.089,4.858-17.729,1.578l-36.185-17.044c-7.25-3.719-10.37-9.095-7.942-13.671,1.528-2.4,3.084-4.836,4.634-7.25,1.535-2.393,3.084-4.807,4.605-7.185,1.528-2.428,3.063-4.807,4.591-7.207s3.084-4.8,4.6-7.164c3.157-4.166,10.032-4.742,17.548-1.506l35.983,16.813c7.308,3.7,10.486,9.037,8.108,13.592-1.5,2.371-3.02,4.8-4.526,7.2-1.514,2.429-3.048,4.85-4.562,7.286s-3.02,4.807-4.562,7.264c-1.528,2.436-3.041,4.879-4.569,7.293m42.152-66.965c-3.1,4.13-9.981,4.7-17.541,1.455l-35.86-16.748c-7.2-3.647-10.313-8.843-7.949-13.282q2.27-3.492,4.533-6.99c1.535-2.371,3.019-4.656,4.526-6.991s3.02-4.641,4.533-6.983c1.492-2.284,3-4.612,4.49-6.9,3.12-4.014,9.931-4.576,17.361-1.4l35.644,16.532c7.257,3.61,10.45,8.8,8.122,13.21-1.477,2.292-2.955,4.648-4.454,6.976s-2.976,4.692-4.454,7.02c-1.492,2.349-2.976,4.692-4.482,7.026-1.478,2.349-2.984,4.728-4.468,7.077m41.3-64.752c-3.041,4-9.845,4.5-17.354,1.34L1182.6,1468.2c-7.142-3.553-10.262-8.648-7.913-12.943,1.463-2.256,2.962-4.533,4.432-6.781s2.955-4.483,4.425-6.724l4.4-6.681c1.456-2.205,2.947-4.439,4.4-6.637,3.02-3.87,9.758-4.367,17.138-1.269l35.342,16.208c7.178,3.56,10.37,8.6,8.115,12.828-1.456,2.249-2.9,4.468-4.346,6.717s-2.9,4.519-4.36,6.767-2.9,4.511-4.353,6.767-2.919,4.562-4.374,6.818m40.307-62.352c-2.976,3.834-9.693,4.3-17.116,1.182l-35.233-16.1c-7.077-3.51-10.2-8.439-7.935-12.569q2.173-3.232,4.331-6.464c1.434-2.169,2.883-4.317,4.324-6.472s2.854-4.266,4.3-6.435c1.441-2.148,2.854-4.266,4.274-6.385,2.977-3.719,9.635-4.165,16.929-1.1l35.017,15.9c7.113,3.481,10.291,8.352,8.086,12.453-1.391,2.133-2.811,4.3-4.238,6.472-1.384,2.119-2.8,4.3-4.223,6.472-1.4,2.162-2.832,4.324-4.252,6.508-1.434,2.212-2.847,4.375-4.259,6.544m39.226-59.823c-2.875,3.618-9.491,4.036-16.842.959l-34.909-15.8c-7.012-3.423-10.154-8.165-7.956-12.114,1.42-2.112,2.832-4.187,4.238-6.249,1.4-2.083,2.782-4.115,4.18-6.176s2.818-4.144,4.194-6.176c1.405-2.068,2.782-4.093,4.173-6.126,2.89-3.56,9.426-3.913,16.647-.9l34.715,15.581c7.026,3.431,10.226,8.144,8.122,12.042-1.362,2.039-2.76,4.122-4.108,6.176q-2.076,3.1-4.144,6.241t-4.144,6.248c-1.384,2.083-2.76,4.173-4.166,6.292m38.513-57.841c-.851,1.06-5.585,6.075-16.979,1.3l-34.592-15.466c-10.911-5.2-8.216-11.149-7.582-12.273,1.5-2.176,2.984-4.36,4.454-6.5,1.492-2.184,2.976-4.36,4.439-6.508,1.492-2.184,2.962-4.31,4.439-6.508,1.456-2.14,2.933-4.288,4.4-6.457,3.034-3.762,9.6-4.252,16.756-1.341l34.362,15.286c6.976,3.344,10.032,8.136,7.769,12.266-1.441,2.162-2.9,4.36-4.346,6.515-1.463,2.191-2.89,4.353-4.36,6.544s-2.933,4.4-4.367,6.551q-2.194,3.3-4.4,6.587m40.242-60.579c-2.948,3.755-9.505,4.281-16.719,1.34l-34.232-15.148c-6.875-3.293-9.852-8.05-7.567-12.114,1.427-2.1,2.847-4.223,4.3-6.364q2.119-3.178,4.274-6.342,2.13-3.167,4.252-6.342c1.434-2.119,2.847-4.216,4.266-6.335,2.919-3.661,9.4-4.194,16.5-1.319l34.016,14.983c6.9,3.3,9.967,8,7.783,12.021-1.4,2.126-2.789,4.252-4.194,6.378s-2.789,4.259-4.223,6.414c-1.391,2.14-2.789,4.252-4.194,6.378-1.427,2.176-2.825,4.288-4.259,6.45m38.887-59.275c-2.839,3.639-9.289,4.144-16.431,1.29l-33.915-14.875c-6.8-3.243-9.823-7.855-7.625-11.819q2.065-3.124,4.137-6.241c1.391-2.076,2.775-4.166,4.166-6.241s2.739-4.129,4.115-6.219,2.746-4.122,4.122-6.212c2.84-3.589,9.2-4.086,16.237-1.276l33.7,14.68c6.839,3.221,9.909,7.87,7.8,11.819-1.326,2.047-2.688,4.151-4.05,6.248s-2.7,4.151-4.057,6.248-2.724,4.187-4.086,6.27-2.717,4.209-4.108,6.327m37.619-58.137c-2.76,3.589-9.109,4.1-16.186,1.268l-33.6-14.572c-6.76-3.178-9.765-7.725-7.653-11.632,1.319-2.011,2.674-4.057,4.014-6.1s2.667-4.079,4.007-6.111c1.355-2.061,2.674-4.072,4.007-6.126,1.319-2.018,2.652-4.065,3.978-6.075,2.753-3.546,9.052-4.065,16-1.312l33.41,14.406c6.8,3.193,9.859,7.733,7.819,11.624-1.312,2.061-2.609,4.086-3.935,6.147-1.29,2.032-2.609,4.093-3.928,6.162-1.312,2.011-2.63,4.079-3.949,6.14s-2.659,4.13-3.985,6.183m36.459-57.084c-2.7,3.567-8.944,4.021-15.97,1.276L1457.5,1055.1c-6.709-3.084-9.708-7.589-7.7-11.372,1.3-2.018,2.587-4.007,3.892-6.025s2.587-4,3.884-6.025,2.587-4.007,3.906-6.025c1.261-1.982,2.558-4,3.848-5.989,2.681-3.466,8.864-3.949,15.761-1.24l33.122,14.168c6.731,3.1,9.83,7.538,7.87,11.372-1.261,1.982-2.53,4.021-3.805,6.01-1.283,2.04-2.551,4.072-3.827,6.061-1.29,2.018-2.558,4.065-3.856,6.09-1.254,1.989-2.537,4.029-3.841,6.054m35.363-56.119c-2.623,3.5-8.807,3.992-15.739,1.247l-33.036-14.06c-6.666-3.048-9.693-7.459-7.719-11.228,1.24-1.946,2.5-3.942,3.776-5.924s2.522-3.935,3.769-5.931c1.247-1.953,2.508-3.942,3.755-5.9,1.268-1.982,2.5-3.942,3.769-5.917,2.594-3.416,8.72-3.942,15.552-1.254l32.87,13.895c6.674,3.077,9.779,7.473,7.877,11.221-1.225,1.967-2.465,3.971-3.683,5.924-1.247,2.011-2.493,4.007-3.719,5.96q-1.881,3.016-3.747,6c-1.225,1.96-2.472,3.957-3.726,5.96m34.34-55.276c-2.551,3.445-8.648,3.928-15.552,1.261L1528.134,944.2c-6.6-3-9.635-7.351-7.74-11.048,1.24-1.946,2.457-3.913,3.69-5.874,1.2-1.917,2.443-3.863,3.668-5.83,1.211-1.91,2.429-3.877,3.625-5.794,1.233-1.96,2.429-3.884,3.654-5.838,2.558-3.394,8.583-3.856,15.372-1.254l32.625,13.664c6.738,3.063,9.758,7.293,7.906,11.026-1.2,1.967-2.414,3.942-3.6,5.866-1.2,1.975-2.407,3.942-3.6,5.866-1.2,1.975-2.414,3.935-3.639,5.9s-2.429,3.935-3.632,5.9m33.4-54.512c-2.464,3.366-8.518,3.884-15.357,1.24l-32.531-13.606c-6.659-3.005-9.628-7.164-7.762-10.889,1.189-1.91,2.386-3.849,3.546-5.729,1.189-1.939,2.386-3.848,3.575-5.78s2.378-3.848,3.553-5.736c1.175-1.932,2.371-3.856,3.517-5.751,2.515-3.358,8.482-3.87,15.213-1.283l32.409,13.426c6.594,2.977,9.7,7.272,7.913,10.926-1.175,1.939-2.321,3.834-3.5,5.772s-2.349,3.87-3.524,5.809-2.342,3.856-3.51,5.8-2.364,3.856-3.546,5.8m32.517-53.805c-2.429,3.33-8.374,3.805-15.192,1.24l-32.315-13.383c-6.515-2.926-9.563-7.142-7.791-10.745,1.16-1.888,2.306-3.783,3.459-5.686,1.182-1.917,2.335-3.827,3.481-5.715s2.313-3.8,3.459-5.686,2.306-3.784,3.452-5.679c2.421-3.308,8.316-3.791,15.033-1.29l32.185,13.26c6.551,2.9,9.686,7.091,7.949,10.723-1.131,1.9-2.277,3.813-3.409,5.715s-2.292,3.849-3.438,5.751-2.27,3.805-3.43,5.744c-1.153,1.9-2.285,3.805-3.445,5.751m31.681-53.214c-2.357,3.279-8.259,3.769-15.019,1.24l-32.121-13.174c-6.486-2.861-9.542-7.026-7.819-10.6,1.131-1.859,2.263-3.762,3.4-5.672,1.117-1.852,2.27-3.755,3.38-5.614,1.139-1.91,2.256-3.769,3.366-5.621,1.146-1.9,2.248-3.784,3.38-5.672,2.378-3.279,8.2-3.762,14.846-1.232l32.02,13c6.522,2.883,9.642,7.026,7.949,10.623-1.1,1.881-2.212,3.784-3.308,5.65-1.139,1.917-2.234,3.784-3.358,5.693-1.11,1.874-2.241,3.783-3.359,5.679-1.1,1.874-2.234,3.791-3.358,5.7M1705,742.523c-2.335,3.293-8.187,3.8-14.882,1.312l-31.947-13.016c-6.436-2.825-9.505-6.947-7.841-10.45q1.676-2.8,3.308-5.614c1.11-1.866,2.212-3.726,3.322-5.6,1.088-1.881,2.177-3.711,3.272-5.571s2.212-3.74,3.279-5.571c2.321-3.25,8.086-3.762,14.723-1.3l31.832,12.842c6.472,2.854,9.628,6.962,7.985,10.493q-1.643,2.811-3.257,5.636c-1.074,1.831-2.169,3.7-3.25,5.585s-2.176,3.762-3.272,5.628-2.184,3.747-3.272,5.628m30.2-52.234c-2.278,3.258-8.064,3.769-14.731,1.29L1688.685,678.8c-6.407-2.811-9.484-6.875-7.863-10.37,1.088-1.859,2.169-3.7,3.222-5.535,1.1-1.874,2.162-3.711,3.243-5.549,1.073-1.874,2.147-3.711,3.214-5.549s2.148-3.719,3.214-5.564c2.263-3.222,7.971-3.712,14.587-1.326l31.666,12.705c6.443,2.789,9.578,6.882,7.985,10.385-1.059,1.845-2.1,3.69-3.185,5.571-1.059,1.845-2.111,3.7-3.185,5.57-1.045,1.852-2.133,3.726-3.185,5.571s-2.147,3.733-3.192,5.578m29.526-51.845c-2.249,3.243-7.949,3.74-14.608,1.319l-31.609-12.619c-6.37-2.739-9.477-6.774-7.87-10.269,1.045-1.838,2.1-3.683,3.135-5.477q1.589-2.778,3.156-5.542c1.059-1.838,2.126-3.69,3.15-5.484,1.038-1.852,2.1-3.7,3.142-5.549,2.227-3.185,7.92-3.748,14.471-1.333L1769.206,606c6.443,2.731,9.592,6.767,8.014,10.291-1.038,1.845-2.083,3.7-3.1,5.513-1.038,1.852-2.075,3.7-3.121,5.556s-2.1,3.69-3.142,5.542-2.076,3.7-3.128,5.542m28.921-51.528c-2.2,3.214-7.9,3.762-14.478,1.333l-31.494-12.439c-6.327-2.724-9.448-6.7-7.891-10.176,1.023-1.809,2.061-3.654,3.084-5.47,1.052-1.852,2.061-3.661,3.1-5.506,1.016-1.824,2.061-3.675,3.084-5.484,1.03-1.845,2.054-3.654,3.07-5.477,2.2-3.207,7.826-3.748,14.348-1.391l31.407,12.331c6.378,2.76,9.527,6.753,8.035,10.2-1.038,1.859-2.047,3.668-3.07,5.535-1.016,1.816-2.039,3.676-3.048,5.484-1.038,1.859-2.068,3.712-3.07,5.528-1.038,1.867-2.068,3.711-3.077,5.535m28.337-51.276c-2.162,3.229-7.8,3.755-14.377,1.377l-31.335-12.295c-6.327-2.667-9.441-6.645-7.934-10.089,1.009-1.823,2.025-3.632,3.027-5.448s2-3.639,3.048-5.492c.988-1.831,2-3.639,3.012-5.448s2-3.654,3.012-5.463c2.155-3.185,7.733-3.748,14.233-1.42l31.284,12.172c6.385,2.688,9.542,6.688,8.035,10.14-.987,1.831-1.982,3.647-2.976,5.47s-2.025,3.7-3.019,5.513-1.989,3.654-2.991,5.47c-1.023,1.86-2.018,3.683-3.02,5.513m27.818-51.1c-2.119,3.207-7.726,3.755-14.291,1.434l-31.234-12.143c-6.313-2.645-9.434-6.58-7.942-10.032,1-1.83,1.989-3.647,2.969-5.427l2.983-5.477c.995-1.823,1.96-3.611,2.948-5.434s1.989-3.654,2.962-5.441c2.126-3.193,7.668-3.74,14.147-1.463l31.169,12.05c6.458,2.688,9.549,6.551,8.093,10.017-.987,1.823-1.968,3.661-2.955,5.492s-1.96,3.661-2.947,5.492c-.973,1.787-1.946,3.618-2.94,5.448s-1.967,3.661-2.962,5.484m27.313-50.959c-2.076,3.171-7.646,3.755-14.19,1.449l-31.14-11.985c-6.32-2.6-9.427-6.529-7.971-9.945.973-1.795,1.946-3.625,2.926-5.456.966-1.78,1.939-3.625,2.912-5.412.973-1.838,1.938-3.632,2.926-5.455.944-1.795,1.931-3.618,2.883-5.412,2.1-3.214,7.625-3.819,14.06-1.521l31.119,11.862c6.313,2.652,9.505,6.565,8.064,10.01-.959,1.838-1.932,3.661-2.883,5.47-.98,1.838-1.938,3.675-2.9,5.463-.973,1.845-1.938,3.639-2.9,5.477-.98,1.823-1.931,3.625-2.911,5.456m27.71-52.53c-2.479,4-8.316,5.174-14.846,2.919l-31.061-11.841c-6.248-2.645-9.095-7.07-7.228-11.329,1.182-2.241,2.356-4.49,3.553-6.738q1.762-3.372,3.553-6.745c1.175-2.249,2.342-4.447,3.517-6.7,1.168-2.212,2.321-4.418,3.488-6.673,2.428-3.877,8.151-4.951,14.615-2.789l31.01,11.747c6.3,2.638,9.217,7.048,7.466,11.2-1.16,2.205-2.306,4.418-3.474,6.673-1.189,2.256-2.335,4.461-3.51,6.717s-2.342,4.511-3.517,6.767-2.371,4.533-3.567,6.789m32.113-61.935c-2.349,3.82-8.093,4.886-14.579,2.652l-30.975-11.675c-6.263-2.559-9.188-6.868-7.466-10.925,1.139-2.177,2.227-4.317,3.344-6.486q1.665-3.21,3.3-6.407,1.654-3.211,3.315-6.414c1.1-2.133,2.191-4.273,3.265-6.364,2.3-3.74,7.942-4.749,14.377-2.558l30.931,11.6c6.3,2.587,9.289,6.825,7.668,10.789-1.088,2.14-2.177,4.288-3.265,6.421s-2.184,4.281-3.286,6.421-2.205,4.317-3.308,6.457c-1.1,2.176-2.2,4.31-3.322,6.493m30.11-59.239c-2.227,3.683-7.87,4.641-14.37,2.45l-30.9-11.531c-6.241-2.559-9.232-6.731-7.632-10.652,1.038-2.068,2.09-4.115,3.113-6.14,1.038-2.068,2.083-4.115,3.1-6.14,1.052-2.061,2.068-4.086,3.077-6.118,1.052-2.061,2.061-4.079,3.084-6.1,2.205-3.589,7.61-4.468,14.118-2.277l30.874,11.466c6.306,2.544,9.4,6.616,7.884,10.421-1.009,2.032-2.032,4.1-3.055,6.119q-1.525,3.059-3.092,6.162c-1,2.039-2.047,4.086-3.07,6.154-1.059,2.061-2.083,4.137-3.128,6.191m33.375-67.044c-3.2,5.729-9.5,8.108-16.042,6.075l-30.866-11.394c-6.176-2.637-8.5-8.187-5.917-14.154,1.571-3.2,3.156-6.385,4.713-9.542,1.564-3.185,3.113-6.334,4.67-9.5,1.55-3.149,3.056-6.27,4.591-9.383s3.048-6.234,4.54-9.318c3.128-5.556,9.109-7.74,15.668-5.693l30.852,11.235c6.342,2.674,8.763,7.956,6.32,13.779-1.506,3.077-3.013,6.2-4.541,9.325-1.549,3.157-3.056,6.277-4.6,9.427-1.542,3.171-3.113,6.363-4.655,9.52-1.55,3.193-3.135,6.393-4.728,9.621m41.8-86.243c-2.919,5.29-8.994,7.387-15.509,5.355l-30.83-11.228c-6.2-2.537-8.727-7.761-6.465-13.282,1.413-2.962,2.8-5.888,4.194-8.807,1.412-2.919,2.8-5.845,4.165-8.735s2.739-5.772,4.108-8.662c1.348-2.832,2.717-5.722,4.057-8.569,2.746-5.03,8.713-7.019,15.141-4.987l30.859,11.077c6.255,2.58,8.944,7.632,6.811,12.958-1.348,2.846-2.688,5.686-4.05,8.583s-2.724,5.772-4.122,8.705c-1.362,2.89-2.76,5.8-4.137,8.72-1.391,2.94-2.811,5.9-4.223,8.871M2079.44,27.4c-2.616,4.821-8.5,6.6-14.99,4.59l-30.874-11.04c-6.191-2.53-8.936-7.416-6.962-12.453,1.232-2.681,2.479-5.383,3.733-8.064,1.211-2.652,2.457-5.34,3.654-7.956,1.211-2.652,2.436-5.3,3.632-7.906s2.4-5.225,3.6-7.841c2.5-4.634,8.107-6.234,14.644-4.2l30.874,10.983c6.378,2.537,9.21,7.142,7.351,12.035q-1.762,3.87-3.6,7.834c-1.2,2.609-2.414,5.261-3.625,7.927-1.218,2.638-2.436,5.29-3.69,7.971s-2.486,5.391-3.755,8.122m32.848-72c-2.328,4.345-8.043,5.852-14.529,3.834L2066.85-51.7c-6.219-2.451-9.16-7.019-7.466-11.581,1.066-2.421,2.177-4.857,3.257-7.279s2.133-4.778,3.2-7.2c1.06-2.371,2.126-4.742,3.149-7.084,1.059-2.357,2.1-4.7,3.142-7.026,2.162-4.072,7.754-5.434,14.176-3.4l30.967,10.824c6.335,2.451,9.4,6.832,7.863,11.149-1.031,2.335-2.1,4.706-3.135,7.041-1.066,2.371-2.111,4.742-3.192,7.149-1.067,2.371-2.14,4.785-3.229,7.192s-2.177,4.865-3.293,7.322m28.632-64.536c-2.069,3.863-7.625,5.088-14.1,3.027l-31-10.781c-6.255-2.414-9.369-6.659-7.963-10.752q1.405-3.243,2.8-6.414c.916-2.133,1.838-4.259,2.746-6.349.915-2.133,1.823-4.216,2.7-6.262.9-2.09,1.78-4.144,2.667-6.184,1.917-3.581,7.315-4.583,13.729-2.537l31.047,10.738c6.436,2.472,9.657,6.356,8.36,10.234q-1.329,3.059-2.667,6.169c-.915,2.083-1.823,4.187-2.746,6.313-.9,2.082-1.831,4.209-2.753,6.342s-1.881,4.3-2.818,6.457m24.373-56.529c-1.8,3.33-7.142,4.137-13.657,2.1l-31.075-10.71c-6.284-2.385-9.614-6.212-8.5-9.772.778-1.845,1.585-3.726,2.357-5.563s1.528-3.639,2.277-5.449c.764-1.794,1.528-3.581,2.285-5.39.735-1.752,1.47-3.51,2.191-5.225,1.65-3.1,6.738-3.733,13.311-1.679l31.147,10.666c6.458,2.422,9.845,5.967,8.85,9.282-.735,1.751-1.484,3.51-2.241,5.3-.735,1.759-1.492,3.553-2.256,5.347-.771,1.845-1.528,3.647-2.32,5.477-.771,1.845-1.578,3.718-2.371,5.606M67.513,3440.01c21.462,14.2,32.992,26.578,34.333,36.7a215.9,215.9,0,0,0-1.384,27.472,110.245,110.245,0,0,0,2.3,21.541,51.962,51.962,0,0,0,5.931,15.573,29.017,29.017,0,0,0,9.419,9.758q-232.579-144.985-465.172-290.013a56.432,56.432,0,0,1-14.233-12.684,72.678,72.678,0,0,1-10.507-18.117,113.674,113.674,0,0,1-6.709-23.6,194.133,194.133,0,0,1-2.739-29.166c.786-1.225,1.831-2.854,2.609-4.05,8.771-1.686,17.519,2.126,31.608,10.162L67.513,3440.01m42.57-11.632c-5.715,11.56-24.8,3.387-39.789-5.514l-416.166-256.847c-20.265-13.073-32.711-27.818-32.416-38.571,1.088-8.821,2.516-18.089,4.245-27.745,1.729-9.686,3.761-19.718,6.111-30.2q3.546-15.772,8.007-32.7,4.454-16.961,9.859-35.083,8.907-29.911,20.222-62.59,11.372-32.777,25.123-68.248t29.879-73.559q16.139-38.074,34.513-78.5c13.765-21.872,36.394-14.2,48.638-7.676l432.532,251.716c21.39,13.542,30.938,33.7,24.316,51.319q-18.972,41.726-35.94,80.845-16.961,39.078-31.818,75.4-14.821,36.235-27.5,69.523-12.659,33.219-23.061,63.3-6.3,18.227-11.8,35.27c-3.618,11.257-6.976,22.154-10.039,32.6q-4.584,15.6-8.324,29.958-3.708,14.291-6.587,27.306M308.21,2921.646c-9.607,17.253-29.612,20.56-52.213,8.641L-176.823,2679.5c-20.568-13.015-28.776-32.214-21.447-50.123,7.92-16.338,16.107-33.007,24.489-49.77q12.6-25.3,25.865-51.11,13.232-25.771,27.126-52.177,13.869-26.355,28.387-53.279,18.723-34.711,38.469-70.3,19.7-35.5,40.293-71.685,20.593-36.084,42.022-72.8,21.382-36.635,43.608-73.79c10.579-15.4,30.96-18.8,51.924-8.684L553.57,2355.032c21.217,12.36,29.641,31.623,21.512,49.02q-21.468,39.078-42.26,77.552-20.875,38.614-40.977,76.478-20.172,37.954-39.536,75.115-19.415,37.252-37.979,73.574-14.334,28.084-28.185,55.592-13.816,27.512-27.112,54.433t-26.009,53.128q-12.691,26.214-24.813,51.723M624.96,2314.076c-10.522,16.323-31.623,19.97-53.74,9.362L142.11,2095.547c-19.97-11.69-27.2-29.915-18.406-46.476.728-1.175,1.442-2.357,2.184-3.553.706-1.153,1.441-2.349,2.155-3.531.713-1.131,1.441-2.335,2.162-3.5.735-1.189,1.449-2.364,2.184-3.539q30.16-48.991,61.257-98.026,30.819-48.7,62.439-97.233,31.36-48.148,63.246-95.929,31.663-47.423,63.628-94.069c15.372-16.828,37.569-10.363,49.416-5l416.519,205.593c20.561,11.055,29.245,27.227,22.175,41.193q-29.987,49.553-59.866,99.82-30.03,50.548-59.816,101.579-29.944,51.348-59.427,102.8-29.63,51.823-58.641,103.5c-.707,1.254-1.406,2.487-2.112,3.748s-1.362,2.443-2.061,3.69-1.4,2.493-2.1,3.761c-.685,1.211-1.369,2.45-2.083,3.7m289.66-494.107c-14.731,17.584-37.807,10.788-50.267,5.2L448.726,1620.841c-19.4-10.421-26.931-25.533-19.213-38.506q32.625-46.8,65.293-92.462,32.376-45.273,64.651-89.212,31.933-43.565,63.657-85.652,31.371-41.64,62.367-81.71c14.464-13.9,35.608-7.927,46.93-3.135l397.068,182.4c11.43,5.693,29.439,17.858,21.635,35.356q-28.279,42.808-57.156,87.345-29.068,44.873-58.627,91.331-29.76,46.818-59.888,95.049-30.322,48.548-60.824,98.321m276.039-431.444c-13.441,14.428-35.3,8.2-47.139,3.236L747.611,1210.491c-18.233-9.045-25.771-22.2-18.737-32.711Q739.9,1163.8,750.832,1150.1q10.9-13.664,21.714-27.09,10.81-13.394,21.476-26.478,10.648-13.091,21.209-25.894,19.955-24.214,39.349-48.155,19.339-23.836,38.116-47.413,18.68-23.4,36.906-46.656,18.107-23.112,35.789-46.029c13.152-12.576,33.021-7.365,43.708-3.157l374.778,161.538c18.2,8.5,26.636,21.2,21,31.587q-16.085,24.409-32.553,49.085-16.529,24.766-33.461,49.82-17.026,25.209-34.462,50.735-17.555,25.652-35.522,51.622c-6.349,9.2-12.727,18.442-19.156,27.8-6.443,9.4-12.9,18.845-19.429,28.423s-13.1,19.278-19.689,29.021c-6.609,9.794-13.275,19.718-19.948,29.663m249.561-370.18c-12.1,13.267-32.618,7.855-43.759,3.43l-373.776-160.53c-10.226-4.757-26.225-14.939-18.536-29.627q26.722-35.349,52.508-70.417,25.544-34.722,50.209-69.264,24.474-34.224,48.134-68.319,23.48-33.836,46.209-67.549c11.134-11.8,29.937-7.192,40.134-3.365l359.089,145.7c10.356,4.562,26.881,14.341,21.44,28.87q-21.145,35.392-42.923,71.051-21.923,35.9-44.487,72.067-22.766,36.451-46.2,73.271-23.652,37.143-48.04,74.683m211.315-341.022c-10.493,12.316-29.937,7.517-40.588,3.531L1252.491,535.827c-9.859-4.266-25.469-13.592-19.53-27.371q21.966-33.317,43.269-66.612,21.21-33.122,41.734-66.237,20.463-33,40.322-66.057,19.793-32.96,39.01-65.992c9.765-11.675,27.9-7.545,37.843-4.065L1785.392,373.64c17.3,7.2,25.9,17.923,21.887,27.378q-18.5,34.333-37.36,68.572-18.961,34.376-38.347,68.8-19.469,34.57-39.413,69.191-20.053,34.809-40.624,69.747m182.95-327.264c-9.96,13.347-39.615,6.558-39.911,6.486L1444.63,222.912c-.26-.094-24.316-14.658-19.083-28.5q11.372-20,22.211-39.522,10.832-19.447,21.181-38.419,10.313-18.907,20.157-37.345,9.815-18.388,19.206-36.286,16.075-30.69,30.816-59.852,14.734-29.122,28.236-56.738,13.5-27.522,25.764-53.524,12.291-25.988,23.429-50.346c10.558-17.051,28.776-14.414,38.686-11.322L2003.553-65.8c10.025,4.007,25.98,13.527,20.129,32.7q-11.351,24.9-23.8,51.55t-25.973,54.987q-13.556,28.311-28.207,58.3-14.626,29.988-30.484,61.625-9.242,18.475-18.874,37.432-9.675,19.037-19.717,38.592Q1866.5,288.972,1856,309.126q-10.551,20.225-21.519,40.934m-2214.875,2889.4c-.8-.2-1.066-.231-9.412-5.42l-33.173-20.712c-5.362-3.344-12.222-7.661-14.291-9.355-.8-.663-1.564-1.376-2.313-2.1s-1.5-1.456-2.227-2.213c-.742-.735-1.434-1.556-2.133-2.335-.7-.8-1.4-1.615-2.047-2.472a2.289,2.289,0,0,0-.2-.375c.634,0,1.8-.029,10,5.066l33.5,20.82c6.724,4.274,12.345,8.331,13.931,10.168.649.779,1.283,1.629,1.975,2.4.663.785,1.355,1.557,2.039,2.306.713.72,1.42,1.448,2.133,2.155.742.67,1.485,1.363,2.227,2.061m-17.274-24c.014.159.05.353.065.526-.49.2-1.65.7-10.558-4.742l-33.634-20.965c-5.564-3.51-12.05-8.173-13.534-10.76q-.768-1.589-1.485-3.272c-.475-1.117-.922-2.256-1.369-3.4-.425-1.2-.843-2.407-1.268-3.582s-.822-2.429-1.2-3.683a3.882,3.882,0,0,0,.021-.634c.5-.354,2.011-1.312,10.861,4.1l33.929,21.08c7,4.41,12.165,8.965,13.2,11.5.339,1.268.72,2.472,1.117,3.662.353,1.2.757,2.371,1.189,3.531.418,1.131.843,2.27,1.283,3.38.447,1.081.894,2.205,1.384,3.257M-406.919,3180c0,2.443-4.454,1.3-11.538-3.02l-34.088-21.145c-7.135-4.562-12.042-9.174-12.777-12.071-.209-1.492-.389-3.027-.548-4.562-.195-1.521-.368-3.063-.49-4.67-.151-1.564-.274-3.171-.382-4.793s-.195-3.272-.289-4.908c.231-2.89,4.93-2.039,11.97,2.184l34.348,21.26c7.077,4.518,11.948,9.592,12.388,12.914.043,1.657.123,3.293.223,4.879.072,1.636.166,3.228.3,4.778s.252,3.121.4,4.634.31,3.042.483,4.519m-.857-47.1c-.584,3.228-5.434,2.536-12.669-1.744l-34.441-21.318c-7.185-4.627-11.783-9.758-11.956-13.433.1-1.932.238-3.877.353-5.823.144-1.931.288-3.914.44-5.881.195-2.025.382-4.029.569-6.039.2-2.068.418-4.122.656-6.212.793-3.575,5.938-3.229,13.08.951l34.708,21.361c7.135,4.6,11.661,10.226,11.559,14.248-.252,2.076-.5,4.158-.721,6.169-.223,2.04-.425,4.043-.641,6.061-.173,1.953-.339,3.927-.5,5.9-.173,1.932-.31,3.856-.432,5.759m7.827-58.822c-1.182,3.985-6.457,3.834-13.794-.454l-34.83-21.382c-7.106-4.6-11.437-10.414-11.084-14.759.44-2.35.858-4.656,1.319-7.055.454-2.342.923-4.735,1.413-7.149.468-2.4.966-4.807,1.492-7.265s1.059-4.915,1.614-7.408c1.384-4.367,6.962-4.511,14.226-.375l35.018,21.425c7.192,4.627,11.357,10.76,10.673,15.559-.555,2.472-1.131,4.988-1.665,7.43s-1.052,4.865-1.571,7.286c-.49,2.371-.994,4.778-1.449,7.12q-.735,3.579-1.362,7.027m16.64-70.439c-1.751,4.8-7.466,5.132-14.9.879l-35.133-21.382c-7.142-4.648-11.156-10.926-10.175-16.1.418-1.535.836-3.084,1.268-4.641s.865-3.12,1.3-4.677c.447-1.6.886-3.157,1.355-4.757.432-1.557.894-3.164,1.341-4.757.317-1.038.627-2.09.93-3.135.281-.994.6-2.039.9-3.084s.62-2.09.915-3.135c.339-1.081.649-2.126.965-3.192,1.7-4.216,7.538-4.266,14.832-.108l35.32,21.375c7.235,4.605,11.25,10.659,10.262,15.329-.331,1.089-.656,2.119-.958,3.149-.31,1.059-.656,2.14-.966,3.178s-.627,2.09-.923,3.12c-.324,1.06-.612,2.054-.923,3.092-.468,1.607-.93,3.193-1.391,4.785s-.937,3.185-1.377,4.742-.9,3.15-1.333,4.706-.887,3.106-1.3,4.612m22.06-71.4c-1.989,4.562-7.848,4.691-15.372.468L-412,2911.34c-7.264-4.706-11.084-10.644-9.859-15.617.843-2.573,1.722-5.189,2.594-7.762.9-2.623,1.794-5.261,2.7-7.87s1.809-5.268,2.753-7.934,1.874-5.34,2.8-8c2.148-4.75,8.295-5.153,15.638-.995l35.522,21.274c7.243,4.67,11.034,10.984,9.621,16.187-.966,2.666-1.924,5.369-2.868,8.021-.937,2.63-1.867,5.319-2.789,7.956-.915,2.616-1.809,5.232-2.71,7.862-.9,2.61-1.78,5.2-2.659,7.769m27.408-75.62c-2.35,4.944-8.547,5.448-16.115,1.233l-35.565-21.246c-7.207-4.612-10.825-11.04-9.261-16.33,1.088-2.847,2.191-5.679,3.308-8.555,1.1-2.832,2.205-5.693,3.329-8.554,1.139-2.911,2.263-5.772,3.423-8.684,1.138-2.89,2.328-5.838,3.488-8.728,2.551-5.138,8.943-5.809,16.374-1.751l35.673,21.167c7.257,4.656,10.789,11.257,9.023,16.842-1.2,2.941-2.371,5.881-3.524,8.778s-2.313,5.78-3.445,8.67-2.27,5.758-3.387,8.626-2.22,5.686-3.322,8.533m33.446-82.293c-2.724,5.3-9.347,6.126-16.834,2.04l-35.745-21.1c-7.185-4.648-10.58-11.322-8.627-17.03,1.3-3.077,2.616-6.126,3.942-9.188,1.312-3.1,2.638-6.162,3.978-9.275,1.362-3.092,2.7-6.2,4.057-9.3s2.739-6.248,4.122-9.39c2.919-5.528,9.592-6.465,17.065-2.487l35.817,20.986c7.243,4.67,10.558,11.5,8.41,17.462-1.412,3.186-2.782,6.32-4.151,9.419-1.369,3.135-2.739,6.248-4.072,9.354-1.355,3.127-2.7,6.241-4.007,9.311s-2.645,6.14-3.957,9.2m39.241-88.369c-3.121,5.708-10,6.767-17.555,2.782l-35.839-20.936c-7.2-4.591-10.349-11.516-7.978-17.642q2.227-4.875,4.526-9.815c1.535-3.25,3.048-6.53,4.605-9.859,1.513-3.25,3.092-6.558,4.634-9.874,1.564-3.315,3.157-6.644,4.72-9.945,3.293-5.9,10.234-7.12,17.722-3.157l35.9,20.741c7.265,4.634,10.342,11.66,7.813,18.017-1.586,3.351-3.157,6.652-4.735,9.989-1.557,3.323-3.113,6.623-4.663,9.946s-3.091,6.616-4.619,9.9c-1.506,3.278-3.027,6.572-4.533,9.851m44.732-93.882c-3.509,6.147-10.471,7.452-18.175,3.43l-35.89-20.683c-7.214-4.555-10.147-11.654-7.423-18.118,1.686-3.394,3.373-6.832,5.1-10.32,1.708-3.43,3.452-6.918,5.175-10.392,1.708-3.43,3.481-6.94,5.232-10.428s3.489-6.962,5.276-10.464c3.618-6.19,10.817-7.682,18.348-3.819l35.918,20.553c7.264,4.576,10.111,11.783,7.25,18.457q-2.659,5.242-5.3,10.536c-1.73,3.459-3.481,6.962-5.21,10.45s-3.466,6.954-5.175,10.435q-2.6,5.232-5.124,10.363m49.9-98.638c-3.783,6.342-11.141,7.935-18.744,4.029l-35.954-20.424c-7.178-4.511-9.873-11.769-6.832-18.529,1.859-3.56,3.74-7.17,5.643-10.767,1.9-3.647,3.8-7.236,5.708-10.875,1.91-3.582,3.827-7.236,5.758-10.853,1.946-3.668,3.878-7.286,5.823-10.969,3.942-6.479,11.35-8.179,18.91-4.389l35.926,20.236c7.264,4.5,9.88,11.92,6.673,18.86-1.939,3.676-3.863,7.307-5.8,10.983-1.91,3.625-3.841,7.3-5.765,10.954s-3.791,7.25-5.693,10.875c-1.874,3.611-3.776,7.257-5.65,10.868m52.854-99.424c-3.359,5.275-10.241,6.118-17.923,2.148l-35.94-20.078c-7.214-4.4-10.212-10.839-7.661-16.4,1.607-2.955,3.265-5.946,4.879-8.893s3.286-5.96,4.915-8.922q2.487-4.486,4.929-8.929c1.65-2.976,3.315-5.967,4.965-8.958,3.394-5.239,10.45-6.14,17.981-2.378l35.9,19.955c7.265,4.411,10.255,10.926,7.625,16.59-1.651,2.976-3.329,6.018-4.973,9-1.643,3.012-3.293,5.989-4.922,8.994-1.657,3.005-3.272,5.967-4.908,8.951-1.607,2.969-3.243,5.953-4.864,8.915m46.49-84.016c-3.473,5.3-10.637,6.292-18.211,2.443l-35.883-19.811c-7.2-4.338-10.067-10.824-7.322-16.532,1.708-3.048,3.409-6.046,5.153-9.087,1.723-3.049,3.445-6.054,5.189-9.131q2.605-4.54,5.218-9.109c1.759-3.055,3.5-6.1,5.268-9.174,3.568-5.354,10.731-6.421,18.226-2.659L-53.7,2256.6c7.264,4.339,10.133,10.882,7.315,16.684-1.759,3.084-3.5,6.133-5.246,9.217-1.744,3.056-3.467,6.1-5.218,9.2q-2.595,4.573-5.182,9.167c-1.744,3.056-3.43,6.061-5.153,9.124m49.077-85.861c-3.653,5.42-10.9,6.53-18.478,2.789l-35.824-19.545c-7.163-4.31-9.916-10.832-7-16.662,1.8-3.077,3.589-6.133,5.412-9.239,1.816-3.07,3.646-6.176,5.477-9.29,1.823-3.092,3.625-6.155,5.455-9.246s3.668-6.2,5.506-9.3c3.748-5.477,10.976-6.6,18.485-2.948l35.76,19.357c7.235,4.281,9.974,10.875,7.034,16.72-1.852,3.142-3.675,6.255-5.491,9.368-1.845,3.142-3.676,6.241-5.484,9.354s-3.64,6.227-5.412,9.282q-2.713,4.7-5.434,9.361M33.3,2136.834c-3.776,5.535-11.113,6.7-18.68,3.027l-35.745-19.227c-7.135-4.23-9.78-10.774-6.717-16.669,1.874-3.121,3.762-6.227,5.657-9.369q2.832-4.67,5.7-9.4c1.881-3.114,3.805-6.284,5.693-9.383,1.939-3.164,3.841-6.27,5.758-9.426,3.856-5.521,11.185-6.731,18.687-3.164l35.659,19.019c7.178,4.238,9.83,10.8,6.738,16.748q-2.875,4.746-5.729,9.47c-1.9,3.171-3.805,6.349-5.686,9.47q-2.865,4.756-5.686,9.477c-1.9,3.149-3.769,6.3-5.65,9.427m53.524-88.362c-3.927,5.585-11.35,6.882-18.874,3.229l-35.6-18.9c-7.149-4.129-9.664-10.688-6.493-16.583,1.463-2.371,2.926-4.713,4.382-7.062,1.47-2.386,2.911-4.677,4.374-7.019s2.955-4.72,4.41-7.07l4.4-7.048c.425-.67.858-1.369,1.283-2.039.4-.656.85-1.384,1.276-2.032.447-.721.865-1.384,1.268-2.047.454-.706.865-1.362,1.29-2.011,3.409-4.67,10.421-5.383,17.837-1.773l35.529,18.673c7.192,4.122,10.133,10.061,7.481,15.134-.425.67-.857,1.355-1.275,2.04-.4.663-.844,1.362-1.269,2.039-.432.706-.85,1.391-1.283,2.083-.411.67-.843,1.376-1.261,2.054-1.463,2.357-2.919,4.72-4.4,7.113-1.456,2.364-2.911,4.713-4.374,7.07s-2.89,4.72-4.36,7.077c-1.449,2.378-2.9,4.728-4.339,7.077m49.078-79.022c-3.409,4.663-10.45,5.3-17.952,1.715l-35.478-18.608c-7.128-4-9.989-9.859-7.308-14.846,1.7-2.673,3.38-5.326,5.073-7.97,1.679-2.623,3.351-5.275,5.059-7.928,1.679-2.623,3.38-5.283,5.073-7.927l5.066-7.913c3.467-4.627,10.45-5.29,17.873-1.809l35.4,18.421c7.149,4.086,10.061,9.924,7.351,14.947-1.679,2.645-3.358,5.311-5.038,7.963s-3.373,5.326-5.045,7.971c-1.687,2.7-3.388,5.362-5.066,8.028s-3.337,5.312-5.009,7.956m47.11-74.143c-3.467,4.627-10.544,5.326-18.01,1.78l-35.335-18.283c-7.077-4-9.895-9.78-7.156-14.745,1.708-2.638,3.438-5.275,5.145-7.92,1.7-2.594,3.409-5.232,5.138-7.862s3.438-5.282,5.131-7.848c1.722-2.638,3.459-5.282,5.182-7.906,3.474-4.555,10.478-5.268,17.88-1.8l35.248,18.1c7.12,3.971,9.967,9.808,7.221,14.8q-2.552,3.935-5.124,7.906t-5.124,7.927c-1.694,2.645-3.416,5.3-5.109,7.942s-3.387,5.268-5.088,7.913m47.759-73.595c-3.517,4.583-10.579,5.3-18.017,1.823l-35.183-18.017c-7.048-3.92-9.8-9.657-7.012-14.6,1.715-2.587,3.459-5.2,5.189-7.8s3.466-5.21,5.2-7.8,3.452-5.175,5.21-7.791c1.708-2.58,3.474-5.2,5.189-7.769,3.524-4.526,10.543-5.246,17.887-1.838l35.089,17.794c7.092,3.942,9.873,9.657,7.113,14.6-1.715,2.6-3.445,5.2-5.16,7.79q-2.616,3.967-5.16,7.87-2.605,3.924-5.175,7.841-2.583,3.946-5.167,7.9m48.206-72.838c-3.524,4.526-10.572,5.225-17.966,1.8L225.974,1733c-6.99-3.885-9.714-9.513-6.9-14.385,1.737-2.566,3.488-5.131,5.232-7.7,1.73-2.551,3.488-5.138,5.225-7.7s3.466-5.088,5.225-7.661,3.5-5.124,5.247-7.7c3.553-4.468,10.558-5.182,17.887-1.852l34.909,17.505c7.048,3.849,9.8,9.491,6.991,14.377-1.723,2.587-3.46,5.138-5.2,7.725-1.744,2.616-3.5,5.189-5.21,7.755-1.744,2.58-3.466,5.153-5.21,7.74-1.708,2.58-3.459,5.2-5.189,7.769m48.487-71.779c-3.524,4.418-10.565,5.117-17.916,1.766l-34.859-17.39c-6.962-3.769-9.643-9.347-6.817-14.125,1.744-2.522,3.51-5.073,5.254-7.589s3.51-5.074,5.254-7.589,3.488-5.023,5.275-7.567q2.616-3.783,5.246-7.531c3.524-4.381,10.536-5.109,17.793-1.809l34.708,17.2c7.019,3.805,9.758,9.34,6.94,14.1-1.73,2.529-3.481,5.088-5.218,7.61-1.715,2.508-3.5,5.073-5.225,7.618-1.752,2.558-3.459,5.059-5.21,7.639-1.73,2.537-3.5,5.088-5.225,7.661m48.581-70.6c-3.51,4.367-10.529,5.073-17.865,1.787l-34.636-17.109c-6.911-3.754-9.578-9.145-6.753-13.887,1.744-2.45,3.517-4.951,5.247-7.416,1.766-2.5,3.517-4.965,5.29-7.466,1.744-2.464,3.488-4.937,5.232-7.38,1.765-2.508,3.524-4.973,5.268-7.416,3.546-4.309,10.479-4.965,17.714-1.751l34.506,16.9c6.976,3.718,9.671,9.16,6.868,13.837-1.708,2.458-3.481,4.98-5.2,7.444s-3.5,4.994-5.2,7.466c-1.744,2.5-3.51,5.009-5.239,7.474-1.744,2.522-3.5,5.052-5.225,7.516m48.544-69.17c-3.517,4.274-10.529,5-17.808,1.751l-34.4-16.8c-6.9-3.661-9.527-9.016-6.659-13.664,1.722-2.407,3.481-4.822,5.24-7.272,1.737-2.4,3.474-4.8,5.224-7.229,1.737-2.4,3.5-4.85,5.247-7.264s3.5-4.836,5.247-7.221c3.5-4.173,10.4-4.829,17.584-1.636l34.3,16.561c6.926,3.675,9.628,8.951,6.832,13.542-1.751,2.457-3.474,4.865-5.2,7.3s-3.452,4.829-5.2,7.3c-1.723,2.407-3.459,4.865-5.182,7.286-1.751,2.472-3.452,4.872-5.211,7.344m48.3-67.52c-3.488,4.173-10.407,4.778-17.649,1.6l-34.188-16.5c-6.854-3.6-9.463-8.814-6.659-13.289,1.744-2.364,3.474-4.728,5.218-7.1,1.716-2.364,3.452-4.706,5.2-7.07s3.481-4.727,5.218-7.084c1.73-2.32,3.459-4.677,5.2-7.019,3.481-4.079,10.378-4.713,17.512-1.6l34.03,16.323c6.991,3.632,9.585,8.72,6.789,13.239-1.73,2.393-3.438,4.706-5.145,7.07s-3.445,4.728-5.175,7.106q-2.551,3.556-5.174,7.149c-1.708,2.378-3.416,4.749-5.167,7.171m47.953-65.776c-3.459,4.029-10.363,4.656-17.541,1.513l-33.936-16.208c-6.8-3.517-9.4-8.626-6.609-13,1.708-2.277,3.445-4.576,5.167-6.883,1.708-2.277,3.445-4.576,5.16-6.868s3.423-4.569,5.138-6.832c1.751-2.321,3.438-4.576,5.16-6.839,3.474-3.978,10.306-4.576,17.383-1.492l33.814,15.97c6.832,3.517,9.469,8.6,6.724,12.95-1.694,2.285-3.4,4.6-5.109,6.875-1.708,2.328-3.4,4.612-5.11,6.919-1.7,2.328-3.416,4.605-5.1,6.926q-2.583,3.481-5.138,6.969m47.471-63.873c-3.445,3.949-10.27,4.49-17.383,1.4l-33.727-15.9c-6.738-3.445-9.333-8.417-6.587-12.655,1.708-2.213,3.431-4.483,5.124-6.7s3.409-4.446,5.117-6.659,3.4-4.454,5.088-6.63c1.686-2.22,3.4-4.432,5.11-6.652,3.394-3.812,10.147-4.345,17.2-1.333l33.533,15.711c6.8,3.452,9.419,8.388,6.731,12.583-1.665,2.191-3.344,4.418-5.038,6.652-1.672,2.241-3.358,4.468-5.052,6.7s-3.38,4.5-5.066,6.731-3.387,4.5-5.052,6.745m46.822-61.8c-3.372,3.77-10.14,4.288-17.2,1.261l-33.468-15.609c-6.681-3.394-9.261-8.223-6.551-12.331,1.665-2.133,3.365-4.3,5.03-6.436,1.694-2.177,3.358-4.3,5.03-6.443s3.351-4.259,5.045-6.428c1.657-2.133,3.337-4.274,4.98-6.356,3.394-3.719,10.068-4.187,17.044-1.211l33.288,15.408c6.753,3.38,9.376,8.194,6.724,12.222-1.643,2.133-3.3,4.281-4.951,6.421-1.672,2.184-3.336,4.324-4.98,6.472-1.679,2.169-3.322,4.324-4.987,6.515-1.687,2.177-3.33,4.324-5,6.515m46.13-59.657c-3.351,3.683-10.039,4.108-17.058,1.153l-33.2-15.314c-6.659-3.322-9.2-8.043-6.53-12,1.658-2.09,3.315-4.166,4.951-6.22,1.665-2.083,3.294-4.122,4.965-6.2,1.621-2.054,3.265-4.093,4.9-6.14s3.286-4.093,4.922-6.133c3.344-3.575,9.945-3.993,16.857-1.052L674.1,1181.9c6.673,3.336,9.3,8,6.7,11.884q-2.433,3.092-4.858,6.169c-1.643,2.09-3.265,4.151-4.9,6.241-1.621,2.061-3.25,4.158-4.872,6.2q-2.464,3.157-4.908,6.3m45.243-57.329c-3.243,3.466-9.866,3.87-16.82.951l-32.935-15.04c-6.572-3.279-9.174-7.819-6.565-11.588,1.629-2.011,3.258-4,4.872-6,1.6-1.953,3.243-3.957,4.828-5.924,1.629-2,3.236-3.949,4.843-5.9s3.214-3.921,4.821-5.873c3.286-3.445,9.815-3.8,16.691-.93l32.74,14.839c6.623,3.25,9.239,7.8,6.688,11.56-1.593,1.96-3.171,3.935-4.764,5.91-1.607,2-3.193,3.964-4.8,5.981-1.586,1.975-3.171,3.978-4.785,5.989s-3.214,4.021-4.814,6.032m44.329-54.995c-3.2,3.344-9.729,3.647-16.633.8L701.567,1092.4c-6.537-3.207-9.117-7.625-6.573-11.228,1.593-1.917,3.193-3.827,4.764-5.736,1.578-1.881,3.178-3.784,4.742-5.657,1.593-1.91,3.164-3.791,4.728-5.664q2.378-2.854,4.749-5.636c3.178-3.243,9.621-3.538,16.417-.706l32.459,14.572c6.544,3.214,9.2,7.574,6.724,11.149-1.542,1.881-3.1,3.769-4.67,5.686-1.55,1.888-3.106,3.776-4.67,5.7s-3.121,3.805-4.692,5.729-3.135,3.848-4.706,5.765m43.694-53.013c-.93.966-6.118,5.571-16.792,1.081l-32.38-14.471c-10.176-4.879-6.933-10.313-6.183-11.322q2.551-3.038,5.066-6c1.672-1.975,3.366-3.985,5.038-5.96s3.337-3.949,5.008-5.967c1.665-1.982,3.337-3.949,4.994-5.931,3.351-3.423,9.859-3.877,16.6-1.131l32.164,14.291c6.508,3.135,8.987,7.6,6.356,11.379-1.643,1.975-3.315,4.014-4.951,6s-3.286,3.971-4.965,6c-1.643,1.975-3.322,4.014-4.951,6-1.686,2.032-3.337,4.007-5.009,6.032m45.7-55.585c-3.264,3.452-9.751,3.885-16.525,1.117l-32.07-14.183c-6.407-3.092-8.85-7.488-6.227-11.2,1.636-1.989,3.257-3.935,4.865-5.9,1.628-1.953,3.214-3.863,4.828-5.809s3.222-3.92,4.843-5.859c1.578-1.924,3.185-3.877,4.807-5.837,3.207-3.373,9.614-3.791,16.28-1.1l31.868,14.032c6.472,3.063,8.994,7.459,6.443,11.156-1.585,1.975-3.142,3.892-4.727,5.866s-3.185,3.935-4.785,5.9-3.192,3.92-4.771,5.9c-1.607,1.96-3.207,3.913-4.829,5.924m44.012-54.591c-3.135,3.373-9.5,3.812-16.215,1.088l-31.767-13.923c-6.378-3.005-8.864-7.322-6.342-10.99,1.564-1.932,3.121-3.805,4.67-5.737,1.578-1.924,3.1-3.819,4.663-5.751s3.092-3.819,4.655-5.751c1.535-1.888,3.092-3.82,4.613-5.715,3.135-3.329,9.412-3.755,16.028-1.11l31.609,13.736c6.371,3.056,8.929,7.365,6.5,10.983-1.528,1.946-3.027,3.856-4.569,5.8-1.521,1.888-3.048,3.841-4.6,5.78-1.52,1.9-3.056,3.841-4.6,5.78s-3.084,3.877-4.648,5.809m42.44-53.676c-3.034,3.33-9.311,3.762-15.97,1.124l-31.493-13.707c-6.306-2.976-8.835-7.207-6.428-10.781,1.514-1.9,3.005-3.762,4.512-5.664s3.012-3.776,4.511-5.679c1.484-1.867,2.962-3.733,4.475-5.643,1.477-1.859,2.969-3.733,4.461-5.643,3.027-3.279,9.225-3.711,15.783-1.117l31.335,13.513c6.342,2.991,8.929,7.214,6.587,10.81-1.47,1.874-2.948,3.791-4.418,5.672-1.47,1.931-2.94,3.8-4.432,5.715l-4.454,5.7c-1.485,1.881-2.969,3.8-4.468,5.7m40.963-52.861c-2.962,3.315-9.124,3.711-15.725,1.11l-31.256-13.419c-6.284-2.912-8.814-7.092-6.508-10.609,1.456-1.888,2.926-3.762,4.36-5.6,1.477-1.881,2.926-3.755,4.367-5.6s2.89-3.726,4.324-5.556c1.449-1.9,2.875-3.74,4.31-5.585,2.919-3.222,9.016-3.661,15.516-1.11l31.1,13.282c6.306,2.919,8.922,7.091,6.681,10.6-1.441,1.881-2.854,3.747-4.3,5.635-1.412,1.852-2.847,3.74-4.259,5.6-1.456,1.9-2.868,3.74-4.317,5.628s-2.883,3.783-4.3,5.621m39.55-52.112c-2.875,3.25-8.943,3.7-15.5,1.124l-31-13.224c-6.219-2.876-8.8-6.969-6.587-10.435,1.427-1.845,2.832-3.712,4.216-5.528,1.42-1.845,2.825-3.7,4.216-5.527,1.406-1.845,2.789-3.668,4.173-5.477,1.412-1.867,2.782-3.683,4.194-5.542,2.825-3.171,8.821-3.6,15.271-1.088l30.874,13.051c6.27,2.883,8.915,6.969,6.738,10.471-1.362,1.816-2.753,3.69-4.108,5.513-1.4,1.874-2.767,3.69-4.158,5.556s-2.767,3.7-4.158,5.564-2.8,3.719-4.173,5.542m38.268-51.47c-2.767,3.207-8.763,3.647-15.278,1.139L999.406,721.22c-6.176-2.847-8.778-6.9-6.623-10.356,1.369-1.823,2.709-3.611,4.072-5.448s2.7-3.61,4.065-5.441c1.333-1.795,2.688-3.618,4.021-5.42,1.355-1.83,2.7-3.618,4.05-5.455,2.767-3.164,8.677-3.589,15.083-1.146l30.658,12.878c6.227,2.818,8.9,6.861,6.789,10.342-1.319,1.787-2.659,3.639-3.978,5.434-1.34,1.852-2.681,3.69-4.007,5.477-1.348,1.845-2.681,3.682-4.007,5.477q-2.032,2.756-4.057,5.506m37.05-50.879c-2.688,3.164-8.626,3.625-15.055,1.117l-30.6-12.792c-6.14-2.76-8.792-6.738-6.7-10.183,1.319-1.795,2.623-3.6,3.949-5.405,1.275-1.766,2.609-3.567,3.913-5.369s2.609-3.567,3.921-5.362c1.3-1.816,2.609-3.618,3.891-5.383,2.7-3.15,8.54-3.625,14.911-1.2l30.463,12.662c6.191,2.8,8.879,6.8,6.839,10.2-1.29,1.823-2.573,3.639-3.87,5.456-1.276,1.773-2.573,3.581-3.877,5.39s-2.594,3.625-3.9,5.441-2.587,3.625-3.892,5.427m35.875-50.375c-2.623,3.142-8.439,3.567-14.846,1.138l-30.42-12.59c-6.1-2.746-8.756-6.681-6.752-10.061,1.261-1.78,2.544-3.546,3.834-5.362,1.254-1.773,2.53-3.553,3.791-5.333s2.529-3.553,3.805-5.333,2.522-3.553,3.784-5.34c2.616-3.128,8.381-3.6,14.709-1.189l30.283,12.453c6.14,2.753,8.85,6.724,6.911,10.082-1.24,1.794-2.5,3.567-3.733,5.362-1.283,1.831-2.536,3.611-3.791,5.4s-2.529,3.6-3.783,5.4-2.515,3.567-3.791,5.376m34.816-49.964c-2.558,3.121-8.331,3.589-14.68,1.175l-30.247-12.381c-6.075-2.688-8.742-6.616-6.8-9.982,1.211-1.751,2.465-3.538,3.69-5.282,1.247-1.787,2.465-3.539,3.712-5.326,1.225-1.751,2.465-3.546,3.683-5.29s2.465-3.546,3.683-5.283c2.53-3.1,8.237-3.582,14.507-1.232l30.146,12.28c6.111,2.7,8.85,6.63,6.947,10-1.211,1.759-2.414,3.51-3.639,5.326-1.211,1.751-2.436,3.546-3.668,5.347-1.211,1.758-2.436,3.553-3.639,5.311-1.247,1.794-2.479,3.589-3.69,5.333M1187,532.281c-2.493,3.1-8.2,3.582-14.514,1.189l-30.1-12.187c-6.032-2.659-8.72-6.551-6.832-9.895,1.189-1.744,2.385-3.517,3.589-5.276s2.4-3.531,3.575-5.246q1.794-2.648,3.6-5.3c1.2-1.759,2.356-3.488,3.56-5.246,2.458-3.063,8.1-3.553,14.349-1.247l29.98,12.115c6.075,2.688,8.828,6.572,7.012,9.9-1.182,1.758-2.371,3.531-3.524,5.261q-1.773,2.659-3.56,5.319c-1.175,1.766-2.379,3.538-3.56,5.3s-2.378,3.531-3.575,5.311m32.848-49.287c-2.436,3.084-8.064,3.567-14.363,1.24l-29.929-12.028c-6.025-2.659-8.749-6.472-6.926-9.794,1.16-1.73,2.342-3.5,3.488-5.239s2.328-3.5,3.488-5.239,2.328-3.51,3.481-5.239,2.3-3.488,3.452-5.218c2.421-3.084,7.992-3.546,14.211-1.268l29.836,11.934c6.068,2.623,8.843,6.465,7.063,9.808-1.139,1.751-2.277,3.488-3.445,5.268-1.131,1.737-2.277,3.488-3.438,5.268-1.153,1.737-2.292,3.481-3.459,5.261-1.153,1.737-2.313,3.517-3.459,5.246m31.9-49c-2.357,3.07-7.913,3.546-14.2,1.268l-29.8-11.9c-5.989-2.587-8.727-6.4-6.969-9.707,1.139-1.744,2.263-3.445,3.394-5.189s2.256-3.5,3.395-5.246,2.241-3.445,3.373-5.2,2.256-3.5,3.387-5.247c2.349-3.034,7.87-3.56,14.053-1.3l29.706,11.8c6.061,2.566,8.843,6.414,7.113,9.736-1.117,1.759-2.227,3.467-3.344,5.218s-2.227,3.5-3.351,5.254-2.248,3.51-3.38,5.261-2.241,3.5-3.38,5.246m31.083-48.825c-2.3,3.041-7.812,3.538-14.075,1.29L1239.1,374.728c-5.967-2.565-8.72-6.356-7.026-9.635,1.1-1.715,2.205-3.466,3.308-5.181,1.11-1.758,2.2-3.481,3.3-5.239,1.1-1.708,2.213-3.474,3.3-5.189,1.117-1.766,2.191-3.488,3.272-5.2,2.306-3.049,7.783-3.567,13.916-1.326l29.627,11.6c6.01,2.594,8.821,6.356,7.163,9.657-1.088,1.766-2.169,3.488-3.272,5.254-1.081,1.722-2.183,3.488-3.257,5.218-1.1,1.765-2.184,3.481-3.286,5.246s-2.183,3.481-3.308,5.247m30.29-48.7c-2.27,3.055-7.747,3.581-13.938,1.311l-29.562-11.574c-5.946-2.544-8.734-6.291-7.084-9.549,1.067-1.729,2.141-3.452,3.207-5.181s2.162-3.5,3.236-5.232,2.133-3.452,3.207-5.189,2.119-3.459,3.178-5.2c2.241-3.034,7.668-3.582,13.815-1.391l29.519,11.487c6,2.53,8.835,6.306,7.214,9.571-1.074,1.773-2.148,3.517-3.2,5.254s-2.112,3.466-3.193,5.254c-1.052,1.737-2.126,3.459-3.178,5.2-1.1,1.766-2.155,3.5-3.222,5.232m29.54-48.645c-2.205,3.056-7.661,3.618-13.844,1.42l-29.461-11.466c-5.938-2.5-8.749-6.234-7.134-9.52,1.045-1.737,2.111-3.481,3.156-5.225,1.038-1.694,2.075-3.43,3.128-5.175s2.076-3.438,3.12-5.182,2.09-3.5,3.12-5.182c2.2-3.056,7.553-3.589,13.693-1.456l29.4,11.372c5.974,2.515,8.835,6.248,7.264,9.542q-1.535,2.572-3.1,5.2-1.546,2.627-3.121,5.239c-1.009,1.708-2.061,3.445-3.1,5.2s-2.083,3.488-3.128,5.232m28.805-48.638c-2.169,3.077-7.545,3.647-13.707,1.449l-29.389-11.315c-6.025-2.486-8.792-6.1-7.192-9.448,1.024-1.708,2.039-3.459,3.063-5.174,1.023-1.751,2.032-3.459,3.063-5.21s2.032-3.466,3.055-5.218q1.514-2.573,3.034-5.174c2.148-3.034,7.473-3.632,13.6-1.506l29.332,11.22c5.974,2.465,8.85,6.2,7.307,9.513-1.03,1.766-2.025,3.481-3.034,5.239-1,1.715-2.018,3.466-3.041,5.225-1.009,1.708-2.025,3.467-3.034,5.189-1.016,1.744-2.047,3.5-3.056,5.21m29.036-50.195c-2.573,3.848-8.223,4.958-14.4,2.861l-29.3-11.207c-5.9-2.479-8.439-6.716-6.479-10.752q1.859-3.243,3.726-6.486c1.247-2.162,2.457-4.288,3.7-6.45,1.218-2.119,2.436-4.245,3.661-6.414,1.211-2.119,2.429-4.252,3.632-6.371,2.5-3.733,8.043-4.814,14.147-2.746l29.252,11.084c5.938,2.486,8.576,6.681,6.709,10.659-1.211,2.133-2.407,4.259-3.625,6.436-1.218,2.126-2.422,4.259-3.654,6.421-1.2,2.126-2.443,4.31-3.661,6.464q-1.859,3.254-3.711,6.5m33.353-59.326c-2.414,3.683-7.949,4.7-14.1,2.609l-29.216-11.055c-5.888-2.414-8.518-6.544-6.731-10.414,1.16-2.1,2.321-4.151,3.459-6.219,1.139-2.047,2.292-4.108,3.438-6.162s2.27-4.129,3.387-6.155c1.139-2.046,2.249-4.072,3.395-6.14,2.328-3.56,7.747-4.54,13.837-2.486l29.2,10.94c6.025,2.493,8.7,6.435,6.947,10.327-1.117,2.025-2.241,4.086-3.358,6.118q-1.686,3.1-3.387,6.191c-1.139,2.061-2.285,4.122-3.4,6.191-1.167,2.1-2.313,4.158-3.474,6.255m31.018-56.919c-2.263,3.545-7.675,4.468-13.837,2.436l-29.159-10.926c-5.881-2.407-8.6-6.378-6.969-10.111,1.081-2,2.155-3.993,3.207-5.931,1.081-2,2.119-3.95,3.2-5.946,1.031-1.946,2.09-3.913,3.12-5.867,1.052-1.96,2.1-3.906,3.135-5.859,2.22-3.473,7.43-4.36,13.585-2.262l29.158,10.81c6.032,2.443,8.785,6.27,7.185,9.981-1.023,1.96-2.076,3.913-3.113,5.874s-2.083,3.913-3.149,5.917c-1.038,1.953-2.1,3.949-3.149,5.91q-1.6,2.984-3.214,5.974m34.037-64.558a12.857,12.857,0,0,1-15.487,5.9L1454.279,3.338c-5.816-2.479-7.884-7.776-5.254-13.548q2.4-4.627,4.756-9.2c1.6-3.07,3.164-6.111,4.72-9.152s3.113-6.039,4.663-9.088q2.3-4.508,4.576-8.972c3.113-5.405,8.864-7.509,15.083-5.6l29.137,10.63c5.989,2.529,8.165,7.574,5.657,13.217q-2.249,4.442-4.569,9.015c-1.528,3.012-3.084,6.061-4.656,9.109-1.535,3.041-3.106,6.082-4.7,9.159s-3.156,6.162-4.778,9.275m42.044-83.3c-2.868,5.124-8.706,7.185-14.9,5.29l-29.137-10.586c-5.823-2.436-8.129-7.445-5.844-12.778,1.405-2.861,2.8-5.686,4.172-8.511,1.427-2.868,2.775-5.65,4.166-8.475,1.34-2.782,2.71-5.571,4.065-8.36s2.7-5.57,4.036-8.323c2.71-4.879,8.389-6.817,14.478-4.929l29.144,10.485c5.9,2.422,8.353,7.293,6.248,12.424-1.3,2.753-2.673,5.542-4.014,8.331s-2.71,5.585-4.086,8.4-2.746,5.658-4.136,8.475-2.782,5.693-4.194,8.554m36.855-76.737c-2.573,4.7-8.2,6.508-14.334,4.583l-29.151-10.421c-5.852-2.4-8.4-7.07-6.464-11.97,1.232-2.631,2.458-5.232,3.683-7.834s2.393-5.167,3.6-7.769c1.2-2.558,2.378-5.124,3.538-7.653s2.342-5.1,3.481-7.574c2.393-4.476,7.863-6.118,13.952-4.223l29.187,10.349c6.018,2.436,8.626,6.875,6.832,11.6-1.153,2.515-2.328,5.081-3.5,7.61-1.182,2.566-2.357,5.131-3.56,7.7-1.2,2.6-2.393,5.175-3.6,7.762-1.218,2.609-2.458,5.254-3.668,7.848M1609.8-221.8c-2.256,4.237-7.675,5.751-13.837,3.87l-29.195-10.3c-5.873-2.357-8.6-6.76-6.976-11.192,1.052-2.378,2.09-4.706,3.135-7.084q1.557-3.492,3.1-7.005c1.03-2.32,2.032-4.634,3.048-6.911,1-2.3,1.982-4.54,2.969-6.81,2.09-4.021,7.351-5.333,13.441-3.452l29.252,10.234c5.953,2.342,8.865,6.529,7.365,10.767-.98,2.263-2,4.555-3,6.846s-2.01,4.591-3.048,6.926-2.054,4.663-3.12,7.034c-1.024,2.342-2.083,4.706-3.135,7.077m27.378-62.836c-1.975,3.805-7.207,4.994-13.354,3.07l-29.281-10.183c-5.9-2.306-8.843-6.364-7.517-10.334.915-2.14,1.8-4.231,2.659-6.292.886-2.09,1.751-4.158,2.616-6.205s1.708-4.079,2.551-6.09c.843-2.068,1.672-4.036,2.522-6.053,1.8-3.539,6.781-4.555,12.95-2.609l29.331,10.161c6.082,2.313,9.109,6.082,7.891,9.852-.843,2.01-1.672,4.029-2.515,6.054s-1.708,4.072-2.58,6.119-1.73,4.122-2.616,6.219-1.773,4.187-2.659,6.291m22.924-55.232c-1.672,3.294-6.731,4.159-12.871,2.234l-29.36-10.133c-5.924-2.284-9.073-5.96-8.05-9.412.75-1.852,1.485-3.668,2.191-5.434.728-1.824,1.434-3.6,2.147-5.362s1.4-3.509,2.083-5.239,1.377-3.467,2.047-5.16c1.542-3.005,6.327-3.69,12.518-1.729l29.425,10.053c6.133,2.284,9.325,5.722,8.4,8.965-.663,1.679-1.369,3.409-2.047,5.153-.728,1.758-1.412,3.5-2.119,5.275s-1.42,3.538-2.162,5.354-1.463,3.625-2.2,5.434m-19.948-83.785-27.919-9.52c-8.057,21.584-18.1,47.565-30.239,77.444-12.115,29.836-26.348,63.577-42.8,100.735-16.46,37.137-35.176,77.782-56.32,121.477q-31.792,65.693-71.253,140.6-10.032,18.983-20.669,38.592c-7.091,13.08-14.334,26.312-21.808,39.8-7.452,13.44-15.141,27.148-23,41q-11.815,20.842-24.251,42.246-59.855,103.139-125.591,204.952-66.925,103.626-141.05,207.424-75.887,106.22-160.811,214.472-87.5,111.463-186.481,227.048c-53.7,62.634-109.074,130.06-165.394,201.348-57.8,73.206-116.439,150.289-175.109,230.276-60.068,81.882-119.934,166.482-178.647,252.639-59.888,87.871-118.349,176.975-174.294,265.9q-31.144,49.5-60.839,98.213Q-76.185,2120-104.49,2168q-28.408,48.2-55.174,95.309-26.831,47.186-51.859,93.075-46.6,85.367-86.452,165.113-39.846,79.789-72.24,152.6-32.323,72.665-56.681,137.281-24.193,64.288-39.99,119.43-15.653,54.612-22.665,98.674-6.972,43.7-5.419,76.593,1.492,32.559,11.264,54.281,9.589,21.458,27.033,32.3Q-112.006,3407.58,232.59,3622.5q-9.978-6.281-12.951-24.243-2.984-18.3,1.406-48.66,4.475-30.723,16.5-73.552,12.118-43.121,31.933-98.422c13.289-37.064,29.079-77.832,47.233-122.017q27.328-66.5,61.567-142.671,34.138-76.048,74.72-160.659,40.354-84.156,86.394-175.469,24.69-48.98,50.807-99.568,26.02-50.439,53.359-102.307,27.241-51.628,55.643-104.461,28.3-52.613,57.6-106.148c52.7-96.145,107.041-192.924,162.1-288.722,53.92-93.817,108.281-186.308,162.223-276.111,52.666-87.641,104.735-172.4,155.5-253.172,49.416-78.625,97.485-153.236,143.536-222.882q84.978-128.5,161.257-250.412,74.222-118.511,141.943-233.159,66.287-112.165,127.653-222.55,60.417-108.652,117.188-217.376,11.783-22.614,23.069-44.5,11.264-21.869,22.06-43.1,10.789-21.2,21.08-41.756,10.345-20.561,20.157-40.422,38.732-78.243,70.8-146.592c21.368-45.395,40.646-87.468,57.877-125.879,17.2-38.39,32.394-73.17,45.525-103.813,13.159-30.737,24.286-57.38,33.338-79.469l-32.027-10.882.54.4c-3.87,19.235-4.511,20.777-5.153,22.326l-44.394-9.484c-4.626-19.408-4.036-20.871-3.437-22.334s1.182-2.89,1.759-4.317l-17.793-9.9q-6.032,14.95-13.318,32.6c-4.85,11.725-10.14,24.387-15.841,37.864q-8.507,20.161-18.334,42.88-9.783,22.625-20.813,47.564c-5.938,3.654-13.865,8.569-19.8,12.223-110.421-37.518-257.668-87.5-368.1-125.029-5.773-4.62-13.426-10.846-19.206-15.473,6.241-31.039,12.915-46.62,19.156-61.394q9.351-22.215,17.411-42.065,8.086-19.837,14.867-37.187,6.821-17.372,12.389-32.084l-27.184-9.268.483.44c-3.365,18.759-3.964,20.28-4.555,21.8l-41.857-8.8c-4.576-18.846-4.036-20.287-3.488-21.728l1.578-4.194c-1.47-.771,3.61-1.413,5.167-2.018" transform="translate(495.244 433.173)" fill="url(#linear-gradient-4)"/>
      <g id="Group_244" data-name="Group 244" transform="translate(113.995 33.288)" opacity="0.8">
        <path id="Path_247" data-name="Path 247" d="M10.515,435.2A51.942,51.942,0,0,1,4.584,419.63a110.213,110.213,0,0,1-2.3-21.541,215.926,215.926,0,0,1,1.384-27.472c-1.34-10.118-12.871-22.5-34.333-36.7C-129.807,270.321-455,63.164-476.817,67.329c-.778,1.2-1.823,2.825-2.609,4.05a194.129,194.129,0,0,0,2.739,29.166,113.673,113.673,0,0,0,6.709,23.6,72.688,72.688,0,0,0,10.507,18.118,56.422,56.422,0,0,0,14.233,12.684q232.59,145.028,465.172,290.013A29.015,29.015,0,0,1,10.515,435.2Z" transform="translate(479.426 3505.975)" fill="url(#linear-gradient-5)"/>
        <path id="Path_248" data-name="Path 248" d="M9.355,726.074q2.865-13.015,6.587-27.306,3.729-14.345,8.324-29.958c3.063-10.443,6.421-21.339,10.039-32.6q5.5-17.015,11.8-35.27,10.41-30.074,23.061-63.3,12.658-33.273,27.5-69.523,14.864-36.289,31.818-75.4,16.939-39.078,35.94-80.845c6.623-17.62-2.926-37.778-24.315-51.319L-292.419,8.84c-24.373-12.936-42.31-5.081-48.638,7.675q-18.4,40.44-34.513,78.5-16.107,38.073-29.879,73.559-13.761,35.468-25.122,68.248-11.351,32.722-20.222,62.59-5.383,18.1-9.859,35.082-4.465,16.95-8.007,32.7c-2.349,10.486-4.381,20.518-6.111,30.2-1.73,9.657-3.157,18.925-4.245,27.746.988,15.221,18.169,29.353,32.416,38.57L-30.433,720.56C-15.443,729.461,3.64,737.633,9.355,726.074Z" transform="translate(481.977 3102.189)" fill="url(#linear-gradient-6)"/>
        <path id="Path_249" data-name="Path 249" d="M54.715,722.81q12.129-25.544,24.813-51.723,12.7-26.247,26.009-53.128Q118.8,591.1,132.649,563.527q13.815-27.479,28.185-55.593,18.55-36.289,37.979-73.573,19.35-37.1,39.536-75.116,20.117-37.857,40.977-76.478,20.777-38.462,42.26-77.551c8.129-17.4-.3-36.661-21.512-49.02L-129.582-73.056c-24.467-11.8-43.7-4.137-51.925,8.684q-22.215,37.165-43.608,73.79-21.448,36.722-42.022,72.8Q-287.719,118.4-307.429,153.9q-19.74,35.544-38.47,70.3-14.5,26.917-28.387,53.279-13.869,26.387-27.126,52.177-13.264,25.858-25.865,51.11c-8.381,16.763-16.568,33.432-24.489,49.77-7.329,17.909.879,37.107,21.447,50.123L2.5,731.451C25.1,743.371,45.108,740.063,54.715,722.81Z" transform="translate(634.744 2598.72)" fill="url(#linear-gradient-7)"/>
        <path id="Path_250" data-name="Path 250" d="M95.074,529.534c.713-1.254,1.4-2.493,2.083-3.7.706-1.268,1.405-2.5,2.1-3.762s1.369-2.443,2.061-3.69,1.405-2.493,2.112-3.747q28.982-51.64,58.641-103.5,29.457-51.424,59.427-102.8,29.738-50.97,59.816-101.579,29.836-50.2,59.866-99.82C349.846,86.069,331,72.189,319.009,65.746L-97.511-139.847c-23.681-10.709-41.892-5.174-49.416,5q-31.976,46.7-63.628,94.069Q-242.412,6.951-273.8,55.153q-31.554,48.483-62.439,97.233Q-367.319,201.4-397.5,250.411c-.735,1.175-1.449,2.349-2.184,3.538-.721,1.16-1.449,2.364-2.162,3.5-.713,1.182-1.449,2.378-2.155,3.531-.742,1.2-1.456,2.378-2.184,3.553-8.792,16.561-1.564,34.787,18.406,46.476L41.334,538.9C63.452,549.5,84.552,545.858,95.074,529.534Z" transform="translate(911.134 2184.427)" fill="url(#linear-gradient-8)"/>
        <path id="Path_251" data-name="Path 251" d="M120.587,392.141q30.473-49.726,60.825-98.321,30.073-48.18,59.888-95.049,29.522-46.419,58.627-91.331,28.852-44.483,57.157-87.345c7.8-17.5-10.205-29.663-21.635-35.356l-397.068-182.4c-22.622-9.556-39.86-5.333-46.93,3.135q-30.96,40.019-62.367,81.71-31.7,42.094-63.657,85.652-32.3,43.964-64.651,89.212-32.668,45.662-65.293,92.462c-9.65,19.372,7.9,32.423,19.213,38.506L70.32,397.344C82.78,402.93,105.856,409.726,120.587,392.141Z" transform="translate(1175.281 1827.713)" fill="url(#linear-gradient-9)"/>
        <path id="Path_252" data-name="Path 252" d="M91.406,265.538c11.841,4.965,33.7,11.192,47.139-3.236,6.673-9.945,13.339-19.869,19.948-29.663,6.587-9.743,13.167-19.451,19.689-29.021S191.168,184.6,197.611,175.2c6.428-9.362,12.806-18.6,19.156-27.8q17.966-25.955,35.522-51.622,17.426-25.479,34.462-50.735Q303.68,20,320.212-4.786q16.475-24.679,32.553-49.085c6.883-15.775-10.2-26.557-21-31.587L-43.014-247c-21.353-8.41-37.331-4.49-43.709,3.157q-17.685,22.95-35.788,46.029-18.248,23.253-36.906,46.656-18.81,23.577-38.116,47.413-19.415,23.955-39.349,48.155-10.561,12.821-21.209,25.894Q-268.76-16.633-279.567-3.215q-10.8,13.394-21.714,27.09-10.951,13.7-21.959,27.681C-332.1,67.5-315.3,78.877-304.5,84.268Z" transform="translate(1433.362 1526.108)" fill="url(#linear-gradient-10)"/>
        <path id="Path_253" data-name="Path 253" d="M106.864,176.292c11.142,4.425,31.659,9.837,43.759-3.43q24.441-37.587,48.04-74.683,23.426-36.787,46.2-73.271,22.571-36.17,44.487-72.067,21.771-35.663,42.923-71.051c5.441-14.529-11.084-24.308-21.44-28.87l-359.089-145.7c-20.4-7.625-34.852-3.784-40.134,3.366q-22.723,33.695-46.209,67.549-23.674,34.116-48.134,68.319-24.658,34.517-50.21,69.264-25.782,35.089-52.508,70.417c-7.69,14.687,8.309,24.87,18.536,29.627Z" transform="translate(1670.844 1245.369)" fill="url(#linear-gradient-11)"/>
        <path id="Path_254" data-name="Path 254" d="M123.674,104.665c10.652,3.985,30.1,8.785,40.588-3.531q20.561-34.906,40.624-69.746Q224.831-3.237,244.3-37.8q19.393-34.387,38.347-68.8,18.863-34.29,37.36-68.572c4.49-14.061-11.783-23.17-21.887-27.378L-52.133-336.7c-19.847-6.99-33.324-2.976-37.842,4.065q-19.2,33.057-39.01,65.992-19.826,33.025-40.322,66.057-20.507,33.09-41.734,66.237-21.307,33.317-43.269,66.612c-5.938,13.779,9.671,23.1,19.53,27.371Z" transform="translate(1868.52 976.075)" fill="url(#linear-gradient-12)"/>
        <path id="Path_255" data-name="Path 255" d="M180.928,141.669q10.994-20.755,21.519-40.934Q212.965,80.6,223.065,61q10.075-19.6,19.717-38.592,9.643-18.972,18.874-37.431,15.826-31.609,30.484-61.625,14.68-29.965,28.207-58.3,13.513-28.3,25.973-54.987,12.432-26.625,23.8-51.55c5.852-19.177-10.1-28.7-20.128-32.7L1.675-397.335C-20.94-404.347-33.3-393.5-37.01-386.013q-11.113,24.344-23.429,50.346Q-72.731-309.691-86.2-282.143q-13.491,27.609-28.236,56.738-14.767,29.2-30.816,59.852-9.394,17.913-19.206,36.286-9.837,18.4-20.157,37.345Q-194.963-72.961-205.8-53.5q-10.853,19.545-22.211,39.522c-5.542,14.68,18.824,28.409,19.084,28.5L141.017,148.155C147.474,150.267,175.753,149.87,180.928,141.669Z" transform="translate(2034.805 608.276)" fill="url(#linear-gradient-13)"/>
        <path id="Path_256" data-name="Path 256" d="M210.663-127.544q11.037-24.949,20.813-47.564,9.816-22.7,18.334-42.88c5.7-13.476,10.99-26.139,15.84-37.864q7.3-17.686,13.318-32.6l-411.59-140.1q-5.556,14.681-12.388,32.085-6.8,17.307-14.867,37.187-8.086,19.858-17.411,42.066-9.361,22.161-20.035,46.635c-3.971,12.237,3.531,23.566,20.085,30.232C199.4-107.711,199.4-107.711,210.663-127.544Z" transform="translate(2223.879 428.554)" fill="url(#linear-gradient-14)"/>
      </g>
    </g>
  </g>
</svg>
