<svg xmlns="http://www.w3.org/2000/svg" width="24.262" height="21.614" viewBox="0 0 24.262 21.614">
  <g id="Apply_Now" data-name="Apply Now" transform="translate(-1442.924 -749.193)">
    <path id="Path_9335" data-name="Path 9335" d="M659.01,468.1a1.269,1.269,0,0,1,.942-.956,1.631,1.631,0,0,1,.352-.037q7.478,0,14.956,0h.158c-.07.075-.113.125-.16.171-.7.7-1.4,1.395-2.092,2.1a.469.469,0,0,1-.37.151q-5.558-.005-11.117-.008c-.2,0-.258.036-.258.251q.012,7.122,0,14.245c0,.212.054.254.257.253q7.111-.009,14.222,0c.213,0,.272-.048.27-.267-.009-1.928,0-3.855-.008-5.783a.469.469,0,0,1,.149-.371c.693-.682,1.377-1.371,2.063-2.061a1.481,1.481,0,0,0,.141-.2.251.251,0,0,1,.066.238q0,4.741,0,9.481a1.24,1.24,0,0,1-1.379,1.374H660.542c-.914,0-1.188-.178-1.532-.995Z" transform="translate(783.914 284.127)" fill="#fff"/>
    <path id="Path_9336" data-name="Path 9336" d="M670.8,472.07a1.884,1.884,0,0,1,1.153-1.85,1.822,1.822,0,0,1,2.063.453q1.188,1.174,2.36,2.365c.144.148.21.126.344-.007q5.137-5.151,10.282-10.293a1.86,1.86,0,1,1,2.725,2.527c-.081.087-.167.168-.251.252q-5.755,5.755-11.509,11.511a1.883,1.883,0,0,1-2.027.545,1.956,1.956,0,0,1-.785-.512q-1.87-1.867-3.737-3.736A1.842,1.842,0,0,1,670.8,472.07Z" transform="translate(776.902 287.113)" fill="#fff"/>
  </g>
</svg>
