<svg xmlns="http://www.w3.org/2000/svg" xmlns:xlink="http://www.w3.org/1999/xlink" width="5235.788" height="6989.996" viewBox="0 0 5235.788 6989.996">
  <defs>
    <linearGradient id="linear-gradient" x1="3.941" y1="-3.67" x2="4.893" y2="-3.67" gradientUnits="objectBoundingBox">
      <stop offset="0" stop-color="#444"/>
      <stop offset="0.105" stop-color="#7b7b7c"/>
      <stop offset="0.228" stop-color="#b6b6b8"/>
      <stop offset="0.318" stop-color="#dbdbdd"/>
      <stop offset="0.366" stop-color="#e9e9ec"/>
      <stop offset="0.608" stop-color="#e9e9ec"/>
      <stop offset="1" stop-color="#444"/>
    </linearGradient>
    <linearGradient id="linear-gradient-2" x1="6.75" y1="-5.04" x2="6.859" y2="-5.04" gradientUnits="objectBoundingBox">
      <stop offset="0"/>
      <stop offset="0.232" stop-color="#1f1f21"/>
      <stop offset="0.366" stop-color="#2d2d30"/>
      <stop offset="0.608" stop-color="#2d2d30"/>
      <stop offset="1"/>
    </linearGradient>
    <linearGradient id="linear-gradient-3" x1="-0.918" y1="0.711" x2="2.126" y2="0.109" gradientUnits="objectBoundingBox">
      <stop offset="0" stop-color="#606060"/>
      <stop offset="0.092" stop-color="#8d8d8e"/>
      <stop offset="0.22" stop-color="#c9c9ca"/>
      <stop offset="0.315" stop-color="#ededef"/>
      <stop offset="0.366" stop-color="#fcfcfe"/>
      <stop offset="0.608" stop-color="#fcfcfe"/>
      <stop offset="1" stop-color="#606060"/>
    </linearGradient>
    <linearGradient id="linear-gradient-4" x1="0.018" y1="0.492" x2="1.374" y2="0.492" xlink:href="#linear-gradient"/>
    <linearGradient id="linear-gradient-5" x1="-1.017" y1="-3.657" x2="9.295" y2="-3.501" xlink:href="#linear-gradient-2"/>
    <linearGradient id="linear-gradient-6" x1="-0.797" y1="-1.13" x2="7.186" y2="-1.049" xlink:href="#linear-gradient-2"/>
    <linearGradient id="linear-gradient-7" x1="-0.889" y1="-0.229" x2="5.726" y2="-0.157" xlink:href="#linear-gradient-2"/>
    <linearGradient id="linear-gradient-8" x1="-1.346" y1="0.444" x2="5.495" y2="0.53" xlink:href="#linear-gradient-2"/>
    <linearGradient id="linear-gradient-9" x1="-1.818" y1="1.147" x2="5.278" y2="1.244" xlink:href="#linear-gradient-2"/>
    <linearGradient id="linear-gradient-10" x1="-2.381" y1="1.915" x2="5.196" y2="2.028" xlink:href="#linear-gradient-2"/>
    <linearGradient id="linear-gradient-11" x1="-3.052" y1="2.693" x2="5.249" y2="2.816" xlink:href="#linear-gradient-2"/>
    <linearGradient id="linear-gradient-12" x1="-3.685" y1="3.52" x2="5.256" y2="3.652" xlink:href="#linear-gradient-2"/>
    <linearGradient id="linear-gradient-13" x1="-3.861" y1="3.676" x2="4.725" y2="3.784" xlink:href="#linear-gradient-2"/>
    <linearGradient id="linear-gradient-14" x1="-5.315" y1="7.275" x2="5.48" y2="7.465" xlink:href="#linear-gradient-2"/>
  </defs>
  <g id="Group_6469" data-name="Group 6469" transform="translate(556.91 1020.977) rotate(-9)" opacity="0.09" style="mix-blend-mode: normal;isolation: isolate">
    <g id="Group_241" data-name="Group 241" transform="translate(-426.643 5283.39)" style="mix-blend-mode: normal;isolation: isolate">
      <path id="Path_242" data-name="Path 242" d="M596.308,746.174-489.21,69.639a106.98,106.98,0,0,0,25.524,11.619,139.751,139.751,0,0,0,29.492,5.821,200.5,200.5,0,0,0,33.289.057,281.782,281.782,0,0,0,36.95-5.457L679.133,728.9a231.408,231.408,0,0,1-25.9,13.575,118.683,118.683,0,0,1-22.488,7.481,60.666,60.666,0,0,1-19.055,1.319,35.8,35.8,0,0,1-15.383-5.1" transform="translate(489.21 -69.639)" fill="#858585"/>
    </g>
    <g id="Group_242" data-name="Group 242" transform="translate(-426.62 5283.424)">
      <path id="Path_243" data-name="Path 243" d="M532.769,705.691c5.889,3.638,11.869,7.128,17.429,11.312a.142.142,0,0,0-.148.011c-.318-.171-.625-.33-.978-.489-.33-.159-.637-.318-.955-.512-.318-.17-.637-.353-.943-.534a8.692,8.692,0,0,1-.956-.546c-28.764-17.929-67.146-41.839-95.9-59.791.341.193.682.364,1,.58a3.35,3.35,0,0,0,1.024.568c.318.193.682.375,1.023.568a4.962,4.962,0,0,0,1.046.512c7.753,4.115,15.121,8.9,22.545,13.563l55.812,34.756m32.015,14.95c-3.865-1.114-14.644-7.5-23-12.711l-55.471-34.585c-14.609-9.152-16.121-10.926-16.645-11.654a1.477,1.477,0,0,0,.262-.171c1.091.08,2.148.182,3.251.239,1.114.023,2.217.091,3.365.068,1.126-.045,2.285-.068,3.456-.17a27.027,27.027,0,0,0,3.525-.25c5.184.728,18.02,8.391,23.295,11.642l54.947,34.187c14.393,9,15.849,11.608,16.315,12.427a4.53,4.53,0,0,0-.33.4c-1.126.114-2.274.318-3.388.364-1.126.148-2.194.171-3.286.227a23.316,23.316,0,0,1-3.195.08c-1.057-.034-2.081-.034-3.1-.091m32.607-5.594c-4.673.17-15.428-5.787-23.6-10.846l-54.652-33.937c-14.234-9-15.189-11.733-15.542-12.768.126-.159.284-.318.455-.511,1.387-.444,2.74-.83,4.184-1.376,1.41-.489,2.853-1.023,4.275-1.558s2.877-1.057,4.332-1.649c1.478-.591,2.99-1.239,4.445-1.819,5.833-.819,18.646,6.56,23.921,9.7l53.992,33.6c11.1,7.015,16.895,12.6,14.758,14.268-1.456.682-2.854,1.307-4.252,1.91-1.409.66-2.819,1.262-4.2,1.831s-2.763,1.114-4.116,1.694c-1.341.489-2.706,1.023-4,1.467M-366.034,145.531c4.889,3.058,9.823,6.117,14.541,9.436l-.125.1a16.261,16.261,0,0,0-1.591-.818c-.489-.284-1-.557-1.49-.853-.523-.273-.978-.614-1.5-.921a10.579,10.579,0,0,1-1.478-.909c-26.751-16.667-62.427-38.86-89.2-55.493.523.284,1.034.58,1.58.887.488.341,1,.637,1.523.932.546.3,1.046.58,1.569.91.522.284,1.08.568,1.637.819,7.663,4.332,15.166,8.948,22.636,13.6l51.9,32.311m36.665,18.066c-4.878-1.762-15.28-7.947-23.1-12.836l-51.661-32.1c-12.211-7.742-13.4-9.186-14.121-9.9a5.925,5.925,0,0,0,.648-.136c1.523.432,3.092.819,4.65,1.182,1.6.307,3.172.716,4.775,1.023,1.615.341,3.263.591,4.9.864s3.331.466,4.979.7c3.752.693,13,5.321,23.5,11.824l51.139,31.822c12.04,7.583,13.313,9.732,13.779,10.6a3.845,3.845,0,0,0-.716.364c-1.626-.193-3.241-.421-4.855-.659-1.581-.227-3.161-.477-4.73-.75-1.545-.3-3.126-.568-4.65-.944-1.524-.3-3.059-.648-4.536-1.057m46.341,3.888c-3.8-.148-12.938-4.377-23.853-11.119l-50.9-31.595c-11.937-7.538-12.733-9.755-13.109-10.823a2.2,2.2,0,0,1,.933-.568c1.841-.045,3.741-.148,5.674-.307,1.853-.091,3.809-.3,5.741-.455,1.91-.136,3.889-.375,5.867-.614,1.967-.216,3.934-.455,5.946-.739,4.251-.193,13.734,3.786,24.182,10.107l50.354,31.277c11.881,7.549,12.574,10.278,12.87,11.449a2.193,2.193,0,0,1-1.058.83c-1.944.318-3.865.58-5.821.909-1.91.273-3.809.443-5.7.716-1.887.182-3.763.364-5.594.5-1.887.227-3.729.352-5.537.432m962.14,561.388L506.12,621.559a230.219,230.219,0,0,1-27.809,12.177,130.571,130.571,0,0,1-24.33,6.162,70.261,70.261,0,0,1-20.874.1A45.516,45.516,0,0,1,416,633.713q90.163,56.227,180.292,112.43a35.8,35.8,0,0,0,15.383,5.1,60.666,60.666,0,0,0,19.054-1.319,118.675,118.675,0,0,0,22.488-7.481,231.439,231.439,0,0,0,25.9-13.575m-876.9-544.05L-363.954,81.682a282.192,282.192,0,0,1-36.927,5.446,203.215,203.215,0,0,1-33.3-.034,148.8,148.8,0,0,1-29.526-5.764,111.867,111.867,0,0,1-25.5-11.688q86.293,53.771,172.63,107.632A98.852,98.852,0,0,0-292.6,187.916a129.376,129.376,0,0,0,27.923,4.684A182.284,182.284,0,0,0-233,191.474a267.531,267.531,0,0,0,35.211-6.651" transform="translate(489.208 -69.642)" fill="url(#linear-gradient)"/>
      <path id="Path_244" data-name="Path 244" d="M348.673,523.394a230.217,230.217,0,0,1-27.81,12.177,130.578,130.578,0,0,1-24.329,6.162,70.265,70.265,0,0,1-20.875.1,45.523,45.523,0,0,1-17.11-6.287Q-107.8,307.385-474.024,79.109A98.854,98.854,0,0,0-450.047,89.75a129.38,129.38,0,0,0,27.923,4.684,182.292,182.292,0,0,0,31.675-1.125,267.517,267.517,0,0,0,35.211-6.651L348.673,523.394" transform="translate(646.654 28.523)" opacity="0.8" fill="url(#linear-gradient-2)"/>
    </g>
    <g id="Group_243" data-name="Group 243" transform="translate(630.665 -105.695)">
      <path id="Path_245" data-name="Path 245" d="M2436.924,318.154q-15.587,31.482-31.833,63.917-16.355,32.556-33.369,66.055-17.089,33.647-34.881,68.2-17.889,34.687-36.529,70.375-89.6,171.732-184.92,343.145-97.053,174.563-201.542,351.524-107.132,181.282-224.1,368.237Q1569.046,1842.42,1435.219,2045c-72.536,109.77-148.2,227.327-226.02,351.183-79.914,127.2-161.874,260.661-244.745,398.638-84.916,141.421-170.481,287.026-255.318,434.677-86.622,150.767-172.129,303.046-254.988,454.3q-46.079,84.177-90.567,166.831-44.647,83.035-87.429,164.262-43.01,81.5-83.882,160.737-41.031,79.5-79.755,156.349Q40.413,4474.99-22.958,4607.2-86.449,4739.625-140.1,4859.041q-53.565,119.19-96.524,223.62-42.687,103.843-74.037,191.253-44.782,124.732-64.565,210.387c-13.04,56.3-17.9,99.458-14.837,129.666,3.024,29.618,13.643,46.648,31.652,51.389,17.577,4.537,42.1-2.706,73.229-21.374-32.493,21.032-58.12,30.128-76.514,26.854-18.862-3.343-30.118-19.555-33.459-48.865-3.388-29.844,1.318-73.058,14.381-129.643q19.834-86.156,65.078-212.308,31.43-87.725,74.5-192.515,43.112-104.864,97.139-225.064Q-90.161,4742.484-26.165,4609q63.628-132.781,136.283-276.829,38.934-77.287,80.13-157.088,41.082-79.556,84.2-161.4,42.958-81.415,87.781-164.785,44.613-83.017,90.9-167.446c83.109-151.687,168.844-304.364,255.716-455.494,85.042-148,170.788-293.905,255.909-435.6,83.075-138.227,165.217-271.974,245.313-399.388,77.947-124.027,153.78-241.732,226.44-351.615q134.043-202.735,254.4-395.045,117.057-186.977,223.927-367.827,104.557-176.967,201.382-351.1,95.314-171.391,184.864-342.929,18.605-35.659,36.4-70.193,17.77-34.517,34.8-68.011,16.986-33.442,33.243-65.861,16.321-32.454,31.788-63.77,61.138-123.435,111.7-231.26c33.709-71.615,64.111-138,91.317-198.586,27.127-60.564,51.082-115.443,71.8-163.784,20.771-48.467,38.313-90.522,52.616-125.356-14.2,35.3-31.708,77.788-52.457,126.619-20.7,48.682-44.67,103.811-71.854,164.66-27.2,60.745-57.7,127.4-91.488,199.268Q2498.124,194.213,2436.924,318.154Z" transform="translate(396.212 404.369)" fill="url(#linear-gradient-3)"/>
    </g>
    <g id="Group_245" data-name="Group 245" transform="translate(-495.244 -433.173)">
      <path id="Path_246" data-name="Path 246" d="M595.958,5928.012c-.807-.124-1.592-.25-17.883-10.334l-56.3-35.142c-7.367-4.547-20.044-12.631-22.419-14.723-.762-.785-1.512-1.591-2.229-2.422-.7-.875-1.409-1.74-2.069-2.682a21.175,21.175,0,0,1-1.944-2.821c-.613-1.057-1.25-2.068-1.819-3.138.784-.295,2.217-.819,18.361,9.107l56.869,35.46c13.348,8.357,20.635,14.1,21.965,16.054.546,1.046,1.1,2.024,1.683,3.012.579.922,1.193,1.854,1.773,2.786.648.841,1.285,1.705,1.955,2.5a21.5,21.5,0,0,0,2.058,2.342m-14.075-30.355a4.828,4.828,0,0,1-.239.659c-1.171.068-3.957.341-19.214-9l-57.142-35.643c-12.222-7.719-20.26-14.052-21.454-17.065-.341-1.443-.648-2.979-.955-4.524s-.579-3.116-.853-4.7c-.227-1.66-.454-3.286-.671-4.969-.182-1.728-.41-3.41-.546-5.2.068-.25.216-.6.319-.864,1.125-.307,4.57-1.284,19.668,7.891l57.71,35.858c11.869,7.583,20.078,14.8,20.919,18.475.125,1.729.251,3.457.421,5.083.159,1.683.307,3.353.523,4.911.2,1.6.432,3.138.7,4.627.227,1.558.523,2.99.807,4.457m-2.32-50.1c-1.91,4.172-12.495-1.114-21.079-6.265l-57.949-36.007c-12.131-7.651-19.9-15.144-20.317-19.452.057-2.172.159-4.343.307-6.617s.273-4.525.432-6.833c.193-2.342.421-4.7.637-7.083.273-2.479.523-4.934.784-7.368,1.126-4.217,9.63-2.341,21.647,4.867L562.5,5798.96c12.006,7.708,19.771,15.939,19.794,20.873-.33,2.479-.625,4.913-.875,7.254q-.409,3.582-.739,7.038c-.227,2.309-.443,4.594-.637,6.832-.182,2.263-.33,4.412-.478,6.595m9.88-70.261c-1.637,4.831-10.346,3.273-22.7-4.105l-58.734-36.233c-12.154-7.879-19.52-16.212-19.169-21.851.546-2.876,1.115-5.833,1.694-8.79s1.193-5.979,1.785-8.946c.659-3.082,1.3-6.152,1.967-9.3.7-3.1,1.41-6.31,2.137-9.482,2-5.548,11.153-4.524,23.319,2.695l59.119,36.392c12.143,7.822,19.487,16.895,18.668,23.181-.761,3.207-1.535,6.357-2.229,9.472-.716,3.069-1.4,6.151-2.08,9.2-.682,3.023-1.307,6.024-1.978,9-.626,2.979-1.206,5.855-1.8,8.767m22.409-90.533c-2.513,6.207-11.87,5.525-24.421-1.8L528.1,5648.511c-12.279-7.913-19.112-17.2-17.963-24.17.989-3.6,1.989-7.208,3.024-10.9,1.035-3.672,2.1-7.4,3.24-11.232,1.08-3.751,2.172-7.538,3.331-11.392,1.126-3.808,2.32-7.742,3.457-11.607,2.853-6.845,12.653-6.663,25.012.5l59.722,36.483c12.234,7.89,19.066,17.895,17.475,25.444q-1.842,5.867-3.627,11.677c-1.149,3.763-2.32,7.651-3.434,11.358-1.137,3.786-2.251,7.493-3.331,11.175-1.068,3.65-2.126,7.311-3.149,10.916m35.12-110.714c-3.366,7.549-13.325,7.72-26.081.455l-59.939-36.45c-12.12-7.924-18.691-18.3-16.69-26.456.842-2.468,1.66-4.912,2.5-7.368s1.706-5,2.535-7.436c.864-2.524,1.728-5.036,2.6-7.56.9-2.524,1.751-5.047,2.6-7.549.614-1.683,1.16-3.308,1.762-4.98.581-1.648,1.115-3.251,1.728-4.946.58-1.693,1.194-3.354,1.774-5.036.591-1.649,1.182-3.321,1.785-4.992,3.172-6.729,13.256-6.491,25.717.626l60.245,36.427c12.325,7.946,19.055,17.86,17.1,25.341-.6,1.648-1.251,3.423-1.842,5.071s-1.205,3.331-1.8,5c-.591,1.648-1.2,3.309-1.762,4.958-.6,1.66-1.217,3.353-1.762,4.946-.921,2.569-1.819,5.047-2.695,7.582-.932,2.594-1.762,5.049-2.66,7.539-.864,2.513-1.728,4.935-2.6,7.47-.83,2.467-1.683,4.9-2.524,7.355m41.463-113.9c-3.524,7.2-13.688,7.174-26.547-.08l-60.347-36.437c-12.4-7.992-18.771-17.816-16.52-25.843,1.546-4.1,3.126-8.288,4.729-12.46,1.592-4.207,3.206-8.379,4.844-12.654,1.66-4.275,3.32-8.538,4.945-12.769,1.626-4.251,3.32-8.583,5.025-12.891,3.763-7.595,14.279-7.891,26.876-.9l60.61,36.3c12.358,7.969,18.747,18.44,16.224,26.785-1.74,4.366-3.434,8.7-5.128,13-1.649,4.242-3.365,8.561-4.98,12.745-1.649,4.251-3.32,8.515-4.923,12.688s-3.24,8.379-4.809,12.517m48.592-122.037c-4.127,8.062-14.711,8.606-27.6,1.353l-60.768-36.222c-12.267-7.856-18.384-18.554-15.655-27.138,1.9-4.661,3.786-9.22,5.708-13.848,1.887-4.626,3.786-9.22,5.741-13.893,1.933-4.673,3.877-9.357,5.855-14.109,1.989-4.718,3.979-9.424,5.969-14.188,4.309-8.277,15.235-9.13,27.911-2.161L745.1,5256c12.4,7.868,18.441,18.885,15.394,27.969-2.035,4.786-4.013,9.527-6,14.234q-3.019,7.111-5.946,14.143c-1.944,4.672-3.888,9.345-5.821,13.961-1.9,4.582-3.8,9.209-5.7,13.8m56.9-133.792c-4.559,8.64-15.849,9.732-28.627,2.682l-61-36.027c-12.313-7.8-18.134-18.919-14.814-28.322,2.161-4.944,4.32-9.948,6.537-14.961s4.423-10.073,6.674-15.167c2.24-5.07,4.446-10.1,6.743-15.234,2.251-5.082,4.559-10.221,6.832-15.371,4.809-8.981,16.144-10.38,28.9-3.524l61.109,35.858c12.438,7.9,18.146,19.316,14.587,29.116q-3.428,7.71-6.867,15.406c-2.308,5.162-4.559,10.255-6.8,15.326-2.251,5.093-4.457,10.107-6.662,15.144-2.262,5.082-4.434,10.05-6.617,15.076m64.884-144.753c-5.082,9.335-16.713,10.961-29.594,4.037l-61.2-35.7c-12.335-7.788-17.781-19.4-13.984-29.447,2.467-5.32,4.922-10.7,7.4-16.064,2.456-5.377,4.991-10.834,7.47-16.2q3.786-8.134,7.572-16.3c2.581-5.491,5.082-10.915,7.663-16.405,5.309-9.629,17.02-11.506,29.822-4.787l61.28,35.438c12.393,7.937,17.861,19.692,13.779,30.129-2.58,5.526-5.139,11.029-7.662,16.451-2.558,5.514-5.094,10.95-7.595,16.383s-5.026,10.892-7.493,16.259c-2.524,5.445-4.991,10.789-7.458,16.211m72.353-154.609c-5.639,10.107-17.292,12.051-30.413,5.161l-61.325-35.279c-12.29-7.776-17.52-19.634-13.211-30.276,2.729-5.708,5.446-11.369,8.2-17.088q4.092-8.527,8.276-17.167c2.751-5.718,5.525-11.448,8.3-17.235,2.808-5.752,5.6-11.551,8.425-17.327,5.832-10.255,17.816-12.528,30.629-5.9l61.382,34.983c12.415,7.776,17.52,19.919,13.018,30.9-2.82,5.855-5.651,11.652-8.447,17.5-2.8,5.787-5.571,11.563-8.345,17.269-2.774,5.833-5.525,11.529-8.276,17.271q-4.093,8.594-8.209,17.19m79.334-163.4c-6,10.527-18.236,12.972-31.208,6.31l-61.337-34.858c-12.3-7.686-17.179-19.886-12.461-31.016,2.944-5.934,5.912-11.96,8.9-17.906,2.967-5.969,5.98-11.995,8.97-17.987,3.024-6.093,6.049-12.1,9.084-18.156,3.013-5.958,6.025-12.051,9.118-18.157,6.219-10.7,18.554-13.473,31.39-6.98l61.326,34.482c12.415,7.686,17.224,20.124,12.29,31.664-3.07,6.1-6.094,12.176-9.13,18.3-3.069,6.07-6.048,12.1-9.05,18.145q-4.519,9.124-8.982,18.111c-2.979,6.014-5.934,12.018-8.913,18.043m82.813-165.342c-5.321,8.811-16.724,10.039-29.878,3.331l-61.269-34.37c-12.324-7.447-17.77-18.259-13.814-27.57,2.535-4.922,5.048-9.891,7.572-14.768,2.535-4.946,5.094-9.949,7.629-14.882,2.581-4.969,5.093-9.892,7.685-14.917q3.838-7.452,7.72-14.95c5.321-8.708,17.019-10.119,29.8-3.615l61.28,33.937c12.426,7.5,17.826,18.5,13.791,27.991q-3.838,7.5-7.675,14.984-3.82,7.5-7.674,15.007c-2.547,5-5.093,10-7.595,14.962-2.569,4.991-5.071,9.9-7.572,14.86m71.955-140.171c-5.4,8.789-17.224,10.3-30.139,3.809l-61.224-33.823c-12.312-7.356-17.542-18.327-13.392-27.854,2.649-5.014,5.309-10.107,7.947-15.167,2.695-5.1,5.366-10.175,8.038-15.268,2.649-5.059,5.343-10.142,8.027-15.223s5.388-10.267,8.083-15.349c5.536-8.924,17.406-10.584,30.139-4.171l61.132,33.447c12.4,7.4,17.645,18.5,13.393,28.2-2.661,5.093-5.378,10.266-8.016,15.371-2.694,5.15-5.355,10.255-8.038,15.36q-3.974,7.657-7.97,15.349-4.007,7.638-7.981,15.325m75.333-143.741c-5.628,9.1-17.634,10.858-30.492,4.446l-61.1-33.323c-12.234-7.322-17.327-18.3-12.916-28.071,2.752-5.128,5.5-10.289,8.3-15.485q4.092-7.707,8.322-15.542c2.74-5.138,5.559-10.357,8.333-15.542,2.82-5.219,5.606-10.4,8.413-15.6,5.73-9.118,17.691-11.005,30.447-4.719l60.927,32.982c12.37,7.288,17.486,18.351,13.052,28.23-2.808,5.287-5.594,10.505-8.379,15.712-2.786,5.242-5.583,10.482-8.323,15.678-2.774,5.208-5.559,10.426-8.3,15.622-2.8,5.252-5.526,10.392-8.288,15.61m78.22-146.4c-5.81,9.254-17.861,11.165-30.731,4.854l-60.871-32.789c-12.233-7.162-17.167-18.156-12.6-28.082,2.854-5.241,5.719-10.46,8.584-15.724,2.876-5.242,5.764-10.551,8.63-15.792,2.91-5.287,5.775-10.539,8.686-15.849,2.877-5.219,5.8-10.528,8.664-15.758,5.935-9.277,17.941-11.29,30.64-5.15l60.757,32.391c12.3,7.185,17.281,18.259,12.666,28.3-2.888,5.3-5.753,10.619-8.652,15.917-2.876,5.333-5.764,10.642-8.618,15.906-2.865,5.321-5.741,10.664-8.6,15.894-2.876,5.309-5.708,10.574-8.561,15.883m80.8-148.573c-5.992,9.425-18.1,11.449-30.936,5.275l-60.643-32.22c-12.154-7-16.963-18.066-12.256-28.013q3.309-5.936,6.605-11.87c2.206-3.933,4.377-7.9,6.629-11.915q3.309-5.917,6.583-11.8c2.217-3.956,4.4-7.89,6.651-11.915.637-1.136,1.273-2.3,1.91-3.4.637-1.16,1.284-2.331,1.921-3.468s1.262-2.274,1.922-3.422c.636-1.159,1.261-2.3,1.921-3.444,5.162-7.788,16.668-8.88,29.3-2.8l60.507,31.856c12.267,6.958,17.7,16.974,13.8,25.558-.648,1.136-1.285,2.274-1.933,3.445-.614,1.136-1.239,2.274-1.887,3.434-.625,1.137-1.274,2.308-1.933,3.479-.637,1.159-1.285,2.342-1.91,3.479-2.183,3.957-4.4,7.981-6.572,11.926-2.206,4-4.377,7.97-6.56,11.938-2.205,4-4.377,7.992-6.571,11.926-2.206,4.025-4.389,7.992-6.549,11.949M1473.2,3866.21c-5.184,7.811-16.736,8.88-29.446,2.74l-60.427-31.607c-12.131-6.924-17.406-16.837-13.484-25.24,2.5-4.446,5.06-8.948,7.561-13.4,2.5-4.411,5.036-8.925,7.572-13.347,2.5-4.468,5.059-8.948,7.572-13.381s5.071-8.937,7.583-13.371c5.219-7.742,16.7-8.914,29.276-2.9l60.223,31.334c12.233,6.912,17.634,16.8,13.7,25.251-2.547,4.536-5.082,9.027-7.561,13.5-2.524,4.525-5.014,8.97-7.538,13.484-2.513,4.48-4.991,8.925-7.538,13.473-2.467,4.445-4.957,8.959-7.492,13.472m70.182-125.163c-5.2,7.776-16.781,8.948-29.469,2.944l-60.132-31.128c-12.063-6.821-17.281-16.633-13.325-24.978,2.592-4.537,5.127-8.936,7.663-13.358s5.1-8.891,7.64-13.325q3.82-6.616,7.617-13.256c2.592-4.491,5.116-8.914,7.686-13.325,5.23-7.731,16.735-8.88,29.242-3.013l59.961,30.765c12.154,6.8,17.463,16.622,13.472,25.069-2.5,4.434-5.059,8.971-7.595,13.394-2.547,4.479-5.059,8.914-7.583,13.415-2.536,4.445-5.094,8.947-7.595,13.381-2.535,4.514-5.036,8.959-7.583,13.416m70.75-124.436c-5.241,7.731-16.826,8.97-29.423,3.024l-59.847-30.617c-11.994-6.674-17.133-16.417-13.109-24.762,2.581-4.4,5.128-8.812,7.708-13.2,2.513-4.332,5.082-8.788,7.675-13.188,2.547-4.411,5.116-8.8,7.629-13.132,2.581-4.422,5.139-8.811,7.72-13.188,5.275-7.674,16.713-8.845,29.184-3.092l59.62,30.287c12.1,6.7,17.349,16.372,13.325,24.717-2.512,4.411-5.082,8.856-7.595,13.268-2.558,4.411-5.071,8.823-7.629,13.257-2.535,4.445-5.082,8.833-7.606,13.268q-3.87,6.7-7.651,13.358m71-123.31c-5.241,7.663-16.736,8.868-29.3,3.081l-59.529-30.094c-11.937-6.583-17.043-16.156-12.984-24.41,2.547-4.32,5.139-8.7,7.7-13.04s5.116-8.652,7.686-13.041q3.854-6.5,7.685-12.995c2.558-4.332,5.162-8.709,7.708-13.029,5.3-7.561,16.713-8.811,29.082-3.1l59.3,29.719c12.04,6.549,17.19,16.145,13.177,24.41-2.57,4.411-5.093,8.766-7.617,13.1-2.581,4.411-5.093,8.743-7.663,13.154-2.524,4.354-5.048,8.686-7.606,13.1-2.536,4.4-5.071,8.744-7.64,13.155m71.035-121.719c-5.253,7.561-16.679,8.731-29.151,3.035l-59.177-29.548c-11.869-6.458-16.929-15.905-12.882-24.023,2.592-4.309,5.1-8.527,7.686-12.836q3.82-6.413,7.7-12.893c2.536-4.252,5.105-8.5,7.675-12.813,2.558-4.275,5.139-8.572,7.708-12.813,5.241-7.424,16.61-8.629,28.889-3.036l58.916,29.2c11.937,6.458,17.122,15.8,13.12,23.943-2.558,4.321-5.048,8.573-7.629,12.9-2.547,4.343-5.06,8.606-7.618,12.927-2.524,4.332-5.071,8.675-7.595,12.938-2.547,4.354-5.082,8.675-7.64,13.018m70.784-119.82c-5.219,7.436-16.565,8.572-29,3L1739.2,3225.7c-11.8-6.3-16.838-15.53-12.79-23.534,2.536-4.207,5.1-8.425,7.663-12.677,2.547-4.173,5.1-8.425,7.629-12.563,2.57-4.275,5.1-8.436,7.674-12.654,2.547-4.172,5.07-8.345,7.652-12.574,5.184-7.265,16.474-8.424,28.718-2.99l58.506,28.707c11.88,6.287,17,15.508,13.029,23.477-2.513,4.173-5.048,8.425-7.572,12.666s-5.059,8.47-7.583,12.733c-2.5,4.173-5.037,8.459-7.583,12.734q-3.8,6.344-7.583,12.733m70.4-117.66c-5.241,7.356-16.542,8.516-28.844,3l-58.381-28.492c-11.7-6.23-16.679-15.325-12.666-23.147,2.524-4.1,5.082-8.3,7.595-12.393s5.059-8.266,7.572-12.335c2.524-4.1,5.059-8.2,7.571-12.3s5.048-8.209,7.572-12.279c5.218-7.185,16.394-8.322,28.514-2.922l58.131,28.116c11.779,6.23,16.838,15.28,12.95,23.022-2.49,4.127-5.037,8.311-7.515,12.427-2.5,4.115-4.979,8.231-7.492,12.4-2.49,4.1-5.014,8.3-7.5,12.415-2.524,4.162-5.025,8.368-7.5,12.483M1967,3019.081c-5.116,7.151-16.338,8.276-28.537,2.831l-57.948-27.968c-11.665-6.049-16.61-14.939-12.654-22.568,2.513-4.036,4.991-8.061,7.492-12.074,2.512-4.059,5.014-8.038,7.526-12.1q3.7-5.934,7.492-11.995c2.5-4.036,4.957-7.947,7.481-11.994,5.082-6.913,16.19-8.038,28.241-2.751l57.653,27.638c11.744,6.048,16.792,14.916,12.9,22.511-2.467,4.024-4.9,7.993-7.4,12.052-2.455,4.036-4.911,8.061-7.412,12.131-2.456,4.059-4.934,8.072-7.39,12.108-2.5,4.127-4.98,8.152-7.447,12.177m68.795-112.135c-5.059,6.958-16.144,7.981-28.286,2.718l-57.505-27.457c-11.585-5.923-16.508-14.632-12.62-22.045,2.49-3.99,4.946-7.856,7.436-11.8,2.478-3.911,4.9-7.765,7.39-11.733,2.445-3.877,4.912-7.742,7.356-11.665,2.456-3.843,4.911-7.754,7.379-11.6,5.082-6.855,16.064-7.867,28.025-2.694l57.233,27.059c11.574,6.014,16.633,14.61,12.8,22.045-2.434,3.911-4.855,7.845-7.265,11.722-2.479,3.979-4.877,7.844-7.3,11.778-2.456,3.979-4.923,7.935-7.333,11.847-2.444,3.968-4.9,7.958-7.311,11.824m67.7-108.974c-4.957,6.753-15.917,7.663-27.968,2.49l-57.085-26.888c-11.437-5.866-16.36-14.348-12.528-21.567,2.41-3.786,4.866-7.629,7.31-11.437,2.422-3.775,4.866-7.583,7.265-11.335,2.41-3.831,4.832-7.583,7.242-11.369,2.422-3.763,4.866-7.572,7.265-11.3,4.98-6.572,15.826-7.481,27.684-2.376l56.767,26.525c11.528,5.832,16.542,14.257,12.79,21.442-2.365,3.741-4.764,7.572-7.14,11.358-2.388,3.832-4.809,7.652-7.2,11.495-2.41,3.82-4.764,7.583-7.2,11.459-2.41,3.843-4.8,7.7-7.208,11.506M2170,2692.33c-4.889,6.515-15.747,7.413-27.673,2.3l-56.573-26.422c-11.358-5.753-16.27-13.95-12.541-20.953q3.582-5.508,7.151-11.028c2.421-3.741,4.764-7.344,7.14-11.028,2.4-3.672,4.763-7.322,7.151-11.017,2.354-3.6,4.729-7.276,7.083-10.891,4.923-6.333,15.667-7.219,27.389-2.205l56.232,26.081c11.448,5.7,16.485,13.882,12.813,20.84-2.331,3.615-4.662,7.333-7.026,11.005-2.354,3.695-4.7,7.4-7.026,11.074-2.354,3.706-4.7,7.4-7.071,11.085-2.331,3.706-4.708,7.458-7.049,11.165m65.157-102.152c-4.8,6.31-15.531,7.105-27.377,2.115l-56.084-25.888c-11.267-5.6-16.189-13.643-12.483-20.419,2.308-3.559,4.672-7.151,6.992-10.7s4.662-7.072,6.981-10.608l6.946-10.539c2.3-3.479,4.65-7,6.935-10.471,4.764-6.105,15.394-6.89,27.036-2l55.754,25.569c11.324,5.616,16.36,13.563,12.8,20.237-2.3,3.547-4.57,7.049-6.855,10.6-2.308,3.547-4.582,7.128-6.879,10.676s-4.581,7.117-6.867,10.676-4.6,7.2-6.9,10.755m63.588-98.366c-4.7,6.048-15.291,6.787-27,1.865l-55.583-25.4c-11.165-5.537-16.088-13.313-12.518-19.828q3.428-5.1,6.833-10.2c2.262-3.422,4.547-6.81,6.821-10.21s4.5-6.73,6.776-10.152c2.274-3.388,4.5-6.73,6.742-10.073,4.7-5.866,15.2-6.571,26.707-1.74l55.243,25.081c11.222,5.491,16.235,13.177,12.756,19.646-2.194,3.365-4.434,6.787-6.685,10.21-2.183,3.342-4.423,6.776-6.663,10.209-2.206,3.411-4.468,6.822-6.708,10.266-2.263,3.49-4.491,6.9-6.719,10.323m61.882-94.376c-4.536,5.707-14.973,6.367-26.57,1.512l-55.072-24.922c-11.062-5.4-16.019-12.881-12.552-19.111,2.24-3.332,4.468-6.606,6.685-9.858,2.206-3.285,4.389-6.491,6.594-9.743,2.229-3.275,4.445-6.537,6.617-9.744,2.217-3.263,4.388-6.458,6.583-9.664,4.56-5.616,14.871-6.173,26.263-1.421l54.766,24.58c11.085,5.412,16.133,12.847,12.813,19-2.149,3.218-4.354,6.5-6.48,9.743q-3.275,4.895-6.537,9.846-3.275,4.929-6.538,9.857c-2.183,3.286-4.354,6.583-6.571,9.926m60.757-91.25c-1.342,1.672-8.812,9.584-26.786,2.058l-54.572-24.4c-17.213-8.2-12.961-17.588-11.961-19.362,2.365-3.433,4.707-6.878,7.026-10.255,2.354-3.445,4.7-6.878,7-10.266,2.354-3.445,4.673-6.8,7-10.267,2.3-3.377,4.627-6.765,6.946-10.187,4.787-5.935,15.144-6.708,26.434-2.115l54.208,24.114c11.005,5.275,15.826,12.836,12.256,19.35-2.273,3.411-4.582,6.878-6.855,10.278-2.308,3.456-4.559,6.867-6.878,10.323s-4.627,6.935-6.89,10.334q-3.462,5.2-6.935,10.391m63.485-95.569c-4.65,5.923-15,6.753-26.376,2.115l-54-23.9c-10.846-5.2-15.542-12.7-11.937-19.111,2.251-3.32,4.491-6.662,6.787-10.039q3.343-5.014,6.742-10,3.36-5,6.708-10c2.262-3.343,4.491-6.651,6.73-9.993,4.6-5.776,14.837-6.617,26.024-2.081l53.663,23.636c10.88,5.208,15.724,12.62,12.279,18.964-2.206,3.354-4.4,6.708-6.617,10.062s-4.4,6.719-6.662,10.119c-2.194,3.377-4.4,6.708-6.617,10.062-2.251,3.434-4.457,6.764-6.719,10.175m61.348-93.512c-4.479,5.741-14.655,6.537-25.922,2.035l-53.5-23.466c-10.733-5.116-15.5-12.393-12.028-18.646q3.257-4.928,6.525-9.845c2.194-3.274,4.377-6.572,6.572-9.846,2.172-3.286,4.32-6.514,6.492-9.811,2.183-3.274,4.332-6.5,6.5-9.8,4.479-5.662,14.518-6.446,25.615-2.013l53.162,23.159c10.79,5.082,15.632,12.415,12.3,18.646-2.092,3.229-4.241,6.548-6.389,9.857s-4.252,6.549-6.4,9.857-4.3,6.605-6.446,9.891c-2.138,3.308-4.286,6.639-6.48,9.982m59.347-91.715c-4.354,5.662-14.371,6.469-25.535,2l-53-22.989c-10.665-5.014-15.4-12.187-12.074-18.35,2.08-3.172,4.218-6.4,6.332-9.63s4.207-6.435,6.322-9.641c2.137-3.251,4.218-6.423,6.321-9.664,2.081-3.184,4.184-6.412,6.276-9.584,4.343-5.594,14.279-6.412,25.239-2.069l52.708,22.727c10.722,5.037,15.553,12.2,12.335,18.338-2.069,3.251-4.115,6.447-6.208,9.7-2.035,3.206-4.115,6.458-6.2,9.72-2.069,3.172-4.15,6.435-6.23,9.687-2.1,3.252-4.2,6.515-6.287,9.755m57.517-90.055c-4.264,5.628-14.109,6.344-25.194,2.012l-52.514-22.647c-10.584-4.866-15.314-11.972-12.142-17.94,2.058-3.183,4.082-6.321,6.139-9.5,2.081-3.172,4.082-6.31,6.128-9.5s4.082-6.321,6.162-9.5c1.99-3.127,4.036-6.31,6.071-9.448,4.229-5.469,13.984-6.23,24.864-1.956l52.253,22.352c10.618,4.888,15.507,11.892,12.415,17.94-1.99,3.126-3.991,6.344-6,9.482-2.023,3.218-4.024,6.424-6.037,9.562-2.035,3.183-4.036,6.412-6.082,9.607-1.978,3.138-4,6.356-6.06,9.55m55.789-88.532c-4.138,5.514-13.893,6.3-24.831,1.967l-52.116-22.181c-10.516-4.809-15.292-11.767-12.176-17.713,1.956-3.07,3.945-6.219,5.958-9.345s3.979-6.208,5.946-9.357c1.967-3.081,3.957-6.219,5.924-9.3,2-3.126,3.945-6.219,5.946-9.334,4.093-5.389,13.757-6.219,24.535-1.978l51.855,21.92c10.528,4.854,15.428,11.79,12.427,17.7-1.933,3.1-3.888,6.264-5.81,9.346-1.967,3.172-3.933,6.321-5.867,9.4q-2.967,4.757-5.912,9.47c-1.933,3.092-3.9,6.242-5.878,9.4m54.174-87.2c-4.025,5.434-13.644,6.2-24.535,1.99l-51.707-21.84c-10.414-4.729-15.2-11.6-12.21-17.429,1.956-3.07,3.876-6.173,5.821-9.266,1.9-3.024,3.854-6.094,5.787-9.2,1.911-3.013,3.832-6.117,5.719-9.141,1.944-3.093,3.832-6.128,5.765-9.209,4.036-5.355,13.541-6.083,24.25-1.978l51.468,21.556c10.63,4.832,15.394,11.506,12.472,17.4-1.887,3.1-3.809,6.219-5.673,9.254-1.9,3.115-3.8,6.219-5.685,9.254-1.9,3.115-3.809,6.207-5.741,9.311-1.911,3.1-3.832,6.208-5.73,9.3m52.684-86c-3.888,5.31-13.437,6.128-24.227,1.956L2750.18,1654.1c-10.505-4.741-15.189-11.3-12.245-17.179,1.876-3.013,3.764-6.071,5.594-9.039,1.876-3.058,3.764-6.071,5.639-9.118s3.752-6.071,5.6-9.05c1.854-3.047,3.741-6.083,5.548-9.073,3.968-5.3,13.381-6.105,24-2.024l51.127,21.181c10.4,4.7,15.3,11.472,12.483,17.236-1.853,3.058-3.661,6.048-5.514,9.106s-3.706,6.106-5.56,9.164q-2.763,4.553-5.537,9.152c-1.853,3.047-3.729,6.083-5.594,9.152m51.3-84.882c-3.832,5.253-13.211,6-23.966,1.956l-50.979-21.113c-10.278-4.616-15.087-11.267-12.291-16.952,1.831-2.979,3.638-5.969,5.458-8.97,1.864-3.024,3.684-6.037,5.491-9.016q2.746-4.5,5.458-8.97,2.728-4.485,5.445-8.959c3.82-5.219,13.12-5.981,23.716-2.035l50.775,20.919c10.334,4.57,15.28,11.187,12.54,16.917-1.785,3-3.593,6.015-5.377,9.016-1.808,2.99-3.615,6.072-5.423,9.073s-3.582,6-5.412,9.061c-1.819,2.99-3.6,6-5.435,9.073m49.979-83.95c-3.718,5.173-13.029,5.946-23.693,1.956l-50.673-20.783c-10.232-4.513-15.053-11.085-12.335-16.724,1.785-2.933,3.569-5.935,5.366-8.948,1.762-2.922,3.581-5.923,5.332-8.857,1.8-3.012,3.559-5.946,5.31-8.868,1.808-3,3.547-5.969,5.332-8.948,3.752-5.173,12.938-5.935,23.421-1.944l50.513,20.51c10.289,4.547,15.212,11.085,12.54,16.758-1.728,2.967-3.49,5.969-5.218,8.913-1.8,3.024-3.524,5.969-5.3,8.982-1.751,2.956-3.536,5.969-5.3,8.959-1.739,2.956-3.524,5.98-5.3,8.993m48.819-83.188c-3.684,5.2-12.916,6-23.478,2.069l-50.4-20.533c-10.152-4.457-15-10.96-12.369-16.485q2.643-4.417,5.218-8.857c1.751-2.944,3.49-5.878,5.241-8.834,1.717-2.967,3.434-5.855,5.162-8.789,1.74-2.956,3.49-5.9,5.173-8.788,3.661-5.127,12.756-5.934,23.228-2.058l50.218,20.26c10.209,4.5,15.189,10.983,12.6,16.553q-2.592,4.434-5.139,8.891c-1.694,2.888-3.422,5.844-5.128,8.811-1.728,2.956-3.433,5.935-5.161,8.88-1.717,2.967-3.445,5.912-5.162,8.879m47.648-82.4c-3.593,5.139-12.722,5.946-23.239,2.035l-50.149-20.158c-10.107-4.434-14.962-10.846-12.4-16.36,1.717-2.933,3.422-5.833,5.083-8.732,1.728-2.956,3.411-5.855,5.116-8.754,1.693-2.956,3.388-5.855,5.07-8.754s3.389-5.867,5.071-8.777c3.57-5.082,12.575-5.855,23.012-2.092l49.956,20.044c10.165,4.4,15.11,10.858,12.6,16.383-1.671,2.911-3.308,5.821-5.025,8.789-1.671,2.91-3.331,5.832-5.025,8.788-1.649,2.922-3.365,5.878-5.025,8.789s-3.388,5.89-5.036,8.8m46.58-81.79c-3.547,5.116-12.54,5.9-23.045,2.081l-49.866-19.907c-10.05-4.32-14.95-10.687-12.415-16.2,1.648-2.9,3.319-5.81,4.945-8.641q2.506-4.382,4.979-8.743c1.671-2.9,3.354-5.821,4.969-8.652,1.637-2.922,3.319-5.832,4.957-8.754,3.513-5.025,12.495-5.912,22.829-2.1l49.707,19.737c10.164,4.309,15.132,10.675,12.643,16.235-1.637,2.91-3.286,5.832-4.889,8.7-1.637,2.922-3.274,5.833-4.923,8.766-1.671,2.911-3.309,5.821-4.957,8.743s-3.274,5.833-4.934,8.743m45.625-81.29c-3.467,5.071-12.461,5.935-22.841,2.1l-49.684-19.623c-9.982-4.3-14.905-10.573-12.449-16.053,1.614-2.853,3.251-5.764,4.866-8.63,1.66-2.921,3.251-5.775,4.889-8.685,1.6-2.877,3.251-5.8,4.866-8.652,1.625-2.91,3.24-5.764,4.843-8.64,3.479-5.059,12.347-5.912,22.636-2.195l49.547,19.453c10.062,4.355,15.03,10.653,12.676,16.088-1.638,2.933-3.229,5.787-4.843,8.732-1.6,2.865-3.217,5.8-4.809,8.652-1.637,2.933-3.263,5.855-4.843,8.72-1.637,2.945-3.263,5.855-4.854,8.731m44.7-80.892c-3.411,5.093-12.3,5.923-22.681,2.172l-49.433-19.4c-9.982-4.207-14.894-10.483-12.518-15.917,1.592-2.876,3.195-5.73,4.775-8.595,1.58-2.888,3.161-5.741,4.809-8.664,1.558-2.888,3.161-5.741,4.752-8.595,1.581-2.877,3.149-5.765,4.752-8.618,3.4-5.025,12.2-5.912,22.454-2.24l49.354,19.2c10.073,4.241,15.053,10.551,12.676,16-1.557,2.888-3.126,5.753-4.7,8.629-1.592,2.888-3.194,5.832-4.763,8.7s-3.138,5.765-4.719,8.629c-1.614,2.934-3.183,5.81-4.764,8.7m43.886-80.619c-3.343,5.059-12.188,5.923-22.545,2.262L3132.447,997.7c-9.959-4.172-14.882-10.38-12.529-15.826,1.581-2.888,3.138-5.753,4.685-8.561l4.707-8.641c1.569-2.876,3.092-5.7,4.65-8.572,1.58-2.888,3.138-5.765,4.672-8.584,3.354-5.037,12.1-5.9,22.318-2.308l49.171,19.009c10.188,4.24,15.064,10.334,12.768,15.8-1.558,2.876-3.1,5.776-4.662,8.663s-3.092,5.775-4.65,8.663c-1.535,2.819-3.07,5.707-4.639,8.595s-3.1,5.776-4.672,8.652m43.089-80.392c-3.274,5-12.063,5.924-22.386,2.285l-49.126-18.907c-9.971-4.1-14.871-10.3-12.574-15.689,1.535-2.831,3.069-5.719,4.616-8.607,1.523-2.808,3.059-5.719,4.593-8.538,1.535-2.9,3.058-5.73,4.616-8.606,1.489-2.831,3.047-5.707,4.548-8.538,3.308-5.071,12.029-6.025,22.181-2.4l49.092,18.713c9.959,4.184,15,10.357,12.722,15.792-1.512,2.9-3.047,5.776-4.548,8.629-1.545,2.9-3.058,5.8-4.57,8.618-1.535,2.91-3.058,5.741-4.57,8.641-1.546,2.876-3.047,5.719-4.593,8.606m43.714-82.87c-3.911,6.31-13.12,8.163-23.42,4.6l-49-18.68c-9.857-4.172-14.348-11.153-11.4-17.873,1.864-3.535,3.717-7.083,5.6-10.63q2.78-5.32,5.6-10.641c1.854-3.547,3.7-7.015,5.548-10.562,1.842-3.49,3.661-6.969,5.5-10.528,3.831-6.117,12.858-7.811,23.057-4.4l48.921,18.532c9.937,4.161,14.542,11.119,11.779,17.668-1.83,3.479-3.638,6.969-5.48,10.528-1.876,3.559-3.684,7.038-5.537,10.6-1.83,3.57-3.695,7.117-5.548,10.676-1.864,3.536-3.741,7.151-5.628,10.71m50.661-97.707c-3.706,6.026-12.768,7.709-23,4.184l-48.865-18.418c-9.88-4.036-14.5-10.835-11.778-17.235,1.8-3.434,3.513-6.811,5.275-10.233q2.626-5.065,5.207-10.107,2.609-5.065,5.23-10.119c1.728-3.365,3.457-6.742,5.15-10.039,3.626-5.9,12.528-7.492,22.682-4.036l48.8,18.293c9.937,4.082,14.655,10.766,12.1,17.02-1.717,3.376-3.434,6.764-5.15,10.13s-3.445,6.753-5.185,10.13c-1.728,3.354-3.479,6.81-5.218,10.186-1.728,3.433-3.468,6.8-5.241,10.243m47.5-93.454c-3.513,5.81-12.415,7.322-22.67,3.866l-48.751-18.19c-9.846-4.037-14.564-10.619-12.04-16.8,1.637-3.263,3.3-6.492,4.912-9.687,1.637-3.263,3.285-6.492,4.889-9.686,1.66-3.252,3.263-6.447,4.854-9.652,1.66-3.252,3.252-6.435,4.866-9.63,3.479-5.662,12.006-7.049,22.272-3.592l48.706,18.088c9.948,4.013,14.837,10.437,12.438,16.44-1.591,3.206-3.206,6.469-4.82,9.653q-2.405,4.826-4.878,9.721c-1.58,3.217-3.229,6.446-4.843,9.709-1.671,3.252-3.287,6.526-4.935,9.766M3441.882,554.4c-5.048,9.038-14.985,12.791-25.308,9.584L3367.88,546.01c-9.743-4.161-13.4-12.915-9.334-22.329,2.478-5.048,4.979-10.073,7.436-15.053,2.467-5.025,4.911-9.993,7.367-14.985,2.445-4.968,4.821-9.891,7.243-14.8s4.809-9.835,7.162-14.7c4.935-8.766,14.372-12.211,24.718-8.982l48.671,17.725c10,4.218,13.825,12.552,9.971,21.738-2.376,4.854-4.753,9.789-7.163,14.711-2.444,4.98-4.82,9.9-7.265,14.871-2.433,5-4.912,10.039-7.344,15.018-2.445,5.037-4.946,10.085-7.458,15.178m65.94-136.055c-4.6,8.345-14.188,11.653-24.466,8.448l-48.638-17.714c-9.789-4-13.768-12.244-10.2-20.954,2.229-4.673,4.423-9.289,6.617-13.893,2.229-4.6,4.412-9.22,6.571-13.78,2.183-4.536,4.321-9.106,6.48-13.665,2.126-4.468,4.286-9.027,6.4-13.518,4.332-7.936,13.745-11.074,23.887-7.867l48.682,17.474c9.869,4.07,14.109,12.04,10.744,20.442-2.126,4.49-4.241,8.97-6.39,13.541-2.137,4.548-4.3,9.106-6.5,13.734-2.149,4.559-4.354,9.152-6.526,13.757-2.194,4.639-4.434,9.311-6.663,14m58.71-124.924c-4.127,7.606-13.4,10.414-23.647,7.241l-48.706-17.417c-9.767-3.991-14.1-11.7-10.983-19.646,1.944-4.229,3.911-8.493,5.889-12.722,1.91-4.184,3.876-8.425,5.765-12.552,1.91-4.184,3.842-8.368,5.729-12.472q2.848-6.19,5.685-12.37c3.946-7.31,12.791-9.834,23.1-6.628l48.706,17.327c10.062,4,14.53,11.267,11.6,18.987q-2.779,6.105-5.673,12.358c-1.887,4.116-3.809,8.3-5.719,12.506-1.921,4.161-3.843,8.345-5.821,12.575-1.955,4.252-3.922,8.5-5.923,12.813m51.821-113.578c-3.672,6.855-12.688,9.232-22.921,6.048l-48.762-17.258c-9.811-3.866-14.45-11.074-11.778-18.271,1.682-3.82,3.434-7.663,5.139-11.483,1.683-3.82,3.365-7.538,5.048-11.358,1.671-3.741,3.354-7.481,4.968-11.176,1.671-3.718,3.309-7.413,4.958-11.085,3.411-6.424,12.233-8.573,22.363-5.367l48.853,17.076c9.994,3.866,14.826,10.778,12.4,17.588-1.626,3.684-3.308,7.424-4.946,11.108-1.682,3.74-3.33,7.481-5.035,11.279-1.683,3.741-3.377,7.549-5.094,11.346-1.694,3.809-3.434,7.674-5.2,11.551m45.17-101.812c-3.263,6.094-12.029,8.027-22.25,4.775L3592.364,65.8c-9.868-3.808-14.78-10.505-12.563-16.963q2.217-5.116,4.423-10.118c1.444-3.365,2.9-6.719,4.331-10.016,1.444-3.365,2.876-6.651,4.264-9.879,1.421-3.3,2.809-6.538,4.207-9.755,3.024-5.65,11.54-7.23,21.658-4L3667.663,22c10.153,3.9,15.234,10.027,13.188,16.144q-2.1,4.826-4.207,9.732c-1.444,3.286-2.876,6.605-4.332,9.96-1.421,3.285-2.888,6.64-4.343,10-1.478,3.343-2.967,6.776-4.445,10.187m38.45-89.18c-2.842,5.253-11.267,6.526-21.545,3.32l-49.023-16.9c-9.915-3.763-15.167-9.8-13.4-15.417,1.228-2.91,2.5-5.878,3.718-8.777s2.41-5.741,3.592-8.6c1.206-2.83,2.411-5.65,3.6-8.5,1.16-2.763,2.32-5.537,3.457-8.243,2.6-4.889,10.63-5.889,21-2.649l49.137,16.827c10.187,3.82,15.531,9.414,13.961,14.643-1.159,2.762-2.341,5.537-3.536,8.368-1.16,2.774-2.353,5.605-3.559,8.436-1.216,2.911-2.41,5.753-3.66,8.641-1.217,2.91-2.49,5.866-3.741,8.845M392.552,5677.094c33.857,22.4,52.048,41.929,54.163,57.892a340.613,340.613,0,0,0-2.183,43.339,173.922,173.922,0,0,0,3.627,33.983q3.275,14.545,9.357,24.568a45.776,45.776,0,0,0,14.859,15.395q-366.912-228.725-733.847-457.519a89.03,89.03,0,0,1-22.454-20.011A114.651,114.651,0,0,1-300.5,5346.16a179.337,179.337,0,0,1-10.584-37.234,306.262,306.262,0,0,1-4.321-46.012c1.239-1.932,2.888-4.5,4.116-6.389,13.836-2.661,27.638,3.354,49.865,16.031l653.979,404.538m67.158-18.35c-9.016,18.237-39.122,5.344-62.77-8.7l-656.536-405.2c-31.97-20.624-51.6-43.885-51.139-60.848,1.717-13.916,3.969-28.537,6.7-43.771,2.728-15.28,5.934-31.107,9.64-47.649q5.594-24.88,12.632-51.593,7.026-26.758,15.553-55.346,14.052-47.187,31.9-98.741,17.941-51.708,39.633-107.666t47.137-116.045q25.461-60.065,54.447-123.833c21.715-34.506,57.415-22.4,76.731-12.109l682.355,397.1c33.744,21.363,48.808,53.163,38.36,80.96q-29.93,65.827-56.7,127.54Q620.9,5194.5,597.459,5251.8q-23.381,57.163-43.385,109.679-19.97,52.406-36.381,99.866-9.943,28.755-18.623,55.641c-5.707,17.759-11.006,34.949-15.837,51.423Q476,5593.014,470.1,5615.667q-5.85,22.545-10.391,43.078m312.561-799.413c-15.155,27.217-46.716,32.436-82.37,13.631L7.091,4477.327c-32.448-20.533-45.4-50.82-33.835-79.073,12.495-25.774,25.41-52.071,38.633-78.516q19.885-39.905,40.8-80.63,20.874-40.655,42.794-82.313,21.879-41.577,44.783-84.052,29.537-54.76,60.689-110.907,31.073-56.005,63.566-113.09,32.487-56.926,66.294-114.852,33.732-57.8,68.795-116.409c16.69-24.3,48.841-29.651,81.915-13.7l677.819,361.665c33.471,19.5,46.762,49.888,33.937,77.334q-33.868,61.649-66.668,122.344-32.932,60.916-64.645,120.65-31.822,59.876-62.372,118.5-30.629,58.767-59.915,116.069-22.613,44.3-44.465,87.7-21.8,43.4-42.771,85.872t-41.031,83.814q-20.022,41.355-39.144,81.6m499.7-958.491c-16.6,25.75-49.888,31.5-84.78,14.768L510.234,3556.093c-31.5-18.441-42.907-47.193-29.037-73.32,1.148-1.853,2.274-3.718,3.445-5.605,1.114-1.819,2.274-3.707,3.4-5.571,1.125-1.785,2.274-3.683,3.41-5.514,1.16-1.876,2.285-3.729,3.445-5.583q47.579-77.287,96.638-154.643,48.62-76.827,98.5-153.393,49.473-75.958,99.776-151.336,49.95-74.814,100.378-148.4c24.251-26.547,59.268-16.349,77.959-7.89l657.094,324.34c32.437,17.44,46.136,42.953,34.983,64.986q-47.307,78.175-94.444,157.475-47.375,79.743-94.364,160.248-47.239,81.006-93.75,162.17-46.744,81.756-92.511,163.273c-1.115,1.979-2.217,3.923-3.332,5.913-1.091,1.966-2.149,3.854-3.251,5.821-1.1,1.989-2.206,3.933-3.32,5.934-1.08,1.91-2.161,3.865-3.286,5.844m456.962-779.494c-23.239,27.741-59.643,17.02-79.3,8.208L993.948,2807.2c-30.605-16.439-42.486-40.281-30.31-60.746q51.468-73.825,103.005-145.866,51.075-71.421,101.993-140.739,50.377-68.727,100.424-135.123,49.49-65.691,98.389-128.9c22.818-21.931,56.175-12.506,74.036-4.946l626.408,287.754c18.032,8.982,46.443,28.173,34.131,55.777q-44.613,67.533-90.169,137.794Q1966,2743,1919.366,2816.288q-46.949,73.86-94.478,149.948-47.836,76.589-95.956,155.11m435.474-680.639c-21.2,22.761-55.687,12.938-74.366,5.105l-624.578-285.969c-28.764-14.269-40.656-35.029-29.56-51.6q17.395-22.051,34.642-43.669,17.19-21.556,34.255-42.737,17.054-21.13,33.88-41.771,16.8-20.652,33.459-40.85,31.481-38.2,62.076-75.969,30.509-37.6,60.131-74.8,29.469-36.921,58.222-73.6,28.565-36.461,56.46-72.615c20.748-19.839,52.093-11.62,68.954-4.98l591.243,254.84c28.719,13.416,42.021,33.448,33.13,49.831q-25.376,38.507-51.354,77.436-26.076,39.07-52.788,78.595-26.859,39.77-54.367,80.039-27.7,40.469-56.039,81.438c-10.016,14.518-20.078,29.094-30.219,43.863-10.164,14.836-20.351,29.73-30.651,44.84s-20.669,30.412-31.061,45.783c-10.426,15.451-20.942,31.106-31.47,46.8m393.7-583.989c-19.089,20.93-51.457,12.392-69.034,5.412l-589.663-253.249c-16.133-7.5-41.372-23.568-29.241-46.738q42.157-55.767,82.836-111.089,40.3-54.777,79.209-109.27,38.609-53.992,75.934-107.779,37.042-53.379,72.9-106.564c17.565-18.623,47.228-11.346,63.315-5.309l566.493,229.85c16.337,7.2,42.407,22.625,33.823,45.545q-33.357,55.834-67.715,112.089-34.585,56.635-70.182,113.692-35.916,57.5-72.888,115.591-37.314,58.6-75.787,117.819m333.367-537.99c-16.554,19.43-47.227,11.858-64.031,5.571l-565.492-228.793c-15.553-6.73-40.179-21.442-30.811-43.18q34.653-52.56,68.26-105.085,33.46-52.253,65.839-104.494,32.283-52.066,63.611-104.21,31.226-52,61.541-104.108c15.406-18.418,44.011-11.9,59.7-6.413l552.554,211.626c27.286,11.358,40.861,28.275,34.529,43.191Q3108,937,3078.238,991.011q-29.911,54.231-60.5,108.531-30.713,54.538-62.178,109.155-31.635,54.913-64.088,110.031M3180.1,802.442c-15.712,21.056-62.5,10.346-62.963,10.232L2565.067,601.855c-.41-.148-38.36-23.125-30.106-44.965q17.941-31.55,35.04-62.349,17.088-30.679,33.414-60.609,16.269-29.827,31.8-58.915,15.484-29.009,30.3-57.244,25.359-48.416,48.615-94.421,23.243-45.943,44.544-89.51,21.3-43.419,40.646-84.439,19.39-41,36.961-79.425c16.656-26.9,45.4-22.739,61.03-17.861l549.507,194.276c15.814,6.321,40.986,21.34,31.754,51.594q-17.906,39.275-37.552,81.324-19.646,42.071-40.975,86.747-21.385,44.663-44.5,91.976-23.073,47.308-48.091,97.218-14.581,29.145-29.776,59.051-15.263,30.032-31.105,60.882-15.962,30.885-32.527,62.678-16.645,31.907-33.948,64.577M-314.054,5360.712c-1.262-.318-1.682-.364-14.848-8.55l-52.333-32.675c-8.459-5.275-19.282-12.085-22.545-14.758-1.262-1.045-2.467-2.171-3.649-3.308s-2.365-2.3-3.513-3.491c-1.171-1.159-2.263-2.455-3.365-3.683-1.1-1.263-2.206-2.547-3.229-3.9a3.587,3.587,0,0,0-.318-.59c1,0,2.842-.046,15.769,7.992l52.844,32.846c10.608,6.742,19.475,13.143,21.977,16.042,1.023,1.229,2.024,2.569,3.115,3.786,1.046,1.239,2.137,2.456,3.217,3.638,1.125,1.136,2.24,2.285,3.365,3.4,1.171,1.058,2.342,2.15,3.513,3.252m-27.252-37.859c.023.25.079.557.1.83-.773.318-2.6,1.1-16.656-7.48l-53.06-33.074c-8.777-5.537-19.009-12.893-21.351-16.974q-1.211-2.507-2.342-5.161c-.75-1.762-1.455-3.559-2.16-5.366-.67-1.9-1.33-3.8-2-5.651-.682-1.876-1.3-3.832-1.9-5.81a6.13,6.13,0,0,0,.034-1c.785-.558,3.172-2.069,17.134,6.469l53.526,33.255c11.04,6.958,19.191,14.144,20.829,18.145.534,2,1.137,3.9,1.762,5.777.557,1.9,1.194,3.74,1.876,5.571.659,1.784,1.33,3.581,2.023,5.332.7,1.706,1.41,3.479,2.183,5.139m-14.6-55.947c0,3.854-7.026,2.046-18.2-4.764l-53.777-33.357c-11.256-7.2-19-14.474-20.157-19.043-.329-2.354-.614-4.775-.864-7.2-.307-2.4-.58-4.832-.773-7.367-.238-2.467-.432-5-.6-7.561s-.307-5.162-.455-7.743c.364-4.559,7.777-3.217,18.884,3.445l54.186,33.54c11.164,7.128,18.85,15.132,19.543,20.373.068,2.614.194,5.2.352,7.7.114,2.58.262,5.093.466,7.537s.4,4.923.637,7.31.489,4.8.762,7.129m-1.353-74.309c-.922,5.093-8.573,4-19.987-2.751l-54.334-33.631c-11.335-7.3-18.588-15.394-18.861-21.191.159-3.047.375-6.116.557-9.187.227-3.046.455-6.174.693-9.277.307-3.194.6-6.355.9-9.527.319-3.263.66-6.5,1.035-9.8,1.251-5.64,9.368-5.094,20.635,1.5l54.754,33.7c11.256,7.265,18.4,16.133,18.236,22.477-.4,3.275-.8,6.56-1.137,9.732-.352,3.218-.67,6.377-1.011,9.562-.273,3.081-.534,6.2-.8,9.311-.273,3.047-.489,6.083-.682,9.085m12.347-92.8c-1.865,6.287-10.187,6.048-21.761-.716l-54.948-33.732c-11.21-7.253-18.043-16.428-17.486-23.284.694-3.707,1.353-7.345,2.081-11.13.717-3.695,1.456-7.47,2.229-11.278.739-3.787,1.523-7.584,2.353-11.461.83-3.9,1.671-7.753,2.547-11.687,2.183-6.889,10.983-7.117,22.443-.591l55.243,33.8c11.346,7.3,17.917,16.974,16.837,24.545-.875,3.9-1.785,7.868-2.626,11.722-.864,3.854-1.66,7.675-2.479,11.495-.773,3.74-1.569,7.538-2.285,11.232q-1.16,5.646-2.148,11.085m26.251-111.123c-2.762,7.572-11.778,8.1-23.511,1.387l-55.425-33.732c-11.267-7.333-17.6-17.235-16.053-25.4.659-2.421,1.318-4.866,2-7.322s1.364-4.922,2.046-7.377c.705-2.524,1.4-4.98,2.137-7.5.682-2.457,1.41-4.992,2.115-7.5.5-1.638.989-3.3,1.467-4.947.443-1.568.944-3.216,1.421-4.865s.978-3.3,1.444-4.946c.534-1.706,1.023-3.354,1.523-5.037,2.683-6.65,11.892-6.73,23.4-.169l55.721,33.72c11.414,7.265,17.747,16.815,16.189,24.182-.523,1.717-1.035,3.343-1.512,4.969-.489,1.671-1.035,3.376-1.523,5.014s-.989,3.3-1.455,4.922c-.512,1.671-.966,3.241-1.456,4.878-.739,2.535-1.467,5.037-2.194,7.549s-1.478,5.025-2.172,7.48c-.693,2.433-1.422,4.969-2.1,7.423-.7,2.445-1.4,4.9-2.058,7.277m34.8-112.646c-3.138,7.2-12.381,7.4-24.25.739l-55.812-33.7c-11.46-7.423-17.485-16.792-15.553-24.636,1.33-4.059,2.717-8.186,4.093-12.245,1.421-4.138,2.831-8.3,4.263-12.416q2.115-6.207,4.343-12.517c1.466-4.184,2.956-8.424,4.422-12.619,3.388-7.493,13.086-8.129,24.671-1.569l56.039,33.562c11.427,7.368,17.406,17.328,15.178,25.536-1.524,4.206-3.035,8.469-4.525,12.653-1.478,4.149-2.945,8.391-4.4,12.552-1.444,4.126-2.854,8.254-4.275,12.4-1.422,4.117-2.808,8.2-4.2,12.257m43.238-119.3c-3.707,7.8-13.484,8.6-25.422,1.945l-56.107-33.517c-11.369-7.276-17.077-17.417-14.609-25.762,1.716-4.491,3.456-8.96,5.219-13.5,1.728-4.468,3.479-8.981,5.252-13.495,1.8-4.593,3.57-9.107,5.4-13.7,1.8-4.559,3.672-9.209,5.5-13.769,4.025-8.106,14.109-9.164,25.831-2.763l56.277,33.392c11.448,7.345,17.02,17.758,14.234,26.569-1.9,4.639-3.74,9.277-5.56,13.848-1.83,4.548-3.649,9.119-5.434,13.678-1.808,4.582-3.581,9.084-5.344,13.608-1.785,4.5-3.5,8.971-5.241,13.461m52.764-129.825c-4.3,8.368-14.746,9.665-26.558,3.218l-56.391-33.289c-11.335-7.333-16.69-17.861-13.609-26.866,2.057-4.855,4.127-9.664,6.219-14.495,2.069-4.889,4.162-9.721,6.276-14.633,2.149-4.877,4.264-9.778,6.4-14.677s4.32-9.857,6.5-14.814c4.6-8.72,15.132-10.2,26.922-3.923l56.5,33.107c11.426,7.367,16.656,18.145,13.267,27.547-2.228,5.025-4.388,9.971-6.548,14.859-2.16,4.945-4.321,9.857-6.424,14.757-2.137,4.934-4.252,9.845-6.321,14.689-2.092,4.832-4.173,9.687-6.242,14.518m61.905-139.409c-4.923,9.005-15.769,10.676-27.7,4.389l-56.539-33.027c-11.358-7.243-16.326-18.168-12.586-27.832q3.514-7.691,7.14-15.484c2.422-5.128,4.809-10.3,7.265-15.553,2.387-5.128,4.877-10.347,7.31-15.577,2.467-5.229,4.98-10.482,7.447-15.689,5.2-9.311,16.145-11.232,27.958-4.98l56.641,32.721c11.461,7.311,16.315,18.4,12.325,28.423-2.5,5.287-4.98,10.494-7.47,15.758-2.456,5.242-4.911,10.449-7.356,15.689q-3.666,7.827-7.287,15.622c-2.376,5.172-4.775,10.368-7.151,15.541M-55.382,4339.4c-5.536,9.7-16.519,11.756-28.673,5.412l-56.619-32.629c-11.381-7.185-16.007-18.384-11.71-28.582,2.66-5.354,5.321-10.778,8.038-16.281,2.694-5.411,5.446-10.914,8.164-16.394,2.694-5.412,5.491-10.949,8.253-16.452s5.5-10.982,8.323-16.508c5.707-9.766,17.065-12.12,28.945-6.025L-34,4244.361c11.46,7.219,15.951,18.589,11.438,29.117q-4.2,8.271-8.356,16.621c-2.728,5.458-5.491,10.983-8.22,16.486-2.752,5.5-5.468,10.971-8.163,16.462q-4.11,8.254-8.083,16.349m78.72-155.61c-5.969,10-17.576,12.518-29.571,6.355l-56.721-32.22c-11.324-7.117-15.576-18.566-10.778-29.23,2.933-5.616,5.9-11.312,8.9-16.985,3-5.753,5.991-11.416,9-17.157,3.013-5.65,6.037-11.415,9.083-17.121,3.071-5.787,6.117-11.494,9.187-17.3,6.219-10.221,17.906-12.9,29.832-6.924l56.676,31.924c11.46,7.095,15.587,18.8,10.528,29.754-3.059,5.8-6.094,11.528-9.152,17.326-3.013,5.718-6.06,11.517-9.1,17.281-3.013,5.741-5.98,11.438-8.982,17.156-2.956,5.7-5.957,11.449-8.914,17.145m83.382-156.849c-5.3,8.322-16.155,9.652-28.275,3.388l-56.7-31.675c-11.381-6.935-16.11-17.1-12.086-25.865,2.536-4.662,5.15-9.38,7.7-14.03,2.57-4.662,5.185-9.4,7.754-14.075q3.923-7.077,7.777-14.087c2.6-4.7,5.23-9.413,7.833-14.132,5.355-8.265,16.485-9.686,28.366-3.751l56.63,31.481c11.46,6.958,16.179,17.236,12.029,26.173-2.6,4.7-5.252,9.493-7.845,14.2-2.592,4.752-5.2,9.447-7.765,14.188-2.615,4.741-5.161,9.413-7.743,14.121-2.535,4.684-5.116,9.391-7.674,14.064m73.342-132.542c-5.48,8.367-16.78,9.925-28.729,3.854l-56.608-31.254c-11.358-6.844-15.882-17.077-11.551-26.081,2.694-4.809,5.378-9.538,8.129-14.336,2.718-4.809,5.435-9.551,8.186-14.405q4.11-7.163,8.231-14.371c2.774-4.82,5.515-9.618,8.311-14.473,5.628-8.447,16.929-10.13,28.753-4.2l56.55,31.026c11.46,6.845,15.985,17.168,11.54,26.32-2.774,4.866-5.514,9.675-8.276,14.541-2.752,4.821-5.469,9.63-8.232,14.519q-4.093,7.214-8.175,14.462c-2.751,4.821-5.411,9.561-8.129,14.394m77.424-135.453c-5.764,8.55-17.2,10.3-29.151,4.4l-56.516-30.833c-11.3-6.8-15.644-17.088-11.05-26.286,2.842-4.854,5.661-9.675,8.538-14.575,2.865-4.844,5.752-9.743,8.641-14.655,2.876-4.878,5.719-9.71,8.606-14.587,2.888-4.9,5.787-9.777,8.686-14.677,5.912-8.64,17.315-10.414,29.162-4.65l56.414,30.538c11.414,6.753,15.735,17.156,11.1,26.377-2.922,4.957-5.8,9.868-8.663,14.779-2.911,4.957-5.8,9.846-8.652,14.758s-5.742,9.823-8.539,14.644q-4.28,7.418-8.573,14.768m81.1-137.714c-5.957,8.731-17.531,10.573-29.469,4.774l-56.391-30.333c-11.256-6.674-15.429-17-10.6-26.3,2.956-4.923,5.935-9.823,8.925-14.78q4.468-7.367,8.993-14.825c2.968-4.912,6-9.914,8.981-14.8,3.058-4.991,6.06-9.891,9.084-14.871,6.083-8.709,17.645-10.619,29.48-4.991l56.255,30c11.324,6.685,15.508,17.042,10.63,26.422q-4.536,7.486-9.038,14.939c-2.99,5-6,10.017-8.97,14.939q-4.52,7.5-8.97,14.95c-2.99,4.968-5.946,9.937-8.914,14.871m84.439-139.4c-6.2,8.812-17.906,10.858-29.776,5.094L337.082,3457.1c-11.278-6.514-15.246-16.861-10.244-26.161,2.308-3.74,4.616-7.435,6.913-11.142,2.319-3.763,4.593-7.379,6.9-11.073s4.662-7.447,6.958-11.154,4.639-7.424,6.947-11.119c.67-1.057,1.353-2.16,2.024-3.217.637-1.035,1.342-2.183,2.012-3.206.705-1.137,1.364-2.183,2-3.229.716-1.114,1.365-2.149,2.035-3.172,5.377-7.367,16.439-8.492,28.139-2.8l56.05,29.458c11.346,6.5,15.985,15.871,11.8,23.875-.671,1.058-1.353,2.138-2.012,3.218-.637,1.045-1.331,2.149-2,3.217-.682,1.115-1.341,2.195-2.024,3.286-.648,1.057-1.33,2.171-1.99,3.24-2.308,3.718-4.6,7.447-6.946,11.222-2.3,3.729-4.593,7.436-6.9,11.153-2.285,3.729-4.559,7.447-6.879,11.165-2.285,3.752-4.57,7.458-6.845,11.164m77.425-124.663c-5.378,7.355-16.485,8.367-28.321,2.706l-55.97-29.356c-11.244-6.31-15.758-15.552-11.529-23.421,2.683-4.218,5.332-8.4,8-12.574,2.649-4.138,5.287-8.322,7.982-12.507,2.649-4.138,5.332-8.334,8-12.506l7.993-12.483c5.469-7.3,16.486-8.345,28.2-2.854l55.846,29.06c11.278,6.446,15.871,15.655,11.6,23.58-2.649,4.172-5.3,8.379-7.947,12.563s-5.321,8.4-7.958,12.574c-2.661,4.263-5.344,8.459-7.993,12.665-2.638,4.184-5.264,8.379-7.9,12.552m74.32-116.967c-5.469,7.3-16.634,8.4-28.412,2.808l-55.744-28.844c-11.165-6.31-15.61-15.428-11.289-23.261,2.694-4.161,5.423-8.322,8.117-12.495,2.683-4.093,5.378-8.254,8.106-12.4,2.717-4.172,5.423-8.333,8.1-12.381,2.717-4.161,5.457-8.333,8.175-12.472,5.48-7.185,16.53-8.311,28.207-2.842l55.607,28.559c11.232,6.264,15.723,15.474,11.392,23.341q-4.025,6.207-8.084,12.472-4.042,6.276-8.083,12.506c-2.672,4.173-5.389,8.357-8.061,12.529s-5.344,8.311-8.027,12.483m75.343-116.1c-5.548,7.231-16.69,8.367-28.423,2.876l-55.5-28.423c-11.119-6.185-15.462-15.235-11.062-23.034,2.706-4.082,5.457-8.2,8.186-12.3s5.469-8.22,8.2-12.313c2.74-4.07,5.445-8.163,8.22-12.29,2.695-4.07,5.48-8.208,8.186-12.256,5.559-7.14,16.633-8.277,28.218-2.9l55.357,28.071c11.188,6.219,15.576,15.234,11.222,23.034-2.706,4.1-5.435,8.208-8.141,12.29q-4.127,6.259-8.14,12.415-4.11,6.19-8.163,12.369-4.076,6.225-8.152,12.461m76.049-114.908c-5.56,7.14-16.679,8.242-28.344,2.842l-55.277-27.888c-11.028-6.128-15.325-15.008-10.892-22.693,2.74-4.048,5.5-8.095,8.254-12.154,2.729-4.024,5.5-8.106,8.242-12.142s5.469-8.027,8.242-12.086q4.127-6.071,8.277-12.142c5.6-7.049,16.656-8.175,28.218-2.922l55.073,27.616c11.119,6.071,15.462,14.973,11.028,22.681-2.718,4.082-5.458,8.106-8.2,12.188-2.752,4.127-5.514,8.186-8.22,12.234-2.752,4.07-5.469,8.129-8.22,12.21-2.695,4.07-5.458,8.209-8.186,12.256m76.492-113.237c-5.559,6.969-16.667,8.072-28.264,2.785L719.394,2871.3c-10.983-5.946-15.212-14.746-10.755-22.284,2.751-3.979,5.536-8,8.288-11.971,2.728-3.968,5.537-8,8.288-11.972s5.5-7.925,8.322-11.938q4.127-5.969,8.277-11.881c5.56-6.912,16.622-8.06,28.071-2.854l54.754,27.138c11.073,6,15.394,14.734,10.948,22.25-2.729,3.99-5.492,8.026-8.231,12.006-2.706,3.957-5.514,8-8.242,12.018-2.763,4.036-5.458,7.981-8.22,12.051-2.729,4-5.514,8.027-8.243,12.086m76.64-111.384c-5.537,6.89-16.611,8-28.184,2.82L796.465,2760.4c-10.9-5.923-15.11-14.427-10.653-21.908,2.752-3.865,5.548-7.811,8.277-11.7,2.785-3.945,5.548-7.833,8.345-11.779,2.751-3.888,5.5-7.788,8.254-11.642,2.785-3.956,5.559-7.844,8.31-11.7,5.594-6.8,16.531-7.833,27.945-2.763l54.436,26.661c11.005,5.866,15.258,14.45,10.835,21.829-2.7,3.877-5.492,7.856-8.209,11.744-2.729,3.911-5.514,7.879-8.208,11.779-2.751,3.945-5.537,7.9-8.265,11.79-2.752,3.979-5.514,7.969-8.242,11.858m76.583-109.122c-5.548,6.742-16.611,7.89-28.093,2.763l-54.276-26.5c-10.88-5.776-15.03-14.223-10.505-21.556,2.717-3.8,5.491-7.606,8.266-11.471,2.74-3.786,5.48-7.572,8.242-11.4,2.74-3.786,5.526-7.651,8.277-11.46s5.525-7.629,8.277-11.392c5.526-6.583,16.406-7.617,27.741-2.581l54.106,26.126c10.926,5.8,15.189,14.121,10.778,21.363-2.763,3.877-5.48,7.674-8.208,11.517-2.729,3.82-5.446,7.617-8.209,11.517-2.718,3.8-5.458,7.675-8.174,11.494-2.763,3.9-5.446,7.686-8.22,11.585m76.2-106.518c-5.5,6.583-16.417,7.538-27.843,2.524l-53.935-26.024c-10.812-5.674-14.928-13.9-10.506-20.965,2.752-3.729,5.48-7.458,8.231-11.2,2.706-3.729,5.446-7.424,8.2-11.153s5.491-7.458,8.231-11.176c2.729-3.661,5.457-7.378,8.2-11.073,5.491-6.435,16.371-7.436,27.627-2.524l53.686,25.751c11.028,5.73,15.121,13.757,10.71,20.885-2.729,3.774-5.423,7.424-8.117,11.153q-4.077,5.594-8.164,11.21-4.024,5.61-8.163,11.278c-2.694,3.752-5.389,7.492-8.152,11.313m75.651-103.767c-5.457,6.355-16.349,7.344-27.672,2.388l-53.538-25.569c-10.732-5.548-14.825-13.609-10.426-20.51,2.695-3.593,5.435-7.219,8.152-10.858,2.695-3.593,5.435-7.219,8.141-10.835,2.728-3.6,5.4-7.208,8.106-10.778,2.763-3.661,5.423-7.22,8.14-10.79,5.48-6.276,16.258-7.219,27.422-2.353l53.344,25.194c10.778,5.548,14.939,13.563,10.607,20.43-2.672,3.6-5.366,7.254-8.06,10.846-2.695,3.672-5.366,7.277-8.061,10.915-2.683,3.672-5.389,7.265-8.05,10.926q-4.076,5.491-8.106,10.994m74.889-100.765c-5.435,6.23-16.2,7.083-27.422,2.206l-53.208-25.081c-10.63-5.434-14.724-13.279-10.392-19.964,2.695-3.491,5.412-7.072,8.084-10.562,2.694-3.5,5.377-7.015,8.072-10.505,2.683-3.513,5.366-7.026,8.027-10.46,2.66-3.5,5.366-6.992,8.061-10.494,5.354-6.014,16.008-6.855,27.138-2.1l52.9,24.785c10.721,5.446,14.859,13.233,10.619,19.85-2.627,3.456-5.276,6.969-7.947,10.494-2.638,3.536-5.3,7.049-7.97,10.573-2.66,3.5-5.332,7.095-7.993,10.619s-5.343,7.106-7.97,10.642m73.865-97.491c-5.32,5.947-16,6.765-27.138,1.99l-52.8-24.625c-10.54-5.355-14.609-12.972-10.335-19.453,2.626-3.365,5.309-6.776,7.936-10.153,2.672-3.434,5.3-6.788,7.936-10.164,2.626-3.354,5.286-6.719,7.958-10.141,2.614-3.365,5.264-6.742,7.856-10.028,5.355-5.866,15.883-6.605,26.888-1.91l52.514,24.308c10.653,5.332,14.792,12.927,10.608,19.282-2.592,3.365-5.207,6.753-7.811,10.13-2.638,3.445-5.264,6.822-7.856,10.21-2.649,3.422-5.241,6.821-7.867,10.277-2.661,3.434-5.253,6.822-7.89,10.278m72.774-94.114c-5.287,5.81-15.838,6.481-26.911,1.819l-52.378-24.159c-10.506-5.241-14.519-12.688-10.3-18.929,2.615-3.3,5.229-6.572,7.811-9.812,2.626-3.286,5.2-6.5,7.833-9.789,2.558-3.24,5.15-6.458,7.731-9.687s5.184-6.458,7.765-9.675c5.275-5.639,15.689-6.3,26.593-1.66l52.105,23.842c10.528,5.263,14.666,12.62,10.573,18.747q-3.838,4.878-7.663,9.732c-2.592,3.3-5.15,6.549-7.731,9.846-2.558,3.252-5.128,6.56-7.685,9.789q-3.888,4.98-7.742,9.937m71.375-90.441c-5.116,5.468-15.564,6.1-26.536,1.5l-51.957-23.728c-10.369-5.173-14.473-12.335-10.358-18.282,2.57-3.172,5.139-6.31,7.686-9.47,2.524-3.081,5.116-6.242,7.617-9.345,2.57-3.149,5.1-6.23,7.64-9.312s5.07-6.185,7.606-9.266c5.184-5.434,15.484-5.992,26.331-1.467l51.65,23.409c10.449,5.127,14.575,12.313,10.551,18.236-2.513,3.093-5,6.207-7.515,9.323-2.536,3.161-5.037,6.253-7.572,9.437-2.5,3.115-5,6.275-7.549,9.448s-5.07,6.344-7.595,9.516m69.932-86.759c-5.048,5.275-15.348,5.753-26.24,1.262l-51.491-23.307c-10.312-5.059-14.382-12.029-10.369-17.713,2.513-3.024,5.036-6.037,7.515-9.05,2.49-2.968,5.014-5.969,7.481-8.925,2.513-3.013,4.991-5.98,7.458-8.936q3.752-4.5,7.492-8.891c5.014-5.116,15.178-5.582,25.9-1.114l51.207,22.988c10.323,5.071,14.507,11.949,10.607,17.588-2.433,2.967-4.889,5.946-7.367,8.97-2.445,2.979-4.9,5.957-7.367,8.993s-4.923,6-7.4,9.038-4.946,6.071-7.424,9.1m68.931-83.632c-1.466,1.524-9.652,8.789-26.49,1.706l-51.081-22.829c-16.054-7.7-10.937-16.269-9.755-17.861q4.024-4.792,7.993-9.471c2.637-3.115,5.309-6.287,7.947-9.4s5.264-6.23,7.9-9.414c2.627-3.127,5.264-6.23,7.879-9.357,5.287-5.4,15.553-6.117,26.194-1.785l50.741,22.545c10.266,4.946,14.177,11.994,10.028,17.952-2.592,3.115-5.23,6.333-7.811,9.47s-5.184,6.265-7.833,9.471c-2.592,3.115-5.241,6.333-7.81,9.459-2.66,3.206-5.264,6.321-7.9,9.516m72.1-87.691c-5.15,5.446-15.382,6.128-26.07,1.762l-50.593-22.374c-10.107-4.877-13.962-11.813-9.823-17.668,2.581-3.138,5.139-6.208,7.674-9.3,2.569-3.081,5.07-6.094,7.617-9.164s5.082-6.185,7.64-9.243c2.49-3.036,5.025-6.116,7.583-9.209,5.059-5.32,15.166-5.98,25.683-1.74l50.274,22.136c10.209,4.832,14.189,11.767,10.164,17.6-2.5,3.115-4.957,6.139-7.458,9.254-2.524,3.093-5.025,6.208-7.549,9.3s-5.036,6.185-7.526,9.3c-2.535,3.092-5.06,6.173-7.618,9.345m69.432-86.121c-4.945,5.321-14.985,6.014-25.581,1.717l-50.115-21.965c-10.061-4.741-13.984-11.551-10.005-17.338,2.468-3.047,4.923-6,7.368-9.05,2.49-3.035,4.889-6.026,7.356-9.073s4.877-6.025,7.344-9.072c2.422-2.979,4.878-6.026,7.277-9.016,4.945-5.252,14.848-5.923,25.285-1.751l49.865,21.67c10.05,4.82,14.087,11.619,10.255,17.326-2.41,3.07-4.775,6.083-7.208,9.152-2.4,2.979-4.809,6.06-7.254,9.118-2.4,2.99-4.821,6.06-7.254,9.118s-4.866,6.117-7.333,9.164m66.953-84.678c-4.786,5.253-14.689,5.935-25.194,1.774L1673.1,1633.62c-9.948-4.7-13.938-11.369-10.141-17.008,2.388-2.99,4.741-5.935,7.117-8.936,2.4-3,4.752-5.958,7.117-8.959,2.342-2.945,4.672-5.889,7.06-8.9,2.331-2.933,4.684-5.889,7.037-8.9,4.776-5.173,14.553-5.855,24.9-1.762l49.433,21.317c10.005,4.718,14.087,11.38,10.391,17.054-2.319,2.956-4.65,5.98-6.969,8.948-2.319,3.047-4.639,5.992-6.992,9.016-2.319,2.967-4.672,5.98-7.026,8.993-2.342,2.968-4.684,5.992-7.049,8.993m64.623-83.393c-4.673,5.23-14.394,5.855-24.808,1.751l-49.308-21.169c-9.914-4.593-13.9-11.187-10.266-16.736,2.3-2.979,4.616-5.934,6.878-8.833,2.331-2.967,4.616-5.923,6.89-8.834,2.251-2.9,4.559-5.878,6.821-8.766,2.285-2.99,4.536-5.9,6.8-8.811,4.6-5.082,14.223-5.776,24.478-1.751l49.07,20.953c9.948,4.6,14.075,11.187,10.539,16.724-2.274,2.967-4.5,5.912-6.776,8.891-2.228,2.922-4.491,5.9-6.719,8.834-2.3,2.99-4.525,5.9-6.81,8.879-2.263,2.967-4.548,5.969-6.787,8.868m62.394-82.211c-4.536,5.128-14.109,5.844-24.454,1.774l-48.9-20.862c-9.812-4.537-13.882-10.994-10.392-16.463,2.251-2.911,4.468-5.855,6.651-8.72,2.24-2.911,4.456-5.844,6.651-8.72,2.217-2.911,4.4-5.787,6.583-8.641,2.228-2.945,4.388-5.81,6.617-8.743,4.457-5,13.916-5.685,24.091-1.717l48.706,20.59c9.891,4.547,14.064,10.994,10.63,16.519-2.149,2.865-4.343,5.821-6.481,8.7-2.206,2.956-4.365,5.821-6.56,8.766s-4.366,5.832-6.56,8.777-4.411,5.866-6.583,8.743m60.371-81.2c-4.366,5.059-13.825,5.753-24.1,1.8l-48.569-20.487c-9.744-4.491-13.848-10.892-10.448-16.337,2.16-2.876,4.274-5.7,6.423-8.6,2.149-2.876,4.264-5.7,6.412-8.583,2.1-2.831,4.24-5.708,6.344-8.55,2.138-2.888,4.264-5.707,6.39-8.606,4.366-4.991,13.689-5.662,23.8-1.808l48.365,20.317c9.823,4.445,14.041,10.823,10.71,16.315-2.081,2.82-4.2,5.741-6.276,8.572-2.115,2.922-4.229,5.821-6.321,8.641-2.126,2.91-4.229,5.809-6.321,8.641q-3.206,4.349-6.4,8.686m58.449-80.266c-4.241,4.991-13.609,5.718-23.75,1.762l-48.273-20.18c-9.687-4.354-13.87-10.63-10.562-16.064,2.081-2.831,4.139-5.685,6.231-8.527,2.012-2.785,4.115-5.628,6.173-8.47,2.081-2.842,4.116-5.628,6.185-8.459,2.046-2.865,4.116-5.707,6.139-8.493,4.252-4.969,13.473-5.719,23.523-1.9l48.058,19.976c9.766,4.411,14.007,10.733,10.79,16.1-2.035,2.876-4.059,5.741-6.106,8.607-2.012,2.8-4.059,5.65-6.116,8.5s-4.093,5.719-6.15,8.584-4.082,5.719-6.14,8.561m56.6-79.471c-4.138,4.957-13.313,5.628-23.42,1.8L1979,1228.866c-9.629-4.332-13.813-10.539-10.652-15.872,1.989-2.808,4.013-5.594,6.048-8.458,1.979-2.8,3.99-5.605,5.98-8.413s3.99-5.6,6-8.413c1.989-2.808,3.979-5.6,5.969-8.425,4.127-4.934,13.222-5.673,23.2-1.876l47.773,19.646c9.687,4.343,13.962,10.607,10.9,15.906-1.956,2.831-3.946,5.628-5.89,8.458-2.023,2.888-4,5.7-5.98,8.516s-3.99,5.685-5.969,8.516c-1.989,2.808-3.968,5.628-5.98,8.481m54.925-78.823c-4.036,4.923-13.143,5.662-23.159,1.853l-47.716-19.532c-9.584-4.24-13.791-10.437-10.732-15.747,1.91-2.762,3.888-5.582,5.821-8.333,1.967-2.819,3.888-5.582,5.855-8.4,1.933-2.763,3.888-5.594,5.81-8.345,1.921-2.774,3.888-5.594,5.81-8.334,3.99-4.889,13-5.65,22.886-1.944l47.558,19.373c9.64,4.252,13.961,10.459,10.959,15.78-1.91,2.774-3.809,5.537-5.741,8.4-1.91,2.763-3.843,5.594-5.788,8.436-1.91,2.774-3.842,5.605-5.741,8.379-1.966,2.831-3.911,5.661-5.821,8.413m53.31-78.2c-3.934,4.889-12.938,5.651-22.9,1.876l-47.478-19.225c-9.516-4.2-13.756-10.335-10.778-15.61,1.876-2.751,3.763-5.548,5.662-8.323s3.786-5.571,5.639-8.277q2.831-4.178,5.673-8.356c1.887-2.774,3.718-5.5,5.616-8.277,3.877-4.832,12.779-5.605,22.636-1.967l47.3,19.112c9.584,4.241,13.927,10.368,11.063,15.621-1.864,2.774-3.741,5.571-5.56,8.3q-2.8,4.195-5.616,8.391c-1.854,2.785-3.752,5.582-5.617,8.356-1.876,2.8-3.752,5.571-5.639,8.379m51.821-77.754c-3.843,4.866-12.723,5.627-22.659,1.955l-47.216-18.975c-9.5-4.2-13.8-10.21-10.926-15.451,1.83-2.729,3.695-5.514,5.5-8.266,1.831-2.728,3.672-5.525,5.5-8.265s3.672-5.537,5.491-8.265c1.819-2.752,3.626-5.5,5.446-8.231,3.82-4.866,12.608-5.594,22.42-2l47.069,18.827c9.573,4.138,13.95,10.2,11.142,15.474-1.8,2.763-3.593,5.5-5.435,8.311-1.785,2.74-3.593,5.5-5.423,8.311-1.819,2.74-3.615,5.491-5.457,8.3-1.819,2.74-3.649,5.548-5.457,8.277m50.331-77.3c-3.718,4.843-12.483,5.594-22.4,2l-47.012-18.771c-9.448-4.081-13.768-10.1-10.994-15.314,1.8-2.752,3.57-5.435,5.355-8.186s3.559-5.514,5.355-8.277,3.536-5.435,5.321-8.2,3.559-5.514,5.343-8.277c3.707-4.786,12.415-5.616,22.17-2.058L2270.8,886.4c9.561,4.047,13.95,10.119,11.221,15.36-1.762,2.774-3.513,5.469-5.275,8.232s-3.513,5.525-5.287,8.288-3.547,5.537-5.332,8.3c-1.762,2.752-3.536,5.525-5.333,8.277m49.036-77.026c-3.627,4.8-12.324,5.582-22.2,2.035l-46.8-18.509c-9.413-4.047-13.756-10.027-11.084-15.2,1.728-2.706,3.479-5.468,5.218-8.174,1.751-2.774,3.467-5.491,5.207-8.265,1.739-2.694,3.491-5.48,5.208-8.186,1.762-2.785,3.456-5.5,5.161-8.209,3.638-4.81,12.279-5.628,21.954-2.092l46.739,18.293c9.482,4.092,13.916,10.027,11.3,15.234-1.716,2.786-3.422,5.5-5.162,8.288-1.705,2.717-3.444,5.5-5.139,8.231-1.74,2.785-3.445,5.491-5.185,8.276s-3.445,5.492-5.218,8.277M2357.613,781c-3.581,4.82-12.222,5.65-21.987,2.069l-46.637-18.259c-9.38-4.013-13.779-9.925-11.176-15.064,1.682-2.728,3.376-5.445,5.059-8.174s3.411-5.526,5.1-8.254,3.365-5.446,5.06-8.186,3.342-5.457,5.013-8.2c3.536-4.786,12.1-5.651,21.795-2.194l46.568,18.122c9.47,3.991,13.938,9.948,11.381,15.1-1.694,2.8-3.388,5.548-5.048,8.288s-3.332,5.468-5.037,8.288c-1.66,2.74-3.354,5.456-5.014,8.208-1.728,2.786-3.4,5.526-5.083,8.254m46.6-76.742c-3.479,4.82-12.085,5.708-21.84,2.24L2335.9,688.409c-9.368-3.945-13.8-9.834-11.255-15.018,1.648-2.741,3.331-5.492,4.979-8.243,1.637-2.672,3.274-5.412,4.934-8.163s3.274-5.423,4.922-8.174,3.3-5.514,4.923-8.174c3.468-4.821,11.915-5.662,21.6-2.3l46.386,17.941c9.425,3.968,13.938,9.857,11.46,15.053q-2.421,4.058-4.889,8.208-2.438,4.144-4.923,8.265c-1.592,2.695-3.251,5.435-4.889,8.2-1.66,2.74-3.286,5.5-4.935,8.254m45.443-76.731c-3.422,4.855-11.9,5.753-21.624,2.285l-46.364-17.85c-9.5-3.922-13.871-9.63-11.347-14.905,1.615-2.694,3.218-5.457,4.833-8.163,1.614-2.763,3.206-5.457,4.832-8.22s3.206-5.468,4.82-8.231q2.388-4.059,4.787-8.163c3.388-4.786,11.79-5.73,21.454-2.376l46.273,17.7c9.425,3.889,13.961,9.778,11.528,15.008-1.626,2.786-3.195,5.491-4.787,8.265-1.581,2.706-3.183,5.469-4.8,8.243-1.592,2.694-3.194,5.469-4.786,8.186-1.6,2.751-3.229,5.525-4.821,8.22m45.807-79.186c-4.059,6.071-12.972,7.822-22.716,4.513l-46.216-17.679c-9.312-3.911-13.313-10.6-10.221-16.963q2.933-5.116,5.878-10.232c1.967-3.41,3.877-6.765,5.833-10.175,1.921-3.343,3.842-6.7,5.775-10.119,1.91-3.343,3.832-6.708,5.73-10.05,3.945-5.889,12.688-7.595,22.318-4.332l46.147,17.486c9.368,3.922,13.529,10.54,10.584,16.815-1.91,3.365-3.8,6.719-5.719,10.153-1.921,3.354-3.82,6.719-5.764,10.13-1.9,3.354-3.854,6.8-5.776,10.2q-2.933,5.133-5.855,10.255m52.616-93.591c-3.809,5.81-12.54,7.413-22.238,4.115l-46.091-17.44c-9.289-3.808-13.438-10.323-10.619-16.428,1.83-3.32,3.661-6.549,5.457-9.812,1.8-3.229,3.616-6.48,5.423-9.721,1.8-3.263,3.581-6.515,5.343-9.71,1.8-3.228,3.547-6.423,5.355-9.686,3.672-5.616,12.222-7.163,21.829-3.922L2558.61,399.4c9.5,3.934,13.722,10.152,10.959,16.292-1.762,3.194-3.536,6.446-5.3,9.652q-2.66,4.894-5.344,9.766c-1.8,3.252-3.6,6.5-5.366,9.766-1.842,3.32-3.649,6.56-5.48,9.868m48.934-89.794c-3.57,5.593-12.108,7.049-21.829,3.843l-46-17.236c-9.277-3.8-13.575-10.062-10.994-15.951,1.705-3.161,3.4-6.3,5.059-9.357,1.706-3.161,3.343-6.231,5.048-9.38,1.626-3.07,3.3-6.173,4.923-9.255,1.66-3.092,3.309-6.162,4.945-9.243,3.5-5.479,11.722-6.878,21.431-3.569l46,17.054c9.516,3.854,13.859,9.891,11.335,15.746-1.615,3.092-3.274,6.173-4.912,9.266s-3.286,6.173-4.968,9.334c-1.637,3.081-3.32,6.23-4.968,9.323q-2.524,4.707-5.07,9.425m53.7-101.846c-5.1,8.754-14.655,12.4-24.433,9.312l-45.988-16.963c-9.175-3.911-12.437-12.267-8.288-21.374q3.786-7.3,7.5-14.507c2.524-4.843,4.991-9.641,7.447-14.439,2.479-4.8,4.912-9.527,7.356-14.337q3.633-7.111,7.22-14.155c4.912-8.527,13.984-11.847,23.8-8.834l45.966,16.77c9.448,3.99,12.882,11.949,8.925,20.851q-3.547,7.008-7.208,14.223c-2.41,4.752-4.866,9.561-7.344,14.371-2.422,4.8-4.9,9.6-7.413,14.45-2.49,4.866-4.979,9.721-7.538,14.632m66.328-131.417c-4.525,8.083-13.734,11.335-23.5,8.345l-45.965-16.7c-9.187-3.843-12.825-11.744-9.221-20.158,2.217-4.513,4.411-8.97,6.583-13.427,2.251-4.525,4.377-8.914,6.571-13.37,2.114-4.388,4.275-8.788,6.412-13.189s4.252-8.788,6.367-13.131c4.275-7.7,13.234-10.755,22.841-7.776L2733.1,58.829c9.3,3.82,13.177,11.506,9.857,19.6-2.057,4.343-4.217,8.743-6.332,13.143-2.137,4.4-4.275,8.812-6.446,13.257s-4.332,8.925-6.526,13.37c-2.183,4.468-4.389,8.982-6.617,13.495m58.142-121.059c-4.059,7.413-12.938,10.266-22.613,7.231L2706.58,1.426c-9.231-3.786-13.245-11.153-10.2-18.884,1.944-4.15,3.877-8.254,5.81-12.358,1.91-4.116,3.774-8.152,5.685-12.256,1.887-4.035,3.751-8.083,5.582-12.074s3.695-8.038,5.491-11.949c3.774-7.061,12.4-9.652,22.011-6.663l46.045,16.326c9.493,3.843,13.608,10.846,10.778,18.293-1.819,3.968-3.672,8.016-5.525,12.006-1.865,4.047-3.718,8.095-5.616,12.142-1.887,4.1-3.775,8.163-5.673,12.245-1.921,4.116-3.877,8.288-5.787,12.381m50.457-110.349c-3.559,6.685-12.108,9.072-21.829,6.1l-46.057-16.246c-9.266-3.718-13.574-10.665-11-17.657,1.659-3.752,3.3-7.424,4.945-11.176q2.456-5.508,4.889-11.051c1.626-3.66,3.207-7.31,4.81-10.9,1.58-3.626,3.126-7.162,4.684-10.744,3.3-6.344,11.6-8.413,21.2-5.446l46.146,16.144c9.391,3.694,13.984,10.3,11.62,16.985-1.546,3.57-3.149,7.186-4.729,10.8s-3.172,7.242-4.81,10.926c-1.614,3.683-3.24,7.356-4.922,11.1-1.615,3.7-3.287,7.424-4.946,11.165m43.191-99.128c-3.115,6-11.369,7.879-21.067,4.843l-46.193-16.065c-9.3-3.638-13.95-10.039-11.858-16.3,1.444-3.377,2.842-6.674,4.2-9.926,1.4-3.3,2.763-6.56,4.127-9.789,1.353-3.251,2.694-6.435,4.025-9.607,1.33-3.263,2.638-6.367,3.979-9.55,2.842-5.582,10.7-7.186,20.43-4.116l46.273,16.03c9.6,3.65,14.371,9.6,12.449,15.542-1.331,3.172-2.638,6.355-3.968,9.55-1.342,3.172-2.694,6.423-4.07,9.653-1.375,3.252-2.729,6.5-4.127,9.812s-2.8,6.606-4.2,9.925m36.166-87.133c-2.638,5.2-10.619,6.561-20.305,3.525l-46.318-15.985c-9.346-3.6-14.313-9.4-12.7-14.848,1.182-2.922,2.342-5.787,3.457-8.572,1.148-2.877,2.262-5.674,3.387-8.459s2.206-5.536,3.286-8.265,2.172-5.469,3.229-8.141c2.433-4.741,9.982-5.821,19.749-2.728l46.42,15.86c9.675,3.6,14.712,9.027,13.246,14.143-1.046,2.649-2.161,5.378-3.229,8.129-1.148,2.774-2.228,5.514-3.342,8.322-1.114,2.786-2.24,5.582-3.411,8.447-1.148,2.854-2.308,5.719-3.467,8.573m-31.47-132.178-44.044-15.019c-12.711,34.051-28.548,75.037-47.705,122.174-19.112,47.068-41.565,100.3-67.521,158.918C2688.287-93.5,2658.761-29.374,2625.4,39.558Q2575.249,143.194,2513,261.359q-15.826,29.947-32.607,60.882c-11.187,20.635-22.613,41.509-34.4,62.792-11.756,21.2-23.887,42.828-36.279,64.679q-18.64,32.879-38.257,66.646-94.427,162.71-198.131,323.328-105.58,163.478-222.518,327.228-119.718,167.57-253.692,338.347-138.034,175.842-294.189,358.186c-84.724,98.81-172.073,205.18-260.923,317.644-91.181,115.488-183.692,237.093-276.248,363.28-94.762,129.176-189.206,262.639-281.831,398.558-94.478,138.624-186.7,279.193-274.964,419.478q-49.132,78.088-95.979,154.939-47.119,77.321-91.773,153.041-44.817,76.043-87.042,150.357-42.327,74.44-81.813,146.833-73.519,134.674-136.385,260.48Q-246.9,4353.931-298,4468.8q-50.992,114.635-89.419,216.572-38.166,101.418-63.087,188.41-24.694,86.156-35.756,155.667-11,68.933-8.549,120.833,2.354,51.365,17.769,85.632,15.127,33.852,42.646,50.957,543.743,339.063,1087.372,678.115-15.741-9.908-20.43-38.246-4.707-28.871,2.217-76.765,7.06-48.468,26.024-116.034,19.117-68.027,50.377-155.269c20.965-58.472,45.875-122.787,74.514-192.492Q828.788,5281.265,882.8,5161.1q53.856-119.972,117.876-253.453,63.662-132.763,136.294-276.817,38.951-77.271,80.152-157.077,41.049-79.573,84.178-161.4,42.975-81.448,87.781-164.8,44.647-83,90.874-167.458c83.131-151.676,168.866-304.353,255.727-455.483,85.064-148,170.822-293.916,255.92-435.588,83.085-138.261,165.228-271.974,245.313-399.4,77.958-124.038,153.791-241.743,226.44-351.615q134.06-202.718,254.4-395.045,117.091-186.961,223.928-367.827,104.574-176.95,201.382-351.092,95.314-171.408,184.874-342.929,18.589-35.676,36.393-70.2,17.77-34.5,34.8-68,17.02-33.443,33.255-65.873,16.32-32.436,31.8-63.769,61.1-123.435,111.691-231.261c33.709-71.614,64.122-137.988,91.306-198.585C3694.323,122.871,3718.289,68,3739,19.662c20.76-48.49,38.314-90.522,52.594-125.368l-50.525-17.167.853.636c-6.105,30.345-7.117,32.777-8.129,35.222l-70.034-14.962c-7.3-30.617-6.367-32.925-5.423-35.233s1.865-4.559,2.774-6.81l-28.071-15.621q-9.516,23.585-21.01,51.434c-7.651,18.5-16,38.473-24.99,59.734q-13.421,31.806-28.923,67.647-15.434,35.693-32.834,75.036c-9.368,5.765-21.874,13.519-31.242,19.282C3319.845,54.3,3087.55-24.553,2913.34-83.752c-9.107-7.288-21.181-17.111-30.3-24.41,9.846-48.967,20.374-73.547,30.22-96.854q14.751-35.046,27.468-66.362,12.757-31.294,23.455-58.665,10.761-27.406,19.544-50.616l-42.885-14.621.762.694c-5.31,29.594-6.253,31.993-7.185,34.392l-66.033-13.882c-7.219-29.731-6.367-32-5.5-34.278q1.246-3.309,2.49-6.617c-2.319-1.217,5.7-2.228,8.152-3.183" transform="translate(495.244 433.173)" fill="url(#linear-gradient-4)"/>
      <g id="Group_244" data-name="Group 244" transform="translate(179.837 52.514)" opacity="0.8">
        <path id="Path_247" data-name="Path 247" d="M293.5,647.716q-6.072-10.011-9.357-24.569a173.87,173.87,0,0,1-3.627-33.983,340.637,340.637,0,0,1,2.183-43.339c-2.115-15.962-20.305-35.494-54.162-57.892C72.127,387.6-440.885,60.794-475.31,67.365c-1.228,1.887-2.876,4.457-4.116,6.389a306.244,306.244,0,0,0,4.321,46.011A179.329,179.329,0,0,0-464.521,157a114.67,114.67,0,0,0,16.576,28.582,89.011,89.011,0,0,0,22.454,20.01Q-58.561,434.385,308.356,663.11A45.773,45.773,0,0,1,293.5,647.716Z" transform="translate(479.426 5569.818)" fill="url(#linear-gradient-5)"/>
        <path id="Path_248" data-name="Path 248" d="M291.43,1144.164q4.519-20.533,10.392-43.078,5.883-22.63,13.131-47.262c4.832-16.474,10.13-33.664,15.837-51.423q8.68-26.843,18.623-55.641,16.423-47.444,36.381-99.867,19.969-52.491,43.385-109.679,23.449-57.249,50.195-118.944,26.723-61.649,56.7-127.54c10.448-27.8-4.616-59.6-38.36-80.96l-682.356-397.1c-38.451-20.408-66.748-8.015-76.731,12.108q-29.025,63.8-54.447,123.833-25.41,60.063-47.137,116.045-21.709,55.954-39.632,107.666-17.907,51.622-31.9,98.741-8.492,28.548-15.553,55.345-7.044,26.74-12.631,51.593c-3.706,16.542-6.912,32.368-9.641,47.648-2.729,15.235-4.98,29.856-6.7,43.771,1.558,24.012,28.662,46.307,51.139,60.848l656.537,405.2C252.308,1149.507,282.413,1162.4,291.43,1144.164Z" transform="translate(483.688 4895.238)" fill="url(#linear-gradient-6)"/>
        <path id="Path_249" data-name="Path 249" d="M348.772,1185.867q19.135-40.3,39.144-81.6,20.037-41.406,41.031-83.813,20.925-42.379,42.771-85.872,21.794-43.351,44.465-87.7,29.264-57.249,59.916-116.068,30.526-58.529,62.372-118.5,31.737-59.722,64.645-120.65,32.777-60.677,66.668-122.344c12.825-27.445-.466-57.835-33.937-77.333L58.028-69.677c-38.6-18.611-68.943-6.526-81.915,13.7Q-58.932,2.653-92.682,60.432q-33.835,57.932-66.294,114.852-32.47,57.079-63.565,113.089-31.141,56.073-60.689,110.906-22.869,42.464-44.783,84.052-21.88,41.628-42.794,82.313-20.925,40.793-40.8,80.63c-13.222,26.445-26.138,52.742-38.633,78.516-11.562,28.252,1.387,58.54,33.835,79.073L266.4,1199.5C302.057,1218.3,333.617,1213.085,348.772,1185.867Z" transform="translate(738.907 4054.122)" fill="url(#linear-gradient-7)"/>
        <path id="Path_250" data-name="Path 250" d="M386.722,919.512c1.125-1.978,2.206-3.934,3.286-5.844,1.114-2,2.217-3.945,3.32-5.935,1.1-1.967,2.16-3.854,3.252-5.821,1.114-1.99,2.217-3.934,3.331-5.912q45.721-81.466,92.511-163.273,46.471-81.125,93.75-162.17,46.915-80.409,94.364-160.249,47.069-79.2,94.444-157.475c13.666-32.925-16.065-54.822-34.983-64.986L82.9-136.492c-37.358-16.895-66.089-8.163-77.959,7.89Q-45.5-54.929-95.434,19.8q-50.257,75.293-99.776,151.335-49.78,76.486-98.5,153.393-49.029,77.322-96.638,154.644c-1.16,1.853-2.286,3.706-3.445,5.582-1.137,1.831-2.285,3.729-3.411,5.514-1.125,1.865-2.285,3.752-3.4,5.571-1.171,1.887-2.3,3.752-3.445,5.605-13.87,26.126-2.467,54.879,29.037,73.32L301.942,934.281C336.835,951.016,370.123,945.264,386.722,919.512Z" transform="translate(1200.655 3361.986)" fill="url(#linear-gradient-8)"/>
        <path id="Path_251" data-name="Path 251" d="M402.389,735.958q48.074-78.448,95.956-155.11,47.443-76.009,94.478-149.948,46.574-73.229,92.488-144.082,45.516-70.176,90.169-137.795c12.312-27.6-16.1-46.8-34.131-55.777L114.942-194.508c-35.688-15.076-62.883-8.413-74.037,4.945q-48.841,63.134-98.389,128.9-50,66.407-100.424,135.123Q-208.864,143.822-259.9,215.2q-51.536,72.035-103,145.867c-15.224,30.561,12.46,51.15,30.31,60.746l655.684,322.35C342.746,752.978,379.15,763.7,402.389,735.958Z" transform="translate(1641.95 2766.047)" fill="url(#linear-gradient-9)"/>
        <path id="Path_252" data-name="Path 252" d="M332.337,564.3c18.68,7.833,53.162,17.656,74.366-5.1,10.528-15.689,21.044-31.345,31.47-46.8,10.391-15.371,20.772-30.685,31.06-45.784s20.487-30,30.651-44.84c10.141-14.769,20.2-29.344,30.219-43.862q28.344-40.946,56.039-81.438,27.491-40.2,54.367-80.039,26.706-39.5,52.787-78.6,25.99-38.934,51.354-77.435c10.858-24.887-16.087-41.9-33.13-49.831L120.279-244.267c-33.687-13.268-58.892-7.083-68.954,4.98q-27.9,36.2-56.459,72.615-28.787,36.683-58.222,73.6-29.674,37.194-60.132,74.8Q-154.116,19.521-185.563,57.7q-16.661,20.226-33.459,40.849-16.832,20.6-33.88,41.77-17.037,21.13-34.256,42.737-17.275,21.607-34.642,43.669c-13.984,25.149,12.529,43.1,29.56,51.6Z" transform="translate(2073.11 2262.172)" fill="url(#linear-gradient-10)"/>
        <path id="Path_253" data-name="Path 253" d="M334.625,449.629c17.577,6.981,49.945,15.519,69.034-5.411q38.558-59.3,75.787-117.819,36.956-58.034,72.888-115.591,35.608-57.062,70.182-113.692Q656.862,40.856,690.23-14.972c8.584-22.92-17.486-38.349-33.823-45.545L89.915-290.368c-32.186-12.029-54.981-5.969-63.315,5.31Q-9.247-231.9-46.3-178.5q-37.348,53.821-75.935,107.779-38.9,54.453-79.21,109.269-40.673,55.356-82.836,111.089c-12.131,23.17,13.109,39.235,29.241,46.738Z" transform="translate(2469.857 1793.158)" fill="url(#linear-gradient-11)"/>
        <path id="Path_254" data-name="Path 254" d="M342.749,361.692c16.8,6.287,47.478,13.859,64.031-5.571q32.437-55.066,64.088-110.031,31.464-54.623,62.178-109.155,30.594-54.248,60.5-108.53Q623.3-25.69,652.48-79.773c7.083-22.182-18.589-36.552-34.528-43.192L65.4-334.591c-31.311-11.028-52.572-4.7-59.7,6.413q-30.288,52.15-61.542,104.108-31.276,52.1-63.611,104.21-32.351,52.2-65.839,104.494-33.613,52.56-68.26,105.086c-9.368,21.738,15.258,36.449,30.81,43.18Z" transform="translate(2800.104 1343.264)" fill="url(#linear-gradient-12)"/>
        <path id="Path_255" data-name="Path 255" d="M417.6,454.3q17.344-32.743,33.948-64.577,16.593-31.772,32.527-62.678,15.894-30.919,31.106-60.883,15.212-29.929,29.776-59.051,24.967-49.865,48.092-97.218,23.159-47.273,44.5-91.977,21.317-44.647,40.974-86.747,19.612-42,37.553-81.324c9.232-30.253-15.94-45.273-31.754-51.594L134.811-396.028c-35.677-11.062-55.175,6.048-61.03,17.861Q56.25-339.762,36.82-298.742,17.43-257.762-3.825-214.3q-21.283,43.555-44.544,89.51-23.3,46.061-48.615,94.421-14.82,28.259-30.3,57.244Q-142.8,55.9-159.083,85.787-175.4,115.7-192.5,146.4q-17.122,30.833-35.04,62.349c-8.743,23.159,29.7,44.817,30.106,44.965L354.634,464.528C364.821,467.859,409.433,467.234,417.6,454.3Z" transform="translate(3077.905 728.804)" fill="url(#linear-gradient-13)"/>
        <path id="Path_256" data-name="Path 256" d="M446.912,46.314q17.412-39.36,32.834-75.036,15.485-35.813,28.923-67.647c8.993-21.26,17.338-41.236,24.989-59.734q11.511-27.9,21.01-51.434L-94.648-428.554q-8.765,23.16-19.544,50.616-10.727,27.3-23.455,58.665-12.756,31.327-27.468,66.362-14.768,34.961-31.606,73.57c-6.264,19.3,5.571,37.177,31.686,47.694C429.142,77.6,429.142,77.6,446.912,46.314Z" transform="translate(3393.781 428.554)" fill="url(#linear-gradient-14)"/>
      </g>
    </g>
  </g>
</svg>
