<svg id="firstcry-1" xmlns="http://www.w3.org/2000/svg" width="212.942" height="101.357" viewBox="0 0 212.942 101.357">
  <path id="Path_11394" data-name="Path 11394" d="M14.539,7.979C15.576,5.524,17.4,3.008,22.088.872A15.58,15.58,0,0,1,29.072.132,8.888,8.888,0,0,1,33.488,1.8a6.75,6.75,0,0,1,2.7,4.2c.021.267-.688.164-.935.134-1.1-.134-1.664.37-2.588.914a.929.929,0,0,1-1.027.072c-.811-.894-1.458-1.53-2.27-2.434-2.034-1.725-5-1-7.159.565a14.11,14.11,0,0,0-4.334,6.08,42.621,42.621,0,0,0-1.51,6.388,88.126,88.126,0,0,0-.39,10.1,24.737,24.737,0,0,0,.452,5.033,4.2,4.2,0,0,0,2.886,2.588l4.92.585a2.477,2.477,0,0,1,2,1.407c.185,1.078-.062,1.767-.637,1.9-1.828-.031-3.718-.021-5.567.092-2.362.534-2.013,2.434-2.2,3.975,1.366,9.162,2.568,18.22,3.543,27.474-.082,1.777-.637,2.054-1.469,2.218-.288.288-1.263.113-2.054-.986-1.993-11.113-3.585-22.36-5.834-33.5-.175-1.274-.811-1.941-1.88-2.023L2.6,36.234A2.884,2.884,0,0,1,.262,34.94a4.353,4.353,0,0,1,.811-4.4,2.621,2.621,0,0,1,2.66-.955,5.3,5.3,0,0,1,2.9,2.126,5.06,5.06,0,0,0,4.088.472c.678-.175,1.2-.781.965-2.229a51.116,51.116,0,0,1-.277-9.911A33.724,33.724,0,0,1,14.539,7.979M33.868,23.1c.472-1.089,1.007-1.859,2.444-1.592,1.3.247,1.91,1.6,2.568,3.009,1.13,4.776,1.212,9.839,1.808,14.78.472,6.255.863,12.6,1.109,19.011.175,2.7-.051,4.529-.965,5.587-1.52,1.048-2.907.267-3.513-1.407C35.707,49.781,32.9,35.875,33.868,23.1" transform="translate(-0.006 -0.044)" fill="#f3952e"/>
  <path id="Path_11395" data-name="Path 11395" d="M311.833,27.3a6.141,6.141,0,0,1,3.882.082,2.688,2.688,0,0,1,1.4,2.866c-.329,2.763-2.465,3.718-5.084,2.968a2.934,2.934,0,0,1-1.828-3.04,3.272,3.272,0,0,1,1.633-2.876m21.5,13.845c1.787-3.112,3.5-4.149,5.854-3.472a17.981,17.981,0,0,1,5.433,4.18A24.817,24.817,0,0,1,348.9,47.5a2.718,2.718,0,0,1-1.027,2.824,2.915,2.915,0,0,1-3.739.236c-1.592-1.212-2.455-3.348-4.324-4.786a3.307,3.307,0,0,0-4.7.421c-.935,1.366-1.2,4.221-1.366,6.943A137.648,137.648,0,0,0,334.47,74c.421,3.338.2,5.546-.688,6.645q-1.325,1.972-2.753.5a3.966,3.966,0,0,1-1.15-2.444,168.022,168.022,0,0,1-2.034-25.441c.113-4.078.072-7.672.185-11.76a8,8,0,0,1,.657-3.235,1.524,1.524,0,0,1,2.67-.318,5.979,5.979,0,0,1,1.253,3.1.376.376,0,0,0,.719.092M357.3,36.413c2.023-1.972,3.708-3.831,6.984-4.683a15.931,15.931,0,0,1,4.683-.359c2.609.277,5.618.77,7.477,3.328a3.17,3.17,0,0,1-.4,3.133c-.565.565-2.845.442-3.112.01-1.6-1.592-2.342-2.7-4.437-3.133-4.488-.627-6.183,1.541-6.923,3.42a4.937,4.937,0,0,0-.01,3.615,8.031,8.031,0,0,0,3.718,3.482,81.712,81.712,0,0,0,10.065,4.149c2.927,1.52,5.988,2.814,7.292,7.046a13.5,13.5,0,0,1-.277,6.758c-1.808,5.351-4.437,6.82-6.984,8.669a23.092,23.092,0,0,1-7.508,1.767,20.351,20.351,0,0,1-5.485-.76c-3.718-1.387-6.614-2.886-8.268-5.207-.421-1.715-.832-4.026-.175-5.577a4.44,4.44,0,0,1,2.742-2.568,2.05,2.05,0,0,1,2.5.822c.811,2.229-.154,2.691-.719,3.923.062,1.787,1.4,3.05,3.605,3.841a24.349,24.349,0,0,0,5.978.883c2.732-.144,5.515-2.7,6.635-3.934,3.379-3.821,3.472-6.327,2.845-8.473-1.407-2.886-8.165-4.581-11.421-5.423a16.281,16.281,0,0,1-7.333-3.225c-2.393-1.7-3.194-4.252-3.04-7.477a6.9,6.9,0,0,1,1.571-4.026M388.34,16.55a1.535,1.535,0,0,1,2.023-.5c1.2,1.15,1.89,3.42,2.27,7.313.565,3.595.462,10.353,1.12,10.569,1.12.021,3.02-1.643,4.653-1.951,1.058.164,1.51.75,1.9,1.767a4.054,4.054,0,0,1-.329,3.913,10.786,10.786,0,0,1-4.221,1.91c-1.3.524-1.387,1.017-1.3,1.5.688,4.56,1.1,9.151,1.787,13.712a42.817,42.817,0,0,0,2.609,9.418,4.658,4.658,0,0,0,4.427,2.968,1.886,1.886,0,0,1,1.91.75c.462,1.294.308,2.3-.39,2.794-1.233.729-2.958.657-4.745.462a12.2,12.2,0,0,1-5.187-2.516,19.455,19.455,0,0,1-2.516-7.631q-1.2-8.751-2.393-17.491c-.051-.688-.2-1.232-.9-.8-1.982,1.027-3.965,2.044-5.947,3.071-3.153.832-3.071-3.985-1.6-5.31,1.3-1.068,3.5-1.274,5.084-2.4a7.464,7.464,0,0,0,1.777-1.428,2.559,2.559,0,0,0,.76-1.756c-.031-1.089.051-2.116.031-3.2q-.385-7.549-.811-15.149" transform="translate(-278.341 -14.243)" fill="#f3952e"/>
  <path id="Path_11396" data-name="Path 11396" d="M1246.712,177.676c3.482-2.5,6.46-3.667,10.99-3.122,3.1.883,6.3,1.541,7.7,4.735.216,2.208-1.448,3.03-4.242,3.348-2.917.092-3.893-1.684-5.536-3.174-3.441-1.448-5.372-.75-7.837,2.085-3.05,3.317-.082,15.519,4.488,18.857a9.012,9.012,0,0,0,8.258,1.664,3.325,3.325,0,0,0,2.465-2.475,2.066,2.066,0,0,1,3.225-1.582,4.187,4.187,0,0,1-.113,6.748,12.941,12.941,0,0,1-6.6,1.6c-6.029.472-9.542-2.373-12.715-5.69-3.841-6.317-6.46-17.347-.082-23" transform="translate(-1115.205 -156.513)" fill="#c1539c"/>
  <path id="Path_11397" data-name="Path 11397" d="M1527.121,64.248c1.777-3.112,3.5-4.149,5.854-3.472a17.981,17.981,0,0,1,5.433,4.18,24.36,24.36,0,0,1,4.283,5.649,2.724,2.724,0,0,1-1.027,2.824,2.915,2.915,0,0,1-3.739.236c-1.592-1.212-2.455-3.348-4.324-4.786a3.326,3.326,0,0,0-4.7.421c-.945,1.366-1.212,4.221-1.366,6.943a137.636,137.636,0,0,0,.729,20.87c.431,3.338.205,5.546-.678,6.645-.883,1.315-1.808,1.479-2.742.514a3.913,3.913,0,0,1-1.15-2.444,167.043,167.043,0,0,1-2.044-25.451c.123-4.077.072-7.683.185-11.76a8,8,0,0,1,.657-3.235,1.524,1.524,0,0,1,2.67-.318,6,6,0,0,1,1.243,3.112c.01.359.6.421.719.072" transform="translate(-1365.357 -54.218)" fill="#c1d43a"/>
  <path id="Path_11398" data-name="Path 11398" d="M1747.484,125.389c.2-.852.75-1.592,2.537-1.8a2.036,2.036,0,0,1,2.27,1.366c.236,4.725.01,8.956,1.243,13.907,1.448,3.687,2.948,7.313,6.389,9.213,3.317,1.191,6.583,0,9.7-6.44a114.762,114.762,0,0,0,5.495-17.121c.329-1.695,2.958-1.078,2.938.6,1.438,6.635,1.294,13.321,1.859,19.987.883,6.676,1.438,13.3.606,20.028A26.155,26.155,0,0,1,1775.862,178c-3.43,4.714-11.442,8.782-16.988,6.193-1.766-1.109-3.882-2.013-4.868-9.182-.041-1.951-.37-3.441.585-4.047.863-.565,1.849-.924,2.824.318.709.514,1.52,3.009,2.3,6.183,2.177,2.3,4.827,3.595,10.846-2.188a26.787,26.787,0,0,0,3.441-7.6,54.043,54.043,0,0,0,1.9-13.948c.175-4.108.082-8.258-.092-12.253-.062-1.027-.544-1.2-.873-.668a22.375,22.375,0,0,1-5.269,8.484c-3.523,3.389-7.57,5.1-12.171,2.568-3.5-2.106-6.46-5.444-8.2-11.493-.9-4.961-2.023-9.86-1.818-14.975" transform="translate(-1567.982 -110.83)" fill="#5fc5da"/>
  <path id="Path_11399" data-name="Path 11399" d="M1361.884,494.577l2.937-.082,4.694-5.495-1.294,5.4,24.866-.688a6.055,6.055,0,0,1,5.967,5.474l.267,9.747a5.861,5.861,0,0,1-5.485,5.752l-31.809.873a6.133,6.133,0,0,1-5.885-5.649l-.257-9.388c-.082-2.937,3.071-5.865,6-5.947" transform="translate(-1216.625 -438.78)" fill="#c1539c"/>
  <path id="Path_11400" data-name="Path 11400" d="M1392.021,598.424a1.271,1.271,0,1,1-1.027,1.284,1.165,1.165,0,0,1,1.027-1.284m9.7-6.912-.811,1.756a2.51,2.51,0,0,0-1.931-.719,2.212,2.212,0,0,0-1.8.914,3.854,3.854,0,0,0-.6,2.424c.062,2.064.945,3.081,2.691,3.03a2.721,2.721,0,0,0,1.952-.9l.791,1.777a4.8,4.8,0,0,1-1.51.832,6.561,6.561,0,0,1-1.551.216,4,4,0,0,1-3.2-1.243,5.429,5.429,0,0,1-1.263-3.656,5.5,5.5,0,0,1,1.161-3.8,4.415,4.415,0,0,1,3.42-1.52,3.95,3.95,0,0,1,2.65.894m1.469,4.078a5.714,5.714,0,0,1,1.037-3.7,4.038,4.038,0,0,1,6.08-.216,5.85,5.85,0,0,1,1.191,3.7,5.78,5.78,0,0,1-1.006,3.769,4.032,4.032,0,0,1-6.111.154,5.925,5.925,0,0,1-1.191-3.708Zm2.106-.051c.062,2.167.77,3.235,2.136,3.194a1.732,1.732,0,0,0,1.489-.883,4.478,4.478,0,0,0,.483-2.424c-.062-2.126-.77-3.174-2.136-3.143a1.779,1.779,0,0,0-1.489.883,4.233,4.233,0,0,0-.483,2.372m18.508,4.437-.164-6.162c-.031-1.274-.555-1.921-1.582-1.89a1.641,1.641,0,0,0-.873.329,1.865,1.865,0,0,0-.555.709l.2,7.107-2.023.051-.185-6.522a1.566,1.566,0,0,0-.431-1.13,1.479,1.479,0,0,0-1.14-.4,1.561,1.561,0,0,0-.822.339,2.149,2.149,0,0,0-.627.729l.2,7.066-2.013.051-.277-9.829,1.4-.041.431.852a2.681,2.681,0,0,1,2.147-1.109,3.152,3.152,0,0,1,2.629,1,2.6,2.6,0,0,1,1.037-.8,3.258,3.258,0,0,1,1.345-.339,2.813,2.813,0,0,1,2.28.873,3.921,3.921,0,0,1,.883,2.568l.175,6.491Z" transform="translate(-1248.128 -529.388)" fill="#fff"/>
  <g id="Group_6198" data-name="Group 6198" transform="translate(10.897 89.053)">
    <path id="Path_11401" data-name="Path 11401" d="M110.249,868.065l-2.034,5.628H112.3Zm-2.331,6.46-.709,1.962H106.1l3.389-9.274h1.479l3.461,9.274h-1.1l-.729-1.962Zm12.684-3.184h4.519v.873H120.6v4.273h-1.048v-9.274h5.69v.9H120.6Zm7.107,5.146h-.945v-6.5h.945Zm0-8.206h-.945v-1.068h.945ZM130.678,870l-.1.75.031.01a1.848,1.848,0,0,1,1.849-.914c1.232,0,1.8.585,1.8,1.849v.442h-.935v-.524c0-.678-.308-.955-1.068-.955a1.453,1.453,0,0,0-1.4.668,3.083,3.083,0,0,0-.185,1.284V876.5h-.945V870Zm9.2,1.695c-.01-.935-.164-1.027-1.674-1.027-1.479,0-1.684.123-1.684,1.027,0,.657.154.914.555.986a18.617,18.617,0,0,0,2.157.123c.76.041,1.171.2,1.428.555a2.1,2.1,0,0,1,.349,1.3,1.9,1.9,0,0,1-.514,1.458c-.4.339-1.007.462-2.3.462a3.4,3.4,0,0,1-2.167-.442,1.63,1.63,0,0,1-.544-1.345c0-.082,0-.236.01-.38h.976c-.01.123-.01.247-.01.308a1.24,1.24,0,0,0,.277.863,2.563,2.563,0,0,0,1.438.236c1.52,0,1.869-.226,1.869-1.181,0-.811-.2-1.017-.935-1.017a15.491,15.491,0,0,1-2.486-.205c-.76-.185-1.058-.657-1.058-1.695,0-1.448.544-1.818,2.691-1.818,1.417,0,2.085.205,2.393.719a1.988,1.988,0,0,1,.185,1.068Zm6.573-.9h-2.506v3.975c0,.811.175,1.017.9,1.017.791,0,.976-.216.976-1.243a2.521,2.521,0,0,0-.021-.349h.883c.01.2.01.39.01.483,0,1.335-.555,1.91-1.859,1.91-1.007,0-1.53-.267-1.736-.832a2.621,2.621,0,0,1-.1-.986v-3.975h-.9V870h.9v-1.561h.945V870h2.506Zm8.679,2.6c0,1.654-.051,1.992-.442,2.475s-1.017.668-2.208.709c-.349.01-.9.01-1.4.01a3.816,3.816,0,0,1-2.424-.5,2.351,2.351,0,0,1-.863-1.571,22.1,22.1,0,0,1-.154-2.66,14.664,14.664,0,0,1,.092-2.753,2.246,2.246,0,0,1,1.88-1.849A12.262,12.262,0,0,1,152,867.1a3.911,3.911,0,0,1,2.075.329,1.813,1.813,0,0,1,.873,1.479c.031.288.041.472.072,1.13h-1.048c-.01-.986-.051-1.263-.226-1.561-.236-.38-.637-.483-1.777-.483a8.87,8.87,0,0,0-2.465.205c-.585.267-.77.76-.77,2.2,0,5.228.021,5.269,2.578,5.269,2.506,0,2.783-.175,2.783-1.767v-.524ZM157.67,870l-.1.75.031.01a1.857,1.857,0,0,1,1.849-.914c1.243,0,1.8.585,1.8,1.849v.442h-.935v-.524c0-.678-.308-.955-1.068-.955a1.453,1.453,0,0,0-1.4.668,3.124,3.124,0,0,0-.175,1.284V876.5h-.945V870Zm8.021,6.871a7.421,7.421,0,0,1-.657,1.725,1.749,1.749,0,0,1-1.561.811,2.817,2.817,0,0,1-.462-.041v-.791c.113.01.236.031.288.031.739,0,.986-.359,1.417-2.105h-.349l-2.352-6.5h1l1.007,2.9c.442,1.253.514,1.458.657,1.88l.349,1.017h.031c.236-.976.472-1.931.709-2.9l.74-2.9h1.017Zm103-9.655-3.276,9.274h-1.5l-3.307-9.274h1.109l2.475,7.015c.1.308.205.616.308.935a2.853,2.853,0,0,1,.164.5h.01c.154-.514.246-.811.462-1.428l2.434-7.025Zm5.2,5.464a3.578,3.578,0,0,0-.144-1.376c-.164-.472-.585-.637-1.633-.637-1.623,0-1.931.318-1.921,2.013Zm.976,1.849c.01.113.01.236.01.267,0,1.335-.719,1.8-2.794,1.8-2.352,0-2.9-.626-2.9-3.369,0-2.681.555-3.328,2.917-3.328,1.6,0,2.249.308,2.568,1.243a6.661,6.661,0,0,1,.2,2.28h-4.673c.021,2.064.247,2.362,1.88,2.362s1.839-.133,1.828-1.253ZM277.653,870l-.01.894.01.021c.308-.709.945-1.007,2.167-1.007a2.3,2.3,0,0,1,2.116.832,2.96,2.96,0,0,1,.226,1.53V876.5h-.945v-4.149a2.15,2.15,0,0,0-.154-1.14c-.164-.359-.575-.5-1.376-.5-1.438,0-1.993.524-1.993,1.88V876.5h-.986V870Zm9.983.791H285.13v3.975c0,.811.175,1.017.9,1.017.791,0,.976-.216.976-1.243,0-.092,0-.175-.01-.349h.883c.01.2.01.39.01.483,0,1.335-.555,1.91-1.869,1.91-1,0-1.53-.267-1.736-.832a2.62,2.62,0,0,1-.1-.986v-3.975h-.9V870h.9v-1.561h.945V870h2.506Zm6.943,5.7h-.945l.072-.852-.031-.031c-.339.668-1.027.976-2.157.976-1.592,0-2.239-.668-2.239-2.27v-4.324h.945v4.324c0,1.171.3,1.458,1.448,1.458,1.489,0,1.962-.483,1.962-2.054v-3.728h.945ZM297.537,870l-.092.75.031.01a1.848,1.848,0,0,1,1.849-.914c1.232,0,1.8.585,1.8,1.849v.442h-.935v-.524c0-.678-.308-.955-1.068-.955a1.426,1.426,0,0,0-1.387.668,3.083,3.083,0,0,0-.185,1.284V876.5H296.6V870Zm9.6,2.681A3.577,3.577,0,0,0,307,871.3c-.164-.472-.585-.637-1.633-.637-1.623,0-1.931.318-1.921,2.013Zm.976,1.849c.01.113.01.236.01.267,0,1.335-.719,1.8-2.794,1.8-2.352,0-2.9-.626-2.9-3.369,0-2.681.555-3.328,2.927-3.328,1.6,0,2.239.308,2.557,1.243a6.661,6.661,0,0,1,.2,2.28h-4.673c.01,2.064.257,2.362,1.88,2.362s1.838-.133,1.818-1.253Z" transform="translate(-106.1 -867.1)" fill="#211f1f"/>
    <path id="Path_11402" data-name="Path 11402" d="M741,921.7h5.177v1.191H741Z" transform="translate(-675.791 -916.092)" fill="#211f1f"/>
    <path id="Path_11403" data-name="Path 11403" d="M854.147,870.5h-5.721a.866.866,0,0,0-.7.349l-.965,1.417h5.762a.69.69,0,0,1,.647.7v2.7h-4.324v-.77a.285.285,0,0,1,.277-.288h3.02v-1a.345.345,0,0,0-.359-.38h-4.19a.927.927,0,0,0-.924.924v2.465a.062.062,0,0,0,.01.041.755.755,0,0,0,.76.637h8.165v-5.331A1.453,1.453,0,0,0,854.147,870.5Zm52.094,0H900.52a.866.866,0,0,0-.7.349l-.965,1.417h5.762a.682.682,0,0,1,.647.7v2.7h-4.324v-.77a.287.287,0,0,1,.288-.288h3.009v-1a.34.34,0,0,0-.359-.38h-4.19a.921.921,0,0,0-.924.924v2.465c0,.01.01.021.01.041a.748.748,0,0,0,.76.637H907.7v-5.331a1.453,1.453,0,0,0-1.458-1.469m-18-2.465v7.57h-3.585a.435.435,0,0,1-.421-.411V872.95a.7.7,0,0,1,.7-.7h1.808a.772.772,0,0,0,.657-.349l.832-1.417H883.2a1.466,1.466,0,0,0-1.469,1.458v4.119a1.192,1.192,0,0,0,1.212,1.212h7.785V868Zm5.146,2.465a.987.987,0,0,0-1.017.986v5.8h2.5v-4.324a.67.67,0,0,1,.668-.709h1.839a.838.838,0,0,0,.637-.38c.01-.01.965-1.376.965-1.376Zm-25.841,2.219v4.591h2.475v-6.727s-1.15.719-1.962,1.222A1.064,1.064,0,0,0,867.54,872.714Zm0-4.694h2.475v1.715l-2.475,1.643Zm-24.136.01H831.5v9.275h2.475V870.2h2.64a.452.452,0,0,1,.452.462v6.645h2.475V870.66A.46.46,0,0,1,840,870.2h1.951a.677.677,0,0,1,.678.678v6.43H845.1v-7.57a1.686,1.686,0,0,0-1.695-1.7m35.27,2.465h-7.036v6.8h2.485v-5.033h2.835a.7.7,0,0,1,.7.7v4.345h2.475v-5.331A1.462,1.462,0,0,0,878.674,870.5ZM865.9,871.964a1.468,1.468,0,0,0-1.469-1.469h-3.256a.632.632,0,0,0-.575.37c-.01.01-.976,1.4-.976,1.4h3.133a.678.678,0,0,1,.657.7V877.3h2.475v-5.32Zm-8.74-3.944h2.475V877.3h-2.475Z" transform="translate(-756.996 -867.908)" fill="#211f1f"/>
  </g>
</svg>
