<svg id="Group_2494" data-name="Group 2494" xmlns="http://www.w3.org/2000/svg" xmlns:xlink="http://www.w3.org/1999/xlink" width="310.479" height="299.124" viewBox="0 0 310.479 299.124">
  <defs>
    <linearGradient id="linear-gradient" x1="0.5" y1="1" x2="0.5" gradientUnits="objectBoundingBox">
      <stop offset="0.15" stop-color="#f4ad06"/>
      <stop offset="0.776" stop-color="#f4ad06"/>
      <stop offset="0.915" stop-color="#ffd006"/>
      <stop offset="1" stop-color="#df8d00"/>
    </linearGradient>
    <radialGradient id="radial-gradient" cx="0.5" cy="0.5" r="0.513" gradientUnits="objectBoundingBox">
      <stop offset="0" stop-color="#d08b01"/>
      <stop offset="0.576" stop-color="#f2b145"/>
      <stop offset="1" stop-color="#f8f3bc"/>
    </radialGradient>
    <radialGradient id="radial-gradient-2" cx="0.5" cy="0.5" r="0.512" gradientUnits="objectBoundingBox">
      <stop offset="0" stop-color="#e9c65d"/>
      <stop offset="1" stop-color="#fff"/>
    </radialGradient>
    <linearGradient id="linear-gradient-2" x1="0.5" y1="1" x2="0.5" gradientUnits="objectBoundingBox">
      <stop offset="0" stop-color="#df8d00"/>
      <stop offset="0.085" stop-color="#ffd006"/>
      <stop offset="0.224" stop-color="#f4ad06"/>
      <stop offset="0.85" stop-color="#f4ad06"/>
      <stop offset="0.878" stop-color="#f1a806"/>
      <stop offset="0.909" stop-color="#eb9a09"/>
      <stop offset="0.943" stop-color="#e1830c"/>
      <stop offset="0.977" stop-color="#d36411"/>
      <stop offset="1" stop-color="#c94b16"/>
    </linearGradient>
    <linearGradient id="linear-gradient-3" x1="0.5" y1="1" x2="0.5" gradientUnits="objectBoundingBox">
      <stop offset="0" stop-color="#ed9017"/>
      <stop offset="0.146" stop-color="#ef9e22"/>
      <stop offset="0.426" stop-color="#f6c541"/>
      <stop offset="0.495" stop-color="#f8d04a"/>
      <stop offset="1" stop-color="#f6e6b5"/>
    </linearGradient>
    <linearGradient id="linear-gradient-4" x1="0" y1="0.5" x2="1" y2="0.5" xlink:href="#linear-gradient-3"/>
    <linearGradient id="linear-gradient-5" x1="0" y1="0.5" x2="1" y2="0.5" xlink:href="#linear-gradient-2"/>
    <linearGradient id="linear-gradient-6" y1="0.5" x2="1" y2="0.5" gradientUnits="objectBoundingBox">
      <stop offset="0" stop-color="#c94b16"/>
      <stop offset="0.023" stop-color="#d36411"/>
      <stop offset="0.057" stop-color="#e1830c"/>
      <stop offset="0.091" stop-color="#eb9a09"/>
      <stop offset="0.122" stop-color="#f1a806"/>
      <stop offset="0.15" stop-color="#f4ad06"/>
      <stop offset="0.776" stop-color="#f4ad06"/>
      <stop offset="0.915" stop-color="#ffd006"/>
      <stop offset="1" stop-color="#df8d00"/>
    </linearGradient>
  </defs>
  <g id="Group_2472" data-name="Group 2472" transform="translate(0 0)" opacity="0.56">
    <path id="Path_1435" data-name="Path 1435" d="M488.18,438.991a4.294,4.294,0,0,1-2.014-.5l-91.193-48.121-91.342,47.84a4.314,4.314,0,0,1-6.254-4.56l17.583-101.6-73.721-72.08a4.318,4.318,0,0,1,2.4-7.36L345.7,237.936l45.775-92.387a4.31,4.31,0,0,1,3.866-2.4h.008a4.317,4.317,0,0,1,3.866,2.413l45.494,92.531,102.013,14.985a4.319,4.319,0,0,1,2.383,7.37L475.163,332.3l17.272,101.651a4.311,4.311,0,0,1-4.254,5.039Zm-93.145-94.312a4.345,4.345,0,0,1,2.015.5l42.589,22.471-8.069-47.472a4.334,4.334,0,0,1,1.25-3.819L467.359,282.8l-47.647-7a4.308,4.308,0,0,1-3.248-2.367L395.218,230.22l-21.375,43.146a4.333,4.333,0,0,1-3.254,2.357l-47.665,6.852,34.431,33.669a4.31,4.31,0,0,1,1.232,3.818l-8.215,47.452,42.66-22.339A4.3,4.3,0,0,1,395.035,344.679Z" transform="translate(-239.94 -143.145)" fill="url(#linear-gradient)"/>
    <path id="Path_1436" data-name="Path 1436" d="M400.787,391.3l-93.353,48.89,17.972-103.837L250.064,262.69l104.309-15,46.779-94.42,46.491,94.561,104.264,15.322L476.334,336.6l17.652,103.89Zm50.38-9.946-9.53-56.1,40.811-39.655-56.3-8.268-25.105-51.065-25.261,50.984-56.32,8.1,40.68,39.78-9.7,56.068,50.407-26.4Z" transform="translate(-245.746 -148.954)" fill="url(#radial-gradient)"/>
    <g id="Group_2471" data-name="Group 2471" transform="translate(4.318 4.32)">
      <path id="Path_1437" data-name="Path 1437" d="M552.367,263.627l-.85.824-73.974,26.836,5.846-5.682-5.273-.774Zm-300.661-.251.876.853,73.752,26.933-5.935-5.808,5.107-.735Zm147.282-31.062,2.993-6.042,2.941,5.978L402.256,153.6l-.163-.324-.283.569ZM358.346,377.554l-6.97,3.649.978-5.639L308.814,439.97l1.13-.595Zm92.757-2.128,1.005,5.933-6.7-3.537,48.39,62.062,1.077.567Z" transform="translate(-251.006 -153.274)" fill="url(#radial-gradient-2)"/>
      <path id="Path_1438" data-name="Path 1438" d="M607.351,232.686l22.164,45.088,51.03,7.494L754.8,264.063l.481-.47L651.013,248.271l-46.328-94.237Z" transform="translate(-453.435 -153.71)" fill="url(#linear-gradient-2)"/>
      <path id="Path_1439" data-name="Path 1439" d="M734.188,440.776,699.223,474.75l8.525,50.165,43.768,65.026.057.033-17.653-103.89,74.241-72.144Z" transform="translate(-507.651 -302.763)" fill="url(#linear-gradient-3)"/>
      <path id="Path_1440" data-name="Path 1440" d="M327.511,440.353,253.759,413.42l73.767,72.128L309.553,589.385l.438-.225,43.541-64.406,8.725-50.429Z" transform="translate(-252.183 -302.464)" fill="url(#linear-gradient-4)"/>
      <path id="Path_1441" data-name="Path 1441" d="M523.71,648.8l-43.621-23.016-43.437,22.748-48.4,61.821,91.785-48.07,92.065,48.58Z" transform="translate(-329.312 -424.253)" fill="url(#linear-gradient-5)"/>
      <path id="Path_1442" data-name="Path 1442" d="M324.564,285.385l51.214-7.363,22.268-44.942,2.822-78.472-46.5,93.851-104.309,15,.7.686Z" transform="translate(-250.064 -154.039)" fill="url(#linear-gradient-6)"/>
    </g>
  </g>
  <g id="Group_2477" data-name="Group 2477" transform="translate(19.363 96.129)">
    <rect id="Rectangle_2502" data-name="Rectangle 2502" width="58.197" height="95.389" fill="#99bbeb"/>
    <rect id="Rectangle_2503" data-name="Rectangle 2503" width="53.236" height="89.809" transform="translate(3.048 1.944)" fill="#fff"/>
    <g id="Group_2476" data-name="Group 2476" transform="translate(6.133 5.594)">
      <g id="Group_2473" data-name="Group 2473" transform="translate(12.838 5.514)">
        <path id="Path_1443" data-name="Path 1443" d="M329.817,449.871c2-4.311,5.4-5.691,10.964-5.691,6.631,0,10.074,2.4,11.05,5.9C339.956,450.242,329.817,449.871,329.817,449.871Z" transform="translate(-329.817 -423.022)" fill="#9bd6e8"/>
        <path id="Path_1444" data-name="Path 1444" d="M338.826,394.765c-2.807.788-2.684,2.365-3.619,3.829s-2.968,2.44-3.212,3.416.626,3.009-.406,4.148-1.383,1.708-.976,2.847,1.3,2.928,1.383,3.172a4.561,4.561,0,0,0,2.6,2.2,29.315,29.315,0,0,1,5.287,1.22c1.3.569,5.485-.729,7.808-.648s3.9-1.63,3.741-2.768,1.712-3.416,1.708-5.368c-.005-2.1-2.44-3.66-3.091-5.042s.081-3.823-2.359-5.268c-1.542-.914-2.6-.832-3.822-1.238A9.046,9.046,0,0,0,338.826,394.765Z" transform="translate(-330.178 -394.572)" fill="#3a384d"/>
        <path id="Path_1445" data-name="Path 1445" d="M353.51,433.438c-.635.938-1.1.976-1.789,0-.548-.776-1.627-2.539-1.627-3.433v-8.929a1.631,1.631,0,0,1,1.627-1.626h1.789a1.631,1.631,0,0,1,1.627,1.626V430C355.137,430.9,354.079,432.6,353.51,433.438Z" transform="translate(-341.446 -408.839)" fill="#f09959"/>
        <path id="Path_1446" data-name="Path 1446" d="M353.51,419.449h-1.789a1.631,1.631,0,0,0-1.627,1.626v7.966c2.009.64,3.843-.632,5.043-2.064v-5.9A1.631,1.631,0,0,0,353.51,419.449Z" transform="translate(-341.446 -408.839)" fill="#e38540"/>
        <ellipse id="Ellipse_310" data-name="Ellipse 310" cx="5.409" cy="7.37" rx="5.409" ry="7.37" transform="translate(5.761 3.331)" fill="#f09959"/>
        <path id="Path_1447" data-name="Path 1447" d="M350.544,402c-3.416,5.775-8.459,5.205-8.459,5.205s.122-7.645,4.128-8.052,6.364,1.2,7.177,3.854a6.546,6.546,0,0,1,0,4.4,7.025,7.025,0,0,1-1.952-2.643A19.008,19.008,0,0,1,350.544,402Z" transform="translate(-336.852 -397.162)" fill="#3a384d"/>
        <ellipse id="Ellipse_311" data-name="Ellipse 311" cx="1.423" cy="2.135" rx="1.423" ry="2.135" transform="translate(2.828 9.88) rotate(-25.405)" fill="#f09959"/>
        <path id="Path_1448" data-name="Path 1448" d="M366.422,417.495c-.506,1.065-.34,2.2.37,2.539s1.7-.253,2.2-1.318.34-2.2-.37-2.539S366.928,416.429,366.422,417.495Z" transform="translate(-350.641 -406.908)" fill="#f09959"/>
        <path id="Path_1449" data-name="Path 1449" d="M355.3,429.032a2.342,2.342,0,0,1-4.067,0Z" transform="translate(-342.102 -414.334)" fill="#fff"/>
      </g>
      <path id="Path_1450" data-name="Path 1450" d="M350.6,480.662H336.942a1.588,1.588,0,0,1,0-3.176H350.6a1.588,1.588,0,0,1,0,3.176Z" transform="translate(-320.154 -436.609)" fill="#99bbeb"/>
      <path id="Path_1451" data-name="Path 1451" d="M349.738,492.1h-18.66a1.588,1.588,0,1,1,0-3.176h18.66a1.588,1.588,0,1,1,0,3.176Z" transform="translate(-316.791 -443.17)" fill="#99bbeb"/>
      <path id="Path_1452" data-name="Path 1452" d="M346.029,535.041h-45.39a.922.922,0,1,1,0-1.843h45.39a.922.922,0,1,1,0,1.843Z" transform="translate(-299.717 -468.559)" fill="#99bbeb"/>
      <path id="Path_1453" data-name="Path 1453" d="M346.029,545.083h-45.39a.922.922,0,1,1,0-1.843h45.39a.922.922,0,1,1,0,1.843Z" transform="translate(-299.717 -474.318)" fill="#99bbeb"/>
      <path id="Path_1454" data-name="Path 1454" d="M346.029,555.126h-45.39a.921.921,0,1,1,0-1.843h45.39a.921.921,0,1,1,0,1.843Z" transform="translate(-299.717 -480.077)" fill="#99bbeb"/>
      <g id="Group_2474" data-name="Group 2474" transform="translate(5.625)">
        <path id="Path_1455" data-name="Path 1455" d="M347.244,415.067H314.55a1.647,1.647,0,0,1-1.645-1.646V383.29a1.647,1.647,0,0,1,1.645-1.645h32.694a1.647,1.647,0,0,1,1.645,1.645v30.131A1.647,1.647,0,0,1,347.244,415.067ZM314.55,382.984a.311.311,0,0,0-.307.307v30.131a.311.311,0,0,0,.307.307h32.694a.311.311,0,0,0,.307-.307V383.29a.311.311,0,0,0-.307-.307Z" transform="translate(-312.905 -381.645)" fill="#99bbeb"/>
      </g>
      <g id="Group_2475" data-name="Group 2475" transform="translate(8.925 53.077)">
        <path id="Path_1456" data-name="Path 1456" d="M323.7,506.088l.947,1.918,2.116.307-1.531,1.493.362,2.108-1.893-1-1.893,1,.361-2.108-1.531-1.493,2.117-.307Z" transform="translate(-320.642 -506.088)" fill="#99bbeb"/>
        <path id="Path_1457" data-name="Path 1457" d="M341.882,506.088l.947,1.918,2.117.307-1.532,1.493.362,2.108-1.893-1-1.893,1,.362-2.108-1.532-1.493,2.117-.307Z" transform="translate(-331.066 -506.088)" fill="#99bbeb"/>
        <path id="Path_1458" data-name="Path 1458" d="M360.059,506.088l.947,1.918,2.117.307-1.531,1.493.362,2.108-1.893-1-1.893,1,.361-2.108L357,508.314l2.116-.307Z" transform="translate(-341.49 -506.088)" fill="#99bbeb"/>
        <path id="Path_1459" data-name="Path 1459" d="M378.236,506.088l.947,1.918,2.117.307-1.532,1.493.362,2.108-1.893-1-1.893,1,.362-2.108-1.531-1.493,2.117-.307Z" transform="translate(-351.915 -506.088)" fill="#99bbeb"/>
      </g>
    </g>
  </g>
  <g id="Group_2482" data-name="Group 2482" transform="translate(149.107 96.129)">
    <rect id="Rectangle_2504" data-name="Rectangle 2504" width="58.197" height="95.389" transform="translate(0)" fill="#99bbeb"/>
    <rect id="Rectangle_2505" data-name="Rectangle 2505" width="53.236" height="89.809" transform="translate(3.048 1.944)" fill="#fff"/>
    <g id="Group_2481" data-name="Group 2481" transform="translate(6.133 5.594)">
      <g id="Group_2478" data-name="Group 2478" transform="translate(12.838 6.087)">
        <path id="Path_1460" data-name="Path 1460" d="M639.943,418.52c0,4.273,2.573,11.166,8.641,10.945s7.411-6.793,7.645-8.647S639.943,418.52,639.943,418.52Z" transform="translate(-637.414 -408.879)" fill="#7a4e34"/>
        <path id="Path_1461" data-name="Path 1461" d="M634.014,449.871c2-4.311,5.4-5.691,10.964-5.691,6.631,0,10.074,2.4,11.049,5.9C644.153,450.242,634.014,449.871,634.014,449.871Z" transform="translate(-634.014 -423.595)" fill="#d54a41"/>
        <path id="Path_1462" data-name="Path 1462" d="M657.707,433.438c-.635.938-1.1.976-1.789,0-.548-.776-1.627-2.539-1.627-3.433v-8.929a1.631,1.631,0,0,1,1.627-1.626h1.789a1.631,1.631,0,0,1,1.627,1.626V430C659.334,430.9,658.276,432.6,657.707,433.438Z" transform="translate(-645.643 -409.412)" fill="#f09959"/>
        <path id="Path_1463" data-name="Path 1463" d="M657.707,419.449h-1.789a1.631,1.631,0,0,0-1.627,1.626v7.966c2.009.64,3.843-.632,5.043-2.064v-5.9A1.631,1.631,0,0,0,657.707,419.449Z" transform="translate(-645.643 -409.412)" fill="#e38540"/>
        <ellipse id="Ellipse_312" data-name="Ellipse 312" cx="5.409" cy="7.37" rx="5.409" ry="7.37" transform="translate(5.761 2.757)" fill="#f09959"/>
        <path id="Path_1464" data-name="Path 1464" d="M651.532,400.442c-.643,2.266-2.051,2.24-4.015,2.984s-2.9,1.493-3.545,2.943c-.82,1.849.372,7.239.372,7.239s-4.973-3.721-4.4-9.573,4.026-8.119,7.273-8.119A5.206,5.206,0,0,1,651.7,397.9a4.863,4.863,0,0,1,3.365,1.945c2.2,2.6,1.523,8.931,0,11.2s-2.537,2.977-2.5,2.875,1.421-5.306.677-8.525A20.555,20.555,0,0,0,651.532,400.442Z" transform="translate(-637.39 -395.917)" fill="#7a4e34"/>
        <path id="Path_1465" data-name="Path 1465" d="M659.5,429.032a2.342,2.342,0,0,1-4.067,0Z" transform="translate(-646.299 -414.908)" fill="#fff"/>
      </g>
      <path id="Path_1466" data-name="Path 1466" d="M654.8,480.662H641.138a1.588,1.588,0,1,1,0-3.176H654.8a1.588,1.588,0,0,1,0,3.176Z" transform="translate(-624.351 -436.609)" fill="#99bbeb"/>
      <path id="Path_1467" data-name="Path 1467" d="M653.935,492.1h-18.66a1.588,1.588,0,1,1,0-3.176h18.66a1.588,1.588,0,1,1,0,3.176Z" transform="translate(-620.988 -443.17)" fill="#99bbeb"/>
      <path id="Path_1468" data-name="Path 1468" d="M650.226,535.041h-45.39a.922.922,0,1,1,0-1.843h45.39a.922.922,0,0,1,0,1.843Z" transform="translate(-603.914 -468.559)" fill="#99bbeb"/>
      <path id="Path_1469" data-name="Path 1469" d="M650.226,545.083h-45.39a.922.922,0,1,1,0-1.843h45.39a.922.922,0,0,1,0,1.843Z" transform="translate(-603.914 -474.318)" fill="#99bbeb"/>
      <path id="Path_1470" data-name="Path 1470" d="M650.226,555.126h-45.39a.921.921,0,1,1,0-1.843h45.39a.921.921,0,0,1,0,1.843Z" transform="translate(-603.914 -480.077)" fill="#99bbeb"/>
      <g id="Group_2479" data-name="Group 2479" transform="translate(5.625)">
        <path id="Path_1471" data-name="Path 1471" d="M651.441,415.067H618.747a1.647,1.647,0,0,1-1.645-1.646V383.29a1.647,1.647,0,0,1,1.645-1.645h32.694a1.647,1.647,0,0,1,1.645,1.645v30.131A1.647,1.647,0,0,1,651.441,415.067Zm-32.694-32.084a.311.311,0,0,0-.307.307v30.131a.311.311,0,0,0,.307.307h32.694a.311.311,0,0,0,.307-.307V383.29a.311.311,0,0,0-.307-.307Z" transform="translate(-617.102 -381.645)" fill="#99bbeb"/>
      </g>
      <g id="Group_2480" data-name="Group 2480" transform="translate(8.925 53.077)">
        <path id="Path_1472" data-name="Path 1472" d="M627.9,506.088l.947,1.918,2.116.307-1.531,1.493.362,2.108-1.893-1-1.893,1,.361-2.108-1.531-1.493,2.116-.307Z" transform="translate(-624.839 -506.088)" fill="#99bbeb"/>
        <path id="Path_1473" data-name="Path 1473" d="M646.079,506.088l.947,1.918,2.116.307-1.532,1.493.362,2.108-1.893-1-1.893,1,.361-2.108-1.532-1.493,2.117-.307Z" transform="translate(-635.263 -506.088)" fill="#99bbeb"/>
        <path id="Path_1474" data-name="Path 1474" d="M664.256,506.088l.947,1.918,2.117.307-1.531,1.493.362,2.108-1.893-1-1.893,1,.361-2.108-1.531-1.493,2.117-.307Z" transform="translate(-645.687 -506.088)" fill="#99bbeb"/>
        <path id="Path_1475" data-name="Path 1475" d="M682.433,506.088l.947,1.918,2.116.307-1.531,1.493.361,2.108-1.893-1-1.893,1,.362-2.108-1.531-1.493,2.116-.307Z" transform="translate(-656.112 -506.088)" fill="#99bbeb"/>
      </g>
    </g>
  </g>
  <g id="Group_2487" data-name="Group 2487" transform="translate(73.452 63.173)">
    <rect id="Rectangle_2506" data-name="Rectangle 2506" width="79.488" height="130.286" transform="translate(0)" fill="#99bbeb"/>
    <rect id="Rectangle_2507" data-name="Rectangle 2507" width="72.712" height="122.666" transform="translate(4.163 2.655)" fill="#fff"/>
    <g id="Group_2486" data-name="Group 2486" transform="translate(8.377 7.886)">
      <g id="Group_2483" data-name="Group 2483" transform="translate(16.617 5.668)">
        <path id="Path_1476" data-name="Path 1476" d="M489.279,337.9c-.051-.152-1.324-7.459-1.476-10.3s4.567-3.247,4.567-3.247,3.856-2.081,6.647-1.015a11.249,11.249,0,0,1,5.959,5.091c1.268,2.232-1.116,9.19-1.116,9.19Z" transform="translate(-480.53 -323.036)" fill="#2e2d3d"/>
        <path id="Path_1477" data-name="Path 1477" d="M470.755,398.319c-.017-.12.326-3,.338-3.112.643-6.055,8.107-7.758,15.555-7.758,8.751,0,14.688,1.6,15.635,7.893.028.184.533,3.067.508,3.261C486.572,398.826,470.755,398.319,470.755,398.319Z" transform="translate(-470.754 -359.976)" fill="#d5e1e8"/>
        <path id="Path_1478" data-name="Path 1478" d="M503.889,372.777c-.867,1.28-1.5,1.333-2.444,0-.749-1.06-3.247-3.478-3.247-4.7l1.026-12.185a2.228,2.228,0,0,1,2.222-2.222h2.444a2.228,2.228,0,0,1,2.222,2.222l.477,12.185C506.588,369.3,504.667,371.629,503.889,372.777Z" transform="translate(-486.493 -340.604)" fill="#f09959"/>
        <path id="Path_1479" data-name="Path 1479" d="M504.071,353.67h-2.444a2.228,2.228,0,0,0-2.222,2.222l-.891,10.81c2.744.873,6.45-.9,8.089-2.858l-.311-7.952A2.228,2.228,0,0,0,504.071,353.67Z" transform="translate(-486.675 -340.604)" fill="#e38540"/>
        <path id="Path_1480" data-name="Path 1480" d="M489.012,389.217l3.918,7.242s2.1-1.725,2.3-1.387a30.983,30.983,0,0,1-.372,4.607,40.166,40.166,0,0,0,4.871-.139c.2-.2-.947-4.637-.473-4.637s1.9,1.285,1.9,1.285l4.374-6.971-.961-.234-7.168,3.856-7.666-3.772Z" transform="translate(-481.225 -360.856)" fill="#bdccd4"/>
        <path id="Path_1481" data-name="Path 1481" d="M499.518,395.919l2.91,1.953-.9,5.182,3.924-.219-.98-4.714,2.412-2.2-1.133-1.068h-5.1Z" transform="translate(-487.25 -364.221)" fill="#d54a41"/>
        <path id="Path_1482" data-name="Path 1482" d="M493.835,380.755l-3.6,3.424s3.667,6.521,3.87,6.521,3.111-3.595,3.111-3.595l1.862-.033,2.942,3.087,3.418-6.048-3.486-3.695s-2.977,5.751-3.518,5.886-.545.2-.983-.135S493.835,380.755,493.835,380.755Z" transform="translate(-481.927 -355.943)" fill="#d5e1e8"/>
        <ellipse id="Ellipse_313" data-name="Ellipse 313" cx="7.387" cy="10.066" rx="7.387" ry="10.066" transform="translate(8.787 3.123)" fill="#f09959"/>
        <path id="Path_1483" data-name="Path 1483" d="M487.869,351c.691,1.454.465,3.007-.5,3.468s-2.316-.346-3.007-1.8-.464-3.008.505-3.468S487.178,349.546,487.869,351Z" transform="translate(-478.326 -337.967)" fill="#f09959"/>
        <path id="Path_1484" data-name="Path 1484" d="M522.9,351c-.691,1.454-.464,3.007.505,3.468s2.316-.346,3.007-1.8.465-3.008-.5-3.468S523.595,349.546,522.9,351Z" transform="translate(-500.432 -337.967)" fill="#f09959"/>
        <path id="Path_1485" data-name="Path 1485" d="M507.548,363.643s-1.468,2.377-3.277,2.377-3.277-2.377-3.277-2.377Z" transform="translate(-488.096 -346.324)" fill="#fff"/>
        <path id="Path_1486" data-name="Path 1486" d="M494.359,332.343c3.045-2.131,4.415-1.776,6.7,1.725s5.023,3.563,5.023,3.563l.355-3.63s-3.4-6.579-7.967-5.717a12.052,12.052,0,0,0-7.162,4.973s-.223,7.7.415,7.966.711-2.486,1.167-3.044-.456-3.2.152-4.414S494.359,332.343,494.359,332.343Z" transform="translate(-482.519 -326.001)" fill="#2e2d3d"/>
        <path id="Path_1487" data-name="Path 1487" d="M521.476,347.185c1.063,1.164.66,5.784,1.218,5.734s.761-4.415.609-4.871S521.476,347.185,521.476,347.185Z" transform="translate(-499.843 -336.885)" fill="#2e2d3d"/>
      </g>
      <path id="Path_1488" data-name="Path 1488" d="M498.661,444.416H464.729a2.169,2.169,0,1,1,0-4.338h33.932a2.169,2.169,0,0,1,0,4.338Z" transform="translate(-449.438 -384.49)" fill="#99bbeb"/>
      <path id="Path_1489" data-name="Path 1489" d="M500.117,460.043H474.63a2.169,2.169,0,1,1,0-4.338h25.487a2.169,2.169,0,1,1,0,4.338Z" transform="translate(-455.116 -393.452)" fill="#99bbeb"/>
      <path id="Path_1490" data-name="Path 1490" d="M495.05,518.69h-62a1.259,1.259,0,1,1,0-2.517h62a1.259,1.259,0,1,1,0,2.517Z" transform="translate(-431.795 -428.13)" fill="#99bbeb"/>
      <path id="Path_1491" data-name="Path 1491" d="M495.05,532.406h-62a1.259,1.259,0,1,1,0-2.517h62a1.259,1.259,0,1,1,0,2.517Z" transform="translate(-431.795 -435.996)" fill="#99bbeb"/>
      <path id="Path_1492" data-name="Path 1492" d="M495.05,546.122h-62a1.259,1.259,0,1,1,0-2.517h62a1.259,1.259,0,1,1,0,2.517Z" transform="translate(-431.795 -443.862)" fill="#99bbeb"/>
      <g id="Group_2484" data-name="Group 2484" transform="translate(7.928)">
        <path id="Path_1493" data-name="Path 1493" d="M497.039,354.908H452.384a2,2,0,0,1-2-2V311.75a2,2,0,0,1,2-2h44.655a2,2,0,0,1,2,2v41.156A2,2,0,0,1,497.039,354.908Zm-44.655-43.821a.664.664,0,0,0-.664.664v41.156a.664.664,0,0,0,.664.664h44.655a.664.664,0,0,0,.664-.664V311.75a.664.664,0,0,0-.664-.664Z" transform="translate(-450.382 -309.748)" fill="#99bbeb"/>
      </g>
      <g id="Group_2485" data-name="Group 2485" transform="translate(6.811 72.25)">
        <path id="Path_1494" data-name="Path 1494" d="M451.948,479.145l1.293,2.62,2.891.42-2.092,2.039.494,2.879-2.586-1.359-2.586,1.359.494-2.879-2.092-2.039,2.891-.42Z" transform="translate(-447.765 -479.145)" fill="#99bbeb"/>
        <path id="Path_1495" data-name="Path 1495" d="M476.775,479.145l1.293,2.62,2.891.42-2.092,2.039.494,2.879-2.586-1.359L474.19,487.1l.494-2.879-2.092-2.039,2.891-.42Z" transform="translate(-462.003 -479.145)" fill="#99bbeb"/>
        <path id="Path_1496" data-name="Path 1496" d="M501.6,479.145l1.293,2.62,2.891.42-2.092,2.039.494,2.879-2.586-1.359-2.586,1.359.494-2.879-2.092-2.039,2.891-.42Z" transform="translate(-476.241 -479.145)" fill="#99bbeb"/>
        <path id="Path_1497" data-name="Path 1497" d="M526.429,479.145l1.293,2.62,2.891.42-2.092,2.039.494,2.879-2.586-1.359-2.585,1.359.494-2.879-2.092-2.039,2.891-.42Z" transform="translate(-490.478 -479.145)" fill="#99bbeb"/>
        <path id="Path_1498" data-name="Path 1498" d="M551.651,479.145l1.293,2.62,2.891.42-2.092,2.039.494,2.879-2.586-1.359-2.585,1.359.494-2.879-2.092-2.039,2.891-.42Z" transform="translate(-504.943 -479.145)" fill="#99bbeb"/>
      </g>
    </g>
  </g>
  <g id="Group_2492" data-name="Group 2492" transform="translate(113.334 108.731)">
    <path id="Path_1499" data-name="Path 1499" d="M760.244,430.531c1.871,6.6-2.7,13.391-7.731,14.819s-8.625-3.054-10.5-9.649.693-13.1,5.726-14.527S758.373,423.937,760.244,430.531Z" transform="translate(-640.857 -411.163)" fill="#f09959"/>
    <path id="Path_1500" data-name="Path 1500" d="M711.575,743.117s12.9,20.035,14.641,20.906,6.1,1.089,4.464,4.355-2.287,16.115-3.811,16.768-14.59,2.178-12.63,0,3.165-1.089,4.154-5.008,2.379-11.323.528-12.848-13.175-15.244-13.175-15.244Z" transform="translate(-620.407 -595.952)" fill="#f09959"/>
    <path id="Path_1501" data-name="Path 1501" d="M531.907,763.29s-15.68,25.842-18.584,28.166-12.486,5.807-4.646,6.388,11.615-2.613,16.551-4.065,11.034-2.323,8.711-6.1-1.358-12.015,3.649-17.242S531.907,763.29,531.907,763.29Z" transform="translate(-505.661 -607.521)" fill="#f09959"/>
    <path id="Path_1502" data-name="Path 1502" d="M638.262,622.761s-38.815-1.015-54.2,11.615c-9,13.647-30.778,53.914-32.47,58.352,1.161,1.161,7.695,3.257,10.6,2.967,8.566-10.214,19.888-19.044,24.391-27.055,5.549-9.873,7.259-14.809,16.26-15.68s29.327-3.775,35.425-3.775S638.262,622.761,638.262,622.761Z" transform="translate(-531.999 -526.919)" fill="#6791c9"/>
    <path id="Path_1503" data-name="Path 1503" d="M811.811,762.618h-2.034l-14.59-60.873h4.476Z" transform="translate(-671.7 -572.226)" fill="#2e5b9a"/>
    <path id="Path_1504" data-name="Path 1504" d="M691.263,759.724H693.3L710.04,696.7h-4.476Z" transform="translate(-612.102 -569.332)" fill="#2e5b9a"/>
    <path id="Path_1505" data-name="Path 1505" d="M704.034,616.554l-22.567,3.895s-29.989.276-43.7,2.829c-12.471,2.323-14.309,16.493,0,36.005,8.128,11.084,15,19.926,29.055,29.9,3.575-2.625,4.943-3.618,5.931-9.934-1.017-1.395-3.65-10.124-4.467-11.832-7.774-16.25-18.15-22.159-18.293-23.758,1.742-2.831,46.147,14.756,54.976,4.411C713.4,638.189,704.034,616.554,704.034,616.554Z" transform="translate(-575.657 -523.37)" fill="#75a1de"/>
    <path id="Path_1506" data-name="Path 1506" d="M770.131,496.423a23.614,23.614,0,0,0-17.658,4.394c-4.947,5.042-10.544,13.358-10.2,27.076.436,17.421-2.7,18.54.571,23.331,13.624,5.626,36.924,29.8,31.438,3.884-3.974-18.764,8.714-32.75-1.521-53.564C771.925,499.85,770.884,498.207,770.131,496.423Z" transform="translate(-640.817 -454.33)" fill="#f37168"/>
    <path id="Path_1507" data-name="Path 1507" d="M742.268,540.3c-.265,9.082-1.547,11.758-.567,14.605,5.554.567,15.714,2.789,18.253,6.344,2.9,4.065,5.807,4.646,4.452,1.645s-4.936-7.259.581-21.874,8.13-24.488,2.71-34.651Z" transform="translate(-640.819 -460.182)" fill="#d54a41"/>
    <path id="Path_1508" data-name="Path 1508" d="M785.1,472.031a70.877,70.877,0,0,1-4.559-18.4l-9.582,2.831s5.444,12.195.218,16.551a49.863,49.863,0,0,0-3.735,3.411A23.613,23.613,0,0,1,785.1,472.031Z" transform="translate(-655.792 -429.937)" fill="#f09959"/>
    <path id="Path_1509" data-name="Path 1509" d="M785.585,456.629c-.568-.5-1.278-1.135-2.024-1.794l-7.815,2.309-.016.042a31.911,31.911,0,0,1,2.441,9.545,27.558,27.558,0,0,0,7.795-7.742C785.807,458.1,785.682,457.3,785.585,456.629Z" transform="translate(-660.541 -430.626)" fill="#e38540"/>
    <path id="Path_1510" data-name="Path 1510" d="M714.784,502.789c-9.869,3.452-8.774,13.848-17.856,29.181-4.7,7.935-9.066,7.817-9.066,7.817a210.3,210.3,0,0,1-24.357-1.542c-8.349-1.021-8.879,1.465-3.072,3.54,11.712,4.188,23.865,8.695,33.665,7.605s26.56-26.092,27.424-32.6C722.715,507.789,719.754,501.051,714.784,502.789Z" transform="translate(-592.207 -457.97)" fill="#f09959"/>
    <g id="Group_2488" data-name="Group 2488" transform="translate(82.802 66.298)">
      <path id="Path_1511" data-name="Path 1511" d="M734.49,619.275q-.921,0-1.886-.024a93.838,93.838,0,0,1-17.917-2.205c-5.136-1.044-7.966-1.619-11.259-.046a2.537,2.537,0,1,1-2.187-4.577c4.826-2.306,8.866-1.485,14.457-.349a89.422,89.422,0,0,0,17.031,2.105c8.5.212,13.685-1.049,16.312-3.963,2.341-2.6,3.026-6.957,2.155-13.726-.3-2.316-.6-4.243-.859-5.943-.742-4.8-1.231-7.964-.625-12.861.563-4.548,2.07-10.607,5.558-22.354a2.537,2.537,0,1,1,4.864,1.444c-6.5,21.89-6.17,24.023-4.782,33,.267,1.73.571,3.691.876,6.071,1.074,8.347-.013,13.993-3.419,17.771C749.3,617.5,743.609,619.275,734.49,619.275Z" transform="translate(-699.797 -553.517)" fill="#2e5b9a"/>
    </g>
    <path id="Path_1512" data-name="Path 1512" d="M532.973,814.357c-10.4,5.088-16,8-19.339,7.726-.787-.066-1.44-.146-1.987-.232-3.71,2.193-9.633,4.785-2.969,5.278,7.84.58,11.615-2.613,16.551-4.065s11.034-2.323,8.711-6.1A7.932,7.932,0,0,1,532.973,814.357Z" transform="translate(-505.661 -636.808)" fill="#d54a41"/>
    <path id="Path_1513" data-name="Path 1513" d="M738.5,793.129c-.254,8.237-1.386,16.4-6.424,17.942a8.46,8.46,0,0,1-3.63.324c-.793.98-1.759.991-3.057,2.432-1.96,2.178,11.106.653,12.63,0s2.178-13.5,3.811-16.768C743.173,794.376,740.474,793.75,738.5,793.129Z" transform="translate(-631.558 -624.634)" fill="#d54a41"/>
    <g id="Group_2489" data-name="Group 2489" transform="translate(17.922 56.719)">
      <path id="Path_1514" data-name="Path 1514" d="M596.627,564.879H563.575a2.536,2.536,0,0,1-2.3-1.468l-13.357-28.747a2.537,2.537,0,0,1,4.6-2.138l12.675,27.278h31.434a2.537,2.537,0,0,1,0,5.074Z" transform="translate(-547.681 -531.059)" fill="#75a1de"/>
    </g>
    <path id="Path_1515" data-name="Path 1515" d="M639.136,582.181c-6.679-.1-13.3-4.078-16.593-3.5s-14.034,8.034-12.679,8.324,9.872-4.124,10.163-4.192,2.129,3.058,6.678,4.205.032-3.409,14.133.85C650.007,590.641,639.136,582.181,639.136,582.181Z" transform="translate(-565.353 -501.619)" fill="#f09959"/>
    <path id="Path_1516" data-name="Path 1516" d="M776.147,478.232l.983,7.906s-8.642.514-12.943,2.934-10.647,9.411-10.647,9.411l5.185-8.927.746-5.711Z" transform="translate(-647.816 -444.045)" fill="#f2e5de"/>
    <path id="Path_1517" data-name="Path 1517" d="M730.232,500.712c-6.419-1.2-9.388,4.549-13.55,13.938S705.415,535.441,704,536.911s-23.81,0-23.81,0-.677,6.485,0,7.259,4.55.678,4.55.678,1.548,1.237,3,2.215,13.744,2.818,19.454,2.528,10.938-.774,11.712-1.645,16.357-24.875,17.325-33.489S733.508,501.326,730.232,500.712Z" transform="translate(-605.58 -456.846)" fill="#f2e5de"/>
    <path id="Path_1518" data-name="Path 1518" d="M739.63,402.453c-12.14.581-10.236,18.844-10.236,18.844s3.153.973,9.759-.116c-.508-1.96-.291-6.969-.291-6.969a45.648,45.648,0,0,0,1.742,6.533c1.4.64,2.976.073,5.662-.576,1.379,5.8,5.276,8.255,7.945,9.094,2.948.927,6.069,2.033,9.554.29s1.568-19.551-.282-23.133c-2.777-5.376-7.393-10.187-15.378-7.646A59.32,59.32,0,0,0,739.63,402.453Z" transform="translate(-633.907 -398.076)" fill="#303c60"/>
    <path id="Path_1519" data-name="Path 1519" d="M803.039,457.435l4.963,7.25s-5.5,13.744,10.5,19.971c12.53,4.876,11.054,13.469,5.392,22.11s3.388,16.187,3.388,16.187,1.38-9.573,13.554-11.379c16.6-2.464,21.3-24.75,8.9-35.893-10.259-9.221-13.381-1.584-20.325-9.86s-20.055-2.685-20.055-2.685l-4.805-7.008Z" transform="translate(-676.203 -431.369)" fill="#303c60"/>
    <g id="Group_2490" data-name="Group 2490" transform="translate(132.709 28.61)">
      <path id="Path_1520" data-name="Path 1520" d="M863.342,503.308a.436.436,0,0,1-.212-.054.442.442,0,0,1-.175-.6c4.174-7.627.768-16.869-.945-19.372-.182-.265-.354-.534-.537-.819-1.683-2.627-3.778-5.9-14.954-7.909-2.692-.484-4.872-2.084-7.179-3.779-4.766-3.5-10.168-7.464-21.905-2.062a.441.441,0,0,1-.369-.8c12.209-5.62,17.834-1.491,22.8,2.153,2.222,1.631,4.322,3.173,6.812,3.621,11.556,2.08,13.766,5.53,15.541,8.3.179.279.348.542.522.8,1.795,2.623,5.363,12.3.991,20.295A.442.442,0,0,1,863.342,503.308Z" transform="translate(-816.81 -465.155)" fill="#303c60"/>
    </g>
    <g id="Group_2491" data-name="Group 2491" transform="translate(111.214 16.227)">
      <path id="Path_1521" data-name="Path 1521" d="M779.383,453.391a17.455,17.455,0,0,1-2.578-.208c-4.247-.636-9.945-3.05-10.392-16.6a.441.441,0,1,1,.882-.029c.184,5.587,1.292,9.721,3.294,12.286a9.259,9.259,0,0,0,6.347,3.474c3.93.589,6.536-.137,7.743-2.157a.442.442,0,1,1,.758.453C784.33,452.458,782.3,453.391,779.383,453.391Z" transform="translate(-766.412 -436.123)" fill="#303c60"/>
    </g>
  </g>
  <g id="Group_2493" data-name="Group 2493" transform="translate(57.605 198.55)">
    <rect id="Rectangle_2508" data-name="Rectangle 2508" width="141.068" height="5.257" rx="2.628" transform="translate(0 0)" fill="#2e5b9a"/>
    <path id="Path_1522" data-name="Path 1522" d="M409.7,714.051h3.262l12.689-96.993h-7.176Z" transform="translate(-394.899 -613.478)" fill="#2e5b9a"/>
    <path id="Path_1523" data-name="Path 1523" d="M647.757,714.051H644.5l-12.689-96.993h7.176Z" transform="translate(-522.275 -613.478)" fill="#2e5b9a"/>
  </g>
</svg>
