<svg id="Group_2696" data-name="Group 2696" xmlns="http://www.w3.org/2000/svg" xmlns:xlink="http://www.w3.org/1999/xlink" width="393.643" height="260.789" viewBox="0 0 393.643 260.789">
  <defs>
    <linearGradient id="linear-gradient" y1="0.5" x2="1" y2="0.5" gradientUnits="objectBoundingBox">
      <stop offset="0" stop-color="#b37e10"/>
      <stop offset="0.222" stop-color="#e3c15b"/>
      <stop offset="0.328" stop-color="#f8dd7b"/>
      <stop offset="0.524" stop-color="#fdf1a4"/>
      <stop offset="0.73" stop-color="#f8dd7b"/>
      <stop offset="1" stop-color="#b37e10"/>
    </linearGradient>
    <linearGradient id="linear-gradient-2" x1="0.5" y1="1" x2="0.5" y2="0" xlink:href="#linear-gradient"/>
  </defs>
  <g id="Group_2695" data-name="Group 2695" transform="translate(0 0)">
    <g id="Group_2579" data-name="Group 2579" transform="translate(97.831 0)">
      <g id="Group_2576" data-name="Group 2576" transform="translate(2.958 3.11)">
        <path id="Path_1728" data-name="Path 1728" d="M728.216,615.3l19.852-73.281-59.133-47.616,75.829-3.764,27.012-70.954,27.013,70.954,75.828,3.764-59.134,47.616L855.336,615.3l-63.56-41.525Z" transform="translate(-688.935 -419.688)" fill="url(#linear-gradient)"/>
      </g>
      <g id="Group_2578" data-name="Group 2578" transform="translate(0 0)">
        <g id="Group_2577" data-name="Group 2577">
          <path id="Path_1729" data-name="Path 1729" d="M842.872,602.793l-65.388-42.72L712.1,602.793,732.52,527.4l-60.835-48.986,78.011-3.872,27.788-72.995,27.789,72.995,78.01,3.872L822.448,527.4Zm-65.388-45.364,61.731,40.331-19.281-71.173.563-.453,56.869-45.793-73.647-3.656-26.236-68.913-26.235,68.913L677.6,480.34l57.433,46.247L715.752,597.76Z" transform="translate(-671.685 -401.551)" fill="url(#linear-gradient-2)"/>
        </g>
      </g>
    </g>
    <g id="Group_2580" data-name="Group 2580" transform="translate(166.885 217.316)">
      <ellipse id="Ellipse_320" data-name="Ellipse 320" cx="39.532" cy="10.353" rx="39.532" ry="10.353" transform="translate(0 1.925)" fill="#c73a67"/>
      <path id="Path_1730" data-name="Path 1730" d="M1162.566,1678.476c0,5.372-16.63,9.728-37.143,9.728s-37.143-4.355-37.143-9.728,16.63-9.727,37.143-9.727S1162.566,1673.1,1162.566,1678.476Z" transform="translate(-1085.891 -1668.749)" fill="#ff8c96"/>
    </g>
    <g id="Group_2581" data-name="Group 2581" transform="translate(255.826 218.806)">
      <ellipse id="Ellipse_321" data-name="Ellipse 321" cx="32.016" cy="8.385" rx="32.016" ry="8.385" transform="translate(0 1.559)" fill="#c73a67"/>
      <path id="Path_1731" data-name="Path 1731" d="M1664.421,1685.318c0,4.351-13.468,7.878-30.081,7.878s-30.081-3.527-30.081-7.878,13.468-7.878,30.081-7.878S1664.421,1680.967,1664.421,1685.318Z" transform="translate(-1602.324 -1677.44)" fill="#ff8c96"/>
    </g>
    <g id="Group_2582" data-name="Group 2582" transform="translate(329.61 220.607)">
      <ellipse id="Ellipse_322" data-name="Ellipse 322" cx="32.016" cy="8.385" rx="32.016" ry="8.385" transform="translate(0 1.559)" fill="#c73a67"/>
      <path id="Path_1732" data-name="Path 1732" d="M2094.672,1695.817c0,4.351-13.467,7.877-30.082,7.877s-30.081-3.527-30.081-7.877,13.468-7.878,30.081-7.878S2094.672,1691.466,2094.672,1695.817Z" transform="translate(-2032.575 -1687.939)" fill="#ff8c96"/>
    </g>
    <g id="Group_2608" data-name="Group 2608" transform="translate(180.989 54.143)">
      <g id="Group_2583" data-name="Group 2583" transform="translate(3.041 89.544)">
        <path id="Path_1733" data-name="Path 1733" d="M1179.018,1239.407s.57,2.466,1.321,2.947-.142,5.7-.207,6.323c-.054.526-.636.968-.867.857s-.2-2.9-.533-3.8c-.277-.757-.534-1.045-.7-.806a13.749,13.749,0,0,0-.328,4.694c.279,1.342-1.422,5.556-2.242,5.09s-1.328-7.224-1.063-9.312a23.845,23.845,0,0,1,1.289-4.688Z" transform="translate(-1174.324 -1239.407)" fill="#eea886"/>
      </g>
      <g id="Group_2584" data-name="Group 2584" transform="translate(0 166.262)">
        <path id="Path_1734" data-name="Path 1734" d="M1166.76,1687.3s-2.713,3.029-5.467,3.664-4.681,1.444-4.7,3.182,7.926,2.884,11.077,1.131c4.7-2.615,5.182-1.827,5.7-3.134s-.626-4.8-.592-5.218C1172.822,1686.407,1166.76,1687.3,1166.76,1687.3Z" transform="translate(-1156.592 -1686.761)" fill="#202338"/>
      </g>
      <g id="Group_2585" data-name="Group 2585" transform="translate(10.163 164.495)">
        <path id="Path_1735" data-name="Path 1735" d="M1216.163,1677.311a12.542,12.542,0,0,0-.3,1.449c.053.03,6.206.763,6.02-.375-.151-.924-.366-1.927-.366-1.927Z" transform="translate(-1215.853 -1676.457)" fill="#81807e"/>
      </g>
      <g id="Group_2586" data-name="Group 2586" transform="translate(28.712 167.375)">
        <path id="Path_1736" data-name="Path 1736" d="M1333.149,1693.463s-2,2.95-4.665,3.631c-2.632.671-4.338,1.948-4.467,3.637s6.205,3.9,10.656.934c2.924-1.95,4.015-1.839,4.6-3.078s-.309-4.71-.25-5.113C1339.1,1692.977,1333.149,1693.463,1333.149,1693.463Z" transform="translate(-1324.015 -1693.25)" fill="#202338"/>
      </g>
      <g id="Group_2587" data-name="Group 2587" transform="translate(37.834 165.596)">
        <path id="Path_1737" data-name="Path 1737" d="M1377.3,1683.408a13.776,13.776,0,0,0-.082,1.459c.05.032,5.914,1.136,5.879.012a9.164,9.164,0,0,0-.371-2Z" transform="translate(-1377.208 -1682.875)" fill="#81807e"/>
      </g>
      <g id="Group_2588" data-name="Group 2588" transform="translate(9.551 73.879)">
        <path id="Path_1738" data-name="Path 1738" d="M1218.8,1154.594s-2.238,21.731-3.4,29.17c-1.361,8.7-1.822,15.885-2.2,20.387-.477,5.662-.57,33.517-.9,35.172s7.412.458,7.412.458,3.811-36.4,5.233-42.425c1.323-5.615,6.236-29.791,7.444-28.257s2.706,28.212,3.6,32.641,3.615,39.1,3.615,39.1,6.165,1.228,7.8-.16c0,0,.747-29.879.177-38.182-.217-3.164,3.708-37.94-1.325-51.94C1243.594,1143.157,1218.8,1154.594,1218.8,1154.594Z" transform="translate(-1212.283 -1148.064)" fill="#292c47"/>
      </g>
      <g id="Group_2589" data-name="Group 2589" transform="translate(3.732 26.074)">
        <path id="Path_1739" data-name="Path 1739" d="M1189.729,901.1a17.844,17.844,0,0,1-1.033-8.368l0,.01c-.22.479.036,17.492-1.2,17.946-1.261.463-2.691,24.058-4.01,22.827-1.408-1.314-5.127.045-5.127.045l3.545-26.967,5.29-29.328c.19-.151,2.657-1.478,4.29-2.255,2.513-1.2,6.013-2.808,8.258-3.839,1.317-.6,2.6-1.045,2.6-1.045s8.976-.86,9.707-.814a22.794,22.794,0,0,1,2.823.964c3.183,1.208,9.319,3.668,10.3,4.37,1.433,1.027,4.462,25.41,4.6,27.118.247,3.075-.726,24.966-.726,24.966s-3.772,1.145-5.353.855-.781-19.679-.843-23.713c-.05-3.272-1.838-11.911-1.838-11.911l0,.014a.025.025,0,0,0,0,.011l0,.012c-.176.648-2.592,9.613-2.676,13.921-.089,4.47.581,21.573.581,21.573l-6,2.828-20.764.6-3.025.046s.478-10.136.654-13.61c.11-2.209.54-6.16.43-10.011C1190.2,907.339,1190.278,902.457,1189.729,901.1Z" transform="translate(-1178.354 -869.308)" fill="#3480b5"/>
      </g>
      <g id="Group_2590" data-name="Group 2590" transform="translate(27.246 17.13)">
        <path id="Path_1740" data-name="Path 1740" d="M1325.6,826.079c-.66,6.051-7.65,6.051-7.65,6.051a3.64,3.64,0,0,1-2.411-4.351,6.006,6.006,0,0,0,.455-1.407,13.741,13.741,0,0,0-.043-1.774c-.022-.276-.044-.454-.044-.454s1.082-1.141,2.458-2.5c2.405-2.378,5.712-5.425,5.717-4.213a1.093,1.093,0,0,1-.028.23C1323.474,820.386,1325.6,826.079,1325.6,826.079Z" transform="translate(-1315.468 -817.154)" fill="#eea886"/>
      </g>
      <g id="Group_2591" data-name="Group 2591" transform="translate(36.751 75.881)">
        <path id="Path_1741" data-name="Path 1741" d="M1370.891,1159.881s.544,3.43.591,4.324l1.153-.23s-.317-3.629-.5-4.237Z" transform="translate(-1370.891 -1159.738)" fill="#5d676c"/>
      </g>
      <g id="Group_2592" data-name="Group 2592" transform="translate(27.592 20.325)">
        <path id="Path_1742" data-name="Path 1742" d="M1318.518,837.531l1.52-.455,4.318-1.293h0c-.015.023-.336.5-.884,1.193-1.162,1.462-3.348,3.864-5.8,4.829a17.72,17.72,0,0,0-.181-2.141Z" transform="translate(-1317.486 -835.783)" fill="#a77860"/>
      </g>
      <g id="Group_2593" data-name="Group 2593" transform="translate(22.988 5.85)">
        <path id="Path_1743" data-name="Path 1743" d="M1303.427,763.346c-.6,1.3-1.163,2.238-1.324,2.611h0a4.608,4.608,0,0,1-.805,1.086c-1.136,1.224-3.249,2.839-5.325,2.783a3.6,3.6,0,0,1-.685-.082,3.258,3.258,0,0,1-2.373-1.64c-4.3-8.423-1.187-15.31-1.187-15.31s11.763-3.327,13.6.215C1306.621,755.492,1304.828,760.3,1303.427,763.346Z" transform="translate(-1290.636 -751.377)" fill="#eea886"/>
      </g>
      <g id="Group_2594" data-name="Group 2594" transform="translate(22.641 0)">
        <path id="Path_1744" data-name="Path 1744" d="M1290.05,724.531s-1.092-.061-1.362-2.132c-.267-2.047.273-2.613.273-2.613a48.642,48.642,0,0,1,6.6-2.3c1.744-.264,6.032-.518,7.037.631,0,0,2.442-.567,3.107,3.487,1.056,6.432-3.6,12.677-3.6,12.677s.04-4.2-.887-4.758-1.727.767-1.727.767l-1.9.34s2.879-6.216-.575-6.447S1292.028,724.891,1290.05,724.531Z" transform="translate(-1288.614 -717.264)" fill="#323657"/>
      </g>
      <g id="Group_2595" data-name="Group 2595" transform="translate(33.514 9.58)">
        <path id="Path_1745" data-name="Path 1745" d="M1352.075,774.9c.18-1.851,3.528-2.558,3.3-.617s-1.873,3.8-2.634,3.739S1351.938,776.311,1352.075,774.9Z" transform="translate(-1352.015 -773.127)" fill="#eea886"/>
      </g>
      <g id="Group_2596" data-name="Group 2596" transform="translate(32.29 27.04)">
        <path id="Path_1746" data-name="Path 1746" d="M1360.538,908.719c.278,3.744-1.306,24.461.275,24.752s7.389-.986,7.389-.986.728-22.34.5-24.682c-.17-1.7-2.884-27.272-4.317-28.3-.827-.594-6.959-2.767-9.968-3.953-.55-.217-1.083-.424-1.575-.611-.638.71-7.408,13.233-7.936,23.409-.161,3.1.565,9.638,1.117,14.982.589,5.7,1.242,10.15,1.72,14.917.942,9.393,1.6,16.866,1.6,16.866l9.348-4.162c1.513-.757,3.607-3.862,3.039-5.455-2.161-6.052-4.883-16.394-4.885-21.7,0,0,1.043-13.006,1.869-15.865A80.141,80.141,0,0,1,1360.538,908.719Z" transform="translate(-1344.878 -874.939)" fill="#e2d2ca"/>
      </g>
      <g id="Group_2597" data-name="Group 2597" transform="translate(3.041 27.935)">
        <path id="Path_1747" data-name="Path 1747" d="M1196.4,880.158c-.726.333-1.585.727-2.5,1.149-1.909.881-4.061,1.88-5.762,2.69-1.633.777-3.3,1.427-4.637,2.022l-6.349,33.213-2.83,24.821s4.066-.445,6.107-.6c.619-.046,3.683-20.3,4.194-22.9.071-.359.379-1.95.726-4.066v0c.3-1.8.618-3.972.847-6.1a19.686,19.686,0,0,1,.486,5.466c-.771,9.957-3.431,25.549-4.672,29.55-.207.668.51,1.282,1.024,1.758l3.593,2.266s1.482-13.637,1.974-18.265c.475-4.47,1.968-10.46,2.623-16.3v0c.829-7.405,1.692-14.741,2.307-19.051,1.6-11.221,2.923-15.617,2.923-15.617Zm-11.041,21.561a.034.034,0,0,0,0,.009h0Z" transform="translate(-1174.326 -880.158)" fill="#e2d2ca"/>
      </g>
      <g id="Group_2598" data-name="Group 2598" transform="translate(53.226 90.26)">
        <path id="Path_1748" data-name="Path 1748" d="M1469.348,1249.323s-.352-4.809-1.638-5.537-.526.75-.526.75.769,3.482.948,4.895A7.248,7.248,0,0,0,1469.348,1249.323Z" transform="translate(-1466.961 -1243.585)" fill="#434343"/>
      </g>
      <g id="Group_2599" data-name="Group 2599" transform="translate(47.601 81.945)">
        <path id="Path_1749" data-name="Path 1749" d="M1436.25,1198.482s-.462,2.088-1.084,4.178-1.215,2.762-.934,3.95c.211.9,1.24,1.556,1.492,1.264s.324-3.792,1.774-3.8-.368,4.339.489,4.008,4.151-2.2,3.916-3.959-1.583-3.014-1.537-5.649a5.668,5.668,0,0,0-.718-3.377Z" transform="translate(-1434.16 -1195.1)" fill="#eea886"/>
      </g>
      <g id="Group_2601" data-name="Group 2601" transform="translate(49.067 90.755)">
        <g id="Group_2600" data-name="Group 2600">
          <path id="Path_1750" data-name="Path 1750" d="M1444.434,1246.491s-1.922.522-1.71,7.049l2.18-.4a22.5,22.5,0,0,1,.529-5.584S1445.3,1246.283,1444.434,1246.491Z" transform="translate(-1442.708 -1246.468)" fill="#5a5c5a"/>
        </g>
      </g>
      <g id="Group_2603" data-name="Group 2603" transform="translate(42.908 94.309)">
        <g id="Group_2602" data-name="Group 2602">
          <path id="Path_1751" data-name="Path 1751" d="M1406.795,1272.276l16.946-5.084.265,20.961-16.784,10.406Z" transform="translate(-1406.795 -1267.191)" fill="#5a5c5a"/>
        </g>
      </g>
      <g id="Group_2604" data-name="Group 2604" transform="translate(43.336 94.309)">
        <path id="Path_1752" data-name="Path 1752" d="M1409.289,1298.558l2.138.362,16.319-10.493-.523-21.16-1.416-.075Z" transform="translate(-1409.289 -1267.191)" fill="#5a5c5a"/>
      </g>
      <g id="Group_2605" data-name="Group 2605" transform="translate(47.703 62.722)">
        <path id="Path_1753" data-name="Path 1753" d="M1434.756,1091.577l.1,16.464a28.652,28.652,0,0,0,7.814-1.818l.314-23.217Z" transform="translate(-1434.756 -1083.006)" fill="#e2d2ca"/>
      </g>
      <g id="Group_2606" data-name="Group 2606" transform="translate(13.845 47.43)">
        <path id="Path_1754" data-name="Path 1754" d="M1238.222,996.454c.22-1.085.446-1.965.633-2.621a24.238,24.238,0,0,0-.394,3.281c-.22,3.431-.073,7.32-.068,7.46v0c-.229,2.123-.552,4.3-.847,6.1a51.6,51.6,0,0,1,.037-10C1237.752,999.043,1237.984,997.628,1238.222,996.454Z" transform="translate(-1237.321 -993.833)" fill="#baada6"/>
      </g>
      <g id="Group_2607" data-name="Group 2607" transform="translate(15.38 46.065)">
        <path id="Path_1755" data-name="Path 1755" d="M1246.709,985.873c-.017.046-.194.514-.437,1.36A5.449,5.449,0,0,1,1246.709,985.873Z" transform="translate(-1246.273 -985.873)" fill="#e2d2ca"/>
      </g>
    </g>
    <g id="Group_2632" data-name="Group 2632" transform="translate(258.64 71.844)">
      <g id="Group_2609" data-name="Group 2609" transform="translate(6.577 149.978)">
        <path id="Path_1756" data-name="Path 1756" d="M1656.82,1695.506s-2.423,2.7-4.883,3.271-4.18,1.29-4.2,2.842,7.078,2.575,9.893,1.01c4.2-2.335,4.628-1.631,5.094-2.8s-.56-4.289-.529-4.66C1662.234,1694.712,1656.82,1695.506,1656.82,1695.506Z" transform="translate(-1647.739 -1695.028)" fill="#202338"/>
      </g>
      <g id="Group_2610" data-name="Group 2610" transform="translate(32.219 150.972)">
        <path id="Path_1757" data-name="Path 1757" d="M1805.418,1701.013s-1.782,2.635-4.166,3.242c-2.351.6-3.874,1.74-3.989,3.248s5.542,3.484,9.517.834c2.612-1.742,3.586-1.643,4.112-2.749s-.276-4.207-.223-4.566C1810.734,1700.58,1805.418,1701.013,1805.418,1701.013Z" transform="translate(-1797.262 -1700.824)" fill="#202338"/>
      </g>
      <g id="Group_2611" data-name="Group 2611" transform="translate(15.653 148.4)">
        <path id="Path_1758" data-name="Path 1758" d="M1700.941,1686.588a11.2,11.2,0,0,0-.272,1.294c.047.027,5.543.682,5.377-.335-.135-.825-.327-1.721-.327-1.721Z" transform="translate(-1700.664 -1685.826)" fill="#81807e"/>
      </g>
      <g id="Group_2612" data-name="Group 2612" transform="translate(40.366 149.383)">
        <path id="Path_1759" data-name="Path 1759" d="M1844.849,1692.034a12.154,12.154,0,0,0-.073,1.3c.044.029,5.281,1.014,5.25.01a8.169,8.169,0,0,0-.332-1.789Z" transform="translate(-1844.766 -1691.558)" fill="#81807e"/>
      </g>
      <g id="Group_2613" data-name="Group 2613" transform="translate(15.107 67.473)">
        <path id="Path_1760" data-name="Path 1760" d="M1703.3,1219.76s-2,19.407-3.038,26.051c-1.215,7.768-1.627,14.186-1.966,18.207-.426,5.057-.508,29.933-.807,31.412s6.62.409,6.62.409,3.4-32.5,4.673-37.889c1.182-5.015,5.57-26.605,6.648-25.236s2.416,25.2,3.215,29.151,3.229,34.919,3.229,34.919,5.506,1.1,6.97-.144c0,0,.667-26.684.158-34.1-.194-2.826,3.311-33.883-1.183-46.386C1725.438,1209.546,1703.3,1219.76,1703.3,1219.76Z" transform="translate(-1697.475 -1213.929)" fill="#292c47"/>
      </g>
      <g id="Group_2614" data-name="Group 2614" transform="translate(19.247 24.779)">
        <path id="Path_1761" data-name="Path 1761" d="M1757.551,1016.253s-3.369,1.023-4.78.764-.7-17.574-.754-21.177c-.043-2.922-1.642-10.638-1.642-10.638a.052.052,0,0,1,0,.013.014.014,0,0,0,0,.009s0,.009,0,.013c-.159.578-2.316,8.585-2.392,12.432-.079,3.993.52,19.266.52,19.266l-5.363,2.526-18.544.533-2.7.04s.426-9.053.585-12.156c.1-1.972.482-5.5.383-8.94a31.69,31.69,0,0,0-.3-5.185c-.039-6.889-.457-13.712-.457-13.712q-.346-4.685-.483-8.769c.753-.4,1.659-.865,2.385-1.21,2.244-1.068,5.369-2.507,7.375-3.427,1.175-.539,2.325-.933,2.325-.933s8.017-.769,8.668-.728a20.425,20.425,0,0,1,2.522.863,91.958,91.958,0,0,1,9.2,3.9c1.28.916,3.986,22.693,4.108,24.217C1758.42,996.7,1757.551,1016.253,1757.551,1016.253Z" transform="translate(-1721.62 -964.972)" fill="#8f95c9"/>
      </g>
      <g id="Group_2615" data-name="Group 2615" transform="translate(30.964 16.792)">
        <path id="Path_1762" data-name="Path 1762" d="M1798.938,926.37c-.589,5.4-6.589,5.4-6.589,5.4s-2.484-2.173-2.4-3.781c0-.034,0-.071.009-.105.036-.3.373-.664.407-1.257.009-.16.011-.323.011-.486,0-.411-.026-.815-.05-1.1-.021-.246-.041-.406-.041-.406s.968-1.019,2.2-2.233c2.147-2.124,5.1-4.845,5.106-3.764a.979.979,0,0,1-.026.206C1797.04,921.286,1798.938,926.37,1798.938,926.37Z" transform="translate(-1789.943 -918.399)" fill="#eea886"/>
      </g>
      <path id="Path_1763" data-name="Path 1763" d="M1796,945.819s-.753,3.946-5.716,4.836c-.116.021-.225.038-.328.056,0-.034,0-.071.009-.1.036-.3.372-.664.406-1.257.009-.16.011-.323.011-.486C1790.583,948.915,1793.643,949.627,1796,945.819Z" transform="translate(-1758.988 -924.325)" fill="#a77860"/>
      <g id="Group_2616" data-name="Group 2616" transform="translate(39.399 69.261)">
        <path id="Path_1764" data-name="Path 1764" d="M1839.126,1224.483s.486,3.063.528,3.862l1.029-.205s-.284-3.241-.45-3.784Z" transform="translate(-1839.126 -1224.355)" fill="#5d676c"/>
      </g>
      <g id="Group_2617" data-name="Group 2617" transform="translate(25.055 5.555)">
        <path id="Path_1765" data-name="Path 1765" d="M1769.156,864.022c-.282,1.372-.615,2.4-.686,2.788h0a4.507,4.507,0,0,1-.529,1.216c-.814,1.422-2.474,3.432-4.471,3.838a3.547,3.547,0,0,1-.673.073,3.194,3.194,0,0,1-2.63-1.04c-5.976-7.094-4.527-14.364-4.527-14.364s10.5-5.784,13.044-2.809C1770.468,855.812,1769.819,860.8,1769.156,864.022Z" transform="translate(-1755.485 -852.874)" fill="#eea886"/>
      </g>
      <g id="Group_2618" data-name="Group 2618" transform="translate(23.01 0)">
        <path id="Path_1766" data-name="Path 1766" d="M1745.76,829.7s-1.057.184-1.774-1.735c-.708-1.9-.318-2.557-.318-2.557a47.712,47.712,0,0,1,5.8-3.657c1.607-.639,5.648-1.831,6.863-.956,0,0,2.207-1.083,3.741,2.642,2.434,5.911-.627,12.908-.627,12.908s-.893-4.023-1.9-4.349-1.479,1.115-1.479,1.115l-1.736.744s1.373-6.576-1.977-6.032S1747.729,829.6,1745.76,829.7Z" transform="translate(-1743.561 -820.483)" fill="#323657"/>
      </g>
      <g id="Group_2619" data-name="Group 2619" transform="translate(35.174 8.787)">
        <path id="Path_1767" data-name="Path 1767" d="M1814.507,873.949c-.238-1.808,2.8-3.225,3.02-1.322s-.947,4.049-1.689,4.155S1814.688,875.328,1814.507,873.949Z" transform="translate(-1814.494 -871.722)" fill="#eea886"/>
      </g>
      <g id="Group_2620" data-name="Group 2620" transform="translate(54.112 82.103)">
        <path id="Path_1768" data-name="Path 1768" d="M1927.055,1304.361s-.315-4.294-1.464-4.944-.47.67-.47.67.687,3.109.846,4.371A6.457,6.457,0,0,0,1927.055,1304.361Z" transform="translate(-1924.922 -1299.237)" fill="#434343"/>
      </g>
      <g id="Group_2622" data-name="Group 2622" transform="translate(44.898 85.718)">
        <g id="Group_2621" data-name="Group 2621">
          <path id="Path_1769" data-name="Path 1769" d="M1871.19,1324.859l15.134-4.541.237,18.72-14.99,9.293Z" transform="translate(-1871.19 -1320.318)" fill="#5a5c5a"/>
        </g>
      </g>
      <g id="Group_2623" data-name="Group 2623" transform="translate(45.279 85.718)">
        <path id="Path_1770" data-name="Path 1770" d="M1873.417,1348.331l1.909.323,14.574-9.371-.467-18.9-1.264-.067Z" transform="translate(-1873.417 -1320.318)" fill="#5a5c5a"/>
      </g>
      <g id="Group_2624" data-name="Group 2624" transform="translate(20.312 42.633)">
        <path id="Path_1771" data-name="Path 1771" d="M1728.221,1069.08c-.016.041-.174.459-.39,1.214A4.849,4.849,0,0,1,1728.221,1069.08Z" transform="translate(-1727.831 -1069.08)" fill="#e2d2ca"/>
      </g>
      <path id="Path_1772" data-name="Path 1772" d="M1806.47,983.428l-2.5,2.223s2.883-.192,3.422-.672Z" transform="translate(-1770.602 -955.484)" fill="#45403d"/>
      <path id="Path_1773" data-name="Path 1773" d="M1723.707,1269.07a141.991,141.991,0,0,0,22.009,0v3.372s-15.432,2.229-22.524-.643Z" transform="translate(-1703.675 -1192.14)" fill="#292c47"/>
      <g id="Group_2625" data-name="Group 2625" transform="translate(16.127 25.998)">
        <path id="Path_1774" data-name="Path 1774" d="M1716.306,972.525c-.649.3-1.415.649-2.229,1.026-1.706.788-3.628,1.681-5.146,2.4-.8.383-1.618.732-2.389,1.057q.135,4.156.488,8.921s.482,7.87.458,15.243a14.641,14.641,0,0,1,.143,3.239c-.111,1.441-.268,3.015-.456,4.657,0,.021,0,.043-.007.062-.045.39-.092.781-.139,1.177,0,.006,0,.011,0,.017-1,8.21-2.687,17.63-3.569,20.479-.186.6.456,1.145.914,1.569l3.209,2.023s1.323-12.179,1.762-16.313c.424-3.99,1.758-9.34,2.342-14.553v0c.74-6.613,1.76-13.092,2.31-16.942,1.433-10.021,3.341-14.505,3.341-14.505Z" transform="translate(-1703.425 -972.082)" fill="#323657"/>
      </g>
      <g id="Group_2626" data-name="Group 2626" transform="translate(13.728 53.389)">
        <path id="Path_1775" data-name="Path 1775" d="M1691.289,1131.869s2.444.145,3.869.1a9.952,9.952,0,0,1,4.636,1.893c.587.675,1.779,4.424,2.148,4.731s-.335.767-1.006.373a1.769,1.769,0,0,1-2.45.72c-1.518-.905-2.977-2-3.786-2.381s-5.263-2.216-5.263-2.216S1690.082,1131.246,1691.289,1131.869Z" transform="translate(-1689.437 -1131.801)" fill="#eea886"/>
      </g>
      <g id="Group_2627" data-name="Group 2627" transform="translate(35.414 25.642)">
        <path id="Path_1776" data-name="Path 1776" d="M1829.878,1000.175c.249,3.344-1.166,21.845.246,22.105s6.6-.881,6.6-.881.65-19.952.442-22.043c-.152-1.523-2.575-24.357-3.855-25.274-.738-.531-6.215-2.472-8.9-3.531-.491-.194-.967-.379-1.407-.546-.57.634-6.616,11.818-7.088,20.906-.144,2.767.5,8.608,1,13.38.526,5.091,1.109,9.065,1.536,13.323.842,8.388,1.43,15.063,1.43,15.063l8.348-3.717c1.351-.676,3.221-3.449,2.714-4.872-1.93-5.405-4.36-14.641-4.363-19.384,0,0,.931-11.615,1.67-14.168A71.5,71.5,0,0,1,1829.878,1000.175Z" transform="translate(-1815.893 -970.006)" fill="#323657"/>
      </g>
      <g id="Group_2628" data-name="Group 2628" transform="translate(49.089 74.677)">
        <path id="Path_1777" data-name="Path 1777" d="M1897.5,1258.956s-.413,1.865-.969,3.731-1.084,2.467-.834,3.528c.189.8,1.107,1.39,1.333,1.129s.29-3.386,1.584-3.392-.329,3.874.438,3.58,3.708-1.964,3.5-3.536-1.414-2.691-1.373-5.045a5.061,5.061,0,0,0-.641-3.016Z" transform="translate(-1895.63 -1255.935)" fill="#eea886"/>
      </g>
      <g id="Group_2630" data-name="Group 2630" transform="translate(50.398 82.544)">
        <g id="Group_2629" data-name="Group 2629">
          <path id="Path_1778" data-name="Path 1778" d="M1904.8,1301.832s-1.717.466-1.527,6.295l1.947-.355a20.1,20.1,0,0,1,.472-4.986S1905.58,1301.646,1904.8,1301.832Z" transform="translate(-1903.263 -1301.812)" fill="#5a5c5a"/>
        </g>
      </g>
      <g id="Group_2631" data-name="Group 2631" transform="translate(49.18 57.509)">
        <path id="Path_1779" data-name="Path 1779" d="M1896.161,1163.481l.086,14.7a25.586,25.586,0,0,0,6.979-1.624l.281-20.734Z" transform="translate(-1896.161 -1155.826)" fill="#323657"/>
      </g>
      <path id="Path_1780" data-name="Path 1780" d="M1788.036,983.82s-.214,3.068,2.381,3.14,4.656-2.421,4.656-2.421l-4.309,1.111-2.622-2.223Z" transform="translate(-1757.395 -955.484)" fill="#5c5552"/>
      <path id="Path_1781" data-name="Path 1781" d="M1822.281,958.986a37.409,37.409,0,0,1-3.745,4.192l2.105,3.532,3.631-6.177Z" transform="translate(-1782.669 -935.234)" fill="#7a716d"/>
      <path id="Path_1782" data-name="Path 1782" d="M1791.022,969.9l2.221,1.643s-1.951-3.558-1.99-5.142Z" transform="translate(-1759.873 -941.378)" fill="#45403d"/>
      <path id="Path_1783" data-name="Path 1783" d="M1777.807,966.4l-1.426,1.008-1.589,4.74,2.783-2.248Z" transform="translate(-1746.427 -941.378)" fill="#7a716d"/>
      <path id="Path_1784" data-name="Path 1784" d="M1689.922,1131.156l.911.2a8.28,8.28,0,0,0-1.454,3.949l-1.034-.274S1688.361,1132,1689.922,1131.156Z" transform="translate(-1674.804 -1077.878)" fill="#7a716d"/>
      <path id="Path_1785" data-name="Path 1785" d="M1612.075,1003.028c3.348,2.392,10.9,7.007,10.9,7.007s.747-5.255,1.524-5.613a79.207,79.207,0,0,1-6.766-5.543s5.413-3.683,8.968-6.166c.876-.611,1.606-1.127,2.062-1.462.145-.105.262-.194.348-.261,1.452-1.136,5.538-7.137,8.285-12.8,0,0-7.061,2.037-9.851,4.207-3.358,2.611-5.591,4.828-6.488,5.455s-10.941,8.34-11.359,9.536S1608.727,1000.636,1612.075,1003.028Z" transform="translate(-1609.387 -951.143)" fill="#323657"/>
      <path id="Path_1786" data-name="Path 1786" d="M1695.632,1132.273s-1.024.581-1.495,3.527c0,0,.088.16,1.019.422,0,0,.479-3.286,1.6-3.9A3.4,3.4,0,0,0,1695.632,1132.273Z" transform="translate(-1679.603 -1078.792)" fill="#292c47"/>
      <path id="Path_1787" data-name="Path 1787" d="M1697.693,1132.022l1.617.217a.176.176,0,0,0,.177-.09l.282-.518a.175.175,0,0,0-.131-.258l-1.617-.217a.175.175,0,0,0-.177.09l-.282.518A.175.175,0,0,0,1697.693,1132.022Z" transform="translate(-1682.423 -1077.877)" fill="#292c47"/>
      <path id="Path_1788" data-name="Path 1788" d="M1699.3,1132.314l1.21.162a.131.131,0,0,0,.133-.067l.211-.387a.131.131,0,0,0-.1-.193l-1.21-.162a.131.131,0,0,0-.133.067l-.211.387A.131.131,0,0,0,1699.3,1132.314Z" transform="translate(-1683.79 -1078.3)" fill="#454a78"/>
    </g>
    <g id="Group_2671" data-name="Group 2671" transform="translate(336.123 72.674)">
      <g id="Group_2635" data-name="Group 2635" transform="translate(13.802 77.446)">
        <g id="Group_2634" data-name="Group 2634">
          <g id="Group_2633" data-name="Group 2633">
            <path id="Path_1789" data-name="Path 1789" d="M2145.878,1276.924a4.5,4.5,0,0,0-.93,1.278,7.365,7.365,0,0,1-1.121,1.5,17.228,17.228,0,0,0-1.576,2.578,13.043,13.043,0,0,1-.155,1.94c-.177.386-.632,1.125-.287,1.263s.937-.415.937-.415a.529.529,0,0,0,.125.574.911.911,0,0,0,.9.249s.1.458.361.577a1.16,1.16,0,0,0,.934.093,1.066,1.066,0,0,0,.62.382.975.975,0,0,0,.892-.291s.637.3.922.029a3.286,3.286,0,0,0,.51-.88,11.265,11.265,0,0,0,.489-4.932,4.464,4.464,0,0,1,1.269-3.619Z" transform="translate(-2141.684 -1276.924)" fill="#eea886"/>
          </g>
        </g>
      </g>
      <g id="Group_2636" data-name="Group 2636" transform="translate(10.643 84.428)">
        <path id="Path_1790" data-name="Path 1790" d="M2123.264,1324.913v-5.632a1.646,1.646,0,0,1,1.645-1.645h8.931a1.647,1.647,0,0,1,1.645,1.645v5.632a1.647,1.647,0,0,1-1.645,1.645h-8.931A1.647,1.647,0,0,1,2123.264,1324.913Zm1.645-6.173a.542.542,0,0,0-.542.541v5.632a.542.542,0,0,0,.542.541h8.931a.542.542,0,0,0,.542-.541v-5.632a.542.542,0,0,0-.542-.541Z" transform="translate(-2123.264 -1317.636)" fill="#0e1e2b"/>
      </g>
      <g id="Group_2637" data-name="Group 2637" transform="translate(0 90.932)">
        <rect id="Rectangle_2582" data-name="Rectangle 2582" width="33.507" height="24.006" transform="translate(33.507 24.006) rotate(180)" fill="#54281a"/>
      </g>
      <g id="Group_2638" data-name="Group 2638" transform="translate(16.753 26.693)">
        <path id="Path_1791" data-name="Path 1791" d="M2173.126,980.977s1.716.024,2.448,5.156-.655,7.277-.821,9.413-2.671,15.928-2.738,16.538-.4,7.95-1.381,9.9-8.158,12.988-8.253,13.539-3.487-1.923-3.487-1.923,5.641-11.809,5.969-13.156,2.6-8.227,2.238-10.328,1.006-13.686.874-14.975S2169.837,981.76,2173.126,980.977Z" transform="translate(-2158.894 -980.977)" fill="#eea886"/>
      </g>
      <g id="Group_2639" data-name="Group 2639" transform="translate(16.343 26.693)">
        <path id="Path_1792" data-name="Path 1792" d="M2171.142,980.977s1.717.024,2.449,5.156a20.982,20.982,0,0,1-.373,9.2c-.417,2.1-1.841,14.952-1.909,15.562s-1.772,8.357-2.658,11.083c-.674,2.072-7.077,12.922-7.173,13.473s-4.978-2.535-4.978-2.535,6.26-12.214,6.588-13.562a53.6,53.6,0,0,0,1.421-8.142c.041-2.5,1.615-14.788,1.483-16.078S2166.353,982.732,2171.142,980.977Z" transform="translate(-2156.5 -980.977)" fill="#285173"/>
      </g>
      <g id="Group_2641" data-name="Group 2641" transform="translate(14.811 82.356)">
        <g id="Group_2640" data-name="Group 2640">
          <path id="Path_1793" data-name="Path 1793" d="M2147.593,1308.528s.6-2.331,1.35-2.679.58.505.58.505.152-.846.85-.8.446,1.036.446,1.036a.7.7,0,0,1,.953-.314c.662.3.264,1.071.264,1.071s.9-.638,1.11.232a3.606,3.606,0,0,1-.776,2.827s-.306.3-.922-.029a.963.963,0,0,1-1.512-.092s-1.18.319-1.295-.67C2148.639,1309.615,2147.363,1309.882,2147.593,1308.528Z" transform="translate(-2147.565 -1305.553)" fill="#db9c7c"/>
        </g>
      </g>
      <g id="Group_2642" data-name="Group 2642" transform="translate(6.989 144.747)">
        <path id="Path_1794" data-name="Path 1794" d="M2105.177,1677.216s-3.677,4.95-3.172,5.734,4.371.9,6.724,0,2.41-6.7,3.474-9.19c.446-1.043-.508-4.123-1.848-4.347a5.65,5.65,0,0,0-2.8.433S2108.945,1673.357,2105.177,1677.216Z" transform="translate(-2101.957 -1669.367)" fill="#1d3b54"/>
      </g>
      <g id="Group_2644" data-name="Group 2644" transform="translate(8.994 144.676)">
        <g id="Group_2643" data-name="Group 2643">
          <path id="Path_1795" data-name="Path 1795" d="M2117.216,1669.463a23.338,23.338,0,0,0-1.056,4.12c-.235,1.669-2.62,5.213-2.507,5.662s3.138.854,4.371-.3,2.026-4.517,2.3-6.527a16.148,16.148,0,0,1,.572-2.8S2118.392,1668.23,2117.216,1669.463Z" transform="translate(-2113.648 -1668.953)" fill="#eea886"/>
        </g>
      </g>
      <g id="Group_2645" data-name="Group 2645" transform="translate(39.122 144.75)">
        <path id="Path_1796" data-name="Path 1796" d="M2292.419,1677.31s-3.544,4.867-3.04,5.652,4.371.9,6.724,0,2.409-6.7,3.474-9.189c.446-1.044-.508-4.124-1.849-4.347a6.021,6.021,0,0,0-2.914.48S2296.187,1673.451,2292.419,1677.31Z" transform="translate(-2289.33 -1669.382)" fill="#1d3b54"/>
      </g>
      <g id="Group_2647" data-name="Group 2647" transform="translate(41.129 144.566)">
        <g id="Group_2646" data-name="Group 2646">
          <path id="Path_1797" data-name="Path 1797" d="M2304.509,1669.019a33.29,33.29,0,0,1-.729,3.923c-.448,1.625-2.858,5.323-2.746,5.772s3.138.854,4.371-.3,2.186-4.5,2.3-6.527a10.772,10.772,0,0,0-.28-3.346A2.736,2.736,0,0,0,2304.509,1669.019Z" transform="translate(-2301.031 -1668.312)" fill="#eea886"/>
        </g>
      </g>
      <g id="Group_2649" data-name="Group 2649" transform="translate(12.34 53.992)">
        <g id="Group_2648" data-name="Group 2648">
          <path id="Path_1798" data-name="Path 1798" d="M2147.716,1150.861s-3.154,14.677-3.88,18.372-2.753,21.593-2.97,24.636-3.292,14.51-3.147,15.6-4.559,22.92-4.559,22.92a2.828,2.828,0,0,0,3.3.117c.871-.6,10.32-20.44,10.32-25.874,0-7.512,5.666-17.076,6.383-18.756,6.659-15.613,5.236-20.628,6.105-21.642s.945.627,1.452,2.873,1.594,21.665,2.245,24.129.146,10.8.508,15,1.953,23.212,1.953,23.212,1.232,1.93,2.96.05c.372-.4,2.984-21.176,3.056-26.176s.15-11.895.29-14.057c1.342-20.718,4.642-23.677-.555-38.34C2161.449,1125.467,2147.716,1150.861,2147.716,1150.861Z" transform="translate(-2133.16 -1140.161)" fill="#eea886"/>
        </g>
      </g>
      <g id="Group_2650" data-name="Group 2650" transform="translate(20.462 60.589)">
        <path id="Path_1799" data-name="Path 1799" d="M2208.141,1178.629s8.988,12.579,5.119,39.339c0,0-21.319,2.9-32.741-3.354,0,0,4.723-27.59,6.435-31.883S2208.141,1178.629,2208.141,1178.629Z" transform="translate(-2180.519 -1178.628)" fill="#1d3b54"/>
      </g>
      <g id="Group_2651" data-name="Group 2651" transform="translate(16.661 148.705)">
        <path id="Path_1800" data-name="Path 1800" d="M2159.029,1692.445v5.182h-.673v-4.005Z" transform="translate(-2158.356 -1692.445)" fill="#1d3b54"/>
      </g>
      <g id="Group_2652" data-name="Group 2652" transform="translate(48.796 148.705)">
        <path id="Path_1801" data-name="Path 1801" d="M2346.411,1692.445v5.182h-.672v-4.005Z" transform="translate(-2345.739 -1692.445)" fill="#1d3b54"/>
      </g>
      <g id="Group_2653" data-name="Group 2653" transform="translate(24.862 24.671)">
        <path id="Path_1802" data-name="Path 1802" d="M2217.333,969.357a34.615,34.615,0,0,1-4.461,1.794c-1.149.23-5.61,6.025-6.393,8.14s0,5.289,1.61,9.014.092,4.967.828,8.693a86.639,86.639,0,0,1,1.241,13.682c-.138,2.07,18.6,2.46,22.88-1.311,0,0-4.3-6.438-4.851-7.358s-.092-5.933.414-7.22,3.873-12.239,3.873-12.239,2.755-8.41.267-10.343c-2.161-1.679-8.053-2.277-9.111-2.645A18.077,18.077,0,0,0,2217.333,969.357Z" transform="translate(-2206.173 -969.184)" fill="#eddad3"/>
      </g>
      <g id="Group_2654" data-name="Group 2654" transform="translate(32.951 23.666)">
        <path id="Path_1803" data-name="Path 1803" d="M2255.359,971.885l-2.012-2.356,1.747-6.2A40.981,40.981,0,0,1,2255.359,971.885Z" transform="translate(-2253.347 -963.326)" fill="#d6c5be"/>
      </g>
      <g id="Group_2655" data-name="Group 2655" transform="translate(28.966 0.757)">
        <path id="Path_1804" data-name="Path 1804" d="M2241.339,830.323c-1.968-.692-9.2-2.391-10.9,6.853s3.4,15.821,8.094,14.073,7.589-8.141,7.865-13.016S2243.823,831.2,2241.339,830.323Z" transform="translate(-2230.105 -829.737)" fill="#eea886"/>
      </g>
      <g id="Group_2656" data-name="Group 2656" transform="translate(29.298 0)">
        <path id="Path_1805" data-name="Path 1805" d="M2232.045,833.52s-.354-7.911,7.51-8.187,9.98,6.2,9.336,10.918a11.553,11.553,0,0,1-3.9,7.208s.282-3.818-1.243-4.809-7.643-2.969-10.31-7.568A7.049,7.049,0,0,0,2232.045,833.52Z" transform="translate(-2232.043 -825.325)" fill="#252e3b"/>
      </g>
      <g id="Group_2657" data-name="Group 2657" transform="translate(40.38 2.22)">
        <path id="Path_1806" data-name="Path 1806" d="M2296.671,844.046c-.145,3.313,2.085,6.1,4.981,6.228s5.362-2.456,5.507-5.769-2.085-6.1-4.981-6.228S2296.817,840.733,2296.671,844.046Z" transform="translate(-2296.665 -838.273)" fill="#252e3b"/>
      </g>
      <g id="Group_2658" data-name="Group 2658" transform="translate(34.441 16.49)">
        <path id="Path_1807" data-name="Path 1807" d="M2262.032,926.016a79.053,79.053,0,0,1,.522,8.052s3.441,3.448,7.355-4.025a10.26,10.26,0,0,1-.407-7.277C2270.741,918.569,2262.032,926.016,2262.032,926.016Z" transform="translate(-2262.032 -921.483)" fill="#eea886"/>
      </g>
      <g id="Group_2659" data-name="Group 2659" transform="translate(34.963 29.075)">
        <path id="Path_1808" data-name="Path 1808" d="M2265.079,994.867v3.15l3.96-2.959Z" transform="translate(-2265.079 -994.867)" fill="#eea886"/>
      </g>
      <g id="Group_2660" data-name="Group 2660" transform="translate(34.963 24.671)">
        <path id="Path_1809" data-name="Path 1809" d="M2265.079,976.738l1.644-2.035,5.539-5.52,1.792,1.725Z" transform="translate(-2265.079 -969.184)" fill="#d6c5be"/>
      </g>
      <g id="Group_2661" data-name="Group 2661" transform="translate(38.028 25.199)">
        <path id="Path_1810" data-name="Path 1810" d="M2287.834,972.263s-4.648,7.054-4.87,10.158,1.728,26.327,3.289,33.792,12.84-.842,12.84-.842-7.58-12.268-4.67-22.091,3.967-13.751,3.967-13.751-1-5.47-4.548-6.24C2290.731,972.613,2287.834,972.263,2287.834,972.263Z" transform="translate(-2282.947 -972.263)" fill="#285173"/>
      </g>
      <g id="Group_2662" data-name="Group 2662" transform="translate(24.765 25.933)">
        <path id="Path_1811" data-name="Path 1811" d="M2205.706,986.331s-.838,2.967,2.428,9.523c0,0-.052,8.391-.144,11.013s-1.945,12.048-1.945,12.048l4.462,2.377a.911.911,0,0,0,1.365-.9c-.915-7.544-3.89-36.16,2.537-43.852l-2.579.76S2207.248,981.053,2205.706,986.331Z" transform="translate(-2205.61 -976.543)" fill="#285173"/>
      </g>
      <g id="Group_2663" data-name="Group 2663" transform="translate(39.46 10.927)">
        <path id="Path_1812" data-name="Path 1812" d="M2292.051,889.767a1.212,1.212,0,0,1,1.794-.515c.552.414.874,1.656,0,3.266S2289.889,895.249,2292.051,889.767Z" transform="translate(-2291.296 -889.04)" fill="#eea886"/>
      </g>
      <g id="Group_2664" data-name="Group 2664" transform="translate(30.416 23.666)">
        <path id="Path_1813" data-name="Path 1813" d="M2241.1,969.529l-2.535.7,4.282-6.9Z" transform="translate(-2238.563 -963.326)" fill="#fae6de"/>
      </g>
      <g id="Group_2665" data-name="Group 2665" transform="translate(36.608 24.671)">
        <path id="Path_1814" data-name="Path 1814" d="M2274.667,974.7l2.315,3.035,4.731-7.929-1.509-.626Z" transform="translate(-2274.667 -969.184)" fill="#fae6de"/>
      </g>
      <g id="Group_2666" data-name="Group 2666" transform="translate(34.577 19.725)">
        <path id="Path_1815" data-name="Path 1815" d="M2262.826,942.98l.122,1.2s2.727.533,6.306-3.831A7.768,7.768,0,0,1,2262.826,942.98Z" transform="translate(-2262.826 -940.345)" fill="#a77860"/>
      </g>
      <path id="Path_1816" data-name="Path 1816" d="M2215.767,1079.553s-.154,10.475.486,15.527l.283-13.882Z" transform="translate(-2189.247 -1035.955)" fill="#1d3b54"/>
      <g id="Group_2668" data-name="Group 2668" transform="translate(30.649 51.231)">
        <g id="Group_2667" data-name="Group 2667">
          <path id="Path_1817" data-name="Path 1817" d="M2241.36,1127.847a17.367,17.367,0,0,1-.456-3.227c.118-.6-.72-1.034-.827.456s-.156,2.436-.156,2.436Z" transform="translate(-2239.921 -1124.062)" fill="#eea886"/>
        </g>
      </g>
      <path id="Path_1818" data-name="Path 1818" d="M2212.82,1127.138h5.47l.854-12.115h-7.094Z" transform="translate(-2186.181 -1065.342)" fill="#8e4f3a"/>
      <g id="Group_2670" data-name="Group 2670" transform="translate(25.087 52.98)">
        <g id="Group_2669" data-name="Group 2669">
          <path id="Path_1819" data-name="Path 1819" d="M2216.246,1137.741s.045-.927-1.761-1.7c-2.4-1.027-5.588-2.04-6.113-1.724-.755.456-.333,1.027,1.175,1.457s2.005.567,2.005.567-2.922-.159-3.561.216-.642,1.181-.16,1.293a12.112,12.112,0,0,0,1.611.147s-1.233.1-1.336.6c-.076.371-.1.9,1.078,1.068,0,0-.758.911.454,1.426a20.649,20.649,0,0,0,4.472,1.075,30.69,30.69,0,0,0,6.526-.461l-1.428-3.185a3.791,3.791,0,0,1-2.03.04C2216.117,1138.145,2216.246,1137.741,2216.246,1137.741Z" transform="translate(-2207.488 -1134.259)" fill="#eea886"/>
        </g>
      </g>
      <path id="Path_1820" data-name="Path 1820" d="M2274.943,980.585a4.612,4.612,0,0,1,5.127,4c.578,3.505.809,7.4,1.348,9.283s3.1,11.484,1.945,12.177-3.52,1.439-6.238,2.866c-2.6,1.366-15.253,6.677-15.253,6.677l-.985-5.581a25.291,25.291,0,0,0,4.622-1.656c2.2-1.078,7.5-4.149,11.545-6.652,0,0-2.532-6.791-3.072-8.255S2269.7,982.28,2274.943,980.585Z" transform="translate(-2226.643 -953.891)" fill="#285173"/>
      <rect id="Rectangle_2583" data-name="Rectangle 2583" width="7.564" height="1.444" transform="translate(33.199 50.404) rotate(180)" fill="#ad9f9a"/>
      <path id="Path_1821" data-name="Path 1821" d="M2279.218,884.037s1.73,2.694,1.175,4.409c-.624,1.925,1.412,4.854,1.412,4.854s-.936-3.538-.272-4.811-.111-3.261-.111-3.261Z" transform="translate(-2241.83 -873.968)" fill="#252e3b"/>
    </g>
    <g id="Group_2693" data-name="Group 2693" transform="translate(184.03 54.143)">
      <g id="Group_2672" data-name="Group 2672" transform="translate(0 89.544)">
        <path id="Path_1822" data-name="Path 1822" d="M1179.018,1239.407s.57,2.466,1.321,2.947-.142,5.7-.207,6.323c-.054.526-.636.968-.867.857s-.2-2.9-.533-3.8c-.277-.757-.534-1.045-.7-.806a13.749,13.749,0,0,0-.328,4.694c.279,1.342-1.422,5.556-2.242,5.09s-1.328-7.224-1.063-9.312a23.845,23.845,0,0,1,1.289-4.688Z" transform="translate(-1174.324 -1239.407)" fill="#eea886"/>
      </g>
      <g id="Group_2673" data-name="Group 2673" transform="translate(7.334 73.88)">
        <path id="Path_1823" data-name="Path 1823" d="M1252.123,1192.484c-.319,5.252-.627,9.066-.563,10.017.064.9.111,2.049.145,3.384a78.394,78.394,0,0,1-11.033,1.555c-.284-2.751-.528-4.816-.708-5.7-.238-1.155-.511-3.824-.813-7.161-.848-9.466-1.9-24.346-2.792-25.478-1.056-1.341-4.95,17.01-6.79,25.373-.261,1.2-.487,2.182-.65,2.884-.377,1.59-.917,5.3-1.515,9.907a79.3,79.3,0,0,1-10.318-1.695c.029-.563.058-1.039.093-1.417.244-2.884.517-6.859,1.039-11.636.3-2.687.673-5.624,1.161-8.752,1.161-7.44,3.4-29.169,3.4-29.169s24.793-11.439,27.451-4.039C1253.748,1160.344,1252.889,1180.291,1252.123,1192.484Z" transform="translate(-1217.087 -1148.068)" fill="#292c47"/>
      </g>
      <g id="Group_2674" data-name="Group 2674" transform="translate(0.691 26.074)">
        <path id="Path_1824" data-name="Path 1824" d="M1189.729,901.1a17.844,17.844,0,0,1-1.033-8.368l0,.01c-.22.479.036,17.492-1.2,17.946-1.261.463-2.691,24.058-4.01,22.827-1.408-1.314-5.127.045-5.127.045l3.545-26.967,5.29-29.328c.19-.151,2.657-1.478,4.29-2.255,2.513-1.2,6.013-2.808,8.258-3.839,1.317-.6,2.6-1.045,2.6-1.045s8.976-.86,9.707-.814a22.794,22.794,0,0,1,2.823.964c3.183,1.208,9.319,3.668,10.3,4.37,1.433,1.027,4.462,25.41,4.6,27.118.247,3.075-.726,24.966-.726,24.966s-3.772,1.145-5.353.855-.781-19.679-.843-23.713c-.05-3.272-1.838-11.911-1.838-11.911l0,.014a.025.025,0,0,0,0,.011l0,.012c-.176.648-2.592,9.613-2.676,13.921-.089,4.47.581,21.573.581,21.573l-6,2.828-20.764.6-3.025.046s.478-10.136.654-13.61c.11-2.209.54-6.16.43-10.011C1190.2,907.339,1190.278,902.457,1189.729,901.1Z" transform="translate(-1178.354 -869.308)" fill="#215a82"/>
      </g>
      <g id="Group_2675" data-name="Group 2675" transform="translate(24.205 17.13)">
        <path id="Path_1825" data-name="Path 1825" d="M1325.6,826.079c-.66,6.051-7.65,6.051-7.65,6.051a3.64,3.64,0,0,1-2.411-4.351,6.006,6.006,0,0,0,.455-1.407,13.741,13.741,0,0,0-.043-1.774c-.022-.276-.044-.454-.044-.454s1.082-1.141,2.458-2.5c2.405-2.378,5.712-5.425,5.717-4.213a1.093,1.093,0,0,1-.028.23C1323.474,820.386,1325.6,826.079,1325.6,826.079Z" transform="translate(-1315.468 -817.154)" fill="#eea886"/>
      </g>
      <g id="Group_2676" data-name="Group 2676" transform="translate(33.71 75.881)">
        <path id="Path_1826" data-name="Path 1826" d="M1370.891,1159.881s.544,3.43.591,4.324l1.153-.23s-.317-3.629-.5-4.237Z" transform="translate(-1370.891 -1159.738)" fill="#5d676c"/>
      </g>
      <g id="Group_2677" data-name="Group 2677" transform="translate(24.551 20.325)">
        <path id="Path_1827" data-name="Path 1827" d="M1318.518,837.531l1.52-.455,4.318-1.293h0c-.015.023-.336.5-.884,1.193-1.162,1.462-3.348,3.864-5.8,4.829a17.72,17.72,0,0,0-.181-2.141Z" transform="translate(-1317.486 -835.783)" fill="#a77860"/>
      </g>
      <g id="Group_2678" data-name="Group 2678" transform="translate(19.947 5.85)">
        <path id="Path_1828" data-name="Path 1828" d="M1303.427,763.346c-.6,1.3-1.163,2.238-1.324,2.611h0a4.608,4.608,0,0,1-.805,1.086c-1.136,1.224-3.249,2.839-5.325,2.783a3.6,3.6,0,0,1-.685-.082,3.258,3.258,0,0,1-2.373-1.64c-4.3-8.423-1.187-15.31-1.187-15.31s11.763-3.327,13.6.215C1306.621,755.492,1304.828,760.3,1303.427,763.346Z" transform="translate(-1290.636 -751.377)" fill="#eea886"/>
      </g>
      <g id="Group_2679" data-name="Group 2679" transform="translate(19.6 0)">
        <path id="Path_1829" data-name="Path 1829" d="M1290.05,724.531s-1.092-.061-1.362-2.132c-.267-2.047.273-2.613.273-2.613a48.642,48.642,0,0,1,6.6-2.3c1.744-.264,6.032-.518,7.037.631,0,0,2.442-.567,3.107,3.487,1.056,6.432-3.6,12.677-3.6,12.677s.04-4.2-.887-4.758-1.727.767-1.727.767l-1.9.34s2.879-6.216-.575-6.447S1292.028,724.891,1290.05,724.531Z" transform="translate(-1288.614 -717.264)" fill="#323657"/>
      </g>
      <g id="Group_2680" data-name="Group 2680" transform="translate(30.473 9.58)">
        <path id="Path_1830" data-name="Path 1830" d="M1352.075,774.9c.18-1.851,3.528-2.558,3.3-.617s-1.873,3.8-2.634,3.739S1351.938,776.311,1352.075,774.9Z" transform="translate(-1352.015 -773.127)" fill="#eea886"/>
      </g>
      <g id="Group_2681" data-name="Group 2681" transform="translate(29.249 27.04)">
        <path id="Path_1831" data-name="Path 1831" d="M1360.538,908.719c.278,3.744-1.306,24.461.275,24.752s7.389-.986,7.389-.986.728-22.34.5-24.682c-.17-1.7-2.884-27.272-4.317-28.3-.827-.594-6.959-2.767-9.968-3.953-.55-.217-1.083-.424-1.575-.611-.638.71-7.408,13.233-7.936,23.409-.161,3.1.565,9.638,1.117,14.982.589,5.7,1.242,10.15,1.72,14.917.942,9.393,1.6,16.866,1.6,16.866l9.348-4.162c1.513-.757,3.607-3.862,3.039-5.455-2.161-6.052-4.883-16.394-4.885-21.7,0,0,1.043-13.006,1.869-15.865A80.141,80.141,0,0,1,1360.538,908.719Z" transform="translate(-1344.878 -874.939)" fill="#f0dfd6"/>
      </g>
      <g id="Group_2682" data-name="Group 2682" transform="translate(0 27.935)">
        <path id="Path_1832" data-name="Path 1832" d="M1196.4,880.158c-.726.333-1.585.727-2.5,1.149-1.909.881-4.061,1.88-5.762,2.69-1.633.777-3.3,1.427-4.637,2.022l-6.349,33.213-2.83,24.821s4.066-.445,6.107-.6c.619-.046,3.683-20.3,4.194-22.9.071-.359.379-1.95.726-4.066v0c.3-1.8.618-3.972.847-6.1a19.686,19.686,0,0,1,.486,5.466c-.771,9.957-3.431,25.549-4.672,29.55-.207.668.51,1.282,1.024,1.758l3.593,2.266s1.482-13.637,1.974-18.265c.475-4.47,1.968-10.46,2.623-16.3v0c.829-7.405,1.692-14.741,2.307-19.051,1.6-11.221,2.923-15.617,2.923-15.617Zm-11.041,21.561a.034.034,0,0,0,0,.009h0Z" transform="translate(-1174.326 -880.158)" fill="#f0dfd6"/>
      </g>
      <g id="Group_2683" data-name="Group 2683" transform="translate(50.185 90.26)">
        <path id="Path_1833" data-name="Path 1833" d="M1469.348,1249.323s-.352-4.809-1.638-5.537-.526.75-.526.75.769,3.482.948,4.895A7.248,7.248,0,0,0,1469.348,1249.323Z" transform="translate(-1466.961 -1243.585)" fill="#434343"/>
      </g>
      <g id="Group_2684" data-name="Group 2684" transform="translate(44.56 81.945)">
        <path id="Path_1834" data-name="Path 1834" d="M1436.25,1198.482s-.462,2.088-1.084,4.178-1.215,2.762-.934,3.95c.211.9,1.24,1.556,1.492,1.264s.324-3.792,1.774-3.8-.368,4.339.489,4.008,4.151-2.2,3.916-3.959-1.583-3.014-1.537-5.649a5.668,5.668,0,0,0-.718-3.377Z" transform="translate(-1434.16 -1195.1)" fill="#eea886"/>
      </g>
      <g id="Group_2686" data-name="Group 2686" transform="translate(46.026 90.755)">
        <g id="Group_2685" data-name="Group 2685">
          <path id="Path_1835" data-name="Path 1835" d="M1444.434,1246.491s-1.922.522-1.71,7.049l2.18-.4a22.5,22.5,0,0,1,.529-5.584S1445.3,1246.283,1444.434,1246.491Z" transform="translate(-1442.708 -1246.468)" fill="#5a5c5a"/>
        </g>
      </g>
      <g id="Group_2688" data-name="Group 2688" transform="translate(39.867 94.309)">
        <g id="Group_2687" data-name="Group 2687">
          <path id="Path_1836" data-name="Path 1836" d="M1406.795,1272.276l16.946-5.084.265,20.961-16.784,10.406Z" transform="translate(-1406.795 -1267.191)" fill="#fff"/>
        </g>
      </g>
      <g id="Group_2689" data-name="Group 2689" transform="translate(40.295 94.309)">
        <path id="Path_1837" data-name="Path 1837" d="M1409.289,1298.558l2.138.362,16.319-10.493-.523-21.16-1.416-.075Z" transform="translate(-1409.289 -1267.191)" fill="#fff"/>
      </g>
      <g id="Group_2690" data-name="Group 2690" transform="translate(44.662 62.722)">
        <path id="Path_1838" data-name="Path 1838" d="M1434.756,1091.577l.1,16.464a28.652,28.652,0,0,0,7.814-1.818l.314-23.217Z" transform="translate(-1434.756 -1083.006)" fill="#f0dfd6"/>
      </g>
      <g id="Group_2691" data-name="Group 2691" transform="translate(10.804 47.43)">
        <path id="Path_1839" data-name="Path 1839" d="M1238.222,996.454c.22-1.085.446-1.965.633-2.621a24.238,24.238,0,0,0-.394,3.281c-.22,3.431-.073,7.32-.068,7.46v0c-.229,2.123-.552,4.3-.847,6.1a51.6,51.6,0,0,1,.037-10C1237.752,999.043,1237.984,997.628,1238.222,996.454Z" transform="translate(-1237.321 -993.833)" fill="#baada6"/>
      </g>
      <g id="Group_2692" data-name="Group 2692" transform="translate(12.339 46.065)">
        <path id="Path_1840" data-name="Path 1840" d="M1246.709,985.873c-.017.046-.194.514-.437,1.36A5.449,5.449,0,0,1,1246.709,985.873Z" transform="translate(-1246.273 -985.873)" fill="#e2d2ca"/>
      </g>
    </g>
    <path id="Path_1841" data-name="Path 1841" d="M327.619,921.4s8.188-18.55-1.312-17.014a34.606,34.606,0,0,0-6.552,8.119c-2.514,4.125-7.74,15.042-7.547,18.736s2.82,6.446,5.656,12.376c0,0,5.9,11.007,6.144,12.333l6.232-3.236s-5.281-10.523-9-19.775Z" transform="translate(-276.021 -818.076)" fill="#275070"/>
    <g id="Group_2694" data-name="Group 2694" transform="translate(0 30.101)">
      <rect id="Rectangle_2584" data-name="Rectangle 2584" width="127.263" height="21.636" transform="translate(129.09 107.478) rotate(170.337)" fill="#4f84d3"/>
      <rect id="Rectangle_2585" data-name="Rectangle 2585" width="6.798" height="16.422" transform="translate(135.353 103.767) rotate(170.336)" fill="#4f84d3"/>
      <path id="Path_1842" data-name="Path 1842" d="M941.652,577.074a78.742,78.742,0,0,0-7.69,157.119q3.8.366,7.69.372c1.874,0,3.738-.064,5.577-.2a78.746,78.746,0,0,0-5.577-157.294ZM999.792,686.7a65.64,65.64,0,0,1-54.083,34.81q-2.011.131-4.057.128-2.794,0-5.525-.232a64.827,64.827,0,0,1-11.352-1.956,65.8,65.8,0,1,1,75.017-32.755Z" transform="translate(-732.28 -577.074)" fill="#4f84d3"/>
    </g>
    <path id="Path_1843" data-name="Path 1843" d="M669.35,1832.781h1.545s-.515-5.834.915-5.892,4.976,4.748,7.093,5.492,12.984,1.372,13.042-.63-4.175-2.8-5.491-3.374-7.723-6.808-8.867-7.551-3.1-5.914-3.1-5.914l-6.067-.27s-.343,4.833-.71,7.391a22.516,22.516,0,0,0-.25,2.4C667.405,1826.6,669.35,1832.781,669.35,1832.781Z" transform="translate(-570.355 -1572.307)" fill="#eea886"/>
    <path id="Path_1844" data-name="Path 1844" d="M442.655,1828.116h1.288v-5.432c1.072.09,4.677,3.5,5.793,4.489s2.645.943,7.344,1.241,5.141-2.514,4.4-3.471-3.147-1.376-4.4-1.974-6.186-6.164-7.5-7.48-2.117-5.086-2.117-5.086l-5.491.479a33.61,33.61,0,0,1-.591,6.342v0a.141.141,0,0,0-.005.022q-.08.37-.176.724C440.381,1820.98,442.655,1828.116,442.655,1828.116Z" transform="translate(-382.747 -1568.796)" fill="#eea886"/>
    <path id="Path_1845" data-name="Path 1845" d="M458.921,1176.811a54.881,54.881,0,0,1,2.259,6.147c.183,1.24,5.042,12.984,6.447,20.9.841,4.74,3.164,19.578,3.352,21.464.322,3.229,1.843,10.356,2.076,13.654.131,1.843,9.21,30.141,11.408,44.916a27.234,27.234,0,0,1-9.144-.264,154.771,154.771,0,0,1-12.4-36.927c-2.666-13.044-5.023-20-7.088-25.372s-13.762-20.588-14.983-22.3-8.87-11.156-1.627-21.39S458.921,1176.811,458.921,1176.811Z" transform="translate(-378.708 -1040.593)" fill="#1d3b54"/>
    <path id="Path_1846" data-name="Path 1846" d="M396.127,1208.728c.663,4.406-.034,10.194-1.418,26.3s2.422,35.615,2.422,35.615c4.782,1.636,10.289,0,10.289,0-.126-1.133,0-39.266,0-42.664s.976-7.255,1.227-11.155c.172-2.658,1.408-7.559,2.8-12.561.417-1.5.848-3.005,1.267-4.465v0c.236-.818.466-1.622.691-2.4,1.96-6.8,4.595-33.038,4.595-33.038s-14.606-11.765-21.717-.689-3.46,19.129-3.209,20.513S395.464,1204.324,396.127,1208.728Z" transform="translate(-342.062 -1029.04)" fill="#1d3b54"/>
    <path id="Path_1847" data-name="Path 1847" d="M451.794,1311.332c.113.251,7.391,16.4,9.263,19.206.417-1.5.848-3,1.267-4.464v0S452.037,1311.687,451.794,1311.332Z" transform="translate(-391.673 -1155.311)" fill="#122536"/>
    <path id="Path_1848" data-name="Path 1848" d="M442.655,1856.056h1.288v-5.431c1.072.09,4.677,3.5,5.793,4.488s2.645.943,7.344,1.241,5.141-2.514,4.4-3.471-3.147-1.376-4.4-1.974c-5.026.269-11.16-6.8-14.1-6.783-1.564.008-1.549.875-1.6,1.038h0a.166.166,0,0,0-.005.022q-.08.371-.176.724C440.381,1848.92,442.655,1856.056,442.655,1856.056Z" transform="translate(-382.747 -1596.735)" fill="#172f42"/>
    <path id="Path_1849" data-name="Path 1849" d="M669.35,1867.624h1.545s-.515-5.835.915-5.892,4.976,4.747,7.093,5.492,12.984,1.372,13.042-.63-4.175-2.8-5.491-3.375c-4.483-.01-11.773-4.944-14.034-5.945a8.161,8.161,0,0,0-4.707-.4,22.518,22.518,0,0,0-.25,2.4C667.405,1861.446,669.35,1867.624,669.35,1867.624Z" transform="translate(-570.355 -1607.149)" fill="#172f42"/>
    <path id="Path_1850" data-name="Path 1850" d="M443.981,815.99s-2.331,6.166-.518,10.932c0,0-8.545-.555-8.869-1.553s.343-10.236-.832-12.967S443.981,815.99,443.981,815.99Z" transform="translate(-376.663 -741.376)" fill="#eea886"/>
    <path id="Path_1851" data-name="Path 1851" d="M396.73,884.675s5.05,1.8,7.332,2.295,7.057,2.76,6.668,11.274A177.84,177.84,0,0,1,408.4,917.8a77.118,77.118,0,0,0,.647,17.493,64,64,0,0,1-26.349,0s2.525-7.715,2.46-9.711-8.416-18.424-8.8-21.018S374.282,890.528,378.1,888s6.927-2.2,8.545-3.326S394.368,883.864,396.73,884.675Z" transform="translate(-328.587 -801.215)" fill="#285173"/>
    <path id="Path_1852" data-name="Path 1852" d="M375.206,986.88c20.683,5.487,37.143.021,37.143.021a51.194,51.194,0,0,1-3.4-9.143,0,0,0,0,1,0,0,54.807,54.807,0,0,1-1.273-6.135h0a55.57,55.57,0,0,1,.511-19.9c-2.387-19.649-32.118-25.513-34.5-19.285s4.615,32.995,4.969,35.29S375.206,986.88,375.206,986.88Z" transform="translate(-326.548 -839.424)" fill="#285173"/>
    <path id="Path_1853" data-name="Path 1853" d="M412.27,689.161c3.435-1.178,12.722-2.433,15.1,11.821s-2.8,14.5-8.125,14.093-13.649-10.026-14.286-12.951S402.468,692.524,412.27,689.161Z" transform="translate(-352.4 -639.287)" fill="#eea886"/>
    <path id="Path_1854" data-name="Path 1854" d="M421.016,689.141s-2.836,6.068-6.557,8.183c0,0-2.331,6.448-7.378,9.055,0,0-13.395-8.873-5.622-19.417S420.139,684.815,421.016,689.141Z" transform="translate(-347.96 -633.793)" fill="#fccca2"/>
    <path id="Path_1855" data-name="Path 1855" d="M474.642,754.74c-.3-.742-2.309-1.948-3.209.087s2.333,5.618,3.218,5.425S475.786,757.554,474.642,754.74Z" transform="translate(-407.815 -693.311)" fill="#eea886"/>
    <path id="Path_1856" data-name="Path 1856" d="M361.439,714.425c-.293-.457-9.163-4.563-11.008,4.017S357.575,737,359.15,741.29s-.712,14.345-.712,14.345,5.409-5.112,7.045-10.464C367.279,739.294,367.883,724.476,361.439,714.425Z" transform="translate(-307.487 -659.626)" fill="#fccca2"/>
    <path id="Path_1857" data-name="Path 1857" d="M413.21,719.246a8.949,8.949,0,0,1,3.065,5.537s.51-2.644-.585-4.259A2.449,2.449,0,0,0,413.21,719.246Z" transform="translate(-359.706 -664.739)" fill="#e54242"/>
    <path id="Path_1858" data-name="Path 1858" d="M545.07,1068.845a54.8,54.8,0,0,1-1.273-6.135h0s-1.363-2.9-1.823-4.285S538.09,1040,538.09,1040,534.467,1056,545.07,1068.845Z" transform="translate(-462.675 -930.515)" fill="#1d3b54"/>
    <path id="Path_1859" data-name="Path 1859" d="M381.042,1036.259s4.1,18.87,4.115,19.456-1.156,8.292-1.507,10.027Z" transform="translate(-333.055 -927.411)" fill="#1d3b54"/>
    <path id="Path_1860" data-name="Path 1860" d="M650.447,1213.943s2.667,2.649,3.529,2.915,2.525-1.2,8.65-1.657c.538-.04,1.483.444,1.26,1.154s-2.888,2.643-4.029,2.938-6.523,2.433-9.146,1.384-4.408-4.388-4.408-4.388Z" transform="translate(-552.826 -1074.623)" fill="#eea886"/>
    <path id="Path_1861" data-name="Path 1861" d="M530.148,904.318s7.083,2.807,7.5,12.651.8,14.983,1.189,16.5,1.119,7.627,2.9,11.3c1.729,3.565,13.079,14.848,13.079,14.848l-5.492,5.165s-15.822-15.876-16.783-18.779-4.916-23.1-5.231-26.509C527.058,916.753,523.437,904.522,530.148,904.318Z" transform="translate(-453.244 -818.097)" fill="#285173"/>
  </g>
</svg>
