<svg xmlns="http://www.w3.org/2000/svg" width="217.891" height="217.957" viewBox="0 0 217.891 217.957">
  <g id="Group_9019" data-name="Group 9019" transform="translate(-1495 -147.473)">
    <g id="Group_3479" data-name="Group 3479" transform="translate(-3131.629 -699.383)">
      <g id="Group_9001" data-name="Group 9001" transform="translate(4608.692 871.218)">
        <g id="Group_9000" data-name="Group 9000">
          <g id="Group_8982" data-name="Group 8982" transform="translate(136.701 108.681)">
            <path id="Path_11122" data-name="Path 11122" d="M5196.706,1143.728s-7.7-10.206.478-15.873c0,0,5.906-3.09,10.53-2.521,0,0-7.266,10.617-5.206,11.846s7.242-12.413,7.242-12.413,13.029-.448,17.07,1.816c0,0-11.637,8.369-9.339,9.055s14.813-7.462,14.813-7.462,11.926,2.8,10.824,10.118-5.4,9.325-7.211,9.015-12.237-5.052-12.563-3.571,5.8,6.771,10.284,7.281c0,0-9.083,8.842-14.562,5.785s-5.694-7.376-9.114-9.2-6.427-2.011-5.076-.281,7.624,3.723,9.415,7.41,3.448,6.2-2.341,4.958-15.021-6.113-15.131-11.036Z" transform="translate(-5181.196 -1124.731)" fill="#82b378"/>
            <g id="Group_8981" data-name="Group 8981" transform="translate(0 12.791)">
              <path id="Path_11123" data-name="Path 11123" d="M5228.744,1161.066s-32.661-3.306-40.477,5.606a23.721,23.721,0,0,1-7.091,8.743l-.9,2.043s6.047-5.628,8.1-5.863C5188.379,1171.595,5185.929,1159.8,5228.744,1161.066Z" transform="translate(-5172.756 -1160.467)" fill="#82b378"/>
              <path id="Path_11124" data-name="Path 11124" d="M5167.684,1200.947a20.6,20.6,0,0,0-8.419,14.015l1.269.194s2.843-9.462,7.134-12.964S5167.684,1200.947,5167.684,1200.947Z" transform="translate(-5159.264 -1185.998)" fill="#82b378"/>
            </g>
          </g>
          <g id="Group_8984" data-name="Group 8984" transform="translate(136.701 39.133)">
            <path id="Path_11125" data-name="Path 11125" d="M5076.94,1030.342s-17.07-9.559-9.1-22.532c0,0,6.374-7.966,13.2-10.014,0,0-3.642,19.346,0,19.8s2.5-21.849,2.5-21.849,17.979-8.649,25.035-7.966c0,0-11.152,18.891-7.51,18.435s16.158-19.573,16.158-19.573,18.436-3.414,21.4,7.511-1.821,16.387-4.553,17.07-20.255.455-19.8,2.731,12.291,5.918,18.892,3.869c0,0-7.284,17.98-16.843,17.07s-12.518-6.828-18.436-7.283-10.242,1.138-7.282,2.731,12.972.522,17.751,4.586,8.65,6.567-.227,8.388-24.809.683-27.995-6.145Z" transform="translate(-5065.717 -986.138)" fill="#a8d29f"/>
            <g id="Group_8983" data-name="Group 8983" transform="translate(2.206 11.43)">
              <path id="Path_11126" data-name="Path 11126" d="M5142.163,1018.071s-47.8,15.477-53.257,32.774a36.309,36.309,0,0,1-4.552,16.615v3.414s5.006-11.608,7.739-13.2C5092.092,1057.673,5081.394,1042.652,5142.163,1018.071Z" transform="translate(-5079.889 -1018.071)" fill="#82b378"/>
              <path id="Path_11127" data-name="Path 11127" d="M5076.346,1152.245s-7.371,11.193-3.168,24.818l1.9-.509s-1.84-15.007,2.015-22.555S5076.346,1152.245,5076.346,1152.245Z" transform="translate(-5071.882 -1102.856)" fill="#82b378"/>
            </g>
          </g>
          <g id="Group_8986" data-name="Group 8986" transform="translate(19.649 35.929)">
            <path id="Path_11128" data-name="Path 11128" d="M4728.727,1025.905s19.865-8.407,12.707-23.589c0,0-6.018-9.5-13.252-12.574,0,0,1.646,21.642-2.4,21.7s-.1-24.247-.1-24.247-18.655-11.657-26.47-11.764c0,0,9.932,22.053,6,21.113s-15.337-23.408-15.337-23.408-19.789-5.976-24.355,5.638.009,18.179,2.919,19.258,22.144,2.953,21.368,5.393-14.186,5-21.169,1.95c0,0,5.8,20.587,16.387,20.747s14.545-5.965,21.085-5.747,11.086,2.488,7.65,3.875-14.28-1-20.009,2.874-10.275,6.148-.768,9.219,27.1,3.755,31.423-3.342Z" transform="translate(-4663.587 -971.598)" fill="#a8d29f"/>
            <g id="Group_8985" data-name="Group 8985" transform="translate(10.748 11.937)">
              <path id="Path_11129" data-name="Path 11129" d="M4693.618,1004.947s50.5,22.753,54.392,42.371a40.028,40.028,0,0,0,2.975,18.759l-.414,3.741s-4.081-13.327-6.88-15.4C4743.69,1054.414,4757.233,1039.249,4693.618,1004.947Z" transform="translate(-4693.618 -1004.947)" fill="#82b378"/>
              <path id="Path_11130" data-name="Path 11130" d="M4849.812,1171.085s6.721,13.159.464,27.581l-2.016-.788s3.836-16.223.524-24.961S4849.812,1171.085,4849.812,1171.085Z" transform="translate(-4792.446 -1109.956)" fill="#82b378"/>
            </g>
          </g>
          <path id="Path_11131" data-name="Path 11131" d="M4652.735,1199.364a22.2,22.2,0,0,1-3.9-9.78s9.713-6.974,3.987-14.308c0,0-4.415-4.4-8.7-5.179,0,0,3.535,11.5,1.355,12.027s-3.016-13.1-3.016-13.1-11.513-4.022-15.75-3.125c0,0,8.066,10.71,5.823,10.683s-11.154-10.783-11.154-10.783-11.432-.812-12.481,6.026,2.228,9.828,3.934,10.056,12.335-1.11,12.213.3-7.06,4.436-11.208,3.643c0,0,5.654,10.423,11.4,9.215s7.135-5,10.7-5.685,6.3-.01,4.611,1.16-7.845,1.205-10.469,4-4.8,4.581.712,5.079,15.114-1.283,16.583-5.648c.064-.191.125-.372.184-.546a2.206,2.206,0,0,1-.184.546c1.06.468,2.863,3.067,4.138,5.073.188.345.478.818.9,1.458h0c.175.292.316.53.413.7,2.437,4.541,2.355,12.865,2.355,12.865l1.187.18A19.269,19.269,0,0,0,4652.735,1199.364Z" transform="translate(-4564.327 -1059.359)" fill="#82b378"/>
          <g id="girl_2" data-name="girl 2" transform="translate(30.687 19.225)">
            <path id="Path_11144" data-name="Path 11144" d="M5323.761,1215.487s-8.189.568-14.235,15.317c-6.1,14.877,7.543,14.729,2.947,24.207s6.612,15.131,10.016,22.891,20.554,26.478,21.911,35.015,16.606-8.877,16.606-8.877,15.5-16.533,9.942-26.138c-9.158-15.832-1.227-19.272-1.512-28.114S5352.366,1206.105,5323.761,1215.487Z" transform="translate(-5229.219 -1213.898)" fill="#233862"/>
            <path id="Path_11145" data-name="Path 11145" d="M5259.092,1315.64s-31.707,13.82-37.729,13.557-43.137-11.3-43.137-11.3l.946,6.385s28.643,16.472,38.655,17.407c9.858.92,43.567-8.848,46.821-10.91S5268.551,1317.728,5259.092,1315.64Z" transform="translate(-5168.997 -1261.139)" fill="#ffad76"/>
            <path id="Path_11146" data-name="Path 11146" d="M5324.41,1313.757a31.9,31.9,0,0,0,11.155,4.747c17.194,3.974,23.783-10.559,26.258-20.535a14.783,14.783,0,0,0-5.825-1.79c-1.243-.146-2.55-.244-3.633-.3-1.931-1.479-4.808-7.531-5.442-16.929l-.812.217-13.55,3.709s.621,4.308.925,8.379c.235,3.186.649,5.036.045,5.781a4.621,4.621,0,0,0-2.068,1.575.072.072,0,0,1-.007.013A87.317,87.317,0,0,0,5324.41,1313.757Z" transform="translate(-5236.875 -1244.104)" fill="#ffb27d"/>
            <path id="Path_11147" data-name="Path 11147" d="M5339.625,1283.073s.623,4.3.926,8.379c7.679-.769,11.239-8.078,12.628-12.088Z" transform="translate(-5243.938 -1244.295)" fill="#ed985f"/>
            <path id="Path_11148" data-name="Path 11148" d="M5328.768,1266.715s18.225-1.005,17.423-12.344,1.012-19.105-10.657-18.942-13.622,4.649-14.273,8.5S5324.007,1266.684,5328.768,1266.715Z" transform="translate(-5235.374 -1223.894)" fill="#ffb27d"/>
            <path id="Path_11149" data-name="Path 11149" d="M5357.373,1363.827c1.646-8.413,7.013-42.023,1.646-52.839-1.928-3.886-9.489-4.236-17.785-3.9-2.582,1.666-12.418,7.964-16.459,7.179-.043-.009-.123-.027-.227-.053a2.33,2.33,0,0,1-.657-4.16s-4.486.8-9.587,1.759c-2.883.543-10.657,4.565-10.657,4.565s3.914,7.073,9.687,9.513c-.982,8.781.477,12.655,9.587,32.936,7.7,17.144-1.037,32.578-1.037,32.578s45.311,36.431,45.563,17.882C5367.637,1395.326,5355.27,1374.579,5357.373,1363.827Z" transform="translate(-5227.232 -1257.123)" fill="#739af0"/>
            <path id="Path_11150" data-name="Path 11150" d="M5296.753,1452.143a8.428,8.428,0,0,1-6.061-3.689l-.7-1.054c-5.157-7.808-7.164-31.721-18.765-57.2-2.826-6.2-12.971-7.317-15.736-14.328,0,0-6.81-22.725,13.029-23.395s53.129,63.228,53.656,69.928C5322.686,1428.9,5335.291,1456.492,5296.753,1452.143Z" transform="translate(-5204.348 -1278.243)" fill="#233862"/>
            <path id="Path_11151" data-name="Path 11151" d="M5186.306,1524.86h28.234s1.057-4.5-.8-7.569c-1.641-2.712-1.011-4.257.205-6.5a10.991,10.991,0,0,1-4.756.9,9.942,9.942,0,0,1-4.2-1.478c-1.216,1.386-6.417,7.283-8.044,8.451C5195.1,1519.987,5186.874,1519.514,5186.306,1524.86Z" transform="translate(-5172.749 -1351.481)" fill="#172b4c"/>
            <path id="Path_11152" data-name="Path 11152" d="M5361.38,1330.9s3.675,33.435-20.158,40.44-30.6-30.763-11.355-33.479S5361.38,1330.9,5361.38,1330.9Z" transform="translate(-5234.216 -1268.223)" fill="#5486d6"/>
            <path id="Path_11153" data-name="Path 11153" d="M5237.3,1358.273c-1.7,12.747-8.339,52.978-20.052,72.606-3.776,6.328,9.513,9.875,9.584,9.857,1.782-.467,4.752-3.308,6.121-4.542,9.508-8.569,28.812-32.834,28.812-52.288,0-9.486.165-27.6-6.733-32.206C5250.783,1348.864,5237.973,1353.211,5237.3,1358.273Z" transform="translate(-5186.802 -1277.465)" fill="#233862"/>
            <path id="Path_11154" data-name="Path 11154" d="M5328.208,1450.365s-1.048-1.457-2.872-4.222c-2.172-3.289-4.574-9.761-7.49-18.058-3.062-8.71-6.7-19.425-11.236-30.574-1.4-3.441-2.888-6.924-4.472-10.4-2.825-6.2-10.6-5.345-13.365-12.356,0,0-10.792-24.3,9.045-24.975s57.535,65.016,59.7,71.378C5359.891,1428.12,5371.46,1457.038,5328.208,1450.365Z" transform="translate(-5218.967 -1276.987)" fill="#2b478b"/>
            <path id="Path_11155" data-name="Path 11155" d="M5225,1524.86h28.235s1.055-4.5-.8-7.569c-1.641-2.712-1.012-4.257.2-6.5a10.989,10.989,0,0,1-4.756.9,9.941,9.941,0,0,1-4.2-1.478c-1.216,1.386-6.419,7.283-8.045,8.451C5233.795,1519.987,5225.566,1519.514,5225,1524.86Z" transform="translate(-5190.716 -1351.481)" fill="#233862"/>
            <path id="Path_11156" data-name="Path 11156" d="M5335.846,1453.155c-3.062-8.71-6.7-19.425-11.236-30.575,1.187-8.447,3.744-15.836,8.044-18.815C5332.654,1403.765,5343.09,1436.09,5335.846,1453.155Z" transform="translate(-5236.966 -1302.056)" fill="#23407a"/>
            <path id="Path_11157" data-name="Path 11157" d="M5271.745,1357.808c-1.7,12.747-4.094,53.881-15.806,73.509-3.775,6.328,9.513,9.875,9.584,9.857,1.783-.467,4.752-3.308,6.12-4.542,9.509-8.569,28.812-32.835,28.812-52.289,0-9.486-11.131-26.84-18.028-31.445A6.94,6.94,0,0,0,5271.745,1357.808Z" transform="translate(-5204.768 -1277.903)" fill="#2b478b"/>
            <path id="Path_11158" data-name="Path 11158" d="M5194.229,1297.673s-1.445-3.676-4.076-3.436-26.543,3.436-26.543,3.436,2.783.665,3.833,2.492l11.029,32.5h28.288Z" transform="translate(-5162.21 -1251.196)" fill="#ebf3fa"/>
            <path id="Path_11159" data-name="Path 11159" d="M5320.366,1314.452s-40.075,14.758-46.1,14.456c-3.893-.2-36.244-11.568-36.244-11.568l-2.9,5.494s31.487,20.238,40.145,20.138c17.089-.2,45.926-10.688,49.181-12.75S5329.823,1316.539,5320.366,1314.452Z" transform="translate(-5195.416 -1260.587)" fill="#ffbf94"/>
            <path id="Path_11160" data-name="Path 11160" d="M5222.528,1315.852s-2.9-4.469-5.8-4.6-7.887,1.971-9.6,2.3-6.571,1.906-5.125,4.271,8.148,2.892,11.041,2.366,6.572,1.156,6.572,1.156Z" transform="translate(-5179.918 -1259.098)" fill="#ffbf94"/>
            <path id="Path_11161" data-name="Path 11161" d="M5225.218,1309.217s-4.6-2.109-5.912-2.5-1.052.007-.658,1.252,2.761,2.435,2.761,2.826S5225.218,1309.217,5225.218,1309.217Z" transform="translate(-5187.618 -1256.926)" fill="#ffbf94"/>
            <path id="Path_11162" data-name="Path 11162" d="M5355.708,1320.924s3.586,11.346,15.9,13.928c0,0,20.328-6.263,10.207-20.112C5381.811,1314.741,5371.8,1307.305,5355.708,1320.924Z" transform="translate(-5251.406 -1259.781)" fill="#739af0"/>
            <path id="Path_11163" data-name="Path 11163" d="M5162.4,1297.7s-2.657,1.015-.645,4.462l25.847-3.447s-.9-4,1.132-4.431Z" transform="translate(-5160.999 -1251.223)" fill="#fff"/>
            <path id="Path_11164" data-name="Path 11164" d="M5176.744,1312.353c.613-2.457.577-3.051-.812-4.551-.919-.992-2.324,1.467-3.051,2.95a7.524,7.524,0,0,0-.874-1.774c-.224-.077.309,3.3.309,3.3h0a3.591,3.591,0,0,0-.017.424l0,0a7.165,7.165,0,0,0,3.766,7.651l-.932-2.739C5175.7,1317.52,5176.122,1314.848,5176.744,1312.353Z" transform="translate(-5166.085 -1257.392)" fill="#ffad76"/>
            <path id="Path_11165" data-name="Path 11165" d="M5329.577,1234.377a4.612,4.612,0,0,1,5.7,2.578c1.86,3.925,2.451,13.307,9.911,14.073s7.746-15.892,7.746-15.892l-18.667-7.371-9.858,6.223Z" transform="translate(-5236.875 -1220.337)" fill="#233862"/>
            <path id="Path_11166" data-name="Path 11166" d="M5325.782,1238.351s-4.207.089-5.167,3.632.539,10.148-1.792,10.626-4.444-11.009.06-14.743S5325.782,1238.351,5325.782,1238.351Z" transform="translate(-5233.078 -1224.311)" fill="#233862"/>
          </g>
        </g>
      </g>
    </g>
    <g id="Group_9015" data-name="Group 9015" transform="translate(1637.687 103.912)">
      <g id="Group_9003" data-name="Group 9003" transform="translate(-88.444 87.913)">
        <g id="Group_9002" data-name="Group 9002" transform="translate(0)">
          <path id="Path_11167" data-name="Path 11167" d="M-27.47,135.506c.006.028-.288.068-.75.3a3.568,3.568,0,0,0-1.515,1.519,3.386,3.386,0,0,0-.393,1.426,2.953,2.953,0,0,0,.421,1.621,3.431,3.431,0,0,0,3.283,1.672,3.432,3.432,0,0,0,2.709-2.5,2.951,2.951,0,0,0-.034-1.675,3.382,3.382,0,0,0-.764-1.266,3.572,3.572,0,0,0-1.869-1.053c-.509-.1-.8-.058-.8-.086a.683.683,0,0,1,.21-.034,1.358,1.358,0,0,1,.258-.007,2.067,2.067,0,0,1,.352.03,3.54,3.54,0,0,1,1.98,1.025,3.522,3.522,0,0,1,.834,1.325,3.137,3.137,0,0,1,.06,1.8,3.671,3.671,0,0,1-1,1.719,3.424,3.424,0,0,1-1.9.97,3.424,3.424,0,0,1-2.092-.42,3.668,3.668,0,0,1-1.425-1.385,3.142,3.142,0,0,1-.429-1.748,3.518,3.518,0,0,1,.444-1.5,3.542,3.542,0,0,1,1.629-1.523,2.034,2.034,0,0,1,.331-.124,1.324,1.324,0,0,1,.251-.064A.705.705,0,0,1-27.47,135.506Z" transform="translate(30.339 -135.424)" fill="#263238"/>
        </g>
      </g>
      <g id="Group_9005" data-name="Group 9005" transform="translate(-78.253 95.727)">
        <g id="Group_9004" data-name="Group 9004" transform="translate(0)">
          <path id="Path_11168" data-name="Path 11168" d="M-7.387,151.672c.005.023-.178.055-.464.205a2.258,2.258,0,0,0-.932.956,1.9,1.9,0,0,0,.026,1.881,2.121,2.121,0,0,0,2.023,1.028,2.12,2.12,0,0,0,1.67-1.537,1.9,1.9,0,0,0-.484-1.818,2.253,2.253,0,0,0-1.156-.667c-.316-.068-.5-.048-.5-.072a1.063,1.063,0,0,1,.52-.024,2.226,2.226,0,0,1,1.267.64,2.235,2.235,0,0,1,.538.845,2.009,2.009,0,0,1,.042,1.155,2.332,2.332,0,0,1-1.86,1.728,2.333,2.333,0,0,1-2.258-1.16,2.011,2.011,0,0,1-.272-1.124,2.24,2.24,0,0,1,.289-.959,2.224,2.224,0,0,1,1.046-.959A1.055,1.055,0,0,1-7.387,151.672Z" transform="translate(9.232 -151.608)" fill="#263238"/>
        </g>
      </g>
      <g id="Group_9014" data-name="Group 9014" transform="translate(-142.687 43.56)">
        <g id="Group_9013" data-name="Group 9013">
          <g id="Group_9012" data-name="Group 9012">
            <path id="Path_11171" data-name="Path 11171" d="M-88.342,70.77s-.016-.149-.035-.439-.044-.726-.078-1.288c-.016-.283-.034-.6-.054-.948-.036-.348-.109-.724-.169-1.133s-.134-.85-.208-1.32a4.627,4.627,0,0,0-.154-.721l-.2-.758a25.8,25.8,0,0,0-3-7.2,26.952,26.952,0,0,0-6.868-7.67l-1.168-.871c-.41-.269-.843-.516-1.27-.78l-.648-.393a5.333,5.333,0,0,0-.67-.37l-1.4-.673c-.237-.112-.472-.231-.713-.338l-.749-.273-1.519-.554c-.517-.171-1.057-.281-1.591-.426l-.809-.207c-.136-.033-.27-.074-.408-.1l-.418-.063a25.076,25.076,0,0,0-3.414-.4c-.582-.02-1.169-.077-1.76-.068l-1.787.092c-.3.021-.6.018-.9.058l-.9.139c-.6.1-1.212.169-1.816.295a28.483,28.483,0,0,0-3.6,1.055l-.9.328c-.149.056-.3.107-.449.168l-.433.209-1.744.841c-.57.309-1.117.669-1.681,1-.276.177-.571.327-.834.527l-.795.595a30.419,30.419,0,0,0-3.061,2.6l-1.372,1.511-.345.38c-.107.133-.206.273-.31.41l-.618.827-.62.83-.544.888-.543.894-.272.448c-.082.154-.154.315-.231.472l-.916,1.9-.732,2a28.824,28.824,0,0,0-1.393,8.513,28.846,28.846,0,0,0,1.391,8.517l.732,2,.917,1.9.23.472.272.449.543.894.544.888.621.83.618.827.31.411.345.38,1.373,1.511a30.319,30.319,0,0,0,3.062,2.6l.795.595c.263.2.558.351.834.527.564.335,1.111.695,1.682,1l1.744.842.433.209c.147.062.3.112.449.169l.9.328a28.593,28.593,0,0,0,3.6,1.055c.6.125,1.216.2,1.817.295l.9.138c.3.04.6.038.9.058l1.787.092c.591.009,1.178-.048,1.76-.068a25.245,25.245,0,0,0,3.414-.4l.417-.063c.138-.027.272-.068.408-.1l.809-.207c.534-.146,1.075-.255,1.591-.427l1.52-.554.749-.273.713-.338,1.4-.673a5.358,5.358,0,0,0,.669-.37l.648-.393c.427-.264.86-.51,1.27-.779l1.168-.871a26.955,26.955,0,0,0,6.868-7.67c.2-.327.4-.644.582-.962l.473-.976.455-.939c.072-.155.154-.3.215-.458l.171-.465.65-1.76c.191-.564.3-1.123.449-1.64q.1-.39.2-.758a4.7,4.7,0,0,0,.155-.721l.207-1.32c.06-.409.134-.786.169-1.133q.03-.523.054-.948.051-.842.078-1.287c.019-.29.035-.439.035-.439s0,.149-.009.439-.029.728-.053,1.29l-.042.951c-.032.348-.1.726-.158,1.137l-.2,1.326a4.663,4.663,0,0,1-.149.724q-.094.37-.193.762c-.141.52-.253,1.081-.44,1.65l-.643,1.771-.17.468c-.061.156-.142.306-.214.461l-.453.946-.471.983c-.183.322-.384.641-.58.97a27,27,0,0,1-6.881,7.74l-1.173.88c-.412.273-.846.522-1.276.788l-.651.4a5.345,5.345,0,0,1-.673.375l-1.41.682c-.239.113-.475.233-.718.342l-.754.277-1.53.562c-.52.173-1.064.286-1.6.434l-.815.21c-.137.034-.272.075-.411.1l-.421.065a25.219,25.219,0,0,1-3.441.406c-.587.022-1.178.08-1.774.072l-1.8-.089c-.3-.021-.607-.018-.91-.057l-.908-.138c-.606-.1-1.222-.169-1.832-.295a28.748,28.748,0,0,1-3.632-1.059l-.9-.33c-.151-.057-.3-.107-.452-.169l-.437-.21-1.76-.847c-.576-.311-1.127-.673-1.7-1.011-.279-.178-.577-.33-.843-.531l-.8-.6a30.546,30.546,0,0,1-3.091-2.623L-136.1,88.5l-.348-.383-.313-.414-.624-.834-.627-.838-.549-.9-.548-.9-.275-.452-.233-.476-.926-1.921-.74-2.018a29.059,29.059,0,0,1-1.405-8.6,29.053,29.053,0,0,1,1.407-8.593l.74-2.017.926-1.921c.078-.159.151-.32.233-.476l.275-.452.548-.9.549-.9.627-.838.624-.834c.1-.138.205-.279.313-.413l.348-.383,1.386-1.523A30.584,30.584,0,0,1-131.62,48.9l.8-.6c.266-.2.563-.353.842-.531.57-.337,1.122-.7,1.7-1.011l1.76-.847.437-.21c.149-.062.3-.112.452-.169l.9-.33a28.717,28.717,0,0,1,3.632-1.06c.61-.125,1.226-.2,1.832-.295l.908-.138c.3-.039.607-.037.91-.057l1.8-.089c.6-.008,1.187.05,1.774.071a25.307,25.307,0,0,1,3.44.406l.42.065c.139.027.274.068.411.1l.814.211c.538.148,1.082.26,1.6.433l1.53.562.754.277c.243.109.479.229.717.342l1.41.682a5.307,5.307,0,0,1,.673.374l.652.4c.429.267.864.516,1.276.788l1.173.88a27.024,27.024,0,0,1,6.882,7.74,25.717,25.717,0,0,1,2.971,7.248q.1.393.193.762a4.66,4.66,0,0,1,.149.725l.2,1.326c.056.411.126.789.158,1.137l.042.951q.035.844.053,1.29C-88.34,70.622-88.342,70.77-88.342,70.77Z" transform="translate(142.687 -43.56)" fill="#263238"/>
          </g>
        </g>
      </g>
    </g>
    <g id="Group_9016" data-name="Group 9016" transform="translate(1644 149.552)">
      <g id="Group_9003-2" data-name="Group 9003" transform="translate(7.696 44.353)">
        <g id="Group_9002-2" data-name="Group 9002" transform="translate(0)">
          <path id="Path_11167-2" data-name="Path 11167" d="M-26.256,135.506c-.006.028.288.068.75.3a3.568,3.568,0,0,1,1.515,1.519,3.386,3.386,0,0,1,.393,1.426,2.953,2.953,0,0,1-.421,1.621,3.431,3.431,0,0,1-3.283,1.672,3.432,3.432,0,0,1-2.709-2.5,2.951,2.951,0,0,1,.034-1.675,3.382,3.382,0,0,1,.764-1.266,3.572,3.572,0,0,1,1.869-1.053c.509-.1.8-.058.8-.086a.683.683,0,0,0-.21-.034,1.358,1.358,0,0,0-.258-.007,2.067,2.067,0,0,0-.352.03,3.54,3.54,0,0,0-1.98,1.025,3.522,3.522,0,0,0-.834,1.325,3.137,3.137,0,0,0-.06,1.8,3.671,3.671,0,0,0,1,1.719,3.424,3.424,0,0,0,1.9.97,3.424,3.424,0,0,0,2.092-.42,3.668,3.668,0,0,0,1.425-1.385,3.142,3.142,0,0,0,.429-1.748,3.518,3.518,0,0,0-.444-1.5,3.542,3.542,0,0,0-1.629-1.523,2.034,2.034,0,0,0-.331-.124,1.324,1.324,0,0,0-.251-.064A.705.705,0,0,0-26.256,135.506Z" transform="translate(30.339 -135.424)" fill="#263238"/>
        </g>
      </g>
      <g id="Group_9005-2" data-name="Group 9005" transform="translate(0 52.166)">
        <g id="Group_9004-2" data-name="Group 9004" transform="translate(0)">
          <path id="Path_11168-2" data-name="Path 11168" d="M-6.62,151.672c-.005.023.178.055.464.205a2.258,2.258,0,0,1,.932.956,1.9,1.9,0,0,1-.026,1.881,2.121,2.121,0,0,1-2.023,1.028,2.12,2.12,0,0,1-1.67-1.537,1.9,1.9,0,0,1,.484-1.818,2.253,2.253,0,0,1,1.156-.667c.316-.068.5-.048.5-.072a1.063,1.063,0,0,0-.52-.024,2.226,2.226,0,0,0-1.267.64,2.235,2.235,0,0,0-.538.845,2.009,2.009,0,0,0-.042,1.155,2.332,2.332,0,0,0,1.86,1.728,2.333,2.333,0,0,0,2.258-1.16,2.011,2.011,0,0,0,.272-1.124,2.24,2.24,0,0,0-.289-.959,2.224,2.224,0,0,0-1.046-.959A1.055,1.055,0,0,0-6.62,151.672Z" transform="translate(9.232 -151.608)" fill="#263238"/>
        </g>
      </g>
      <g id="Group_9014-2" data-name="Group 9014" transform="translate(14.546 0)">
        <g id="Group_9013-2" data-name="Group 9013">
          <g id="Group_9012-2" data-name="Group 9012">
            <path id="Path_11171-2" data-name="Path 11171" d="M-142.687,70.77s.016-.149.035-.439.044-.726.078-1.288c.016-.283.034-.6.054-.948.036-.348.109-.724.169-1.133s.134-.85.208-1.32a4.629,4.629,0,0,1,.154-.721l.2-.758a25.8,25.8,0,0,1,3-7.2,26.952,26.952,0,0,1,6.868-7.67l1.168-.871c.41-.269.842-.516,1.27-.78l.648-.393a5.334,5.334,0,0,1,.67-.37l1.4-.673c.237-.112.472-.231.713-.338l.749-.273,1.519-.554c.517-.171,1.057-.281,1.591-.426l.809-.207c.136-.033.27-.074.408-.1l.418-.063a25.076,25.076,0,0,1,3.414-.4c.582-.02,1.169-.077,1.76-.068l1.787.092c.3.021.6.018.9.058l.9.139c.6.1,1.212.169,1.816.295a28.483,28.483,0,0,1,3.6,1.055l.9.328c.149.056.3.107.449.168l.433.209,1.744.841c.57.309,1.117.669,1.681,1,.276.177.571.327.834.527l.795.595a30.419,30.419,0,0,1,3.061,2.6l1.372,1.511.345.38c.107.133.206.273.31.41l.618.827.62.83.544.888.543.894.272.448c.082.154.154.315.231.472l.916,1.9.732,2a28.824,28.824,0,0,1,1.393,8.513,28.846,28.846,0,0,1-1.391,8.517l-.732,2-.917,1.9-.23.472-.272.449-.543.894-.544.888-.621.83-.618.827-.31.411-.345.38-1.373,1.511a30.319,30.319,0,0,1-3.062,2.6l-.795.595c-.263.2-.558.351-.834.527-.564.335-1.111.695-1.682,1l-1.744.842-.433.209c-.147.062-.3.112-.449.169l-.9.328a28.593,28.593,0,0,1-3.6,1.055c-.6.125-1.216.2-1.817.295l-.9.138c-.3.04-.6.038-.9.058l-1.787.092c-.591.009-1.178-.048-1.76-.068a25.245,25.245,0,0,1-3.414-.4l-.417-.063c-.138-.027-.272-.068-.408-.1l-.809-.207c-.534-.146-1.075-.255-1.591-.427l-1.52-.554-.749-.273-.713-.338-1.4-.673a5.358,5.358,0,0,1-.669-.37l-.648-.393c-.427-.264-.86-.51-1.27-.779l-1.168-.871a26.955,26.955,0,0,1-6.868-7.67c-.2-.327-.4-.644-.582-.962l-.473-.976-.455-.939c-.072-.155-.154-.3-.215-.458l-.171-.465-.65-1.76c-.191-.564-.3-1.123-.449-1.64q-.1-.39-.2-.758a4.7,4.7,0,0,1-.154-.721l-.207-1.32c-.06-.409-.134-.786-.169-1.133q-.03-.523-.054-.948-.051-.842-.078-1.287c-.019-.29-.035-.439-.035-.439s0,.149.009.439.029.728.053,1.29l.042.951c.032.348.1.726.158,1.137l.2,1.326a4.662,4.662,0,0,0,.149.724l.193.762c.141.52.253,1.081.44,1.65l.643,1.771.17.468c.061.156.142.306.214.461l.453.946.471.983c.183.322.384.641.58.97a27,27,0,0,0,6.881,7.74l1.173.88c.412.273.846.522,1.276.788l.651.4a5.344,5.344,0,0,0,.673.375l1.41.682c.239.113.475.233.718.342l.754.277,1.53.562c.52.173,1.064.286,1.6.434l.815.21c.137.034.272.075.411.1l.421.065a25.219,25.219,0,0,0,3.441.406c.587.022,1.178.08,1.774.072l1.8-.089c.3-.021.607-.018.91-.057l.908-.138c.606-.1,1.222-.169,1.832-.295a28.748,28.748,0,0,0,3.632-1.059l.9-.33c.151-.057.3-.107.452-.169l.437-.21,1.76-.847c.576-.311,1.127-.673,1.7-1.011.279-.178.577-.33.843-.531l.8-.6a30.546,30.546,0,0,0,3.091-2.623L-94.93,88.5l.348-.383.313-.414.624-.834.627-.838.549-.9.548-.9.275-.452.233-.476.926-1.921.74-2.018a29.059,29.059,0,0,0,1.405-8.6,29.053,29.053,0,0,0-1.407-8.593l-.74-2.017-.926-1.921c-.078-.159-.151-.32-.233-.476l-.275-.452-.548-.9-.549-.9-.627-.838-.624-.834c-.1-.138-.205-.279-.313-.413l-.348-.383-1.386-1.523A30.584,30.584,0,0,0-99.409,48.9l-.8-.6c-.266-.2-.563-.353-.842-.531-.57-.337-1.122-.7-1.7-1.011l-1.76-.847-.437-.21c-.149-.062-.3-.112-.452-.169l-.9-.33a28.717,28.717,0,0,0-3.632-1.06c-.61-.125-1.226-.2-1.832-.295l-.908-.138c-.3-.039-.607-.037-.91-.057l-1.8-.089c-.6-.008-1.187.05-1.774.071a25.307,25.307,0,0,0-3.44.406l-.42.065c-.139.027-.274.068-.411.1l-.814.211c-.538.148-1.082.26-1.6.433l-1.53.562-.754.277c-.243.109-.479.229-.717.342l-1.41.682a5.307,5.307,0,0,0-.673.374l-.652.4c-.429.267-.864.516-1.276.788l-1.173.88a27.024,27.024,0,0,0-6.882,7.74,25.716,25.716,0,0,0-2.971,7.248q-.1.393-.193.762a4.661,4.661,0,0,0-.149.725l-.2,1.326c-.056.411-.126.789-.158,1.137l-.042.951q-.035.844-.053,1.29C-142.688,70.622-142.687,70.77-142.687,70.77Z" transform="translate(142.687 -43.56)" fill="#263238"/>
          </g>
        </g>
      </g>
    </g>
    <g id="Group_9017" data-name="Group 9017" transform="translate(1281.068 -34.654)">
      <path id="Path_11172" data-name="Path 11172" d="M235.793,217.052c.188.328.363.613.516.91.076.147.194.1.3.1,1.3,0,2.6,0,3.9,0a1.527,1.527,0,0,1,1.654,1.657q0,1.9,0,3.8a1.526,1.526,0,0,1-1.643,1.638q-6.466,0-12.932,0a1.528,1.528,0,0,1-1.653-1.659q0-1.9,0-3.8a1.525,1.525,0,0,1,1.643-1.637c1.3,0,2.6,0,3.9,0a.351.351,0,0,0,.371-.208c.209-.4.438-.794.674-1.18.1-.172.1-.243-.108-.328a10.142,10.142,0,0,1-2.768-17.272.982.982,0,0,0,.376-.7,4.772,4.772,0,0,1,3.327-4.226,7.571,7.571,0,0,1,6.2.334,4.769,4.769,0,0,1,2.6,4.047.541.541,0,0,0,.211.421,9.963,9.963,0,0,1,3.846,8.42A9.454,9.454,0,0,1,245,211.7a.307.307,0,0,0,.068.447q4.2,4.183,8.386,8.379a2.66,2.66,0,1,1-3.689,3.828c-1.266-1.244-2.512-2.508-3.767-3.763q-2.342-2.342-4.682-4.686a.307.307,0,0,0-.446-.072,9.908,9.908,0,0,1-4.822,1.222Z" transform="translate(0)"/>
      <path id="Path_11173" data-name="Path 11173" d="M310.635,197.082c.391,0,.782-.011,1.172,0a.333.333,0,0,0,.361-.221c.386-.795.79-1.581,1.179-2.375.115-.233.256-.421.536-.424a.592.592,0,0,1,.542.414c.37.757.763,1.5,1.118,2.266a.519.519,0,0,0,.574.342c.738-.021,1.478,0,2.217-.009a.527.527,0,0,1,.391.953c-.688.686-1.368,1.379-2.065,2.056a.375.375,0,0,0-.111.437c.284.97.552,1.944.838,2.913a.523.523,0,0,1-.176.646.517.517,0,0,1-.689-.087c-.8-.673-1.608-1.334-2.4-2.014a.3.3,0,0,0-.47,0c-.778.665-1.571,1.312-2.354,1.972-.227.191-.458.322-.738.129-.263-.18-.244-.431-.162-.707.277-.938.538-1.882.817-2.82a.422.422,0,0,0-.122-.492c-.682-.661-1.347-1.341-2.021-2.01-.191-.189-.335-.386-.209-.669a.556.556,0,0,1,.6-.309C309.854,197.088,310.245,197.082,310.635,197.082Z" transform="translate(-63.102 -0.314)"/>
      <path id="Path_11174" data-name="Path 11174" d="M316.987,239.579c.38,0,.761-.011,1.14,0a.389.389,0,0,0,.433-.258c.375-.789.781-1.562,1.166-2.346.116-.235.262-.417.541-.416s.423.189.537.422c.389.794.792,1.582,1.177,2.378a.337.337,0,0,0,.362.219c.792-.01,1.584,0,2.376-.006a.54.54,0,0,1,.568.312.523.523,0,0,1-.17.623c-.672.672-1.335,1.354-2.021,2.01a.5.5,0,0,0-.143.6c.278.905.524,1.82.791,2.73.083.282.117.548-.163.736s-.512.053-.738-.138c-.774-.654-1.56-1.293-2.328-1.954-.188-.162-.3-.174-.495-.007-.768.66-1.555,1.3-2.33,1.952-.224.189-.449.339-.737.158s-.258-.468-.173-.76c.274-.929.531-1.862.813-2.789a.421.421,0,0,0-.134-.489c-.68-.664-1.346-1.341-2.021-2.011a.535.535,0,0,1,.408-.972C316.227,239.586,316.607,239.579,316.987,239.579Z" transform="translate(-67.955 -32.669)"/>
      <path id="Path_11175" data-name="Path 11175" d="M233.394,220.416a5.257,5.257,0,0,0,.836,1.747c.118.157-.028.232-.105.316a7.227,7.227,0,0,0-1.595,2.811,7.093,7.093,0,1,0,13.733,3.517,6.888,6.888,0,0,0-1.541-6.125c-.333-.4-.343-.394-.072-.821a4.26,4.26,0,0,0,.556-1.236c.064-.255.133-.222.292-.074a8.994,8.994,0,0,1,2.765,4.843,9.108,9.108,0,0,1-6.636,10.725,9.247,9.247,0,0,1-2.792.286.563.563,0,0,1-.573-.344,7.312,7.312,0,0,0-.466-.827.529.529,0,0,0-.979.005c-.061.1-.116.2-.173.3-.226.4-.231.413-.664.226a9.141,9.141,0,0,1-2.812-15.2A.374.374,0,0,1,233.394,220.416Z" transform="translate(-3.261 -20.375)" fill="#4c6cb4"/>
      <path id="Path_11176" data-name="Path 11176" d="M230.215,295.155c0-1.372-.013-2.743-.009-4.114,0-.347.218-.516.617-.516,1.4,0,2.807-.012,4.211.006a.8.8,0,0,0,.807-.47c.462-.848.953-1.681,1.46-2.569l.77,1.345c.251.439.509.874.751,1.318a.652.652,0,0,0,.638.372c.971-.007,1.941,0,2.912.007a1.24,1.24,0,0,1,.009,1.025.95.95,0,0,1-.555.08q-4.388,0-8.776,0H232.8c-.425,0-.59.253-.444.656a.2.2,0,0,0,.188.141,2.843,2.843,0,0,0,.38.012q4.452,0,8.9,0a.96.96,0,0,1,.556.08,1.38,1.38,0,0,1,.01,1.049.887.887,0,0,1-.552.087q-4.909,0-9.819,0c-.095,0-.19,0-.285,0-.38.008-.417.046-.414.421,0,.357.036.386.478.387q4.972,0,9.945,0a.942.942,0,0,1,.555.079c.079.141-.01.243-.087.34a1.062,1.062,0,0,1-.7.4,2.539,2.539,0,0,1-.379.019q-5.187,0-10.373,0C230.569,295.314,230.352,295.365,230.215,295.155Z" transform="translate(-3.253 -71.444)" fill="#f8d166"/>
      <path id="Path_11177" data-name="Path 11177" d="M260.658,217.033a6.328,6.328,0,0,1-.236,2.282,3.547,3.547,0,0,1-6.86-1.157c-.01-.369-.008-.74,0-1.109a1.522,1.522,0,0,1,1.526-1.533c.664-.016,1.329.033,1.994-.045a5.519,5.519,0,0,0,2.724-1.1c.178-.134.256-.127.38.064a2.756,2.756,0,0,1,.477,1.58C260.653,216.357,260.658,216.7,260.658,217.033Z" transform="translate(-21.03 -15.707)" fill="#f6d1b6"/>
      <path id="Path_11178" data-name="Path 11178" d="M247.756,204.181a3.876,3.876,0,0,1,.711-4.833,4.554,4.554,0,0,1,2.656-1.153,7.739,7.739,0,0,1,3.473.272,3.981,3.981,0,0,1,2.744,3.979,3.66,3.66,0,0,1-.485,1.644c-.038-.384-.014-.724-.067-1.06a5.048,5.048,0,0,0-1.1-2.18.458.458,0,0,0-.681-.062c-.258.183-.506.381-.765.563a4.584,4.584,0,0,1-2.672.847c-.518,0-1.04-.038-1.552.017a2.477,2.477,0,0,0-2.157,1.669C247.824,203.971,247.8,204.061,247.756,204.181Z" transform="translate(-16.197 -3.402)" fill="#c08d59"/>
      <path id="Path_11179" data-name="Path 11179" d="M302.469,287.505a1.17,1.17,0,0,1-.583-.359q-4.179-4.174-8.355-8.352c-.086-.086-.216-.16-.033-.288a12.2,12.2,0,0,0,1.61-1.468c.157-.039.229.086.313.171q3.5,3.49,6.984,6.987a2.553,2.553,0,0,1,.821,1.5,2.117,2.117,0,0,1-.451,1.63C302.7,287.42,302.624,287.535,302.469,287.505Z" transform="translate(-51.37 -63.478)" fill="#789fd3"/>
      <path id="Path_11180" data-name="Path 11180" d="M249.507,260.9a5.536,5.536,0,0,1-1.531-1.4c-.118-.147-.032-.221.058-.316a3.777,3.777,0,0,1,2.14-1.141c.093-.016.187-.032.28-.05a1.975,1.975,0,0,1,1.25.095,2.89,2.89,0,0,0,2.511-.108.632.632,0,0,1,.422-.072,6.034,6.034,0,0,1,1.74.428.627.627,0,0,1,.088.363c0,.38.01.761,0,1.14a1.1,1.1,0,0,1-1.14,1.147c-1.795.018-3.59.007-5.386.006A1.8,1.8,0,0,1,249.507,260.9Z" transform="translate(-16.74 -48.907)" fill="#d13f34"/>
      <path id="Path_11181" data-name="Path 11181" d="M243.565,239.054a5.9,5.9,0,0,1,.945-6.591,4.609,4.609,0,0,0,1.346,2.69,3.947,3.947,0,0,0,.962.713.315.315,0,0,1,.2.341c-.012.358-.018.718,0,1.076.011.216-.062.291-.272.315a5.058,5.058,0,0,0-2.574.952C243.962,238.709,243.768,238.884,243.565,239.054Z" transform="translate(-12.963 -29.547)" fill="#e1e6f5"/>
      <path id="Path_11182" data-name="Path 11182" d="M279.421,232.453a5.9,5.9,0,0,1,.942,6.605,5.014,5.014,0,0,0-1.7-1.125,6.433,6.433,0,0,0-1.5-.347c-.178-.023-.249-.087-.24-.279.018-.368.014-.738,0-1.107a.326.326,0,0,1,.2-.341A4.55,4.55,0,0,0,279.421,232.453Z" transform="translate(-38.817 -29.539)" fill="#e1e6f5"/>
      <path id="Path_11183" data-name="Path 11183" d="M307.9,285.406a2.051,2.051,0,0,0,.228-2.857c-.265-.315-.552-.607-.842-.9q-3.231-3.233-6.465-6.463c-.089-.089-.188-.167-.283-.25a5.44,5.44,0,0,0,.381-.5c.143-.239.247-.189.417-.018q2.9,2.919,5.82,5.825c.829.829,1.663,1.651,2.483,2.489a1.554,1.554,0,0,1,.393,1.665,1.588,1.588,0,0,1-1.272,1.105A1.274,1.274,0,0,1,307.9,285.406Z" transform="translate(-56.802 -61.379)" fill="#5e86c9"/>
      <path id="Path_11184" data-name="Path 11184" d="M242.4,303.229l0-1.009a1.2,1.2,0,0,1,0-1q0-.5,0-1.01c.5,0,.991-.014,1.487-.008a.493.493,0,0,1,.54.53q.009,2.009,0,4.019a.5.5,0,0,1-.521.518c-.052,0-.105,0-.158,0q-6.425,0-12.851,0c-.325,0-.587-.07-.652-.442a.6.6,0,0,0,.368.06q5.339,0,10.679,0a1.08,1.08,0,0,0,1.045-.626c.186-.172.417-.092.629-.1.338-.019.359-.036.357-.429,0-.365-.022-.383-.354-.4C242.779,303.323,242.57,303.389,242.4,303.229Z" transform="translate(-3.286 -81.117)" fill="#efad42"/>
      <path id="Path_11185" data-name="Path 11185" d="M254.574,262.3l5.729-.007a1.01,1.01,0,0,0,1.13-1.133c0-.475.007-.949.011-1.424a3.44,3.44,0,0,1,1.256.88.19.19,0,0,1,.014.3,5.994,5.994,0,0,1-3.927,2.324,5.887,5.887,0,0,1-4.143-.874A.631.631,0,0,1,254.574,262.3Z" transform="translate(-21.806 -50.307)" fill="#b42f28"/>
      <path id="Path_11186" data-name="Path 11186" d="M264.179,248.7a4.5,4.5,0,0,0,2.028,0c0,.416-.006.805,0,1.194a.212.212,0,0,1-.163.229,2.285,2.285,0,0,1-1.7.006.229.229,0,0,1-.175-.254C264.186,249.5,264.179,249.118,264.179,248.7Z" transform="translate(-29.116 -41.91)" fill="#f1b8a0"/>
      <path id="Path_11187" data-name="Path 11187" d="M322.864,203.481c-.568.558-1.062,1.057-1.573,1.539a.692.692,0,0,0-.213.793c.172.538.314,1.086.467,1.626-.141.062-.187-.031-.246-.079-.441-.362-.879-.727-1.318-1.091-.417-.346-.554-.346-.959-.007-.43.358-.858.718-1.292,1.073-.083.068-.154.187-.3.125.17-.593.338-1.185.511-1.776a.589.589,0,0,0-.206-.622c-.511-.5-1.02-1.012-1.557-1.546a4.418,4.418,0,0,1,.864-.032,4.753,4.753,0,0,1,.665,0,.741.741,0,0,0,.839-.506c.28-.624.6-1.229.909-1.839.126,0,.126.111.16.177.3.592.6,1.184.888,1.783a.613.613,0,0,0,.625.385C321.676,203.474,322.221,203.481,322.864,203.481Z" transform="translate(-68.712 -5.699)" fill="#f8d166"/>
      <path id="Path_11188" data-name="Path 11188" d="M323.684,249.74c.177-.616.356-1.219.524-1.825a.582.582,0,0,0-.228-.587c-.51-.5-1.017-1.006-1.585-1.569a9.713,9.713,0,0,1,1.265.01,1.075,1.075,0,0,0,1.292-.809c.2-.536.506-1.036.795-1.612.272.545.516,1.04.766,1.532.489.963.315.879,1.424.879H329.1c-.446.441-.838.829-1.23,1.217-.767.762-.673.594-.409,1.554.11.4.224.8.349,1.248a1.4,1.4,0,0,1-.492-.331c-.369-.3-.731-.607-1.1-.91-.407-.337-.544-.335-.959.012s-.842.7-1.267,1.052C323.909,249.67,323.84,249.787,323.684,249.74Z" transform="translate(-73.441 -37.834)" fill="#f8d166"/>
      <path id="Path_11189" data-name="Path 11189" d="M245.572,312.9c.273,0,.547.015.821.007.15,0,.191.043.2.195.039.822.044.821-.769.823-.1,0-.21.007-.315.011-.242,0-.485-.011-.728-.011q-5.021,0-10.043.006c-.261,0-.335-.057-.328-.324.02-.7.006-.7.71-.7h10.106C245.34,312.909,245.456,312.9,245.572,312.9Z" transform="translate(-6.453 -90.786)"/>
      <path id="Path_11190" data-name="Path 11190" d="M248.806,304.45v1q-4.957,0-9.914.009c-.176,0-.228-.044-.231-.226-.012-.792-.019-.793.769-.792Z" transform="translate(-9.689 -84.349)"/>
    </g>
    <g id="Group_9018" data-name="Group 9018" transform="translate(1171.634 -176.847)">
      <path id="Path_11191" data-name="Path 11191" d="M508.69,336.114h15.957c.34.13.352.416.352.718q0,4.439,0,8.877a4.484,4.484,0,0,0,.128,1.081,11.279,11.279,0,0,1-.013,5.475,3.878,3.878,0,0,0-.115.954c0,1.887.008,3.774,0,5.661a.592.592,0,0,0,.4.643,2.971,2.971,0,0,1,1.071.907c.46.539.972,1.028,1.453,1.546.532.572,1.045,1.165,1.617,1.7a2.832,2.832,0,0,1,.39,3.481,2.629,2.629,0,0,1-3.875.435c-.334-.314-.647-.651-1.011-1a5.724,5.724,0,0,0-.033.991c-.011.643-.157.8-.8.8-1.147,0-2.294,0-3.441,0-.416,0-.541-.1-.682-.5.032-.444.225-.631.708-.642.729-.016,1.458,0,2.186-.005.2,0,.407,0,.611,0,.185,0,.277-.07.276-.264,0-.493,0-.986,0-1.479a.555.555,0,0,0-.2-.423c-.467-.428-.865-.921-1.305-1.375a2.589,2.589,0,0,1-.5-3.051.417.417,0,0,0-.095-.565c-.319-.3-.628-.615-.933-.931a.3.3,0,0,0-.448-.04,14.174,14.174,0,0,1-1.9,1.073,11.67,11.67,0,0,1-14.781-4.833c.005.906.006,1.817,0,2.727a.852.852,0,0,0,.223.609q.728.836,1.421,1.7a1.57,1.57,0,0,0,.748.522c.69.234,1.381.466,2.062.724a1.074,1.074,0,0,1,.564,1.73c-.413.639-.859,1.256-1.286,1.886a1,1,0,0,0-.192.6c.005.354.02.708-.005,1.061-.02.264.082.333.329.33,1.007-.01,2.014,0,3.022,0,1.639,0,3.279,0,4.919,0,.889-.016,1.778-.013,2.666,0a.665.665,0,0,1,.762.579.584.584,0,0,1-.584.566,4.376,4.376,0,0,1-.45.009q-5.1,0-10.193,0a.79.79,0,0,0-.79.357.826.826,0,0,1-.75.357,3.828,3.828,0,0,1-.985-.122c-.561-.142-1.123-.278-1.685-.42a1.568,1.568,0,0,0-.761.005,23,23,0,0,1-2.254.52,2.241,2.241,0,0,1-.416.014.947.947,0,0,1-.976-.982c-.023-.674-.107-1.346-.074-2.022a1.56,1.56,0,0,0-.3-1c-.338-.483-.674-.967-1-1.457a1.875,1.875,0,0,1-.339-.749v-.451a.979.979,0,0,1,.73-.806c.706-.253,1.412-.509,2.123-.747a1.324,1.324,0,0,0,.626-.427c.511-.621,1.023-1.241,1.547-1.851a.637.637,0,0,0,.154-.442q0-2.654,0-5.307a3.577,3.577,0,0,0-.139-.79,11.616,11.616,0,0,1,.05-5.35,3.646,3.646,0,0,0,.093-.86q0-4.39,0-8.78c0-.129,0-.258,0-.386a.529.529,0,0,1,.414-.572h3.8a.485.485,0,0,1,.378.555.588.588,0,0,1-.68.5c-.719.01-1.437,0-2.155,0-.6,0-.6,0-.6.588q0,2.751,0,5.5c0,.128.007.257,0,.328a11.693,11.693,0,0,1,20.151.011q0-2.962,0-5.932c0-.492,0-.493-.5-.493H514.5c-1.825.016-3.65.005-5.475.006a.653.653,0,0,1-.721-.459A.493.493,0,0,1,508.69,336.114Z"/>
      <path id="Path_11192" data-name="Path 11192" d="M519.94,336.114a.66.66,0,0,0-.329.515,1.758,1.758,0,0,1-1.276,0,.723.723,0,0,0-.324-.515Z" transform="translate(-11.25)" fill="#fdfdfe"/>
      <path id="Path_11193" data-name="Path 11193" d="M522.919,389.958c-.911.005-1.821.013-2.732.014-1.769,0-3.537,0-5.306.006-.23,0-.348-.035-.289-.293a.757.757,0,0,0,.013-.256,3.089,3.089,0,0,1,.814-2.469,9.437,9.437,0,0,0,.726-1.058.966.966,0,0,0-.507-1.532c-.782-.288-1.57-.56-2.358-.83a.8.8,0,0,1-.361-.248c-.6-.687-1.128-1.43-1.777-2.072a.211.211,0,0,1-.062-.17c0-1.1,0-2.2,0-3.392a13.743,13.743,0,0,0,.929,1.422,11.451,11.451,0,0,0,9.668,4.622,11.051,11.051,0,0,0,4.083-.9c.059-.025.12-.043.18-.065.1.1.05.218.023.33a24.072,24.072,0,0,1-1.469,4.223c-.048.106-.081.223-.2.279a1.448,1.448,0,0,1-.51.043q-2.685,0-5.37,0a2.661,2.661,0,0,0-.417.015c-.2.031-.382.1-.431.324a.38.38,0,0,0,.239.442.822.822,0,0,0,.439.062h4.972a2.211,2.211,0,0,1,.384.015c.146.025.22.116.149.249A3.551,3.551,0,0,1,522.919,389.958Z" transform="translate(-7.473 -22.639)" fill="#eef5fe"/>
      <path id="Path_11194" data-name="Path 11194" d="M520.076,363.371a9.657,9.657,0,0,1-4.9-1.542,10.6,10.6,0,0,1,3.4-19.393,9.145,9.145,0,0,1,3.568-.113,8.663,8.663,0,0,1,2.747,1.645,8.208,8.208,0,0,1,1.045.987c.1.112.278.217.165.422-.157.026-.262-.08-.374-.156a8.552,8.552,0,0,0-3.983-1.441,8.9,8.9,0,0,0-6.845,2.083,9.07,9.07,0,0,0-1.127,12.77,8.932,8.932,0,0,0,5.9,3.208,8.809,8.809,0,0,0,4.262-.518c.206-.076.4-.227.638-.168.082.141-.043.2-.119.253a10.934,10.934,0,0,1-4.027,1.935A1.007,1.007,0,0,1,520.076,363.371Z" transform="translate(-6.954 -3.314)" fill="#375e7d"/>
      <path id="Path_11195" data-name="Path 11195" d="M530.935,394.56l.85-1.409H531.3q-2.572,0-5.143,0c-.124,0-.258.041-.372-.051.144-.16.338-.111.513-.111q2.973-.006,5.946,0a2.366,2.366,0,0,0,.417-.018.358.358,0,0,0,.317-.317.353.353,0,0,0-.22-.359c-.129-.077-.3-.055-.411-.17.282-.714.573-1.424.841-2.143a19.42,19.42,0,0,0,.763-2.637A13.471,13.471,0,0,0,536,386.149c.1-.075.156-.056.235.026q.623.649,1.257,1.287c.093.093.09.159.03.274a2.519,2.519,0,0,0,.455,3.221c.442.467.879.937,1.325,1.4a.482.482,0,0,1,.154.367c-.008.535-.013,1.071,0,1.606.006.206-.061.247-.253.245-.974-.01-1.949-.006-2.923,0-.421,0-.544.1-.653.506H534.35c-.113-.41-.23-.5-.654-.5Z" transform="translate(-15.489 -27.241)" fill="#d8edfe"/>
      <path id="Path_11196" data-name="Path 11196" d="M538.045,345.522a3.427,3.427,0,0,0-.888-1,12,12,0,0,0-2.646-1.827c-.15-.076-.336-.08-.452-.224a8.474,8.474,0,0,1,2.656.695,10.516,10.516,0,0,1,5.454,5.119,10.172,10.172,0,0,1,1.075,5.318,10.66,10.66,0,0,1-8.864,9.826,9.856,9.856,0,0,1-2.206.139.881.881,0,0,1-.182-.049,15.441,15.441,0,0,0,2.112-.716,9.081,9.081,0,0,0,2.4-1.492c.019-.16.163-.185.27-.243a8.921,8.921,0,0,0,4.9-7,8.755,8.755,0,0,0-2.5-7.432,7.877,7.877,0,0,0-.924-.843C538.15,345.726,538.04,345.664,538.045,345.522Z" transform="translate(-18.87 -3.466)" fill="#2b4d66"/>
      <path id="Path_11197" data-name="Path 11197" d="M514.547,337.245h1.276a.56.56,0,0,0,.634.455c1.85,0,3.7,0,5.55.007a1.618,1.618,0,0,1,.642.9,12.271,12.271,0,0,0-3.96.225,11.545,11.545,0,0,0-7.479,5.526.389.389,0,0,1-.142.157v-.268c0-2.08.007-4.16-.008-6.239,0-.283.086-.325.339-.32.825.016,1.651,0,2.476.011A.584.584,0,0,0,514.547,337.245Z" transform="translate(-7.463 -0.616)" fill="#eef5fe"/>
      <path id="Path_11198" data-name="Path 11198" d="M504.208,395.293c-.89.226-1.78.449-2.669.68-.212.055-.17-.092-.174-.2-.034-.814-.069-1.627-.095-2.441a1.01,1.01,0,0,0-.191-.565c-.452-.651-.887-1.312-1.345-1.959-.136-.192-.128-.267.106-.344.76-.252,1.513-.529,2.272-.785a1.3,1.3,0,0,0,.615-.436c.492-.607,1-1.2,1.5-1.8.073-.087.15-.224.242-.013a4.749,4.749,0,0,1,.342,1.683,15.285,15.285,0,0,1,.069,2.336,14.609,14.609,0,0,1-.491,3.514A.616.616,0,0,1,504.208,395.293Z" transform="translate(-1.242 -27.903)" fill="#fed672"/>
      <path id="Path_11199" data-name="Path 11199" d="M535.76,339.146c-.158-.34-.475-.567-.642-.9q2.7-.005,5.4-.011c1.254,0,2.507,0,3.761,0,.141,0,.262-.028.261.2-.009,2.175-.006,4.35-.008,6.525a.516.516,0,0,1-.031.1l-.188-.3a11.479,11.479,0,0,0-8.433-5.571A.681.681,0,0,1,535.76,339.146Z" transform="translate(-20.573 -1.154)" fill="#d8edfe"/>
      <path id="Path_11200" data-name="Path 11200" d="M509.672,395.426a17.071,17.071,0,0,0,.261-7.865c.511.6,1.029,1.2,1.53,1.813a1.354,1.354,0,0,0,.643.448c.759.255,1.512.528,2.27.785.192.065.227.132.1.309-.461.656-.9,1.325-1.364,1.982a1.009,1.009,0,0,0-.2.563c-.025.77-.058,1.54-.086,2.311-.014.376-.011.376-.386.284-.789-.193-1.578-.383-2.364-.582A1.641,1.641,0,0,0,509.672,395.426Z" transform="translate(-6.706 -28.037)" fill="#fab958"/>
      <path id="Path_11201" data-name="Path 11201" d="M552.78,377.906v.4c0,1.167,0,2.334,0,3.5,0,.2-.035.305-.269.324a1.635,1.635,0,0,0-.719.254.185.185,0,0,1-.273-.041c-.392-.41-.79-.814-1.188-1.219-.07-.072-.139-.126-.025-.228A13.6,13.6,0,0,0,552.78,377.906Z" transform="translate(-28.82 -22.775)" fill="#d8edfe"/>
      <path id="Path_11202" data-name="Path 11202" d="M562.821,400.956a1.511,1.511,0,0,1-1.912-.14c-.256-.242-.484-.513-.735-.761-.112-.11-.1-.175.013-.278.436-.393.864-.8,1.295-1.2a.156.156,0,0,1,.227.039,4.426,4.426,0,0,1,1.122,1.5A1.056,1.056,0,0,1,562.821,400.956Z" transform="translate(-34.185 -34.024)" fill="#f4a86c"/>
      <path id="Path_11203" data-name="Path 11203" d="M555.461,391.951c-.43.413-.862.823-1.288,1.24-.089.087-.144.094-.229,0-.257-.285-.541-.547-.778-.848a1.494,1.494,0,0,1,.02-1.885,1.294,1.294,0,0,1,1.229.278,6.534,6.534,0,0,1,.992.957C555.475,391.762,555.531,391.847,555.461,391.951Z" transform="translate(-30.232 -29.579)" fill="#f4a86c"/>
      <path id="Path_11204" data-name="Path 11204" d="M555.875,391.292c-.586-.761-1.173-1.519-2.275-1.494a1.52,1.52,0,0,1,2.279-.191c.258.24.483.513.731.763.1.1.105.162,0,.257C556.358,390.844,556.118,391.07,555.875,391.292Z" transform="translate(-30.645 -28.92)" fill="#e99958"/>
      <path id="Path_11205" data-name="Path 11205" d="M564.481,400.112a1.97,1.97,0,0,0-.732-1.787c-.216-.183-.294-.507-.607-.587.09-.09.175-.187.272-.269.193-.165.355-.5.57-.468s.361.334.545.512a1.667,1.667,0,0,1,.6,1.721A1.374,1.374,0,0,1,564.481,400.112Z" transform="translate(-35.846 -33.18)" fill="#e99958"/>
      <path id="Path_11206" data-name="Path 11206" d="M559.271,396.086c-.439.422-.882.84-1.315,1.268-.118.117-.178.08-.279-.02-.609-.607-.611-.6.029-1.192q.425-.389.849-.78A1.112,1.112,0,0,1,559.271,396.086Z" transform="translate(-32.621 -32.288)" fill="#ea5467"/>
      <path id="Path_11207" data-name="Path 11207" d="M560.866,395.191a4.414,4.414,0,0,0-.715-.724c.237-.229.476-.456.708-.689.081-.081.14-.077.205.009a.423.423,0,0,0,.044.046C561.75,394.465,561.75,394.465,560.866,395.191Z" transform="translate(-34.216 -31.393)" fill="#e3384e"/>
      <path id="Path_11208" data-name="Path 11208" d="M531.929,399.328a3.515,3.515,0,0,1,.381.041.472.472,0,0,1-.035.933,1.359,1.359,0,0,1-.193.01l-6.715-.006a.475.475,0,0,1-.328-.608c.079-.289.31-.351.576-.351q2.982,0,5.964,0C531.7,399.346,531.813,399.334,531.929,399.328Z" transform="translate(-15.068 -34.449)" fill="#010101"/>
      <path id="Path_11209" data-name="Path 11209" d="M530.8,394.65c.481,0,.962,0,1.443,0,.344,0,.563.195.562.479a.5.5,0,0,1-.564.484q-1.459.007-2.919,0a.5.5,0,0,1-.56-.485c0-.286.217-.475.562-.478C529.818,394.647,530.31,394.65,530.8,394.65Z" transform="translate(-17.111 -31.899)"/>
      <path id="Path_11210" data-name="Path 11210" d="M527.84,347.093A10.292,10.292,0,0,1,530,349.32a9.081,9.081,0,0,1,1.588,4.413,8.979,8.979,0,0,1-1.444,5.8,9.091,9.091,0,0,1-3.506,3.172c-.113.059-.223.122-.335.184a10.892,10.892,0,0,1-2.616.74,9.173,9.173,0,0,1-2.664-18.15,8.971,8.971,0,0,1,6.6,1.483C527.692,347.007,527.767,347.049,527.84,347.093Z" transform="translate(-8.665 -5.037)"/>
      <path id="Path_11211" data-name="Path 11211" d="M528.856,358.981a4.347,4.347,0,0,0-2.762-1.14c-.154-.005-.195-.061-.2-.211a1.6,1.6,0,0,1,.362-1.2,5.614,5.614,0,0,0,1.143-3.086,5.221,5.221,0,0,0-.144-2.353,3.843,3.843,0,0,0-7.481,1.26,7.966,7.966,0,0,0,.516,2.989,4.816,4.816,0,0,0,.92,1.5,2.02,2.02,0,0,1,.121,1.043c-.042.067-.11.052-.171.057a4.244,4.244,0,0,0-3.911,2.934c0,.008-.017.012-.046.03a7.945,7.945,0,0,1-1.568-3.185,8.221,8.221,0,0,1,7.048-10.087,6.668,6.668,0,0,1,2.145.055,5.437,5.437,0,0,1,1.991,1.262,8.555,8.555,0,0,1,2.894,5.643,8.374,8.374,0,0,1-.613,4.25C529.052,358.846,529.036,359,528.856,358.981Z" transform="translate(-9.831 -6.187)" fill="#9ed3fd"/>
      <path id="Path_11212" data-name="Path 11212" d="M540.139,359.119a5.23,5.23,0,0,0,.6-1.635,8.045,8.045,0,0,0,.182-2.7,8.368,8.368,0,0,0-1.494-4.166,9.157,9.157,0,0,0-3.319-2.893,7.641,7.641,0,0,1,3.639,1.484,8.2,8.2,0,0,1,1.788,11.446c-.075.1-.154.2-.255.334A4.668,4.668,0,0,0,540.139,359.119Z" transform="translate(-21.114 -6.325)" fill="#84bdee"/>
      <path id="Path_11213" data-name="Path 11213" d="M529.234,361.89a2.524,2.524,0,0,1-1.3-1.142,6.52,6.52,0,0,1-.779-3.786,7.943,7.943,0,0,0,4.193,1.121.211.211,0,0,1,.063.2,5.263,5.263,0,0,1-1.564,3.386C529.679,361.83,529.506,362,529.234,361.89Z" transform="translate(-16.231 -11.361)" fill="#fee4c0"/>
      <path id="Path_11214" data-name="Path 11214" d="M525.1,375.607v1.951a7.871,7.871,0,0,1-2.629-1.057,8.919,8.919,0,0,1-1.083-.8.336.336,0,0,1-.132-.361,3.312,3.312,0,0,1,1.943-2.432c.2-.093.238.015.29.156q.4,1.066.795,2.13C524.453,375.652,524.606,375.729,525.1,375.607Z" transform="translate(-13.012 -20.032)" fill="#fed672"/>
      <path id="Path_11215" data-name="Path 11215" d="M540.481,376.963a7.757,7.757,0,0,1-3.112,1.505c-.131.032-.2.03-.2-.133.005-.535,0-1.069,0-1.6,0-.115.013-.178.16-.141.352.09.533-.1.647-.41.188-.51.389-1.015.585-1.522a.18.18,0,0,1,.235-.007,3.743,3.743,0,0,1,1.7,2.186A.2.2,0,0,1,540.481,376.963Z" transform="translate(-21.693 -20.98)" fill="#fed672"/>
      <path id="Path_11216" data-name="Path 11216" d="M531.9,354.173a4.516,4.516,0,0,1-1.74-.129,6.491,6.491,0,0,1-1.985-.785c-.17-.1-.2-.181-.077-.342a2.781,2.781,0,0,1,2.579-1.256,1.989,1.989,0,0,1,.768.8,3.369,3.369,0,0,1,.5,1.473A.291.291,0,0,1,531.9,354.173Z" transform="translate(-16.705 -8.467)" fill="#375e7c"/>
      <path id="Path_11217" data-name="Path 11217" d="M531.731,362.937c.478-.024.719-.4.975-.71a5.568,5.568,0,0,0,1.144-3.1,8.86,8.86,0,0,0,1.388-.234c.121-.04.146.023.137.134a5.7,5.7,0,0,1-.936,2.991,2.278,2.278,0,0,1-2.63.968A.376.376,0,0,1,531.731,362.937Z" transform="translate(-18.728 -12.409)" fill="#fdd0a2"/>
      <path id="Path_11218" data-name="Path 11218" d="M531.852,378.209c0-.364.01-.729,0-1.092a.4.4,0,0,1,.206-.39c.531-.354.525-.357,1.057.005a.391.391,0,0,1,.2.363q-.013,1.157,0,2.313c0,.188-.045.262-.245.273a7.8,7.8,0,0,1-1.026,0c-.155-.012-.2-.069-.194-.216C531.857,379.045,531.852,378.627,531.852,378.209Z" transform="translate(-18.791 -21.988)" fill="#ea5367"/>
      <path id="Path_11219" data-name="Path 11219" d="M542.147,376.013a3.944,3.944,0,0,0-1.629-2.188.421.421,0,0,0-.289-.116c.082-.23.174-.458.243-.692.053-.178.137-.172.282-.105a3.338,3.338,0,0,1,1.907,2.28.457.457,0,0,1-.207.594A3.12,3.12,0,0,0,542.147,376.013Z" transform="translate(-23.359 -20.03)" fill="#fab958"/>
      <path id="Path_11220" data-name="Path 11220" d="M535.071,354.185a3.736,3.736,0,0,0-1.224-2.512,2.861,2.861,0,0,1,2.591,2.072c.037.155,0,.21-.141.25A3.762,3.762,0,0,1,535.071,354.185Z" transform="translate(-19.881 -8.479)" fill="#2b4d66"/>
      <path id="Path_11221" data-name="Path 11221" d="M532.715,370.95c-.263.25-.5.655-.794.708-.318.057-.535-.412-.811-.633-.141-.114-.26-.255-.4-.369a.325.325,0,0,1-.121-.367c.106-.076.206-.02.3.02a2.69,2.69,0,0,0,1.443.175C532.739,370.427,532.836,370.554,532.715,370.95Z" transform="translate(-18.096 -18.604)" fill="#fdd0a2"/>
      <path id="Path_11222" data-name="Path 11222" d="M528.407,372.373a.332.332,0,0,1,.316.112c.309.295.62.589.939.874.118.105.133.167-.012.256-.272.167-.556.506-.8.476-.223-.029-.245-.511-.361-.792-.094-.226-.162-.464-.264-.685S528.2,372.343,528.407,372.373Z" transform="translate(-16.795 -19.755)" fill="#edf4fd"/>
      <path id="Path_11223" data-name="Path 11223" d="M532.733,370.628c-.019-.432-.017-.414-.459-.355a2.514,2.514,0,0,1-1.375-.187c-.1-.043-.2-.079-.294-.119v-.307a3,3,0,0,0,2.443.055c.133-.056.151.008.172.129C533.294,370.259,532.982,370.421,532.733,370.628Z" transform="translate(-18.114 -18.281)" fill="#fcba83"/>
      <path id="Path_11224" data-name="Path 11224" d="M536.627,373.492l-.417,1.184c-.3-.2-.573-.39-.85-.566-.134-.085-.114-.147-.01-.238.193-.166.379-.34.568-.511A.538.538,0,0,1,536.627,373.492Z" transform="translate(-20.654 -20.258)" fill="#edf4fd"/>
      <path id="Path_11225" data-name="Path 11225" d="M537.409,372.983a1.5,1.5,0,0,0-.708-.129c.258-.248.458-.607.932-.47A1.986,1.986,0,0,1,537.409,372.983Z" transform="translate(-21.436 -19.749)" fill="#d1e6f6"/>
    </g>
  </g>
</svg>
