<svg id="Group_9942" data-name="Group 9942" xmlns="http://www.w3.org/2000/svg" width="9.295" height="10.585" viewBox="0 0 9.295 10.585">
  <g id="Group_7775" data-name="Group 7775" transform="translate(0)">
    <path id="Path_9427" data-name="Path 9427" d="M251.3,310.207h-7.6c-.038,0-.076,0-.114,0-.1.007-.114.027-.109.121s.015.192.022.288c.05.71.114,1.42.174,2.13s.117,1.419.177,2.129c.053.62.107,1.241.153,1.862a1.2,1.2,0,0,0,.062.355.893.893,0,0,0,.792.626h5.29a1.689,1.689,0,0,0,.251-.046.96.96,0,0,0,.585-.792c.033-.273.048-.548.072-.823q.049-.566.095-1.132c.03-.37.062-.74.091-1.111s.063-.768.1-1.152q.046-.545.091-1.09c.032-.38.067-.761.093-1.142C251.529,310.207,251.523,310.207,251.3,310.207Zm-5.454,6.253a.292.292,0,0,1-.206-.271c-.037-.56-.07-1.12-.105-1.68q-.078-1.262-.158-2.525c-.016-.254-.034-.508-.047-.763a.314.314,0,0,1,.3-.362c.186-.008.311.124.324.336q.1,1.587.2,3.174c.036.581.071,1.161.111,1.829A.3.3,0,0,1,245.843,316.459Zm1.962-.323a.31.31,0,0,1-.417.321.291.291,0,0,1-.2-.285q0-2.5,0-5.008a.305.305,0,0,1,.311-.306.311.311,0,0,1,.307.331q0,1.239,0,2.478T247.8,316.137Zm1.859-4.933c-.054.854-.106,1.682-.157,2.509q-.067,1.077-.132,2.153c-.006.1-.013.206-.02.309a.31.31,0,0,1-.325.3.3.3,0,0,1-.292-.324c.018-.378.044-.756.067-1.134q.057-.912.115-1.824c.042-.68.083-1.36.126-2.04a.315.315,0,0,1,.331-.3A.309.309,0,0,1,249.663,311.2Z" transform="translate(-242.846 -307.135)" fill="#db3131"/>
    <path id="Path_9428" data-name="Path 9428" d="M244.635,274.519c-.523,0-1.047,0-1.57,0-.085,0-.2.028-.249-.014s-.011-.161-.017-.246c0-.017,0-.034,0-.051a.924.924,0,0,0-.928-.925c-.826-.009-1.652-.007-2.479,0a.911.911,0,0,0-.9.688,1.6,1.6,0,0,0-.035.482c0,.051-.01.073-.067.07-.089-.005-.179,0-.268,0-.5,0-1.005,0-1.508,0a.618.618,0,0,0-.611.793.626.626,0,0,0,.644.445h7.477c.175,0,.351,0,.527,0a.619.619,0,1,0-.019-1.238Zm-2.473-.017c-.045.053-.161.015-.246.016-.43,0-.86,0-1.29,0-.485,0-.97,0-1.455,0-.078,0-.1-.019-.094-.1a1.849,1.849,0,0,0,0-.186.313.313,0,0,1,.34-.34c.437,0,.874,0,1.31,0h1.094a.317.317,0,0,1,.355.356C242.178,274.339,242.2,274.451,242.162,274.5Z" transform="translate(-235.98 -273.275)" fill="#db3131"/>
  </g>
</svg>
