<svg xmlns="http://www.w3.org/2000/svg" width="400" height="400" viewBox="0 0 508.468 836">
  <g id="Group_247" data-name="Group 247" transform="translate(219.021 -172.015)" opacity="0.77">
    <path id="Path_257" data-name="Path 257" d="M-58.908,198.322a20.7,20.7,0,0,0-8.688-2.033,20.76,20.76,0,0,0-8.688,2.036,17.344,17.344,0,0,0-3.761,2.4,17.006,17.006,0,0,0-1.49,1.355,18.851,18.851,0,0,0-1.451,1.609,18.738,18.738,0,0,0-3.586,7.087,18.326,18.326,0,0,0-.5,6.983,17.076,17.076,0,0,0,1.572,5.589,17.05,17.05,0,0,0,1.143,2.1c.416.608.831,1.14,1.188,1.623a15.865,15.865,0,0,0,1.971,1.966l.738.631-.551-.8a22.486,22.486,0,0,1-1.391-2.3c-.235-.529-.509-1.1-.766-1.731-.189-.665-.518-1.321-.667-2.093a17.951,17.951,0,0,1-.583-5.113,18.273,18.273,0,0,1,1.14-5.812,17.5,17.5,0,0,1,3.4-5.481,14.121,14.121,0,0,1,1.16-1.143,13.588,13.588,0,0,1,1.431-1.148,13.457,13.457,0,0,1,1.383-.871,12.453,12.453,0,0,1,1.53-.795A16.248,16.248,0,0,1-67.6,200.93a16.272,16.272,0,0,1,6.779,1.454,17.034,17.034,0,0,1,5.543,4,17.512,17.512,0,0,1,3.357,5.436,18.35,18.35,0,0,1,1.14,5.809,17.934,17.934,0,0,1-.58,5.111c-.15.775-.478,1.431-.667,2.093-.257.634-.532,1.2-.764,1.731a23.148,23.148,0,0,1-1.391,2.3l-.551.8.738-.631a15.888,15.888,0,0,0,1.974-1.966c.356-.484.772-1.013,1.191-1.621a16.878,16.878,0,0,0,1.14-2.1,16.956,16.956,0,0,0,1.575-5.591,18.866,18.866,0,0,0-4.126-14.118A19.383,19.383,0,0,0-58.908,198.322Z" transform="translate(240.983 44.377)" fill="#1850aa"/>
    <path id="Path_258" data-name="Path 258" d="M-138.89,226.568c-.235-.529-.509-1.1-.766-1.731-.189-.665-.518-1.321-.667-2.093a17.949,17.949,0,0,1-.583-5.113,18.272,18.272,0,0,1,1.14-5.812,17.5,17.5,0,0,1,3.4-5.481,14.113,14.113,0,0,1,1.16-1.143,13.582,13.582,0,0,1,1.431-1.148,13.458,13.458,0,0,1,1.383-.871,12.254,12.254,0,0,1,1.53-.795,16.239,16.239,0,0,1,6.782-1.451,16.272,16.272,0,0,1,6.779,1.454,17.021,17.021,0,0,1,5.54,4,17.521,17.521,0,0,1,3.36,5.436,18.35,18.35,0,0,1,1.14,5.809,18.038,18.038,0,0,1-.58,5.111c-.15.775-.478,1.431-.667,2.093-.257.634-.532,1.2-.764,1.731a23.713,23.713,0,0,1-1.391,2.3l-.551.8.738-.631a15.889,15.889,0,0,0,1.974-1.966c.356-.484.772-1.013,1.191-1.621a16.875,16.875,0,0,0,1.14-2.1,17.024,17.024,0,0,0,1.575-5.591,18.866,18.866,0,0,0-4.126-14.118,19.409,19.409,0,0,0-6.669-5.32,20.7,20.7,0,0,0-8.688-2.033,20.75,20.75,0,0,0-8.688,2.036,17.344,17.344,0,0,0-3.761,2.4,17.015,17.015,0,0,0-1.49,1.355,18.394,18.394,0,0,0-1.451,1.609,18.738,18.738,0,0,0-3.586,7.087,18.326,18.326,0,0,0-.5,6.983,17.077,17.077,0,0,0,1.572,5.589,16.685,16.685,0,0,0,1.143,2.1c.416.608.832,1.14,1.188,1.623a15.674,15.674,0,0,0,1.971,1.966l.738.631-.552-.8A21.984,21.984,0,0,1-138.89,226.568Z" transform="translate(137.718 44.377)" fill="#1850aa"/>
    <path id="Path_259" data-name="Path 259" d="M-79.9,208.721a12.381,12.381,0,0,0,.461,1.185,12.381,12.381,0,0,0,.461-1.185,29.847,29.847,0,0,0,.885-3.128,44.489,44.489,0,0,0,.976-9.494,44.991,44.991,0,0,0-.981-9.491,30.451,30.451,0,0,0-.882-3.128c-.257-.755-.458-1.188-.458-1.188s-.2.433-.461,1.188a30.547,30.547,0,0,0-.88,3.128,44.988,44.988,0,0,0-.981,9.491,44.308,44.308,0,0,0,.976,9.494A29.839,29.839,0,0,0-79.9,208.721Z" transform="translate(250.942 18.788)" fill="#1850aa"/>
    <path id="Path_260" data-name="Path 260" d="M-78.978,215.119c-.257-.755-.458-1.185-.458-1.185s-.2.43-.461,1.185a30.631,30.631,0,0,0-.88,3.131,44.967,44.967,0,0,0-.981,9.491,44.28,44.28,0,0,0,.976,9.491,29.641,29.641,0,0,0,.885,3.128,12.686,12.686,0,0,0,.461,1.188,12.686,12.686,0,0,0,.461-1.188,29.648,29.648,0,0,0,.885-3.128,44.461,44.461,0,0,0,.976-9.491,44.97,44.97,0,0,0-.981-9.491A30.535,30.535,0,0,0-78.978,215.119Z" transform="translate(250.942 76.636)" fill="#1850aa"/>
    <path id="Path_261" data-name="Path 261" d="M-55.78,226.257a44.74,44.74,0,0,0-6.018-7.4,44.411,44.411,0,0,0-7.4-6.024,29.918,29.918,0,0,0-2.837-1.587c-.718-.351-1.165-.512-1.165-.512a12.669,12.669,0,0,0,.512,1.165,29.925,29.925,0,0,0,1.587,2.837,44.658,44.658,0,0,0,6.021,7.4,44.986,44.986,0,0,0,7.407,6.016,29.766,29.766,0,0,0,2.834,1.589,12.718,12.718,0,0,0,1.165.515,12.523,12.523,0,0,0-.515-1.162A30.035,30.035,0,0,0-55.78,226.257Z" transform="translate(266.584 70.778)" fill="#1850aa"/>
    <path id="Path_262" data-name="Path 262" d="M-93.477,192.358a44.511,44.511,0,0,0,6.021,7.4,44.987,44.987,0,0,0,7.407,6.016,29.774,29.774,0,0,0,2.834,1.589,12.714,12.714,0,0,0,1.165.515s-.164-.447-.515-1.162a30.7,30.7,0,0,0-1.589-2.837,44.87,44.87,0,0,0-6.018-7.407,44.527,44.527,0,0,0-7.4-6.021,29.9,29.9,0,0,0-2.837-1.587c-.718-.351-1.165-.512-1.165-.512a12.665,12.665,0,0,0,.512,1.165A29.9,29.9,0,0,0-93.477,192.358Z" transform="translate(225.68 29.874)" fill="#1850aa"/>
    <path id="Path_263" data-name="Path 263" d="M-46.7,203.155a44.992,44.992,0,0,0-9.491-.981,44.49,44.49,0,0,0-9.494.976,29.84,29.84,0,0,0-3.128.885A12.4,12.4,0,0,0-70,204.5a12.382,12.382,0,0,0,1.185.461,29.845,29.845,0,0,0,3.128.885,44.486,44.486,0,0,0,9.494.976,44.986,44.986,0,0,0,9.491-.981,30.544,30.544,0,0,0,3.128-.88c.755-.26,1.188-.461,1.188-.461s-.433-.2-1.188-.458A30.455,30.455,0,0,0-46.7,203.155Z" transform="translate(272.442 55.136)" fill="#1850aa"/>
    <path id="Path_264" data-name="Path 264" d="M-75.211,204.957c.755-.26,1.185-.461,1.185-.461s-.43-.2-1.185-.458a30.54,30.54,0,0,0-3.131-.882,44.971,44.971,0,0,0-9.491-.981,44.463,44.463,0,0,0-9.491.976,29.638,29.638,0,0,0-3.128.885,12.709,12.709,0,0,0-1.188.461,12.688,12.688,0,0,0,1.188.461,29.643,29.643,0,0,0,3.128.885,44.459,44.459,0,0,0,9.491.976,44.966,44.966,0,0,0,9.491-.981A30.629,30.629,0,0,0-75.211,204.957Z" transform="translate(214.594 55.136)" fill="#1850aa"/>
    <path id="Path_265" data-name="Path 265" d="M-69.2,205.783a44.531,44.531,0,0,0,7.4-6.021,44.873,44.873,0,0,0,6.018-7.407,30.039,30.039,0,0,0,1.589-2.837,12.525,12.525,0,0,0,.515-1.162,12.72,12.72,0,0,0-1.165.515,30.417,30.417,0,0,0-2.834,1.589,44.986,44.986,0,0,0-7.407,6.016,44.654,44.654,0,0,0-6.021,7.4,29.919,29.919,0,0,0-1.587,2.837c-.351.718-.512,1.165-.512,1.165s.447-.161,1.165-.512A29.907,29.907,0,0,0-69.2,205.783Z" transform="translate(266.584 29.874)" fill="#1850aa"/>
    <path id="Path_266" data-name="Path 266" d="M-80.049,212.834a44.869,44.869,0,0,0-7.407,6.018,44.385,44.385,0,0,0-6.021,7.4,29.906,29.906,0,0,0-1.587,2.837c-.351.718-.512,1.165-.512,1.165s.447-.161,1.165-.512a29.915,29.915,0,0,0,2.837-1.587,44.388,44.388,0,0,0,7.4-6.021,44.872,44.872,0,0,0,6.018-7.407,31.087,31.087,0,0,0,1.589-2.834c.351-.718.515-1.165.515-1.165s-.447.164-1.165.515A30.428,30.428,0,0,0-80.049,212.834Z" transform="translate(225.68 70.778)" fill="#1850aa"/>
    <path id="Path_267" data-name="Path 267" d="M-135.717,208.721a12.4,12.4,0,0,0,.461,1.185,12.387,12.387,0,0,0,.461-1.185,29.844,29.844,0,0,0,.885-3.128,44.487,44.487,0,0,0,.976-9.494,44.988,44.988,0,0,0-.981-9.491,29.742,29.742,0,0,0-.882-3.128c-.257-.755-.458-1.188-.458-1.188s-.2.433-.458,1.188a29.746,29.746,0,0,0-.882,3.128,44.99,44.99,0,0,0-.981,9.491,44.492,44.492,0,0,0,.976,9.494A29.831,29.831,0,0,0-135.717,208.721Z" transform="translate(148.893 18.788)" fill="#1850aa"/>
    <path id="Path_268" data-name="Path 268" d="M-134.8,215.119c-.257-.755-.458-1.185-.458-1.185s-.2.43-.458,1.185a29.826,29.826,0,0,0-.882,3.131,44.969,44.969,0,0,0-.981,9.491,44.464,44.464,0,0,0,.976,9.491,29.633,29.633,0,0,0,.885,3.128,12.7,12.7,0,0,0,.461,1.188,12.692,12.692,0,0,0,.461-1.188,29.646,29.646,0,0,0,.885-3.128,44.459,44.459,0,0,0,.976-9.491,44.967,44.967,0,0,0-.981-9.491A29.823,29.823,0,0,0-134.8,215.119Z" transform="translate(148.893 76.636)" fill="#1850aa"/>
    <path id="Path_269" data-name="Path 269" d="M-111.6,226.257a44.859,44.859,0,0,0-6.016-7.4,44.538,44.538,0,0,0-7.4-6.024,29.915,29.915,0,0,0-2.837-1.587c-.718-.351-1.165-.512-1.165-.512a12.667,12.667,0,0,0,.512,1.165,29.911,29.911,0,0,0,1.587,2.837,44.657,44.657,0,0,0,6.021,7.4,44.987,44.987,0,0,0,7.407,6.016,29.412,29.412,0,0,0,2.837,1.589,12.515,12.515,0,0,0,1.162.515,12.519,12.519,0,0,0-.515-1.162A29.407,29.407,0,0,0-111.6,226.257Z" transform="translate(164.535 70.778)" fill="#1850aa"/>
    <path id="Path_270" data-name="Path 270" d="M-133.974,203.883a44.869,44.869,0,0,0-6.018-7.407,44.526,44.526,0,0,0-7.4-6.021,29.91,29.91,0,0,0-2.837-1.587c-.718-.351-1.165-.512-1.165-.512a12.661,12.661,0,0,0,.512,1.165,29.918,29.918,0,0,0,1.587,2.837,44.511,44.511,0,0,0,6.021,7.4,44.988,44.988,0,0,0,7.407,6.016,29.773,29.773,0,0,0,2.834,1.589,12.718,12.718,0,0,0,1.165.515s-.164-.447-.515-1.162A30.052,30.052,0,0,0-133.974,203.883Z" transform="translate(123.631 29.874)" fill="#1850aa"/>
    <path id="Path_271" data-name="Path 271" d="M-102.519,203.155a44.992,44.992,0,0,0-9.491-.981,44.491,44.491,0,0,0-9.494.976,29.84,29.84,0,0,0-3.128.885,12.4,12.4,0,0,0-1.185.461,12.382,12.382,0,0,0,1.185.461,29.845,29.845,0,0,0,3.128.885,44.487,44.487,0,0,0,9.494.976,44.987,44.987,0,0,0,9.491-.981,30.547,30.547,0,0,0,3.128-.88c.755-.26,1.188-.461,1.188-.461s-.433-.2-1.188-.458A30.457,30.457,0,0,0-102.519,203.155Z" transform="translate(170.392 55.136)" fill="#1850aa"/>
    <path id="Path_272" data-name="Path 272" d="M-131.031,204.957c.755-.26,1.185-.461,1.185-.461s-.43-.2-1.185-.458a30.667,30.667,0,0,0-3.128-.882,45.02,45.02,0,0,0-9.494-.981,44.463,44.463,0,0,0-9.491.976,29.634,29.634,0,0,0-3.128.885,12.7,12.7,0,0,0-1.188.461,12.679,12.679,0,0,0,1.188.461,29.639,29.639,0,0,0,3.128.885,44.459,44.459,0,0,0,9.491.976,45.015,45.015,0,0,0,9.494-.981A30.757,30.757,0,0,0-131.031,204.957Z" transform="translate(112.545 55.136)" fill="#1850aa"/>
    <path id="Path_273" data-name="Path 273" d="M-125.02,205.783a44.658,44.658,0,0,0,7.4-6.021,44.992,44.992,0,0,0,6.016-7.407,29.411,29.411,0,0,0,1.589-2.837,12.521,12.521,0,0,0,.515-1.162,12.517,12.517,0,0,0-1.162.515,30.047,30.047,0,0,0-2.837,1.589,44.986,44.986,0,0,0-7.407,6.016,44.653,44.653,0,0,0-6.021,7.4,29.9,29.9,0,0,0-1.587,2.837c-.351.718-.512,1.165-.512,1.165s.447-.161,1.165-.512A29.9,29.9,0,0,0-125.02,205.783Z" transform="translate(164.535 29.874)" fill="#1850aa"/>
    <path id="Path_274" data-name="Path 274" d="M-135.869,212.834a44.87,44.87,0,0,0-7.407,6.018,44.385,44.385,0,0,0-6.021,7.4,29.92,29.92,0,0,0-1.587,2.837c-.351.718-.512,1.165-.512,1.165s.447-.161,1.165-.512a29.92,29.92,0,0,0,2.837-1.587,44.387,44.387,0,0,0,7.4-6.021,44.872,44.872,0,0,0,6.018-7.407,30.42,30.42,0,0,0,1.589-2.834c.351-.718.515-1.165.515-1.165s-.447.164-1.165.515A30.426,30.426,0,0,0-135.869,212.834Z" transform="translate(123.631 70.778)" fill="#1850aa"/>
    <path id="Path_275" data-name="Path 275" d="M282.657,504.284l-61.408-12.354A8.43,8.43,0,0,0,213.867,494l-83.508-16.8.006-.02a3.466,3.466,0,0,0-2.715-4.078l-6.3-1.27a3.465,3.465,0,0,0-4.081,2.715l0,.017-30.8-6.2-.2-5.679h32.343a13.365,13.365,0,0,0,13.349-13.352v-29.9h32.847a6.7,6.7,0,0,0,6.694-6.691V411.9H176a6.97,6.97,0,0,0,6.677,3.872c5.13,0,6.194-8.519,6.194-17.422s-1.063-17.419-6.194-17.419A6.97,6.97,0,0,0,176,384.8h-4.494v-.843a6.7,6.7,0,0,0-6.694-6.694H131.965v-18.4a13.307,13.307,0,0,0-.566-3.832l41.628-12.84,4.839-1.493a84.512,84.512,0,1,0-87.45-111.744,84.654,84.654,0,0,0-79.876-56.94,84.516,84.516,0,0,0-9.291,168.52v4.98H-31.724a13.365,13.365,0,0,0-13.352,13.349v5.419h-1.032a11.313,11.313,0,0,0-9.6,5.263l-1.819-2.214a4.173,4.173,0,0,0-6.38,0l-.885,1.078-2.1-2.568a4.177,4.177,0,0,0-6.383,0l-.882,1.078-2.107-2.568a4.17,4.17,0,0,0-6.38,0l-.885,1.078-2.107-2.568a4.17,4.17,0,0,0-6.38,0l-.882,1.078-2.107-2.571a4.173,4.173,0,0,0-6.38,0l-.885,1.078-2.107-2.568a4.173,4.173,0,0,0-6.38,0l-1.572,1.917a10.8,10.8,0,0,0-10.368-7.834h-7.068a10.758,10.758,0,0,0-7.407,2.95c-19.811-4.48-35.836-9.486-47.774-14.919v-.13a12.433,12.433,0,0,0-12.419-12.419H-206.6a12.434,12.434,0,0,0-12.421,12.419V454.836A12.434,12.434,0,0,0-206.6,467.255h9.226a12.433,12.433,0,0,0,12.419-12.419v-.13a183.916,183.916,0,0,1,21.647-8.035v15.94h-5.4a4.249,4.249,0,0,0-4.248,4.251V467h-6.066a5.937,5.937,0,0,0-5.936,5.936,5.937,5.937,0,0,0,5.936,5.936h6.066v.136a4.249,4.249,0,0,0,4.248,4.251h34.6a4.251,4.251,0,0,0,4.251-4.251v-.136H.061l-1.394,40.777H-2.362a9.419,9.419,0,0,0-9.421,9.421v.772a9.4,9.4,0,0,0,4.016,7.71l-91.144,410.1-3.151-.673c-1.485-.32-3.029,2.234-2.842,4.689l2.384,31.005c.84,10.905,12.139,13.323,17.362,3.71L-70.3,959.059c1.177-2.164.809-5.125-.676-5.441l-2.789-.6L16.971,659.289l26.1,306.5-2.718.1c-1.949.068-3.105,2.93-2.127,5.258l12.362,29.4a12.2,12.2,0,0,0,22.792-.8l10.269-30.2c.815-2.393-.54-5.167-2.489-5.1l-4.126.147L70.885,546.475l114.59,406.738-2.489.7c-.962.274-.812,3.162.274,5.308l13.714,27.108c4.828,9.537,12.147,7.461,11.251-3.187l-2.548-30.273c-.2-2.4-1.589-4.935-2.551-4.664l-2.907.823L90.973,539.1a9.421,9.421,0,0,0,7.7-9.257v-.772a9.422,9.422,0,0,0-9.424-9.421H88.222l-1.338-39.088,28.041,5.639-.006.02a3.468,3.468,0,0,0,2.715,4.081l6.3,1.267a3.466,3.466,0,0,0,4.081-2.712l0-.02,83.508,16.8a8.435,8.435,0,0,0,6.007,4.763l61.408,12.356a8.457,8.457,0,0,0,9.958-6.621l.382-1.892A8.46,8.46,0,0,0,282.657,504.284Zm-466.288-31.35c0-2.791,2.1-4.667,6.759-4.667C-181.154,470.782-183.632,475.663-183.632,472.934Zm86.183,505.442a39.941,39.941,0,0,1-.5,4.929,40.144,40.144,0,0,1-1.27-4.788c-.314-1.442-.614-3.131-.865-4.943s-.481-3.75-.633-5.7-.235-3.892-.263-5.724,0-3.544.082-5.017a40.86,40.86,0,0,1,.5-4.93A40.7,40.7,0,0,1-99.137,957c.314,1.442.611,3.131.865,4.944s.486,3.75.636,5.693.243,3.894.266,5.724S-97.364,976.9-97.449,978.376ZM54,996.473c-.809-1.3-1.688-2.848-2.568-4.536s-1.782-3.5-2.616-5.348-1.6-3.725-2.274-5.5-1.261-3.462-1.7-4.927a43.321,43.321,0,0,1-1.276-4.983,44.022,44.022,0,0,1,2.888,4.254c.809,1.3,1.688,2.851,2.568,4.539s1.787,3.5,2.619,5.348,1.606,3.719,2.28,5.5,1.259,3.459,1.7,4.927a43.161,43.161,0,0,1,1.27,4.983A43.207,43.207,0,0,1,54,996.473Zm144.724-13.8c-.863-1.293-1.81-2.825-2.76-4.5s-1.929-3.482-2.839-5.32-1.756-3.708-2.5-5.484-1.406-3.456-1.909-4.924a45.14,45.14,0,0,1-1.482-4.989,44.771,44.771,0,0,1,3.069,4.205c.863,1.29,1.807,2.825,2.757,4.5s1.934,3.479,2.845,5.317,1.762,3.708,2.509,5.484,1.4,3.456,1.906,4.924a44.619,44.619,0,0,1,1.479,4.992A44.584,44.584,0,0,1,198.727,982.669ZM58.421,475.137a22.328,22.328,0,0,0-6.049-4.214,21.529,21.529,0,0,0-7.789-1.94,21.108,21.108,0,0,0-8.482,1.309A20.619,20.619,0,0,0,24.008,482.38a15.327,15.327,0,0,0-.648,2.076,16.571,16.571,0,0,0-.441,2.036,17.627,17.627,0,0,0-.229,2.254,19.364,19.364,0,0,0,.006,2.065,21.444,21.444,0,0,0,1.943,7.845,22.284,22.284,0,0,0,4.214,6.049,21.67,21.67,0,0,0,5.065,3.855,25.97,25.97,0,0,0,2.429,1.182c.781.305,1.522.54,2.186.778a26.944,26.944,0,0,0,3.213.693l1.165.175-1.177.057a20.073,20.073,0,0,1-3.371-.091c-.718-.127-1.524-.243-2.393-.43a20.5,20.5,0,0,1-2.746-.877,20.859,20.859,0,0,1-6.03-3.515,22.359,22.359,0,0,1-5.4-6.4,22.653,22.653,0,0,1-2.871-9.022,21.836,21.836,0,0,1-.119-2.562,19.628,19.628,0,0,1,.133-2.427,21,21,0,0,1,1.16-5.153,24.705,24.705,0,0,1,5.6-8.994,24.636,24.636,0,0,1,8.994-5.6,23.345,23.345,0,0,1,10.088-1.182,22.564,22.564,0,0,1,9.078,2.876,22.251,22.251,0,0,1,6.4,5.408,22.6,22.6,0,0,1,4.392,8.776c.184.871.3,1.677.43,2.393a20.6,20.6,0,0,1,.088,3.371l-.059,1.179s-.062-.407-.175-1.168a27.075,27.075,0,0,0-.7-3.21c-.238-.665-.472-1.406-.778-2.186a25.977,25.977,0,0,0-1.182-2.429A21.741,21.741,0,0,0,58.421,475.137Zm.911,15.139A15.742,15.742,0,1,1,43.59,474.535,15.742,15.742,0,0,1,59.332,490.276ZM-206.6,337.184h9.226a4.68,4.68,0,0,1,4.678,4.678v5c15.855,8.041,37.886,14.251,59.873,18.932V364.75a3.05,3.05,0,0,1,3.049-3.049h7.068a3.048,3.048,0,0,1,3.046,3.049v3.674c36.325,6.824,69.036,9.537,69.036,9.537s.387-5.936,4.517-5.936h1.032v52.65h-1.032a3.541,3.541,0,0,1-2.5-.979l-2.147-42.185-1.533,30.058c-1.264.365-2.534.713-3.8,1.035l-2.019-33.732-2.079,34.71c-1.519.337-3.032.636-4.542.916l-2.132-36.633-2.172,37.375c-1.471.226-2.924.424-4.372.608l-2.206-38.987-2.234,39.493c-1.442.144-2.859.263-4.262.365l-2.254-40.864L-86.634,417c-1.434.071-2.828.122-4.2.158l-2.282-42.312L-95.4,417.233c-1.44.006-2.84,0-4.18-.026l-2.285-43.365-2.279,43.232q-2.248-.089-4.2-.215l-2.277-44.024-2.257,43.684c-1.841-.161-3.281-.32-4.251-.436l-2.243-44.253-2.26,44.572a13.917,13.917,0,0,1-9.22-.139l-2.118-44.434-2.11,44.233c-19.99,13.244-43.947,10.105-53.47,8.1l-4.206-74.987-4.415,78.683a15.425,15.425,0,0,1-14.11-.444V341.862A4.678,4.678,0,0,1-206.6,337.184Zm174.875,16.075H118.616a5.614,5.614,0,0,1,5.608,5.605v18.4h-4.765V361.444a3.171,3.171,0,0,0-3.17-3.17H-29.4a3.171,3.171,0,0,0-3.17,3.17v78.163c-1.983-.181-3.589-.345-4.766-.472v-80.27A5.612,5.612,0,0,1-31.724,353.259ZM7.07,327.517c-.611-.076-1.3-.164-2.05-.26a16.786,16.786,0,0,1-2.444-.413c-1.734-.413-3.711-.86-5.905-1.338-2.158-.73-4.565-1.445-7.107-2.39q-1.862-.815-3.88-1.7c-.667-.294-1.358-.569-2.039-.891q-.993-.547-2.016-1.117a69.529,69.529,0,0,1-16.633-12.3A71.7,71.7,0,0,1-48.976,287.5a68.573,68.573,0,0,1-6.536-25.657q-.047-1.727-.093-3.465l-.051-1.737.107-1.612q.123-1.875.249-3.764c.045-.622.074-1.273.133-1.878l.3-1.671a53.27,53.27,0,0,1,1.394-6.765c.305-1.148.617-2.3.925-3.45.288-1.16.815-2.246,1.208-3.377a68.692,68.692,0,0,1,15.515-24.246,68.725,68.725,0,0,1,24.252-15.51c1.128-.393,2.217-.916,3.374-1.208q1.731-.462,3.45-.922A53.462,53.462,0,0,1,2.2,190.828l1.742-.3c.583-.059,1.171-.079,1.753-.124q1.756-.115,3.5-.235l.871-.059.436-.031.218-.017c-.076-.006.325,0-.144-.014l.116.006,1.869.054q1.862.055,3.713.107a68.637,68.637,0,0,1,25.516,6.525,71.816,71.816,0,0,1,19.6,13.968,69.639,69.639,0,0,1,12.3,16.627q.568,1.022,1.117,2.016c.322.682.6,1.372.891,2.039q.882,2.011,1.7,3.88c.942,2.543,1.66,4.946,2.393,7.1.5,2.223.95,4.206,1.341,5.934a16.839,16.839,0,0,1,.413,2.427c.1.749.181,1.431.26,2.039l.506,3.761.127-3.793c.014-.625.034-1.318.054-2.084a17.468,17.468,0,0,0-.04-2.5c-.127-1.8-.3-3.88-.515-6.219-.45-2.288-.865-4.865-1.5-7.636q-.615-2.045-1.278-4.254c-.232-.733-.444-1.493-.707-2.246q-.462-1.1-.939-2.246a67.375,67.375,0,0,0-11.437-19.1q-1-1.188-2.011-2.4c-.679-.809-1.485-1.507-2.234-2.277-.735-.7-1.454-1.439-2.195-2.166a75.063,75.063,0,0,1,26.124,56.92,75.316,75.316,0,0,1-75.23,75.23,75.257,75.257,0,0,1-64.983-37.394,72.407,72.407,0,0,0,15.207,17.407,67.413,67.413,0,0,0,19.093,11.437c.761.32,1.51.631,2.246.939.752.263,1.51.475,2.246.707q2.206.666,4.251,1.278c2.772.636,5.348,1.052,7.636,1.5,2.356.218,4.443.39,6.247.52a16.859,16.859,0,0,0,2.489.037c.758-.02,1.451-.037,2.067-.051l3.8-.124Zm82.311-.656a115.537,115.537,0,0,0,25,10.888L63.7,342.218l37.411,3.3h-61.6A202.266,202.266,0,0,0,89.381,326.861Zm80.909,4.9a75.16,75.16,0,0,1-60.984-31.26,73.2,73.2,0,0,0,10.917,11.273,67.413,67.413,0,0,0,19.093,11.437c.758.32,1.507.631,2.243.939.755.263,1.513.475,2.246.707q2.206.666,4.254,1.278c2.769.636,5.345,1.052,7.633,1.5q3.538.327,6.247.52a16.867,16.867,0,0,0,2.489.037q1.141-.03,2.07-.051l3.793-.124-3.761-.506q-.921-.115-2.053-.26a16.752,16.752,0,0,1-2.441-.413c-1.734-.413-3.711-.86-5.905-1.338-2.161-.73-4.565-1.445-7.107-2.39q-1.867-.815-3.88-1.7c-.67-.294-1.358-.569-2.039-.891q-.993-.547-2.019-1.117a69.574,69.574,0,0,1-16.63-12.3A71.7,71.7,0,0,1,110.479,287.5a68.515,68.515,0,0,1-6.533-25.657q-.047-1.727-.093-3.465l-.054-1.737.107-1.612.249-3.764c.048-.622.074-1.273.136-1.878l.3-1.671a53.278,53.278,0,0,1,1.394-6.765q.462-1.722.928-3.45c.288-1.16.812-2.246,1.2-3.377a67.085,67.085,0,0,1,39.77-39.756c1.128-.393,2.214-.916,3.374-1.208q1.727-.462,3.45-.922a53.365,53.365,0,0,1,6.949-1.414l1.739-.3c.585-.059,1.171-.079,1.756-.124q1.756-.115,3.5-.235l.874-.059.436-.031.218-.017c-.076-.006.325,0-.144-.014l.116.006,1.867.054q1.867.055,3.716.107a68.651,68.651,0,0,1,25.516,6.525,71.758,71.758,0,0,1,19.6,13.968,69.732,69.732,0,0,1,12.3,16.627c.379.682.749,1.355,1.117,2.016.322.682.6,1.372.891,2.039q.878,2.011,1.7,3.88c.945,2.543,1.663,4.946,2.393,7.1.5,2.223.95,4.206,1.341,5.934a16.453,16.453,0,0,1,.413,2.427l.263,2.039c.331,2.452.506,3.761.506,3.761s.042-1.321.124-3.793c.017-.625.034-1.318.054-2.084a17.469,17.469,0,0,0-.04-2.5c-.127-1.8-.3-3.88-.512-6.219-.45-2.288-.865-4.865-1.5-7.636q-.615-2.045-1.278-4.254c-.232-.733-.444-1.493-.707-2.246q-.462-1.1-.936-2.246a67.321,67.321,0,0,0-11.44-19.1q-.993-1.188-2.011-2.4c-.676-.809-1.485-1.507-2.234-2.277a54.049,54.049,0,0,0-4.822-4.48c-.6-.518-1.236-1.01-1.869-1.5A75.194,75.194,0,0,1,170.29,331.765ZM-26.226,370.141l137.577-3.1L3.6,364.614H113.115v12.648H-7.21a6.7,6.7,0,0,0-6.691,6.694v28.788a6.689,6.689,0,0,0,6.53,6.675l-.223,0s18.46,5.43,67.152,7.63L-3.72,429.513l82.464,3.207q-.725.2-1.454.387l-97.915,3.81,62.644,2.435a394.553,394.553,0,0,1-68.247.775ZM-24,456.423c4.918-.091,11.946-.218,20.38-.373,8.434-.1,18.273-.223,28.816-.351l33.03-.223c11.245-.008,22.49-.057,33.033.02,5.272.037,10.365.073,15.2.11l7.039.076c1.128,0,2.294.059,3.241-.031a8.463,8.463,0,0,0,6.683-4.55,7.916,7.916,0,0,0,.747-2.4,12.142,12.142,0,0,0,.082-1.284l.014-1.3c.04-3.428.071-6.414.1-8.875a46.889,46.889,0,0,1,.291-5.71c.173-1.318.339-2.019.339-2.019s.164.7.339,2.019a46.994,46.994,0,0,1,.288,5.71c.028,2.46.062,5.447.1,8.875l.014,1.3a13.339,13.339,0,0,1-.057,1.4,9.3,9.3,0,0,1-.837,2.964A9.91,9.91,0,0,1,120.3,456.4a10.026,10.026,0,0,1-3.351,1.021c-1.233.139-2.308.091-3.45.116q-3.411.038-7.039.079c-4.833.034-9.927.071-15.2.11-10.543.073-21.788.028-33.033.02l-33.03-.224c-10.543-.13-20.383-.249-28.816-.354-8.434-.153-15.462-.283-20.38-.373l-7.732-.187Zm188.168-52.748q-8.09,1.027-16.237,1.844a11.609,11.609,0,0,0,.32-1.143c2.087-.407,3.957-.806,5.566-1.131,4.415-.913,6.921-1.507,6.921-1.507s-2.585.057-7.079.286l-5.111.286c.025-.382,0-.659.02-1.018a11.418,11.418,0,0,0-.1-1.558,13.291,13.291,0,0,0-1.858-5.34,12.582,12.582,0,0,0-3.326-3.662,12.133,12.133,0,0,0-6.618-2.438,10.154,10.154,0,0,0-1.923.1l-.659.1.648.167a14.956,14.956,0,0,1,1.751.534,14.456,14.456,0,0,1,2.441,1.261,12.246,12.246,0,0,1,4.621,5.526,11.287,11.287,0,0,1,.829,4.073,9.5,9.5,0,0,1-.034,1.024,8.508,8.508,0,0,1-.141,1.211,11.614,11.614,0,0,1-.588,2.025,10.858,10.858,0,0,1-10.408,6.847,11.279,11.279,0,0,1-4.013-.826,12.208,12.208,0,0,1-5.523-4.616,14.516,14.516,0,0,1-1.267-2.441,16.727,16.727,0,0,1-.537-1.751l-.164-.648-.1.662a10.534,10.534,0,0,0-.1,1.923l.006.065q-2.1.093-4.276.173l-2.938-17.863-2.97,18.066c-.809.028-1.615.054-2.429.085l-7.3.26c-2.466.034-4.963.1-7.478.2-5.029.2-10.142.271-15.255.359-5.108.2-10.224.215-15.258.32-5.037.076-9.992.156-14.789.232-1.281-.006-2.548.006-3.8.02L41.794,385.84l-3.233,19.647c-1.21.017-2.41.034-3.592.037l-3.018.037a13.035,13.035,0,0,0,.631-3.006,11.518,11.518,0,0,0,.057-1.4,11.341,11.341,0,0,0-.1-1.558,13.262,13.262,0,0,0-1.858-5.342,12.543,12.543,0,0,0-3.326-3.662,11.484,11.484,0,0,0-3.614-1.875,11.613,11.613,0,0,0-3-.56,10.406,10.406,0,0,0-1.92.1l-.662.1.648.164a15.076,15.076,0,0,1,1.751.537A14.571,14.571,0,0,1,23,390.32a12.217,12.217,0,0,1,4.618,5.526,11.286,11.286,0,0,1,.829,4.073c-.017.334.017.775-.031,1.021a8.888,8.888,0,0,1-.144,1.213,11.438,11.438,0,0,1-.588,2.025,10.858,10.858,0,0,1-10.408,6.847,11.28,11.28,0,0,1-4.013-.826,12.207,12.207,0,0,1-5.523-4.616,14.381,14.381,0,0,1-1.264-2.441,16.262,16.262,0,0,1-.537-1.751l-.167-.648-.1.662a10.784,10.784,0,0,0-.1,1.92A12.734,12.734,0,0,0,6,405.917l-2.045.028-7.076.147,1.827.3c1.191.187,2.941.492,5.176.781.826.113,1.739.235,2.7.359a11.1,11.1,0,0,0,.523,1.035c-6.2-.28-10.869-.549-13.666-.724V384.6h170.74Zm-301.354,36.113a10.745,10.745,0,0,0,7.407,2.95h7.068A10.8,10.8,0,0,0-112.373,435l1.606,1.957a4.17,4.17,0,0,0,6.38,0l2.107-2.568.885,1.077a4.17,4.17,0,0,0,6.38,0l2.107-2.568.882,1.078a4.173,4.173,0,0,0,6.38,0l2.107-2.568.885,1.078a4.173,4.173,0,0,0,6.38,0l2.107-2.568.882,1.078a4.176,4.176,0,0,0,6.383,0l2.1-2.568.885,1.078a4.173,4.173,0,0,0,6.38,0l1.869-2.28a11.3,11.3,0,0,0,9.551,5.193h1.032v16.067H-139.5v-8.159C-138.729,440.144-137.962,439.966-137.182,439.788Zm90.816,11.273-3.985.153c-2.537.062-6.16.215-10.507.283s-9.418.212-14.851.238-11.231.068-17.026.1c-5.795-.037-11.593-.071-17.026-.1s-10.507-.173-14.854-.235-7.97-.221-10.5-.286c-2.537-.093-3.985-.15-3.985-.15l3.985-.15c2.534-.062,6.157-.212,10.5-.283s9.421-.207,14.854-.238,11.231-.068,17.026-.1c5.795.034,11.593.068,17.026.1s10.5.173,14.851.235,7.97.223,10.507.286Zm25.374,20.855c-5.868.252-12.715.458-20.052.594-3.668.048-7.458.164-11.31.164-3.849.023-7.763.042-11.675.065l-11.678-.068c-3.852-.006-7.642-.116-11.31-.167-7.336-.136-14.183-.342-20.052-.594-11.737-.458-19.563-1.106-19.563-1.106s7.826-.648,19.563-1.106c5.869-.249,12.715-.455,20.052-.594,3.668-.051,7.458-.158,11.31-.167l11.678-.068c3.911.023,7.826.045,11.675.065,3.852,0,7.642.116,11.31.167,7.336.133,14.183.342,20.052.591,11.737.461,19.563,1.111,19.563,1.111S-9.255,471.455-20.992,471.916ZM-129.854,467v-.136a4.251,4.251,0,0,0-4.251-4.251h-5.4v-6h96.6a13.339,13.339,0,0,0,11.177,6.075H.616L.469,467ZM60.265,533.734c5.368.107,10.377.274,14.673.475,8.589.368,14.313.888,14.313.888s-5.724.523-14.313.891c-4.3.2-9.3.365-14.673.475-2.684.037-5.458.13-8.275.13l-8.544.054c-2.865-.02-5.727-.037-8.544-.054s-5.594-.093-8.278-.136c-5.368-.11-10.377-.274-14.673-.475-8.586-.365-14.313-.885-14.313-.885s5.727-.518,14.313-.885c4.3-.2,9.3-.365,14.673-.472,2.684-.042,5.458-.127,8.278-.136s5.679-.034,8.544-.054l8.544.054C54.807,533.6,57.581,533.695,60.265,533.734Zm-7.676,10.255,7.879,391.4L32.147,610.166Zm-25.615,6.785-1-11.513h4.324ZM-90.016,926.329c2.4-10.954,5.716-26.627,9.91-45.384s8.977-40.669,14.33-64.09,11.053-48.41,16.757-73.394l17.156-73.3c5.461-23.4,10.8-45.177,15.25-63.877s8.371-34.232,11.019-45.127c2.712-10.883,4.262-17.1,4.262-17.1s-1.335,6.267-3.674,17.235c-2.4,10.951-5.713,26.627-9.907,45.384s-8.971,40.669-14.333,64.089-11.053,48.407-16.76,73.391c-5.84,24.953-11.68,49.909-17.156,73.3s-10.8,45.18-15.252,63.878c-4.469,18.694-8.371,34.232-11.019,45.129-2.709,10.88-4.259,17.1-4.259,17.1S-92.355,937.3-90.016,926.329ZM-71.4,891.87,9.361,569.893l2.757,32.391ZM35.934,825.914c-2.265-24.376-4.681-50.376-7.1-76.375-2.277-26.014-4.556-52.027-6.689-76.415s-3.911-47.166-5.543-66.683-2.786-35.8-3.688-47.188c-.837-11.395-1.315-17.905-1.315-17.905s.7,6.491,1.912,17.851c1.151,11.367,2.919,27.595,4.819,47.087s4.225,42.222,6.485,66.6,4.681,50.375,7.1,76.375c2.277,26.014,4.556,52.027,6.692,76.412s3.909,47.169,5.543,66.686,2.783,35.8,3.688,47.186c.834,11.4,1.312,17.908,1.312,17.908s-.7-6.491-1.915-17.851c-1.151-11.367-2.924-27.595-4.822-47.087S38.185,850.29,35.934,825.914ZM114.4,675.254c6.417,22.838,13.261,47.2,20.106,71.562,6.711,24.4,13.42,48.8,19.712,71.672s11.949,44.281,16.91,62.6,8.889,33.644,11.734,44.343c2.78,10.719,4.37,16.842,4.37,16.842s-1.8-6.067-4.949-16.681c-3.086-10.634-7.616-25.787-12.831-44.038s-11.42-39.5-17.823-62.347-13.259-47.2-20.1-71.562c-6.708-24.4-13.42-48.8-19.71-71.672s-11.949-44.284-16.91-62.6-8.892-33.641-11.737-44.343L78.8,552.185s1.8,6.066,4.949,16.683c3.086,10.631,7.611,25.787,12.831,44.035C101.786,631.157,107.991,652.413,114.4,675.254ZM88.736,522.71-8.3,529.356v-.5c0-3.391,2.161-6.143,6.872-6.143ZM70.987,519.7c-3.739.15-8.1.274-12.772.356s-9.655.113-14.641.136c-4.983-.023-9.967-.042-14.642-.139s-9.033-.206-12.769-.356c-3.739-.133-6.856-.339-9.036-.441-2.181-.122-3.425-.224-3.425-.224s1.244-.1,3.425-.226c2.181-.1,5.3-.308,9.036-.438,3.736-.15,8.1-.272,12.769-.356s9.658-.116,14.642-.139c4.986.023,9.969.037,14.641.136,4.672.082,9.033.206,12.772.356,3.739.13,6.853.342,9.033.441,2.181.124,3.428.226,3.428.226s-1.247.1-3.428.226C77.839,519.359,74.726,519.571,70.987,519.7Zm8.352-40.262a6.9,6.9,0,0,1-3.431.484,6.76,6.76,0,0,1-1.168-.22,6.391,6.391,0,0,1-1.14-.413,7.627,7.627,0,0,1-2.279-1.553,8.236,8.236,0,0,1-2.4-5.447,8.554,8.554,0,0,1,.475-3.055,8.122,8.122,0,0,1,1.507-2.559,7.665,7.665,0,0,1,4.4-2.528,6.807,6.807,0,0,1,1.991-.079,5.783,5.783,0,0,1,1.468.308,7.481,7.481,0,0,1,1.168.523l-.328-.028a7.148,7.148,0,0,0-.913-.037,8.19,8.19,0,0,0-3.02.6,7.408,7.408,0,0,0-3.17,2.52,7.506,7.506,0,0,0-.981,2,6.452,6.452,0,0,0-.28,2.251,6.941,6.941,0,0,0,1.572,4.149,7.762,7.762,0,0,0,1.575,1.406,6.373,6.373,0,0,0,.919.512,5.621,5.621,0,0,0,.863.356,8.056,8.056,0,0,0,3.057.37,7.9,7.9,0,0,0,1.233-.167A5.269,5.269,0,0,1,79.338,479.439Zm27.81-2.429c-1.739-.139-3.759-.368-5.908-.682s-4.435-.684-6.706-1.134-4.525-.964-6.632-1.5-4.061-1.08-5.724-1.612a56.7,56.7,0,0,1-5.506-1.988,56.749,56.749,0,0,1,5.849.252c1.739.139,3.759.371,5.908.682s4.435.682,6.706,1.129,4.528.962,6.632,1.5,4.064,1.08,5.727,1.612a56.817,56.817,0,0,1,5.5,1.991A55.552,55.552,0,0,1,107.148,477.009ZM121.707,475a8.3,8.3,0,0,1,.506,2.053,13.851,13.851,0,0,1-1.592,8.3,8.206,8.206,0,0,1-1.236,1.719,8.143,8.143,0,0,1-.512-2.053,13.884,13.884,0,0,1,1.6-8.3A8.261,8.261,0,0,1,121.707,475Zm75.408,21.166c-3.7-.489-8.012-1.145-12.608-1.932-2.294-.41-4.678-.775-7.076-1.256l-7.288-1.4c-2.432-.512-4.864-1.024-7.26-1.53-2.4-.489-4.737-1.072-7.011-1.581-4.542-1.055-8.767-2.115-12.373-3.094-7.22-1.92-11.969-3.538-11.969-3.538s5,.348,12.4,1.369c3.7.489,8.012,1.145,12.608,1.932,2.294.41,4.678.778,7.079,1.253s4.845.928,7.285,1.4l7.26,1.527c2.4.484,4.737,1.072,7.014,1.578,4.542,1.052,8.767,2.116,12.373,3.1,7.22,1.92,11.966,3.541,11.966,3.541S204.517,497.191,197.115,496.17Zm19.1,8.674a13.87,13.87,0,0,1,1.6-8.3,8.263,8.263,0,0,1,1.233-1.72,8.3,8.3,0,0,1,.506,2.053,13.85,13.85,0,0,1-1.592,8.3,8.208,8.208,0,0,1-1.236,1.72A8.19,8.19,0,0,1,216.214,504.844Zm67.6,9.271a13.09,13.09,0,0,1-1.445,4.027,8.209,8.209,0,0,1-1.236,1.72,8.121,8.121,0,0,1-.509-2.056,13.111,13.111,0,0,1,.15-4.276,13.343,13.343,0,0,1,1.451-4.027,8.2,8.2,0,0,1,1.23-1.72,8.2,8.2,0,0,1,.506,2.056A13.265,13.265,0,0,1,283.819,514.115Z" transform="translate(0 0)" fill="#1850aa"/>
    <path id="Path_276" data-name="Path 276" d="M-132.562,250.292a8.74,8.74,0,0,0-3.216,1.98,8.76,8.76,0,0,0-1.98,3.219,7.051,7.051,0,0,0-.4,1.858,6.719,6.719,0,0,0-.028.829,7.521,7.521,0,0,0,.057.919,7.764,7.764,0,0,0,3.054,5.323,6.877,6.877,0,0,0,2.135,1.109,6.834,6.834,0,0,0,1.776.331,5.911,5.911,0,0,0,1.137-.065l.39-.054-.385-.093a9.85,9.85,0,0,1-1.035-.32,7.684,7.684,0,0,1-2.964-2.07,6.845,6.845,0,0,1-1.705-4.35,5.14,5.14,0,0,1,.014-.605,5.268,5.268,0,0,1,.091-.716c.062-.274.15-.6.255-.914l8.736,5.1-5.2-8.906c.057-.023.107-.062.164-.082a6.611,6.611,0,0,1,2.551-.45,6.947,6.947,0,0,1,2.373.495,7.4,7.4,0,0,1,1.94,1.208,7.677,7.677,0,0,1,2.07,2.961,10.581,10.581,0,0,1,.322,1.035l.093.385.057-.39a6.085,6.085,0,0,0,.062-1.137,7.061,7.061,0,0,0-1.437-3.914,7.737,7.737,0,0,0-5.357-3.057A8.018,8.018,0,0,0-132.562,250.292Z" transform="translate(147.785 142.324)" fill="#1850aa"/>
    <path id="Path_277" data-name="Path 277" d="M-91.569,250.292a8.774,8.774,0,0,0-3.218,1.98,8.836,8.836,0,0,0-1.98,3.219,7.046,7.046,0,0,0-.393,1.858,6.722,6.722,0,0,0-.028.829,7,7,0,0,0,.057.919,7.764,7.764,0,0,0,3.054,5.323,6.877,6.877,0,0,0,2.135,1.109,6.834,6.834,0,0,0,1.776.331,5.928,5.928,0,0,0,1.137-.065l.39-.054-.385-.093a9.847,9.847,0,0,1-1.035-.32,7.684,7.684,0,0,1-2.964-2.07,6.845,6.845,0,0,1-1.705-4.35,5.13,5.13,0,0,1,.014-.605,4.85,4.85,0,0,1,.091-.716,9.066,9.066,0,0,1,.252-.9l8.716,5.091-5.2-8.9c.062-.025.116-.068.181-.091a6.611,6.611,0,0,1,2.551-.45,6.93,6.93,0,0,1,2.37.495,7.372,7.372,0,0,1,1.943,1.208A7.707,7.707,0,0,1-81.736,257c.139.436.277.786.322,1.035l.093.385.054-.39a6.039,6.039,0,0,0,.065-1.137,7.1,7.1,0,0,0-1.437-3.914A7.743,7.743,0,0,0-88,249.921,8,8,0,0,0-91.569,250.292Z" transform="translate(222.726 142.324)" fill="#1850aa"/>
    <path id="Path_278" data-name="Path 278" d="M-71.956,207.465c-7.1,0-12.865-9.3-12.865-2.192a12.867,12.867,0,0,0,12.865,12.865A12.867,12.867,0,0,0-59.09,205.273C-59.09,198.166-64.851,207.465-71.956,207.465Z" transform="translate(245.342 55.909)" fill="#1850aa"/>
    <path id="Path_279" data-name="Path 279" d="M-115.575,205.273c0-7.107-5.761,2.192-12.865,2.192s-12.865-9.3-12.865-2.192a12.867,12.867,0,0,0,12.865,12.865A12.867,12.867,0,0,0-115.575,205.273Z" transform="translate(142.077 55.909)" fill="#1850aa"/>
    <circle id="Ellipse_1" data-name="Ellipse 1" cx="10.482" cy="10.482" r="10.482" transform="translate(33.108 479.795)" fill="#1850aa"/>
    <path id="Path_280" data-name="Path 280" d="M-207.877,258.733l.871,16.839s29.325,5.323,49.454-7.645l.871-15.679S-176.23,263.668-207.877,258.733Z" transform="translate(20.373 146.681)" fill="#1850aa"/>
    <path id="Path_281" data-name="Path 281" d="M-205.1,275.058l1.16-20.711a15.423,15.423,0,0,1-11.678,0v20.711A11.826,11.826,0,0,0-205.1,275.058Z" transform="translate(6.214 150.518)" fill="#1850aa"/>
    <path id="Path_282" data-name="Path 282" d="M-180,271.373l.973-20.711s-4.618,2.579-8.7,0l.868,20.711A7.9,7.9,0,0,0-180,271.373Z" transform="translate(57.222 143.781)" fill="#1850aa"/>
    <path id="Path_283" data-name="Path 283" d="M-125.351,253.874l.775,4.169s41.939-.257,63.295-1.906l.775-4.231S-88.316,255.682-125.351,253.874Z" transform="translate(171.246 146.056)" fill="#1850aa"/>
    <path id="Path_284" data-name="Path 284" d="M-147.641,268.094a26.356,26.356,0,0,0,.888,3.872,26.353,26.353,0,0,0,.888-3.872c.2-1.162.368-2.517.475-3.971s.187-3,.184-4.551-.071-3.1-.187-4.55-.274-2.808-.475-3.968a26.6,26.6,0,0,0-.885-3.875,26.6,26.6,0,0,0-.885,3.875c-.2,1.16-.365,2.517-.475,3.968s-.189,3-.187,4.55.065,3.1.184,4.551S-147.842,266.932-147.641,268.094Z" transform="translate(129.291 137.415)" fill="#1850aa"/>
    <path id="Path_285" data-name="Path 285" d="M-201.154,240.472a82.075,82.075,0,0,0,8.227,3.736c1.544.577,3.139,1.2,4.788,1.736,1.657.506,3.326,1.078,5.023,1.547,1.705.436,3.4.928,5.091,1.3,1.686.393,3.354.747,4.975,1.041s3.2.549,4.686.783c1.5.212,2.916.365,4.225.506,2.613.325,4.819.37,6.355.45,1.536.057,2.415.059,2.415.059s-.843-.263-2.325-.67l-6.134-1.59c-1.264-.334-2.633-.682-4.087-1.021-1.442-.387-2.961-.806-4.542-1.179s-3.184-.891-4.842-1.281-3.309-.919-4.98-1.375c-1.677-.424-3.323-.95-4.961-1.414-1.629-.495-3.233-.984-4.782-1.454-1.533-.526-3.049-.947-4.449-1.442l-3.976-1.352c-2.446-.88-4.5-1.615-5.917-2.186s-2.231-.908-2.231-.908.67.571,1.946,1.448A53.747,53.747,0,0,0-201.154,240.472Z" transform="translate(19.061 116.529)" fill="#1850aa"/>
    <path id="Path_286" data-name="Path 286" d="M-204.247,231.58h-7.645a3.389,3.389,0,0,0-3.388,3.388v17.611C-213.7,234.482-204.247,231.58-204.247,231.58Z" transform="translate(6.839 108.896)" fill="#1850aa"/>
  </g>
</svg>
