<svg xmlns="http://www.w3.org/2000/svg" width="160.285" height="153.615" viewBox="0 0 160.285 153.615">
  <g id="Group_6215" data-name="Group 6215" transform="translate(-1352.273 -8192.864)">
    <path id="Path_7747" data-name="Path 7747" d="M207.442,355.518a3.131,3.131,0,0,1-3.338-3.171c.025-1.807,1.348-3.021,3.423-3.058,2.029-.037,4.058-.008,6.091-.008s4.063-.029,6.092.008c2.054.037,3.41,1.284,3.435,3.062a3.164,3.164,0,0,1-3.359,3.168Q213.609,355.605,207.442,355.518Z" transform="translate(1198.268 7946.606)" fill="#2196f3"/>
    <path id="Path_7748" data-name="Path 7748" d="M233.944,349.309a3.086,3.086,0,0,1,3.154,3.137,3.211,3.211,0,0,1-3.117,3.071,3.136,3.136,0,0,1-3.12-3.188A3.019,3.019,0,0,1,233.944,349.309Z" transform="translate(1198.4 7946.606)" fill="#2196f3"/>
    <path id="Path_7749" data-name="Path 7749" d="M255.391,364.737c-.046,1.9-1.448,3.054-3.761,3.054q-17.52.006-35.042,0c-2.381,0-3.808-1.23-3.765-3.2.041-1.9,1.435-3.05,3.756-3.05q8.761-.012,17.526,0t17.521,0C254.01,361.536,255.441,362.766,255.391,364.737Z" transform="translate(1198.311 7946.666)" fill="#2196f3"/>
    <path id="Path_7750" data-name="Path 7750" d="M259.533,334.074a18.374,18.374,0,0,0-8.857-15.145c-.967-.627-2.021-1.116-3.058-1.682,9.284-8.9,8.3-22.031.607-29.524a20.13,20.13,0,0,0-28.316.13c-7.53,7.413-8.572,20.5.8,29.457a19.04,19.04,0,0,0-11.1,11.715c-1.339,3.9-1,7.932-.828,11.927.062,1.536,1.476,2.485,3.275,2.485q22.065.018,44.134,0c2.167,0,3.338-1.2,3.376-3.418C259.612,338.035,259.637,336.048,259.533,334.074Zm-39.294-32.089a13.888,13.888,0,1,1,13.777,14.049A13.853,13.853,0,0,1,220.239,301.984ZM252.114,337.2c-5.994-.042-11.99-.021-17.985-.021-5.941,0-11.886-.025-17.826.025-1.05.008-1.4-.2-1.4-1.339-.017-8.092,5.209-13.48,13.283-13.56q5.944-.057,11.881,0c8.129.079,13.418,5.585,13.288,13.714C253.336,337.019,253.039,337.211,252.114,337.2Z" transform="translate(1198.29 7946.274)" fill="#2196f3"/>
    <path id="Path_7751" data-name="Path 7751" d="M263.993,352.334c.033,1.89-1.385,3.163-3.636,3.2-1.979.033-3.958,0-5.937,0s-3.957.037-5.936-.009c-2.134-.045-3.543-1.351-3.531-3.163.017-1.828,1.41-3.067,3.577-3.079q5.938-.044,11.874,0C262.613,349.3,263.959,350.476,263.993,352.334Z" transform="translate(1198.469 7946.606)" fill="#2196f3"/>
    <path id="Path_7752" data-name="Path 7752" d="M314.243,306.028c-.686-4.526-4.038-8.053-9.028-9.225q-19.147-4.506-38.331-8.86a3.04,3.04,0,0,1-2.121-1.573q-9.984-16.681-20.023-33.332a12.894,12.894,0,0,0-3.836-4.259,11.557,11.557,0,0,0-16.551,3.824q-10.241,16.887-20.362,33.854a2.9,2.9,0,0,1-2.021,1.468q-19.1,4.369-38.18,8.807c-9.271,2.145-12.58,12.279-6.346,19.483q12.444,14.37,24.951,28.687a4.746,4.746,0,0,1,1.427,4.448,43.514,43.514,0,0,0-.452,4.982c-.791,9.092-1.619,18.178-2.364,27.269-.255,3.164-.979,6.343-.331,9.51,1.51,7.4,9.191,11.188,16.425,8.133q17.893-7.536,35.741-15.173a3.514,3.514,0,0,1,3.071-.038c4.752,2.1,9.551,4.1,14.337,6.133,7.372,3.125,14.714,6.314,22.128,9.334a11.555,11.555,0,0,0,15.73-8.342c.541-2.485.063-4.986-.155-7.476q-1.53-17.61-3.079-35.219a3.387,3.387,0,0,1,.883-2.807c7.9-9.028,15.726-18.12,23.629-27.144,2.2-2.514,4.343-5.025,5.15-8.38v-2.505C314.154,307.149,314.582,306.517,314.243,306.028Zm-7.949,6.473c-.2.238-.414.468-.619.7q-12.973,14.949-25.956,29.884a4.616,4.616,0,0,0-1.23,3.7q1.412,15.814,2.754,31.632c.271,3.117.565,6.23.766,9.351.314,4.961-3.4,7.589-7.962,5.665q-18.6-7.864-37.184-15.768a5.693,5.693,0,0,0-4.9,0c-12.271,5.275-24.584,10.45-36.883,15.668a6.34,6.34,0,0,1-4.686.5c-2.6-.886-3.795-2.924-3.56-7.1.841-9.576,1.762-20.064,2.673-30.557.276-3.172.494-6.343.8-9.51a4.391,4.391,0,0,0-1.21-3.543q-13.16-15.1-26.261-30.244a9.088,9.088,0,0,1-2.02-2.936,5.357,5.357,0,0,1,4.1-7.012q20.069-4.674,40.147-9.3a4.945,4.945,0,0,0,3.385-2.464q10.424-17.421,20.923-34.792c2.7-4.477,7.342-4.5,10.028-.042q10.436,17.314,20.839,34.658a5.225,5.225,0,0,0,3.594,2.656c13.1,2.966,26.164,6.03,39.242,9.054C308.448,303.949,309.888,308.308,306.294,312.5Z" transform="translate(1198.022 7946.101)" fill="#2196f3"/>
    <path id="Path_7753" data-name="Path 7753" d="M313.752,307.337c-.483-.462-.363-1.035-.3-1.6l.3.032Z" transform="translate(1198.807 7946.391)" fill="#2196f3"/>
    <path id="Path_7754" data-name="Path 7754" d="M207.442,355.518a3.131,3.131,0,0,1-3.338-3.171c.025-1.807,1.348-3.021,3.423-3.058,2.029-.037,4.058-.008,6.091-.008s4.063-.029,6.092.008c2.054.037,3.41,1.284,3.435,3.062a3.164,3.164,0,0,1-3.359,3.168Q213.609,355.605,207.442,355.518Z" transform="translate(1198.268 7946.606)" fill="#2196f3"/>
    <path id="Path_7755" data-name="Path 7755" d="M233.944,349.309a3.086,3.086,0,0,1,3.154,3.137,3.211,3.211,0,0,1-3.117,3.071,3.136,3.136,0,0,1-3.12-3.188A3.019,3.019,0,0,1,233.944,349.309Z" transform="translate(1198.4 7946.606)" fill="#2196f3"/>
    <path id="Path_7756" data-name="Path 7756" d="M255.391,364.737c-.046,1.9-1.448,3.054-3.761,3.054q-17.52.006-35.042,0c-2.381,0-3.808-1.23-3.765-3.2.041-1.9,1.435-3.05,3.756-3.05q8.761-.012,17.526,0t17.521,0C254.01,361.536,255.441,362.766,255.391,364.737Z" transform="translate(1198.311 7946.666)" fill="#2196f3"/>
    <path id="Path_7757" data-name="Path 7757" d="M259.533,334.074a18.374,18.374,0,0,0-8.857-15.145c-.967-.627-2.021-1.116-3.058-1.682,9.284-8.9,8.3-22.031.607-29.524a20.13,20.13,0,0,0-28.316.13c-7.53,7.413-8.572,20.5.8,29.457a19.04,19.04,0,0,0-11.1,11.715c-1.339,3.9-1,7.932-.828,11.927.062,1.536,1.476,2.485,3.275,2.485q22.065.018,44.134,0c2.167,0,3.338-1.2,3.376-3.418C259.612,338.035,259.637,336.048,259.533,334.074Zm-39.294-32.089a13.888,13.888,0,1,1,13.777,14.049A13.853,13.853,0,0,1,220.239,301.984ZM252.114,337.2c-5.994-.042-11.99-.021-17.985-.021-5.941,0-11.886-.025-17.826.025-1.05.008-1.4-.2-1.4-1.339-.017-8.092,5.209-13.48,13.283-13.56q5.944-.057,11.881,0c8.129.079,13.418,5.585,13.288,13.714C253.336,337.019,253.039,337.211,252.114,337.2Z" transform="translate(1198.29 7946.274)" fill="#2196f3"/>
    <path id="Path_7758" data-name="Path 7758" d="M263.993,352.334c.033,1.89-1.385,3.163-3.636,3.2-1.979.033-3.958,0-5.937,0s-3.957.037-5.936-.009c-2.134-.045-3.543-1.351-3.531-3.163.017-1.828,1.41-3.067,3.577-3.079q5.938-.044,11.874,0C262.613,349.3,263.959,350.476,263.993,352.334Z" transform="translate(1198.469 7946.606)" fill="#2196f3"/>
    <path id="Path_7759" data-name="Path 7759" d="M259.533,334.074a18.374,18.374,0,0,0-8.857-15.145c-.967-.627-2.021-1.116-3.058-1.682,9.284-8.9,8.3-22.031.607-29.524a20.13,20.13,0,0,0-28.316.13c-7.53,7.413-8.572,20.5.8,29.457a19.04,19.04,0,0,0-11.1,11.715c-1.339,3.9-1,7.932-.828,11.927.062,1.536,1.476,2.485,3.275,2.485q22.065.018,44.134,0c2.167,0,3.338-1.2,3.376-3.418C259.612,338.035,259.637,336.048,259.533,334.074Zm-39.294-32.089a13.888,13.888,0,1,1,13.777,14.049A13.853,13.853,0,0,1,220.239,301.984ZM252.114,337.2c-5.994-.042-11.99-.021-17.985-.021-5.941,0-11.886-.025-17.826.025-1.05.008-1.4-.2-1.4-1.339-.017-8.092,5.209-13.48,13.283-13.56q5.944-.057,11.881,0c8.129.079,13.418,5.585,13.288,13.714C253.336,337.019,253.039,337.211,252.114,337.2Z" transform="translate(1198.29 7946.274)" fill="#2196f3"/>
    <path id="Path_7760" data-name="Path 7760" d="M255.391,364.737c-.046,1.9-1.448,3.054-3.761,3.054q-17.52.006-35.042,0c-2.381,0-3.808-1.23-3.765-3.2.041-1.9,1.435-3.05,3.756-3.05q8.761-.012,17.526,0t17.521,0C254.01,361.536,255.441,362.766,255.391,364.737Z" transform="translate(1198.311 7946.666)" fill="#2196f3"/>
    <path id="Path_7761" data-name="Path 7761" d="M223.144,352.35a3.164,3.164,0,0,1-3.359,3.168q-6.176.088-12.343,0a3.131,3.131,0,0,1-3.338-3.171c.025-1.807,1.348-3.021,3.423-3.058,2.029-.037,4.058-.008,6.091-.008s4.063-.029,6.092.008C221.764,349.325,223.119,350.572,223.144,352.35Z" transform="translate(1198.268 7946.606)" fill="#2196f3"/>
    <path id="Path_7762" data-name="Path 7762" d="M263.993,352.334c.033,1.89-1.385,3.163-3.636,3.2-1.979.033-3.958,0-5.937,0s-3.957.037-5.936-.009c-2.134-.045-3.543-1.351-3.531-3.163.017-1.828,1.41-3.067,3.577-3.079q5.938-.044,11.874,0C262.613,349.3,263.959,350.476,263.993,352.334Z" transform="translate(1198.469 7946.606)" fill="#2196f3"/>
    <path id="Path_7763" data-name="Path 7763" d="M237.1,352.446a3.211,3.211,0,0,1-3.117,3.071,3.136,3.136,0,0,1-3.12-3.188,3.019,3.019,0,0,1,3.083-3.021A3.086,3.086,0,0,1,237.1,352.446Z" transform="translate(1198.4 7946.606)" fill="#2196f3"/>
  </g>
</svg>
