<svg xmlns="http://www.w3.org/2000/svg" width="131.098" height="149.916" viewBox="0 0 131.098 149.916">
  <g id="Group_6130" data-name="Group 6130" transform="translate(-423.387 -247.202)">
    <path id="Path_7764" data-name="Path 7764" d="M552.731,326.141c-1.984-3.682-4-4.714-8.177-4.148v-62.2c0-2.391.035-4.781-.012-7.172a5.359,5.359,0,0,0-5.384-5.4c-1.025-.023-2.049-.008-3.075,0-3.584.016-5.794,2.105-5.83,5.654-.012.966-.324,1.1-1.169,1.087-2.536-.051-5.07-.027-7.61-.015-1.733.008-2.692.79-2.7,2.171s.967,2.2,2.68,2.215c2.438.016,4.884.087,7.317-.031,1.264-.063,1.479.344,1.475,1.521q-.058,26.715.012,53.429c0,1.413-.453,1.6-1.7,1.6q-30.517-.054-61.035-.028c-2.289,0-3.294.657-3.318,2.152-.023,1.529,1.053,2.242,3.4,2.242h6q27.589,0,55.178-.024c1.064,0,1.533.152,1.463,1.381-.117,2.14-.089,4.3,0,6.44.036.963-.332,1.311-1.189,1.6a124.851,124.851,0,0,1-32.849,6.522,122.336,122.336,0,0,1-47.881-6.71c-.716-.25-1-.536-.982-1.319.055-2.292.059-4.589,0-6.877-.023-.849.247-1.053,1.061-1.037,2.731.051,5.465.031,8.2.012,1.6-.012,2.575-.845,2.606-2.152.031-1.377-.947-2.219-2.649-2.23-2.535-.012-5.078-.1-7.606.035-1.42.079-1.616-.442-1.616-1.693q.06-26.639,0-53.281c0-1.236.224-1.6,1.549-1.6q30.736.082,61.474.035a7.545,7.545,0,0,0,1.6-.059,2.174,2.174,0,0,0-.172-4.308,11.385,11.385,0,0,0-1.463-.023q-30.812,0-61.619.023c-1.048,0-1.384-.184-1.384-1.323a5.288,5.288,0,0,0-5.474-5.422c-1.072-.016-2.144-.012-3.22,0a5.389,5.389,0,0,0-5.595,5.634c-.02,2,0,4,0,6q0,30.817.015,61.625c0,1.021-.055,1.51-1.353,1.389a5.988,5.988,0,0,0-5.951,3.2c-.528.872-1,1.784-1.468,2.692a6.37,6.37,0,0,0,2.9,9.132c2.9,1.479,5.9,2.762,8.885,4.057,2.136.923,4.425,1.475,6.4,2.789q36.626,24.35,73.274,48.664c2.735,1.816,5.345,3.881,8.623,4.714h11.123c4.108-2.218,4.241-5.649.316-8.24-1.381-.912-2.758-1.835-4.136-2.755-2.069-1.373-4.131-2.758-6.209-4.116a2.161,2.161,0,0,0-2.715.051,2.119,2.119,0,0,0-.693,2.375A2.692,2.692,0,0,0,523.4,385.9c3.306,2.195,6.608,4.389,10.274,6.824-2.356,0-4.288-.075-6.209.019a9.643,9.643,0,0,1-6.021-1.8q-29.8-19.841-59.635-39.618c-1.752-1.161-3.5-2.34-5.25-3.509,3.976.74,7.9,1.483,11.835,2.081a4.792,4.792,0,0,1,2,.791q17.213,11.45,34.437,22.888c3.365,2.238,6.726,4.484,10.11,6.7a2.194,2.194,0,1,0,2.512-3.588c-.231-.176-.485-.321-.731-.481q-15.271-10.147-30.549-20.29-3.422-2.272-6.836-4.55c6.538.235,12.982.188,19.46-.129a29.576,29.576,0,0,1-2.555,1.877c-1.452.99-1.819,2.164-1.048,3.306.759,1.127,2.049,1.268,3.471.333,3.091-2.038,6.165-4.1,9.253-6.139a2.873,2.873,0,0,1,1-.583c4.174-.669,8.318-1.471,12.513-2.437-.192.732-.771.876-1.189,1.157q-6.38,4.268-12.779,8.494c-1.013.677-2.061,1.3-3.024,2.042a2.014,2.014,0,0,0-.544,2.852,2.134,2.134,0,0,0,2.931.756,9.285,9.285,0,0,0,.869-.536q13.146-8.733,26.28-17.478a31.526,31.526,0,0,1,6.561-3.435,107.242,107.242,0,0,0,10.122-4.508,6.41,6.41,0,0,0,3.826-6.209C554.468,329,553.514,327.592,552.731,326.141Zm-12.551-3.017a1.223,1.223,0,0,1-.876,1.413c-1.53.579-3.013,1.279-4.692,2,0-4.848.008-9.5-.012-14.143,0-.595.247-.783.787-.72.048.008.094,0,.145,0,1.495.067,3.412-.611,4.366.25.9.81.227,2.75.255,4.194C540.2,318.456,540.141,320.792,540.18,323.124ZM534.6,287.105c0-.536.228-.653.705-.645,1.361.023,2.727.043,4.088-.008.7-.024.795.309.779.88-.031,1.072-.008,2.144-.008,3.216-.086,1.346.572,3.436-.243,3.869-1.252.673-3.1.224-4.7.267-.415.012-.623-.105-.623-.568C534.62,291.781,534.624,289.441,534.6,287.105Zm.008-26.332c0-2.531.028-5.066-.015-7.6-.016-1.108.383-1.6,1.533-1.581,4.573.079,4.018-.564,4.033,3.9.016,4.288-.023,8.58.024,12.868.012.885-.18,1.205-1.111,1.135a27.2,27.2,0,0,0-3.51,0c-.759.04-.989-.191-.974-.966C534.64,265.943,534.612,263.36,534.612,260.774Zm-.031,19.817c.109-1.945.059-3.9.016-5.849-.02-.7.18-1,.892-.892a4.048,4.048,0,0,0,.583.007c1.311.024,3.056-.457,3.819.2.888.771.113,2.567.313,3.826-.168,1.424.559,3.22-.321,3.987-.755.661-2.516.09-3.815.227C534.812,282.234,534.515,281.792,534.581,280.591Zm0,22.622c.172-1.373-.568-3.169.328-3.936.768-.657,2.512-.093,3.812-.231,1.279-.137,1.541.36,1.479,1.533-.1,1.9-.071,3.8-.008,5.7.028.845-.255,1.155-1.068,1.025a2.335,2.335,0,0,0-.289,0c-1.358-.024-3.138.461-3.956-.22C534.013,306.374,534.737,304.523,534.577,303.213ZM443,293.533c.047,1.017-.329,1.288-1.229,1.147a2.341,2.341,0,0,0-.289,0c-1.307-.031-3.016.427-3.807-.227-.837-.693-.133-2.469-.16-3.764,0-1.354-.532-3.181.14-3.94.787-.888,2.653-.145,4.042-.293.989-.11,1.357.164,1.3,1.236C442.91,289.636,442.914,291.593,443,293.533Zm-.028,32.893c-1.792-.787-3.321-1.5-4.891-2.128a.978.978,0,0,1-.669-1.112c.012-3.5.024-7-.007-10.5,0-.716.128-1.064.947-1.021,1.264.067,2.531.047,3.795,0,.634-.02.841.184.837.821C442.97,317.056,442.977,321.621,442.977,326.426Zm-.817-19.108c-1.315-.04-2.629-.044-3.944,0-.673.019-.809-.247-.8-.857.028-2.191.032-4.386,0-6.577-.011-.641.2-.849.837-.829,1.315.043,2.633.047,3.948,0,.689-.028.807.281.791.864-.031,1.072-.012,2.148-.012,3.22,0,1.12-.031,2.242.016,3.361C443.021,307.153,442.79,307.337,442.159,307.318Zm.571-25.487c-.676.8-2.476.1-3.764.266s-1.659-.286-1.572-1.573c.121-1.893.063-3.8.012-5.7-.02-.759.187-1.021.966-.981,1.268.063,2.54.051,3.808,0,.653-.028.841.191.813.825-.047,1.123-.016,2.245-.016,3.369h-.109C442.867,279.339,443.372,281.072,442.73,281.831ZM437.406,253.4c-.02-1.307.4-1.843,1.764-1.812,4.32.091,3.784-.493,3.807,3.834.012,1.8,0,3.6,0,5.407,0,2.536-.027,5.071.02,7.6.016.8-.164,1.143-1.025,1.061-1.487-.141-3.427.61-4.331-.317-.716-.728-.212-2.672-.212-4.081C437.417,261.192,437.461,257.292,437.406,253.4Zm112.222,78.919a2.791,2.791,0,0,1-1.189.822,134.533,134.533,0,0,1-42.1,12.774,145.782,145.782,0,0,1-19.687,1.165c-18.546-.105-38.374-4.722-57.134-13.9-1.878-.92-2.16-1.866-1.154-3.752,2.058-3.877,2.105-3.9,6.1-1.992a124.648,124.648,0,0,0,36.59,11.041,126.181,126.181,0,0,0,73.231-11.436,9.219,9.219,0,0,1,1.873-.779,2,2,0,0,1,2.41,1.424C549.135,329.169,550.947,330.4,549.628,332.314Z" transform="translate(0 0)" fill="#2196f3"/>
    <path id="Path_7765" data-name="Path 7765" d="M442.483,397.806a1.349,1.349,0,0,0-.266-.309c-3.415-2.072-3.479-5.439-.133-7.665q11.372-7.564,22.749-15.117c1.987-1.32,3.97-2.647,5.962-3.958,1.532-1.007,2.8-.891,3.563.3s.349,2.366-1.2,3.4q-13.444,8.93-26.894,17.851c-.434.287-.86.586-1.49,1.015,2.976,0,5.724.076,8.463-.035a6.726,6.726,0,0,0,3.3-1.467q11.186-7.443,22.386-14.867c.244-.162.478-.337.725-.493,1.444-.915,2.706-.767,3.446.4.712,1.123.373,2.3-.974,3.222-1.527,1.043-3.078,2.055-4.619,3.079-5.557,3.689-11.122,7.365-16.665,11.074-2.257,1.51-4.492,3.039-7.225,3.576Z" transform="translate(-0.091 -0.688)" fill="#2196f3"/>
    <path id="Path_7766" data-name="Path 7766" d="M507.344,284.886a3.333,3.333,0,0,0,1.22-2.548c.028-1.823-1.127-3.063-3.157-3.364-2.7-.4-5.388-.829-8.094-1.158a1.568,1.568,0,0,1-1.4-1.013c-1.151-2.414-2.371-4.789-3.521-7.2a3.351,3.351,0,0,0-6.354-.048c-1.158,2.41-2.383,4.785-3.521,7.2a1.668,1.668,0,0,1-1.517,1.08c-2.606.316-5.2.763-7.806,1.107a3.45,3.45,0,0,0-3.165,2.2,3.371,3.371,0,0,0,1.092,3.812c1.877,1.776,3.681,3.627,5.58,5.38a2.093,2.093,0,0,1,.759,2.163c-.454,2.34-.817,4.7-1.233,7.047-.332,1.893.118,3.157,1.429,3.944a3.447,3.447,0,0,0,4.053-.517c2.1-1.592,4.209-3.157,6.252-4.812.877-.712,1.476-.884,2.453-.055,2.117,1.792,4.37,3.423,6.585,5.1a3.155,3.155,0,0,0,3.818.228,3.206,3.206,0,0,0,1.448-3.549c-.446-2.441-.841-4.89-1.3-7.328a2.1,2.1,0,0,1,.7-2.184C503.6,288.591,505.453,286.721,507.344,284.886Zm-9.793,3.4a3.643,3.643,0,0,0-1.127,3.56c.4,1.945.668,3.921,1.04,6.182-2.047-1.569-3.881-2.977-5.716-4.378-1.909-1.452-3.2-1.444-5.118.028-1.811,1.388-3.623,2.773-5.685,4.354.368-2.253.634-4.241,1.033-6.2a3.686,3.686,0,0,0-1.139-3.561c-1.659-1.705-3.263-3.466-4.925-5.243,1.811-.27,3.783-.681,5.779-.833a4.886,4.886,0,0,0,4.668-3.287c.759-1.909,1.808-3.705,2.844-5.782,1.147,2.312,2.207,4.366,3.189,6.459a3.808,3.808,0,0,0,3.193,2.41c2.359.289,4.7.685,6.972,1.021C500.837,284.835,499.221,286.587,497.551,288.286Z" transform="translate(-0.26 -0.112)" fill="#2196f3"/>
  </g>
</svg>
