<svg xmlns="http://www.w3.org/2000/svg" width="1749.064" height="556.799" viewBox="0 0 1749.064 556.799">
  <g id="Group_6161" data-name="Group 6161" transform="translate(84.266 -2538.16)" opacity="0.29">
    <path id="Path_11336" data-name="Path 11336" d="M377.261,197.889H270.1l-98.677,92.8,8.479,92.8H287.063l98.677-92.8Z" transform="translate(-255.693 2340.271)" fill="#115fb2" opacity="0.2"/>
    <path id="Path_11351" data-name="Path 11351" d="M377.261,197.889H270.1l-98.677,92.8,8.479,92.8H287.063l98.677-92.8Z" transform="translate(601.554 2340.271)" fill="#115fb2" opacity="0.2"/>
    <path id="Path_11339" data-name="Path 11339" d="M377.261,197.889H270.1l-98.677,92.8,8.479,92.8H287.063l98.677-92.8Z" transform="translate(172.93 2340.271)" fill="#115fb2" opacity="0.2"/>
    <path id="Path_11346" data-name="Path 11346" d="M377.261,197.889H270.1l-98.677,92.8,8.479,92.8H287.063l98.677-92.8Z" transform="translate(1030.178 2340.271)" fill="#115fb2" opacity="0.2"/>
    <path id="Path_11337" data-name="Path 11337" d="M377.261,197.889H270.1l-98.677,92.8,8.479,92.8H287.063l98.677-92.8Z" transform="translate(-41.382 2340.271)" fill="#db1b29" opacity="0.2"/>
    <path id="Path_11349" data-name="Path 11349" d="M377.261,197.889H270.1l-98.677,92.8,8.479,92.8H287.063l98.677-92.8Z" transform="translate(815.866 2340.271)" fill="#db1b29" opacity="0.2"/>
    <g id="Group_6165" data-name="Group 6165">
      <path id="Path_11341" data-name="Path 11341" d="M377.261,197.889H270.1l-98.677,92.8,8.479,92.8H287.063l98.677-92.8Z" transform="translate(-23.812 2525.871)" fill="#115fb2" opacity="0.2"/>
      <path id="Path_11348" data-name="Path 11348" d="M377.261,197.889H270.1l-98.677,92.8,8.479,92.8H287.063l98.677-92.8Z" transform="translate(833.436 2525.871)" fill="#115fb2" opacity="0.2"/>
      <path id="Path_11342" data-name="Path 11342" d="M377.261,197.889H270.1l-98.677,92.8,8.479,92.8H287.063l98.677-92.8Z" transform="translate(190.5 2525.871)" fill="#115fb2" opacity="0.2"/>
      <path id="Path_11347" data-name="Path 11347" d="M377.261,197.889H270.1l-98.677,92.8,8.479,92.8H287.063l98.677-92.8Z" transform="translate(1047.748 2525.871)" fill="#115fb2" opacity="0.2"/>
      <path id="Path_11343" data-name="Path 11343" d="M377.261,197.889H270.1l-98.677,92.8,8.479,92.8H287.063l98.677-92.8Z" transform="translate(404.812 2525.871)" fill="#115fb2" opacity="0.2"/>
      <path id="Path_11345" data-name="Path 11345" d="M377.261,197.889H270.1l-98.677,92.8,8.479,92.8H287.063l98.677-92.8Z" transform="translate(1262.059 2525.871)" fill="#115fb2" opacity="0.2"/>
      <path id="Path_11340" data-name="Path 11340" d="M377.261,197.889H270.1l-98.677,92.8,8.479,92.8H287.063l98.677-92.8Z" transform="translate(-238.124 2525.871)" fill="#db1b29" opacity="0.2"/>
      <path id="Path_11350" data-name="Path 11350" d="M377.261,197.889H270.1l-98.677,92.8,8.479,92.8H287.063l98.677-92.8Z" transform="translate(619.124 2525.871)" fill="#db1b29" opacity="0.2"/>
    </g>
    <g id="Group_6166" data-name="Group 6166" transform="translate(17 185.6)">
      <path id="Path_11341-2" data-name="Path 11341" d="M377.261,197.889H270.1l-98.677,92.8,8.479,92.8H287.063l98.677-92.8Z" transform="translate(-23.812 2525.871)" fill="#115fb2" opacity="0.2"/>
      <path id="Path_11348-2" data-name="Path 11348" d="M377.261,197.889H270.1l-98.677,92.8,8.479,92.8H287.063l98.677-92.8Z" transform="translate(833.436 2525.871)" fill="#115fb2" opacity="0.2"/>
      <path id="Path_11342-2" data-name="Path 11342" d="M377.261,197.889H270.1l-98.677,92.8,8.479,92.8H287.063l98.677-92.8Z" transform="translate(190.5 2525.871)" fill="#115fb2" opacity="0.2"/>
      <path id="Path_11347-2" data-name="Path 11347" d="M377.261,197.889H270.1l-98.677,92.8,8.479,92.8H287.063l98.677-92.8Z" transform="translate(1047.748 2525.871)" fill="#115fb2" opacity="0.2"/>
      <path id="Path_11343-2" data-name="Path 11343" d="M377.261,197.889H270.1l-98.677,92.8,8.479,92.8H287.063l98.677-92.8Z" transform="translate(404.812 2525.871)" fill="#115fb2" opacity="0.2"/>
      <path id="Path_11345-2" data-name="Path 11345" d="M377.261,197.889H270.1l-98.677,92.8,8.479,92.8H287.063l98.677-92.8Z" transform="translate(1262.059 2525.871)" fill="#115fb2" opacity="0.2"/>
      <path id="Path_11340-2" data-name="Path 11340" d="M377.261,197.889H270.1l-98.677,92.8,8.479,92.8H287.063l98.677-92.8Z" transform="translate(-238.124 2525.871)" fill="#db1b29" opacity="0.2"/>
      <path id="Path_11350-2" data-name="Path 11350" d="M377.261,197.889H270.1l-98.677,92.8,8.479,92.8H287.063l98.677-92.8Z" transform="translate(619.124 2525.871)" fill="#db1b29" opacity="0.2"/>
    </g>
    <path id="Path_11338" data-name="Path 11338" d="M377.261,197.889H270.1l-98.677,92.8,8.479,92.8H287.063l98.677-92.8Z" transform="translate(387.242 2340.271)" fill="#db1b29" opacity="0.2"/>
    <path id="Path_11344" data-name="Path 11344" d="M377.261,197.889H270.1l-98.677,92.8,8.479,92.8H287.063l98.677-92.8Z" transform="translate(1244.489 2340.271)" fill="#db1b29" opacity="0.2"/>
  </g>
</svg>
