<svg xmlns="http://www.w3.org/2000/svg" width="2223.117" height="642.605" viewBox="0 0 2223.117 642.605">
  <g id="Group_6115" data-name="Group 6115" transform="translate(-409.188 66.439) rotate(-7)" opacity="0.03" style="mix-blend-mode: normal;isolation: isolate">
    <g id="Group_6115-2" data-name="Group 6115" transform="translate(381.838 248.703)">
      <path id="Path_7386" data-name="Path 7386" d="M1392.059,303.477c.142-1.6.285-3.083.668-3.564.062.1.134.241.2.348.072.356.125.7.169,1.06s.1.713.107,1.069c.027.356.045.722.045,1.087-.018.365-.018.73-.053,1.1l-1.666,24.538c.027-.374.036-.748.044-1.114s-.018-.74-.036-1.114c-.018-.356-.045-.722-.1-1.087a9,9,0,0,0-.178-1.078,36.736,36.736,0,0,1-.169-6.985l.962-14.256m-4.589-12.412c1.461,1.613,1.381,5.631,1.319,6.825l-.954,14.22c-.107,1.372-.534,4.455-1.96,3.27a1.63,1.63,0,0,1-.178-.169l-.187-.16a1.687,1.687,0,0,0-.178-.178,1.661,1.661,0,0,1-.178-.169c-.588-.517-1.212-1.034-1.862-1.515-.659-.508-1.354-1.007-2.085-1.479s-1.515-.962-2.308-1.417c-.82-.472-1.675-.927-2.566-1.372-1.889-1.114-3.056-3.68-2.985-6.549l.882-14.131c.276-2.851,1.773-4.3,3.635-3.546.9.437,1.764.891,2.575,1.354s1.595.927,2.326,1.4c.757.472,1.452.953,2.1,1.452.668.5,1.283.989,1.871,1.506l.2.169.169.16c.071.054.125.116.2.169.054.063.116.107.169.16M1357.693,277.6a6.252,6.252,0,0,1,4.357,6.344l-.829,14.113c-.3,2.86-2.183,4.286-4.918,3.707-1.533-.392-3.11-.784-4.749-1.167-1.613-.383-3.306-.757-5.043-1.123s-3.537-.713-5.373-1.06-3.733-.7-5.676-1.034c-3.635-.766-6.014-3.11-6.059-6.005l.7-14.113c.321-2.878,2.985-4.491,6.6-4.045q2.94.508,5.729,1.024c1.844.357,3.653.713,5.391,1.069q2.633.548,5.087,1.123c1.648.383,3.234.766,4.776,1.167m-47.74-8.162a5.59,5.59,0,0,1,4.829,5.694l-.641,14.122a4.594,4.594,0,0,1-5.257,4.366c-1.622-.187-3.243-.392-4.874-.57-1.631-.2-3.288-.374-4.954-.561-1.666-.169-3.323-.348-5.016-.517s-3.377-.348-5.087-.517a3.118,3.118,0,0,1-1.871-.784,3.262,3.262,0,0,1-.41-.579c-.2-.339-.169-.757-.339-1.1-.57-1.034-1.871-1.6-1.889-2.976l.534-14.167a2.218,2.218,0,0,1,.463-1.461c.419-.57,1.167-.668,1.64-1.185.4-.445.419-1.114.873-1.55a2.936,2.936,0,0,1,1.933-.419c1.72.169,3.421.338,5.114.517s3.386.348,5.061.535,3.332.374,4.972.561q2.486.281,4.918.588m-41.467-4.072c2.406.339,3.974,2.459,4,5.408l-.481,14.176c-.214,2.878-1.907,4.722-4.312,4.678l-3.983-.285c-1.345-.107-2.664-.2-4-.285-1.354-.1-2.7-.187-4.063-.276s-2.708-.169-4.081-.258c-2.5-.3-4.143-2.37-4.179-5.284l.366-14.2c.214-2.94,1.969-4.838,4.5-4.82q2.045.12,4.116.267c1.354.1,2.718.178,4.072.276l4.036.294c1.336.1,2.682.2,4.01.312m-38.678-2.415c2.637.276,4.313,2.326,4.384,5.328l-.33,14.22c-.2,2.94-1.969,4.793-4.589,4.82-1.443-.062-2.86-.134-4.312-.187-1.435-.071-2.878-.125-4.33-.187l-4.366-.16c-1.461-.053-2.941-.116-4.419-.169-2.673-.241-4.473-2.281-4.571-5.195l.223-14.265c.2-2.958,2.067-4.909,4.767-4.954,1.488.053,2.958.116,4.437.169s2.941.116,4.41.187,2.914.125,4.366.2,2.886.125,4.33.2m-41.654-1.488a5.06,5.06,0,0,1,4.758,5.248l-.151,14.292a4.856,4.856,0,0,1-4.856,4.954c-1.532-.036-3.083-.071-4.633-.1-1.532-.027-3.074-.053-4.642-.071l-4.66-.08-4.7-.053a5.105,5.105,0,0,1-4.972-5.123l.053-14.372a5.052,5.052,0,0,1,5.043-5.079c1.586.036,3.163.054,4.74.089s3.145.053,4.7.089c1.577.036,3.127.053,4.687.1,1.559.027,3.083.062,4.642.107m-44.452-.615a5.218,5.218,0,0,1,5.141,5.195v14.381a5.086,5.086,0,0,1-5.106,5.07h-4.892c-1.648.009-3.305.009-4.945.018s-3.305.018-4.963.018c-1.657.018-3.314.027-4.99.044a5.2,5.2,0,0,1-5.3-5.061l-.125-14.452a5.219,5.219,0,0,1,5.239-5.212c1.684-.009,3.359-.009,5.025-.009,1.684-.009,3.342-.009,5.008-.009s3.305,0,4.963.009,3.3,0,4.945.009m-47.089.232a5.353,5.353,0,0,1,5.506,5.132l.187,14.5a5.3,5.3,0,0,1-5.311,5.2c-1.728.036-3.448.071-5.176.1l-5.2.107c-1.737.045-3.475.071-5.23.116-1.738.036-3.5.08-5.248.125-3.19-.071-5.417-2.04-5.649-5.007l-.329-14.559c.1-3.029,2.236-5.132,5.453-5.346,1.773-.044,3.546-.071,5.3-.107l5.257-.1c1.755-.018,3.5-.053,5.239-.089,1.737-.018,3.484-.045,5.2-.071m-49.53,1.069c3.305.062,5.613,2.049,5.863,5.079l.383,14.612c-.08,2.985-2.254,5.079-5.533,5.346-1.808.062-3.6.116-5.408.187s-3.626.125-5.444.2-3.653.134-5.471.2l-5.5.214c-3.341-.018-5.684-1.96-5.969-4.954l-.517-14.693c.044-3.065,2.263-5.2,5.622-5.488,1.844-.071,3.706-.125,5.533-.187l5.506-.187c1.827-.062,3.662-.107,5.48-.16s3.644-.116,5.453-.169m-51.767,1.871c3.43,0,5.854,1.987,6.148,5.043l.623,14.746c-.062,3.065-2.227,5.159-5.684,5.48l-5.64.267-5.667.294q-2.847.134-5.685.294c-1.9.1-3.8.187-5.711.294-3.5.036-5.97-1.889-6.308-4.909l-.757-14.844c.027-3.074,2.3-5.292,5.809-5.622l5.765-.267c1.9-.1,3.813-.178,5.72-.267s3.814-.178,5.711-.258,3.8-.16,5.676-.25m-53.79,2.664c3.564-.036,6.086,1.934,6.433,5.007l.838,14.88c0,3.047-2.29,5.257-5.809,5.622-1.933.125-3.9.249-5.854.365s-3.912.249-5.881.365c-1.942.143-3.911.267-5.881.383l-5.916.392c-3.6.08-6.175-1.827-6.558-4.883l-1.007-14.978c-.018-3.127,2.308-5.391,5.916-5.765q2.98-.174,5.952-.365l5.943-.348c1.969-.125,3.956-.223,5.925-.348,1.96-.107,3.929-.223,5.9-.33m-55.643,3.448c3.7-.1,6.335,1.862,6.736,4.963l1.078,15.049c.036,3.083-2.272,5.346-5.916,5.765-2,.152-4,.294-6.015.445s-4.045.3-6.059.463c-2.022.143-4.036.3-6.077.463q-3.02.227-6.059.472c-3.715.134-6.4-1.764-6.834-4.847L855.5,277.754c-.071-3.154,2.281-5.48,5.979-5.907,2.049-.151,4.1-.294,6.139-.446,2.031-.134,4.089-.285,6.112-.437,2.04-.134,4.063-.276,6.085-.419s4.072-.276,6.068-.41M828.7,274.342c3.787-.134,6.549,1.809,7.012,4.945l1.328,15.209c.071,3.119-2.281,5.444-6.023,5.925-2.04.178-4.116.348-6.166.535-2.067.169-4.125.348-6.192.534s-4.134.357-6.21.544c-2.049.187-4.125.383-6.193.552-3.787.2-6.558-1.7-7.066-4.82l-1.506-15.316c-.116-3.208,2.254-5.578,6.05-6.068,2.085-.178,4.179-.347,6.264-.526,2.067-.169,4.17-.338,6.246-.508s4.161-.339,6.228-.508,4.143-.33,6.228-.5m-58.449,4.972c3.858-.187,6.682,1.746,7.217,4.927l1.586,15.387c.142,3.154-2.237,5.533-6.023,6.068-2.094.2-4.188.41-6.291.606l-6.3.633c-2.094.2-4.2.4-6.308.624s-4.206.428-6.318.633c-3.849.232-6.709-1.648-7.253-4.8l-1.773-15.5c-.2-3.234,2.192-5.676,6.05-6.21,2.129-.2,4.232-.4,6.362-.606s4.241-.392,6.362-.6,4.232-.383,6.353-.588c2.1-.187,4.223-.383,6.335-.57m-59.412,5.72c3.912-.241,6.825,1.684,7.4,4.9l1.88,15.575c.205,3.208-2.156,5.64-6,6.228-2.112.223-4.25.454-6.38.695s-4.241.463-6.362.7c-2.129.223-4.25.472-6.388.7-2.12.232-4.25.481-6.38.722-3.911.276-6.843-1.6-7.458-4.776l-2.058-15.708c-.223-3.288,2.147-5.783,6.041-6.371,2.139-.223,4.295-.454,6.442-.677s4.277-.463,6.433-.686,4.286-.445,6.424-.659,4.277-.445,6.406-.65m-59.964,6.442c3.929-.276,6.887,1.648,7.538,4.9l2.165,15.78c.24,3.234-2.094,5.729-5.952,6.362l-6.407.775c-2.147.267-4.277.526-6.415.784s-4.286.534-6.424.793l-6.406.8c-3.92.32-6.879-1.559-7.547-4.776l-2.37-15.9c-.294-3.323,2.04-5.889,5.934-6.513,2.156-.258,4.3-.508,6.469-.766s4.3-.5,6.46-.757q3.247-.361,6.478-.74,3.234-.361,6.477-.739m-60.16,7.181c3.929-.33,6.932,1.595,7.636,4.892l2.468,15.975c.32,3.288-1.978,5.845-5.827,6.522-2.138.276-4.277.57-6.406.855s-4.277.571-6.4.855q-3.207.441-6.4.864c-2.129.294-4.268.6-6.379.891-3.912.365-6.9-1.506-7.627-4.767l-2.673-16.118c-.365-3.377,1.907-5.988,5.773-6.673,2.156-.276,4.3-.561,6.46-.838,2.138-.276,4.295-.544,6.442-.838,2.156-.267,4.313-.543,6.46-.811s4.3-.544,6.469-.811m-59.91,7.885c3.92-.365,6.967,1.541,7.733,4.874l2.789,16.2c.365,3.332-1.862,5.952-5.711,6.682-2.112.312-4.232.606-6.335.918s-4.214.633-6.317.944l-6.317.936c-2.1.312-4.205.642-6.291.962-3.858.4-6.851-1.461-7.645-4.758l-2.967-16.332c-.445-3.421,1.746-6.1,5.578-6.825,2.1-.312,4.223-.606,6.344-.918s4.25-.6,6.371-.9,4.25-.606,6.389-.9l6.38-.882m-59.047,8.571c3.849-.41,6.87,1.506,7.7,4.892l3.092,16.394c.445,3.377-1.693,6.059-5.435,6.834-2.076.33-4.143.659-6.219,1-2.058.339-4.125.668-6.192,1.007-2.05.338-4.117.686-6.166,1.024-2.067.339-4.1.677-6.157,1.016-3.778.454-6.772-1.408-7.618-4.749l-3.306-16.555c-.508-3.457,1.6-6.2,5.337-6.977q3.1-.494,6.219-.98c2.067-.321,4.143-.659,6.228-.98l6.246-.962,6.272-.962m794.27-3.181c.971-8.349,4.82-12.536,11.761-12.8.686.045,1.354.107,2.031.169s1.363.116,2.031.178l2.013.178,2.014.187q5.506.521,10.9,1.087,5.373.562,10.568,1.194,5.212.6,10.246,1.283c3.359.445,6.665.927,9.917,1.4q11.013,1.644,20.03,3.609t16.1,4.25a84.336,84.336,0,0,1,12.3,4.963,40.781,40.781,0,0,1,8.634,5.738,22.941,22.941,0,0,1,3.1,3.368,17.781,17.781,0,0,1,2.049,3.546,16.238,16.238,0,0,1,1.229,7.582c-9.3,138.007-9.3,138.007-12.376,182.155a23.388,23.388,0,0,0-.107-4.339,19.4,19.4,0,0,0-2.878-8.064,21.876,21.876,0,0,0-2.9-3.7,36.043,36.043,0,0,0-8.152-6.228,69.871,69.871,0,0,0-11.655-5.275,134.46,134.46,0,0,0-15.262-4.366q-8.554-1.992-19.005-3.546c-3.1-.454-6.228-.9-9.427-1.319s-6.424-.82-9.73-1.194-6.656-.731-10.042-1.06q-5.106-.508-10.362-.953l-1.907-.151c-.632-.054-1.274-.1-1.915-.161-.642-.044-1.283-.089-1.916-.142s-1.292-.1-1.942-.143c-6.549-1.256-9.926-5.569-10.363-13.186l5.017-154.258m-24.218-15.3c7.3,1.256,11.075,5.97,11.565,14.443l-4.455,154.445c-.927,7.68-4.651,11.485-11.726,11.993-16.7-.615-34.259-.882-52.542-.8-18.381.071-37.529.49-57.336,1.212-19.914.731-40.5,1.782-61.648,3.145-21.295,1.363-43.178,3.021-65.5,4.972-8.875.4-15.387-4.232-16.2-11.556l-7.841-160.754c.071-8.313,6.255-14.283,15.744-15.2,23.585-1.194,46.7-2.147,69.177-2.851,22.31-.7,44.033-1.132,65.025-1.31,20.858-.169,41.048-.071,60.41.3,19.254.365,37.743,1.025,55.322,1.96M940.493,301.49c10.344.241,16.082,4.6,17.6,13.329l8.687,161.252c-.562,8.144-5.382,12.777-15.192,14.594q-34.936,3.568-70.887,7.966c-24.164,2.958-48.622,6.192-73.177,9.65-24.832,3.5-49.8,7.262-74.728,11.253-25.224,4.036-50.439,8.313-75.423,12.794-10.095,1.408-17.722-2.78-19.45-10.665L611.662,349.5c-.4-13.017,9.952-16.751,16.171-17.811,26.677-3.43,53.549-6.647,80.43-9.659,26.534-2.976,53.095-5.738,79.495-8.268q39.133-3.769,77.659-6.861c25.358-2.04,50.431-3.84,75.075-5.408m436.446,225.841a8.082,8.082,0,0,1,.49-2.78,1.019,1.019,0,0,0,.2.107c.018.116.071.25.08.356.062.4.107.811.142,1.23a11.186,11.186,0,0,1,.089,1.238c.018.4.027.829.018,1.247s-.027.838-.053,1.265l-1.461,21.553.054-1.283c0-.427,0-.855-.018-1.265s-.036-.846-.089-1.256c-.036-.41-.071-.828-.134-1.23a39.586,39.586,0,0,1-.161-6.638l.847-12.545m-4.224-12.777c1.363,1.773,1.274,5.373,1.239,6.433l-.838,12.492c-.134,1.488-.526,3.778-1.809,2.468-.054-.062-.107-.133-.169-.2l-.161-.178c-.053-.071-.125-.133-.178-.2a1.641,1.641,0,0,1-.169-.187c-.544-.579-1.114-1.141-1.72-1.693s-1.265-1.1-1.933-1.631c-.695-.535-1.417-1.052-2.165-1.559s-1.551-1.007-2.379-1.506a7.127,7.127,0,0,1-2.816-6.076l.766-12.447c.258-2.513,1.648-3.662,3.386-2.8.847.49,1.648.98,2.406,1.479.766.517,1.5,1.034,2.183,1.559s1.328,1.061,1.942,1.613,1.185,1.114,1.737,1.684c.054.053.107.125.178.187l.169.178c.053.062.107.134.169.2l.161.178m-27.808-14.639a5.874,5.874,0,0,1,4.1,5.783l-.731,12.438c-.285,2.539-2,3.689-4.607,3.056-1.425-.4-2.9-.811-4.437-1.194s-3.1-.766-4.731-1.132-3.315-.722-5.043-1.06-3.5-.686-5.328-1.007c-3.422-.722-5.658-2.833-5.711-5.364L1319.05,499c.3-2.539,2.78-3.938,6.174-3.484,1.844.33,3.627.659,5.364,1.007,1.755.339,3.43.7,5.079,1.06s3.216.74,4.766,1.132,3.021.784,4.473,1.2m-44.781-7.939a5.09,5.09,0,0,1,4.544,5.034l-.571,12.447c-.249,2.521-2.191,4.027-4.927,3.84-1.506-.178-3.047-.348-4.571-.517l-4.651-.481c-1.551-.151-3.128-.3-4.713-.445s-3.181-.294-4.767-.428a3.148,3.148,0,0,1-1.782-.686,5.827,5.827,0,0,1-.383-.508c-.169-.294-.151-.668-.312-.962-.535-.909-1.755-1.363-1.791-2.62l.472-12.465a2.086,2.086,0,0,1,.436-1.292c.4-.526,1.1-.6,1.551-1.051.374-.383.392-1,.811-1.372a2.782,2.782,0,0,1,1.809-.383c1.613.143,3.225.276,4.811.428s3.181.312,4.74.472,3.127.312,4.677.49c1.56.151,3.092.33,4.616.5m-38.937-3.368c2.263.267,3.751,2.121,3.769,4.722l-.41,12.483c-.2,2.539-1.8,4.179-4.063,4.17-1.229-.071-2.477-.151-3.724-.223-1.265-.071-2.521-.125-3.769-.2l-3.813-.187c-1.265-.062-2.539-.107-3.831-.169a4.361,4.361,0,0,1-3.947-4.589l.347-12.5c.178-2.593,1.844-4.295,4.206-4.321,1.283.062,2.584.125,3.867.178,1.274.072,2.539.134,3.813.2l3.8.214c1.256.071,2.521.142,3.76.223m-36.308-1.541a4.406,4.406,0,0,1,4.126,4.606l-.294,12.527a4.292,4.292,0,0,1-4.294,4.33c-1.346-.036-2.682-.071-4.036-.089-1.363-.036-2.718-.053-4.09-.08s-2.718-.036-4.09-.062-2.753-.027-4.143-.045a4.39,4.39,0,0,1-4.3-4.473l.2-12.554a4.522,4.522,0,0,1,4.473-4.473c1.408.018,2.78.045,4.161.071s2.762.036,4.125.071c1.381.018,2.744.045,4.1.08,1.372.027,2.735.054,4.072.089m-39.079-.383a4.461,4.461,0,0,1,4.473,4.508l-.142,12.572a4.551,4.551,0,0,1-4.553,4.473c-1.453.009-2.9.027-4.331.036-1.452.027-2.9.045-4.357.062s-2.923.036-4.393.063-2.94.044-4.42.08a4.49,4.49,0,0,1-4.66-4.375l.053-12.625a4.763,4.763,0,0,1,4.731-4.606c1.479-.027,2.958-.045,4.446-.062,1.47-.018,2.94-.044,4.4-.054s2.922-.036,4.393-.045l4.357-.027m-41.681.731a4.571,4.571,0,0,1,4.82,4.41v12.643a4.838,4.838,0,0,1-4.776,4.624c-1.542.044-3.074.107-4.616.16l-4.615.16c-1.55.071-3.1.125-4.669.2q-2.326.08-4.678.187c-2.842-.009-4.794-1.684-4.963-4.268l-.116-12.706c.116-2.646,2.049-4.517,4.927-4.749,1.568-.071,3.145-.134,4.713-.187s3.118-.125,4.687-.16c1.559-.063,3.11-.107,4.642-.161,1.559-.054,3.092-.1,4.642-.151m-44.113,1.818c2.94-.027,4.954,1.666,5.141,4.295l.169,12.741c-.107,2.6-2.058,4.473-4.99,4.767-1.613.089-3.207.169-4.838.267s-3.243.187-4.874.276c-1.639.116-3.261.2-4.9.312s-3.27.2-4.918.3c-2.994.062-5.07-1.586-5.275-4.188l-.294-12.786c.107-2.664,2.1-4.589,5.115-4.9,1.657-.107,3.305-.2,4.954-.3s3.288-.178,4.927-.276,3.27-.169,4.91-.258,3.252-.178,4.874-.249m-46.359,2.824c3.092-.08,5.239,1.577,5.462,4.241l.348,12.8c-.089,2.638-2.112,4.571-5.194,4.927-1.684.116-3.368.25-5.061.383s-3.386.258-5.1.4c-1.7.125-3.412.258-5.114.4s-3.412.276-5.132.41c-3.136.125-5.319-1.488-5.578-4.1l-.463-12.884c.062-2.691,2.12-4.669,5.275-5.052,1.738-.134,3.466-.267,5.167-.4,1.72-.134,3.449-.259,5.15-.383,1.72-.134,3.422-.25,5.132-.383s3.395-.232,5.105-.365m-48.381,3.849c3.19-.151,5.453,1.479,5.729,4.143l.526,12.92c-.062,2.655-2.129,4.642-5.319,5.078-1.738.16-3.51.321-5.266.49s-3.52.33-5.292.5-3.555.33-5.328.508-3.537.347-5.319.526c-3.279.187-5.569-1.4-5.889-4.027l-.659-12.991c.045-2.709,2.174-4.758,5.453-5.2,1.8-.16,3.582-.338,5.373-.5,1.773-.169,3.564-.321,5.346-.5,1.773-.16,3.564-.321,5.319-.481,1.773-.16,3.555-.321,5.328-.463m-50.234,4.812c3.332-.214,5.685,1.4,6.005,4.089l.731,13.027c-.027,2.673-2.156,4.722-5.435,5.2-1.818.214-3.636.4-5.471.606s-3.653.41-5.48.606c-1.827.214-3.662.41-5.5.624s-3.671.41-5.506.623c-3.35.25-5.756-1.3-6.1-3.956l-.864-13.106c-.009-2.744,2.156-4.838,5.515-5.355,1.862-.2,3.707-.4,5.56-.606s3.689-.4,5.533-.6l5.515-.588c1.835-.187,3.662-.383,5.5-.57m-51.821,5.773c3.422-.267,5.872,1.31,6.237,4.01l.945,13.151c.009,2.709-2.156,4.82-5.542,5.364l-5.613.7-5.622.721c-1.889.232-3.778.463-5.658.713s-3.76.481-5.658.73c-3.448.312-5.934-1.22-6.326-3.9l-1.087-13.222c-.053-2.771,2.139-4.927,5.6-5.5q2.847-.361,5.693-.7,2.861-.361,5.685-.7c1.9-.232,3.787-.463,5.685-.686s3.769-.454,5.658-.668M850,513.182c3.52-.33,6.068,1.23,6.5,3.956l1.149,13.276c.054,2.735-2.147,4.892-5.622,5.515-1.916.267-3.832.526-5.738.8-1.925.267-3.84.526-5.747.8s-3.849.543-5.774.82-3.831.552-5.765.82c-3.528.374-6.085-1.132-6.531-3.831l-1.3-13.365c-.1-2.789,2.112-5.008,5.64-5.64,1.925-.276,3.867-.534,5.809-.8,1.925-.276,3.867-.535,5.8-.793s3.858-.526,5.8-.784c1.925-.258,3.849-.526,5.782-.775m-54.279,7.6c3.573-.383,6.2,1.14,6.656,3.9l1.39,13.409c.116,2.753-2.094,4.981-5.613,5.658-1.942.294-3.893.6-5.836.891s-3.893.606-5.854.909c-1.942.3-3.885.606-5.845.909-1.951.321-3.9.623-5.845.926-3.591.428-6.21-1.06-6.7-3.8l-1.55-13.49c-.151-2.833,2.067-5.106,5.64-5.792,1.969-.294,3.929-.6,5.916-.909,1.96-.294,3.912-.588,5.881-.873,1.969-.3,3.92-.6,5.9-.891l5.863-.855M740.7,529.256c3.617-.446,6.282,1.078,6.8,3.858l1.631,13.543c.161,2.8-2.031,5.07-5.6,5.809-1.969.321-3.929.651-5.9.989s-3.938.668-5.9,1-3.939.668-5.9,1q-2.967.508-5.907,1.016c-3.626.49-6.308-.98-6.852-3.733l-1.8-13.632c-.187-2.869,2-5.2,5.631-5.952,1.969-.33,3.965-.659,5.952-.989s3.965-.651,5.943-.98,3.956-.651,5.961-.971q2.954-.481,5.934-.953m-55.464,9.32c3.635-.5,6.353,1.007,6.932,3.813l1.871,13.686c.214,2.833-1.96,5.168-5.533,5.952-1.987.356-3.947.731-5.925,1.087s-3.947.721-5.916,1.087c-1.987.365-3.947.731-5.925,1.1s-3.947.74-5.916,1.114c-3.618.526-6.335-.927-6.923-3.706l-2.058-13.784c-.24-2.9,1.934-5.292,5.515-6.094q3.007-.535,5.97-1.078c1.987-.356,3.983-.713,5.969-1.06,2.005-.356,3.983-.713,5.97-1.06s3.982-.713,5.97-1.051m-55.483,10.131c3.626-.535,6.38.944,7.021,3.787L638.9,566.33c.258,2.851-1.862,5.257-5.435,6.086q-2.94.587-5.9,1.167l-5.889,1.176c-1.969.4-3.92.784-5.89,1.185s-3.92.8-5.88,1.194c-3.582.579-6.326-.856-6.959-3.662l-2.3-13.944c-.312-2.923,1.791-5.364,5.355-6.228,1.987-.383,3.956-.775,5.934-1.158s3.956-.775,5.934-1.158,3.956-.766,5.952-1.141c1.978-.383,3.965-.757,5.934-1.14m-55.082,10.932c3.6-.6,6.38.873,7.057,3.742l2.4,13.98c.312,2.9-1.782,5.355-5.3,6.246-1.951.41-3.885.829-5.818,1.248l-5.818,1.256q-2.887.615-5.791,1.256c-1.925.428-3.858.846-5.792,1.283-3.511.615-6.246-.8-6.941-3.644l-2.575-14.087c-.366-2.967,1.666-5.471,5.177-6.37,1.942-.41,3.876-.829,5.827-1.239s3.894-.829,5.854-1.238c1.933-.41,3.893-.811,5.854-1.221s3.912-.811,5.872-1.212m-54.163,11.654c3.51-.641,6.264.82,6.985,3.724l2.673,14.131c.365,2.931-1.622,5.435-5.052,6.37l-5.685,1.337c-1.9.437-3.787.873-5.676,1.328s-3.778.891-5.658,1.327c-1.9.454-3.769.9-5.64,1.355-3.448.677-6.174-.748-6.923-3.6L492.7,583.019c-.419-3,1.523-5.551,4.954-6.513,1.88-.428,3.778-.873,5.676-1.31s3.814-.882,5.711-1.31,3.8-.873,5.72-1.3,3.823-.873,5.747-1.292M446.195,613l2.913,13.543c69.524-18.6,147.255-35.845,226.7-50.778,76.421-14.354,154.73-26.641,229.717-36.077,72.67-9.151,142.88-15.7,206.328-18.952,62.174-3.2,118.672-3.252,165.645.57q5.186.414,10.229.918c3.359.312,6.673.659,9.917,1.034,3.261.365,6.459.757,9.623,1.167s6.255.838,9.293,1.3c6.9,1.034,13.142,2.21,18.782,3.529a132.151,132.151,0,0,1,15.084,4.392,68.153,68.153,0,0,1,11.5,5.337,35.651,35.651,0,0,1,8.037,6.318c3.644,5.078,4.268,6.406,4.722,7.787,1.141,5.658,1.149,7.146,1.06,8.652q9.169-135.013,18.328-270.034c-.383-4.954-.748-6.157-1.256-7.333-2.958-4.544-4-5.64-5.239-6.709a41.047,41.047,0,0,0-8.759-5.6,89.234,89.234,0,0,0-12.474-4.882q-7.177-2.272-16.305-4.223t-20.288-3.618q-4.932-.735-10.024-1.417c-3.4-.454-6.879-.9-10.389-1.319s-7.083-.838-10.7-1.221c-3.635-.4-7.315-.766-11.057-1.132-50.68-4.847-111.651-6.789-178.859-6.308-68.7.5-144.876,3.528-223.952,8.66-81.82,5.319-167.552,12.937-251.564,22.418-87.656,9.881-173.842,21.838-251.368,35.275l3.733,17.312.223-.383c6.13-3.065,8.126-3.421,10.131-3.769,2.023-.348,4.018-.695,6.041-1.042s4.036-.7,6.077-1.034q3.02-.521,6.068-1.034l5.854,1.746c1.55,5.925,3.617,13.837,5.186,19.771-.543,1.595-1.274,3.742-1.818,5.337a45.2,45.2,0,0,1-9.338,2.7c-2,.365-4.027.722-6.005,1.078-2,.365-3.983.731-5.987,1.087q-2.981.548-5.943,1.1c-1.586-.392-3.7-.918-5.266-1.319.8,3.724,1.862,8.687,2.664,12.412q21.063-3.983,42.919-7.814,21.678-3.809,44.042-7.44,22.159-3.582,44.862-7.03,22.493-3.395,45.414-6.62c18.64-.428,18.64-.428,48.274,185.773-.829,11.414-5.479,13.632-15.049,17.187q-21.4,4.157-42.429,8.5-21.143,4.384-41.823,8.946-20.782,4.584-40.977,9.338c-13.525,3.2-26.837,6.442-39.846,9.73l2.869,13.356.2-.356c5.613-3.154,7.449-3.617,9.266-4.081,1.835-.464,3.671-.909,5.515-1.381,1.844-.454,3.68-.918,5.533-1.372s3.7-.909,5.569-1.363c1.577.32,3.707.757,5.292,1.078,1.355,5.087,3.163,11.85,4.518,16.92-.508,1.452-1.185,3.386-1.7,4.838a48.183,48.183,0,0,1-8.553,3.065c-1.835.454-3.662.927-5.488,1.4s-3.644.935-5.471,1.408c-1.809.473-3.617.936-5.426,1.417-.2,1.425-3.332-.526-4.775-.757" transform="translate(-381.838 -247.879)" fill="#0a0909"/>
      <path id="Path_7387" data-name="Path 7387" d="M486.33,266.435c.971-8.349,4.82-12.536,11.761-12.8.686.045,1.354.107,2.031.169s1.363.116,2.031.178l2.013.178,2.014.187q5.506.521,10.9,1.087,5.373.562,10.567,1.194,5.212.6,10.246,1.283c3.359.445,6.665.927,9.917,1.4q11.013,1.644,20.03,3.609t16.1,4.25a84.344,84.344,0,0,1,12.3,4.963,40.782,40.782,0,0,1,8.634,5.738,22.934,22.934,0,0,1,3.1,3.368,17.781,17.781,0,0,1,2.049,3.546,16.237,16.237,0,0,1,1.23,7.582c-9.3,138.007-9.3,138.007-12.376,182.155a23.4,23.4,0,0,0-.107-4.339,19.4,19.4,0,0,0-2.878-8.064,21.874,21.874,0,0,0-2.9-3.7,36.042,36.042,0,0,0-8.153-6.228,69.869,69.869,0,0,0-11.655-5.275,134.472,134.472,0,0,0-15.262-4.366q-8.554-1.992-19.005-3.546c-3.1-.454-6.228-.9-9.427-1.319s-6.424-.82-9.73-1.194-6.656-.73-10.041-1.06q-5.106-.508-10.362-.953l-1.907-.151c-.632-.054-1.274-.1-1.915-.161-.642-.045-1.283-.089-1.916-.142s-1.292-.1-1.942-.143c-8.269-1.586-17.633-3.368-5.346-167.445" transform="translate(397.86 -202.381)" fill="#fff"/>
      <path id="Path_7388" data-name="Path 7388" d="M472.577,444.839c22.319-1.951,44.2-3.608,65.5-4.972,21.143-1.363,41.734-2.415,61.648-3.145,19.807-.722,38.954-1.14,57.336-1.212,18.283-.08,35.845.187,52.542.8,7.074-.508,10.79-4.312,11.725-11.993l4.455-154.445c-.125-7.992-4.66-13.659-11.565-14.443-17.579-.935-36.067-1.595-55.322-1.96-19.362-.374-39.551-.472-60.41-.3-20.992.178-42.715.615-65.025,1.31-22.48.7-45.592,1.657-69.177,2.851-9.489.918-15.673,6.887-15.744,15.2l7.841,160.754c2.014,11.592,12.9,11.788,16.2,11.556" transform="translate(145.756 -206.676)" fill="#fff"/>
      <path id="Path_7389" data-name="Path 7389" d="M453.35,484.735c24.984-4.482,50.2-8.758,75.423-12.794,24.93-3.992,49.9-7.752,74.728-11.253,24.556-3.457,49.013-6.691,73.177-9.65q35.9-4.384,70.887-7.966c9.81-1.817,14.63-6.451,15.192-14.594l-8.687-161.253c-1.515-8.732-7.253-13.089-17.6-13.329-24.645,1.568-49.718,3.368-75.075,5.409q-38.464,3.087-77.659,6.861c-26.4,2.531-52.961,5.293-79.495,8.268-26.881,3.012-53.754,6.228-80.43,9.659-6.219,1.06-16.572,4.794-16.171,17.811L433.9,474.07c3.5,12.216,15.771,11.253,19.45,10.665" transform="translate(-177.819 -200.285)" fill="#fff"/>
      <path id="Path_7390" data-name="Path 7390" d="M383.142,287.147q21.063-3.983,42.919-7.814,21.678-3.809,44.042-7.44,22.159-3.582,44.862-7.03,22.493-3.395,45.414-6.62c17.063-1.381,20.421,10.844,20.448,10.968,13.365,51.392,19.54,122.352,27.826,174.8.668,8.34-4.82,14.6-15.049,17.187q-21.4,4.157-42.429,8.5-21.143,4.384-41.823,8.945-20.782,4.584-40.977,9.338c-13.525,3.2-26.837,6.442-39.846,9.73L383.142,287.147" transform="translate(-371.524 -166.764)" fill="#fff"/>
    </g>
    <path id="Path_7391" data-name="Path 7391" d="M1394.072,291.707q-9.168,135.026-18.328,270.043a23.574,23.574,0,0,0-.107-4.428,19.078,19.078,0,0,0-.953-4.223,19.656,19.656,0,0,0-1.862-4.01,23.565,23.565,0,0,0-2.86-3.778,36.468,36.468,0,0,0-8.037-6.326,68.888,68.888,0,0,0-11.5-5.328,128.676,128.676,0,0,0-15.084-4.393c-5.64-1.318-11.886-2.495-18.782-3.528-3.038-.463-6.139-.891-9.293-1.3s-6.362-.8-9.623-1.167c-3.244-.365-6.558-.713-9.917-1.042s-6.772-.633-10.229-.909c-46.973-3.831-103.471-3.76-165.645-.57-63.448,3.252-133.64,9.8-206.328,18.952-74.986,9.427-153.3,21.722-229.717,36.076-79.423,14.942-157.172,32.183-226.7,50.778L381.838,314.3c77.526-13.436,163.712-25.393,251.368-35.275,84.012-9.48,169.744-17.1,251.564-22.418,79.076-5.132,155.247-8.161,223.952-8.66,67.208-.481,128.179,1.461,178.859,6.308,3.742.365,7.422.731,11.057,1.132q5.427.574,10.7,1.221c3.51.419,6.985.864,10.389,1.319s6.736.927,10.024,1.417q11.173,1.671,20.288,3.618,9.129,1.965,16.305,4.223a89.234,89.234,0,0,1,12.474,4.882,41.047,41.047,0,0,1,8.759,5.6,23.494,23.494,0,0,1,3.154,3.279,17.834,17.834,0,0,1,2.085,3.43,15.584,15.584,0,0,1,1.078,3.6A15.315,15.315,0,0,1,1394.072,291.707Z" transform="translate(0 0.824)" fill="none"/>
    <g id="Group_6116" data-name="Group 6116" transform="translate(1307.343 292.763)">
      <path id="Path_7392" data-name="Path 7392" d="M571.915,277.718a42.736,42.736,0,0,1,1.061-7.235c.142-.41.249-.811.347-1.212s.187-.811.267-1.212.134-.8.187-1.194.089-.793.116-1.185l-1.675,24.538c-.036.4-.072.8-.125,1.2s-.107.811-.2,1.22-.151.82-.258,1.221-.231.829-.339,1.247c-.044.1-.08.214-.116.312l-.16-.009a10.681,10.681,0,0,1-.1-3.288l.989-14.407m-4.357,3.537c.232-.321.232-.321.526-.437.267.125.7.356.535,3.43l-.971,14.487c-.205,2.468-.758,5.685-1.764,7.351-.455.731-.962,1.452-1.47,2.165s-1.042,1.452-1.586,2.174-1.114,1.47-1.7,2.2-1.2,1.479-1.827,2.227c-1.586,1.693-1.684-1.461-1.7-1.827,0-.294.018-.7.036-1l.954-14.639c.249-3.074,1.167-6.041,2.352-7.564.624-.731,1.221-1.452,1.827-2.174.588-.722,1.149-1.435,1.7-2.147s1.1-1.435,1.6-2.138,1.006-1.408,1.488-2.112M549.8,301.7c1.373-1.23,2.148-.107,2.023,2.9l-.926,14.737c-.276,3.145-1.292,6.068-2.664,7.645-.766.766-1.524,1.55-2.29,2.325s-1.559,1.568-2.343,2.361c-.784.775-1.559,1.559-2.352,2.343s-1.595,1.586-2.379,2.37c-1.5,1.319-2.334-.392-2.246-2.735l.882-14.915c.25-2.922,1.506-6.353,2.878-7.814.8-.775,1.622-1.551,2.406-2.317s1.577-1.55,2.361-2.316,1.586-1.532,2.352-2.3c.784-.757,1.55-1.523,2.3-2.29M527.223,323.73c1.479-1.328,2.37-.223,2.281,2.815l-.864,15.013a14.474,14.474,0,0,1-2.869,7.921c-.82.829-1.622,1.666-2.423,2.5-.8.855-1.6,1.684-2.388,2.53s-1.559,1.684-2.326,2.513c-.766.855-1.533,1.7-2.281,2.539-1.782,1.844-1.987-1.078-2.023-1.684,0-.294,0-.713.018-1.016l.811-15.192c.232-3.306,1.248-6.388,2.6-8.064.739-.82,1.506-1.648,2.272-2.477s1.56-1.657,2.343-2.468c.8-.838,1.595-1.657,2.4-2.477.82-.82,1.631-1.64,2.45-2.459m-20.012,23.05c.891-1.167,1.363-.258,1.506.971a11.634,11.634,0,0,1,.044,1.934l-.784,15.281a19.935,19.935,0,0,1-2.1,8.037c-.561.846-1.087,1.693-1.6,2.521-.49.838-.989,1.675-1.444,2.513s-.873,1.666-1.283,2.5c-.383.829-.766,1.657-1.1,2.477a1.859,1.859,0,0,1-.383.588c-.24-.223-.436-.41-.312-3.457l.766-15.45c.08-1.319.375-5.818,1.23-8.09.348-.8.713-1.613,1.114-2.432s.838-1.639,1.3-2.45.927-1.64,1.453-2.468c.5-.829,1.042-1.639,1.595-2.477m-.793,47.7c.828-10.05,2.824-16.884,6.451-22.159,1.746-2.1,3.6-4.241,5.515-6.362s3.9-4.214,5.916-6.326,4.054-4.188,6.13-6.282c2.049-2.067,4.125-4.125,6.192-6.174,4.322-4.348,8.661-8.669,12.724-12.937,4.01-4.232,7.761-8.411,11-12.483a71.95,71.95,0,0,0,7.868-11.824,28.621,28.621,0,0,0,3.412-10.968l-12.492,182.12a38.371,38.371,0,0,1-3.341,12.394,89.765,89.765,0,0,1-7.627,13.436c-3.119,4.642-6.718,9.4-10.576,14.229-3.893,4.865-8.046,9.8-12.2,14.755-1.969,2.334-3.947,4.7-5.925,7.048-1.969,2.379-3.929,4.776-5.863,7.155-1.934,2.4-3.832,4.793-5.658,7.2s-3.6,4.82-5.266,7.217a11.481,11.481,0,0,1-3.038,2.432c-1.533-1.639-1.8-1.924-1.737-7.333l8.518-165.137m-8.91,8.242a18.042,18.042,0,0,1,.178-1.916c.08-.642.187-1.283.312-1.925.134-.659.267-1.3.454-1.951.161-.659.375-1.31.579-1.969l.5-1.141c.41.116.953.285,1.363.41.632,2.557.677,3.778.561,8.34l-8.34,165.992a112.462,112.462,0,0,1-3.706,21.455c-.223.731-.41,1.461-.57,2.192-.178.722-.33,1.452-.455,2.165-.124.731-.223,1.443-.312,2.156-.072.713-.143,1.426-.169,2.139l9.6-195.948m59,100.861a45.873,45.873,0,0,1,1.016-6.941c.116-.481.223-.944.33-1.417.089-.472.178-.927.259-1.4s.16-.935.214-1.39.08-.909.125-1.372l-1.488,21.553c-.036.454-.063.927-.125,1.381-.045.463-.125.935-.2,1.408-.089.463-.161.935-.276,1.417-.1.481-.2.953-.33,1.434a3.4,3.4,0,0,1-.24.588c-.187-.223-.285-.33-.169-2.629l.882-12.634m-4.241,5.667c.294-.508.348-.534.624-.686.232.107.543.25.419,2.664l-.865,12.7a21.419,21.419,0,0,1-1.639,7.11c-.463.819-.944,1.657-1.408,2.5-.49.838-1.007,1.684-1.533,2.539-.543.856-1.069,1.7-1.63,2.575s-1.141,1.72-1.746,2.593c-1.132,1.559-1.47.356-1.577-.223a7.509,7.509,0,0,1-.036-1.551l.838-12.812a16.977,16.977,0,0,1,2.218-7.315c.588-.864,1.185-1.711,1.738-2.566s1.1-1.693,1.639-2.539,1.034-1.675,1.533-2.5.962-1.657,1.426-2.486M535.34,533.372c1.746-2,1.942.428,1.951.935a7,7,0,0,1-.009.865l-.811,12.892a15.615,15.615,0,0,1-2.513,7.4c-.73.909-1.444,1.827-2.174,2.735s-1.479,1.836-2.21,2.754c-.748.927-1.5,1.845-2.245,2.771s-1.506,1.845-2.263,2.762c-1.845,2.094-2.138-.748-2.138-.748a5.8,5.8,0,0,1,0-.882l.766-13a16.678,16.678,0,0,1,2.709-7.591c.766-.918,1.523-1.826,2.281-2.735.74-.918,1.5-1.827,2.245-2.727.748-.918,1.479-1.818,2.228-2.718.73-.908,1.47-1.809,2.183-2.708m-21.419,26c1.586-1.818,2.138-.356,2.2.784.009.259,0,.615-.018.882l-.731,13.089a16.048,16.048,0,0,1-2.709,7.672c-.766.971-1.533,1.96-2.3,2.94s-1.514,1.96-2.263,2.941-1.47,1.96-2.2,2.94-1.452,1.969-2.147,2.949c-1.461,1.889-1.826.392-1.907-.33a11.667,11.667,0,0,1-.027-1.247l.713-13.2a17.025,17.025,0,0,1,2.432-7.8c.713-.962,1.434-1.934,2.165-2.9s1.461-1.942,2.219-2.9c.748-.98,1.506-1.943,2.263-2.914s1.533-1.934,2.308-2.9m-18.943,27.015c.445-.748.552-.766.909-.864.294.169.659.383.57,2.611l-.677,13.267a21.409,21.409,0,0,1-1.969,7.752c-.517.98-1.025,1.943-1.506,2.9s-.944,1.934-1.381,2.9-.847,1.915-1.221,2.869-.74,1.915-1.06,2.851a2.031,2.031,0,0,1-.428.846c-.214-.16-.356-.276-.25-2.62l.651-13.383a38.119,38.119,0,0,1,1.158-7.734c.33-.936.686-1.871,1.069-2.816s.793-1.9,1.23-2.842.9-1.907,1.372-2.851c.49-.971,1.007-1.925,1.533-2.887m5-233.655-14.265,290.5a47.667,47.667,0,0,1,3.823-15.53,104.942,104.942,0,0,1,8.7-16.181c3.493-5.435,7.476-10.906,11.69-16.377,4.179-5.417,8.571-10.826,12.9-16.154,4.116-5.079,8.206-10.14,12.073-15.138,3.814-4.945,7.387-9.828,10.478-14.595a91.733,91.733,0,0,0,7.547-13.748,39.731,39.731,0,0,0,3.341-12.7l18.515-269.99a26.811,26.811,0,0,1-3.4,10.585,69.7,69.7,0,0,1-7.939,11.378c-3.27,3.912-7.057,7.921-11.12,11.993-4.09,4.089-8.456,8.242-12.848,12.412-4.633,4.383-9.311,8.83-13.766,13.293-4.5,4.517-8.767,9.044-12.492,13.552a79.367,79.367,0,0,0-9.267,13.525,31.939,31.939,0,0,0-3.974,13.169" transform="translate(-485.711 -252.824)" fill="#0a0909"/>
      <path id="Path_7393" data-name="Path 7393" d="M494.946,353.518c.828-10.05,2.824-16.884,6.451-22.159,1.746-2.1,3.6-4.241,5.515-6.362s3.9-4.214,5.916-6.326,4.054-4.188,6.13-6.282c2.049-2.067,4.125-4.125,6.192-6.174,4.322-4.348,8.661-8.669,12.723-12.937,4.01-4.232,7.761-8.411,11-12.483a71.943,71.943,0,0,0,7.868-11.823A28.623,28.623,0,0,0,560.149,258l-12.492,182.12a38.372,38.372,0,0,1-3.341,12.394,89.765,89.765,0,0,1-7.627,13.436c-3.118,4.642-6.718,9.4-10.576,14.229-3.893,4.865-8.046,9.8-12.2,14.755-1.969,2.334-3.947,4.7-5.925,7.048-1.969,2.379-3.929,4.776-5.863,7.155-1.934,2.4-3.831,4.793-5.658,7.2s-3.6,4.82-5.266,7.217a11.479,11.479,0,0,1-3.038,2.432c-4.312-4.589,6.656-170.786,6.781-172.47" transform="translate(-474.239 -211.858)" fill="#fff"/>
      <path id="Path_7394" data-name="Path 7394" d="M495.562,277.55a18.043,18.043,0,0,1,.178-1.916c.08-.642.187-1.283.312-1.925.134-.659.267-1.3.454-1.952.161-.659.374-1.31.579-1.969l.5-1.141c.41.116.953.285,1.363.41.8,3.252.8,3.252-7.779,174.332a112.462,112.462,0,0,1-3.706,21.455c-.223.731-.41,1.461-.57,2.192-.178.722-.33,1.452-.455,2.165-.124.731-.223,1.444-.312,2.156-.072.713-.143,1.426-.169,2.139l9.6-195.948" transform="translate(-483.765 -127.649)" fill="#fff"/>
    </g>
    <path id="Path_7395" data-name="Path 7395" d="M574.784,252.823,556.269,522.831a39.627,39.627,0,0,1-3.341,12.688,93.423,93.423,0,0,1-7.547,13.757c-3.092,4.767-6.664,9.641-10.478,14.594-3.867,5-7.957,10.059-12.073,15.138-4.331,5.328-8.723,10.727-12.9,16.154-4.214,5.471-8.2,10.95-11.69,16.377a104.617,104.617,0,0,0-8.7,16.189,47.514,47.514,0,0,0-3.823,15.521l14.265-290.51a31.939,31.939,0,0,1,3.974-13.169,79.367,79.367,0,0,1,9.267-13.525c3.724-4.508,7.992-9.053,12.492-13.561,4.455-4.464,9.133-8.91,13.766-13.285,4.393-4.17,8.759-8.322,12.848-12.421,4.063-4.072,7.849-8.072,11.12-11.993a69.326,69.326,0,0,0,7.939-11.378A26.723,26.723,0,0,0,574.784,252.823Z" transform="translate(821.632 39.931)" fill="none"/>
    <g id="Group_6117" data-name="Group 6117" transform="translate(1304.789 273.463)">
      <path id="Path_7396" data-name="Path 7396" d="M1709.855,270.4c2.326.41,3.3,2.245,2.469,4.687l-4.518,11.734a5.841,5.841,0,0,1-5.685,3.671c-1.292-.151-2.584-.3-3.894-.454l-3.894-.445c-1.319-.151-2.61-.285-3.911-.437s-2.611-.285-3.912-.437c-2.307-.374-3.288-2.183-2.5-4.589l4.446-11.761a5.891,5.891,0,0,1,5.7-3.76c1.309.134,2.61.285,3.929.428l3.92.445c1.309.151,2.619.294,3.921.454s2.628.3,3.929.463m-35.212-3.8c1.96.321,2.708,2.1,1.906,4.562l-4.42,11.761c-1,2.4-2.976,3.9-5.034,3.84-1.1-.116-2.2-.214-3.3-.3-1.1-.107-2.219-.2-3.305-.3-1.1-.08-2.2-.187-3.306-.276l-3.3-.267c-1.951-.285-2.7-2.04-1.915-4.446l4.357-11.788c1-2.433,2.976-3.992,5.034-3.947,1.1.089,2.2.187,3.314.276,1.1.089,2.21.2,3.306.294,1.122.089,2.219.2,3.332.294s2.21.205,3.324.3m-30.838-2.486c1.969.258,2.718,2.014,1.925,4.473l-4.322,11.8c-.989,2.406-2.949,3.956-4.981,3.947l-3.288-.2-3.279-.214c-1.105-.053-2.192-.116-3.279-.187-1.1-.053-2.191-.125-3.287-.178-1.943-.232-2.682-1.942-1.916-4.366l4.268-11.832c.972-2.441,2.932-4.036,4.972-4.045,1.1.053,2.2.125,3.3.178,1.1.071,2.193.134,3.3.2s2.193.134,3.3.205,2.192.152,3.3.223m-30.668-1.675c1.951.214,2.717,1.934,1.924,4.393l-4.223,11.859c-.971,2.415-2.9,4.009-4.927,4.054-1.087-.045-2.183-.08-3.27-.125s-2.174-.08-3.27-.116-2.183-.08-3.261-.107c-1.105-.027-2.192-.062-3.279-.089-1.943-.178-2.709-1.862-1.952-4.3l4.179-11.886c.972-2.459,2.914-4.09,4.946-4.152,1.087.027,2.191.062,3.3.107,1.087.036,2.174.071,3.27.116s2.182.08,3.288.125l3.279.125m-30.561-.882c1.943.151,2.717,1.853,1.951,4.33l-4.152,11.9c-.963,2.415-2.878,4.054-4.891,4.161-1.1-.018-2.183-.027-3.279-.045-1.078-.009-2.174-.027-3.243-.036l-3.288-.027c-1.086,0-2.174,0-3.26-.009-1.952-.134-2.727-1.791-1.987-4.232l4.1-11.939c.962-2.486,2.9-4.152,4.919-4.268l3.3.027c1.078.009,2.174.018,3.278.036s2.193.027,3.279.045l3.28.053m-30.561-.16c1.951.116,2.735,1.782,1.987,4.268l-4.072,11.975c-.927,2.45-2.851,4.116-4.865,4.268-1.087.009-2.183.027-3.27.036l-3.279.053c-1.087.009-2.192.027-3.279.044s-2.183.045-3.27.071c-1.934-.089-2.727-1.729-2-4.179l4.018-12.01c.935-2.495,2.852-4.215,4.892-4.366l3.287-.053c1.1-.018,2.192-.036,3.279-.045s2.191-.027,3.279-.036l3.288-.027m-30.579.561c1.951.062,2.735,1.72,2,4.206l-4,12.046c-.918,2.468-2.816,4.179-4.838,4.375-1.1.036-2.192.08-3.288.116s-2.183.071-3.27.116l-3.3.134c-1.1.044-2.183.089-3.288.143-1.933-.045-2.744-1.666-2.032-4.125l3.938-12.1c.953-2.548,2.815-4.259,4.883-4.473,1.087-.045,2.192-.072,3.279-.116,1.1-.036,2.21-.08,3.3-.116,1.1-.036,2.2-.071,3.306-.116,1.1-.027,2.2-.071,3.306-.089m-30.722,1.221c1.969.027,2.78,1.666,2.085,4.179l-3.938,12.117c-.891,2.486-2.8,4.232-4.847,4.473l-3.3.187c-1.088.062-2.192.125-3.288.2s-2.191.134-3.287.205l-3.288.2c-1.969,0-2.789-1.6-2.1-4.081l3.875-12.171c.909-2.53,2.807-4.33,4.856-4.58,1.114-.071,2.218-.125,3.323-.2,1.1-.053,2.2-.125,3.306-.187,1.087-.062,2.192-.107,3.305-.169,1.1-.062,2.192-.116,3.3-.178m-30.847,1.88c1.979-.009,2.807,1.613,2.112,4.134l-3.858,12.207c-.882,2.495-2.771,4.3-4.829,4.58-1.1.08-2.192.161-3.306.25-1.1.089-2.2.178-3.306.258-1.1.1-2.209.178-3.314.285-1.1.08-2.218.169-3.306.276-2.005.036-2.843-1.55-2.156-4.036l3.8-12.278c.891-2.557,2.806-4.384,4.856-4.678,1.123-.1,2.228-.169,3.342-.258s2.209-.169,3.323-.258,2.209-.16,3.323-.241,2.21-.16,3.323-.24m-31.042,2.486c2.005-.044,2.834,1.559,2.156,4.108l-3.76,12.3c-.882,2.522-2.771,4.366-4.829,4.687-1.122.1-2.237.214-3.35.33-1.1.107-2.228.2-3.323.321-1.123.116-2.236.214-3.35.339s-2.236.223-3.35.339c-1.978.08-2.851-1.488-2.192-4.009l3.725-12.367c.891-2.575,2.789-4.455,4.856-4.785,1.132-.107,2.245-.214,3.359-.321s2.245-.205,3.368-.312l3.35-.312c1.114-.107,2.228-.2,3.341-.312m-31.265,3.092c2-.089,2.86,1.506,2.219,4.063l-3.707,12.411c-.864,2.539-2.744,4.428-4.829,4.785-1.131.134-2.245.249-3.368.383l-3.377.392-3.359.4c-1.131.125-2.245.267-3.368.41-2,.107-2.886-1.452-2.245-3.992l3.653-12.474c.855-2.6,2.762-4.517,4.856-4.883,1.132-.134,2.263-.258,3.386-.383s2.245-.249,3.377-.383c1.131-.116,2.263-.241,3.377-.365,1.131-.125,2.254-.241,3.386-.365M1366,274.271c2.04-.116,2.922,1.461,2.281,4.054l-3.617,12.518c-.855,2.575-2.753,4.491-4.856,4.892-1.122.143-2.263.294-3.395.428-1.132.16-2.254.321-3.4.454-1.114.161-2.254.312-3.395.463s-2.263.3-3.395.463c-2.022.152-2.932-1.4-2.3-3.956l3.573-12.59c.864-2.673,2.735-4.571,4.864-4.981,1.141-.152,2.282-.3,3.4-.437,1.15-.16,2.28-.294,3.43-.445,1.122-.152,2.254-.285,3.386-.437,1.131-.134,2.272-.276,3.412-.428m-31.844,4.2c2.05-.169,2.976,1.417,2.334,4.027l-3.555,12.634c-.829,2.593-2.727,4.553-4.839,4.99-1.149.151-2.28.33-3.421.49s-2.281.339-3.422.517-2.289.338-3.439.517c-1.149.16-2.289.339-3.43.508-2.049.2-2.975-1.354-2.361-3.929l3.492-12.715c.838-2.655,2.753-4.651,4.874-5.088,1.149-.169,2.308-.33,3.448-.5,1.159-.16,2.3-.321,3.439-.49,1.159-.16,2.3-.33,3.449-.481,1.149-.169,2.289-.321,3.43-.481m-32.147,4.686c2.067-.178,3,1.4,2.388,4.027l-3.475,12.741c-.819,2.628-2.717,4.633-4.847,5.1-1.149.178-2.307.374-3.457.552s-2.308.374-3.466.561-2.317.383-3.457.57-2.317.374-3.484.561c-2.076.232-3.038-1.318-2.441-3.911l3.43-12.839c.82-2.682,2.736-4.722,4.91-5.186,1.149-.187,2.317-.365,3.466-.552,1.167-.178,2.325-.365,3.475-.544,1.167-.187,2.334-.365,3.5-.543,1.149-.178,2.3-.357,3.457-.535m-32.486,5.177c2.085-.2,3.057,1.363,2.451,4.027l-3.386,12.866a7.305,7.305,0,0,1-4.874,5.185c-1.159.2-2.335.41-3.5.606s-2.334.41-3.483.615c-1.177.2-2.344.419-3.511.624s-2.352.41-3.519.615c-2.094.249-3.066-1.292-2.5-3.912l3.35-12.973c.8-2.709,2.727-4.776,4.9-5.284,1.168-.2,2.352-.4,3.528-.6s2.334-.392,3.52-.606c1.167-.187,2.343-.383,3.519-.579,1.159-.2,2.334-.392,3.51-.588m-32.833,5.631c2.111-.241,3.1,1.336,2.521,4.018l-3.306,13c-.792,2.691-2.717,4.767-4.882,5.284-1.177.223-2.361.437-3.546.659-1.167.223-2.344.437-3.528.668-1.185.214-2.361.436-3.547.659s-2.361.455-3.537.668c-2.121.267-3.136-1.265-2.566-3.92l3.26-13.107c.784-2.735,2.718-4.838,4.91-5.382,1.185-.2,2.361-.428,3.546-.641s2.379-.428,3.573-.642c1.176-.214,2.361-.419,3.546-.633s2.37-.419,3.555-.633m-33.189,6.05c2.138-.258,3.162,1.31,2.61,4.019l-3.234,13.16c-.785,2.691-2.7,4.812-4.91,5.364-1.185.241-2.37.463-3.573.7-1.177.232-2.361.472-3.564.7s-2.387.463-3.573.713c-1.194.232-2.378.463-3.582.713-2.13.294-3.162-1.256-2.628-3.938l3.181-13.24c.775-2.771,2.709-4.918,4.918-5.471,1.194-.232,2.388-.463,3.6-.686,1.185-.232,2.379-.454,3.582-.686s2.4-.445,3.582-.677,2.388-.455,3.591-.677m-33.52,6.442c2.174-.3,3.217,1.283,2.665,4.027l-3.145,13.285a7.53,7.53,0,0,1-4.9,5.47c-1.185.25-2.4.5-3.591.74s-2.405.5-3.608.74c-1.2.258-2.4.508-3.6.748-1.213.259-2.424.508-3.627.758-2.165.312-3.216-1.23-2.691-3.938l3.092-13.392c.757-2.807,2.681-4.99,4.918-5.56,1.211-.241,2.432-.49,3.626-.722s2.423-.49,3.635-.731,2.415-.472,3.617-.713,2.406-.472,3.609-.713m-33.831,6.78c2.192-.312,3.261,1.274,2.735,4.045l-3.065,13.436a7.6,7.6,0,0,1-4.892,5.56c-1.221.258-2.424.517-3.635.766-1.22.267-2.423.526-3.635.784s-2.432.526-3.635.784c-1.221.259-2.441.526-3.644.784-2.192.348-3.279-1.2-2.78-3.947l2.994-13.543c.749-2.815,2.682-5.043,4.945-5.658,1.221-.25,2.441-.5,3.653-.758,1.238-.249,2.432-.49,3.661-.748s2.442-.5,3.653-.757q1.831-.361,3.644-.748m-34.107,7.1c2.192-.33,3.288,1.265,2.789,4.054l-2.976,13.6a7.7,7.7,0,0,1-4.892,5.64c-1.23.276-2.45.534-3.653.811l-3.68.811c-1.23.267-2.459.544-3.68.811s-2.441.544-3.68.82c-2.192.347-3.3-1.212-2.807-3.983l2.9-13.686c.722-2.869,2.655-5.114,4.918-5.738,1.229-.258,2.451-.526,3.689-.784s2.468-.534,3.689-.793c1.238-.259,2.451-.526,3.68-.784,1.247-.25,2.468-.508,3.7-.775m-34.375,7.36c2.219-.347,3.333,1.257,2.851,4.081l-2.886,13.748c-.695,2.833-2.62,5.079-4.883,5.72-1.229.276-2.45.561-3.688.837s-2.45.552-3.689.838-2.451.552-3.689.829-2.468.57-3.706.846c-2.219.365-3.341-1.212-2.869-4.01l2.816-13.837c.695-2.9,2.61-5.177,4.9-5.818,1.238-.276,2.468-.544,3.715-.811,1.23-.276,2.468-.543,3.707-.811s2.468-.535,3.706-.811,2.468-.535,3.715-.8m-34.606,7.583c2.245-.357,3.395,1.256,2.94,4.116l-2.8,13.9c-.686,2.86-2.584,5.132-4.874,5.8-1.238.276-2.477.561-3.707.855-1.238.276-2.476.561-3.706.847s-2.477.579-3.707.855-2.477.57-3.7.864c-2.218.365-3.368-1.221-2.931-4.045l2.7-14c.686-2.94,2.6-5.257,4.891-5.9,1.248-.276,2.477-.544,3.734-.829,1.239-.276,2.477-.544,3.724-.82s2.486-.552,3.715-.829c1.248-.267,2.477-.552,3.715-.82M998.359,343c2.228-.356,3.4,1.283,2.958,4.17l-2.691,14.042c-.66,2.9-2.557,5.2-4.838,5.881-1.238.285-2.477.579-3.706.864s-2.486.57-3.725.864-2.477.57-3.715.864-2.468.579-3.707.873c-2.236.383-3.421-1.221-3-4.081l2.61-14.158c.659-2.958,2.575-5.3,4.891-5.961,1.23-.276,2.477-.552,3.725-.837s2.486-.561,3.724-.838,2.486-.561,3.742-.837,2.486-.562,3.733-.847m-34.784,7.841c2.245-.366,3.412,1.292,2.994,4.214l-2.575,14.2c-.641,2.931-2.531,5.248-4.8,5.934-1.247.294-2.477.579-3.724.873s-2.486.588-3.725.873-2.468.579-3.715.873-2.477.588-3.715.873c-2.219.383-3.395-1.239-3.012-4.134l2.5-14.309c.633-2.994,2.531-5.364,4.811-6.014,1.257-.285,2.5-.562,3.742-.855,1.247-.276,2.486-.561,3.742-.838s2.5-.561,3.733-.846c1.247-.276,2.494-.57,3.742-.846m-37.191,8.42c3.422-.632,5.409.865,5.07,3.8l-2.477,14.363a9.264,9.264,0,0,1-6.762,6.46q-2.834.668-5.649,1.328c-1.88.445-3.751.882-5.649,1.337-1.871.437-3.743.882-5.622,1.31-1.88.445-3.751.882-5.622,1.328-3.377.65-5.355-.828-5.061-3.742l2.37-14.514a9.139,9.139,0,0,1,6.753-6.549q2.834-.642,5.649-1.283c1.9-.428,3.778-.846,5.675-1.274,1.88-.428,3.778-.855,5.676-1.283,1.88-.428,3.769-.864,5.649-1.283m-52.55,11.85c3.395-.606,5.372.927,5.078,3.92l-2.3,14.595a9.069,9.069,0,0,1-6.682,6.513c-1.853.437-3.724.873-5.569,1.31-1.862.419-3.706.855-5.56,1.283s-3.707.864-5.551,1.292-3.7.847-5.541,1.274c-3.324.624-5.284-.9-5.008-3.867l2.174-14.746a8.923,8.923,0,0,1,6.6-6.585q2.78-.615,5.577-1.247c1.853-.4,3.707-.82,5.578-1.229l5.6-1.257c1.862-.419,3.725-.837,5.6-1.256m-51.723,11.458c3.306-.579,5.266,1.016,5.017,4.054L825,401.452a8.785,8.785,0,0,1-6.469,6.522c-1.827.419-3.636.829-5.444,1.239s-3.626.82-5.435,1.221-3.617.811-5.409,1.212c-1.809.4-3.617.8-5.4,1.2-3.234.579-5.167-1.007-4.918-4.036l1.987-14.969a8.5,8.5,0,0,1,6.4-6.576q2.686-.575,5.417-1.158c1.809-.392,3.627-.775,5.453-1.176q2.713-.588,5.453-1.185,2.74-.575,5.479-1.176M771.85,393.263c3.19-.508,5.1,1.158,4.865,4.232l-1.933,15.04a8.388,8.388,0,0,1-6.229,6.5c-1.746.374-3.484.749-5.239,1.123s-3.484.74-5.221,1.114-3.466.74-5.195,1.087c-1.737.374-3.457.731-5.167,1.1-3.11.5-4.99-1.158-4.785-4.232l1.817-15.165a8.167,8.167,0,0,1,6.1-6.531l5.195-1.042c1.746-.357,3.5-.713,5.239-1.06,1.746-.365,3.51-.713,5.266-1.078s3.5-.722,5.283-1.087m-48.114,9.56c3.029-.419,4.856,1.336,4.651,4.455l-1.746,15.236a7.9,7.9,0,0,1-5.863,6.424c-1.666.33-3.332.65-4.972.98-1.675.321-3.314.641-4.954.962s-3.261.624-4.9.935-3.252.606-4.874.927c-2.9.374-4.66-1.372-4.473-4.482l1.639-15.343a7.506,7.506,0,0,1,5.676-6.424c1.622-.294,3.261-.588,4.892-.891q2.473-.455,4.936-.909,2.486-.455,4.981-.918c1.648-.321,3.332-.641,5.007-.953m-45.12,8.028c2.816-.294,4.526,1.551,4.348,4.722l-1.586,15.405a7.3,7.3,0,0,1-5.426,6.282c-1.55.267-3.074.526-4.607.784s-3.038.508-4.544.757c-1.524.25-3.021.5-4.526.74s-2.976.472-4.455.7c-2.664.267-4.286-1.6-4.125-4.749l1.461-15.512c.454-3.279,2.432-5.676,5.195-6.255,1.488-.223,2.985-.454,4.5-.677,1.506-.241,3.011-.472,4.544-.713,1.515-.24,3.038-.481,4.589-.731,1.533-.249,3.083-.5,4.633-.757m-41.28,6.077c2.557-.16,4.09,1.8,3.947,5.008l-1.408,15.557c-.419,3.2-2.343,5.586-4.909,6.085-1.372.2-2.762.365-4.134.552q-2.045.254-4.063.508c-1.355.16-2.7.33-4.027.472-1.336.169-2.655.312-3.974.463-2.334.107-3.76-1.889-3.609-5.07l1.292-15.646c.392-3.3,2.138-5.6,4.6-6.032q1.965-.214,3.982-.428c1.328-.152,2.682-.3,4.036-.463s2.735-.321,4.117-.49c1.363-.169,2.762-.339,4.152-.517m-36.468,3.689c2.21.009,3.537,2.112,3.385,5.346l-1.238,15.673c-.365,3.207-2.031,5.5-4.241,5.827-1.212.089-2.406.169-3.573.258-1.176.071-2.343.16-3.493.232-1.167.045-2.3.116-3.43.178s-2.263.107-3.368.151c-1.987-.08-3.2-2.21-3.065-5.435L583,427.139c.348-3.315,1.853-5.533,3.912-5.765,1.113-.045,2.236-.089,3.395-.143,1.14-.045,2.281-.107,3.448-.169s2.343-.134,3.519-.2c1.194-.071,2.379-.151,3.591-.241m-30.748.918c1.809.2,2.887,2.441,2.753,5.7l-1.1,15.753c-.339,3.208-1.711,5.373-3.519,5.515-.989-.018-1.951-.054-2.914-.071-.971-.036-1.907-.072-2.833-.116s-1.853-.089-2.753-.143-1.791-.124-2.673-.2c-4.66-.5-4.82-6.005-4.82-6.059l1.016-15.788s.793-5.426,5.6-5.15c.882.072,1.782.134,2.691.2s1.836.107,2.78.152,1.889.089,2.851.116c.962.045,1.942.072,2.931.089m-39.284-6.5a8.018,8.018,0,0,1,5.1,7.476L535,438.294c-.348,3.118-2.7,4.66-5.729,3.742-1.648-.579-3.2-1.185-4.713-1.8-1.479-.606-2.922-1.23-4.286-1.871s-2.646-1.274-3.858-1.925-2.37-1.319-3.466-2c-2.263-1.595-3.012-5.016-2.931-7.689l.829-15.726c.249-3.279,1.55-4.562,3.528-3.52,1.1.677,2.263,1.328,3.5,1.969s2.521,1.292,3.893,1.925,2.816,1.238,4.321,1.844,3.091,1.212,4.749,1.791M502.056,396.23a17.062,17.062,0,0,1,1.372,7.957l-.784,15.664c-.249,3.68-1.2,4.027-1.764,3.386-.045-.063-.1-.152-.151-.214a24.026,24.026,0,0,1-1.239-2.3,20.627,20.627,0,0,1-.9-2.334,19.245,19.245,0,0,1-.651-2.352c-.151-.8-.276-1.6-.348-2.406-.08-1.292-.045-3.234.2-8.037l.739-15.548c.063-1.167.08-2.343.232-3.511a1.575,1.575,0,0,1,.125.446,17.413,17.413,0,0,0,.365,2.352,16.818,16.818,0,0,0,.632,2.335,20.075,20.075,0,0,0,.936,2.3,22.664,22.664,0,0,0,1.238,2.263m1044.1-95.479c3.012-7.11,7.4-10.906,13.419-11.619q13.913.014,27.879.357,13.913.347,27.906,1.024,13.952.668,27.995,1.693t28.138,2.432q7.2.695,14.417,1.506c4.811.526,9.623,1.087,14.416,1.64s9.6,1.132,14.372,1.7,9.524,1.14,14.265,1.7l-59.2,150.641q-6.8-.762-13.676-1.559c-4.6-.526-9.177-1.052-13.784-1.568s-9.222-1.007-13.846-1.479q-6.91-.722-13.828-1.345-13.566-1.229-27.078-2.014-13.485-.815-26.953-1.2-13.471-.414-26.908-.437-13.472-.027-26.9.312c-5.436-.517-7.19-3.831-5.5-10.416l44.861-131.369m-15.815-11.316c7.538.8,6.7,7.511,5.534,11.449l-44.55,131.6c-2.406,6.273-7.306,10.558-12.795,11.146q-19.94,1.042-39.917,2.807c-13.391,1.167-26.792,2.593-40.2,4.2q-20.276,2.446-40.6,5.516-20.476,3.1-41.031,6.763c-5.613.348-7.681-2.735-6.308-9.427l39.507-137.391c2.317-7.084,7.538-12.358,13.32-13.454q21.21-2.753,42.349-5.016,20.97-2.219,41.894-3.911,20.77-1.671,41.521-2.762,20.635-1.069,41.28-1.515m-197.453,17.383c7.9-.161,7.4,6.691,6.406,10.79L1300.06,455.384c-1.248,3.8-4.536,10.549-12.751,13.035q-20.929,4.1-41.939,8.7-21.223,4.638-42.51,9.712-21.517,5.119-43.088,10.639-21.8,5.573-43.633,11.476c-5.987.945-8.4-2.022-7.359-9.07l33.8-145.963c2.041-7.556,7.324-13.507,13.454-15.156q22.574-4.731,45.12-9.177,22.293-4.384,44.532-8.429,22-4.009,43.9-7.609,21.7-3.582,43.3-6.718m-209.251,38.847c8.483-.793,8.367,6.379,7.547,10.728l-33.457,146.471a21.235,21.235,0,0,1-12.866,14.666q-22.225,6.2-44.407,12.617-22.413,6.482-44.728,13.116-22.561,6.7-44.915,13.445-22.6,6.8-44.9,13.6c-10.158,1.916-9.034-5.952-8.545-9.311L924.1,405.176c2.2-10.977,8.58-15.058,13.561-16.555q23.228-5.533,46.778-11.12,23.255-5.507,46.706-10.968,23.162-5.386,46.448-10.656,23-5.2,46.037-10.211M892.491,399.393c9.186-1.791,14.782,2.263,13.917,10.095l-26.115,156.6c-3.047,10.888-12.385,15.539-17.677,17.348-22.72,6.878-45.048,13.579-66.78,19.985-22.079,6.486-43.525,12.67-64.161,18.355-20.9,5.765-40.933,11.03-59.831,15.61-19.121,4.651-37.083,8.589-53.611,11.672-6.9.454-10.086-3.2-10.059-11.494l14.461-168.1c1.087-8.723,6.255-15.245,13.16-16.626,17.455-2.4,36.389-5.551,56.552-9.311,19.922-3.7,40.985-7.974,62.957-12.688,21.678-4.651,44.185-9.7,67.324-15.04,22.765-5.248,46.109-10.763,69.863-16.4m-395.4,20.555a21.742,21.742,0,0,0,1.648,9.659,26.745,26.745,0,0,0,6.558,9.053,52.042,52.042,0,0,0,12.251,8.242,115.08,115.08,0,0,0,18.782,7.27q2.018.628,4.215,1.132c1.488.348,3.021.65,4.606.927,1.6.276,3.261.526,5,.731,1.72.223,3.493.4,5.337.552,3.119.267,6.415.446,9.872.534s7.092.116,10.879.045q5.654-.093,11.815-.419,6.135-.321,12.688-.864c6.531.383,9.658,4.981,9.569,14.078l-13.891,168.5c-1.319,8.393-5.034,13.267-11.325,14.9-4.143.5-8.135.927-11.993,1.256q-5.814.508-11.165.757c-3.573.16-6.985.24-10.255.214s-6.362-.143-9.311-.357c-1.738-.125-3.4-.294-5.034-.49-1.613-.187-3.181-.418-4.687-.686s-2.949-.57-4.33-.918c-1.408-.348-2.709-.731-3.983-1.158a96.224,96.224,0,0,1-17.633-7.573,47.913,47.913,0,0,1-11.494-8.839,28.891,28.891,0,0,1-6.112-9.854,28.027,28.027,0,0,1-1.5-10.665q4.744-98.019,9.489-196.019m1141.09,37.012c2.21.356,3.163,2.023,2.442,4.214l-4.072,10.549a5.426,5.426,0,0,1-5.319,3.306c-1.23-.142-2.478-.276-3.707-.4q-1.857-.214-3.716-.4c-1.238-.134-2.477-.267-3.715-.383-1.23-.134-2.469-.267-3.707-.383-2.2-.33-3.181-1.951-2.477-4.125l4-10.567a5.48,5.48,0,0,1,5.337-3.386c1.238.116,2.494.24,3.724.374,1.256.125,2.5.258,3.742.392l3.733.392c1.248.142,2.486.285,3.734.419m-33.5-3.3c1.87.267,2.61,1.871,1.889,4.063l-3.965,10.585a5.2,5.2,0,0,1-4.7,3.466c-1.043-.08-2.1-.16-3.145-.25s-2.1-.16-3.145-.223c-1.051-.08-2.112-.16-3.154-.232s-2.085-.143-3.136-.214c-1.88-.241-2.619-1.782-1.906-3.965l3.9-10.585a5.3,5.3,0,0,1,4.7-3.582c1.06.062,2.111.142,3.172.214s2.1.16,3.163.223c1.042.089,2.111.16,3.172.25,1.025.089,2.094.16,3.154.249m-29.4-1.916c1.88.223,2.629,1.773,1.934,3.983l-3.885,10.6a5.374,5.374,0,0,1-4.677,3.591c-1.061-.053-2.085-.1-3.127-.134-1.043-.054-2.094-.1-3.136-.143s-2.094-.071-3.127-.116c-1.051-.036-2.112-.062-3.136-.107-1.845-.169-2.62-1.693-1.934-3.858l3.84-10.63a5.456,5.456,0,0,1,4.669-3.7c1.042.036,2.093.062,3.145.107s2.094.08,3.145.125l3.145.134c1.051.054,2.1.1,3.145.142M1546,450.8c1.871.142,2.619,1.666,1.915,3.876l-3.8,10.656a5.508,5.508,0,0,1-4.624,3.706c-1.025-.018-2.085-.027-3.127-.036s-2.076-.027-3.118-.036-2.095-.018-3.127-.018-2.085,0-3.119-.009c-1.844-.116-2.628-1.6-1.951-3.769l3.76-10.683a5.593,5.593,0,0,1,4.625-3.813c1.051,0,2.1.009,3.154.018,1.033,0,2.085.018,3.127.027s2.094.018,3.145.036,2.094.036,3.145.045m-29.251-.036c1.853.08,2.637,1.568,1.96,3.8l-3.742,10.683a5.659,5.659,0,0,1-4.589,3.831l-3.127.054c-1.042.018-2.084.045-3.127.062-1.042.036-2.085.054-3.127.089-1.051.018-2.094.053-3.136.08-1.863-.054-2.646-1.506-2-3.689l3.679-10.719a5.845,5.845,0,0,1,4.633-3.938c1.051-.027,2.085-.062,3.145-.08s2.094-.044,3.145-.062,2.094-.045,3.136-.062,2.1-.027,3.145-.045m-29.278.828c1.862.036,2.646,1.488,2,3.716l-3.662,10.736a5.831,5.831,0,0,1-4.579,3.947c-1.034.045-2.094.089-3.136.142s-2.095.107-3.137.16-2.1.116-3.127.169l-3.145.178c-1.871,0-2.664-1.417-2.023-3.617l3.608-10.781a5.951,5.951,0,0,1,4.6-4.045c1.051-.063,2.1-.116,3.145-.16l3.164-.161c1.042-.054,2.085-.107,3.145-.151l3.154-.134m-29.35,1.657c1.871-.027,2.673,1.408,2.032,3.635l-3.59,10.8a6.053,6.053,0,0,1-4.562,4.063q-1.577.107-3.154.241c-1.051.08-2.094.151-3.154.241s-2.094.169-3.145.249l-3.154.268c-1.871.062-2.682-1.345-2.049-3.537l3.537-10.852a6.121,6.121,0,0,1,4.589-4.152c1.051-.08,2.1-.169,3.163-.258l3.162-.241c1.052-.089,2.1-.16,3.172-.232,1.043-.08,2.094-.152,3.154-.223m-29.492,2.45c1.9-.071,2.717,1.328,2.076,3.573l-3.511,10.861a6.271,6.271,0,0,1-4.562,4.179c-1.061.1-2.112.2-3.172.312s-2.1.223-3.154.33c-1.069.116-2.12.223-3.172.339l-3.171.348c-1.88.107-2.7-1.265-2.094-3.484l3.466-10.906a6.331,6.331,0,0,1,4.589-4.277c1.06-.107,2.111-.214,3.172-.33l3.19-.321c1.06-.116,2.1-.214,3.163-.321s2.12-.214,3.181-.3m-29.644,3.208c1.908-.125,2.727,1.265,2.121,3.519l-3.448,10.924a6.328,6.328,0,0,1-4.562,4.285c-1.061.125-2.121.258-3.181.392s-2.121.276-3.182.41-2.129.285-3.181.419c-1.051.152-2.129.285-3.189.428-1.916.161-2.754-1.194-2.165-3.421l3.395-10.977a6.5,6.5,0,0,1,4.6-4.375c1.079-.142,2.138-.285,3.2-.419s2.138-.267,3.208-.4,2.13-.267,3.19-.4,2.129-.258,3.2-.383m-29.839,3.929c1.916-.169,2.753,1.194,2.156,3.466l-3.368,11a6.537,6.537,0,0,1-4.561,4.392c-1.078.152-2.139.321-3.208.472-1.069.169-2.138.321-3.208.49s-2.156.33-3.216.5-2.147.339-3.217.49c-1.916.2-2.78-1.123-2.192-3.368l3.315-11.057a6.681,6.681,0,0,1,4.588-4.491c1.087-.151,2.165-.312,3.244-.481,1.06-.16,2.138-.321,3.216-.481,1.061-.169,2.147-.312,3.217-.472s2.165-.312,3.234-.463m-30.08,4.624c1.924-.2,2.8,1.14,2.21,3.421l-3.306,11.093a6.725,6.725,0,0,1-4.553,4.491c-1.087.178-2.165.365-3.243.544-1.079.2-2.156.374-3.234.57-1.078.178-2.165.374-3.243.562-1.1.2-2.174.383-3.243.579-1.943.232-2.825-1.069-2.254-3.324l3.252-11.146a6.809,6.809,0,0,1,4.6-4.589c1.079-.187,2.174-.374,3.252-.552,1.078-.2,2.174-.383,3.252-.561s2.174-.366,3.261-.544,2.165-.366,3.252-.544m-30.365,5.3c1.961-.258,2.869,1.069,2.281,3.368l-3.234,11.173a6.856,6.856,0,0,1-4.58,4.6c-1.078.214-2.182.419-3.252.615-1.105.223-2.183.428-3.27.642s-2.182.419-3.261.633c-1.1.2-2.191.427-3.279.641-1.943.285-2.869-1.007-2.307-3.288l3.189-11.235a6.986,6.986,0,0,1,4.589-4.687c1.1-.205,2.191-.419,3.3-.615,1.087-.223,2.165-.419,3.27-.633s2.2-.41,3.279-.615,2.192-.4,3.279-.6m-30.632,5.916c1.969-.285,2.878,1.024,2.334,3.341l-3.172,11.253a6.985,6.985,0,0,1-4.553,4.7c-1.1.223-2.2.463-3.3.7s-2.209.455-3.305.7c-1.1.223-2.21.463-3.306.695s-2.192.472-3.3.713c-1.978.312-2.9-.962-2.361-3.252l3.118-11.324a7.094,7.094,0,0,1,4.6-4.794c1.114-.232,2.209-.463,3.323-.695,1.1-.223,2.209-.454,3.314-.677,1.087-.232,2.2-.454,3.305-.686l3.3-.668m-30.917,6.513c1.978-.321,2.922.989,2.388,3.315l-3.092,11.36a7.2,7.2,0,0,1-4.57,4.794c-1.114.25-2.228.5-3.332.758s-2.219.49-3.333.757c-1.1.25-2.227.5-3.341.766s-2.218.508-3.323.775c-2,.348-2.967-.918-2.441-3.234l3.047-11.414a7.211,7.211,0,0,1,4.616-4.9c1.122-.25,2.236-.49,3.35-.757,1.113-.241,2.227-.49,3.341-.74s2.228-.49,3.359-.74c1.114-.241,2.21-.481,3.333-.74m-31.229,7.092c2.04-.366,2.958.891,2.441,3.27l-3.021,11.467a7.233,7.233,0,0,1-4.589,4.892c-1.114.267-2.228.543-3.359.811s-2.245.552-3.368.82-2.236.543-3.359.829-2.254.552-3.377.82c-2.022.392-2.993-.864-2.486-3.19l2.958-11.521a7.419,7.419,0,0,1,4.642-5c1.114-.258,2.245-.535,3.377-.8s2.245-.544,3.386-.811c1.122-.258,2.254-.535,3.377-.793s2.245-.535,3.377-.793m-31.551,7.609c2.041-.383,3.021.882,2.522,3.261l-2.949,11.556a7.4,7.4,0,0,1-4.607,4.981c-1.122.294-2.254.588-3.395.873-1.123.294-2.254.588-3.386.882s-2.272.579-3.413.873-2.263.6-3.4.882c-2.041.428-3.029-.829-2.548-3.181l2.914-11.619a7.438,7.438,0,0,1,4.606-5.087c1.15-.285,2.281-.571,3.422-.864l3.421-.855c1.132-.285,2.282-.57,3.413-.855s2.263-.571,3.4-.847m-31.862,8.108c2.058-.419,3.073.838,2.593,3.234l-2.869,11.672a7.453,7.453,0,0,1-4.633,5.079c-1.122.3-2.272.606-3.4.918-1.149.312-2.281.615-3.43.918s-2.29.615-3.43.927-2.29.623-3.439.935c-2.041.454-3.065-.793-2.6-3.163l2.824-11.734a7.515,7.515,0,0,1,4.624-5.168c1.149-.312,2.3-.606,3.448-.918s2.3-.606,3.449-.9,2.281-.606,3.431-.909,2.289-.6,3.439-.891m-32.139,8.545c2.076-.454,3.1.829,2.628,3.235l-2.789,11.779a7.517,7.517,0,0,1-4.6,5.159c-1.149.329-2.3.641-3.457.971s-2.3.642-3.457.962-2.308.651-3.448.98-2.317.641-3.466.971c-2.076.472-3.119-.766-2.664-3.163l2.735-11.85a7.581,7.581,0,0,1,4.633-5.239c1.149-.33,2.316-.651,3.474-.962s2.317-.633,3.475-.944,2.308-.642,3.466-.962,2.317-.624,3.466-.936m-32.406,8.955c2.085-.472,3.154.793,2.682,3.234l-2.7,11.886a7.668,7.668,0,0,1-4.606,5.248c-1.167.33-2.317.668-3.484,1s-2.317.668-3.484,1.007c-1.15.339-2.317.677-3.475,1.025-1.167.33-2.335.668-3.493,1.007-2.094.5-3.171-.739-2.744-3.154l2.664-11.948a7.608,7.608,0,0,1,4.651-5.346c1.149-.33,2.326-.668,3.484-.989,1.176-.33,2.343-.677,3.511-1l3.5-.989c1.158-.33,2.317-.651,3.493-.98m-32.655,9.311c2.094-.5,3.181.766,2.753,3.225l-2.628,12a7.722,7.722,0,0,1-4.606,5.328c-1.168.339-2.334.686-3.493,1.034-1.176.347-2.352.7-3.52,1.042-1.167.366-2.344.713-3.51,1.052-1.167.356-2.334.7-3.51,1.051-2.1.517-3.19-.731-2.78-3.172l2.575-12.064a7.69,7.69,0,0,1,4.616-5.4c1.176-.356,2.352-.7,3.537-1.051,1.158-.329,2.343-.677,3.528-1.016,1.167-.339,2.343-.686,3.52-1.025s2.343-.677,3.52-1.007m-32.843,9.6c2.112-.508,3.217.775,2.8,3.252l-2.539,12.1a7.751,7.751,0,0,1-4.6,5.409c-1.167.347-2.343.713-3.528,1.06-1.167.365-2.352.713-3.537,1.078-1.167.356-2.326.713-3.511,1.069s-2.352.722-3.538,1.078c-2.1.534-3.216-.722-2.815-3.172l2.486-12.189a7.715,7.715,0,0,1,4.6-5.489c1.185-.356,2.362-.7,3.546-1.051s2.37-.7,3.537-1.051c1.194-.356,2.362-.7,3.556-1.052,1.176-.348,2.361-.7,3.546-1.042m-33.029,9.845c2.138-.517,3.261.757,2.869,3.252l-2.459,12.234a7.722,7.722,0,0,1-4.571,5.471c-1.185.365-2.361.73-3.537,1.1s-2.352.722-3.529,1.087-2.37.722-3.546,1.087l-3.528,1.1c-2.112.543-3.243-.713-2.86-3.19l2.379-12.314a7.769,7.769,0,0,1,4.58-5.533c1.185-.365,2.37-.713,3.564-1.078,1.177-.356,2.361-.722,3.546-1.07,1.185-.365,2.37-.721,3.555-1.078s2.37-.7,3.538-1.06m-33.074,10.006c2.129-.517,3.252.775,2.878,3.3l-2.353,12.349a7.72,7.72,0,0,1-4.544,5.515c-1.176.365-2.361.74-3.528,1.1-1.185.365-2.37.74-3.555,1.1s-2.343.73-3.528,1.1c-1.167.375-2.37.74-3.528,1.105-2.147.552-3.279-.713-2.923-3.217l2.3-12.429a7.682,7.682,0,0,1,4.571-5.587c1.167-.365,2.37-.731,3.547-1.1s2.37-.721,3.555-1.078,2.37-.722,3.546-1.087,2.37-.722,3.564-1.087m-33.1,10.131c2.13-.544,3.279.775,2.914,3.323l-2.255,12.456a7.671,7.671,0,0,1-4.5,5.569c-1.185.365-2.37.74-3.546,1.1s-2.362.74-3.538,1.114-2.343.74-3.51,1.114c-1.2.365-2.37.74-3.547,1.1-2.112.553-3.261-.739-2.931-3.261l2.21-12.536a7.649,7.649,0,0,1,4.5-5.64c1.185-.366,2.37-.722,3.537-1.087,1.194-.366,2.379-.722,3.573-1.087,1.168-.365,2.361-.731,3.546-1.1s2.37-.721,3.546-1.078m-35.31,10.843c3.243-.873,5.141.223,4.865,2.771l-2.156,12.572c-.615,2.62-3.1,5.07-6.371,6.219-1.791.553-3.573,1.123-5.364,1.684-1.773.561-3.563,1.114-5.337,1.684-1.8.553-3.573,1.114-5.346,1.675-1.791.561-3.564,1.114-5.346,1.675-3.2.882-5.1-.2-4.838-2.735l2.058-12.688c.588-2.682,3.082-5.141,6.335-6.273,1.791-.553,3.582-1.087,5.373-1.648,1.791-.535,3.573-1.1,5.364-1.639s3.582-1.1,5.373-1.648c1.809-.553,3.591-1.1,5.39-1.648M838.14,600.482c3.207-.855,5.123.276,4.874,2.86l-2,12.75c-.579,2.655-3.038,5.105-6.272,6.246-1.764.543-3.511,1.1-5.284,1.63-1.755.553-3.5,1.1-5.257,1.639s-3.492,1.1-5.248,1.64-3.5,1.078-5.23,1.613c-3.163.846-5.044-.267-4.812-2.851l1.916-12.857c.535-2.718,2.976-5.177,6.174-6.273,1.746-.526,3.511-1.06,5.257-1.586,1.764-.534,3.528-1.06,5.292-1.595s3.519-1.069,5.283-1.613,3.538-1.069,5.311-1.6m-48.88,14.7c3.118-.8,4.989.383,4.767,3.02l-1.844,12.919c-.534,2.682-2.914,5.114-6.059,6.192-1.72.535-3.448,1.052-5.132,1.568-1.719.526-3.43,1.033-5.132,1.55-1.72.517-3.413,1.025-5.1,1.542-1.71.517-3.395,1.016-5.105,1.524-3.047.784-4.891-.4-4.677-3.011l1.728-13.018a8.709,8.709,0,0,1,5.97-6.228c1.71-.49,3.4-1,5.105-1.5,1.728-.5,3.43-1,5.15-1.506s3.421-1.007,5.149-1.524c1.711-.508,3.44-1.007,5.177-1.532m-47.41,13.775c3.03-.713,4.838.543,4.651,3.2l-1.684,13.071a8.473,8.473,0,0,1-5.8,6.139q-2.485.722-4.953,1.425-2.46.722-4.91,1.425c-1.64.472-3.27.927-4.892,1.39s-3.243.927-4.856,1.381c-2.922.7-4.713-.561-4.544-3.216l1.577-13.16a8.166,8.166,0,0,1,5.694-6.13c1.621-.454,3.243-.9,4.891-1.354,1.631-.455,3.279-.909,4.928-1.382,1.639-.445,3.287-.909,4.927-1.381,1.666-.463,3.323-.927,4.972-1.408m-45.218,12.393c2.86-.623,4.589.731,4.41,3.422L699.519,658A7.856,7.856,0,0,1,694.048,664c-1.55.41-3.109.829-4.651,1.247-1.559.419-3.11.82-4.651,1.23s-3.065.811-4.6,1.212-3.065.793-4.571,1.176c-2.726.579-4.392-.793-4.241-3.475l1.417-13.293a7.406,7.406,0,0,1,5.284-5.97c1.515-.383,3.056-.766,4.588-1.158s3.092-.784,4.633-1.185,3.1-.8,4.686-1.212c1.551-.4,3.11-.811,4.687-1.221m-42.313,10.514c2.637-.463,4.25.989,4.1,3.706l-1.346,13.347a7.229,7.229,0,0,1-5.052,5.818q-2.165.507-4.321,1.016c-1.417.329-2.842.659-4.268.98s-2.824.659-4.232.971c-1.39.312-2.789.632-4.17.927-2.495.419-4.018-1.078-3.885-3.787l1.274-13.418a6.664,6.664,0,0,1,4.794-5.729c1.408-.294,2.807-.606,4.215-.918s2.824-.624,4.241-.945c1.435-.312,2.869-.641,4.313-.962s2.878-.668,4.339-1.007M615.7,660.028c2.4-.3,3.849,1.283,3.724,4.036l-1.22,13.445a6.371,6.371,0,0,1-4.553,5.56c-1.292.25-2.575.49-3.867.731-1.265.241-2.539.472-3.8.7s-2.513.445-3.751.668c-1.247.2-2.477.419-3.706.624-2.228.232-3.537-1.354-3.413-4.152l1.123-13.5c.348-2.86,1.96-4.936,4.241-5.453,1.238-.2,2.495-.4,3.724-.606,1.256-.214,2.513-.428,3.8-.65,1.256-.223,2.521-.446,3.831-.686,1.274-.223,2.575-.463,3.876-.713m-34.027,5.3c2.04-.1,3.306,1.639,3.181,4.419l-1.087,13.535c-.312,2.771-1.862,4.829-3.929,5.221-1.114.134-2.218.267-3.305.392-1.114.125-2.192.241-3.27.356-1.087.1-2.147.205-3.207.312-1.052.08-2.1.169-3.128.258-1.862.018-2.985-1.764-2.887-4.544l1.016-13.57c.3-2.851,1.675-4.811,3.591-5.1,1.042-.08,2.094-.169,3.163-.267s2.138-.187,3.225-.294,2.174-.223,3.279-.339,2.219-.249,3.359-.383M553.021,667.3c1.693.125,2.7,2.023,2.593,4.838l-.962,13.579c-.294,2.789-1.559,4.687-3.252,4.847-.9.009-1.817.009-2.691.009-.909-.018-1.782-.026-2.646-.053s-1.72-.053-2.557-.089-1.675-.071-2.495-.125c-4.473-.41-4.5-5.168-4.5-5.168l.873-13.668c.009-.036.713-4.66,5.177-4.464.82.063,1.675.107,2.5.143s1.693.08,2.583.1c.865.027,1.755.036,2.638.044.909.018,1.817.018,2.735.009m-36.46-6.183a7.665,7.665,0,0,1,4.749,6.771l-.82,13.606c-.3,2.709-2.486,3.9-5.284,2.923-1.515-.632-2.976-1.256-4.366-1.9s-2.7-1.31-3.965-1.987-2.45-1.363-3.573-2.067-2.21-1.426-3.216-2.156c-2.094-1.684-2.771-4.785-2.717-7.11l.7-13.579c.232-2.789,1.417-3.733,3.252-2.557q1.537,1.083,3.243,2.129c1.123.7,2.334,1.39,3.6,2.058s2.6,1.337,3.992,1.969c1.39.659,2.851,1.283,4.4,1.9M489.992,640.6a17.709,17.709,0,0,1,1.265,7.458L490.58,661.6c-.276,3.894-1.452,2.6-1.461,2.584a2.034,2.034,0,0,1-.276-.437,23.827,23.827,0,0,1-1.113-2.557c-.33-.855-.606-1.728-.856-2.61a26,26,0,0,1-.552-2.655,27.147,27.147,0,0,1-.312-2.7c-.062-1.221-.053-2.816.169-7.636l.659-13.454c.036-.891.062-1.791.178-2.682a2.746,2.746,0,0,1,.107.713c.063.9.169,1.791.312,2.673a26.523,26.523,0,0,0,.57,2.628c.25.873.526,1.738.855,2.584a23.837,23.837,0,0,0,1.132,2.548m9.5-270.676q-7.016,145.3-14.024,290.616a29.019,29.019,0,0,0,1.444,10.87,29.649,29.649,0,0,0,6.006,10.024,47.092,47.092,0,0,0,11.306,8.946,94.134,94.134,0,0,0,17.41,7.645,74.792,74.792,0,0,0,8.188,2.058c6.219.882,7.867,1.034,9.578,1.158,16.091,1.131,37.075-.82,62.049-5.2,24.663-4.339,53.032-11.022,84.164-19.388,30.534-8.2,63.555-17.945,98.268-28.619,33.867-10.415,69.213-21.66,105.351-33.172C950.762,595.279,1014.441,575,1078.2,556.369c60.837-17.775,121.924-34.116,182.191-47.16,57.942-12.563,115.669-22.212,172.8-27.38,55.687-5.016,111.7-5.872,168.247-.9,4.57.4,9.124.837,13.7,1.3s9.133.962,13.7,1.452c4.571.508,9.133,1.025,13.658,1.533s9.052,1.034,13.552,1.532l3.359-8.545c-4.99-.552-5.7-.642-6.415-.722s-1.435-.169-2.147-.24l1.666-14.719c1.622-.989,3.76-2.317,5.372-3.332,5.017.579,5.747.659,6.46.739s1.435.16,2.147.25l65.275-166.144c-5.248-.624-6-.722-6.745-.811s-1.506-.178-2.264-.267l2.1-16.359c1.711-1.114,4.018-2.6,5.738-3.707,5.284.633,6.032.722,6.79.811s1.506.178,2.263.267l4.117-10.487c-4.776-.57-9.6-1.149-14.417-1.738s-9.658-1.167-14.505-1.737-9.694-1.141-14.55-1.693c-4.855-.535-9.7-1.06-14.55-1.541A1271.135,1271.135,0,0,0,1508.3,251.7c-60.053,2.317-120.507,8.358-181.14,16.831-63.26,8.839-127.386,20.422-191.377,33.252-67.306,13.525-134.71,28.476-200.073,42.982-38.527,8.536-76.269,16.92-112.542,24.645-37.235,7.939-72.759,15.156-105.69,21.144-33.626,6.121-64.321,10.9-91.1,13.8-27.113,2.922-49.967,3.894-67.547,2.37-7.163-.784-8.856-1.034-10.469-1.31-6.184-1.274-7.609-1.648-8.964-2.058a122.669,122.669,0,0,1-19.076-7.173,53.525,53.525,0,0,1-12.438-8.072,26.11,26.11,0,0,1-6.665-8.821,20.149,20.149,0,0,1-1.729-9.364" transform="translate(-485.424 -250.658)" fill="#0a0909"/>
      <path id="Path_7397" data-name="Path 7397" d="M643.38,266.595c3.012-7.11,7.4-10.906,13.419-11.619q13.913.014,27.879.357,13.913.347,27.906,1.025,13.952.668,27.995,1.693t28.138,2.432q7.2.695,14.416,1.506c4.811.526,9.623,1.087,14.416,1.64s9.6,1.132,14.372,1.7,9.524,1.14,14.265,1.7l-59.2,150.641q-6.8-.762-13.676-1.559c-4.6-.526-9.178-1.051-13.784-1.568s-9.222-1.007-13.846-1.479q-6.91-.722-13.828-1.345-13.566-1.229-27.077-2.013-13.485-.815-26.953-1.2-13.472-.414-26.908-.437-13.472-.026-26.9.312c-8.767-.838-8.767-.838,39.364-141.784" transform="translate(417.347 -216.501)" fill="#fff"/>
      <path id="Path_7398" data-name="Path 7398" d="M584.743,428.487q20.543-3.649,41.031-6.763,20.341-3.061,40.6-5.516c13.408-1.6,26.81-3.029,40.2-4.2q19.968-1.751,39.917-2.807c7.911-1.283,11.4-7.538,12.795-11.146l44.55-131.6c1.167-3.938,2-10.648-5.534-11.449q-20.635.441-41.28,1.515-20.742,1.083-41.521,2.762-20.942,1.684-41.894,3.911-21.143,2.259-42.349,5.016c-8.437,2.076-11.957,9.329-13.32,13.454L578.435,419.06c-1.818,7.4,1.987,10.068,6.308,9.427" transform="translate(246.607 -216.233)" fill="#fff"/>
      <path id="Path_7399" data-name="Path 7399" d="M563.013,459.086q21.839-5.894,43.632-11.476,21.557-5.506,43.088-10.638,21.264-5.079,42.509-9.712,21.01-4.6,41.939-8.7c8.215-2.486,11.5-9.231,12.751-13.035l39.231-137.775c1-4.1,1.5-10.95-6.406-10.79q-21.611,3.128-43.3,6.718-21.9,3.6-43.9,7.609-22.212,4.036-44.532,8.429-22.52,4.437-45.12,9.177c-8.928,2.914-12.269,10.754-13.454,15.156l-33.8,145.963c-1.488,7.823,2.78,10.175,7.359,9.07" transform="translate(67.702 -200.803)" fill="#fff"/>
      <path id="Path_7400" data-name="Path 7400" d="M540.4,486.066q22.279-6.763,44.9-13.6,22.333-6.736,44.915-13.445,22.292-6.6,44.728-13.116,22.173-6.4,44.407-12.617a21.235,21.235,0,0,0,12.866-14.666l33.457-146.471c1.39-7.342-1.658-11.636-7.547-10.728q-23.054,5-46.038,10.211-23.282,5.252-46.448,10.656-23.442,5.44-46.706,10.968-23.523,5.56-46.777,11.12c-4.981,1.5-11.36,5.578-13.561,16.555L531.858,476.755c-1.568,10.959,5.444,10.157,8.545,9.311" transform="translate(-119.918 -166.42)" fill="#fff"/>
      <path id="Path_7401" data-name="Path 7401" d="M509.26,517.421c16.528-3.083,34.49-7.021,53.611-11.672,18.9-4.58,38.928-9.846,59.831-15.61,20.635-5.685,42.081-11.868,64.161-18.355,21.732-6.406,44.06-13.107,66.78-19.985,9.07-3.092,16-9.9,17.677-17.348l26.115-156.6c.579-11.262-8.473-11.155-13.917-10.095-23.754,5.64-47.1,11.155-69.863,16.4-23.14,5.337-45.646,10.389-67.324,15.04-21.972,4.713-43.035,8.99-62.958,12.688-20.163,3.76-39.1,6.914-56.552,9.311-9.979,2.593-12.518,11.521-13.16,16.626L499.2,505.927c-.036,11.8,7.021,11.975,10.059,11.494" transform="translate(-376.452 -119.019)" fill="#fff"/>
      <path id="Path_7402" data-name="Path 7402" d="M495.188,269.658a21.741,21.741,0,0,0,1.648,9.659,26.744,26.744,0,0,0,6.558,9.052,52.04,52.04,0,0,0,12.251,8.242,115.079,115.079,0,0,0,18.782,7.27q2.018.628,4.214,1.132c1.488.348,3.021.65,4.606.927,1.6.276,3.261.526,5,.731,1.72.223,3.492.4,5.337.552,3.119.267,6.415.446,9.872.535s7.092.116,10.879.045q5.654-.093,11.814-.419,6.135-.32,12.688-.864c10.683.623,10.683.623-4.321,182.574-1.319,8.393-5.034,13.267-11.324,14.9-4.143.5-8.135.927-11.993,1.256q-5.814.508-11.165.757c-3.573.16-6.985.24-10.255.214s-6.362-.143-9.311-.357c-1.738-.125-3.4-.294-5.034-.49-1.613-.187-3.181-.418-4.687-.686s-2.949-.57-4.33-.918c-1.408-.348-2.709-.731-3.983-1.158a96.224,96.224,0,0,1-17.633-7.573,47.914,47.914,0,0,1-11.494-8.839,28.889,28.889,0,0,1-6.112-9.854,28.027,28.027,0,0,1-1.5-10.665q4.744-98.019,9.489-196.019" transform="translate(-483.519 -100.367)" fill="#fff"/>
    </g>
    <path id="Path_7403" data-name="Path 7403" d="M485.466,660.555q6.99-145.317,14.024-290.634a20.128,20.128,0,0,0,1.729,9.364,25.942,25.942,0,0,0,6.665,8.821,53.432,53.432,0,0,0,12.438,8.072A121.719,121.719,0,0,0,539.4,403.36c1.354.41,2.78.775,4.277,1.123s3.047.65,4.687.927c1.613.276,3.305.526,5.061.748,1.738.223,3.546.41,5.408.571,17.579,1.523,40.433.552,67.547-2.379,26.783-2.9,57.478-7.68,91.1-13.793,32.931-6,68.473-13.213,105.69-21.144,36.272-7.734,74.015-16.109,112.542-24.645,65.364-14.505,132.767-29.465,200.073-42.982,63.991-12.839,128.117-24.422,191.377-33.252,60.633-8.473,121.087-14.514,181.14-16.831a1271.085,1271.085,0,0,1,177.442,5.061c4.847.49,9.695,1.016,14.55,1.55s9.712,1.114,14.568,1.693c4.829.57,9.676,1.149,14.487,1.737s9.641,1.158,14.417,1.729l-87.719,223.284q-6.749-.762-13.552-1.532c-4.535-.508-9.1-1.034-13.658-1.532s-9.124-.989-13.7-1.453-9.141-.9-13.7-1.3c-56.543-4.972-112.56-4.125-168.247.9-57.131,5.159-114.868,14.817-172.8,27.371-60.267,13.062-121.354,29.394-182.191,47.16-63.76,18.64-127.439,38.919-188.971,58.5-36.138,11.5-71.485,22.756-105.351,33.172-34.713,10.674-67.734,20.431-98.268,28.619-31.131,8.357-59.5,15.049-84.164,19.388-24.975,4.384-45.958,6.335-62.049,5.2-1.711-.116-3.359-.276-4.963-.472s-3.127-.41-4.615-.677-2.914-.57-4.277-.918-2.682-.721-3.911-1.149a94.117,94.117,0,0,1-17.41-7.645,47.073,47.073,0,0,1-11.306-8.946,29.6,29.6,0,0,1-6.006-10.032A28.949,28.949,0,0,1,485.466,660.555Z" transform="translate(819.365 22.803)" fill="none"/>
    <g id="Group_6118" data-name="Group 6118" transform="translate(381.838 247.775)">
      <path id="Path_7404" data-name="Path 7404" d="M2504.067,278.775c4.883.481,9.757,1.016,14.657,1.568s9.8,1.141,14.719,1.773,9.846,1.283,14.8,1.978c4.936.686,9.908,1.426,14.889,2.183-4.776-.57-9.6-1.14-14.417-1.729s-9.658-1.167-14.487-1.737q-7.284-.869-14.569-1.693-7.282-.8-14.55-1.55a1271.086,1271.086,0,0,0-177.442-5.061c-60.053,2.317-120.507,8.358-181.14,16.831-63.26,8.83-127.386,20.413-191.377,33.252-67.306,13.516-134.71,28.476-200.073,42.982-38.527,8.536-76.269,16.911-112.542,24.645-37.217,7.93-72.759,15.147-105.69,21.144-33.626,6.112-64.321,10.9-91.1,13.793-27.113,2.931-49.967,3.9-67.547,2.379-1.862-.16-3.671-.348-5.408-.571-1.755-.223-3.448-.472-5.061-.748-1.64-.276-3.19-.588-4.687-.927s-2.922-.713-4.277-1.123c-17.766-5.23-28.717-11.458-34.562-18.363-5.765-6.825-6.522-14.291-4-22.088,2.477-7.68,8.1-15.655,15.174-23.674,6.959-7.867,15.3-15.779,23.415-23.469,6.059-5.72,12.073-11.414,17.384-16.964a102.958,102.958,0,0,0,12.982-15.976c3.172-5.07,5.025-9.935,4.954-14.505-.071-4.517-2.04-8.75-6.531-12.634a41.046,41.046,0,0,0-8.759-5.6,89.226,89.226,0,0,0-12.474-4.882q-7.177-2.272-16.305-4.223t-20.288-3.618q-4.932-.735-10.024-1.417c-3.4-.454-6.879-.9-10.389-1.319s-7.083-.838-10.7-1.22c-3.635-.4-7.315-.766-11.057-1.132-50.68-4.847-111.651-6.789-178.859-6.308-68.7.5-144.876,3.528-223.952,8.66-81.82,5.319-167.552,12.937-251.564,22.418-87.656,9.881-173.842,21.838-251.368,35.275,77.481-13.712,163.64-25.875,251.315-35.9,83.994-9.6,169.761-17.3,251.617-22.667,79.111-5.185,155.336-8.224,224.121-8.714,67.27-.49,128.348,1.461,179.126,6.335q5.614.534,11.075,1.131c3.635.383,7.208.8,10.745,1.221,3.519.41,6.985.864,10.4,1.319s6.763.936,10.068,1.426q11.388,1.7,20.725,3.707c6.237,1.345,11.788,2.8,16.715,4.348a90.968,90.968,0,0,1,12.821,5.061,43.782,43.782,0,0,1,9.07,5.8c4.615,3.983,6.692,8.313,6.816,12.911.125,4.66-1.72,9.6-4.883,14.737a102.164,102.164,0,0,1-13.027,16.145c-5.319,5.613-11.378,11.378-17.437,17.143-8.01,7.6-16.234,15.387-23.086,23.148-6.985,7.885-12.536,15.744-15.04,23.282-2.521,7.662-1.871,14.978,3.671,21.66,5.6,6.745,16.171,12.812,33.359,17.882,1.31.374,2.682.74,4.108,1.06,1.443.321,2.94.624,4.508.891q2.326.4,4.865.713c1.684.214,3.422.4,5.239.561,17.223,1.5,39.774.517,66.655-2.415,26.552-2.9,57.068-7.654,90.534-13.757,32.78-5.961,68.2-13.151,105.351-21.072,36.192-7.7,73.881-16.047,112.345-24.565,65.417-14.461,132.83-29.385,200.163-42.866,64.026-12.812,128.188-24.387,191.448-33.2,60.668-8.456,121.167-14.479,181.246-16.786A1270.733,1270.733,0,0,1,2504.067,278.775Z" transform="translate(-381.838 -247.775)" fill="#949494"/>
    </g>
  </g>
</svg>
