<svg xmlns="http://www.w3.org/2000/svg" width="19.328" height="25.127" viewBox="0 0 19.328 25.127">
  <path id="Icon_ionic-ios-lock" data-name="Icon ionic-ios-lock" d="M23.662,12.073h-1.45V9.252a5.8,5.8,0,1,0-11.6-.079v2.9H9.166A2.423,2.423,0,0,0,6.75,14.489v11.6A2.423,2.423,0,0,0,9.166,28.5h14.5a2.423,2.423,0,0,0,2.416-2.416v-11.6A2.423,2.423,0,0,0,23.662,12.073Zm-6.4,7.538v4.156a.866.866,0,0,1-.8.87.847.847,0,0,1-.888-.846v-4.18a1.933,1.933,0,1,1,1.691,0Zm3.262-7.538H12.307v-2.9a4.107,4.107,0,0,1,8.214,0Z" transform="translate(-6.75 -3.374)"/>
</svg>
