<svg xmlns="http://www.w3.org/2000/svg" xmlns:xlink="http://www.w3.org/1999/xlink" width="345.02" height="348.479" viewBox="0 0 345.02 348.479">
  <defs>
    <clipPath id="clip-path">
      <path id="Path_10114" data-name="Path 10114" d="M971.665,259.618l5.506,16.8a4.98,4.98,0,0,0,4.748,3.43L999.6,279.8a5.286,5.286,0,0,1,3.132,9.554l-14.276,10.427a4.987,4.987,0,0,0-1.8,5.577l5.509,16.8a5.288,5.288,0,0,1-8.121,5.934l-14.326-10.356a4.986,4.986,0,0,0-5.859.017l-14.275,10.427a5.284,5.284,0,0,1-8.148-5.886l5.417-16.829a4.985,4.985,0,0,0-1.824-5.567L930.7,289.544a5.286,5.286,0,0,1,3.081-9.571l17.679-.044a4.988,4.988,0,0,0,4.731-3.458l5.417-16.826A5.288,5.288,0,0,1,971.665,259.618Z" transform="translate(-928.5 -255.98)" fill="#d3b25a"/>
    </clipPath>
    <clipPath id="clip-path-2">
      <path id="Path_10117" data-name="Path 10117" d="M998.132,259.741l5.7,17.37a5.149,5.149,0,0,0,4.91,3.547l18.279-.046a5.466,5.466,0,0,1,3.238,9.879l-14.76,10.781a5.155,5.155,0,0,0-1.858,5.767l5.7,17.366a5.468,5.468,0,0,1-8.4,6.135L996.12,319.833a5.15,5.15,0,0,0-6.055.018L975.3,330.632a5.463,5.463,0,0,1-8.425-6.086l5.6-17.4a5.154,5.154,0,0,0-1.886-5.756l-14.817-10.7a5.466,5.466,0,0,1,3.186-9.9l18.279-.046a5.156,5.156,0,0,0,4.892-3.575l5.6-17.4A5.465,5.465,0,0,1,998.132,259.741Z" transform="translate(-953.504 -255.98)" fill="#d3b25a"/>
    </clipPath>
    <clipPath id="clip-path-5">
      <path id="Path_10120" data-name="Path 10120" d="M984.488,275.979l-1.913,25.8a7.281,7.281,0,0,0,4.512,7.285l23.938,9.79a7.738,7.738,0,0,1-1.089,14.675l-25.125,6.147a7.3,7.3,0,0,0-5.536,6.545l-1.913,25.791a7.732,7.732,0,0,1-14.287,3.5l-13.616-21.99a7.285,7.285,0,0,0-7.931-3.245l-25.121,6.152a7.734,7.734,0,0,1-7.742-12.508l16.707-19.743a7.293,7.293,0,0,0,.636-8.547L912.392,293.63A7.733,7.733,0,0,1,921.9,282.4l23.938,9.79a7.294,7.294,0,0,0,8.324-2.037l16.712-19.743A7.733,7.733,0,0,1,984.488,275.979Z" transform="translate(-906.802 -267.654)" fill="#d3b25a"/>
    </clipPath>
    <clipPath id="clip-path-6">
      <path id="Path_10126" data-name="Path 10126" d="M927.283,319.669l-7.7,12.548,1.287,9.988s7.072,1.54,4.5,3.076-7.712,1.536-8.354,0-5.785-16.136-4.5-16.906,4.5-2.306,4.5-2.306l4.5-11.524Z" transform="translate(-912.309 -314.545)" fill="#e8aaad"/>
    </clipPath>
    <clipPath id="clip-path-7">
      <path id="Path_10129" data-name="Path 10129" d="M929.484,314.081v22.283s14.784,6.147,13.5,7.683c0,0-18.64,0-18.64-1.536s.646-6.912.646-6.912l-3.026-20.285Z" transform="translate(-921.961 -314.081)" fill="#e8aaad"/>
    </clipPath>
    <clipPath id="clip-path-8">
      <path id="Path_10140" data-name="Path 10140" d="M948.61,294.443l-23.137,9.989s-6.431,23.823-5.785,29.2,2.569,33.812,1.282,36.118-7.067,26.895-7.067,26.895,8.995,3.841,8.354,3.841,16.712-23.823,17.353-33.042,1.287-13.83,1.287-13.83,10.927,25.354,13.5,42.26l9-1.535s-.641-53.019-4.5-69.925A151.985,151.985,0,0,0,948.61,294.443Z" transform="translate(-913.903 -294.443)" fill="#423392"/>
    </clipPath>
    <clipPath id="clip-path-9">
      <path id="Path_10145" data-name="Path 10145" d="M937.712,312.461a25.731,25.731,0,0,1-4.7-3.051c-1.078-1.163-4.81-5.794-4.139-8.567,0,0,4.8,1.819,6.236-1.993,1.879-4.964-7.181-16.528-9.4-17.174s-7.136-3.643-11.763.094,2.018,19.679,7.027,20.439c0,0,5.377,8.88,3.518,11.753,0,0,7.643,3.255,10.53,1.128S937.712,312.461,937.712,312.461Z" transform="translate(-912.384 -279.927)" fill="#e8aaad"/>
    </clipPath>
    <clipPath id="clip-path-10">
      <path id="Path_10153" data-name="Path 10153" d="M925.66,340.782s4.949-10.893,5.939-12.876-17.826-25.746-17.826-28.718,2.972-14.859,12.876-13.865,24.757,7.921,22.78,13.865-1.983,21.786,0,31.69c1.233,6.182-5.237,10.818-10.286,13.432a9.312,9.312,0,0,1-9.885-.83Z" transform="translate(-913.773 -285.264)" fill="#db2c2c"/>
    </clipPath>
  </defs>
  <g id="Group_10304" data-name="Group 10304" transform="translate(-872.989 -239.535)">
    <g id="Group_7715" data-name="Group 7715" transform="translate(872.989 242.024)">
      <path id="Path_10112" data-name="Path 10112" d="M971.665,259.618l5.506,16.8a4.98,4.98,0,0,0,4.748,3.43L999.6,279.8a5.286,5.286,0,0,1,3.132,9.554l-14.276,10.427a4.987,4.987,0,0,0-1.8,5.577l5.509,16.8a5.288,5.288,0,0,1-8.121,5.934l-14.326-10.356a4.986,4.986,0,0,0-5.859.017l-14.275,10.427a5.284,5.284,0,0,1-8.148-5.886l5.417-16.829a4.985,4.985,0,0,0-1.824-5.567L930.7,289.544a5.286,5.286,0,0,1,3.081-9.571l17.679-.044a4.988,4.988,0,0,0,4.731-3.458l5.417-16.826A5.288,5.288,0,0,1,971.665,259.618Z" transform="translate(-928.5 -255.98)" fill="#d3b25a"/>
      <g id="Group_7714" data-name="Group 7714" clip-path="url(#clip-path)">
        <path id="Path_10113" data-name="Path 10113" d="M971.288,259.286l5.506,16.8a4.988,4.988,0,0,0,4.748,3.43l17.679-.048a5.285,5.285,0,0,1,3.132,9.554l-14.275,10.431a4.978,4.978,0,0,0-1.793,5.574l5.506,16.8a5.285,5.285,0,0,1-8.117,5.93L969.341,317.4a4.985,4.985,0,0,0-5.859.017l-14.275,10.427a5.286,5.286,0,0,1-8.148-5.889l5.417-16.826a4.983,4.983,0,0,0-1.824-5.567l-14.33-10.352a5.287,5.287,0,0,1,3.084-9.571l17.679-.048a4.978,4.978,0,0,0,4.728-3.454l5.421-16.826A5.285,5.285,0,0,1,971.288,259.286Z" transform="translate(-929.407 -256.779)" fill="#ecc649"/>
      </g>
    </g>
    <g id="Group_7717" data-name="Group 7717" transform="translate(957.461 239.535)">
      <path id="Path_10115" data-name="Path 10115" d="M998.132,259.741l5.7,17.37a5.149,5.149,0,0,0,4.91,3.547l18.279-.046a5.466,5.466,0,0,1,3.238,9.879l-14.76,10.781a5.155,5.155,0,0,0-1.858,5.767l5.7,17.366a5.468,5.468,0,0,1-8.4,6.135L996.12,319.833a5.15,5.15,0,0,0-6.055.018L975.3,330.632a5.463,5.463,0,0,1-8.425-6.086l5.6-17.4a5.154,5.154,0,0,0-1.886-5.756l-14.817-10.7a5.466,5.466,0,0,1,3.186-9.9l18.279-.046a5.156,5.156,0,0,0,4.892-3.575l5.6-17.4A5.465,5.465,0,0,1,998.132,259.741Z" transform="translate(-953.504 -255.98)" fill="#d3b25a"/>
      <g id="Group_7716" data-name="Group 7716" clip-path="url(#clip-path-2)">
        <path id="Path_10116" data-name="Path 10116" d="M997.757,259.409l5.693,17.37a5.157,5.157,0,0,0,4.91,3.547l18.279-.049a5.466,5.466,0,0,1,3.238,9.879l-14.76,10.785a5.148,5.148,0,0,0-1.854,5.763l5.693,17.37a5.464,5.464,0,0,1-8.393,6.132l-14.816-10.7a5.156,5.156,0,0,0-6.058.018L974.927,330.3a5.466,5.466,0,0,1-8.425-6.09l5.6-17.4a5.152,5.152,0,0,0-1.886-5.756l-14.816-10.7a5.466,5.466,0,0,1,3.189-9.9l18.279-.049a5.148,5.148,0,0,0,4.888-3.572l5.605-17.4A5.465,5.465,0,0,1,997.757,259.409Z" transform="translate(-954.453 -256.817)" fill="#ecc649"/>
      </g>
    </g>
    <g id="Group_7882" data-name="Group 7882" transform="translate(1048.234 239.535)">
      <path id="Path_10115-2" data-name="Path 10115" d="M998.132,259.741l5.7,17.37a5.149,5.149,0,0,0,4.91,3.547l18.279-.046a5.466,5.466,0,0,1,3.238,9.879l-14.76,10.781a5.155,5.155,0,0,0-1.858,5.767l5.7,17.366a5.468,5.468,0,0,1-8.4,6.135L996.12,319.833a5.15,5.15,0,0,0-6.055.018L975.3,330.632a5.463,5.463,0,0,1-8.425-6.086l5.6-17.4a5.154,5.154,0,0,0-1.886-5.756l-14.817-10.7a5.466,5.466,0,0,1,3.186-9.9l18.279-.046a5.156,5.156,0,0,0,4.892-3.575l5.6-17.4A5.465,5.465,0,0,1,998.132,259.741Z" transform="translate(-953.504 -255.98)" fill="#d3b25a"/>
      <g id="Group_7716-2" data-name="Group 7716" clip-path="url(#clip-path-2)">
        <path id="Path_10116-2" data-name="Path 10116" d="M997.757,259.409l5.693,17.37a5.157,5.157,0,0,0,4.91,3.547l18.279-.049a5.466,5.466,0,0,1,3.238,9.879l-14.76,10.785a5.148,5.148,0,0,0-1.854,5.763l5.693,17.37a5.464,5.464,0,0,1-8.393,6.132l-14.816-10.7a5.156,5.156,0,0,0-6.058.018L974.927,330.3a5.466,5.466,0,0,1-8.425-6.09l5.6-17.4a5.152,5.152,0,0,0-1.886-5.756l-14.816-10.7a5.466,5.466,0,0,1,3.189-9.9l18.279-.049a5.148,5.148,0,0,0,4.888-3.572l5.605-17.4A5.465,5.465,0,0,1,997.757,259.409Z" transform="translate(-954.453 -256.817)" fill="#ecc649"/>
      </g>
    </g>
    <g id="Group_7883" data-name="Group 7883" transform="translate(1139.007 239.535)">
      <path id="Path_10115-3" data-name="Path 10115" d="M998.132,259.741l5.7,17.37a5.149,5.149,0,0,0,4.91,3.547l18.279-.046a5.466,5.466,0,0,1,3.238,9.879l-14.76,10.781a5.155,5.155,0,0,0-1.858,5.767l5.7,17.366a5.468,5.468,0,0,1-8.4,6.135L996.12,319.833a5.15,5.15,0,0,0-6.055.018L975.3,330.632a5.463,5.463,0,0,1-8.425-6.086l5.6-17.4a5.154,5.154,0,0,0-1.886-5.756l-14.817-10.7a5.466,5.466,0,0,1,3.186-9.9l18.279-.046a5.156,5.156,0,0,0,4.892-3.575l5.6-17.4A5.465,5.465,0,0,1,998.132,259.741Z" transform="translate(-953.504 -255.98)" fill="#d3b25a"/>
      <g id="Group_7716-3" data-name="Group 7716" clip-path="url(#clip-path-2)">
        <path id="Path_10116-3" data-name="Path 10116" d="M997.757,259.409l5.693,17.37a5.157,5.157,0,0,0,4.91,3.547l18.279-.049a5.466,5.466,0,0,1,3.238,9.879l-14.76,10.785a5.148,5.148,0,0,0-1.854,5.763l5.693,17.37a5.464,5.464,0,0,1-8.393,6.132l-14.816-10.7a5.156,5.156,0,0,0-6.058.018L974.927,330.3a5.466,5.466,0,0,1-8.425-6.09l5.6-17.4a5.152,5.152,0,0,0-1.886-5.756l-14.816-10.7a5.466,5.466,0,0,1,3.189-9.9l18.279-.049a5.148,5.148,0,0,0,4.888-3.572l5.605-17.4A5.465,5.465,0,0,1,997.757,259.409Z" transform="translate(-954.453 -256.817)" fill="#ecc649"/>
      </g>
    </g>
    <g id="Group_7739" data-name="Group 7739" transform="translate(993.72 323.104)">
      <g id="Group_7720" data-name="Group 7720">
        <g id="Group_7719" data-name="Group 7719">
          <path id="Path_10118" data-name="Path 10118" d="M984.488,275.979l-1.913,25.8a7.281,7.281,0,0,0,4.512,7.285l23.938,9.79a7.738,7.738,0,0,1-1.089,14.675l-25.125,6.147a7.3,7.3,0,0,0-5.536,6.545l-1.913,25.791a7.732,7.732,0,0,1-14.287,3.5l-13.616-21.99a7.285,7.285,0,0,0-7.931-3.245l-25.121,6.152a7.734,7.734,0,0,1-7.742-12.508l16.707-19.743a7.293,7.293,0,0,0,.636-8.547L912.392,293.63A7.733,7.733,0,0,1,921.9,282.4l23.938,9.79a7.294,7.294,0,0,0,8.324-2.037l16.712-19.743A7.733,7.733,0,0,1,984.488,275.979Z" transform="translate(-906.802 -267.654)" fill="#d3b25a"/>
          <g id="Group_7718" data-name="Group 7718" clip-path="url(#clip-path-5)">
            <path id="Path_10119" data-name="Path 10119" d="M984.271,275.527l-1.914,25.8a7.284,7.284,0,0,0,4.507,7.285l23.943,9.79a7.738,7.738,0,0,1-1.088,14.675l-25.125,6.147a7.294,7.294,0,0,0-5.536,6.545l-1.913,25.791a7.732,7.732,0,0,1-14.287,3.5l-13.616-21.99a7.285,7.285,0,0,0-7.931-3.245l-25.125,6.152a7.735,7.735,0,0,1-7.742-12.508l16.712-19.743a7.292,7.292,0,0,0,.631-8.547l-13.611-21.995a7.735,7.735,0,0,1,9.5-11.231l23.942,9.795a7.294,7.294,0,0,0,8.324-2.037l16.712-19.744A7.734,7.734,0,0,1,984.271,275.527Z" transform="translate(-907.688 -269.448)" fill="#ecc649"/>
          </g>
        </g>
        <path id="Path_10121" data-name="Path 10121" d="M913,279.663c2.6.547,5.153,1.257,7.683,2.017.313.095.636.194.929.258l.448.119.452.09a10.715,10.715,0,0,0,5.422-.427,10.082,10.082,0,0,0,3.19-1.739,9.741,9.741,0,0,0,1.337-1.262l.308-.348.313-.383.636-.755c1.695-2.027,3.439-4.015,5.312-5.9-1.317,2.311-2.768,4.522-4.268,6.694-.387.557-.711,1.078-1.168,1.64a11.176,11.176,0,0,1-1.451,1.535,11.116,11.116,0,0,1-7.852,2.7,11.794,11.794,0,0,1-2.087-.323l-.512-.129-.5-.169c-.338-.119-.641-.244-.944-.373C917.8,281.914,915.375,280.865,913,279.663Z" transform="translate(-882.2 -253.065)" fill="#fff" opacity="0.53"/>
        <path id="Path_10122" data-name="Path 10122" d="M919.761,273.68c-1.312-.393-2.619-.85-3.921-1.322-.164-.06-.328-.119-.477-.169l-.229-.075-.224-.065a6.764,6.764,0,0,0-.9-.189,5.022,5.022,0,0,0-1.64.015,3.075,3.075,0,0,0-1.307.517,2.151,2.151,0,0,0-.487.432l-.1.124-.1.139-.209.268a21.173,21.173,0,0,1-1.809,2.092,20.523,20.523,0,0,1,1.212-2.485,5.412,5.412,0,0,1,.353-.6,2.575,2.575,0,0,1,.5-.537,3.338,3.338,0,0,1,1.491-.636,5.731,5.731,0,0,1,1.928.02,8.189,8.189,0,0,1,1.039.268l.259.084.258.1c.179.07.338.139.5.209C917.187,272.443,918.479,273.029,919.761,273.68Z" transform="translate(-900.634 -253.901)" fill="#fff" opacity="0.53"/>
        <path id="Path_10123" data-name="Path 10123" d="M913.57,282.371c-.994.944-2.037,1.849-3.1,2.738-.134.109-.269.224-.383.328l-.184.159-.169.164a6.387,6.387,0,0,0-.606.686,4.956,4.956,0,0,0-.81,1.431,3.153,3.153,0,0,0-.208,1.391,2.4,2.4,0,0,0,.134.631l.06.154.065.154.129.318a20.482,20.482,0,0,1,.909,2.609,20.93,20.93,0,0,1-1.546-2.286,5.178,5.178,0,0,1-.343-.611,2.56,2.56,0,0,1-.219-.7,3.417,3.417,0,0,1,.194-1.61,5.81,5.81,0,0,1,.984-1.655,7.774,7.774,0,0,1,.75-.77l.2-.184.218-.169c.149-.119.288-.223.432-.328C911.215,283.986,912.368,283.161,913.57,282.371Z" transform="translate(-904.944 -209.235)" fill="#fff" opacity="0.53"/>
      </g>
      <g id="Group_7722" data-name="Group 7722" transform="translate(27.365 233.022)">
        <path id="Path_10124" data-name="Path 10124" d="M927.283,319.669l-7.7,12.548,1.287,9.988s7.072,1.54,4.5,3.076-7.712,1.536-8.354,0-5.785-16.136-4.5-16.906,4.5-2.306,4.5-2.306l4.5-11.524Z" transform="translate(-912.309 -314.545)" fill="#e8aaad"/>
        <g id="Group_7721" data-name="Group 7721" clip-path="url(#clip-path-6)">
          <path id="Path_10125" data-name="Path 10125" d="M922.12,327.314l-.646-3.076s-2.569,0-2.569-2.306.641-5.377-2.574-5.377-4.5,9.223-4.5,9.223l3.215,9.988,3.216,3.841h8.994L929.832,335Z" transform="translate(-914.197 -306.567)" fill="#6971ba"/>
        </g>
      </g>
      <g id="Group_7724" data-name="Group 7724" transform="translate(75.326 230.716)">
        <path id="Path_10127" data-name="Path 10127" d="M929.484,314.081v22.283s14.784,6.147,13.5,7.683c0,0-18.64,0-18.64-1.536s.646-6.912.646-6.912l-3.026-20.285Z" transform="translate(-921.961 -314.081)" fill="#e8aaad"/>
        <g id="Group_7723" data-name="Group 7723" clip-path="url(#clip-path-7)">
          <path id="Path_10128" data-name="Path 10128" d="M926.931,319.791s2.569-.765,3.215.77S934,318.256,934,318.256l16.712,6.917-5.784,7.683-23.784-5.382Z" transform="translate(-925.192 -297.508)" fill="#6971ba"/>
        </g>
      </g>
      <g id="Group_7734" data-name="Group 7734" transform="translate(35.288 133.127)">
        <path id="Path_10130" data-name="Path 10130" d="M948.61,294.443l-23.137,9.989s-6.431,23.823-5.785,29.2,2.569,33.812,1.282,36.118-7.067,26.895-7.067,26.895,8.995,3.841,8.354,3.841,16.712-23.823,17.353-33.042,1.287-13.83,1.287-13.83,10.927,25.354,13.5,42.26l9-1.535s-.641-53.019-4.5-69.925A151.985,151.985,0,0,0,948.61,294.443Z" transform="translate(-913.903 -294.443)" fill="#423392"/>
        <g id="Group_7733" data-name="Group 7733" clip-path="url(#clip-path-8)">
          <path id="Path_10131" data-name="Path 10131" d="M921.9,332.756l-2.569-9.218,1.287-21.518s1.282,9.223,2.569,9.989,1.287,3.841,0,5.382-1.287,7.683-1.287,7.683,2.574,11.524,0,10.759S921.9,332.756,921.9,332.756Z" transform="translate(-892.342 -264.367)" fill="#5283bc" opacity="0.55" style="mix-blend-mode: multiply;isolation: isolate"/>
          <g id="Group_7725" data-name="Group 7725" transform="translate(41.136 9.989)" opacity="0.16" style="mix-blend-mode: multiply;isolation: isolate">
            <path id="Path_10132" data-name="Path 10132" d="M923.3,298.759h-.159a1.171,1.171,0,0,1,0-2.306h.159a1.171,1.171,0,0,1,0,2.306Z" transform="translate(-922.181 -296.453)" fill="#5283bc"/>
          </g>
          <g id="Group_7726" data-name="Group 7726" transform="translate(4.576 6.723)" opacity="0.16" style="mix-blend-mode: multiply;isolation: isolate">
            <path id="Path_10133" data-name="Path 10133" d="M926.577,296.159c-.6,4.209-1.3,8.8-4.02,11.857-2.1,2.366-5.029,3.086-7.613,1.456-.273-.174-.03-.671.243-.5,3.419,2.157,6.912-.283,8.7-3.916,1.347-2.748,1.789-5.963,2.226-9.054.055-.368.517-.209.468.154Z" transform="translate(-914.824 -295.796)" fill="#405dbb"/>
          </g>
          <g id="Group_7727" data-name="Group 7727" transform="translate(24.57 -3.666)" opacity="0.16" style="mix-blend-mode: multiply;isolation: isolate">
            <path id="Path_10134" data-name="Path 10134" d="M934.624,307.29c-7.146-.283-11.713-6.863-15.728-13.174a.254.254,0,1,1,.417-.288c3.9,6.127,8.319,12.607,15.311,12.886.308.015.308.591,0,.576Z" transform="translate(-918.848 -293.705)" fill="#405dbb"/>
          </g>
          <g id="Group_7728" data-name="Group 7728" transform="translate(-2.004 0.783)" opacity="0.16" style="mix-blend-mode: multiply;isolation: isolate">
            <path id="Path_10135" data-name="Path 10135" d="M953.828,295.139a68.962,68.962,0,0,1-40.093,12.985c-.313,0-.313-.576,0-.576a68.486,68.486,0,0,0,39.85-12.906c.268-.189.512.313.243.5Z" transform="translate(-913.5 -294.6)" fill="#405dbb"/>
          </g>
          <g id="Group_7729" data-name="Group 7729" transform="translate(25.946 4.148)" opacity="0.16" style="mix-blend-mode: multiply;isolation: isolate">
            <path id="Path_10136" data-name="Path 10136" d="M919.958,299.081a18.754,18.754,0,0,0-.815-3.459.245.245,0,1,1,.462-.154,18.33,18.33,0,0,1,.82,3.459c.05.363-.417.517-.467.154Z" transform="translate(-919.124 -295.278)" fill="#405dbb"/>
          </g>
          <g id="Group_7730" data-name="Group 7730" transform="translate(20.642 4.329)" opacity="0.16" style="mix-blend-mode: multiply;isolation: isolate">
            <path id="Path_10137" data-name="Path 10137" d="M919.986,300.675a27.688,27.688,0,0,0-1.894-4.935c-.159-.318.259-.606.418-.288a28.239,28.239,0,0,1,1.938,5.069.245.245,0,1,1-.462.154Z" transform="translate(-918.057 -295.314)" fill="#405dbb"/>
          </g>
          <g id="Group_7731" data-name="Group 7731" transform="translate(-4.488 12.251)" opacity="0.16" style="mix-blend-mode: multiply;isolation: isolate">
            <path id="Path_10138" data-name="Path 10138" d="M934.246,297.27a163.5,163.5,0,0,0-2.684,28.112q-.052,6.925.5,13.83c.358,4.537,1.029,9.1.706,13.671-.542,7.618-4.229,14.764-7.419,21.2A158.472,158.472,0,0,1,913.4,394.248c-.2.283-.537-.124-.338-.407a157.958,157.958,0,0,0,12.16-20.643c4.021-8.2,7.628-16.275,7.032-26.06-.517-8.513-1.367-16.836-1.108-25.4a165,165,0,0,1,2.639-24.623c.065-.363.532-.209.462.154Z" transform="translate(-913.001 -296.909)" fill="#405dbb"/>
          </g>
          <g id="Group_7732" data-name="Group 7732" transform="translate(33.821 7.402)" opacity="0.16" style="mix-blend-mode: multiply;isolation: isolate">
            <path id="Path_10139" data-name="Path 10139" d="M935.991,365.761c-.154-24.787-4.507-48.019-15.246-69.4-.159-.318.258-.611.417-.293,10.774,21.453,15.156,44.819,15.311,69.691a.243.243,0,1,1-.482,0Z" transform="translate(-920.709 -295.933)" fill="#405dbb"/>
          </g>
        </g>
      </g>
      <path id="Path_10141" data-name="Path 10141" d="M921.793,318.692h11.57v-4.611l-11.57,1.537Z" transform="translate(-847.299 -83.365)" fill="#53477b"/>
      <path id="Path_10142" data-name="Path 10142" d="M913.607,316.987l10,6.953,1.939-3.986L914.9,314.33Z" transform="translate(-879.793 -82.376)" fill="#452f96"/>
      <g id="Group_7736" data-name="Group 7736" transform="translate(27.74 60.992)">
        <path id="Path_10143" data-name="Path 10143" d="M937.712,312.461a25.731,25.731,0,0,1-4.7-3.051c-1.078-1.163-4.81-5.794-4.139-8.567,0,0,4.8,1.819,6.236-1.993,1.879-4.964-7.181-16.528-9.4-17.174s-7.136-3.643-11.763.094,2.018,19.679,7.027,20.439c0,0,5.377,8.88,3.518,11.753,0,0,7.643,3.255,10.53,1.128S937.712,312.461,937.712,312.461Z" transform="translate(-912.384 -279.927)" fill="#e8aaad"/>
        <g id="Group_7735" data-name="Group 7735" clip-path="url(#clip-path-9)">
          <path id="Path_10144" data-name="Path 10144" d="M920.3,286.779l-1.073-1.163s-3.335-.691-4.408-1.854c0,0,2.664,3.464,4.9,3.553S920.3,286.779,920.3,286.779Z" transform="translate(-902.736 -264.701)" fill="#866e4f" opacity="0.29" style="mix-blend-mode: multiply;isolation: isolate"/>
        </g>
      </g>
      <path id="Path_10146" data-name="Path 10146" d="M917.45,282.461a1.615,1.615,0,0,0-.879-.5,1.484,1.484,0,0,0-1.079.174,1.785,1.785,0,0,0-.68.825,3.593,3.593,0,0,0-.129.492,3.417,3.417,0,0,0-.01.5,4.765,4.765,0,0,0,.268-.408l.253-.373a2.31,2.31,0,0,1,.587-.561A2.42,2.42,0,0,1,917.45,282.461Z" transform="translate(-875.588 -211.01)" fill="#6c543b"/>
      <path id="Path_10147" data-name="Path 10147" d="M917.684,281.9a1.165,1.165,0,0,0-.626-.353,1.047,1.047,0,0,0-.765.119,1.25,1.25,0,0,0-.482.586,2.3,2.3,0,0,0-.094.348c0,.124-.015.239,0,.358.134-.2.248-.388.372-.557a1.56,1.56,0,0,1,.413-.4A1.722,1.722,0,0,1,917.684,281.9Z" transform="translate(-871.449 -212.615)" fill="#6c543b"/>
      <path id="Path_10148" data-name="Path 10148" d="M917.973,281.8a2.118,2.118,0,0,0-1.213-.656,1.4,1.4,0,0,0-.715-.02,1.106,1.106,0,0,0-.591.423l.02.05a2.394,2.394,0,0,0,.666.079,5.908,5.908,0,0,0,.586-.089,2.379,2.379,0,0,1,1.208.253Z" transform="translate(-872.463 -214.349)" fill="#354f5f"/>
      <path id="Path_10149" data-name="Path 10149" d="M914.619,283.709a2.4,2.4,0,0,1,.333-1.188,5.176,5.176,0,0,0,.348-.482,2.381,2.381,0,0,0,.243-.626l-.039-.04a1.109,1.109,0,0,0-.646.328,1.44,1.44,0,0,0-.318.646,2.138,2.138,0,0,0,.025,1.376Z" transform="translate(-876.494 -213.192)" fill="#354f5f"/>
      <path id="Path_10150" data-name="Path 10150" d="M919.505,283.187l-3.955.964a6.872,6.872,0,0,0,2.748,1.227C919.421,285.423,919.505,283.187,919.505,283.187Z" transform="translate(-872.083 -205.996)" fill="#ecf1f1"/>
      <g id="Group_7738" data-name="Group 7738" transform="translate(34.646 87.513)">
        <path id="Path_10151" data-name="Path 10151" d="M925.66,340.782s4.949-10.893,5.939-12.876-17.826-25.746-17.826-28.718,2.972-14.859,12.876-13.865,24.757,7.921,22.78,13.865-1.983,21.786,0,31.69c1.233,6.182-5.237,10.818-10.286,13.432a9.312,9.312,0,0,1-9.885-.83Z" transform="translate(-913.773 -285.264)" fill="#db2c2c"/>
        <g id="Group_7737" data-name="Group 7737" clip-path="url(#clip-path-10)">
          <path id="Path_10152" data-name="Path 10152" d="M947.256,288.8c-1.118.562-19.574,6.465-22.939,5.471h0s7.265,19.719-3.37,26.994-6.157-27.426-6.157-27.426L933.9,286.2Z" transform="translate(-913.454 -281.554)" fill="#99374f" opacity="0.23" style="mix-blend-mode: multiply;isolation: isolate"/>
        </g>
      </g>
      <path id="Path_10154" data-name="Path 10154" d="M963.423,277.564c-1.983-.989.989,7.921-1.983,9.9s-23.769,19.808-23.769,19.808a174.587,174.587,0,0,0-19.654,7.3c-.6,2.584-.631,6.868,3.886,10.58,8.582-2.887,17.6-6.411,18.74-6.982,1.978-.989,26.74-28.718,28.723-30.7S965.4,278.553,963.423,277.564Z" transform="translate(-863.409 -228.619)" fill="#e8aaad"/>
      <path id="Path_10155" data-name="Path 10155" d="M932.59,284.95a127.35,127.35,0,0,0-17.284,9.024c-3.27,4.438.293,5.466,6.237,5.466,2.519,0,8.607-1.784,14.933-3.911C931.959,291.818,931.988,287.534,932.59,284.95Z" transform="translate(-877.981 -198.998)" fill="#fe2828"/>
      <path id="Path_10156" data-name="Path 10156" d="M937.272,283.456a2.91,2.91,0,0,0-2.971,2.972c0,2.972,17.825,36.644,7.921,50.509s-31.69,12.876-33.672,2.972,11.887-7.921,7.921-14.854-6.932-10.9,2.972-14.859,8.915-6.932,4.954-12.876-.994-18.814,10.893-16.836a21.625,21.625,0,0,1,5.944-.989c2.972,0,3.658,6.739,3.658,6.739S939.251,280.485,937.272,283.456Z" transform="translate(-900.644 -220.647)" fill="#1f3054"/>
    </g>
  </g>
</svg>
