<svg xmlns="http://www.w3.org/2000/svg" width="39.642" height="19.18" viewBox="0 0 39.642 19.18">
  <g id="Group_6246" data-name="Group 6246" transform="translate(-348.089 -498.346)">
    <path id="Path_11409" data-name="Path 11409" d="M387.732,506.54c-.166.293-.391.492-.751.383s-.415-.408-.414-.741q.007-2.594,0-5.187a1.32,1.32,0,0,0-1.475-1.485q-17.187,0-34.374,0A1.32,1.32,0,0,0,349.253,501q0,3.5,0,7.006a1.324,1.324,0,0,0,1.517,1.515q5.864,0,11.729,0h9.445c.6,0,.875.176.885.568s-.276.6-.9.6q-10.548,0-21.1,0a2.494,2.494,0,0,1-2.744-2.763q0-3.445,0-6.89a2.487,2.487,0,0,1,2.7-2.692H384.74c1.751,0,2.4.452,2.991,2.078Z" transform="translate(0 0)" fill="#8f8f8f"/>
    <path id="Path_11410" data-name="Path 11410" d="M477.694,548.636a1.808,1.808,0,0,0-1.765-1.348,1.827,1.827,0,0,0-1.7,1.182,1.681,1.681,0,0,0,.531,1.983,1.145,1.145,0,0,1,.621,1.19c-.029.309.224.49.525.509a.539.539,0,0,0,.578-.412,1.342,1.342,0,0,0,.034-.537.471.471,0,0,1,.306-.527A1.771,1.771,0,0,0,477.694,548.636Zm-1.74,1.12a.66.66,0,0,1-.664-.62.638.638,0,0,1,.634-.679.657.657,0,0,1,.673.647A.685.685,0,0,1,475.954,549.756Z" transform="translate(-95.615 -37.133)" fill="#8f8f8f"/>
    <path id="Path_11411" data-name="Path 11411" d="M468.449,521.2a1.447,1.447,0,0,0-.67-1.361c-.591-.3-.6-.733-.572-1.249a1.375,1.375,0,0,0-.006-.154,4.926,4.926,0,0,0-9.344-1.863,5.4,5.4,0,0,0-.5,2.59c0,.143.05.294-.149.388a1.878,1.878,0,0,0-1.1,1.912c.018,1.909,0,3.818.007,5.726a1.858,1.858,0,0,0,2.055,2.058q2.051,0,4.1,0c1.406,0,2.812.009,4.218,0a1.826,1.826,0,0,0,1.95-1.854C468.464,525.326,468.456,523.262,468.449,521.2Zm-7.79-5.849a3.771,3.771,0,0,1,5.147,2.073,5.007,5.007,0,0,1,.252,1.669c0,.236-.063.3-.3.3-1.16-.012-2.319-.006-3.478-.006-1.134,0-2.268-.012-3.4.008-.3.006-.351-.086-.355-.365A3.79,3.79,0,0,1,460.659,515.349ZM467.29,527.2c0,.643-.239.88-.89.881q-2.05,0-4.1,0t-4.1,0c-.689,0-.91-.217-.911-.892q0-2.881,0-5.762c0-.667.207-.873.883-.873q4.119,0,8.238,0c.662,0,.881.222.881.882Q467.293,524.318,467.29,527.2Z" transform="translate(-81.961 -11.724)" fill="#8f8f8f"/>
    <path id="Path_11412" data-name="Path 11412" d="M428.79,513.315c0-.507-.007-.93,0-1.352.01-.438.217-.685.562-.7s.588.25.6.7c.011.422,0,.845,0,1.337.453-.258.849-.488,1.249-.709a.579.579,0,0,1,.657.027.549.549,0,0,1,.213.583.64.64,0,0,1-.358.43l-1.179.685c.406.236.771.443,1.131.658.414.246.53.563.335.889-.177.294-.52.339-.917.115-.357-.2-.711-.405-1.133-.645,0,.49.006.921,0,1.351a.6.6,0,0,1-.421.661.559.559,0,0,1-.732-.564c-.022-.459,0-.919,0-1.452-.431.245-.793.455-1.159.659-.392.219-.739.164-.91-.14-.182-.323-.073-.622.324-.86.362-.217.728-.426,1.147-.67-.4-.236-.765-.443-1.123-.656-.422-.251-.539-.562-.341-.885.185-.3.517-.348.917-.123C428.008,512.862,428.362,513.069,428.79,513.315Z" transform="translate(-59.597 -9.804)" fill="#8f8f8f"/>
    <path id="Path_11413" data-name="Path 11413" d="M399.684,514.344c.42.245.786.453,1.147.669.4.239.51.535.332.858-.169.307-.52.367-.908.15-.368-.206-.733-.419-1.162-.665,0,.477,0,.894,0,1.311-.006.478-.194.719-.558.729s-.6-.247-.6-.733c-.007-.411,0-.823,0-1.3-.408.231-.771.439-1.137.643-.395.221-.741.173-.914-.125-.188-.323-.065-.643.346-.887.343-.2.688-.4,1.032-.6.01-.006.014-.02.05-.072-.36-.209-.719-.416-1.075-.627-.416-.246-.543-.566-.356-.882s.525-.354.947-.116c.345.2.688.393,1.107.633,0-.409,0-.76,0-1.11a2.717,2.717,0,0,1,.043-.5.561.561,0,0,1,1.1.072c.023.411.025.825.014,1.237-.006.259.063.291.276.157.305-.191.618-.371.935-.542a.587.587,0,0,1,.868.189.578.578,0,0,1-.286.813C400.51,513.878,400.127,514.088,399.684,514.344Z" transform="translate(-36.192 -9.826)" fill="#8f8f8f"/>
    <path id="Path_11414" data-name="Path 11414" d="M366.5,514.344c-.439-.255-.821-.468-1.194-.695a.583.583,0,1,1,.573-1c.382.208.757.431,1.2.685,0-.453,0-.856,0-1.258a.9.9,0,0,1,.09-.488.537.537,0,0,1,.621-.273.527.527,0,0,1,.448.548c.01.464,0,.928,0,1.421a3.122,3.122,0,0,0,.784-.394c.149-.076.288-.17.437-.247a.6.6,0,0,1,.847.169.585.585,0,0,1-.284.842c-.373.227-.755.439-1.157.671a6.565,6.565,0,0,0,.881.554c.128.085.272.149.393.243a.57.57,0,0,1-.6.967c-.422-.215-.827-.463-1.3-.731,0,.482,0,.911,0,1.34-.005.452-.223.708-.588.7-.344-.006-.564-.262-.573-.688s0-.85,0-1.344c-.442.25-.843.486-1.253.7a.574.574,0,0,1-.787-.166.587.587,0,0,1,.182-.813,3.3,3.3,0,0,1,.3-.18Z" transform="translate(-12.784 -9.825)" fill="#8f8f8f"/>
    <path id="Path_11415" data-name="Path 11415" d="M477.694,548.636a1.808,1.808,0,0,0-1.765-1.348,1.827,1.827,0,0,0-1.7,1.182,1.681,1.681,0,0,0,.531,1.983,1.145,1.145,0,0,1,.621,1.19c-.029.309.224.49.525.509a.539.539,0,0,0,.578-.412,1.342,1.342,0,0,0,.034-.537.471.471,0,0,1,.306-.527A1.771,1.771,0,0,0,477.694,548.636Zm-1.74,1.12a.66.66,0,0,1-.664-.62.638.638,0,0,1,.634-.679.657.657,0,0,1,.673.647A.685.685,0,0,1,475.954,549.756Z" transform="translate(-95.615 -37.133)" fill="#8f8f8f"/>
    <path id="Path_11416" data-name="Path 11416" d="M477.694,548.636a1.808,1.808,0,0,0-1.765-1.348,1.827,1.827,0,0,0-1.7,1.182,1.681,1.681,0,0,0,.531,1.983,1.145,1.145,0,0,1,.621,1.19c-.029.309.224.49.525.509a.539.539,0,0,0,.578-.412,1.342,1.342,0,0,0,.034-.537.471.471,0,0,1,.306-.527A1.771,1.771,0,0,0,477.694,548.636Zm-1.74,1.12a.66.66,0,0,1-.664-.62.638.638,0,0,1,.634-.679.657.657,0,0,1,.673.647A.685.685,0,0,1,475.954,549.756Z" transform="translate(-95.615 -37.133)" fill="#8f8f8f"/>
  </g>
</svg>
