<svg xmlns="http://www.w3.org/2000/svg" xmlns:xlink="http://www.w3.org/1999/xlink" width="1654.207" height="455.376" viewBox="0 0 1654.207 455.376">
  <defs>
    <clipPath id="clip-path">
      <rect width="1550.232" height="31.001" fill="none"/>
    </clipPath>
  </defs>
  <g id="Group_9036" data-name="Group 9036" transform="translate(26.968 -5157.505)">
    <path id="Path_11393" data-name="Path 11393" d="M0,0,1653.653,2.1l.554,453.281L.554,453.281Z" transform="translate(-26.968 5157.505)" opacity="0.7"/>
    <g id="Repeat_Grid_1" data-name="Repeat Grid 1" transform="translate(24.916 5178.982)" clip-path="url(#clip-path)">
      <g transform="translate(-50.017 -4583.489)">
        <rect id="Rectangle_4430" data-name="Rectangle 4430" width="47" height="31" rx="6" transform="translate(50.017 4583.489)" fill="#fff"/>
      </g>
      <g transform="translate(29.983 -4583.489)">
        <rect id="Rectangle_4430-2" data-name="Rectangle 4430" width="47" height="31" rx="6" transform="translate(50.017 4583.489)" fill="#fff"/>
      </g>
      <g transform="translate(109.983 -4583.489)">
        <rect id="Rectangle_4430-3" data-name="Rectangle 4430" width="47" height="31" rx="6" transform="translate(50.017 4583.489)" fill="#fff"/>
      </g>
      <g transform="translate(189.983 -4583.489)">
        <rect id="Rectangle_4430-4" data-name="Rectangle 4430" width="47" height="31" rx="6" transform="translate(50.017 4583.489)" fill="#fff"/>
      </g>
      <g transform="translate(269.983 -4583.489)">
        <rect id="Rectangle_4430-5" data-name="Rectangle 4430" width="47" height="31" rx="6" transform="translate(50.017 4583.489)" fill="#fff"/>
      </g>
      <g transform="translate(349.983 -4583.489)">
        <rect id="Rectangle_4430-6" data-name="Rectangle 4430" width="47" height="31" rx="6" transform="translate(50.017 4583.489)" fill="#fff"/>
      </g>
      <g transform="translate(429.983 -4583.489)">
        <rect id="Rectangle_4430-7" data-name="Rectangle 4430" width="47" height="31" rx="6" transform="translate(50.017 4583.489)" fill="#fff"/>
      </g>
      <g transform="translate(509.983 -4583.489)">
        <rect id="Rectangle_4430-8" data-name="Rectangle 4430" width="47" height="31" rx="6" transform="translate(50.017 4583.489)" fill="#fff"/>
      </g>
      <g transform="translate(589.983 -4583.489)">
        <rect id="Rectangle_4430-9" data-name="Rectangle 4430" width="47" height="31" rx="6" transform="translate(50.017 4583.489)" fill="#fff"/>
      </g>
      <g transform="translate(669.983 -4583.489)">
        <rect id="Rectangle_4430-10" data-name="Rectangle 4430" width="47" height="31" rx="6" transform="translate(50.017 4583.489)" fill="#fff"/>
      </g>
      <g transform="translate(749.983 -4583.489)">
        <rect id="Rectangle_4430-11" data-name="Rectangle 4430" width="47" height="31" rx="6" transform="translate(50.017 4583.489)" fill="#fff"/>
      </g>
      <g transform="translate(829.983 -4583.489)">
        <rect id="Rectangle_4430-12" data-name="Rectangle 4430" width="47" height="31" rx="6" transform="translate(50.017 4583.489)" fill="#fff"/>
      </g>
      <g transform="translate(909.983 -4583.489)">
        <rect id="Rectangle_4430-13" data-name="Rectangle 4430" width="47" height="31" rx="6" transform="translate(50.017 4583.489)" fill="#fff"/>
      </g>
      <g transform="translate(989.983 -4583.489)">
        <rect id="Rectangle_4430-14" data-name="Rectangle 4430" width="47" height="31" rx="6" transform="translate(50.017 4583.489)" fill="#fff"/>
      </g>
      <g transform="translate(1069.983 -4583.489)">
        <rect id="Rectangle_4430-15" data-name="Rectangle 4430" width="47" height="31" rx="6" transform="translate(50.017 4583.489)" fill="#fff"/>
      </g>
      <g transform="translate(1149.983 -4583.489)">
        <rect id="Rectangle_4430-16" data-name="Rectangle 4430" width="47" height="31" rx="6" transform="translate(50.017 4583.489)" fill="#fff"/>
      </g>
      <g transform="translate(1229.983 -4583.489)">
        <rect id="Rectangle_4430-17" data-name="Rectangle 4430" width="47" height="31" rx="6" transform="translate(50.017 4583.489)" fill="#fff"/>
      </g>
      <g transform="translate(1309.983 -4583.489)">
        <rect id="Rectangle_4430-18" data-name="Rectangle 4430" width="47" height="31" rx="6" transform="translate(50.017 4583.489)" fill="#fff"/>
      </g>
      <g transform="translate(1389.983 -4583.489)">
        <rect id="Rectangle_4430-19" data-name="Rectangle 4430" width="47" height="31" rx="6" transform="translate(50.017 4583.489)" fill="#fff"/>
      </g>
      <g transform="translate(1469.983 -4583.489)">
        <rect id="Rectangle_4430-20" data-name="Rectangle 4430" width="47" height="31" rx="6" transform="translate(50.017 4583.489)" fill="#fff"/>
      </g>
    </g>
    <g id="Repeat_Grid_2" data-name="Repeat Grid 2" transform="translate(24.916 5560.687)" clip-path="url(#clip-path)">
      <g transform="translate(-50.017 -4583.489)">
        <rect id="Rectangle_4430-21" data-name="Rectangle 4430" width="47" height="31" rx="6" transform="translate(50.017 4583.489)" fill="#fff"/>
      </g>
      <g transform="translate(29.983 -4583.489)">
        <rect id="Rectangle_4430-22" data-name="Rectangle 4430" width="47" height="31" rx="6" transform="translate(50.017 4583.489)" fill="#fff"/>
      </g>
      <g transform="translate(109.983 -4583.489)">
        <rect id="Rectangle_4430-23" data-name="Rectangle 4430" width="47" height="31" rx="6" transform="translate(50.017 4583.489)" fill="#fff"/>
      </g>
      <g transform="translate(189.983 -4583.489)">
        <rect id="Rectangle_4430-24" data-name="Rectangle 4430" width="47" height="31" rx="6" transform="translate(50.017 4583.489)" fill="#fff"/>
      </g>
      <g transform="translate(269.983 -4583.489)">
        <rect id="Rectangle_4430-25" data-name="Rectangle 4430" width="47" height="31" rx="6" transform="translate(50.017 4583.489)" fill="#fff"/>
      </g>
      <g transform="translate(349.983 -4583.489)">
        <rect id="Rectangle_4430-26" data-name="Rectangle 4430" width="47" height="31" rx="6" transform="translate(50.017 4583.489)" fill="#fff"/>
      </g>
      <g transform="translate(429.983 -4583.489)">
        <rect id="Rectangle_4430-27" data-name="Rectangle 4430" width="47" height="31" rx="6" transform="translate(50.017 4583.489)" fill="#fff"/>
      </g>
      <g transform="translate(509.983 -4583.489)">
        <rect id="Rectangle_4430-28" data-name="Rectangle 4430" width="47" height="31" rx="6" transform="translate(50.017 4583.489)" fill="#fff"/>
      </g>
      <g transform="translate(589.983 -4583.489)">
        <rect id="Rectangle_4430-29" data-name="Rectangle 4430" width="47" height="31" rx="6" transform="translate(50.017 4583.489)" fill="#fff"/>
      </g>
      <g transform="translate(669.983 -4583.489)">
        <rect id="Rectangle_4430-30" data-name="Rectangle 4430" width="47" height="31" rx="6" transform="translate(50.017 4583.489)" fill="#fff"/>
      </g>
      <g transform="translate(749.983 -4583.489)">
        <rect id="Rectangle_4430-31" data-name="Rectangle 4430" width="47" height="31" rx="6" transform="translate(50.017 4583.489)" fill="#fff"/>
      </g>
      <g transform="translate(829.983 -4583.489)">
        <rect id="Rectangle_4430-32" data-name="Rectangle 4430" width="47" height="31" rx="6" transform="translate(50.017 4583.489)" fill="#fff"/>
      </g>
      <g transform="translate(909.983 -4583.489)">
        <rect id="Rectangle_4430-33" data-name="Rectangle 4430" width="47" height="31" rx="6" transform="translate(50.017 4583.489)" fill="#fff"/>
      </g>
      <g transform="translate(989.983 -4583.489)">
        <rect id="Rectangle_4430-34" data-name="Rectangle 4430" width="47" height="31" rx="6" transform="translate(50.017 4583.489)" fill="#fff"/>
      </g>
      <g transform="translate(1069.983 -4583.489)">
        <rect id="Rectangle_4430-35" data-name="Rectangle 4430" width="47" height="31" rx="6" transform="translate(50.017 4583.489)" fill="#fff"/>
      </g>
      <g transform="translate(1149.983 -4583.489)">
        <rect id="Rectangle_4430-36" data-name="Rectangle 4430" width="47" height="31" rx="6" transform="translate(50.017 4583.489)" fill="#fff"/>
      </g>
      <g transform="translate(1229.983 -4583.489)">
        <rect id="Rectangle_4430-37" data-name="Rectangle 4430" width="47" height="31" rx="6" transform="translate(50.017 4583.489)" fill="#fff"/>
      </g>
      <g transform="translate(1309.983 -4583.489)">
        <rect id="Rectangle_4430-38" data-name="Rectangle 4430" width="47" height="31" rx="6" transform="translate(50.017 4583.489)" fill="#fff"/>
      </g>
      <g transform="translate(1389.983 -4583.489)">
        <rect id="Rectangle_4430-39" data-name="Rectangle 4430" width="47" height="31" rx="6" transform="translate(50.017 4583.489)" fill="#fff"/>
      </g>
      <g transform="translate(1469.983 -4583.489)">
        <rect id="Rectangle_4430-40" data-name="Rectangle 4430" width="47" height="31" rx="6" transform="translate(50.017 4583.489)" fill="#fff"/>
      </g>
    </g>
  </g>
</svg>
