<svg xmlns="http://www.w3.org/2000/svg" class="change-my-color" fill="#2196f3" width="34.817" height="34.799" viewBox="0 0 34.817 34.799">  <g id="Group_9001" data-name="Group 9001" transform="translate(-325.902 -263.69)"><path id="Path_9471" data-name="Path 9471" d="M359.452,285.013c-.983,0-1.965-.008-2.947.006-.235,0-.292-.067-.283-.291.017-.467.011-.935,0-1.4a1.671,1.671,0,0,0-1.669-1.678c-1.884-.01-3.766,0-5.65,0a1.389,1.389,0,0,0-.97.341.627.627,0,0,1-.606.135c-1.52-.255-3.041-.5-4.56-.766-.376-.066-.9.018-1.088-.247s-.042-.743-.058-1.128a.336.336,0,0,1,.183-.335,5.575,5.575,0,0,0,2.6-4.164c.068-.557.075-.556.644-.578a1.683,1.683,0,0,0,.344-3.318c-.207-.054-.417-.026-.652-.069.1-.234.193-.457.287-.681a4.528,4.528,0,0,0-2.274-5.933c-.494-.235-1-.45-1.5-.679a5.677,5.677,0,0,0-3.625-.4,6.144,6.144,0,0,0-2.553,1.251,2.534,2.534,0,0,1-.73.474,3.474,3.474,0,0,0-2.047,4.887c.171.356.353.705.554,1.106-.136,0-.218,0-.3,0a1.691,1.691,0,0,0-1.521,2.2,1.673,1.673,0,0,0,1.69,1.162c.343-.007.476.035.506.442a5.062,5.062,0,0,0,2.046,3.871,1.537,1.537,0,0,1,.734,1.644.219.219,0,0,0,0,.07c.032.19-.053.261-.24.292-2.132.348-4.261.719-6.395,1.053a3.936,3.936,0,0,0-3.472,4.007q-.007,5.737,0,11.473c0,.55.186.737.733.737H359.48a1.131,1.131,0,0,0,1.238-1.243q0-5.492,0-10.982A1.137,1.137,0,0,0,359.452,285.013Zm-15.03-11.794c.074-.226-.187-.619.366-.568.5.046.762.2.766.563s-.265.54-.785.578C344.2,273.833,344.526,273.414,344.422,273.219Zm6.555,9.549q1.717,0,3.433,0c.484,0,.688.2.691.673,0,.444,0,.887,0,1.331,0,.159-.007.25-.217.248q-1.577-.018-3.154,0c-.167,0-.219-.073-.266-.2a3.98,3.98,0,0,0-1.733-2.047Zm-2.614.855c0-.248.141-.145.251-.115a2.76,2.76,0,0,1,1.718,1.507c-.618,0-1.2,0-1.781,0-.123,0-.192-.016-.189-.167C348.37,284.44,348.369,284.031,348.363,283.622Zm3.387,2.514c2.5,0,5.005,0,7.508-.007.266,0,.363.054.342.338a15.675,15.675,0,0,1-.065,1.888,2.774,2.774,0,0,1-2.629,2.264c-1.086.024-2.174,0-3.263.012-.189,0-.234-.056-.23-.235.012-.456.008-.912,0-1.368a.572.572,0,0,0-.648-.645q-1.034-.008-2.069,0a.571.571,0,0,0-.649.644c-.006.456-.008.913,0,1.369,0,.176-.037.239-.229.236-1.087-.01-2.175.013-3.263-.012a2.794,2.794,0,0,1-2.686-2.713c-.012-.491.012-.983-.01-1.473-.011-.25.062-.3.306-.3C346.7,286.14,349.224,286.136,351.75,286.136Zm-.582,3.583c0-.163.038-.213.21-.219.917-.038.917-.043.917.872,0,.617,0,1.235,0,1.852,0,.4-.232.656-.572.648a.57.57,0,0,1-.549-.637c-.006-.419,0-.839,0-1.258S351.179,290.139,351.168,289.72Zm-18.3-15.927c-.523-.038-.792-.2-.787-.578s.266-.555.8-.554c.32,0,.32,0,.32.614C333.139,273.455,333.395,273.831,332.869,273.792Zm.782-3.29a2.431,2.431,0,0,1,.283-3.483,2.52,2.52,0,0,1,3.533.441c.354.439.354.439.82.128s.459-.306.115-.755a3.9,3.9,0,0,0-1.972-1.341,4.582,4.582,0,0,1,4.077-.363c.65.255,1.287.55,1.91.865a3.365,3.365,0,0,1,1.536,4.437c-.22-.434-.428-.848-.638-1.261-.254-.5-.568-.573-1.011-.245a6.96,6.96,0,0,1-2.219,1.3,4.436,4.436,0,0,1-3.78-.59c-.331-.218-.642-.467-.961-.7-.462-.34-.765-.265-1.031.256C334.092,269.625,333.874,270.059,333.651,270.5Zm.677,4.452c-.009-1.017,0-2.034-.007-3.051a2.458,2.458,0,0,1,.387-.994c.1-.245.2-.6.383-.676.212-.083.433.245.654.389a5.6,5.6,0,0,0,6.49-.253c.245-.181.319-.19.492.1a3.951,3.951,0,0,1,.585,2.53,4.7,4.7,0,0,0,0,.526,12.105,12.105,0,0,1-.129,2.443,4.49,4.49,0,0,1-8.853-1.013Zm3.943,12.634a5.351,5.351,0,0,0,.29-.711.235.235,0,0,1,.247-.187.252.252,0,0,1,.275.2q.376.961.765,1.916a.593.593,0,0,1,.026.373q-.509,2.2-1.015,4.395l-.077,0c-.244-1.05-.427-2.119-.749-3.145A3.434,3.434,0,0,1,338.271,287.588Zm-.325-3.734c.3.155.441.583.852.594s.576-.4.886-.6a.7.7,0,0,1-.08.947,4.78,4.78,0,0,0-.353.521.471.471,0,0,1-.864,0,4.767,4.767,0,0,0-.352-.521A.7.7,0,0,1,337.946,283.854Zm1.041-.924c-.123.127-.2.15-.331.009-.452-.47-.911-.936-1.385-1.385-.221-.21-.127-.456-.132-.687-.015-.581,0-.591.546-.472a5.369,5.369,0,0,0,2.594-.075c.066-.018.134-.022.224-.038,0,.341-.006.667,0,.992a.345.345,0,0,1-.134.267C339.908,282,339.443,282.461,338.988,282.93ZM342.757,297c0,.311-.073.377-.378.376q-4.7-.02-9.405,0c-.277,0-.34-.071-.339-.342.01-2.96,0-5.918.013-8.878,0-.277-.071-.345-.342-.34-.787.018-.788.006-.788.8,0,2.808,0,5.615.008,8.422,0,.28-.075.341-.343.338q-1.93-.021-3.86,0c-.251,0-.3-.067-.3-.308.011-1.837.006-3.673.006-5.509,0-1.661.051-3.324-.014-4.983a2.986,2.986,0,0,1,2.78-3.247c2.093-.292,4.172-.682,6.257-1.03a1.26,1.26,0,0,1,.977.63.508.508,0,0,1-.05.233c-.112.343-.218.689-.346,1.027a.667.667,0,0,0,.091.66c.263.385.509.783.781,1.162a.378.378,0,0,1,.041.414c-.287.7-.557,1.409-.851,2.108a1.138,1.138,0,0,0-.061.744c.545,2.317,1.076,4.637,1.613,6.956.093.4.286.591.59.57.348-.023.488-.249.562-.568q.812-3.549,1.643-7.093a.874.874,0,0,0-.068-.545c-.292-.724-.581-1.449-.878-2.171a.377.377,0,0,1,.041-.414c.265-.369.5-.758.764-1.132a.727.727,0,0,0,.1-.725c-.126-.326-.219-.665-.342-.992a.377.377,0,0,1,.1-.426,1.043,1.043,0,0,1,1.145-.4c1.7.323,3.407.582,5.112.863.16.026.24.075.233.265-.017.444-.018.889,0,1.333.008.207-.083.22-.245.22q-1.51-.008-3.019,0a1.135,1.135,0,0,0-1.234,1.247C342.748,289.84,342.745,293.419,342.757,297Zm16.031.368q-7.282,0-14.563.008c-.291,0-.369-.065-.36-.358.023-.771.007-.772.781-.772h7.124c2.5,0,5.006,0,7.51-.007.261,0,.329.059.324.323C359.587,297.366,359.6,297.366,358.787,297.366Zm.806-6.48c0,1.309,0,2.618.008,3.928,0,.233-.038.313-.3.313q-7.576-.013-15.151-.009c-.118,0-.287.081-.286-.172.008-1.433,0-2.867,0-4.378a4.133,4.133,0,0,0,3.093,1.188c.923-.022,1.848.008,2.771-.011.268-.006.335.068.318.326a1.689,1.689,0,1,0,3.363.274c.019-.593.019-.593.6-.593.795,0,1.59-.021,2.385,0a4.118,4.118,0,0,0,3.132-1.131C359.643,290.7,359.592,290.8,359.593,290.886Z" transform="translate(0 0)"/> </g></svg>