<svg xmlns="http://www.w3.org/2000/svg" width="598.775" height="523.863" viewBox="0 0 598.775 523.863">
  <g id="Group_6758" data-name="Group 6758" transform="translate(-640.074 -87.523)">
    <ellipse id="_Path_" data-name="&lt;Path&gt;" cx="299.387" cy="17.485" rx="299.387" ry="17.485" transform="translate(640.074 576.416)" fill="#f5f5f5"/>
    <g id="Group_6724" data-name="Group 6724" transform="translate(671.246 375.208)">
      <g id="Group_6721" data-name="Group 6721">
        <g id="Group_6695" data-name="Group 6695" transform="translate(44.906)">
          <g id="Group_6691" data-name="Group 6691" transform="translate(22.861 36.653)">
            <path id="Path_93" data-name="Path 93" d="M705.071,419.744a.989.989,0,0,1-.922-1.011c1.144-45.382,3.485-119.827,3.607-120.233a.987.987,0,0,1,1.892.562c-.029.1-2.394,74.8-3.525,119.721a.987.987,0,0,1-1.011.962Z" transform="translate(-704.149 -297.799)" fill="#263238"/>
          </g>
          <g id="Group_6694" data-name="Group 6694">
            <g id="Group_6692" data-name="Group 6692">
              <path id="Path_94" data-name="Path 94" d="M700.809,281.117c.38,3.5,4.564,15.613,8.06,15.233s4.978-13.113,4.6-16.609a6.367,6.367,0,0,0-12.659,1.376Z" transform="translate(-683.125 -274.063)" fill="#407bff"/>
              <path id="Path_95" data-name="Path 95" d="M716.264,308.757c-.381-3.5-4.564-15.614-8.06-15.233s-4.978,13.114-4.6,16.61a6.367,6.367,0,0,0,12.659-1.377Z" transform="translate(-681.615 -263.478)" fill="#407bff"/>
              <path id="Path_96" data-name="Path 96" d="M696.4,300.983c3.5-.38,15.613-4.566,15.233-8.062s-13.114-4.977-16.609-4.6a6.367,6.367,0,0,0,1.376,12.659Z" transform="translate(-689.344 -266.334)" fill="#407bff"/>
              <path id="Path_97" data-name="Path 97" d="M724.037,285.528c-3.494.381-15.611,4.564-15.233,8.06s13.114,4.978,16.61,4.6a6.366,6.366,0,1,0-1.377-12.657Z" transform="translate(-678.759 -267.844)" fill="#407bff"/>
              <path id="Path_98" data-name="Path 98" d="M694.491,290.133c2.741,2.2,14.268,7.812,16.471,5.071s-5.753-12.793-8.494-14.995a6.366,6.366,0,0,0-7.977,9.924Z" transform="translate(-687.837 -271.482)" fill="#407bff"/>
              <path id="Path_99" data-name="Path 99" d="M724.864,297.923c-2.741-2.2-14.268-7.812-16.471-5.071s5.753,12.791,8.494,14.995a6.366,6.366,0,0,0,7.977-9.924Z" transform="translate(-679.186 -264.241)" fill="#407bff"/>
              <path id="Path_100" data-name="Path 100" d="M705.414,309.583c2.2-2.741,7.812-14.268,5.071-16.471s-12.791,5.753-14.995,8.494a6.366,6.366,0,0,0,9.924,7.977Z" transform="translate(-686.764 -263.904)" fill="#407bff"/>
              <path id="Path_101" data-name="Path 101" d="M713.2,279.21c-2.2,2.741-7.812,14.268-5.071,16.471s12.792-5.753,14.995-8.494a6.366,6.366,0,0,0-9.924-7.977Z" transform="translate(-679.521 -272.556)" fill="#407bff"/>
            </g>
            <g id="Group_6693" data-name="Group 6693" opacity="0.6" style="mix-blend-mode: normal;isolation: isolate">
              <path id="Path_102" data-name="Path 102" d="M700.809,281.117c.38,3.5,4.564,15.613,8.06,15.233s4.978-13.113,4.6-16.609a6.367,6.367,0,0,0-12.659,1.376Z" transform="translate(-683.125 -274.063)" fill="#fff"/>
              <path id="Path_103" data-name="Path 103" d="M716.264,308.757c-.381-3.5-4.564-15.614-8.06-15.233s-4.978,13.114-4.6,16.61a6.367,6.367,0,0,0,12.659-1.377Z" transform="translate(-681.615 -263.478)" fill="#fff"/>
              <path id="Path_104" data-name="Path 104" d="M696.4,300.983c3.5-.38,15.613-4.566,15.233-8.062s-13.114-4.977-16.609-4.6a6.367,6.367,0,0,0,1.376,12.659Z" transform="translate(-689.344 -266.334)" fill="#fff"/>
              <path id="Path_105" data-name="Path 105" d="M724.037,285.528c-3.494.381-15.611,4.564-15.233,8.06s13.114,4.978,16.61,4.6a6.366,6.366,0,1,0-1.377-12.657Z" transform="translate(-678.759 -267.844)" fill="#fff"/>
              <path id="Path_106" data-name="Path 106" d="M694.491,290.133c2.741,2.2,14.268,7.812,16.471,5.071s-5.753-12.793-8.494-14.995a6.366,6.366,0,0,0-7.977,9.924Z" transform="translate(-687.837 -271.482)" fill="#fff"/>
              <path id="Path_107" data-name="Path 107" d="M724.864,297.923c-2.741-2.2-14.268-7.812-16.471-5.071s5.753,12.791,8.494,14.995a6.366,6.366,0,0,0,7.977-9.924Z" transform="translate(-679.186 -264.241)" fill="#fff"/>
              <path id="Path_108" data-name="Path 108" d="M705.414,309.583c2.2-2.741,7.812-14.268,5.071-16.471s-12.791,5.753-14.995,8.494a6.366,6.366,0,0,0,9.924,7.977Z" transform="translate(-686.764 -263.904)" fill="#fff"/>
              <path id="Path_109" data-name="Path 109" d="M713.2,279.21c-2.2,2.741-7.812,14.268-5.071,16.471s12.792-5.753,14.995-8.494a6.366,6.366,0,0,0-9.924-7.977Z" transform="translate(-679.521 -272.556)" fill="#fff"/>
            </g>
            <path id="Path_110" data-name="Path 110" d="M701.451,294.48a7.54,7.54,0,1,0,6.68-8.31A7.539,7.539,0,0,0,701.451,294.48Z" transform="translate(-682.78 -267.499)" fill="#407bff"/>
          </g>
        </g>
        <g id="Group_6697" data-name="Group 6697" transform="translate(0 32.504)">
          <path id="Path_111" data-name="Path 111" d="M724.581,387.953c-8.7.191-23.585-7.846-29.443-15.69-5.943-7.958,10.725-3.059,9-9.317s-22.248-1.569-26.063-10.529,11.005-6.942,10.4-11.525-15.946-3.607-20.9-13.13,8.561-4.219,6.43-8.165-19.1-20.532-12.029-24.02,22.984,13.79,28.3,15.708,6.527-10.052,13.458-4.348,1.83,30.737,9.981,34.014c6.07,2.441,3.457-9.005,10.446-6.135C736.4,339.839,728.112,387.876,724.581,387.953Z" transform="translate(-660.262 -295.113)" fill="#407bff"/>
          <g id="Group_6696" data-name="Group 6696" opacity="0.2">
            <path id="Path_112" data-name="Path 112" d="M724.581,387.953c-8.7.191-23.585-7.846-29.443-15.69-5.943-7.958,10.725-3.059,9-9.317s-22.248-1.569-26.063-10.529,11.005-6.942,10.4-11.525-15.946-3.607-20.9-13.13,8.561-4.219,6.43-8.165-19.1-20.532-12.029-24.02,22.984,13.79,28.3,15.708,6.527-10.052,13.458-4.348,1.83,30.737,9.981,34.014c6.07,2.441,3.457-9.005,10.446-6.135C736.4,339.839,728.112,387.876,724.581,387.953Z" transform="translate(-660.262 -295.113)" fill="#fff"/>
          </g>
        </g>
        <g id="Group_6700" data-name="Group 6700" transform="translate(69.896 10.103)">
          <g id="Group_6698" data-name="Group 6698">
            <path id="Path_113" data-name="Path 113" d="M712.452,384.808c.147.244-1.155,1.478,3.139,1.655,10.577.435,29.283-.279,36.307-9.9,10.029-13.732-13.1-12.472-10.852-20.044s27.1-1.39,31.948-12.2-13.222-8.7-12.384-14.261,19.8,1.645,26.049-9.822-10.315-5.332-7.631-10.082,23.713-24.528,15.193-28.937-28.279,16.238-34.8,18.448S751.4,281.627,742.837,288.4s-2.943,37.346-12.933,41.141c-7.441,2.827-3.382-8.13-12.563-7.708C704.867,322.409,700.764,365.27,712.452,384.808Z" transform="translate(-705.528 -280.605)" fill="#407bff"/>
          </g>
          <g id="Group_6699" data-name="Group 6699" opacity="0.3">
            <path id="Path_114" data-name="Path 114" d="M712.452,384.808c.147.244-1.155,1.478,3.139,1.655,10.577.435,29.283-.279,36.307-9.9,10.029-13.732-13.1-12.472-10.852-20.044s27.1-1.39,31.948-12.2-13.222-8.7-12.384-14.261,19.8,1.645,26.049-9.822-10.315-5.332-7.631-10.082,23.713-24.528,15.193-28.937-28.279,16.238-34.8,18.448S751.4,281.627,742.837,288.4s-2.943,37.346-12.933,41.141c-7.441,2.827-3.382-8.13-12.563-7.708C704.867,322.409,700.764,365.27,712.452,384.808Z" transform="translate(-705.528 -280.605)" fill="#fff"/>
          </g>
        </g>
        <g id="Group_6720" data-name="Group 6720" transform="translate(20.418 29.852)">
          <g id="Group_6719" data-name="Group 6719">
            <g id="Group_6711" data-name="Group 6711" transform="translate(47.815)">
              <g id="Group_6710" data-name="Group 6710">
                <g id="Group_6709" data-name="Group 6709">
                  <g id="Group_6708" data-name="Group 6708">
                    <g id="Group_6707" data-name="Group 6707">
                      <g id="Group_6706" data-name="Group 6706">
                        <g id="Group_6701" data-name="Group 6701" transform="translate(0 20.778)">
                          <path id="Path_115" data-name="Path 115" d="M705.11,407.961l-.056,0a.687.687,0,0,1-.6-.766c8.683-71.054,49.611-99.935,50.023-100.218a.688.688,0,1,1,.78,1.133c-.408.279-40.834,28.849-49.438,99.251A.688.688,0,0,1,705.11,407.961Z" transform="translate(-704.451 -306.852)" fill="#263238"/>
                        </g>
                        <g id="Group_6702" data-name="Group 6702" transform="translate(40.054 28.547)">
                          <path id="Path_116" data-name="Path 116" d="M731.051,314.107a.688.688,0,0,1-.185-1.342c.255-.083,6.349-2.01,16.335.11a.688.688,0,1,1-.284,1.346c-9.6-2.035-15.568-.165-15.625-.148A.689.689,0,0,1,731.051,314.107Z" transform="translate(-730.39 -311.883)" fill="#263238"/>
                        </g>
                        <g id="Group_6703" data-name="Group 6703" transform="translate(32.488)">
                          <path id="Path_117" data-name="Path 117" d="M726.152,332.8a.687.687,0,0,1-.659-.681c-.212-21.488,12.228-38.277,12.353-38.445a.689.689,0,0,1,1.1.828c-.124.164-12.285,16.6-12.078,37.6a.688.688,0,0,1-.681.695A.265.265,0,0,1,726.152,332.8Z" transform="translate(-725.49 -293.396)" fill="#263238"/>
                        </g>
                        <g id="Group_6704" data-name="Group 6704" transform="translate(20.3 50.898)">
                          <path id="Path_118" data-name="Path 118" d="M718.258,333.049a.688.688,0,0,1-.445-1.187c.093-.086,9.3-8.6,21.361-4.28a.688.688,0,0,1-.465,1.3c-11.274-4.043-19.867,3.9-19.952,3.985A.7.7,0,0,1,718.258,333.049Z" transform="translate(-717.597 -326.358)" fill="#263238"/>
                        </g>
                        <g id="Group_6705" data-name="Group 6705" transform="translate(11.02 42.631)">
                          <path id="Path_119" data-name="Path 119" d="M715.155,348.648a.684.684,0,0,1-.6-.417c-.193-.451-4.7-11.255-2.219-26.648a.677.677,0,0,1,.789-.568.686.686,0,0,1,.57.788c-2.418,14.978,2.078,25.782,2.125,25.89a.688.688,0,0,1-.363.9A.676.676,0,0,1,715.155,348.648Z" transform="translate(-711.588 -321.004)" fill="#263238"/>
                        </g>
                      </g>
                    </g>
                  </g>
                </g>
              </g>
            </g>
            <g id="Group_6718" data-name="Group 6718" transform="translate(0 18.166)">
              <g id="Group_6717" data-name="Group 6717">
                <g id="Group_6712" data-name="Group 6712" transform="translate(1.003 2.878)">
                  <path id="Path_120" data-name="Path 120" d="M721.882,433.248a.687.687,0,0,1-.658-.665l-.893-18.82c-2.634-62.575-45.556-105.136-45.99-105.559a.688.688,0,0,1,.96-.985c.437.426,43.748,43.35,46.4,106.493l.893,18.827a.687.687,0,0,1-.666.709C721.916,433.249,721.9,433.248,721.882,433.248Z" transform="translate(-674.134 -307.024)" fill="#263238"/>
                </g>
                <g id="Group_6713" data-name="Group 6713" transform="translate(0 22.581)">
                  <path id="Path_121" data-name="Path 121" d="M692.4,324.768a.7.7,0,0,1-.113-.014.8.8,0,0,1-.2-.077l-.222-.09a44.607,44.607,0,0,0-17.676-3.419.677.677,0,0,1-.7-.673.687.687,0,0,1,.672-.7,46.072,46.072,0,0,1,18.234,3.524l.229.094a.762.762,0,0,1,.119.056.689.689,0,0,1-.34,1.3Z" transform="translate(-673.485 -319.784)" fill="#263238"/>
                </g>
                <g id="Group_6714" data-name="Group 6714" transform="translate(16.218)">
                  <path id="Path_122" data-name="Path 122" d="M692.754,340.784l-.034,0a.686.686,0,0,1-.624-.746c1.663-18.469-7.9-33.665-8-33.816a.689.689,0,1,1,1.16-.743c.1.156,9.916,15.73,8.212,34.682A.688.688,0,0,1,692.754,340.784Z" transform="translate(-683.988 -305.16)" fill="#263238"/>
                </g>
                <g id="Group_6715" data-name="Group 6715" transform="translate(12.682 39.859)">
                  <path id="Path_123" data-name="Path 123" d="M700.263,337.438a.693.693,0,0,1-.46-.2A18.7,18.7,0,0,0,682.563,333a.688.688,0,0,1-.354-1.329,19.728,19.728,0,0,1,18.573,4.6.687.687,0,0,1-.519,1.169Z" transform="translate(-681.698 -330.974)" fill="#263238"/>
                </g>
                <g id="Group_6716" data-name="Group 6716" transform="translate(38.539 39.561)">
                  <path id="Path_124" data-name="Path 124" d="M699.1,355.176a.715.715,0,0,1-.292-.079.689.689,0,0,1-.29-.928c.048-.091,4.771-9.325,3.7-22.644a.686.686,0,0,1,.63-.74.674.674,0,0,1,.74.63c1.112,13.736-3.643,23-3.845,23.392A.692.692,0,0,1,699.1,355.176Z" transform="translate(-698.443 -330.781)" fill="#263238"/>
                </g>
              </g>
            </g>
          </g>
        </g>
      </g>
      <g id="Group_6723" data-name="Group 6723" transform="translate(28.335 157.738)">
        <g id="Group_6722" data-name="Group 6722">
          <path id="Path_125" data-name="Path 125" d="M758.146,398.562c0,21.95-9.871,39.75-39.767,39.75-28.532,0-39.767-17.8-39.767-39.75a39.638,39.638,0,0,1,6.871-22.345h65.792A39.638,39.638,0,0,1,758.146,398.562Z" transform="translate(-678.612 -376.217)" fill="#407bff"/>
          <path id="Path_126" data-name="Path 126" d="M758.146,398.562c0,21.95-9.871,39.75-39.767,39.75-28.532,0-39.767-17.8-39.767-39.75a39.638,39.638,0,0,1,6.871-22.345h65.792A39.638,39.638,0,0,1,758.146,398.562Z" transform="translate(-678.612 -376.217)" fill="#fff" opacity="0.7"/>
        </g>
      </g>
    </g>
    <g id="Group_6756" data-name="Group 6756" transform="translate(842.017 140.133)">
      <g id="Group_6751" data-name="Group 6751">
        <g id="Group_6747" data-name="Group 6747">
          <g id="Group_6744" data-name="Group 6744">
            <g id="Group_6743" data-name="Group 6743">
              <g id="Group_6726" data-name="Group 6726" transform="translate(89.94 157.153)">
                <path id="Path_127" data-name="Path 127" d="M879.433,417.333l15.38-2.245-3.885-35.98-15.381,2.245Z" transform="translate(-803.831 -138.984)" fill="#e8bfbf"/>
                <g id="Group_6725" data-name="Group 6725" transform="translate(97.454 269.283)">
                  <path id="Path_128" data-name="Path 128" d="M897.547,404.306a5.92,5.92,0,0,0,3.582-1.556,2.055,2.055,0,0,0,.355-1.878,1.183,1.183,0,0,0-.772-.871c-2.055-.735-7.68,3.411-8.309,3.877a.4.4,0,0,0-.136.409.366.366,0,0,0,.344.244A27.046,27.046,0,0,0,897.547,404.306Zm2.163-3.607a1.318,1.318,0,0,1,.7.018.467.467,0,0,1,.318.352,1.4,1.4,0,0,1-.227,1.242c-.792.985-3.3,1.541-6.8,1.539a20.18,20.18,0,0,1,6.059-3.175Z" transform="translate(-892.195 -396.946)" fill="#407bff"/>
                  <path id="Path_129" data-name="Path 129" d="M892.718,405.6l.126-.06c1.708-1.123,4.784-5.042,4.206-6.734a1.361,1.361,0,0,0-1.53-.8,2.631,2.631,0,0,0-1.943.906c-1.666,1.912-1.336,6.126-1.333,6.3a.4.4,0,0,0,.155.332A.367.367,0,0,0,892.718,405.6Zm2.586-6.825.205-.1c.679-.028.758.224.78.309.361,1.024-1.677,4.033-3.375,5.423a8.372,8.372,0,0,1,1.173-5.068,1.9,1.9,0,0,1,1.248-.584Z" transform="translate(-892.216 -397.992)" fill="#407bff"/>
                </g>
                <path id="Path_130" data-name="Path 130" d="M892.155,398.293l-13.639,3.25a1.22,1.22,0,0,0-.967,1.322l.44,19.734a2.529,2.529,0,0,0,2.847,2.162,2.6,2.6,0,0,0,.286-.057c5.906-1.472,8.695-2.475,16.208-4.206,4.6-1.061,19.19-2.16,25.166-4.821s3.647-8.717.92-8.145c-8.764,1.885-20.026-1.867-26.421-7.577C896.128,399.529,893.092,398.051,892.155,398.293Z" transform="translate(-802.746 -128.56)" fill="#263238"/>
                <path id="Path_131" data-name="Path 131" d="M890.934,379.107l2,18.546-15.377,2.262-2.019-18.543Z" transform="translate(-803.836 -138.984)" opacity="0.2"/>
                <path id="Path_132" data-name="Path 132" d="M924.417,474.635l-28.458,5.313s-13.818-19.728-16.425-33.736c-2.714-14.587.185-64.249,0-64.908-8.049-27.172-29.917-97.588-40.479-123.5-5.848-14.36-9.952-24.026-9.952-24.026l2.957-.664,23.228-9.515,16.927,3.19S923.654,330.8,929.046,369.933C933.07,399.146,924.417,474.635,924.417,474.635Z" transform="translate(-829.103 -223.599)" fill="#407bff"/>
                <path id="Path_133" data-name="Path 133" d="M924.417,474.635l-28.458,5.313s-13.818-19.728-16.425-33.736c-2.714-14.587.185-64.249,0-64.908-8.049-27.172-29.917-97.588-40.479-123.5-5.848-14.36-9.952-24.026-9.952-24.026l2.957-.664,23.228-9.515,16.927,3.19S923.654,330.8,929.046,369.933C933.07,399.146,924.417,474.635,924.417,474.635Z" transform="translate(-829.103 -223.599)" fill="#fff" opacity="0.3"/>
                <path id="Path_134" data-name="Path 134" d="M872.639,354.1c-8.05-27.172-24.284-68.392-34.846-94.3L830.8,235.1l-1.346-4.75,2.45,4.486L859.47,295.9C871.634,319.284,872.826,354.755,872.639,354.1Z" transform="translate(-828.913 -219.925)" opacity="0.2" style="mix-blend-mode: normal;isolation: isolate"/>
              </g>
              <g id="Group_6728" data-name="Group 6728" transform="translate(0 164.25)">
                <path id="Path_135" data-name="Path 135" d="M776.536,409.437l13.707,5.775,14.629-31.388-13.707-5.775Z" transform="translate(-767.766 -146.657)" fill="#e8bfbf"/>
                <g id="Group_6727" data-name="Group 6727" transform="translate(27.3 267.827)">
                  <path id="Path_136" data-name="Path 136" d="M792.634,407.512a5.656,5.656,0,0,0,3.646.823,1.968,1.968,0,0,0,1.336-1.249,1.138,1.138,0,0,0-.1-1.109c-1.172-1.728-7.858-1.706-8.608-1.7a.386.386,0,0,0-.337.239.351.351,0,0,0,.13.383A25.779,25.779,0,0,0,792.634,407.512Zm3.709-1.563a1.28,1.28,0,0,1,.531.412.447.447,0,0,1,.046.451,1.33,1.33,0,0,1-.879.829c-1.166.313-3.419-.676-6.122-2.656a19.275,19.275,0,0,1,6.473.974Z" transform="translate(-788.527 -400.214)" fill="#407bff"/>
                  <path id="Path_137" data-name="Path 137" d="M788.761,406.39l.13.026c1.953.1,6.544-1.189,7.054-2.823a1.3,1.3,0,0,0-.726-1.487,2.519,2.519,0,0,0-2.014-.4c-2.366.536-4.492,3.975-4.586,4.109a.383.383,0,0,0-.068.344A.351.351,0,0,0,788.761,406.39Zm5.854-3.808.212.042c.54.363.46.6.428.679-.3,1-3.575,2.168-5.672,2.279a8.011,8.011,0,0,1,3.772-3.249,1.812,1.812,0,0,1,1.292.255Z" transform="translate(-788.536 -401.645)" fill="#407bff"/>
                </g>
                <path id="Path_138" data-name="Path 138" d="M795.824,399.882l-12.368-5.2a1.169,1.169,0,0,0-1.495.474l-10.813,15.486a2.42,2.42,0,0,0,.977,3.278,2.483,2.483,0,0,0,.252.117c5.394,2.2,8.113,3,14.893,5.914,4.154,1.784,16.039,9.178,22.155,10.5s7.744-4.669,5.316-5.769c-7.833-3.5-14.408-12.759-16.119-20.785C798.193,403.082,796.684,400.225,795.824,399.882Z" transform="translate(-770.856 -137.664)" fill="#263238"/>
                <path id="Path_139" data-name="Path 139" d="M802.851,384.176l-7.932,15.991-13.569-6.09,7.916-16Z" transform="translate(-765.146 -146.64)" opacity="0.2"/>
                <path id="Path_140" data-name="Path 140" d="M807.563,483.158l-27.3-14.553s-5.234-19.436,0-31.833c10.074-23.86,36.282-58.94,36.46-59.6,6.992-27.464,19.26-102.671,23.449-130.337,2.327-15.33,3.695-18.637,3.695-18.637l2.88.943,41.771.083s7.881,63.259-22.322,161.2c-7.514,24.369-20.1,44.631-40.819,72.041A261.4,261.4,0,0,1,807.563,483.158Z" transform="translate(-767.004 -228.195)" fill="#407bff"/>
                <path id="Path_141" data-name="Path 141" d="M807.563,483.158l-27.3-14.553s-5.234-19.436,0-31.833c10.074-23.86,36.282-58.94,36.46-59.6,6.992-27.464,19.26-102.671,23.449-130.337,2.327-15.33,3.695-18.637,3.695-18.637l2.88.943,41.771.083s7.881,63.259-22.322,161.2c-7.514,24.369-20.1,44.631-40.819,72.041A261.4,261.4,0,0,1,807.563,483.158Z" transform="translate(-767.004 -228.195)" fill="#fff" opacity="0.3"/>
              </g>
              <g id="Group_6742" data-name="Group 6742" transform="translate(53.724)">
                <g id="Group_6729" data-name="Group 6729" transform="translate(104.799 65.518)">
                  <path id="Path_142" data-name="Path 142" d="M873.519,206.081c.3-4.691,3.416-10.733,6.1-13.526.863-.892,4.12-2.25,5.965-3.451,9.07-5.951,27.223-13.374,27.223-13.374l5.6,4.884s-11.057,10.688-17.635,15.813c-1.292,1.007-2.79,2.23-4.368,3.522-2.86,2.387-16.329,11.271-18.9,13.5Z" transform="translate(-873.519 -158.01)" fill="#e8bfbf"/>
                  <path id="Path_143" data-name="Path 143" d="M915,179.21l-10.361,7.657-5.813-4.28a60.672,60.672,0,0,1,4.81-5.364A5.484,5.484,0,0,0,905.3,173.3a13.366,13.366,0,0,1,1.6-6.874.7.7,0,0,1,.076-.12,4.8,4.8,0,0,1,8.561,1.547l1.495,5.523A5.477,5.477,0,0,1,915,179.21Z" transform="translate(-859.747 -164.254)" fill="#e8bfbf"/>
                </g>
                <g id="Group_6730" data-name="Group 6730" transform="translate(65.03 68.174)">
                  <path id="Path_144" data-name="Path 144" d="M890.848,213.46l-2.733,2.5c-.849-.684-2.2-1.776-3.9-3.189-13.31-11.048-46.679-37.852-33.376-45.5,11.4-6.556,23.511,13.508,29.551,19.533a51.779,51.779,0,0,1,7.316,10C890.544,201.924,892.653,208.118,890.848,213.46Z" transform="translate(-847.764 -165.974)" fill="#263238"/>
                </g>
                <path id="Path_145" data-name="Path 145" d="M877.781,184.391A44.665,44.665,0,0,0,865.99,197.24a26.793,26.793,0,0,0,14.649,16.578,58.818,58.818,0,0,0,4.827-27.932C883.057,185.367,880.19,184.91,877.781,184.391Z" transform="translate(-772.817 -87.779)" fill="#263238"/>
                <path id="Path_146" data-name="Path 146" d="M832.245,166.4c-4.762,1.53-10.213.306-13.269,4.265s-3.974,9.184-3.97,14.186c.006,6.955,1.6,13.8,3.178,20.574l5.753,24.638c1.311,5.614-.068,31.719,1.331,32.156,0,0,43.651-.855,54.594-2.389,0,0,.951-26.835,1.83-35.975.195-2.027,3.272-10.637,3.635-12.8,1.7-10.194-1.637-17.384-5.168-27.1,0,0-7.73-15.563-11.5-15.989C861.942,167.208,845.514,162.136,832.245,166.4Z" transform="translate(-800.557 -98.486)" fill="#263238"/>
                <path id="Path_147" data-name="Path 147" d="M835.5,177.487c-.155-.906-7.9-16.558-15.325-5.617-10.335,15.227-11.031,34.341-11.031,34.341s-6.353,18.588-1.927,22.648,9.2,6.672,12.291,4.37,5.1-6.9,5.1-6.9S838.214,193.415,835.5,177.487Z" transform="translate(-805.649 -96.697)" fill="#263238"/>
                <g id="Group_6731" data-name="Group 6731" transform="translate(27.144 60.435)">
                  <path id="Path_148" data-name="Path 148" d="M825.436,162.636c-3.26,2.543-2.83,8.437.763,10.481a8.767,8.767,0,0,0,11.822,10.5c-1.309,2.346.167,5.443,2.426,6.893s5.049,1.716,7.711,2.074,5.474.928,7.406,2.795q4.125-5.939,8.253-11.876c1.072-1.541,2.182-3.195,2.265-5.069s-1.343-3.945-3.215-3.806a5.472,5.472,0,0,0-7.384-8.048,4.191,4.191,0,0,0-1.885-4.2,9.652,9.652,0,0,0-4.634-1.41Z" transform="translate(-823.228 -160.962)" fill="#263238"/>
                </g>
                <path id="Path_149" data-name="Path 149" d="M828.026,148.995c2.146,7.88,4.753,22.408-.457,28.151,0,0,14.743,5.9,25.222,17.75,4.875-4.737,4.37-10.06,2.875-13.953a11.878,11.878,0,0,0-6.618-6.518c-5.739-2.438-5.787-8.087-4.833-13.5Z" transform="translate(-793.722 -107.039)" fill="#e8bfbf"/>
                <g id="Group_6735" data-name="Group 6735" transform="translate(6.4)">
                  <path id="Path_150" data-name="Path 150" d="M829.945,157.685l5.423,1.472a17.466,17.466,0,0,0,7.129.423h0c-.022,1.167-.232,3.649.5,4.957-3.113,1.5-8.38.471-10.707-2.273A17.26,17.26,0,0,1,829.945,157.685Z" transform="translate(-798.829 -102.31)" opacity="0.2" style="mix-blend-mode: normal;isolation: isolate"/>
                  <g id="Group_6734" data-name="Group 6734">
                    <g id="Group_6733" data-name="Group 6733" transform="translate(0 8.941)">
                      <path id="Path_151" data-name="Path 151" d="M821.7,153.921c5.74,12.111,7.911,17.356,16.746,21.213,13.313,5.827,26.892-3.9,24.882-17.484-1.81-12.215-10.9-29.973-25.024-30.036a18.28,18.28,0,0,0-16.6,26.307Z" transform="translate(-804.323 -127.613)" fill="#e8bfbf"/>
                      <path id="Path_152" data-name="Path 152" d="M833.481,129.973c-4.181-1.953-9.379-.361-12.861,2.7-3.544,3.118-5.7,7.478-7.768,11.721a30.892,30.892,0,0,0-2.779,7.152,10.409,10.409,0,0,0,.956,7.455,7.925,7.925,0,0,0,6.226,3.712,4.258,4.258,0,0,1,3.59,2.489,8.341,8.341,0,0,1,.025,3.958,8.3,8.3,0,0,0,.017,3.831c.667,2.04,2.847,3.275,4.981,3.484a16.745,16.745,0,0,0,6.309-1.022,3.693,3.693,0,0,1,3.629.743,2.873,2.873,0,0,1,.618.8,1.7,1.7,0,0,0,3.022-.241c1.868-4.441-.851-11.539-4.9-16.956-2.15-2.875-2.032-2.142-2.877-5.63-.7-2.9.36-5.934,1.661-8.622,1.734-3.587,3.965-7.087,3.277-11.368A5.649,5.649,0,0,0,833.481,129.973Z" transform="translate(-809.794 -126.796)" fill="#263238"/>
                      <path id="Path_153" data-name="Path 153" d="M821.812,155.536a10.5,10.5,0,0,0,7.311,3.3c3.687.079,4.623-3.439,2.843-6.437-1.606-2.707-5.462-6-8.8-4.688S819.49,153.011,821.812,155.536Z" transform="translate(-804.067 -116.838)" fill="#e8bfbf"/>
                      <g id="Group_6732" data-name="Group 6732" transform="translate(33.964 11.396)">
                        <path id="Path_154" data-name="Path 154" d="M836.07,144.091c.425,1.061,1.269,1.621,1.936,1.348s.831-1.28.462-2.308-1.266-1.611-1.936-1.348S835.67,143.082,836.07,144.091Z" transform="translate(-829.573 -131.335)" fill="#263238"/>
                        <path id="Path_155" data-name="Path 155" d="M843.39,140.941c.414,1.062,1.269,1.621,1.924,1.351s.832-1.28.462-2.308-1.266-1.612-1.924-1.353S842.979,139.934,843.39,140.941Z" transform="translate(-825.591 -133.049)" fill="#263238"/>
                        <path id="Path_156" data-name="Path 156" d="M843.426,139.32l2.145-1.68S845.109,140.032,843.426,139.32Z" transform="translate(-825.458 -133.554)" fill="#263238"/>
                        <path id="Path_157" data-name="Path 157" d="M841.415,141.574c2.625,2.589,4.6,3.064,7.44,4.842a3.33,3.33,0,0,1-2.457,3.1Z" transform="translate(-826.552 -131.414)" fill="#ed847e"/>
                        <path id="Path_158" data-name="Path 158" d="M846.407,150.365a9.5,9.5,0,0,0,1.417-.67.3.3,0,0,0,.125-.411l-.009-.015a.336.336,0,0,0-.429-.131,8.6,8.6,0,0,1-7.839.414.324.324,0,1,0-.3.573A9.127,9.127,0,0,0,846.407,150.365Z" transform="translate(-827.76 -127.316)" fill="#263238"/>
                        <path id="Path_159" data-name="Path 159" d="M837.865,138.057a.676.676,0,0,1-.494.613c-2.962.879-4.276,4.637-4.282,4.668a.667.667,0,0,1-1.265-.423c.114-.142,1.547-4.453,5.157-5.533a.677.677,0,0,1,.829.451A.538.538,0,0,1,837.865,138.057Z" transform="translate(-831.789 -133.708)" fill="#263238"/>
                        <path id="Path_160" data-name="Path 160" d="M847.361,137.525a.674.674,0,0,1-.784-.057c-2.41-1.933-6.248-.871-6.277-.859a.667.667,0,1,1-.372-1.28c.182.014,4.541-1.266,7.484,1.087a.674.674,0,0,1,.1.936A.5.5,0,0,1,847.361,137.525Z" transform="translate(-827.623 -134.994)" fill="#263238"/>
                        <path id="Path_161" data-name="Path 161" d="M836.121,142.463l2.15-1.669S837.783,143.181,836.121,142.463Z" transform="translate(-829.432 -131.838)" fill="#263238"/>
                      </g>
                    </g>
                    <path id="Path_162" data-name="Path 162" d="M829.068,131.918a11.211,11.211,0,0,0-8.4,5.035c-1.228,1.91-1.66,4.813.156,6.176a5.774,5.774,0,0,0,3.028.846c4.7.412,10.494-3.218,10.494-3.218-1.811-7.674,14.288-13.613,22.224-1.725,2.333,3.493,1.7,6.028,5.579,7.643,1.825.758,4.231.55,5.4,2.143,1.939,2.645-1.788,7.126.579,9.4,1.62,1.553,5.292.96,5.517,3.193.106,1.05-.581,2.569.429,2.877.559.17,1.073-.343,1.434-.8a9.4,9.4,0,0,0,2.071-3.646,3.217,3.217,0,0,0-1.475-3.622c-.987-.449-3.595.053-3.419,1.121.213,1.286-.891-5.026-.4-7.412.431-2.077,2.413-3.877,1.813-5.912-.642-2.171-3.221-3.037-5.46-3.369s-4.779-.6-6.155-2.4c-1.536-2.009-.837-4.876-1.331-7.356-.627-3.153-3.258-5.608-6.207-6.887C846,120.12,832.15,120.671,829.068,131.918Z" transform="translate(-804.458 -121.823)" fill="#263238"/>
                  </g>
                </g>
                <g id="Group_6740" data-name="Group 6740" transform="translate(13.443 29.245)">
                  <g id="Group_6739" data-name="Group 6739">
                    <g id="Group_6738" data-name="Group 6738">
                      <path id="Path_163" data-name="Path 163" d="M857.348,155.871l-30.875,15.511a21.977,21.977,0,0,0-10.6,27.666l14.89,37.974a22.01,22.01,0,0,0,26.585,13.111l33.2-9.574a21.979,21.979,0,0,0,14.376-29.145L887.712,167.5A22.008,22.008,0,0,0,857.348,155.871Zm-5.1,65.217a13.386,13.386,0,1,1,7.577-17.342A13.4,13.4,0,0,1,852.245,221.089Z" transform="translate(-814.354 -133.82)" fill="#407bff"/>
                      <path id="Path_164" data-name="Path 164" d="M857.348,155.871l-30.875,15.511a21.977,21.977,0,0,0-10.6,27.666l14.89,37.974a22.01,22.01,0,0,0,26.585,13.111l33.2-9.574a21.979,21.979,0,0,0,14.376-29.145L887.712,167.5A22.008,22.008,0,0,0,857.348,155.871Zm-5.1,65.217a13.386,13.386,0,1,1,7.577-17.342A13.4,13.4,0,0,1,852.245,221.089Z" transform="translate(-814.354 -133.82)" fill="#407bff"/>
                      <path id="Path_165" data-name="Path 165" d="M904.936,211.421,887.71,167.512a21.994,21.994,0,0,0-30.356-11.643l-8.97,4.509-6.025,3.02-15.877,7.983a21.989,21.989,0,0,0-10.61,27.669l14.89,37.974a22.026,22.026,0,0,0,26.591,13.114l33.209-9.577a21.88,21.88,0,0,0,7.27-3.673,21.308,21.308,0,0,0,4.265-4.325A21.939,21.939,0,0,0,904.936,211.421Zm-52.7,9.668a13.382,13.382,0,1,1,7.588-17.348A13.386,13.386,0,0,1,852.24,221.088Z" transform="translate(-814.355 -133.821)" fill="#fff" opacity="0.1"/>
                      <path id="Path_166" data-name="Path 166" d="M856.614,157.692l-28.957,14.546a20.611,20.611,0,0,0-9.936,25.947L831.686,233.8a20.642,20.642,0,0,0,24.933,12.3l31.139-8.981a20.613,20.613,0,0,0,13.483-27.334L885.092,168.6A20.639,20.639,0,0,0,856.614,157.692Zm-22.776,54.744a13.386,13.386,0,1,1,17.353,7.583A13.375,13.375,0,0,1,833.839,212.436Z" transform="translate(-813.3 -132.75)" fill="#407bff"/>
                      <path id="Path_167" data-name="Path 167" d="M856.614,157.692l-28.957,14.546a20.611,20.611,0,0,0-9.936,25.947L831.686,233.8a20.642,20.642,0,0,0,24.933,12.3l31.139-8.981a20.613,20.613,0,0,0,13.483-27.334L885.092,168.6A20.639,20.639,0,0,0,856.614,157.692Zm-22.776,54.744a13.386,13.386,0,1,1,17.353,7.583A13.375,13.375,0,0,1,833.839,212.436Z" transform="translate(-813.3 -132.75)" fill="#407bff" opacity="0.1"/>
                      <g id="Group_6736" data-name="Group 6736" transform="translate(75.838)">
                        <path id="Path_168" data-name="Path 168" d="M974.82,151.97l-.885,1.617-.491.9-1.4,2.551.585,6.535a2.022,2.022,0,0,1-1.283,2.074l-12.206,4.777a2.049,2.049,0,0,1-2.194-.469l-6.9-7.015-.019-.019-9.811,3.84,1.422,3.626-9.811,3.84,2.341,5.971-7.223,2.827a2.194,2.194,0,0,1-2.292-.443l-4.163-3.917-9.811,3.842,2.341,5.97-10.316,4.038,2.352,6a1.9,1.9,0,0,1-1.078,2.469l-28.254,11.059-12.259-31.265,102.2-40.006,1.6.82,5.181,2.66A5.64,5.64,0,0,1,974.82,151.97Z" transform="translate(-863.469 -140.763)" fill="#407bff"/>
                      </g>
                      <g id="Group_6737" data-name="Group 6737" transform="translate(75.838)" opacity="0.1">
                        <path id="Path_169" data-name="Path 169" d="M974.82,151.97l-.885,1.617-.491.9-1.4,2.551.585,6.535a2.022,2.022,0,0,1-1.283,2.074l-12.206,4.777a2.049,2.049,0,0,1-2.194-.469l-6.9-7.015-.019-.019-9.811,3.84,1.422,3.626-9.811,3.84,2.341,5.971-7.223,2.827a2.194,2.194,0,0,1-2.292-.443l-4.163-3.917-9.811,3.842,2.341,5.97-10.316,4.038,2.352,6a1.9,1.9,0,0,1-1.078,2.469l-28.254,11.059-12.259-31.265,102.2-40.006,1.6.82,5.181,2.66A5.64,5.64,0,0,1,974.82,151.97Z" transform="translate(-863.469 -140.763)" fill="#fff"/>
                      </g>
                    </g>
                    <path id="Path_170" data-name="Path 170" d="M974.946,147.842,865.683,190.614l-3.184-8.025,104.177-40.78,5.182,2.659C973.83,145.481,974.963,146.421,974.946,147.842Z" transform="translate(-788.159 -140.194)" fill="#407bff"/>
                    <path id="Path_171" data-name="Path 171" d="M974.946,147.842,865.683,190.614l-3.184-8.025,104.177-40.78,5.182,2.659C973.83,145.481,974.963,146.421,974.946,147.842Z" transform="translate(-788.159 -140.194)" opacity="0.1"/>
                    <path id="Path_172" data-name="Path 172" d="M971.346,150.785l-1.058,2.373a.25.25,0,0,0-.02.125l.591,6.467a2.062,2.062,0,0,1-.054.692.25.25,0,0,1-.15.165l-13.269,5.222a.244.244,0,0,1-.219-.017,1.984,1.984,0,0,1-.358-.289L949.22,157.9a.249.249,0,0,0-.267-.057l-10.772,4.24a.248.248,0,0,0-.141.323l1.282,3.25a.25.25,0,0,1-.141.323L930,169.594a.248.248,0,0,0-.141.323l2.213,5.611a.248.248,0,0,1-.141.323l-6.74,2.653a.239.239,0,0,1-.21-.012,2.09,2.09,0,0,1-.4-.295l-4.927-4.54a.25.25,0,0,0-.259-.049l-10.7,4.212a.249.249,0,0,0-.139.323l2.267,5.75a.25.25,0,0,1-.141.323l-41.086,16.168a.25.25,0,0,1-.323-.141l-4.1-10.29a.25.25,0,0,1,.141-.324l107.063-42.137a.248.248,0,0,1,.318.334Z" transform="translate(-786.716 -137.112)" fill="#407bff"/>
                    <path id="Path_173" data-name="Path 173" d="M971.346,150.785l-1.058,2.373a.25.25,0,0,0-.02.125l.591,6.467a2.062,2.062,0,0,1-.054.692.25.25,0,0,1-.15.165l-13.269,5.222a.244.244,0,0,1-.219-.017,1.984,1.984,0,0,1-.358-.289L949.22,157.9a.249.249,0,0,0-.267-.057l-10.772,4.24a.248.248,0,0,0-.141.323l1.282,3.25a.25.25,0,0,1-.141.323L930,169.594a.248.248,0,0,0-.141.323l2.213,5.611a.248.248,0,0,1-.141.323l-6.74,2.653a.239.239,0,0,1-.21-.012,2.09,2.09,0,0,1-.4-.295l-4.927-4.54a.25.25,0,0,0-.259-.049l-10.7,4.212a.249.249,0,0,0-.139.323l2.267,5.75a.25.25,0,0,1-.141.323l-41.086,16.168a.25.25,0,0,1-.323-.141l-4.1-10.29a.25.25,0,0,1,.141-.324l107.063-42.137a.248.248,0,0,1,.318.334Z" transform="translate(-786.716 -137.112)" opacity="0.1"/>
                    <line id="Line_1" data-name="Line 1" x1="41.086" y2="16.168" transform="translate(82.877 47.103)" fill="#407bff" opacity="0.1"/>
                  </g>
                  <path id="Path_174" data-name="Path 174" d="M835.8,179.385a16.792,16.792,0,1,0,21.766,9.512A16.781,16.781,0,0,0,835.8,179.385Zm10.589,28.263a13.386,13.386,0,1,1,7.577-17.342A13.4,13.4,0,0,1,846.385,207.648Z" transform="translate(-808.494 -120.379)" fill="#fff" opacity="0.3"/>
                </g>
                <g id="Group_6741" data-name="Group 6741" transform="translate(22.652 55.56)">
                  <path id="Path_175" data-name="Path 175" d="M892.243,230.218a21.351,21.351,0,0,1-4.265,4.325L832.5,161.052l-.046-.06s4.887-2.46,6-3.187a.555.555,0,0,0,.076.227C840.957,163.237,884.563,219.851,892.243,230.218Z" transform="translate(-813.714 -157.805)" fill="#fff" opacity="0.1"/>
                  <path id="Path_176" data-name="Path 176" d="M890.834,235.122c-.349.167-16.513,5.085-16.513,5.085L856.3,216.347a16.789,16.789,0,0,0-17.893-27.609,14.735,14.735,0,0,0-2.156,1.033l-15.937-21.113s14.008-6.678,15.557-7.65C836.285,163.969,890.834,234.5,890.834,235.122Z" transform="translate(-820.319 -156.062)" fill="#fff" opacity="0.1"/>
                </g>
              </g>
            </g>
            <path id="Path_177" data-name="Path 177" d="M823.907,134.817a9.169,9.169,0,0,0,3.155,14.218c1.319.613,2.77.906,4.075,1.549a4.374,4.374,0,0,1,2.651,3.221c.154,1.6-1.025,3.091-.914,4.693.1,1.467,1.249,2.631,2.407,3.538a9.679,9.679,0,0,1,3.09,3.085c.638,1.325.224,3.287-1.2,3.673a1.983,1.983,0,0,0-.032,1.946,1.253,1.253,0,0,0,1.509.187,7.842,7.842,0,0,0,3.692-6.425,6.8,6.8,0,0,0-3.922-6.1,3.6,3.6,0,0,1,.258-2.812q1.059-2.652,2.119-5.3a3.047,3.047,0,0,0-.442-2.537,4.712,4.712,0,0,0-1.876-1.189l-4.552-1.95c-1.719-.737-6.817-7.571-.765-9.566-.791-1.756-2.159-2.307-4.052-2.653S825.146,133.342,823.907,134.817Z" transform="translate(-743.157 -116.105)" fill="#263238"/>
          </g>
          <g id="Group_6745" data-name="Group 6745" transform="translate(88.558 9.654)">
            <path id="Path_178" data-name="Path 178" d="M828.66,129.781l-.452,5.391c1.507-2.478,4.3-7.279,4.208-7.091C831.228,128.725,829.848,129.136,828.66,129.781Z" transform="translate(-828.208 -128.075)" fill="#263238"/>
          </g>
          <g id="Group_6746" data-name="Group 6746" transform="translate(91.053 8.195)">
            <path id="Path_179" data-name="Path 179" d="M829.824,133.248q3.164-2.923,6.326-5.849a4.566,4.566,0,0,0-4.795,1.106C831.391,128.371,830.415,131.367,829.824,133.248Z" transform="translate(-829.824 -127.13)" fill="#263238"/>
          </g>
        </g>
        <path id="Path_180" data-name="Path 180" d="M827.439,226.589c-8.236,10.219-5.5,18.058-16.863,36.149,14.337,10.627,30.053,12.387,49.594,10.869,2.308-4.092,3.476-8.36,5.784-12.452,3.312,4.109,5.971,7.563,9.283,11.674,10.237-1.6,22.4-4.483,30.5-9.7-7.149-8.2-11.589-18.441-16.167-27.482-2.146-4.239-1.248-6.024-6.942-11.582-18.14.837-36.131,1.28-54.271,2.117C828.832,226.208,826.961,226.564,827.439,226.589Z" transform="translate(-749.244 -66.191)" fill="#263238"/>
        <g id="Group_6750" data-name="Group 6750" transform="translate(79.28 155.807)">
          <g id="Group_6748" data-name="Group 6748" transform="translate(0 0.273)">
            <path id="Path_181" data-name="Path 181" d="M823.371,225.512l-1.137,4.771c-.165.374.278.729.888.7l50-2.213c.479.008.86-.276.88-.567l.266-4.74c0-.32-.411-.587-.934-.553L824.2,225.077A.945.945,0,0,0,823.371,225.512Z" transform="translate(-822.199 -222.904)" fill="#407bff"/>
            <path id="Path_182" data-name="Path 182" d="M823.371,225.512l-1.137,4.771c-.165.374.278.729.888.7l50-2.213c.479.008.86-.276.88-.567l.266-4.74c0-.32-.411-.587-.934-.553L824.2,225.077A.945.945,0,0,0,823.371,225.512Z" transform="translate(-822.199 -222.904)" fill="#407bff"/>
          </g>
          <g id="Group_6749" data-name="Group 6749" transform="translate(10.244)">
            <path id="Path_183" data-name="Path 183" d="M830.775,230.539l-1.453.063c-.275,0-.505-.124-.488-.3l.391-6.161c0-.174.252-.329.542-.34l1.453-.077c.275,0,.5.124.488.312l-.391,6.147C831.3,230.358,831.05,230.529,830.775,230.539Z" transform="translate(-828.833 -222.183)" fill="#263238"/>
            <path id="Path_184" data-name="Path 184" d="M854.156,229.527l-1.453.063c-.276,0-.506-.125-.488-.3l.391-6.147c0-.188.252-.344.528-.355l1.452-.063c.276,0,.506.125.488.3l-.389,6.146C854.681,229.361,854.447,229.516,854.156,229.527Z" transform="translate(-816.111 -222.727)" fill="#263238"/>
          </g>
        </g>
      </g>
      <g id="Group_6755" data-name="Group 6755" transform="translate(51.85 114.979)">
        <g id="Group_6754" data-name="Group 6754" transform="translate(0.96 7.277)">
          <g id="Group_6752" data-name="Group 6752" transform="translate(45.111 7.195)">
            <path id="Path_185" data-name="Path 185" d="M834.272,210.384c.094.456,3.978,6.634,7.021,6.2l.076-.011a2.484,2.484,0,0,1,2.319.947c1.223,1.592,1.961,2.5,2.787,3.55A4.663,4.663,0,0,0,852.1,222.4c.579-.27,1.155-.567,1.726-.869a4.66,4.66,0,0,0,2.335-5.233,25.391,25.391,0,0,0-2.6-6.5,4.612,4.612,0,0,0-1.543-1.8c-.69-.4-7.39-2.427-9.992-2.346C839.323,205.747,836.752,209.294,834.272,210.384Z" transform="translate(-834.272 -205.658)" fill="#e8bfbf"/>
          </g>
          <g id="Group_6753" data-name="Group 6753">
            <path id="Path_186" data-name="Path 186" d="M858,207.994s-41.046-12.429-49.9-4.152c-5.2,4.864-2.747,9.459.164,12.419,2.165,2.2,6.881,1.663,9.966,1.518l32.332-3.172Z" transform="translate(-805.057 -200.999)" fill="#e8bfbf"/>
          </g>
        </g>
        <path id="Path_187" data-name="Path 187" d="M834.747,204.881a6.769,6.769,0,0,0-3.941-5.062,19.981,19.981,0,0,0-6.476-1.572l-15.472-1.961a19.9,19.9,0,0,0-4.421,12.083,18.574,18.574,0,0,0,4.415,11.606c2.467-4.77,5.723-9.682,10.542-12.052S829.462,203.923,834.747,204.881Z" transform="translate(-804.435 -196.286)" fill="#263238"/>
      </g>
    </g>
    <g id="Group_6757" data-name="Group 6757" transform="translate(993.615 88.173)">
      <path id="Path_188" data-name="Path 188" d="M883.252,117.023l11.436,21.2L941.348,98.6a.429.429,0,0,0-.513-.686l-43.742,28.872L890.35,113.64Z" transform="translate(-861.298 -82.912)" fill="#407bff"/>
      <path id="Path_189" data-name="Path 189" d="M964.607,122.383c0,18.9-19.837,34.211-44.305,34.211a53.257,53.257,0,0,1-25.256-6.116l-26.012,11.308,16.42-18.29c-5.919-5.8-9.456-13.128-9.456-21.113,0-18.9,19.839-34.21,44.3-34.21S964.607,103.488,964.607,122.383Z" transform="translate(-869.034 -88.173)" fill="none" stroke="#407bff" stroke-width="1.3"/>
    </g>
  </g>
</svg>
