<svg xmlns="http://www.w3.org/2000/svg" width="439.558" height="425.18" viewBox="0 0 439.558 425.18">
  <g id="Group_6690" data-name="Group 6690" transform="translate(528.235 -332.665)">
    <g id="Group_6634" data-name="Group 6634" transform="translate(-528.235 410.185)">
      <g id="Group_6502" data-name="Group 6502" transform="translate(0 65.86)">
        <g id="Group_6468" data-name="Group 6468" transform="translate(384.14 217.893)">
          <path id="Path_1" data-name="Path 1" d="M-234.322,610.141l32.355,47.047,11.564.272-21.205-48.377Z" transform="translate(234.322 -609.083)" fill="#263238"/>
        </g>
        <g id="Group_6469" data-name="Group 6469" transform="translate(25.747 221.357)">
          <path id="Path_2" data-name="Path 2" d="M-491.491,611.732l-17.045,44.428h8.522l29.77-44.234Z" transform="translate(508.536 -611.732)" fill="#263238"/>
        </g>
        <g id="Group_6470" data-name="Group 6470" transform="translate(35.48 2.546)">
          <path id="Path_3" data-name="Path 3" d="M-501.077,501.669l1.249,57.488a15.2,15.2,0,0,0,14.854,14.862l321.768,7.162a15.194,15.194,0,0,0,15.534-15.191V496.733A40.916,40.916,0,0,0-183,456.183c-58.9-8.1-180.4-20.556-278.577-2.857A48.052,48.052,0,0,0-501.077,501.669Z" transform="translate(501.089 -444.316)" fill="#007bff"/>
        </g>
        <g id="Group_6471" data-name="Group 6471" transform="translate(0 73.439)">
          <path id="Path_4" data-name="Path 4" d="M-494.191,505.106s-26.508-12.269-31.93,0,.6,27.33,6.626,35.766,5.927,112.061,5.927,112.061l402-4.3,4.764-99.686s19.279-23.743,18.074-33.984-17.472-25.14-36.149-9.86-23.5,47.212-23.5,47.212l-320.51,2.41S-467.826,509.856-494.191,505.106Z" transform="translate(528.235 -498.558)" fill="#007bff"/>
        </g>
        <g id="Group_6473" data-name="Group 6473" transform="translate(57.664 146.768)">
          <g id="Group_6472" data-name="Group 6472">
            <path id="Path_5" data-name="Path 5" d="M-166.015,555c0,.188-71.215.34-159.043.34-87.858,0-159.057-.152-159.057-.34s71.2-.341,159.057-.341C-237.229,554.663-166.015,554.816-166.015,555Z" transform="translate(484.115 -554.663)" fill="#263238"/>
          </g>
        </g>
        <g id="Group_6475" data-name="Group 6475" transform="translate(32.153 79.173)">
          <g id="Group_6474" data-name="Group 6474">
            <path id="Path_6" data-name="Path 6" d="M-478.123,614.756a1.1,1.1,0,0,1-.038-.315c-.01-.25-.023-.553-.04-.925-.031-.814-.056-2.015-.069-3.56-.008-3.152-.018-7.609-.033-13.093-.016-11.052.078-26.325-.425-43.174-.307-8.413-.61-16.475-1.839-23.634q-.351-1.3-.691-2.563c-.328-.821-.646-1.638-.991-2.427-.69-1.578-1.4-3.1-2.167-4.518a47.744,47.744,0,0,0-4.893-7.526,35.1,35.1,0,0,0-5.193-5.266,27.458,27.458,0,0,0-4.7-3.023,47.464,47.464,0,0,0-4.435-1.784,1.164,1.164,0,0,1,.311.059c.242.063.536.141.9.237a19.959,19.959,0,0,1,3.343,1.251,26.65,26.65,0,0,1,4.818,2.962,34.756,34.756,0,0,1,5.33,5.262,47.48,47.48,0,0,1,5.018,7.562c.789,1.43,1.511,2.958,2.218,4.547.353.795.677,1.614,1.013,2.444l.734,2.658c1.28,7.254,1.594,15.3,1.9,23.737.5,16.871.335,32.145.227,43.2-.077,5.482-.14,9.938-.184,13.089q-.037,2.251-.059,3.559l-.026.925A1.13,1.13,0,0,1-478.123,614.756Z" transform="translate(503.634 -502.945)" fill="#263238"/>
          </g>
        </g>
        <g id="Group_6477" data-name="Group 6477" transform="translate(27.39 102.447)">
          <g id="Group_6476" data-name="Group 6476">
            <path id="Path_7" data-name="Path 7" d="M-503.758,521.43a1.927,1.927,0,0,1,1.069-.332,4.433,4.433,0,0,1,2.949.822,4.5,4.5,0,0,1,1.438,1.627,4.085,4.085,0,0,1,.383,2.485,4.864,4.864,0,0,1-3.755,4.009,4.967,4.967,0,0,1-4.965-2.367,4.365,4.365,0,0,1-.637-2.426,4.875,4.875,0,0,1,.584-2.086,4.842,4.842,0,0,1,2.2-2.124,2.057,2.057,0,0,1,1.085-.273c.016.059-.37.156-.961.508a4.951,4.951,0,0,0-1.9,2.106,4.04,4.04,0,0,0,.158,3.965,4.39,4.39,0,0,0,4.308,2.027,4.285,4.285,0,0,0,3.258-3.44,3.709,3.709,0,0,0-1.486-3.623,4.457,4.457,0,0,0-2.652-.946C-503.362,521.358-503.74,521.489-503.758,521.43Z" transform="translate(507.279 -520.752)" fill="#263238"/>
          </g>
        </g>
        <g id="Group_6479" data-name="Group 6479" transform="translate(29.039 111.499)">
          <g id="Group_6478" data-name="Group 6478">
            <path id="Path_8" data-name="Path 8" d="M-502.324,545.1a6.25,6.25,0,0,1-1.818-2.143,12.949,12.949,0,0,1-1.874-6.523,12.944,12.944,0,0,1,1.719-6.569,6.245,6.245,0,0,1,1.766-2.185c.089.071-.595.9-1.341,2.413a14.158,14.158,0,0,0-1.462,6.332,14.171,14.171,0,0,0,1.613,6.3C-502.939,544.221-502.237,545.028-502.324,545.1Z" transform="translate(506.017 -527.678)" fill="#263238"/>
          </g>
        </g>
        <g id="Group_6481" data-name="Group 6481" transform="translate(27.299 90.118)">
          <g id="Group_6480" data-name="Group 6480">
            <path id="Path_9" data-name="Path 9" d="M-506.117,511.32a12.691,12.691,0,0,1-.4,1.954,12.279,12.279,0,0,0,.067,4.678,12.272,12.272,0,0,0,1.84,4.3c.685,1,1.235,1.538,1.159,1.622-.046.059-.721-.358-1.544-1.332a10.442,10.442,0,0,1-2.123-4.45,10.436,10.436,0,0,1,.131-4.927A4.033,4.033,0,0,1-506.117,511.32Z" transform="translate(507.348 -511.319)" fill="#263238"/>
          </g>
        </g>
        <g id="Group_6483" data-name="Group 6483" transform="translate(20.687 104.567)">
          <g id="Group_6482" data-name="Group 6482">
            <path id="Path_10" data-name="Path 10" d="M-512.394,522.384c.149-.136,1.366,1.093,3.219,2.044,1.842.974,3.545,1.269,3.518,1.469,0,.174-1.855.175-3.833-.867C-511.475,524.006-512.538,522.482-512.394,522.384Z" transform="translate(512.407 -522.374)" fill="#263238"/>
          </g>
        </g>
        <g id="Group_6485" data-name="Group 6485" transform="translate(13.189 190.643)">
          <g id="Group_6484" data-name="Group 6484">
            <path id="Path_11" data-name="Path 11" d="M-113.112,588.574c0,.188-90.677.34-202.507.34-111.867,0-202.525-.152-202.525-.34s90.658-.341,202.525-.341C-203.789,588.233-113.112,588.386-113.112,588.574Z" transform="translate(518.144 -588.233)" fill="#263238"/>
          </g>
        </g>
        <g id="Group_6487" data-name="Group 6487" transform="translate(374.028 127.529)">
          <g id="Group_6486" data-name="Group 6486">
            <path id="Path_12" data-name="Path 12" d="M-241.718,539.943c.187,0,.34,14.2.34,31.706s-.153,31.709-.34,31.709-.341-14.194-.341-31.709S-241.906,539.943-241.718,539.943Z" transform="translate(242.059 -539.943)" fill="#263238"/>
          </g>
        </g>
        <g id="Group_6489" data-name="Group 6489" transform="translate(44.577 17.844)">
          <g id="Group_6488" data-name="Group 6488">
            <path id="Path_13" data-name="Path 13" d="M-298.583,456.043s-.21.027-.622.047l-1.827.068-7.028.2-25.844.6-85.273,1.715c-8.327.2-16.468.176-24.286.693s-15.352,1.61-22.117,4.037A39.089,39.089,0,0,0-482.4,474.419a36.649,36.649,0,0,0-5.15,7.615,48.2,48.2,0,0,0-3.2,7.882,73.817,73.817,0,0,0-2.645,14.419c-.4,4.309-.447,8.044-.468,11.092s.052,5.419.089,7.024c.017.78.029,1.387.039,1.827,0,.412-.01.623-.01.623s-.031-.209-.06-.62c-.025-.44-.06-1.047-.106-1.826-.08-1.6-.188-3.973-.216-7.028s-.013-6.8.353-11.126a73.351,73.351,0,0,1,2.563-14.525,48.542,48.542,0,0,1,3.193-7.984,37,37,0,0,1,5.191-7.745,39.594,39.594,0,0,1,17.029-11.241c6.842-2.472,14.443-3.582,22.283-4.112,7.858-.528,15.994-.506,24.319-.707l85.277-1.516,25.85-.382,7.029-.069h1.829C-298.8,456.024-298.583,456.043-298.583,456.043Z" transform="translate(494.128 -456.021)" fill="#263238"/>
          </g>
        </g>
        <g id="Group_6491" data-name="Group 6491" transform="translate(133.216 62.217)">
          <g id="Group_6490" data-name="Group 6490">
            <path id="Path_14" data-name="Path 14" d="M-422.308,490.39c.023.059-.434.221-1.108.727a6.009,6.009,0,0,0-2.026,2.83,5.078,5.078,0,0,0,.727,4.858,5.634,5.634,0,0,0,5.544,2.085,5.632,5.632,0,0,0,4.01-4.361,5.078,5.078,0,0,0-1.542-4.663,6,6,0,0,0-3.084-1.612c-.83-.148-1.311-.086-1.316-.149a2.734,2.734,0,0,1,1.353-.114,5.9,5.9,0,0,1,3.377,1.523,5.968,5.968,0,0,1,1.521,2.126,5.376,5.376,0,0,1,.308,3,6.2,6.2,0,0,1-4.469,4.91,6.207,6.207,0,0,1-6.2-2.367,5.379,5.379,0,0,1-1.078-2.819,5.984,5.984,0,0,1,.4-2.584,5.906,5.906,0,0,1,2.328-2.883A2.763,2.763,0,0,1-422.308,490.39Z" transform="translate(426.309 -489.972)" fill="#263238"/>
          </g>
        </g>
        <g id="Group_6493" data-name="Group 6493" transform="translate(130.284 73.996)">
          <g id="Group_6492" data-name="Group 6492">
            <path id="Path_15" data-name="Path 15" d="M-427.129,521.489a16.077,16.077,0,0,1-.993-3.865,22.4,22.4,0,0,1,.205-9.644,13.228,13.228,0,0,1,5.634-7.765,8.83,8.83,0,0,1,2.736-1.11,2.726,2.726,0,0,1,1.076-.1,16.2,16.2,0,0,0-3.552,1.617,13.479,13.479,0,0,0-5.237,7.539,24.472,24.472,0,0,0-.384,9.392C-427.334,519.974-427.024,521.466-427.129,521.489Z" transform="translate(428.552 -498.984)" fill="#263238"/>
          </g>
        </g>
        <g id="Group_6495" data-name="Group 6495" transform="translate(132.509 42.445)">
          <g id="Group_6494" data-name="Group 6494">
            <path id="Path_16" data-name="Path 16" d="M-422.891,474.847a30.818,30.818,0,0,0-1.927,2.883,11.936,11.936,0,0,0-1.1,8.005,11.936,11.936,0,0,0,4.463,6.736,30.482,30.482,0,0,0,2.986,1.761,2.28,2.28,0,0,1-.934-.2,9.866,9.866,0,0,1-2.33-1.165,11.685,11.685,0,0,1-4.849-6.979,11.679,11.679,0,0,1,1.341-8.39,9.854,9.854,0,0,1,1.595-2.061C-423.2,475.009-422.919,474.817-422.891,474.847Z" transform="translate(426.85 -474.844)" fill="#263238"/>
          </g>
        </g>
        <g id="Group_6497" data-name="Group 6497" transform="translate(121.564 68.488)">
          <g id="Group_6496" data-name="Group 6496">
            <path id="Path_17" data-name="Path 17" d="M-421.519,494.893c.012.213-3.292.3-7.088,1.6-3.81,1.26-6.494,3.185-6.613,3.009-.118-.115,2.464-2.35,6.4-3.654C-424.9,494.509-421.494,494.73-421.519,494.893Z" transform="translate(435.224 -494.769)" fill="#263238"/>
          </g>
        </g>
        <g id="Group_6499" data-name="Group 6499" transform="translate(93.04 131.8)" opacity="0.3">
          <g id="Group_6498" data-name="Group 6498">
            <path id="Path_18" data-name="Path 18" d="M-457.048,559.712a65.635,65.635,0,0,0,44.422,13.4l-9.908,46.095c-.882,4.1-1.7,8.659.446,12.265,3,5.054,9.993,5.559,15.872,5.478,6.545-.09,13.368-.247,19.171-3.277,8.222-4.295,12.635-13.382,15.825-22.093s5.942-18.032,12.507-24.586a51.017,51.017,0,0,0,28.946,16.486c3.275.6,6.977.783,9.6-1.266,2.606-2.034,3.355-5.781,2.691-9.018s-2.49-6.1-4.282-8.878q-9.561-14.837-19.124-29.673c-2.588-4.015-5.42-8.243-9.8-10.158-3.432-1.5-7.331-1.353-11.07-1.134a510.312,510.312,0,0,0-92.629,14.006" transform="translate(457.048 -543.21)"/>
          </g>
        </g>
        <g id="Group_6501" data-name="Group 6501" transform="translate(65.973)" opacity="0.3">
          <g id="Group_6500" data-name="Group 6500">
            <path id="Path_19" data-name="Path 19" d="M-348.465,443.585c-7.737,20.44-36.626,25.128-46.769,44.486-10.03,19.141,2.4,44.492-7.928,63.472-3.827,7.029-10.4,12.274-14.134,19.35-2.516,4.764-3.815,10.426-7.876,13.968-4.73,4.127-12.058,4.046-17.742,1.38s-10.06-7.447-14.108-12.248c-7.584-8.995-14.707-18.717-18.251-29.938-6.1-19.312-.51-41.144,11.728-57.281s30.413-27.014,49.588-33.529,39.464-8.988,59.629-10.877" transform="translate(477.758 -442.368)"/>
          </g>
        </g>
      </g>
      <g id="Group_6633" data-name="Group 6633" transform="translate(51.261)">
        <g id="Group_6503" data-name="Group 6503" transform="translate(51.076)">
          <path id="Path_20" data-name="Path 20" d="M-449.935,405.3a31.842,31.842,0,0,1,11.72-10.868,20.833,20.833,0,0,1,15.668-1.574c5.121,1.672,9.444,6.01,10.487,11.294.827,4.189-.288,8.869,1.875,12.55,2.49,4.236,8.488,5.577,10.594,10.017,1.268,2.673.761,5.922-.631,8.533a26.474,26.474,0,0,1-5.742,6.711,14.232,14.232,0,0,1,3.58,3.222,4.9,4.9,0,0,1,.762,4.576c-.657,1.574-2.3,2.469-3.874,3.134a38.69,38.69,0,0,1-23.124,2.172c-2.064-.447-4.425-1.009-6.126.244" transform="translate(449.935 -391.977)" fill="#263238"/>
        </g>
        <g id="Group_6504" data-name="Group 6504" transform="translate(89.296 20.176)">
          <path id="Path_21" data-name="Path 21" d="M-406.588,416.065l-4.226,12.806,28.581,16.214-28.733.929,2.147,23.3,55.343-13.585s3.32-22.569-53.113-39.663l-3.968-.933a4.5,4.5,0,0,1-3.159-2.738h0a4.831,4.831,0,0,0-2.264-2.519l-4.713-2.461.033,3.739,2.59,3.047-.413,7.229a6.538,6.538,0,0,0,5.021,6.817l2.647.625" transform="translate(420.692 -407.414)" fill="#b78876"/>
        </g>
        <g id="Group_6521" data-name="Group 6521" transform="translate(8.314 58.016)">
          <g id="Group_6518" data-name="Group 6518">
            <g id="Group_6505" data-name="Group 6505">
              <path id="Path_22" data-name="Path 22" d="M-450.164,453.45c-1.131,0-11.686,2.563-17.716,10.251s-14.773,36.507-14.773,36.507l22.241,3.844,9.589,24.1s56.782-7.442,53.767-10.431a114.256,114.256,0,0,0-9.218-7.6l13.092-43.53,15.714-8.468-5.284-21.751-31.6,4.271Z" transform="translate(482.653 -436.366)" fill="#fafafa"/>
            </g>
            <g id="Group_6507" data-name="Group 6507" transform="translate(7.705 39.917)">
              <g id="Group_6506" data-name="Group 6506">
                <path id="Path_23" data-name="Path 23" d="M-397.678,467.247c0,.188-17.7.341-39.539.341s-39.542-.153-39.542-.341,17.7-.34,39.542-.34S-397.678,467.06-397.678,467.247Z" transform="translate(476.758 -466.907)" fill="#e8505b"/>
              </g>
            </g>
            <g id="Group_6509" data-name="Group 6509" transform="translate(4.161 52.713)">
              <g id="Group_6508" data-name="Group 6508">
                <path id="Path_24" data-name="Path 24" d="M-400.389,477.038c0,.188-17.7.34-39.539.34s-39.542-.152-39.542-.34,17.7-.34,39.542-.34S-400.389,476.85-400.389,477.038Z" transform="translate(479.469 -476.698)" fill="#e8505b"/>
              </g>
            </g>
            <g id="Group_6511" data-name="Group 6511" transform="translate(23.344 66.532)">
              <g id="Group_6510" data-name="Group 6510">
                <path id="Path_25" data-name="Path 25" d="M-404.894,487.612c0,.188-13.41.34-29.947.34s-29.951-.152-29.951-.34,13.407-.341,29.951-.341S-404.894,487.424-404.894,487.612Z" transform="translate(464.792 -487.271)" fill="#e8505b"/>
              </g>
            </g>
            <g id="Group_6513" data-name="Group 6513" transform="translate(27.941 79.841)">
              <g id="Group_6512" data-name="Group 6512">
                <path id="Path_26" data-name="Path 26" d="M-401.378,497.794c0,.188-13.41.341-29.947.341s-29.95-.153-29.95-.341,13.406-.34,29.95-.34S-401.378,497.606-401.378,497.794Z" transform="translate(461.275 -497.454)" fill="#e8505b"/>
              </g>
            </g>
            <g id="Group_6515" data-name="Group 6515" transform="translate(62.449 22.709)">
              <g id="Group_6514" data-name="Group 6514">
                <path id="Path_27" data-name="Path 27" d="M-395.307,454.081c0,.188-8.857.341-19.781.341s-19.784-.153-19.784-.341,8.856-.34,19.784-.34S-395.307,453.894-395.307,454.081Z" transform="translate(434.872 -453.741)" fill="#e8505b"/>
              </g>
            </g>
            <g id="Group_6517" data-name="Group 6517" transform="translate(64.027 9.368)">
              <g id="Group_6516" data-name="Group 6516">
                <path id="Path_28" data-name="Path 28" d="M-394.238,443.645c0,.188-8.82.546-19.7.8s-19.717.308-19.722.12,8.817-.546,19.707-.8S-394.244,443.458-394.238,443.645Z" transform="translate(433.665 -443.534)" fill="#e8505b"/>
              </g>
            </g>
          </g>
          <g id="Group_6520" data-name="Group 6520" transform="translate(21.922 46.901)">
            <g id="Group_6519" data-name="Group 6519">
              <path id="Path_29" data-name="Path 29" d="M-460.947,472.251c.183.042-.768,4.829-2.124,10.691s-2.6,10.581-2.786,10.54.767-4.829,2.124-10.692S-461.13,472.208-460.947,472.251Z" transform="translate(465.88 -472.251)" fill="#263238"/>
            </g>
          </g>
        </g>
        <g id="Group_6541" data-name="Group 6541" transform="translate(75.152 268.101)">
          <g id="Group_6522" data-name="Group 6522" transform="translate(5.279)">
            <path id="Path_30" data-name="Path 30" d="M-410.923,597.106-427.475,649.3l19.953,2,18.741-45.342Z" transform="translate(427.475 -597.106)" fill="#b78876"/>
          </g>
          <g id="Group_6540" data-name="Group 6540" transform="translate(0 25.446)">
            <g id="Group_6535" data-name="Group 6535">
              <g id="Group_6523" data-name="Group 6523">
                <path id="Path_31" data-name="Path 31" d="M-395.084,625.021l-9.5,23.566s20.761,17.576,19.43,22.1L-431.514,653.9l13.3-37.327Z" transform="translate(431.514 -616.575)" fill="#455a64"/>
              </g>
              <g id="Group_6525" data-name="Group 6525" transform="translate(11.215 24.797)">
                <g id="Group_6524" data-name="Group 6524">
                  <path id="Path_32" data-name="Path 32" d="M-420.83,635.564a2.013,2.013,0,0,0-2.091,1.686,1.938,1.938,0,0,0,1.653,2.089,2.125,2.125,0,0,0,2.206-1.8c.009-.988-.982-2.123-1.96-1.98" transform="translate(422.933 -635.548)" fill="#e0e0e0"/>
                </g>
              </g>
              <g id="Group_6526" data-name="Group 6526" transform="translate(0 33.617)">
                <path id="Path_33" data-name="Path 33" d="M-431.514,646.007l1.487-3.711,43.889,17.482s1.738,1.646.979,3.015Z" transform="translate(431.514 -642.296)" fill="#e0e0e0"/>
              </g>
              <g id="Group_6528" data-name="Group 6528" transform="translate(22.608 31.368)">
                <g id="Group_6527" data-name="Group 6527">
                  <path id="Path_34" data-name="Path 34" d="M-409.062,641.256c-.089.224-1.259-.084-2.635.242-1.387.287-2.316,1.06-2.491.9-.193-.119.635-1.35,2.309-1.714C-410.209,640.3-408.938,641.066-409.062,641.256Z" transform="translate(414.216 -640.575)" fill="#263238"/>
                </g>
              </g>
              <g id="Group_6530" data-name="Group 6530" transform="translate(27.642 35.538)">
                <g id="Group_6529" data-name="Group 6529">
                  <path id="Path_35" data-name="Path 35" d="M-406.111,644.048c-.027.238-1.148.268-2.262.948-1.136.646-1.7,1.61-1.927,1.519-.225-.041.1-1.423,1.5-2.241S-406.038,643.831-406.111,644.048Z" transform="translate(410.365 -643.766)" fill="#263238"/>
                </g>
              </g>
              <g id="Group_6532" data-name="Group 6532" transform="translate(32.451 39.326)">
                <g id="Group_6531" data-name="Group 6531">
                  <path id="Path_36" data-name="Path 36" d="M-406.586,649.977c-.224-.026-.129-1.27.9-2.3s2.268-1.138,2.3-.915c.061.233-.868.648-1.7,1.506C-405.943,649.105-406.353,650.037-406.586,649.977Z" transform="translate(406.685 -646.664)" fill="#263238"/>
                </g>
              </g>
              <g id="Group_6534" data-name="Group 6534" transform="translate(24.422 24.548)">
                <g id="Group_6533" data-name="Group 6533">
                  <path id="Path_37" data-name="Path 37" d="M-407.918,637.247c-.17.173-1.1-.516-2.406-.893-1.3-.4-2.455-.335-2.5-.571-.072-.21,1.2-.7,2.741-.231S-407.742,637.11-407.918,637.247Z" transform="translate(412.828 -635.357)" fill="#263238"/>
                </g>
              </g>
            </g>
            <g id="Group_6537" data-name="Group 6537" transform="translate(25.024 15.708)">
              <g id="Group_6536" data-name="Group 6536">
                <path id="Path_38" data-name="Path 38" d="M-406.229,634.533a4.609,4.609,0,0,1-2.317-.852,11.078,11.078,0,0,1-2.159-1.626,11.545,11.545,0,0,1-1.077-1.191,3.024,3.024,0,0,1-.5-.8,1.049,1.049,0,0,1,.332-1.242,1.323,1.323,0,0,1,1.179-.158,3.214,3.214,0,0,1,.827.435,8.8,8.8,0,0,1,1.264,1.018,8.7,8.7,0,0,1,1.633,2.181,4.117,4.117,0,0,1,.682,2.379c-.129.038-.4-.86-1.193-2.078a9.814,9.814,0,0,0-1.648-1.917,9.249,9.249,0,0,0-1.184-.894c-.444-.306-.86-.461-1.065-.289-.076.068-.094.1-.043.28a2.455,2.455,0,0,0,.371.584,12.815,12.815,0,0,0,.972,1.146,13.678,13.678,0,0,0,1.933,1.673A17.194,17.194,0,0,1-406.229,634.533Z" transform="translate(412.367 -628.594)" fill="#263238"/>
              </g>
            </g>
            <g id="Group_6539" data-name="Group 6539" transform="translate(30.646 15.091)">
              <g id="Group_6538" data-name="Group 6538">
                <path id="Path_39" data-name="Path 39" d="M-407.963,634.9a3.931,3.931,0,0,1,.2-2.464,8.014,8.014,0,0,1,1.238-2.427,7.939,7.939,0,0,1,1.1-1.2,2.039,2.039,0,0,1,1.9-.635,1.154,1.154,0,0,1,.736,1,3.349,3.349,0,0,1-.071.937,5.441,5.441,0,0,1-.565,1.564,5.684,5.684,0,0,1-1.86,2.039c-1.341.873-2.383.8-2.375.717a19.91,19.91,0,0,0,2.025-1.2,5.673,5.673,0,0,0,1.524-1.915,5.069,5.069,0,0,0,.443-1.357c.106-.519.065-.984-.137-1a1.408,1.408,0,0,0-1.087.467,8.2,8.2,0,0,0-1.031,1.05,8.9,8.9,0,0,0-1.289,2.154C-407.761,633.971-407.827,634.907-407.963,634.9Z" transform="translate(408.066 -628.121)" fill="#263238"/>
              </g>
            </g>
          </g>
        </g>
        <g id="Group_6561" data-name="Group 6561" transform="translate(159.781 205.356)">
          <g id="Group_6542" data-name="Group 6542">
            <path id="Path_40" data-name="Path 40" d="M-366.762,562.713l24.7,42.932,20.206-12.962-24.8-43.584Z" transform="translate(366.762 -549.099)" fill="#b78876"/>
          </g>
          <g id="Group_6560" data-name="Group 6560" transform="translate(17.065 31.317)">
            <g id="Group_6555" data-name="Group 6555">
              <g id="Group_6543" data-name="Group 6543">
                <path id="Path_41" data-name="Path 41" d="M-332.835,573.06l12.759,21.976s26.622-5.589,29.374-1.756l-41.72,26.268-21.284-33.425Z" transform="translate(353.706 -573.06)" fill="#455a64"/>
              </g>
              <g id="Group_6545" data-name="Group 6545" transform="translate(19.1 27.711)">
                <g id="Group_6544" data-name="Group 6544">
                  <path id="Path_42" data-name="Path 42" d="M-338.6,594.841a2.014,2.014,0,0,0,.047,2.687,1.935,1.935,0,0,0,2.662-.023,2.123,2.123,0,0,0-.064-2.844,2.008,2.008,0,0,0-2.767.331" transform="translate(339.092 -594.262)" fill="#e0e0e0"/>
                </g>
              </g>
              <g id="Group_6546" data-name="Group 6546" transform="translate(19.271 19.099)">
                <path id="Path_43" data-name="Path 43" d="M-336.948,615.061l-2.013-3.453,40.753-23.894s2.366-.362,2.98,1.08Z" transform="translate(338.961 -587.673)" fill="#e0e0e0"/>
              </g>
              <g id="Group_6548" data-name="Group 6548" transform="translate(31.581 21.291)">
                <g id="Group_6547" data-name="Group 6547">
                  <path id="Path_44" data-name="Path 44" d="M-326.951,589.4c.122.209-.839.942-1.429,2.228-.625,1.272-.586,2.479-.823,2.516-.213.078-.676-1.331.065-2.875S-327.025,589.181-326.951,589.4Z" transform="translate(329.543 -589.35)" fill="#263238"/>
                </g>
              </g>
              <g id="Group_6550" data-name="Group 6550" transform="translate(38.18 20.365)">
                <g id="Group_6549" data-name="Group 6549">
                  <path id="Path_45" data-name="Path 45" d="M-322.986,588.668c.171.169-.494,1.07-.643,2.368-.187,1.293.225,2.334.016,2.453-.171.152-1.063-.953-.847-2.562S-323.113,588.477-322.986,588.668Z" transform="translate(324.494 -588.641)" fill="#263238"/>
                </g>
              </g>
              <g id="Group_6552" data-name="Group 6552" transform="translate(44.176 19.558)">
                <g id="Group_6551" data-name="Group 6551">
                  <path id="Path_46" data-name="Path 46" d="M-318.612,592.53c-.157.161-1.082-.68-1.261-2.124s.494-2.49.688-2.373c.221.094-.021,1.082.144,2.266C-318.9,591.487-318.421,592.383-318.612,592.53Z" transform="translate(319.906 -588.024)" fill="#263238"/>
                </g>
              </g>
              <g id="Group_6554" data-name="Group 6554" transform="translate(26.486 16.517)">
                <g id="Group_6553" data-name="Group 6553">
                  <path id="Path_47" data-name="Path 47" d="M-329.218,585.833c.031.239-1.08.546-2.183,1.35-1.119.78-1.771,1.731-1.987,1.623-.212-.073.188-1.378,1.5-2.305S-329.218,585.609-329.218,585.833Z" transform="translate(333.441 -585.698)" fill="#263238"/>
                </g>
              </g>
            </g>
            <g id="Group_6557" data-name="Group 6557" transform="translate(20.027 11.408)">
              <g id="Group_6556" data-name="Group 6556">
                <path id="Path_48" data-name="Path 48" d="M-330.357,582.646c.055.082-.67.715-2.1,1.3a11.038,11.038,0,0,1-2.609.7,11.582,11.582,0,0,1-1.6.119,3.014,3.014,0,0,1-.94-.094,1.049,1.049,0,0,1-.776-1.025,1.32,1.32,0,0,1,.6-1.027,3.2,3.2,0,0,1,.851-.386,8.911,8.911,0,0,1,1.58-.372,8.737,8.737,0,0,1,2.724.052,4.113,4.113,0,0,1,2.3.923c-.05.125-.923-.216-2.373-.336a9.828,9.828,0,0,0-2.525.124,9.311,9.311,0,0,0-1.432.384c-.515.163-.893.4-.882.664.007.1.02.135.193.205a2.447,2.447,0,0,0,.69.067,12.688,12.688,0,0,0,1.5-.064,13.751,13.751,0,0,0,2.508-.5A17.054,17.054,0,0,1-330.357,582.646Z" transform="translate(338.383 -581.788)" fill="#263238"/>
              </g>
            </g>
            <g id="Group_6559" data-name="Group 6559" transform="translate(24.721 4.923)">
              <g id="Group_6558" data-name="Group 6558">
                <path id="Path_49" data-name="Path 49" d="M-331.54,584.629c-.052.077-.916-.4-1.822-1.672a8,8,0,0,1-1.155-2.466,8.027,8.027,0,0,1-.267-1.6,2.041,2.041,0,0,1,.668-1.894,1.153,1.153,0,0,1,1.24.033,3.354,3.354,0,0,1,.7.631,5.5,5.5,0,0,1,.887,1.406,5.683,5.683,0,0,1,.467,2.72c-.135,1.594-.831,2.373-.891,2.315a20.56,20.56,0,0,0,.3-2.332,5.7,5.7,0,0,0-.575-2.379,5.079,5.079,0,0,0-.8-1.183c-.345-.4-.736-.656-.874-.506a1.413,1.413,0,0,0-.3,1.145,8.064,8.064,0,0,0,.2,1.457,8.889,8.889,0,0,0,.907,2.341C-332.148,583.9-331.449,584.528-331.54,584.629Z" transform="translate(334.791 -576.826)" fill="#263238"/>
              </g>
            </g>
          </g>
        </g>
        <g id="Group_6570" data-name="Group 6570" transform="translate(33.82 139.368)">
          <g id="Group_6562" data-name="Group 6562" transform="translate(0 4.325)">
            <path id="Path_50" data-name="Path 50" d="M-410.7,571.142l48.5-32.984,30.6,59.561,27.822-15.055s-32.039-78.124-43.541-80.645c-6.445-1.413-80.335,12.7-80.335,12.7l-8.258-4.151-20.9-2.542-1.336,3.38a71.336,71.336,0,0,0,2.323,57.667l1.017,2.07Z" transform="translate(463.138 -501.919)" fill="#263238"/>
          </g>
          <g id="Group_6563" data-name="Group 6563" transform="translate(29.614)">
            <path id="Path_51" data-name="Path 51" d="M-434.686,530.906c.361,1.635,40.459,39.182,40.459,39.182l-23.138,77.747,34.529,6.606,34.673-93.661-63.374-62.169-28.943,12.184Z" transform="translate(440.48 -498.61)" fill="#263238"/>
          </g>
          <g id="Group_6565" data-name="Group 6565" transform="translate(52.437 40.561)">
            <g id="Group_6564" data-name="Group 6564">
              <path id="Path_52" data-name="Path 52" d="M-374.513,529.647c.106.155-10.666,7.665-24.059,16.772s-24.339,16.367-24.445,16.212,10.665-7.664,24.062-16.774S-374.618,529.491-374.513,529.647Z" transform="translate(423.018 -529.644)" fill="#455a64"/>
            </g>
          </g>
          <g id="Group_6567" data-name="Group 6567" transform="translate(100.937 40.563)">
            <g id="Group_6566" data-name="Group 6566">
              <path id="Path_53" data-name="Path 53" d="M-361.007,578.113a12.886,12.886,0,0,1-1.17-1.8c-.724-1.176-1.717-2.908-2.932-5.055-2.413-4.3-5.629-10.315-9.034-17.026s-6.394-12.84-8.5-17.3c-1.053-2.23-1.891-4.041-2.452-5.3a12.668,12.668,0,0,1-.809-1.988,13.1,13.1,0,0,1,1.047,1.873l2.647,5.206,8.676,17.2c3.4,6.708,6.548,12.747,8.85,17.106,1.115,2.1,2.038,3.833,2.739,5.155A12.905,12.905,0,0,1-361.007,578.113Z" transform="translate(385.909 -529.646)" fill="#455a64"/>
            </g>
          </g>
          <g id="Group_6569" data-name="Group 6569" transform="translate(75.073 57.595)">
            <g id="Group_6568" data-name="Group 6568">
              <path id="Path_54" data-name="Path 54" d="M-397.653,542.678c.166.088-1.5,3.818-3.711,8.331s-4.152,8.111-4.322,8.033,1.49-3.809,3.711-8.332S-397.819,542.591-397.653,542.678Z" transform="translate(405.698 -542.677)" fill="#455a64"/>
            </g>
          </g>
        </g>
        <g id="Group_6571" data-name="Group 6571" transform="translate(0 121.857)">
          <path id="Path_55" data-name="Path 55" d="M-480.7,485.212l-7.792,28.964a15.192,15.192,0,0,0,1.3,11.153h0a15.194,15.194,0,0,0,16.8,7.6l62.146-15.31-6.5-12.907-48.957,4.245,5.244-19.9Z" transform="translate(489.014 -485.212)" fill="#b78876"/>
        </g>
        <g id="Group_6574" data-name="Group 6574" transform="translate(35.882 96.184)">
          <g id="Group_6572" data-name="Group 6572">
            <path id="Path_56" data-name="Path 56" d="M-461.56,535.207l.811-4.21,33.677-6.051,9.786-51.925,62.554-7.452L-365.243,521Z" transform="translate(461.56 -465.569)" fill="#455a64"/>
          </g>
          <g id="Group_6573" data-name="Group 6573" transform="translate(69.98 28.515)">
            <path id="Path_57" data-name="Path 57" d="M-405.634,494.283a3.28,3.28,0,0,1-2.309-4,3.28,3.28,0,0,1,3.63-2.852,3.279,3.279,0,0,1,2.308,4A3.28,3.28,0,0,1-405.634,494.283Z" transform="translate(408.017 -487.387)" fill="#ebebeb"/>
          </g>
        </g>
        <g id="Group_6632" data-name="Group 6632" transform="translate(18.928 7.842)">
          <g id="Group_6629" data-name="Group 6629" transform="translate(26.106 6.175)">
            <g id="Group_6579" data-name="Group 6579">
              <g id="Group_6578" data-name="Group 6578">
                <g id="Group_6577" data-name="Group 6577">
                  <g id="Group_6576" data-name="Group 6576">
                    <g id="Group_6575" data-name="Group 6575">
                      <path id="Path_58" data-name="Path 58" d="M-454.558,405.595l.119,3.754,1.408,56.211c.163,6.526,5.9,11.581,12.889,11.354h0c7.055-.231,12.725-5.76,12.667-12.355-.059-6.922.005-14.21.005-14.21s8.9-1.584,10.611-13.24c.852-5.8.451-15.279-.128-23.026a12.286,12.286,0,0,0-13.683-11.3Z" transform="translate(454.558 -402.701)" fill="#b78876"/>
                    </g>
                  </g>
                </g>
              </g>
            </g>
            <g id="Group_6591" data-name="Group 6591" transform="translate(29.674 14.804)">
              <g id="Group_6584" data-name="Group 6584" transform="translate(0.415 1.726)">
                <g id="Group_6583" data-name="Group 6583">
                  <g id="Group_6582" data-name="Group 6582">
                    <g id="Group_6581" data-name="Group 6581">
                      <g id="Group_6580" data-name="Group 6580">
                        <path id="Path_59" data-name="Path 59" d="M-428.56,416.681a1.493,1.493,0,0,1-1.422,1.521,1.426,1.426,0,0,1-1.553-1.327,1.493,1.493,0,0,1,1.419-1.524A1.43,1.43,0,0,1-428.56,416.681Z" transform="translate(431.536 -415.348)" fill="#263238"/>
                      </g>
                    </g>
                  </g>
                </g>
              </g>
              <g id="Group_6590" data-name="Group 6590">
                <g id="Group_6589" data-name="Group 6589">
                  <g id="Group_6588" data-name="Group 6588">
                    <g id="Group_6587" data-name="Group 6587">
                      <g id="Group_6586" data-name="Group 6586">
                        <g id="Group_6585" data-name="Group 6585">
                          <path id="Path_60" data-name="Path 60" d="M-425.956,415.564c-.183.2-1.323-.627-2.929-.6-1.6,0-2.772.839-2.949.644-.086-.086.1-.439.606-.818a4.1,4.1,0,0,1,2.358-.758,3.936,3.936,0,0,1,2.333.724C-426.037,415.125-425.865,415.475-425.956,415.564Z" transform="translate(431.854 -414.028)" fill="#263238"/>
                        </g>
                      </g>
                    </g>
                  </g>
                </g>
              </g>
            </g>
            <g id="Group_6603" data-name="Group 6603" transform="translate(13.895 15.288)">
              <g id="Group_6596" data-name="Group 6596" transform="translate(0.347 1.821)">
                <g id="Group_6595" data-name="Group 6595">
                  <g id="Group_6594" data-name="Group 6594">
                    <g id="Group_6593" data-name="Group 6593">
                      <g id="Group_6592" data-name="Group 6592">
                        <path id="Path_61" data-name="Path 61" d="M-440.685,417.123a1.494,1.494,0,0,1-1.422,1.523,1.427,1.427,0,0,1-1.553-1.328,1.492,1.492,0,0,1,1.419-1.523A1.429,1.429,0,0,1-440.685,417.123Z" transform="translate(443.661 -415.791)" fill="#263238"/>
                      </g>
                    </g>
                  </g>
                </g>
              </g>
              <g id="Group_6602" data-name="Group 6602">
                <g id="Group_6601" data-name="Group 6601">
                  <g id="Group_6600" data-name="Group 6600">
                    <g id="Group_6599" data-name="Group 6599">
                      <g id="Group_6598" data-name="Group 6598">
                        <g id="Group_6597" data-name="Group 6597">
                          <path id="Path_62" data-name="Path 62" d="M-438.027,415.932c-.183.2-1.325-.626-2.929-.6-1.6,0-2.772.84-2.95.646-.085-.086.1-.439.608-.819a4.1,4.1,0,0,1,2.358-.757,3.926,3.926,0,0,1,2.333.724C-438.111,415.495-437.939,415.845-438.027,415.932Z" transform="translate(443.926 -414.398)" fill="#263238"/>
                        </g>
                      </g>
                    </g>
                  </g>
                </g>
              </g>
            </g>
            <g id="Group_6609" data-name="Group 6609" transform="translate(24.852 15.292)">
              <g id="Group_6608" data-name="Group 6608">
                <g id="Group_6607" data-name="Group 6607">
                  <g id="Group_6606" data-name="Group 6606">
                    <g id="Group_6605" data-name="Group 6605">
                      <g id="Group_6604" data-name="Group 6604">
                        <path id="Path_63" data-name="Path 63" d="M-434.636,427.77a10.708,10.708,0,0,1,2.6-.5c.409-.047.8-.133.863-.413a2.086,2.086,0,0,0-.289-1.213q-.594-1.48-1.248-3.107c-1.736-4.426-3-8.067-2.818-8.135s1.73,3.464,3.466,7.889q.625,1.635,1.2,3.126a2.369,2.369,0,0,1,.231,1.606,1.027,1.027,0,0,1-.667.608,2.824,2.824,0,0,1-.7.1A10.448,10.448,0,0,1-434.636,427.77Z" transform="translate(435.543 -414.401)" fill="#263238"/>
                      </g>
                    </g>
                  </g>
                </g>
              </g>
            </g>
            <g id="Group_6614" data-name="Group 6614" transform="translate(11.461 43.672)">
              <g id="Group_6613" data-name="Group 6613">
                <g id="Group_6612" data-name="Group 6612">
                  <g id="Group_6611" data-name="Group 6611">
                    <g id="Group_6610" data-name="Group 6610">
                      <path id="Path_64" data-name="Path 64" d="M-430.161,440.091a29.6,29.6,0,0,1-15.628-3.976s3.873,7.948,15.5,6.724Z" transform="translate(445.789 -436.115)" fill="#aa6550"/>
                    </g>
                  </g>
                </g>
              </g>
            </g>
            <g id="Group_6619" data-name="Group 6619" transform="translate(13.087 12.827)">
              <g id="Group_6618" data-name="Group 6618">
                <g id="Group_6617" data-name="Group 6617">
                  <g id="Group_6616" data-name="Group 6616">
                    <g id="Group_6615" data-name="Group 6615">
                      <path id="Path_65" data-name="Path 65" d="M-437.192,413.868c-.179.429-1.771.148-3.662.288-1.9.1-3.439.582-3.67.179-.1-.192.18-.589.814-.984a6.1,6.1,0,0,1,2.751-.822,6.088,6.088,0,0,1,2.834.467C-437.447,413.3-437.115,413.664-437.192,413.868Z" transform="translate(444.545 -412.515)" fill="#263238"/>
                    </g>
                  </g>
                </g>
              </g>
            </g>
            <g id="Group_6624" data-name="Group 6624" transform="translate(29.43 9.138)">
              <g id="Group_6623" data-name="Group 6623">
                <g id="Group_6622" data-name="Group 6622">
                  <g id="Group_6621" data-name="Group 6621">
                    <g id="Group_6620" data-name="Group 6620">
                      <path id="Path_66" data-name="Path 66" d="M-426.57,411.324c-.278.367-1.389,0-2.719,0-1.331-.05-2.453.273-2.717-.106-.116-.183.058-.55.545-.9a3.767,3.767,0,0,1,2.2-.623,3.753,3.753,0,0,1,2.176.708C-426.607,410.77-426.447,411.144-426.57,411.324Z" transform="translate(432.041 -409.692)" fill="#263238"/>
                    </g>
                  </g>
                </g>
              </g>
            </g>
            <g id="Group_6626" data-name="Group 6626" transform="translate(20.345 30.55)">
              <g id="Group_6625" data-name="Group 6625">
                <path id="Path_67" data-name="Path 67" d="M-433.754,430a2.668,2.668,0,0,1-1.4-.144c-.457-.133-.887-.252-1.251-.372s-.778-.282-1.223-.448a2.657,2.657,0,0,1-1.208-.719c-.277-.362-.221-.992.408-1.55a3.222,3.222,0,0,1,3.095-.512,3.222,3.222,0,0,1,2.175,2.258C-432.984,429.337-433.315,429.876-433.754,430Z" transform="translate(438.991 -426.075)" fill="#aa6550"/>
              </g>
            </g>
            <g id="Group_6628" data-name="Group 6628" transform="translate(19.565 31.577)">
              <g id="Group_6627" data-name="Group 6627">
                <path id="Path_68" data-name="Path 68" d="M-433.35,429.619c-.155.108-.936-1.494-2.814-1.978s-3.333.554-3.418.384c-.054-.063.213-.426.849-.754a3.966,3.966,0,0,1,2.737-.289,3.98,3.98,0,0,1,2.262,1.567C-433.333,429.142-433.273,429.59-433.35,429.619Z" transform="translate(439.588 -426.861)" fill="#263238"/>
              </g>
            </g>
          </g>
          <g id="Group_6630" data-name="Group 6630">
            <path id="Path_69" data-name="Path 69" d="M-434.97,399.462a14.65,14.65,0,0,1-2.108,18.277c-2.781,2.59-6.921,4.611-7.2,8.4-.314,4.2,4.55,7.337,4.556,11.547.008,4.329-4.986,7.087-5.957,11.3-.782,3.394,1.247,6.8,3.6,9.37s5.18,4.853,6.591,8.038c1.557,3.512,1.116,7.663-.4,11.194A35.248,35.248,0,0,1-442.46,487a43.834,43.834,0,0,0-10.77-2.4q.345-2.082.691-4.164a3.841,3.841,0,0,1-2.81,3.533,10.278,10.278,0,0,1-4.8.06,77.872,77.872,0,0,1-14.381-3.7,25.746,25.746,0,0,0,5.254-6.565c1.239-2.529,1.572-5.679.145-8.107-1.148-1.953-3.265-3.209-4.321-5.211-1.585-3-.281-6.824,1.971-9.366s5.3-4.214,7.978-6.3,5.136-4.917,5.352-8.307c.28-4.4-3.278-8.405-2.841-12.791.5-4.994,5.778-8.047,7.852-12.618,1.5-3.308,1.3-7.388,3.6-10.2a8.769,8.769,0,0,1,7.225-2.877,16.281,16.281,0,0,1,7.532,2.648" transform="translate(474.532 -397.977)" fill="#263238"/>
          </g>
          <g id="Group_6631" data-name="Group 6631" transform="translate(52.54 41.705)">
            <path id="Path_70" data-name="Path 70" d="M-432.7,443.253c-2.1,1.161-1.98,4.351-.7,6.382s3.338,3.48,4.6,5.521a9.026,9.026,0,0,1-2.126,11.52l5.021,1.9,1.1-.62,3.081-1.744-1.446,3.56h3.214a9.389,9.389,0,0,0,8.26-4.956,9.389,9.389,0,0,0-.712-9.608c-1.323-1.829-3.375-3.286-3.82-5.5-.536-2.668,1.478-5.088,2.466-7.624a10.78,10.78,0,0,0-3.507-12.2" transform="translate(434.332 -429.886)" fill="#263238"/>
          </g>
        </g>
      </g>
    </g>
    <g id="Group_6648" data-name="Group 6648" transform="translate(-405.054 332.665)">
      <g id="Group_6639" data-name="Group 6639" transform="translate(25.67 15.839)">
        <g id="Group_6636" data-name="Group 6636">
          <g id="Group_6635" data-name="Group 6635">
            <path id="Path_71" data-name="Path 71" d="M-403.158,385.906a2.828,2.828,0,0,1-1.6-2.547V369.3a2.819,2.819,0,0,1,1.117-2.252,2.826,2.826,0,0,1,2.471-.465,8.766,8.766,0,0,0,6.883-1.055,7.9,7.9,0,0,0,3.751-5.015,8.079,8.079,0,0,0-1.435-6.143,9.012,9.012,0,0,0-5.8-3.844c-4.529-.72-9.593,2.555-11.057,7.153a2.823,2.823,0,0,1-3.546,1.832,2.81,2.81,0,0,1-1.834-3.547c2.3-7.226,10.073-12.168,17.327-11.014a14.565,14.565,0,0,1,9.558,6.213,13.736,13.736,0,0,1,2.317,10.5,13.553,13.553,0,0,1-6.351,8.694,14.766,14.766,0,0,1-7.756,2.167V383.36a2.825,2.825,0,0,1-2.824,2.823A2.822,2.822,0,0,1-403.158,385.906Z" transform="translate(414.346 -344.784)" fill="#007bff"/>
          </g>
        </g>
        <g id="Group_6638" data-name="Group 6638" transform="translate(10.457 44.782)">
          <g id="Group_6637" data-name="Group 6637">
            <path id="Path_72" data-name="Path 72" d="M-401.727,381.3a2.31,2.31,0,0,1-2.249,2.368,2.31,2.31,0,0,1-2.368-2.251,2.309,2.309,0,0,1,2.249-2.367A2.31,2.31,0,0,1-401.727,381.3Z" transform="translate(406.346 -379.047)" fill="#007bff"/>
          </g>
        </g>
      </g>
      <g id="Group_6647" data-name="Group 6647">
        <g id="Group_6641" data-name="Group 6641" transform="translate(78.267 69.543)">
          <g id="Group_6640" data-name="Group 6640">
            <path id="Path_73" data-name="Path 73" d="M-369.436,385.928c.008.042-.434.067-1.149.359a5.334,5.334,0,0,0-2.426,2.082,5.03,5.03,0,0,0-.748,2.073,4.386,4.386,0,0,0,.438,2.457,5.109,5.109,0,0,0,4.682,2.864,5.11,5.11,0,0,0,4.313-3.4,4.393,4.393,0,0,0,.145-2.492,5.06,5.06,0,0,0-.988-1.97,5.318,5.318,0,0,0-2.654-1.78c-.744-.206-1.185-.179-1.184-.221a1.033,1.033,0,0,1,.316-.026,1.876,1.876,0,0,1,.384.021,3.148,3.148,0,0,1,.52.085,5.27,5.27,0,0,1,2.822,1.751,5.258,5.258,0,0,1,1.086,2.065,4.683,4.683,0,0,1-.12,2.679,5.458,5.458,0,0,1-1.681,2.438,5.1,5.1,0,0,1-2.937,1.221,5.092,5.092,0,0,1-3.058-.865,5.458,5.458,0,0,1-1.957-2.222,4.676,4.676,0,0,1-.435-2.645,5.233,5.233,0,0,1,.834-2.179,5.267,5.267,0,0,1,2.6-2.074,3.131,3.131,0,0,1,.506-.146,2.076,2.076,0,0,1,.379-.065A1.077,1.077,0,0,1-369.436,385.928Z" transform="translate(374.103 -385.874)" fill="#263238"/>
          </g>
        </g>
        <g id="Group_6643" data-name="Group 6643" transform="translate(92.652 82.19)">
          <g id="Group_6642" data-name="Group 6642">
            <path id="Path_74" data-name="Path 74" d="M-360.1,395.6c.005.035-.272.06-.714.251a3.368,3.368,0,0,0-1.5,1.312,2.833,2.833,0,0,0-.179,2.8,3.162,3.162,0,0,0,2.887,1.762,3.161,3.161,0,0,0,2.658-2.09,2.835,2.835,0,0,0-.508-2.758,3.352,3.352,0,0,0-1.64-1.125c-.461-.137-.738-.129-.738-.166a1.574,1.574,0,0,1,.775.025,3.31,3.31,0,0,1,1.808,1.1,3.344,3.344,0,0,1,.7,1.317,3,3,0,0,1-.071,1.721,3.478,3.478,0,0,1-2.963,2.351,3.473,3.473,0,0,1-3.219-1.985,2.994,2.994,0,0,1-.274-1.7,3.342,3.342,0,0,1,.541-1.392,3.316,3.316,0,0,1,1.665-1.3A1.576,1.576,0,0,1-360.1,395.6Z" transform="translate(363.097 -395.551)" fill="#263238"/>
          </g>
        </g>
        <g id="Group_6646" data-name="Group 6646">
          <g id="Group_6645" data-name="Group 6645">
            <g id="Group_6644" data-name="Group 6644">
              <path id="Path_75" data-name="Path 75" d="M-353.164,376.353s-.007-.224,0-.656.02-1.084.034-1.921q.014-.635.03-1.415c-.013-.52-.078-1.087-.12-1.7s-.1-1.277-.156-1.985a6.846,6.846,0,0,0-.145-1.089q-.1-.559-.207-1.15a38.486,38.486,0,0,0-3.616-11.044,40.18,40.18,0,0,0-9.315-12.19l-1.635-1.429c-.578-.447-1.191-.864-1.8-1.3l-.916-.659a8.032,8.032,0,0,0-.952-.627l-2-1.162c-.339-.193-.674-.4-1.021-.586l-1.081-.493q-1.086-.5-2.193-1c-.748-.314-1.537-.54-2.315-.818l-1.178-.4c-.2-.064-.392-.14-.595-.2l-.612-.142a37.62,37.62,0,0,0-5.027-.984c-.863-.1-1.727-.25-2.606-.3l-2.665-.072c-.447,0-.9-.042-1.346-.017l-1.354.1c-.9.078-1.821.111-2.732.227a42.343,42.343,0,0,0-5.47,1.15l-1.368.384c-.229.067-.46.123-.686.2l-.667.26-2.688,1.048c-.882.392-1.736.864-2.614,1.3-.43.231-.886.421-1.3.686l-1.25.792a45.259,45.259,0,0,0-4.85,3.509q-1.1,1.039-2.214,2.086l-.555.524c-.175.186-.339.383-.508.574L-423.871,347l-1.018,1.161-.91,1.256-.91,1.265-.457.634c-.139.221-.264.45-.4.674q-.788,1.357-1.581,2.721-.657,1.437-1.32,2.885a42.978,42.978,0,0,0-3.056,12.486,42.951,42.951,0,0,0,1.08,12.812q.429,1.533.856,3.056l1.141,2.934.288.728.353.7.7,1.391.7,1.381.826,1.307.822,1.3.413.646.469.605,1.862,2.4a45.249,45.249,0,0,0,4.248,4.221l1.112.975c.367.328.788.586,1.178.88.8.563,1.571,1.162,2.381,1.687q1.255.729,2.494,1.452l.618.359c.212.108.433.2.647.3l1.293.592a42.6,42.6,0,0,0,5.225,1.985c.884.255,1.784.43,2.665.648l1.321.31c.44.093.891.125,1.333.191l2.644.344c.877.081,1.755.064,2.623.1a37.293,37.293,0,0,0,5.118-.193l.627-.044c.207-.025.412-.069.617-.1l1.226-.214c.81-.154,1.626-.255,2.413-.45l2.323-.647,1.145-.319,1.1-.421,2.16-.838a7.666,7.666,0,0,0,1.038-.472l1.008-.508c.665-.341,1.337-.657,1.977-1.01l1.835-1.158a40.176,40.176,0,0,0,11.092-10.6c.331-.463.667-.91.975-1.362l.816-1.395.785-1.342c.125-.221.263-.433.374-.655s.206-.45.308-.672l1.17-2.539c.349-.817.582-1.632.857-2.384.131-.379.259-.746.382-1.1a6.852,6.852,0,0,0,.312-1.052q.247-1.037.461-1.937c.137-.6.289-1.153.383-1.664q.1-.772.19-1.4.173-1.245.264-1.9c.063-.429.1-.647.1-.647s-.016.221-.064.651-.129,1.077-.229,1.91c-.051.421-.108.891-.173,1.408-.088.515-.234,1.068-.366,1.672s-.286,1.253-.446,1.947a6.928,6.928,0,0,1-.3,1.059q-.182.539-.375,1.11c-.271.757-.5,1.578-.846,2.4q-.553,1.219-1.161,2.558l-.306.674c-.11.225-.247.438-.371.66l-.783,1.353q-.4.69-.813,1.406c-.308.456-.644.907-.974,1.372a40.252,40.252,0,0,1-11.12,10.7l-1.844,1.171c-.644.357-1.319.677-1.988,1.023l-1.013.514a8.087,8.087,0,0,1-1.043.478l-2.175.85c-.367.141-.732.291-1.106.426l-1.151.324-2.338.657c-.792.2-1.614.3-2.431.457l-1.234.218c-.208.034-.414.08-.623.1l-.631.047a37.628,37.628,0,0,1-5.157.2c-.874-.035-1.759-.018-2.644-.1l-2.666-.341c-.446-.065-.9-.1-1.344-.191l-1.333-.31c-.889-.217-1.8-.393-2.687-.65a42.707,42.707,0,0,1-5.274-2l-1.3-.595c-.217-.1-.439-.195-.652-.3l-.625-.362-2.517-1.463c-.819-.528-1.6-1.131-2.4-1.7-.395-.3-.818-.557-1.189-.886l-1.123-.984a45.425,45.425,0,0,1-4.289-4.256q-.935-1.206-1.882-2.423l-.473-.61-.417-.651-.83-1.311-.835-1.317-.711-1.395-.71-1.4-.357-.7-.29-.735-1.153-2.96q-.431-1.537-.865-3.083a43.317,43.317,0,0,1-1.091-12.933,43.277,43.277,0,0,1,3.086-12.6q.67-1.461,1.333-2.911l1.6-2.745c.135-.227.261-.459.4-.681l.461-.64.917-1.276.92-1.267,1.029-1.172,1.023-1.166c.171-.192.337-.391.514-.578l.561-.529,2.235-2.1a45.522,45.522,0,0,1,4.9-3.538l1.261-.8c.418-.268.878-.459,1.314-.691.885-.435,1.746-.908,2.637-1.3L-407,335l.674-.261c.227-.074.461-.132.691-.2l1.38-.386A42.481,42.481,0,0,1-398.731,333c.92-.116,1.844-.149,2.755-.226l1.366-.1c.454-.023.906.016,1.357.02l2.686.077c.886.056,1.758.212,2.627.311a37.67,37.67,0,0,1,5.063,1l.617.144c.2.057.4.133.6.2.4.137.792.272,1.185.408.783.281,1.578.511,2.329.829l2.207,1.013,1.089.5c.348.191.685.4,1.026.592l2.017,1.176a7.859,7.859,0,0,1,.955.634l.923.665c.606.446,1.223.867,1.8,1.319l1.642,1.443a40.256,40.256,0,0,1,9.325,12.295,38.325,38.325,0,0,1,3.573,11.113c.069.4.135.78.2,1.154a6.9,6.9,0,0,1,.137,1.094q.075,1.066.139,1.993c.037.617.1,1.187.1,1.708-.018.52-.034.993-.048,1.417q-.047,1.259-.071,1.923C-353.145,376.133-353.164,376.353-353.164,376.353Z" transform="translate(433.987 -332.665)" fill="#263238"/>
            </g>
          </g>
        </g>
      </g>
    </g>
    <g id="Group_6689" data-name="Group 6689" transform="translate(-305.637 337.962)">
      <g id="Group_6682" data-name="Group 6682" transform="translate(13.499)">
        <g id="Group_6660" data-name="Group 6660" transform="translate(1.055 3.572)">
          <g id="Group_6650" data-name="Group 6650" transform="translate(0.386 0.283)">
            <g id="Group_6649" data-name="Group 6649">
              <path id="Path_76" data-name="Path 76" d="M-249.823,394.145a31.467,31.467,0,0,0,1.542-44.475,31.467,31.467,0,0,0-44.475-1.542,31.474,31.474,0,0,0-5.893,38.551l-6.4,5.973,1.53,10.627-9.936-2.784-8.012,7.473,1.531,10.627-9.936-2.784-6.886,6.424.932,6.477-6.055-1.7-4.007,3.739-.6,9.842,14.68,3.695,47.633-44.439A31.479,31.479,0,0,0-249.823,394.145Zm-4.653-38.7a9.026,9.026,0,0,1-.442,12.758,9.028,9.028,0,0,1-12.759-.442,9.028,9.028,0,0,1,.443-12.759A9.026,9.026,0,0,1-254.475,355.449Z" transform="translate(346.491 -339.668)" fill="#263238"/>
            </g>
          </g>
          <g id="Group_6659" data-name="Group 6659">
            <g id="Group_6652" data-name="Group 6652" transform="translate(0.386 0.283)">
              <g id="Group_6651" data-name="Group 6651">
                <path id="Path_77" data-name="Path 77" d="M-249.823,394.145a31.467,31.467,0,0,0,1.542-44.475,31.467,31.467,0,0,0-44.475-1.542,31.474,31.474,0,0,0-5.893,38.551l-6.4,5.973,1.53,10.627-9.936-2.784-8.012,7.473,1.531,10.627-9.936-2.784-6.886,6.424.932,6.477-6.055-1.7-4.007,3.739-.6,9.842,14.68,3.695,47.633-44.439A31.479,31.479,0,0,0-249.823,394.145Zm-4.653-38.7a9.026,9.026,0,0,1-.442,12.758,9.028,9.028,0,0,1-12.759-.442,9.028,9.028,0,0,1,.443-12.759A9.026,9.026,0,0,1-254.475,355.449Z" transform="translate(346.491 -339.668)" fill="none"/>
              </g>
            </g>
            <g id="Group_6655" data-name="Group 6655" transform="translate(76.398 12.94)">
              <g id="Group_6654" data-name="Group 6654">
                <g id="Group_6653" data-name="Group 6653">
                  <path id="Path_78" data-name="Path 78" d="M-272.329,352.476c-.056.059-.589-.55-1.793-1.291a9.008,9.008,0,0,0-5.68-1.247,8.762,8.762,0,0,0-6.836,4.759,8.733,8.733,0,0,0,1.395,9.826,8.736,8.736,0,0,0,9.708,2.074,8.76,8.76,0,0,0,5.22-6.489,9,9,0,0,0-.851-5.753c-.655-1.252-1.226-1.826-1.163-1.878.021-.018.167.115.433.389a6.933,6.933,0,0,1,1,1.34,8.989,8.989,0,0,1,1.131,6,9.276,9.276,0,0,1-5.484,7.063,9.244,9.244,0,0,1-5.425.609,9.414,9.414,0,0,1-5.14-2.814,9.409,9.409,0,0,1-2.449-5.322,9.251,9.251,0,0,1,.983-5.369,9.281,9.281,0,0,1,7.426-4.982,8.982,8.982,0,0,1,5.9,1.544,6.9,6.9,0,0,1,1.268,1.089C-272.432,352.3-272.308,352.457-272.329,352.476Z" transform="translate(288.333 -349.352)" fill="#263238"/>
                </g>
              </g>
            </g>
            <g id="Group_6658" data-name="Group 6658">
              <g id="Group_6657" data-name="Group 6657">
                <g id="Group_6656" data-name="Group 6656">
                  <path id="Path_79" data-name="Path 79" d="M-249.732,394.211s-.145.154-.454.435l-1.385,1.235a32.968,32.968,0,0,1-6.091,3.871,31.921,31.921,0,0,1-11.183,3,32.1,32.1,0,0,1-15.34-2.624l.259-.043-47.553,44.525-.141.132-.187-.047-14.684-3.68-.3-.075.018-.306c.184-3.069.387-6.433.592-9.843l.009-.149.11-.1,4-3.742.156-.145.207.058,6.055,1.693-.481.424c-.293-2.022-.613-4.241-.936-6.476l-.029-.2.148-.137,6.883-6.426.161-.149.21.059,9.936,2.783-.493.433c-.485-3.368-1.006-6.984-1.53-10.627l-.029-.2.149-.14c.671-.625,1.4-1.3,2.124-1.981l5.888-5.492.161-.15.213.06,9.934,2.785-.491.433q-.772-5.368-1.527-10.628l-.029-.2.148-.138,6.406-5.97-.072.471a32.092,32.092,0,0,1-4.091-14.327,30.536,30.536,0,0,1,.521-7.281,30.828,30.828,0,0,1,2.1-6.843A31.885,31.885,0,0,1-280.8,340.916a31.877,31.877,0,0,1,23.556,1.779,31.911,31.911,0,0,1,14.484,14.47,31.615,31.615,0,0,1,3.095,16.516A31.11,31.11,0,0,1-243.2,385.8l-.586,1.12q-.333.516-.647,1c-.427.636-.784,1.261-1.193,1.785-.85,1.023-1.5,1.942-2.143,2.583l-1.455,1.452c-.329.323-.508.476-.508.476s.148-.187.46-.525l1.4-1.5c.622-.652,1.253-1.58,2.079-2.609.4-.527.742-1.154,1.159-1.792l.627-1q.276-.543.567-1.119a31.11,31.11,0,0,0,3.381-12.022,31.318,31.318,0,0,0-3.152-16.265,31.435,31.435,0,0,0-14.3-14.159,31.287,31.287,0,0,0-23.094-1.673,31.218,31.218,0,0,0-19.1,17.218,30.185,30.185,0,0,0-2.035,6.689,29.741,29.741,0,0,0-.5,7.113,31.352,31.352,0,0,0,4.009,13.979l.148.267-.22.205L-304.7,393l.119-.339q.759,5.256,1.533,10.627l.085.593-.578-.162-9.936-2.783.372-.091-5.887,5.493c-.727.678-1.453,1.355-2.123,1.981l.12-.344c.524,3.643,1.044,7.259,1.528,10.628l.086.595-.579-.162-9.936-2.788.371-.09c-2.372,2.211-4.723,4.4-6.888,6.423l.118-.337c.322,2.235.639,4.454.929,6.477l.084.582-.566-.159-6.054-1.7.361-.088c-1.387,1.293-2.766,2.576-4.01,3.737l.119-.252c-.21,3.41-.418,6.774-.608,9.843l-.277-.38,14.676,3.709-.328.084,47.713-44.354.115-.108.144.065a31.856,31.856,0,0,0,15.121,2.688,32.02,32.02,0,0,0,11.1-2.867,34.715,34.715,0,0,0,6.118-3.743l1.423-1.182C-249.907,394.332-249.732,394.211-249.732,394.211Z" transform="translate(346.786 -339.451)" fill="#263238"/>
                </g>
              </g>
            </g>
          </g>
        </g>
        <g id="Group_6672" data-name="Group 6672">
          <g id="Group_6662" data-name="Group 6662" transform="translate(0.386 0.283)">
            <g id="Group_6661" data-name="Group 6661">
              <path id="Path_80" data-name="Path 80" d="M-250.629,391.411a31.467,31.467,0,0,0,1.542-44.475,31.467,31.467,0,0,0-44.475-1.542,31.475,31.475,0,0,0-5.893,38.551l-.008.008-6.394,5.965,1.529,10.628-9.936-2.785-8.011,7.473,1.529,10.628-9.936-2.785-6.886,6.424.933,6.477-6.055-1.7-4.008,3.739-.6,9.843,14.68,3.695,47.633-44.44A31.477,31.477,0,0,0-250.629,391.411Zm-4.652-38.7a9.028,9.028,0,0,1-.443,12.759,9.028,9.028,0,0,1-12.759-.443,9.026,9.026,0,0,1,.443-12.757A9.028,9.028,0,0,1-255.281,352.716Z" transform="translate(347.298 -336.935)" fill="#007bff"/>
            </g>
          </g>
          <g id="Group_6671" data-name="Group 6671">
            <g id="Group_6664" data-name="Group 6664" transform="translate(0.386 0.283)">
              <g id="Group_6663" data-name="Group 6663">
                <path id="Path_81" data-name="Path 81" d="M-250.629,391.411a31.467,31.467,0,0,0,1.542-44.475,31.467,31.467,0,0,0-44.475-1.542,31.475,31.475,0,0,0-5.893,38.551l-.008.008-6.394,5.965,1.529,10.628-9.936-2.785-8.011,7.473,1.529,10.628-9.936-2.785-6.886,6.424.933,6.477-6.055-1.7-4.008,3.739-.6,9.843,14.68,3.695,47.633-44.44A31.477,31.477,0,0,0-250.629,391.411Zm-4.652-38.7a9.028,9.028,0,0,1-.443,12.759,9.028,9.028,0,0,1-12.759-.443,9.026,9.026,0,0,1,.443-12.757A9.028,9.028,0,0,1-255.281,352.716Z" transform="translate(347.298 -336.935)" fill="none"/>
              </g>
            </g>
            <g id="Group_6667" data-name="Group 6667" transform="translate(76.398 12.94)">
              <g id="Group_6666" data-name="Group 6666">
                <g id="Group_6665" data-name="Group 6665">
                  <path id="Path_82" data-name="Path 82" d="M-273.135,349.743c-.057.059-.591-.55-1.793-1.29a9,9,0,0,0-5.682-1.248,8.77,8.77,0,0,0-6.835,4.759,8.734,8.734,0,0,0,1.4,9.826,8.736,8.736,0,0,0,9.707,2.075,8.769,8.769,0,0,0,5.221-6.491,9.007,9.007,0,0,0-.852-5.753c-.655-1.252-1.226-1.825-1.162-1.878.02-.018.166.115.431.391a6.891,6.891,0,0,1,1,1.34,8.982,8.982,0,0,1,1.132,5.994,9.279,9.279,0,0,1-5.485,7.063,9.242,9.242,0,0,1-5.425.609,9.406,9.406,0,0,1-5.14-2.814A9.41,9.41,0,0,1-289.073,357a9.237,9.237,0,0,1,.984-5.368,9.28,9.28,0,0,1,7.425-4.983,8.994,8.994,0,0,1,5.9,1.544,7.045,7.045,0,0,1,1.268,1.089C-273.238,349.568-273.115,349.724-273.135,349.743Z" transform="translate(289.14 -346.619)" fill="#263238"/>
                </g>
              </g>
            </g>
            <g id="Group_6670" data-name="Group 6670">
              <g id="Group_6669" data-name="Group 6669">
                <g id="Group_6668" data-name="Group 6668">
                  <path id="Path_83" data-name="Path 83" d="M-250.539,391.478s-.145.154-.452.435l-1.387,1.235a32.922,32.922,0,0,1-6.089,3.871,31.955,31.955,0,0,1-11.183,3.006,32.114,32.114,0,0,1-15.341-2.624l.259-.043-47.553,44.524-.14.132-.188-.047-14.684-3.68-.3-.075.018-.3c.184-3.07.387-6.434.592-9.843l.009-.15.11-.1,4.006-3.742.156-.145.205.057,6.055,1.694-.481.422c-.293-2.022-.613-4.241-.936-6.476l-.029-.2.148-.139,6.884-6.426.159-.149.21.059,9.937,2.783-.494.433c-.485-3.368-1.005-6.984-1.531-10.627l-.029-.2.15-.141,2.122-1.98,5.888-5.492.161-.152.213.06,9.936,2.786-.493.431q-.77-5.368-1.527-10.627l-.029-.2.148-.139q3.237-3.015,6.406-5.97l-.072.471a32.1,32.1,0,0,1-4.091-14.327,30.521,30.521,0,0,1,.521-7.28,30.954,30.954,0,0,1,2.1-6.845,31.889,31.889,0,0,1,19.562-17.566,31.869,31.869,0,0,1,23.556,1.78,31.914,31.914,0,0,1,14.485,14.47,31.619,31.619,0,0,1,3.094,16.515,31.1,31.1,0,0,1-3.53,12.117l-.586,1.12-.647,1c-.427.637-.784,1.261-1.193,1.785-.85,1.023-1.5,1.942-2.142,2.581L-250.029,391c-.329.324-.51.476-.51.476s.148-.186.46-.525c.335-.357.8-.851,1.4-1.5.622-.651,1.253-1.58,2.081-2.609.4-.527.742-1.154,1.158-1.791q.3-.484.629-1,.274-.543.566-1.119a31.1,31.1,0,0,0,3.381-12.023,31.31,31.31,0,0,0-3.152-16.265,31.435,31.435,0,0,0-14.3-14.159,31.287,31.287,0,0,0-23.094-1.673,31.22,31.22,0,0,0-19.1,17.22,30.188,30.188,0,0,0-2.035,6.689,29.8,29.8,0,0,0-.5,7.111,31.375,31.375,0,0,0,4.008,13.981l.148.265-.22.205-6.4,5.976.119-.339q.759,5.256,1.533,10.627l.085.595-.578-.162-9.936-2.784.374-.09-5.888,5.492c-.727.678-1.452,1.357-2.123,1.981l.12-.342c.524,3.643,1.044,7.258,1.528,10.627l.086.6-.579-.163-9.934-2.786.37-.09-6.888,6.421.119-.337c.32,2.235.638,4.454.928,6.477l.084.582-.566-.158-6.054-1.7.361-.089c-1.387,1.293-2.764,2.577-4.01,3.737l.119-.251-.608,9.842-.277-.379,14.676,3.708-.327.085,47.712-44.355.116-.107.144.064a31.848,31.848,0,0,0,15.119,2.688,32.021,32.021,0,0,0,11.1-2.866,34.7,34.7,0,0,0,6.118-3.743l1.423-1.183C-250.714,391.6-250.539,391.478-250.539,391.478Z" transform="translate(347.593 -336.718)" fill="#263238"/>
                </g>
              </g>
            </g>
          </g>
        </g>
        <g id="Group_6675" data-name="Group 6675" transform="translate(47.203 3.985)">
          <g id="Group_6674" data-name="Group 6674">
            <g id="Group_6673" data-name="Group 6673">
              <path id="Path_84" data-name="Path 84" d="M-264.516,388.087a42.945,42.945,0,0,0,4.227-5.331,26.456,26.456,0,0,0,3.235-7.243,27.485,27.485,0,0,0,.9-10.419,27.275,27.275,0,0,0-4.148-11.912,27.494,27.494,0,0,0-10.687-9.676,25.648,25.648,0,0,0-7.439-2.512,30.519,30.519,0,0,0-4.041-.467,30.846,30.846,0,0,0-4.142.205,27.446,27.446,0,0,0-15.426,7.128,27.449,27.449,0,0,0-8.186,14.9,30.957,30.957,0,0,0-.491,4.118,30.578,30.578,0,0,0,.184,4.065,25.712,25.712,0,0,0,1.992,7.6,27.48,27.48,0,0,0,8.914,11.333,27.248,27.248,0,0,0,11.6,4.963,27.473,27.473,0,0,0,10.456-.175,26.486,26.486,0,0,0,7.45-2.725,42.82,42.82,0,0,0,5.61-3.846c.01.01-.1.118-.316.319l-.984.881a12.768,12.768,0,0,1-1.689,1.329,19.63,19.63,0,0,1-2.472,1.585,26.245,26.245,0,0,1-7.506,2.887,27.673,27.673,0,0,1-10.641.294,27.715,27.715,0,0,1-11.89-4.987,28.058,28.058,0,0,1-9.193-11.573,26.3,26.3,0,0,1-2.07-7.8,31.356,31.356,0,0,1-.2-4.176,31.621,31.621,0,0,1,.5-4.235,28.153,28.153,0,0,1,8.407-15.33,28.151,28.151,0,0,1,15.872-7.318,31.513,31.513,0,0,1,4.258-.2,31.226,31.226,0,0,1,4.151.489,26.327,26.327,0,0,1,7.633,2.6,28.069,28.069,0,0,1,10.908,9.972,27.7,27.7,0,0,1,4.151,12.206,27.658,27.658,0,0,1-1.03,10.6,26.2,26.2,0,0,1-3.4,7.286,19.473,19.473,0,0,1-1.753,2.358,12.732,12.732,0,0,1-1.443,1.592l-.948.921A1.816,1.816,0,0,1-264.516,388.087Z" transform="translate(311.477 -339.767)" fill="#263238"/>
            </g>
          </g>
        </g>
        <g id="Group_6678" data-name="Group 6678" transform="translate(74.709 11.279)">
          <g id="Group_6677" data-name="Group 6677">
            <g id="Group_6676" data-name="Group 6676">
              <path id="Path_85" data-name="Path 85" d="M-272.255,364.044c-.063-.06.657-.678,1.536-2.087a10.558,10.558,0,0,0,1.487-6.68,10.283,10.283,0,0,0-1.584-4.459,10.333,10.333,0,0,0-4.015-3.606,10.125,10.125,0,0,0-5.838-1.022,10.266,10.266,0,0,0-5.755,2.665,10.262,10.262,0,0,0-3.06,5.557,10.113,10.113,0,0,0,.616,5.9,10.337,10.337,0,0,0,3.318,4.256,10.288,10.288,0,0,0,4.339,1.889,10.557,10.557,0,0,0,6.766-1.022c1.468-.778,2.133-1.453,2.189-1.387.018.02-.141.19-.467.5A8.307,8.307,0,0,1-274.3,365.7,10.533,10.533,0,0,1-281.3,367a10.728,10.728,0,0,1-4.633-1.912,10.9,10.9,0,0,1-3.6-4.5,10.782,10.782,0,0,1-.706-6.323,10.977,10.977,0,0,1,3.279-5.99,10.982,10.982,0,0,1,6.2-2.854,10.784,10.784,0,0,1,6.258,1.142,10.9,10.9,0,0,1,4.236,3.9,10.715,10.715,0,0,1,1.587,4.754,10.533,10.533,0,0,1-1.784,6.9,8.359,8.359,0,0,1-1.264,1.491C-272.056,363.916-272.236,364.064-272.255,364.044Z" transform="translate(290.432 -345.348)" fill="#263238"/>
            </g>
          </g>
        </g>
        <g id="Group_6681" data-name="Group 6681" transform="translate(11.218 57.961)">
          <g id="Group_6680" data-name="Group 6680">
            <g id="Group_6679" data-name="Group 6679">
              <path id="Path_86" data-name="Path 86" d="M-339.009,426.267c-.149-.158,10.577-10.406,23.954-22.887s24.345-22.472,24.493-22.313-10.576,10.4-23.957,22.888S-338.861,426.426-339.009,426.267Z" transform="translate(339.01 -381.066)" fill="#263238"/>
            </g>
          </g>
        </g>
      </g>
      <g id="Group_6683" data-name="Group 6683" transform="translate(28.116 39.821)">
        <path id="Path_87" data-name="Path 87" d="M-333.893,368.158l.434-.972.584.89a4.444,4.444,0,0,0,1.908,1.626l.971.435-.89.583a4.46,4.46,0,0,0-1.626,1.908l-.434.971-.584-.89a4.458,4.458,0,0,0-1.908-1.625l-.971-.435.89-.583A4.469,4.469,0,0,0-333.893,368.158Z" transform="translate(336.409 -367.186)" fill="#007bff"/>
      </g>
      <g id="Group_6684" data-name="Group 6684" transform="translate(0 32.958)">
        <path id="Path_88" data-name="Path 88" d="M-356.46,362.5l.252-.565.338.518a2.591,2.591,0,0,0,1.108.944l.563.252-.516.339a2.592,2.592,0,0,0-.944,1.108l-.252.563-.339-.516a2.592,2.592,0,0,0-1.108-.944l-.565-.252.518-.339A2.592,2.592,0,0,0-356.46,362.5Z" transform="translate(357.921 -361.935)" fill="#007bff"/>
      </g>
      <g id="Group_6685" data-name="Group 6685" transform="translate(91.848 82.671)">
        <path id="Path_89" data-name="Path 89" d="M-286.185,400.536l.252-.565.339.518a2.592,2.592,0,0,0,1.108.944l.563.252-.516.338a2.591,2.591,0,0,0-.944,1.108l-.252.563-.339-.516a2.592,2.592,0,0,0-1.108-.944l-.565-.252.518-.339A2.592,2.592,0,0,0-286.185,400.536Z" transform="translate(287.646 -399.971)" fill="#e8505b"/>
      </g>
      <g id="Group_6686" data-name="Group 6686" transform="translate(135.763 56.774)">
        <path id="Path_90" data-name="Path 90" d="M-251.53,381.128l.435-.971.583.89a4.468,4.468,0,0,0,1.908,1.626l.971.434-.89.584a4.45,4.45,0,0,0-1.625,1.908l-.435.971-.583-.89a4.468,4.468,0,0,0-1.908-1.626l-.972-.434.891-.584A4.457,4.457,0,0,0-251.53,381.128Z" transform="translate(254.046 -380.157)" fill="#007bff"/>
      </g>
      <g id="Group_6687" data-name="Group 6687" transform="translate(128.194 20.406)">
        <path id="Path_91" data-name="Path 91" d="M-255.61,353.963l.731-1.632.98,1.5a7.491,7.491,0,0,0,3.206,2.732l1.632.729-1.5.982a7.491,7.491,0,0,0-2.732,3.206l-.731,1.632-.98-1.5a7.488,7.488,0,0,0-3.206-2.73l-1.632-.731,1.5-.98A7.488,7.488,0,0,0-255.61,353.963Z" transform="translate(259.837 -352.331)" fill="#007bff"/>
      </g>
      <g id="Group_6688" data-name="Group 6688" transform="translate(17.34 9.396)">
        <path id="Path_92" data-name="Path 92" d="M-340.427,345.539l.731-1.632.98,1.5a7.48,7.48,0,0,0,3.206,2.73l1.632.731-1.5.98a7.5,7.5,0,0,0-2.732,3.206l-.731,1.632-.98-1.5a7.491,7.491,0,0,0-3.206-2.732l-1.632-.729,1.5-.982A7.492,7.492,0,0,0-340.427,345.539Z" transform="translate(344.654 -343.907)" fill="#007bff"/>
      </g>
    </g>
  </g>
</svg>
