<svg xmlns="http://www.w3.org/2000/svg" width="295.26" height="317.016" viewBox="0 0 295.26 317.016">
  <g id="Group_7725" data-name="Group 7725" transform="translate(-817.37 -538)">
    <g id="Group_7697" data-name="Group 7697" transform="translate(821.837 538)">
      <path id="Path_10082" data-name="Path 10082" d="M489.32,439.762h90.844c3.065.983,4.282,2.481,4.288,5.731.036,17.757.066,35.515,0,53.271.073,7.908.02,15.816.034,23.723a16.8,16.8,0,0,1-.082,2.506c-.113.973-.851,1.378-1.614,1.766-2.479,1.261-4.927,2.587-7.414,3.824-9.4,4.673-18.655,9.63-28.083,14.246a4.781,4.781,0,0,1-1.462.562c-1.5-.2-2.678-1.144-3.956-1.821-1.9-1-3.795-2.007-5.646-3.093a2.729,2.729,0,0,0-2.957-.01c-2.6,1.457-5.207,2.914-7.838,4.321a3.186,3.186,0,0,1-1.75.609c-4.265-1.77-8.3-4-12.412-6.1-.839-.427-1.645-.924-2.494-1.337-7.361-3.573-14.552-7.478-21.884-11.105-.8-.4-1.645-.763-1.792-1.816-.215-4.088-.078-8.174-.091-12.26-.015-4.662-.06-9.325.035-13.986-.084-6.675-.027-13.35-.034-20.025q-.017-15.691,0-31.382c0-.578-.007-1.157.008-1.735C485.1,442.268,486.2,440.762,489.32,439.762Z" transform="translate(-465.688 -439.762)" fill="#f9f6f7"/>
      <path id="Path_10083" data-name="Path 10083" d="M561.764,738.126c-.314.017-.628.049-.943.05q-56.369,0-112.739,0c-4.641,0-7.967-2.863-8.453-7.215-.237-5.56-.029-11.124-.116-16.685-.014-.862.541-1.182,1.144-1.521q6.046-3.388,12.14-6.688c8.579-4.664,17.131-9.379,25.7-14.052q8.643-4.711,17.261-9.47a3.845,3.845,0,0,1,1.647-.462c3.22-1.733,6.459-3.432,9.65-5.218a2.529,2.529,0,0,1,2.767-.005c3.193,1.782,6.43,3.487,9.65,5.221,2.07.25,3.624,1.616,5.359,2.552,8.782,4.743,17.526,9.558,26.281,14.352,5.3,2.9,10.635,5.737,15.887,8.726a3.95,3.95,0,0,1,1.02.736,1.827,1.827,0,0,1,.381.7,13.106,13.106,0,0,1,.147,2.978q.007,8.963,0,17.927a8.248,8.248,0,0,1-3.817,7.172A8.559,8.559,0,0,1,561.764,738.126Z" transform="translate(-439.387 -576.678)" fill="#feb432"/>
      <path id="Path_10084" data-name="Path 10084" d="M497.24,649.376c-5.5,3.046-11,6.107-16.513,9.134q-14.9,8.18-29.81,16.326c-3.358,1.839-6.692,3.726-10.094,5.479a2.2,2.2,0,0,0-1.325,2.338c.035,5.2-.017,10.4-.038,15.6a2.091,2.091,0,0,1-.232-1.37q.013-37.85.036-75.7c0-.411-.093-.85.247-1.2.621-.233,1.12.115,1.631.36,5.668,2.719,11.178,5.748,16.8,8.556a3.485,3.485,0,0,1,1.108.859c3.849,2.017,7.683,4.067,11.552,6.046Q483.907,642.62,497.24,649.376Z" transform="translate(-439.218 -543.974)" fill="#fee170"/>
      <path id="Path_10085" data-name="Path 10085" d="M677.48,682.132l-29.238-16.026L629.215,655.68q18.222-9.287,36.442-18.579c.6-.307,1.166-.685,1.748-1.029a6.359,6.359,0,0,1,2.372-1.5c2.142-1.109,4.329-2.129,6.442-3.3.659-.365,1.429-.933,1.947.236a7.849,7.849,0,0,1,.17,2.194q.006,22.844-.025,45.688C678.309,680.333,678.8,681.543,677.48,682.132Z" transform="translate(-549.127 -550.28)" fill="#fee170"/>
      <path id="Path_10086" data-name="Path 10086" d="M633.883,495.911c-1.633.55-3.316.225-4.97.227-9.4.011-18.8-.042-28.194-.071-2.28-.007-2.281,0-2.281-2.244,0-3.518.031-7.036-.018-10.554-.016-1.136.34-1.594,1.528-1.588,9.293.045,18.587.045,27.881.059a1.327,1.327,0,0,1,.752,1.282c.078,3.87.162,7.74-.043,11.609-.01.193-.2.349-.083.661,1.1.133,2.245.005,3.384.063C632.557,495.391,633.327,495.269,633.883,495.911Z" transform="translate(-531.312 -464.01)" fill="#6c5e69"/>
      <path id="Path_10087" data-name="Path 10087" d="M538.037,506.052c.008.1.02.209.022.314.089,4.069,2.147,6.465,6.017,7.722,2.05.666,2.6,2.317,2.284,4.457-.283,1.915-.513,3.839-.755,5.76a2.049,2.049,0,0,1-2.309,2.022q-8.892-.029-17.783,0a2.078,2.078,0,0,1-2.364-2.125c-.214-1.976-.55-3.939-.822-5.909a3.8,3.8,0,0,1,2.155-4.157,18.025,18.025,0,0,1,2.144-.977c2.164-.792,3.559-2.144,3.621-4.6a20.2,20.2,0,0,1,.282-2.178c.217-.593.7-.607,1.155-.429a7.17,7.17,0,0,0,5.474-.028A.818.818,0,0,1,538.037,506.052Z" transform="translate(-487.266 -477.993)" fill="#877ac4"/>
      <path id="Path_10088" data-name="Path 10088" d="M730.206,601.568c-2.843,1.427-5.683,2.861-8.532,4.276-.6.3-1.239.527-1.86.787q.009-13.355.018-26.71,9.664,8.265,19.323,16.535a1.491,1.491,0,0,1,.238.391A35.99,35.99,0,0,1,730.206,601.568Z" transform="translate(-601.535 -520.84)" fill="#fe972a"/>
      <path id="Path_10089" data-name="Path 10089" d="M459.451,606.646a55.414,55.414,0,0,1-6.362-3.068c-4.408-2.2-8.787-4.468-13.178-6.707a34.434,34.434,0,0,1,4.967-4.493c4.823-4.174,9.7-8.292,14.549-12.431Q459.439,593.3,459.451,606.646Z" transform="translate(-439.619 -520.855)" fill="#fe972a"/>
      <path id="Path_10090" data-name="Path 10090" d="M606.6,612.531q-9.527,0-19.053.007a3.207,3.207,0,0,1-2.48-.752,2.37,2.37,0,0,1,.926-3.955,6.757,6.757,0,0,1,2.019-.217q18.5-.018,37.005-.008c.315,0,.631-.015.945.007,1.673.116,2.726,1.072,2.725,2.463,0,1.449-1.124,2.444-2.875,2.449C619.412,612.542,613.008,612.531,606.6,612.531Z" transform="translate(-523.177 -536.853)" fill="#574d56"/>
      <path id="Path_10091" data-name="Path 10091" d="M544.907,482.767c-2.249.975-4.509,1.331-6.8.133-.286-.15-.493.054-.707.2a1.974,1.974,0,0,0-.758-1.16,7.353,7.353,0,0,1-2.471-6.191c.111-2.022-.209-4.042.644-6.042a7.27,7.27,0,0,1,7.916-3.962,7.188,7.188,0,0,1,5.613,6.55,35.886,35.886,0,0,1-.005,4.566A7.731,7.731,0,0,1,544.907,482.767Z" transform="translate(-494.136 -454.708)" fill="#fecebf"/>
      <path id="Path_10092" data-name="Path 10092" d="M606.308,638.348c-6.361,0-12.722-.017-19.083.012-1.448.006-2.478-.5-2.835-1.947-.382-1.547.843-2.861,2.673-2.874,3.469-.025,6.939-.008,10.409-.008q14.036,0,28.072-.01a2.821,2.821,0,0,1,2.746,1.155c1.053,1.7-.112,3.632-2.269,3.658-3.522.044-7.045.013-10.567.013Z" transform="translate(-523.156 -551.846)" fill="#574d56"/>
      <path id="Path_10093" data-name="Path 10093" d="M606.557,586.735q-9.226,0-18.451,0a12.023,12.023,0,0,1-1.574-.046,2.229,2.229,0,0,1-2.112-2.331,2.272,2.272,0,0,1,2.038-2.413,8.2,8.2,0,0,1,1.573-.047q18.53,0,37.06,0a8.562,8.562,0,0,1,1.573.047,2.278,2.278,0,0,1,2.035,2.421,2.208,2.208,0,0,1-2.116,2.326,13.416,13.416,0,0,1-1.575.044Q615.783,586.737,606.557,586.735Z" transform="translate(-523.213 -521.974)" fill="#574d56"/>
      <path id="Path_10094" data-name="Path 10094" d="M674.243,495.9c-1.575-.017-3.153-.085-4.726-.033-.879.029-1.093-.174-1.072-1.114.085-3.833.035-7.67.041-11.505a2.666,2.666,0,0,0-.3-1.52c1.776-.02,3.553-.025,5.329-.065.825-.018,1.279.259,1.275,1.162-.015,4.027-.007,8.053,0,12.08C674.788,495.343,674.764,495.756,674.243,495.9Z" transform="translate(-571.671 -464.001)" fill="#574d56"/>
      <path id="Path_10095" data-name="Path 10095" d="M541.168,612.513c-1.729,0-3.459.029-5.187-.009a2.413,2.413,0,0,1-2.653-2.3,2.344,2.344,0,0,1,2.538-2.573q5.341-.115,10.687-.008a2.409,2.409,0,0,1,2.6,2.544c-.06,1.416-1.1,2.315-2.794,2.342C544.626,612.535,542.9,612.513,541.168,612.513Z" transform="translate(-493.657 -536.834)" fill="#574d56"/>
      <path id="Path_10096" data-name="Path 10096" d="M541.1,586.734c-1.728,0-3.456.033-5.183-.01-1.639-.041-2.556-.907-2.588-2.333a2.35,2.35,0,0,1,2.611-2.483q5.261-.051,10.523,0a2.417,2.417,0,0,1,2.688,2.427c0,1.423-1.027,2.36-2.711,2.393C544.663,586.761,542.883,586.734,541.1,586.734Z" transform="translate(-493.66 -521.975)" fill="#574d56"/>
      <path id="Path_10097" data-name="Path 10097" d="M541.219,638.341c-1.787,0-3.575.032-5.362-.01a2.309,2.309,0,0,1-2.532-2.4,2.341,2.341,0,0,1,2.551-2.395q5.361-.048,10.724,0a2.4,2.4,0,1,1-.019,4.794C544.794,638.371,543.006,638.341,541.219,638.341Z" transform="translate(-493.657 -551.842)" fill="#574d56"/>
      <path id="Path_10098" data-name="Path 10098" d="M669.82,532.491c1,0,1.994-.043,2.987.011a2.247,2.247,0,0,1,2.2,2.251,2.284,2.284,0,0,1-2.143,2.464c-2.041.083-4.089.081-6.131.009a2.347,2.347,0,0,1-2.292-2.345,2.428,2.428,0,0,1,2.391-2.4c.1-.006.209,0,.314-.005h2.673Z" transform="translate(-569.504 -493.394)" fill="#9ef397"/>
      <path id="Path_10099" data-name="Path 10099" d="M600.693,532.46c.994,0,1.993-.058,2.982.014a2.187,2.187,0,0,1,2.159,2.262,2.114,2.114,0,0,1-1.969,2.423,46.8,46.8,0,0,1-6.586,0c-1.333-.092-1.942-1.128-1.885-2.46a2.085,2.085,0,0,1,2-2.21c1.089-.1,2.2-.021,3.3-.021Z" transform="translate(-529.56 -493.372)" fill="#887ac4"/>
      <path id="Path_10100" data-name="Path 10100" d="M635.237,537.226c-.942,0-1.885.03-2.826-.007a2.349,2.349,0,0,1-2.48-2.442,2.3,2.3,0,0,1,2.421-2.33q2.825-.065,5.653,0a2.225,2.225,0,0,1,2.391,2.34,2.31,2.31,0,0,1-2.332,2.423c-.939.051-1.883.01-2.826.01Z" transform="translate(-549.54 -493.359)" fill="#fed150"/>
      <path id="Path_10101" data-name="Path 10101" d="M744.033,624.8a98.347,98.347,0,0,1,9.186-4.721c.414.509.22,1.111.221,1.667q.036,37.307.04,74.614a3.918,3.918,0,0,1-.259,2.3c-.685-.615-.508-1.446-.511-2.207-.022-4.289-.067-8.581.019-12.868a3.3,3.3,0,0,0-1.973-3.351c-2.277-1.252-4.778-2.158-6.716-3.987l-.324-.323c.542-.52.308-1.191.308-1.793Q744.043,649.462,744.033,624.8Z" transform="translate(-615.362 -544.068)" fill="#fed150"/>
      <path id="Path_10102" data-name="Path 10102" d="M735.837,753.325a92.961,92.961,0,0,1,8.567,4.558c.713.4.576,1.045.578,1.658q.023,8.1.036,16.2a7.875,7.875,0,0,1-7.652,6.9c-2.61.019-5.22-.026-7.83-.042,1.8-.814,3.607-1.545,4.818-3.3a7.765,7.765,0,0,0,1.477-4.536Q735.835,764.042,735.837,753.325Z" transform="translate(-607.159 -621.15)" fill="#fe972a"/>
    </g>
    <g id="Group_7696" data-name="Group 7696" transform="translate(817.37 611.042)">
      <g id="Group_7341" data-name="Group 7341" transform="translate(0.675 243.095)">
        <g id="Group_7340" data-name="Group 7340">
          <path id="Path_9977" data-name="Path 9977" d="M947.727,630.029c0,.1-65.95.178-147.285.178-81.363,0-147.3-.08-147.3-.178s65.937-.178,147.3-.178C881.777,629.851,947.727,629.931,947.727,630.029Z" transform="translate(-653.142 -629.851)" fill="#263238"/>
        </g>
      </g>
      <g id="Group_7368" data-name="Group 7368" transform="translate(67.635 0)">
        <g id="Group_7361" data-name="Group 7361">
          <g id="Group_7345" data-name="Group 7345" transform="translate(0 8.413)">
            <g id="Group_7342" data-name="Group 7342" transform="translate(0.157 0.126)">
              <path id="Path_9978" data-name="Path 9978" d="M745.766,350.334c-10.957,17.235-10.239,41.131,1.732,57.677,7.981,11.031,19.953,18.424,29.459,28.171s16.727,24.11,11.709,36.767c-5.107,12.885-20.066,18.127-31.268,26.289a59.1,59.1,0,0,0-14.256,80.724H859.506s20.441-38.957-5.84-68.646-40.395-30.174-39.421-49.642,14.6-25.794,22.388-33.094,45.749-24.335,23.361-78.246Z" transform="translate(-733.124 -350.334)" fill="#fafafa"/>
            </g>
            <g id="Group_7344" data-name="Group 7344">
              <g id="Group_7343" data-name="Group 7343">
                <path id="Path_9979" data-name="Path 9979" d="M745.736,350.31s.676-.011,2-.016l5.9-.016,22.707-.033,83.618-.061h.086l.031.077a108.412,108.412,0,0,1,4.336,12.6,73.452,73.452,0,0,1,2.472,13.692,54.345,54.345,0,0,1-.739,14.453,46.436,46.436,0,0,1-5.26,14.051,51.153,51.153,0,0,1-4.383,6.359,59.175,59.175,0,0,1-5.36,5.735,79.165,79.165,0,0,1-6.085,5.151c-2.118,1.639-4.328,3.186-6.486,4.822-1.082.815-2.068,1.729-3.1,2.645-1.035.9-2.1,1.766-3.177,2.625-2.15,1.72-4.322,3.44-6.372,5.322a34.043,34.043,0,0,0-9.558,13.707,33.308,33.308,0,0,0-1.819,8.38c-.058.719-.154,1.437-.181,2.16s-.055,1.448-.021,2.173a24.711,24.711,0,0,0,.437,4.329,19.761,19.761,0,0,0,3.493,7.971,44.285,44.285,0,0,0,6.035,6.534c4.418,4.039,9.1,7.895,13.593,12.059q6.766,6.209,13.109,13.1a78.975,78.975,0,0,1,6.052,7.2,50.514,50.514,0,0,1,4.879,8.134,53.385,53.385,0,0,1,5.011,18.453,67.592,67.592,0,0,1-1.133,19.4,79.593,79.593,0,0,1-2.5,9.517,69.4,69.4,0,0,1-3.694,9.191l-.048.1H856.48l-113.369-.008h-.091l-.05-.075a60,60,0,0,1-9.744-27.468,57.916,57.916,0,0,1,4.026-27.725,60.354,60.354,0,0,1,15.382-21.97,69.812,69.812,0,0,1,10.5-7.66c3.633-2.256,7.3-4.342,10.761-6.624a49.3,49.3,0,0,0,9.471-7.705,25.888,25.888,0,0,0,5.861-10.16,25.272,25.272,0,0,0,.462-11.341,36.915,36.915,0,0,0-3.6-10.426,50.953,50.953,0,0,0-5.857-8.9,70.916,70.916,0,0,0-7.087-7.4c-4.926-4.535-9.967-8.5-14.5-12.576-2.272-2.033-4.426-4.086-6.408-6.2a57.589,57.589,0,0,1-5.312-6.548,49.9,49.9,0,0,1-6.658-13.8A51.477,51.477,0,0,1,738,380.472c-.1-1.015-.058-2.012-.057-2.986s-.016-1.923.085-2.846q.107-1.386.208-2.7c.1-.874.249-1.718.367-2.542a48.564,48.564,0,0,1,4.563-14.491,19.73,19.73,0,0,1,1.053-2.03q.5-.848.835-1.424c.448-.762.679-1.142.679-1.142l-.66,1.165-.818,1.427a19.913,19.913,0,0,0-1.036,2.03,48.849,48.849,0,0,0-4.5,14.483c-.114.822-.256,1.666-.359,2.537q-.1,1.313-.2,2.7c-.1.921-.067,1.87-.078,2.84s-.034,1.965.063,2.978a51.468,51.468,0,0,0,2.284,13.029,49.771,49.771,0,0,0,6.655,13.74,57.51,57.51,0,0,0,5.3,6.518c1.979,2.1,4.13,4.146,6.4,6.174,4.536,4.065,9.582,8.025,14.522,12.563a71.223,71.223,0,0,1,7.118,7.413,51.191,51.191,0,0,1,5.893,8.935,37.2,37.2,0,0,1,3.63,10.5,25.534,25.534,0,0,1-.459,11.462,26.157,26.157,0,0,1-5.917,10.275,49.523,49.523,0,0,1-9.519,7.757c-3.473,2.292-7.139,4.381-10.764,6.635a69.638,69.638,0,0,0-10.454,7.633,60.064,60.064,0,0,0-15.291,21.865,57.592,57.592,0,0,0-3.993,27.573,59.678,59.678,0,0,0,9.7,27.31l-.141-.076,113.369-.008h3l-.157.095a69.22,69.22,0,0,0,3.671-9.137,79.4,79.4,0,0,0,2.486-9.475,67.272,67.272,0,0,0,1.13-19.3,53.042,53.042,0,0,0-4.976-18.333,50.172,50.172,0,0,0-4.844-8.08,78.637,78.637,0,0,0-6.025-7.165q-6.318-6.881-13.086-13.086c-4.483-4.16-9.159-8.01-13.59-12.063a44.609,44.609,0,0,1-6.079-6.587,20.122,20.122,0,0,1-3.547-8.1,25.114,25.114,0,0,1-.441-4.386c-.034-.733.007-1.463.022-2.194s.124-1.453.183-2.178a33.6,33.6,0,0,1,1.841-8.459,34.357,34.357,0,0,1,9.648-13.833c2.063-1.891,4.243-3.615,6.392-5.333,1.075-.858,2.138-1.722,3.168-2.615,1.012-.9,2.026-1.838,3.114-2.657,2.169-1.641,4.374-3.185,6.488-4.818a79.086,79.086,0,0,0,6.065-5.127,59.155,59.155,0,0,0,5.335-5.7,50.918,50.918,0,0,0,4.36-6.319,46.131,46.131,0,0,0,5.235-13.957,54.047,54.047,0,0,0,.744-14.378,73.181,73.181,0,0,0-2.453-13.645,108.448,108.448,0,0,0-4.314-12.573l.116.078-83.568-.061-22.724-.033-5.914-.016C746.424,350.32,745.736,350.31,745.736,350.31Z" transform="translate(-732.938 -350.184)" fill="#263238"/>
              </g>
            </g>
          </g>
          <g id="Group_7346" data-name="Group 7346" transform="translate(10.955 30.028)">
            <path id="Path_9980" data-name="Path 9980" d="M857.419,386.063c17.139,2.817-9.884,33.171-25.179,45.149-8.857,6.936-18.369,14.457-22.575,24.89-4.771,11.837-1.235,25.142-3.548,37.048a1.654,1.654,0,0,1-3.277-.347,128.913,128.913,0,0,0-1.39-23.322c-1.836-10.913-6.033-21.71-13.682-29.707-6.243-6.529-14.43-10.867-21.09-16.97-9.723-8.911-19.712-20.4-20.686-33.557,0,0,18.669-15.038,29.032-13.139,12.111,2.218,24.033,20.9,42.8,18.765C830.927,393.379,837.539,382.8,857.419,386.063Z" transform="translate(-745.993 -375.941)" fill="#e8505b"/>
          </g>
          <g id="Group_7347" data-name="Group 7347" transform="translate(6.301 182.467)">
            <path id="Path_9981" data-name="Path 9981" d="M858.048,577.752c-.433-4.286-1.576-9.137-5.38-11.158a10.613,10.613,0,0,0-7.633-.425c-2.524.664-4.9,1.811-7.4,2.554a24.231,24.231,0,0,1-15.134-.479c-4.65-1.708-8.642-4.8-12.96-7.223s-9.372-4.237-14.179-3.04c-8.289,2.063-12.6,12.042-20.8,14.451-3.642,1.071-7.554.47-11.256-.369s-7.42-1.915-11.214-1.774a12.449,12.449,0,0,0-8.151,3.176l.022-.028c-.021.021-.039.044-.06.065a8.425,8.425,0,0,0-.94,1.1c-2.542,3.388-2.948,7.945-2.166,12.083.875,4.633,3.039,8.915,5.362,13.019,2.736,4.833,5.844,9.645,10.367,12.867,5.58,3.975,12.6,1.232,19.428,1.771,15.932,1.257,33.072,2.115,49.006.88,8.416-.653,16.3.259,22.983-4.9a27.155,27.155,0,0,0,9.228-14.862A50.814,50.814,0,0,0,858.048,577.752Z" transform="translate(-740.446 -557.602)" fill="#e8505b"/>
          </g>
          <g id="Group_7349" data-name="Group 7349" transform="translate(91.302 194.409)" opacity="0.24">
            <g id="Group_7348" data-name="Group 7348">
              <path id="Path_9982" data-name="Path 9982" d="M844.274,571.833a4.4,4.4,0,0,0-.415,4.62c.867,1.4,2.039,2.669,2.415,4.27.591,2.516-.924,4.975-2.053,7.3a23.275,23.275,0,0,0-2.257,13.472,18.328,18.328,0,0,0,6.686,11.764c1.619,1.249,3.721,2.217,5.671,1.605a5.485,5.485,0,0,0,3.388-4.328,18.367,18.367,0,0,0-.176-5.745,89.316,89.316,0,0,1,.674-26.682c.26-1.47.509-3.148-.422-4.315a5.015,5.015,0,0,0-2.449-1.4c-3.551-1.182-7.384.132-11.061-.566" transform="translate(-841.741 -571.833)"/>
            </g>
          </g>
          <g id="Group_7350" data-name="Group 7350" transform="translate(1.632 235.137)">
            <path id="Path_9983" data-name="Path 9983" d="M734.885,628.681s-.321-5.341,6.645-8.313H863.923s6.382,3.23,7.168,8.2Z" transform="translate(-734.882 -620.368)" fill="#263238"/>
          </g>
          <g id="Group_7351" data-name="Group 7351" transform="translate(10.096)">
            <path id="Path_9984" data-name="Path 9984" d="M862.951,349.348l-.194.09-115.086-.74s-.409-.262-1.02-.74a4.364,4.364,0,0,1,2.724-7.8l111.7.9A4.363,4.363,0,0,1,862.951,349.348Z" transform="translate(-744.969 -340.158)" fill="#263238"/>
          </g>
          <g id="Group_7353" data-name="Group 7353" transform="translate(33.407 51.65)" opacity="0.24">
            <g id="Group_7352" data-name="Group 7352">
              <path id="Path_9985" data-name="Path 9985" d="M849,403.15c.232.443-.632,1.4-2.282,2.867s-4.072,3.477-7.143,5.953a93.257,93.257,0,0,1-11.6,8.178,46.91,46.91,0,0,1-7.951,3.649,37.152,37.152,0,0,1-4.568,1.263,30.214,30.214,0,0,1-4.936.643,26.385,26.385,0,0,1-9.922-1.356,35.861,35.861,0,0,1-7.973-4.069c-2.294-1.521-4.272-3.023-6.136-4.46s-3.549-2.83-5.061-4.135c-6.045-5.238-9.224-9.09-8.611-9.833.634-.773,4.912,1.677,11.582,5.775l5.447,3.345c1.955,1.191,4.058,2.5,6.2,3.72a34.536,34.536,0,0,0,6.722,3.039,21.478,21.478,0,0,0,7.4.872,39.183,39.183,0,0,0,14.736-4.242c4.43-2.168,8.391-4.62,11.847-6.555a59.732,59.732,0,0,1,8.55-4.17C847.462,402.862,848.778,402.723,849,403.15Z" transform="translate(-772.748 -401.708)"/>
            </g>
          </g>
          <g id="Group_7354" data-name="Group 7354" transform="translate(66.679 161.412)">
            <path id="Path_9986" data-name="Path 9986" d="M813.607,532.6a1.94,1.94,0,1,1-.1.038" transform="translate(-812.398 -532.51)" fill="#e8505b"/>
          </g>
          <g id="Group_7356" data-name="Group 7356" transform="translate(10.532 20.119)">
            <g id="Group_7355" data-name="Group 7355">
              <path id="Path_9987" data-name="Path 9987" d="M761.681,416.151a3.434,3.434,0,0,1-.406-.41l-1.114-1.222c-.472-.543-1.092-1.17-1.725-1.97l-2.173-2.7c-.742-1.05-1.584-2.18-2.432-3.433l-1.247-1.985c-.211-.343-.44-.683-.644-1.044l-.6-1.108a46,46,0,0,1-4.24-10.208,42.924,42.924,0,0,1-1.609-10.938c0-.851.044-1.682.064-2.488.018-.4.012-.8.051-1.191s.082-.772.123-1.149c.086-.752.147-1.481.247-2.176q.188-1.036.36-1.988c.195-1.274.531-2.391.773-3.383.131-.493.233-.958.364-1.375l.372-1.138.526-1.568a3.462,3.462,0,0,1,.206-.539,3.571,3.571,0,0,1-.138.561q-.171.59-.462,1.586l-.342,1.144c-.12.419-.213.884-.334,1.379-.222.993-.541,2.11-.719,3.379q-.16.948-.336,1.981c-.092.692-.145,1.417-.225,2.166q-.055.561-.112,1.141c-.037.387-.027.783-.043,1.183-.013.8-.055,1.625-.048,2.47a43.394,43.394,0,0,0,1.624,10.846,46.723,46.723,0,0,0,4.185,10.147l.591,1.105c.2.36.427.7.634,1.042q.631,1.023,1.226,1.985c.832,1.255,1.66,2.389,2.386,3.444l2.126,2.73c.618.811,1.222,1.449,1.676,2l1.063,1.265A3.522,3.522,0,0,1,761.681,416.151Z" transform="translate(-745.489 -364.133)" fill="#263238"/>
            </g>
          </g>
          <g id="Group_7358" data-name="Group 7358" transform="translate(20.244 94.647)">
            <g id="Group_7357" data-name="Group 7357">
              <path id="Path_9988" data-name="Path 9988" d="M757.063,531.876a1.4,1.4,0,0,1,.128-.225l.406-.642.671-1.039.431-.661c.167-.226.364-.453.563-.7l1.34-1.636c.525-.566,1.128-1.152,1.759-1.8a47.481,47.481,0,0,1,4.687-3.945c3.624-2.747,8.3-5.476,13.368-8.662a77.182,77.182,0,0,0,7.666-5.4,35.985,35.985,0,0,0,6.879-7.27,34.387,34.387,0,0,0,5.562-18.319,43.374,43.374,0,0,0-2.617-15.564,57.99,57.99,0,0,0-4.523-9.7c-.633-1.1-1.151-1.933-1.51-2.5l-.4-.644a1.336,1.336,0,0,1-.127-.227,1.473,1.473,0,0,1,.157.206l.432.625c.378.55.916,1.375,1.568,2.465a55.48,55.48,0,0,1,4.641,9.685,43.186,43.186,0,0,1,2.708,15.656,35.667,35.667,0,0,1-.377,4.6,33.633,33.633,0,0,1-1,4.716,32.159,32.159,0,0,1-4.218,9.19,36.2,36.2,0,0,1-6.953,7.341,76.606,76.606,0,0,1-7.711,5.407c-5.088,3.176-9.765,5.877-13.394,8.587a48.529,48.529,0,0,0-4.7,3.886c-.634.635-1.241,1.212-1.771,1.769l-1.357,1.609c-.2.242-.4.466-.574.687l-.442.649-.7,1.016-.436.622A1.464,1.464,0,0,1,757.063,531.876Z" transform="translate(-757.063 -452.948)" fill="#263238"/>
            </g>
          </g>
          <g id="Group_7360" data-name="Group 7360" transform="translate(8.107 185.639)">
            <g id="Group_7359" data-name="Group 7359">
              <path id="Path_9989" data-name="Path 9989" d="M748.386,561.382a1.269,1.269,0,0,1-.149.317l-.486.869c-.22.372-.481.831-.744,1.385s-.609,1.161-.9,1.877l-.48,1.11c-.165.387-.3.8-.46,1.228-.333.843-.592,1.777-.888,2.751a36.916,36.916,0,0,0-1.2,13.124c.113,1.012.2,1.978.373,2.867.081.446.137.881.228,1.291s.184.8.271,1.179c.152.757.376,1.418.54,2.009s.331,1.092.479,1.5c.128.378.233.689.32.943a1.354,1.354,0,0,1,.09.338,1.251,1.251,0,0,1-.156-.311l-.383-.922a14.436,14.436,0,0,1-.539-1.485c-.184-.588-.425-1.25-.595-2.008-.095-.378-.193-.773-.3-1.182s-.163-.849-.25-1.3c-.189-.895-.285-1.867-.408-2.888a35.573,35.573,0,0,1,1.215-13.243c.306-.981.578-1.919.926-2.765.167-.425.31-.843.482-1.23s.343-.755.505-1.109c.3-.715.663-1.322.95-1.866a14.394,14.394,0,0,1,.8-1.363l.545-.837A1.309,1.309,0,0,1,748.386,561.382Z" transform="translate(-742.599 -561.382)" fill="#263238"/>
            </g>
          </g>
        </g>
        <g id="Group_7363" data-name="Group 7363" transform="translate(35.045 202.048)">
          <g id="Group_7362" data-name="Group 7362">
            <path id="Path_9990" data-name="Path 9990" d="M837.968,580.937c0,.006-.044.039-.138.1l-.425.266-1.657,1-1.2.712c-.447.247-.951.481-1.483.75-1.074.519-2.266,1.178-3.674,1.709l-2.182.9c-.761.3-1.583.54-2.417.829-1.662.608-3.5,1.04-5.425,1.542a63.745,63.745,0,0,1-25.68.67c-1.947-.4-3.806-.736-5.5-1.256-.849-.244-1.682-.437-2.458-.7l-2.225-.78c-1.432-.457-2.658-1.054-3.758-1.516-.545-.241-1.06-.449-1.52-.671l-1.238-.649-1.706-.907-.439-.244a.6.6,0,0,1-.143-.093.609.609,0,0,1,.161.061l.456.212,1.734.847,1.248.619c.462.213.98.411,1.527.643,1.1.442,2.33,1.021,3.763,1.461l2.223.754c.775.257,1.606.442,2.452.68,1.687.505,3.54.828,5.478,1.218a64.745,64.745,0,0,0,25.551-.667c1.915-.49,3.748-.91,5.407-1.5.832-.281,1.652-.51,2.412-.807l2.181-.869c1.407-.514,2.6-1.156,3.681-1.656.535-.26,1.041-.485,1.492-.722l1.214-.683,1.687-.937.443-.236A.691.691,0,0,1,837.968,580.937Z" transform="translate(-774.7 -580.936)" fill="#263238"/>
          </g>
        </g>
        <g id="Group_7365" data-name="Group 7365" transform="translate(39.162 57.542)">
          <g id="Group_7364" data-name="Group 7364">
            <path id="Path_9991" data-name="Path 9991" d="M845.879,408.73a.793.793,0,0,1-.145.135l-.448.369-1.743,1.391c-1.519,1.2-3.715,2.944-6.491,5.018a94.3,94.3,0,0,1-10.155,6.714,46.128,46.128,0,0,1-6.543,3.01,29.771,29.771,0,0,1-7.55,1.679,28.741,28.741,0,0,1-14.506-3.017,49.536,49.536,0,0,1-5.6-3.332c-1.667-1.176-3.19-2.314-4.536-3.405-2.7-2.169-4.822-4.005-6.294-5.264l-1.687-1.458-.433-.386a.821.821,0,0,1-.14-.141.831.831,0,0,1,.164.113l.456.359,1.73,1.407c1.5,1.226,3.641,3.033,6.359,5.172,1.354,1.077,2.88,2.2,4.547,3.359a49.933,49.933,0,0,0,5.579,3.281,28.613,28.613,0,0,0,14.336,2.957,29.659,29.659,0,0,0,7.458-1.653,46.385,46.385,0,0,0,6.5-2.969,97.7,97.7,0,0,0,10.165-6.629c2.791-2.046,5.01-3.758,6.555-4.925l1.784-1.338.47-.341A.8.8,0,0,1,845.879,408.73Z" transform="translate(-779.607 -408.729)" fill="#263238"/>
          </g>
        </g>
        <g id="Group_7367" data-name="Group 7367" transform="translate(43.855 205.533)" opacity="0.24">
          <g id="Group_7366" data-name="Group 7366">
            <path id="Path_9992" data-name="Path 9992" d="M785.2,587.341c3.235-2.5,7.781-1.892,11.782-1.051s8.03,2.209,12.078,1.642c3.05-.427,5.85-1.928,8.861-2.58s6.663-.17,8.333,2.418a64.857,64.857,0,0,1-41.053-.429" transform="translate(-785.199 -585.089)"/>
          </g>
        </g>
      </g>
      <g id="Group_7598" data-name="Group 7598" transform="translate(159.938 97.455)">
        <g id="Group_7398" data-name="Group 7398" transform="translate(0 42.101)">
          <g id="Group_7376" data-name="Group 7376" transform="translate(4.969)">
            <g id="Group_7370" data-name="Group 7370">
              <g id="Group_7369" data-name="Group 7369">
                <path id="Path_9993" data-name="Path 9993" d="M908.352,556.165,893.647,539.7l-.148,20.015,4.426,12.836-43.986,7.63-1.865-34.706-3.166-26.655a7.237,7.237,0,0,1,4.535-7.588l12.1-4.766,17.05,3.128,6.858,2.606a18.813,18.813,0,0,1,7.474,5.2l20.645,23.61" transform="translate(-848.855 -506.465)" fill="#e8505b"/>
              </g>
            </g>
            <g id="Group_7372" data-name="Group 7372" transform="translate(43.76 19.038)">
              <g id="Group_7371" data-name="Group 7371">
                <path id="Path_9994" data-name="Path 9994" d="M901,539.413a23.317,23.317,0,0,0,2.484-.175,10.081,10.081,0,0,0,8.268-7.624,22.947,22.947,0,0,0,.375-2.461,2.156,2.156,0,0,1,.062.676,8.709,8.709,0,0,1-.192,1.842,9.856,9.856,0,0,1-8.477,7.817,8.724,8.724,0,0,1-1.851.043A2.178,2.178,0,0,1,901,539.413Z" transform="translate(-901.004 -529.152)" fill="#fff"/>
              </g>
            </g>
            <g id="Group_7375" data-name="Group 7375" transform="translate(44.695 21.43)">
              <g id="Group_7374" data-name="Group 7374">
                <g id="Group_7373" data-name="Group 7373">
                  <path id="Path_9995" data-name="Path 9995" d="M902.47,562.97c.1,0,.129-6.934.06-15.484S902.319,532,902.216,532s-.129,6.933-.06,15.487S902.367,562.971,902.47,562.97Z" transform="translate(-902.118 -532.003)" fill="#263238"/>
                </g>
              </g>
            </g>
          </g>
          <g id="Group_7377" data-name="Group 7377" transform="translate(0 4.766)">
            <path id="Path_9996" data-name="Path 9996" d="M891.338,564.864l-26.578-10.7a6.075,6.075,0,0,1-3.788-5.172l-1.944-25.482s.23-10.838-6.539-11.365l-3.851,1.517c-4.977,2.642-6.21,9.889-5.533,15.484.963,7.95,1.365,19.2,2.442,26.1.881,5.644,4.114,10.608,9.638,12.063l32.736,7.087Z" transform="translate(-842.933 -512.145)" fill="#e8505b"/>
          </g>
          <g id="Group_7379" data-name="Group 7379" transform="translate(16.468 20.019)">
            <g id="Group_7378" data-name="Group 7378">
              <path id="Path_9997" data-name="Path 9997" d="M862.566,530.321a3.8,3.8,0,0,1,.083.584q.064.623.171,1.679c.136,1.493.327,3.6.562,6.179.225,2.621.492,5.725.788,9.169q.108,1.294.222,2.65a20.042,20.042,0,0,0,.339,2.726,4.53,4.53,0,0,0,1.322,2.388,8.947,8.947,0,0,0,2.452,1.526c7.329,3.172,14.083,5.79,18.987,7.626l5.821,2.145,1.583.583a3.687,3.687,0,0,1,.545.226,3.594,3.594,0,0,1-.568-.158l-1.605-.52c-1.391-.461-3.4-1.152-5.861-2.039-4.932-1.779-11.7-4.359-19.048-7.539a9.286,9.286,0,0,1-2.548-1.593,4.871,4.871,0,0,1-1.417-2.566,19.961,19.961,0,0,1-.338-2.775q-.108-1.356-.211-2.653c-.268-3.446-.509-6.553-.712-9.176-.188-2.588-.341-4.693-.45-6.19q-.065-1.06-.1-1.684A3.518,3.518,0,0,1,862.566,530.321Z" transform="translate(-862.559 -530.321)" fill="#263238"/>
            </g>
          </g>
          <g id="Group_7381" data-name="Group 7381" transform="translate(1.228 33.872)">
            <g id="Group_7380" data-name="Group 7380">
              <path id="Path_9998" data-name="Path 9998" d="M844.416,546.83a1.285,1.285,0,0,1,.053.342l.088.983c.079.908.185,2.131.315,3.617.146,1.525.331,3.34.6,5.346a50.952,50.952,0,0,0,1.2,6.455,9.632,9.632,0,0,0,1.3,3.077,17.582,17.582,0,0,0,1.985,2.439,16.982,16.982,0,0,0,4.253,3.191,15.981,15.981,0,0,0,4.668,1.528,1.271,1.271,0,0,1-.346-.008,7.3,7.3,0,0,1-.983-.127,12.973,12.973,0,0,1-3.453-1.169,16.675,16.675,0,0,1-4.373-3.185,17.6,17.6,0,0,1-2.04-2.474,9.89,9.89,0,0,1-1.352-3.178,48.262,48.262,0,0,1-1.182-6.508c-.248-2.016-.407-3.837-.521-5.367s-.171-2.771-.2-3.628c-.008-.4-.016-.722-.022-.988A1.249,1.249,0,0,1,844.416,546.83Z" transform="translate(-844.397 -546.83)" fill="#263238"/>
            </g>
          </g>
          <g id="Group_7383" data-name="Group 7383" transform="translate(12.607 45.411)">
            <g id="Group_7382" data-name="Group 7382">
              <path id="Path_9999" data-name="Path 9999" d="M857.963,566.873a3.9,3.9,0,0,1,.483-1.416,9.149,9.149,0,0,1,5.393-4.605,3.914,3.914,0,0,1,1.474-.257c.011.06-.547.17-1.392.494a10.339,10.339,0,0,0-5.253,4.486C858.216,566.359,858.02,566.893,857.963,566.873Z" transform="translate(-857.956 -560.581)" fill="#263238"/>
            </g>
          </g>
          <g id="Group_7385" data-name="Group 7385" transform="translate(17.841 5.995)">
            <g id="Group_7384" data-name="Group 7384">
              <path id="Path_10000" data-name="Path 10000" d="M864.194,539.938a.734.734,0,0,1,.169.075l.476.249a16.372,16.372,0,0,0,1.9.8,15.007,15.007,0,0,0,7.449.637,14.714,14.714,0,0,0,9.26-5.753,12.219,12.219,0,0,0,2.424-6.022,8.213,8.213,0,0,0-.354-3.407,6.92,6.92,0,0,0-1.917-2.928,5.789,5.789,0,0,0-3.12-1.516,3.716,3.716,0,0,0-3.127.879,2.008,2.008,0,0,0-.61,1.415,2.47,2.47,0,0,0,.514,1.461,3.99,3.99,0,0,0,2.7,1.41,10.951,10.951,0,0,0,5.809-.831,10.785,10.785,0,0,0,6.12-6.842,11.565,11.565,0,0,0,.506-3.2,12.1,12.1,0,0,0-.149-2.05c-.039-.215-.071-.389-.1-.528a.71.71,0,0,1-.023-.183,8.566,8.566,0,0,1,.408,2.762,11.419,11.419,0,0,1-.454,3.254,11.145,11.145,0,0,1-2,3.865,11.361,11.361,0,0,1-10.17,4.075,4.311,4.311,0,0,1-2.928-1.531,2.808,2.808,0,0,1-.586-1.664,2.357,2.357,0,0,1,.708-1.66,4.058,4.058,0,0,1,3.421-.983,6.143,6.143,0,0,1,3.311,1.6,7.27,7.27,0,0,1,2.013,3.079,8.556,8.556,0,0,1,.366,3.553,12.5,12.5,0,0,1-2.509,6.183,14.686,14.686,0,0,1-17.02,5.053A10.794,10.794,0,0,1,864.194,539.938Z" transform="translate(-864.194 -513.609)" fill="#fff"/>
            </g>
          </g>
          <g id="Group_7387" data-name="Group 7387" transform="translate(0.429 21.582)">
            <g id="Group_7386" data-name="Group 7386">
              <path id="Path_10001" data-name="Path 10001" d="M843.446,536.129a2.438,2.438,0,0,1,.437-.544,9.766,9.766,0,0,1,1.436-1.249,12.035,12.035,0,0,1,5.88-2.084,11.331,11.331,0,0,1,3.465.145,10.6,10.6,0,0,1,2.67.938,11.927,11.927,0,0,1,1.624.989,2.5,2.5,0,0,1,.534.449c-.037.056-.832-.545-2.266-1.211a11.16,11.16,0,0,0-5.99-.957,12.627,12.627,0,0,0-5.774,1.938C844.146,535.419,843.5,536.179,843.446,536.129Z" transform="translate(-843.445 -532.184)" fill="#fff"/>
            </g>
          </g>
          <g id="Group_7389" data-name="Group 7389" transform="translate(4.68 1.982)">
            <g id="Group_7388" data-name="Group 7388">
              <path id="Path_10002" data-name="Path 10002" d="M848.512,514.151a10.879,10.879,0,0,0,2.152,1.563,7.7,7.7,0,0,0,2.738.8,6.857,6.857,0,0,0,6.19-2.561,7.728,7.728,0,0,0,1.37-2.5,10.789,10.789,0,0,0,.416-2.627,2.279,2.279,0,0,1,.089.724,6.579,6.579,0,0,1-.265,1.975,7.573,7.573,0,0,1-1.355,2.635,6.994,6.994,0,0,1-6.481,2.682,7.578,7.578,0,0,1-2.82-.906,6.562,6.562,0,0,1-1.583-1.211A2.317,2.317,0,0,1,848.512,514.151Z" transform="translate(-848.511 -508.827)" fill="#fff"/>
            </g>
          </g>
          <g id="Group_7391" data-name="Group 7391" transform="translate(27.839 39.089)">
            <g id="Group_7390" data-name="Group 7390">
              <path id="Path_10003" data-name="Path 10003" d="M876.112,563.165a2.682,2.682,0,0,1,.055-.5,5.535,5.535,0,0,1,.471-1.375,7.585,7.585,0,0,1,3.978-3.454,11.645,11.645,0,0,1,7.815-.28,7.463,7.463,0,0,1,4.072,2.307,2.466,2.466,0,0,1,.3,2.5,3.967,3.967,0,0,1-1.894,1.787,6.015,6.015,0,0,1-2.517.623,3.668,3.668,0,0,1-2.416-.749,3.085,3.085,0,0,1-1.082-2.19,5.488,5.488,0,0,1,.362-2.3,10.335,10.335,0,0,1,5.478-5.545,10.755,10.755,0,0,1,5.228-.9,7.384,7.384,0,0,1,1.911.4c-.011.046-.676-.179-1.921-.264a10.948,10.948,0,0,0-5.114.989,10.71,10.71,0,0,0-2.983,2.024,9.567,9.567,0,0,0-2.291,3.4,5.184,5.184,0,0,0-.332,2.163,2.746,2.746,0,0,0,.964,1.948,3.324,3.324,0,0,0,2.189.665,5.687,5.687,0,0,0,2.364-.587,3.639,3.639,0,0,0,1.73-1.615,2.115,2.115,0,0,0-.26-2.151,4.92,4.92,0,0,0-1.778-1.411,12.63,12.63,0,0,0-2.1-.783,11.481,11.481,0,0,0-7.629.2,7.574,7.574,0,0,0-3.952,3.285A7.713,7.713,0,0,0,876.112,563.165Z" transform="translate(-876.109 -553.047)" fill="#fff"/>
            </g>
          </g>
          <g id="Group_7393" data-name="Group 7393" transform="translate(10.147 46.477)">
            <g id="Group_7392" data-name="Group 7392">
              <path id="Path_10004" data-name="Path 10004" d="M855.025,574.177c-.011-.067,1.013-.154,2.549-.7a12.711,12.711,0,0,0,8.154-9.02c.389-1.583.373-2.61.441-2.606a2.487,2.487,0,0,1,.038.717,10.768,10.768,0,0,1-.233,1.944,12.26,12.26,0,0,1-8.318,9.2,10.8,10.8,0,0,1-1.912.428A2.446,2.446,0,0,1,855.025,574.177Z" transform="translate(-855.025 -561.851)" fill="#fff"/>
            </g>
          </g>
          <g id="Group_7395" data-name="Group 7395" transform="translate(1.533 37.258)">
            <g id="Group_7394" data-name="Group 7394">
              <path id="Path_10005" data-name="Path 10005" d="M844.76,552.6a1.239,1.239,0,0,1,.321-.128c.215-.07.533-.169.949-.274a11.447,11.447,0,0,1,3.621-.368,7.566,7.566,0,0,1,2.461.608,5.679,5.679,0,0,1,2.3,1.8,4.722,4.722,0,0,1,.893,3.1,3.781,3.781,0,0,1-.527,1.661,2.637,2.637,0,0,1-1.393,1.166,1.84,1.84,0,0,1-1.8-.355,2.4,2.4,0,0,1-.619-1.656,7.087,7.087,0,0,1,.626-3.162,6.912,6.912,0,0,1,3.877-3.678,7.027,7.027,0,0,1,3.614-.358,5.929,5.929,0,0,1,.962.244,1.3,1.3,0,0,1,.317.138c-.011.035-.456-.142-1.3-.246a7.209,7.209,0,0,0-3.5.456,6.717,6.717,0,0,0-3.668,3.577,6.8,6.8,0,0,0-.577,3.011,2.065,2.065,0,0,0,.514,1.416,1.488,1.488,0,0,0,1.445.274,2.3,2.3,0,0,0,1.2-1.011,3.45,3.45,0,0,0,.481-1.506,4.416,4.416,0,0,0-.811-2.879,5.425,5.425,0,0,0-2.152-1.724,7.442,7.442,0,0,0-2.361-.626,12.264,12.264,0,0,0-3.568.252C845.226,552.506,844.768,552.629,844.76,552.6Z" transform="translate(-844.76 -550.865)" fill="#fff"/>
            </g>
          </g>
          <g id="Group_7397" data-name="Group 7397" transform="translate(17.341 27.595)" opacity="0.3">
            <g id="Group_7396" data-name="Group 7396">
              <path id="Path_10006" data-name="Path 10006" d="M887.025,566.2c-2.842-1.605-5.622-2.839-8.595-4.189a19.468,19.468,0,0,1-7.827-5.705c-3.668-4.943-3.25-12.079-7-16.958l.735,9.841c.225,3.007-.236,5.98,1.7,8.023,1.631,1.721,4.813,3.041,7.064,3.784,4.526,1.494,9.4,3.711,13.926,5.2" transform="translate(-863.599 -539.35)"/>
            </g>
          </g>
        </g>
        <g id="Group_7425" data-name="Group 7425" transform="translate(81.826 132.813)">
          <g id="Group_7400" data-name="Group 7400" transform="translate(0 1.189)">
            <g id="Group_7399" data-name="Group 7399">
              <path id="Path_10007" data-name="Path 10007" d="M945.569,615.981s22.238,6.154,23.13,6.469c1.34.472,1.115,5.38-.97,5.3-.986-.036-17.082.6-19.115.472s-8.169-2.545-8.169-2.545Z" transform="translate(-940.445 -615.981)" fill="#e8505b"/>
            </g>
          </g>
          <g id="Group_7403" data-name="Group 7403" transform="translate(14.343 5.231)">
            <g id="Group_7402" data-name="Group 7402">
              <g id="Group_7401" data-name="Group 7401">
                <path id="Path_10008" data-name="Path 10008" d="M957.582,625.241a9.764,9.764,0,0,1,2.552-4.435,4.941,4.941,0,0,0-2.552,4.435Z" transform="translate(-957.538 -620.799)" fill="#263238"/>
              </g>
            </g>
          </g>
          <g id="Group_7406" data-name="Group 7406" transform="translate(12.034 4.372)">
            <g id="Group_7405" data-name="Group 7405">
              <g id="Group_7404" data-name="Group 7404">
                <path id="Path_10009" data-name="Path 10009" d="M954.821,624.025c.108.019.334-1.032.926-2.194s1.291-1.974,1.212-2.051a5.574,5.574,0,0,0-2.137,4.245Z" transform="translate(-954.786 -619.775)" fill="#263238"/>
              </g>
            </g>
          </g>
          <g id="Group_7409" data-name="Group 7409" transform="translate(9.747 3.604)">
            <g id="Group_7408" data-name="Group 7408">
              <g id="Group_7407" data-name="Group 7407">
                <path id="Path_10010" data-name="Path 10010" d="M952.208,623.3a7.809,7.809,0,0,1,1.731-4.429,4.174,4.174,0,0,0-1.731,4.429Z" transform="translate(-952.06 -618.86)" fill="#263238"/>
              </g>
            </g>
          </g>
          <g id="Group_7412" data-name="Group 7412" transform="translate(8.525)">
            <g id="Group_7411" data-name="Group 7411">
              <g id="Group_7410" data-name="Group 7410">
                <path id="Path_10011" data-name="Path 10011" d="M952.368,619.732a3.952,3.952,0,0,0,.238-1.655,7.771,7.771,0,0,0-.225-1.813,7.683,7.683,0,0,0-.331-1.032,1.244,1.244,0,0,0-.357-.545.593.593,0,0,0-.764.038.98.98,0,0,0-.3.629,4.4,4.4,0,0,0-.029.588,4.955,4.955,0,0,0,.138,1.088,6.623,6.623,0,0,0,.685,1.7,4.46,4.46,0,0,0,1,1.338c.051-.035-.321-.553-.765-1.46a7.265,7.265,0,0,1-.583-1.653,4.858,4.858,0,0,1-.107-1.016c.01-.342.005-.77.2-.933a.216.216,0,0,1,.295-.025.937.937,0,0,1,.243.388,8.25,8.25,0,0,1,.337.982,8.935,8.935,0,0,1,.294,1.736C952.409,619.094,952.307,619.723,952.368,619.732Z" transform="translate(-950.604 -614.565)" fill="#263238"/>
              </g>
            </g>
          </g>
          <g id="Group_7415" data-name="Group 7415" transform="translate(5.812 4.71)">
            <g id="Group_7414" data-name="Group 7414">
              <g id="Group_7413" data-name="Group 7413">
                <path id="Path_10012" data-name="Path 10012" d="M951.82,620.409a3.123,3.123,0,0,0-1.434-.232,6.448,6.448,0,0,0-1.578.194,3.439,3.439,0,0,0-.909.335.939.939,0,0,0-.5,1.016,1.109,1.109,0,0,0,.8.794,2.043,2.043,0,0,0,1,0,3.85,3.85,0,0,0,1.445-.711,3.906,3.906,0,0,0,1.034-1.018,9.655,9.655,0,0,0-1.185.8,3.952,3.952,0,0,1-1.364.59,1.757,1.757,0,0,1-.825-.011.753.753,0,0,1-.541-.529.574.574,0,0,1,.33-.621,3.406,3.406,0,0,1,.807-.315,7.437,7.437,0,0,1,1.5-.261C951.266,620.379,951.811,620.468,951.82,620.409Z" transform="translate(-947.371 -620.177)" fill="#263238"/>
              </g>
            </g>
          </g>
          <g id="Group_7418" data-name="Group 7418" transform="translate(17.632 6.156)">
            <g id="Group_7417" data-name="Group 7417">
              <g id="Group_7416" data-name="Group 7416">
                <path id="Path_10013" data-name="Path 10013" d="M961.63,625.657a5.994,5.994,0,0,1,1.527-3.747,3.188,3.188,0,0,0-1.527,3.747Z" transform="translate(-961.457 -621.9)" fill="#263238"/>
              </g>
            </g>
          </g>
          <g id="Group_7421" data-name="Group 7421" transform="translate(2.287 10.933)">
            <g id="Group_7420" data-name="Group 7420">
              <g id="Group_7419" data-name="Group 7419">
                <path id="Path_10014" data-name="Path 10014" d="M943.171,627.6a4.658,4.658,0,0,0,.86.4,19.128,19.128,0,0,0,2.475.767,35.292,35.292,0,0,0,8.49.8c3.332-.037,6.335-.188,8.514-.275l2.577-.137a4.667,4.667,0,0,0,.943-.1,4.608,4.608,0,0,0-.948-.044l-2.58.018-8.507.166a39.716,39.716,0,0,1-8.431-.689C944.438,628.077,943.2,627.53,943.171,627.6Z" transform="translate(-943.171 -627.593)" fill="#263238"/>
              </g>
            </g>
          </g>
          <g id="Group_7424" data-name="Group 7424" transform="translate(1.629 9.555)">
            <g id="Group_7423" data-name="Group 7423">
              <g id="Group_7422" data-name="Group 7422">
                <path id="Path_10015" data-name="Path 10015" d="M942.387,627.842c.03.051.639-.3,1.667-.755a7.742,7.742,0,0,1,4.208-.7,6.666,6.666,0,0,1,3.637,2.163,13.042,13.042,0,0,0,1.282,1.309,6.894,6.894,0,0,0-1.088-1.487,8.8,8.8,0,0,0-1.475-1.38,5.287,5.287,0,0,0-2.3-.973,7.356,7.356,0,0,0-4.377.828A5.913,5.913,0,0,0,942.387,627.842Z" transform="translate(-942.386 -625.951)" fill="#263238"/>
              </g>
            </g>
          </g>
        </g>
        <g id="Group_7455" data-name="Group 7455" transform="translate(41.125 127.861)">
          <g id="Group_7427" data-name="Group 7427">
            <g id="Group_7426" data-name="Group 7426">
              <path id="Path_10016" data-name="Path 10016" d="M914.162,608.664s-21.044,13.778-21.8,14.349c-1.134.856.166,4.933,2.13,4.228.928-.334,18.587-5.246,20.486-5.985s7.01-4.906,7.01-4.906Z" transform="translate(-891.941 -608.664)" fill="#e8505b"/>
            </g>
          </g>
          <g id="Group_7430" data-name="Group 7430" transform="translate(12.191 7.43)">
            <g id="Group_7429" data-name="Group 7429">
              <g id="Group_7428" data-name="Group 7428">
                <path id="Path_10017" data-name="Path 10017" d="M910.249,620.986a4.937,4.937,0,0,0-3.779-3.45,9.735,9.735,0,0,1,3.779,3.45Z" transform="translate(-906.469 -617.519)" fill="#263238"/>
              </g>
            </g>
          </g>
          <g id="Group_7433" data-name="Group 7433" transform="translate(14.533 5.786)">
            <g id="Group_7432" data-name="Group 7432">
              <g id="Group_7431" data-name="Group 7431">
                <path id="Path_10018" data-name="Path 10018" d="M912.587,618.965a5.573,5.573,0,0,0-3.326-3.4c-.053.1.869.65,1.777,1.586S912.49,619.016,912.587,618.965Z" transform="translate(-909.259 -615.559)" fill="#263238"/>
              </g>
            </g>
          </g>
          <g id="Group_7436" data-name="Group 7436" transform="translate(16.759 4.268)">
            <g id="Group_7435" data-name="Group 7435">
              <g id="Group_7434" data-name="Group 7434">
                <path id="Path_10019" data-name="Path 10019" d="M914.91,617.459a4.173,4.173,0,0,0-2.995-3.694,14.94,14.94,0,0,1,1.786,1.613A15.17,15.17,0,0,1,914.91,617.459Z" transform="translate(-911.913 -613.75)" fill="#263238"/>
              </g>
            </g>
          </g>
          <g id="Group_7439" data-name="Group 7439" transform="translate(17.423 0.095)">
            <g id="Group_7438" data-name="Group 7438">
              <g id="Group_7437" data-name="Group 7437">
                <path id="Path_10020" data-name="Path 10020" d="M913.788,614.042c.055-.027-.232-.6-.476-1.575a8.907,8.907,0,0,1-.248-1.744,8.2,8.2,0,0,1,.023-1.037.936.936,0,0,1,.115-.444.216.216,0,0,1,.288-.066c.24.1.365.5.478.827a4.891,4.891,0,0,1,.206,1,7.322,7.322,0,0,1-.054,1.752c-.148,1-.345,1.606-.286,1.625a4.483,4.483,0,0,0,.546-1.579,6.633,6.633,0,0,0,.136-1.828,4.924,4.924,0,0,0-.2-1.078,4.343,4.343,0,0,0-.206-.551.98.98,0,0,0-.473-.509.593.593,0,0,0-.739.2,1.25,1.25,0,0,0-.174.628,7.651,7.651,0,0,0,0,1.083,7.779,7.779,0,0,0,.336,1.8A3.939,3.939,0,0,0,913.788,614.042Z" transform="translate(-912.704 -608.777)" fill="#263238"/>
              </g>
            </g>
          </g>
          <g id="Group_7442" data-name="Group 7442" transform="translate(18.464 4.171)">
            <g id="Group_7441" data-name="Group 7441">
              <g id="Group_7440" data-name="Group 7440">
                <path id="Path_10021" data-name="Path 10021" d="M913.946,614.6c.027.055.52-.2,1.368-.4a7.507,7.507,0,0,1,1.507-.206,3.4,3.4,0,0,1,.864.055.573.573,0,0,1,.5.491.752.752,0,0,1-.355.668,1.748,1.748,0,0,1-.783.262,3.944,3.944,0,0,1-1.479-.148,9.763,9.763,0,0,0-1.372-.4,3.911,3.911,0,0,0,1.294.656,3.829,3.829,0,0,0,1.593.238,2.022,2.022,0,0,0,.951-.3,1.108,1.108,0,0,0,.522-1,.937.937,0,0,0-.787-.816,3.487,3.487,0,0,0-.968-.043,6.466,6.466,0,0,0-1.562.295A3.121,3.121,0,0,0,913.946,614.6Z" transform="translate(-913.945 -613.635)" fill="#263238"/>
              </g>
            </g>
          </g>
          <g id="Group_7445" data-name="Group 7445" transform="translate(2.999 12.609)">
            <g id="Group_7444" data-name="Group 7444">
              <g id="Group_7443" data-name="Group 7443">
                <path id="Path_10022" data-name="Path 10022" d="M897.749,628.889c.024.033.354-.213.515-.816a3.109,3.109,0,0,0-.394-2.283,8.427,8.427,0,0,0-.7-1.051,3.856,3.856,0,0,0-.715-.767,1.246,1.246,0,0,0-.672-.281c-.176-.008-.266.035-.263.057a2,2,0,0,1,.765.425,4.759,4.759,0,0,1,.607.767,11.941,11.941,0,0,1,.656,1.028,3.252,3.252,0,0,1,.462,2.052C897.929,628.565,897.7,628.852,897.749,628.889Z" transform="translate(-895.515 -623.69)" fill="#263238"/>
              </g>
            </g>
          </g>
          <g id="Group_7448" data-name="Group 7448" transform="translate(10.193 9.036)">
            <g id="Group_7447" data-name="Group 7447">
              <g id="Group_7446" data-name="Group 7446">
                <path id="Path_10023" data-name="Path 10023" d="M906.683,622.559a3.19,3.19,0,0,0-2.593-3.106,6.011,6.011,0,0,1,2.593,3.106Z" transform="translate(-904.088 -619.432)" fill="#263238"/>
              </g>
            </g>
          </g>
          <g id="Group_7451" data-name="Group 7451" transform="translate(1.303 8.427)">
            <g id="Group_7450" data-name="Group 7450">
              <g id="Group_7449" data-name="Group 7449">
                <path id="Path_10024" data-name="Path 10024" d="M920.075,618.708a7.5,7.5,0,0,0-.926.634,26.406,26.406,0,0,1-2.594,1.59,34.155,34.155,0,0,1-4.122,1.834c-1.594.594-3.38,1.155-5.271,1.7-3.785,1.09-7.213,2.086-9.686,2.831l-2.924.9a6.608,6.608,0,0,0-1.059.378,6.4,6.4,0,0,0,1.1-.238l2.957-.784c2.492-.68,5.928-1.636,9.718-2.726,1.893-.55,3.688-1.123,5.287-1.74a30.908,30.908,0,0,0,4.127-1.925,20.749,20.749,0,0,0,2.554-1.7A5.869,5.869,0,0,0,920.075,618.708Z" transform="translate(-893.494 -618.706)" fill="#263238"/>
              </g>
            </g>
          </g>
          <g id="Group_7454" data-name="Group 7454" transform="translate(18.988 8.119)">
            <g id="Group_7453" data-name="Group 7453">
              <g id="Group_7452" data-name="Group 7452">
                <path id="Path_10025" data-name="Path 10025" d="M924.245,618.931a5.942,5.942,0,0,0-1.783-.474,7.362,7.362,0,0,0-4.423.54,5.289,5.289,0,0,0-1.893,1.625,8.83,8.83,0,0,0-.986,1.761,6.853,6.853,0,0,0-.585,1.748,13.058,13.058,0,0,0,.823-1.636,6.664,6.664,0,0,1,2.809-3.166,7.743,7.743,0,0,1,4.222-.612C923.544,618.836,924.232,618.99,924.245,618.931Z" transform="translate(-914.569 -618.339)" fill="#263238"/>
              </g>
            </g>
          </g>
        </g>
        <g id="Group_7470" data-name="Group 7470" transform="translate(47.204 93.13)">
          <g id="Group_7457" data-name="Group 7457">
            <g id="Group_7456" data-name="Group 7456">
              <path id="Path_10026" data-name="Path 10026" d="M959.059,568.4a10.077,10.077,0,0,1,6.339,9.333c.051,13.559-27.4,28.506-27.4,28.506l-36.526-24.2-2.289-.926S948.492,562.592,959.059,568.4Z" transform="translate(-899.186 -567.275)" fill="#263238"/>
            </g>
          </g>
          <g id="Group_7460" data-name="Group 7460" transform="translate(20.791 7.977)">
            <g id="Group_7459" data-name="Group 7459">
              <g id="Group_7458" data-name="Group 7458">
                <path id="Path_10027" data-name="Path 10027" d="M923.963,595.794a6.849,6.849,0,0,0,.952-.645c.6-.434,1.453-1.078,2.5-1.886,2.091-1.617,4.937-3.908,8-6.534s5.757-5.1,7.671-6.919c.957-.911,1.723-1.658,2.242-2.184a6.851,6.851,0,0,0,.782-.843,6.783,6.783,0,0,0-.882.738l-2.321,2.1c-1.959,1.771-4.677,4.2-7.734,6.829s-5.872,4.943-7.919,6.611l-2.423,1.978A6.654,6.654,0,0,0,923.963,595.794Z" transform="translate(-923.962 -576.781)" fill="#455a64"/>
              </g>
            </g>
          </g>
          <g id="Group_7463" data-name="Group 7463" transform="translate(42.91 6.105)">
            <g id="Group_7462" data-name="Group 7462">
              <g id="Group_7461" data-name="Group 7461">
                <path id="Path_10028" data-name="Path 10028" d="M956.973,574.641a9.054,9.054,0,0,0-6.649,1.963c.06.1,1.392-.752,3.235-1.286C955.4,574.766,956.975,574.756,956.973,574.641Z" transform="translate(-950.321 -574.55)" fill="#455a64"/>
              </g>
            </g>
          </g>
          <g id="Group_7466" data-name="Group 7466" transform="translate(43.095 4.05)">
            <g id="Group_7465" data-name="Group 7465">
              <g id="Group_7464" data-name="Group 7464">
                <path id="Path_10029" data-name="Path 10029" d="M953.862,572.111a5.551,5.551,0,0,0-3.3,4.088c.107.037.506-1.1,1.427-2.226C952.892,572.837,953.92,572.207,953.862,572.111Z" transform="translate(-950.542 -572.102)" fill="#455a64"/>
              </g>
            </g>
          </g>
          <g id="Group_7469" data-name="Group 7469" transform="translate(59.84 46.955)">
            <g id="Group_7468" data-name="Group 7468">
              <g id="Group_7467" data-name="Group 7467">
                <path id="Path_10030" data-name="Path 10030" d="M972.538,623.269c.019-.043-.436-.13-.941.286a3.415,3.415,0,0,0-1.056,2.12,4.162,4.162,0,0,0,.333,2.338c.259.555.543.815.575.789.049-.034-.15-.342-.331-.887a4.741,4.741,0,0,1-.209-2.188,3.668,3.668,0,0,1,.864-1.977C972.16,623.343,972.545,623.328,972.538,623.269Z" transform="translate(-970.497 -623.231)" fill="#263238"/>
              </g>
            </g>
          </g>
        </g>
        <g id="Group_7473" data-name="Group 7473" transform="translate(28.614 72.106)">
          <g id="Group_7471" data-name="Group 7471">
            <path id="Path_10031" data-name="Path 10031" d="M947.094,542.222,934.085,575.2l-56.016.913-1.037-3.03,19.631-.712,9.435-29.254Z" transform="translate(-877.033 -542.222)" fill="#455a64"/>
          </g>
          <g id="Group_7472" data-name="Group 7472" transform="translate(42.87 14)">
            <path id="Path_10032" data-name="Path 10032" d="M929.152,559.182a2.489,2.489,0,0,1,2.694.288,2.178,2.178,0,0,1,.528,2.386,2.361,2.361,0,0,1-2.024,1.413,2.126,2.126,0,0,1-2.139-1.413,2.389,2.389,0,0,1,.941-2.674" transform="translate(-928.12 -558.906)" fill="#ebebeb"/>
          </g>
        </g>
        <g id="Group_7479" data-name="Group 7479" transform="translate(9.199 96.205)">
          <g id="Group_7475" data-name="Group 7475">
            <g id="Group_7474" data-name="Group 7474">
              <path id="Path_10033" data-name="Path 10033" d="M934.174,608.478s-51.607-33.85-53.72-34.555-7.22-4.05-12.326-2.641-9.685,5.987-11.975,12.679c-1.308,3.822-1.926,10.346-2.216,15.237a22.608,22.608,0,0,0,5.291,16.118,14.418,14.418,0,0,0,6.435,4.568c.537.167,1.1.311,1.667.435A24.271,24.271,0,0,0,892.6,609.712l1.2-1.833s33.76,12.4,34.288,12.226Z" transform="translate(-853.895 -570.94)" fill="#263238"/>
            </g>
          </g>
          <g id="Group_7478" data-name="Group 7478" transform="translate(16.433 2.254)">
            <g id="Group_7477" data-name="Group 7477">
              <g id="Group_7476" data-name="Group 7476">
                <path id="Path_10034" data-name="Path 10034" d="M873.478,599.593s.094.048.283.125l.845.335,3.272,1.26,12.159,4.58c5.165,1.927,11.351,4.218,18.293,6.744s14.635,5.293,22.85,8.075l.149.05.074-.14c1.29-2.463,2.651-5.062,4.031-7.7L937.489,609l.08-.151-.143-.091L898.06,583.765l-11.825-7.459-3.211-2-.838-.513c-.19-.113-.292-.164-.292-.164s.089.071.273.195l.819.543,3.175,2.061,11.763,7.557,39.3,25.085-.064-.242c-.652,1.246-1.351,2.581-2.056,3.926l-4.029,7.7.222-.09c-8.211-2.773-15.908-5.531-22.856-8.033l-18.319-6.667-12.2-4.474-3.294-1.2-.857-.3C873.58,599.619,873.478,599.593,873.478,599.593Z" transform="translate(-873.478 -573.626)" fill="#455a64"/>
              </g>
            </g>
          </g>
        </g>
        <g id="Group_7597" data-name="Group 7597" transform="translate(19.377)">
          <g id="Group_7480" data-name="Group 7480" transform="translate(2.216)">
            <path id="Path_10035" data-name="Path 10035" d="M878.06,460.511c.879-2.379,2.825-3.412,5.29-4.009a7.911,7.911,0,0,1,7.077,1.823c1.251,1.145,2.168,2.729,3.712,3.43,2.544,1.154,5.8-.532,8.215.878a3.6,3.6,0,0,1-2.324,6.679c1.658.783,1.967,3.278.826,4.712a4.8,4.8,0,0,1-5.016,1.324,10.114,10.114,0,0,1-4.475-3.075c-1.246-1.344-2.337-2.836-3.686-4.077a7.867,7.867,0,0,0-4.865-2.309,7.2,7.2,0,0,0-6.07,3.687,18.442,18.442,0,0,0-2.15,7.072,30.5,30.5,0,0,1-1.583,7.254c-.111.269-.27.567-.556.628-.412.086-.713-.37-.879-.758a36.417,36.417,0,0,1-2.911-13.864c-.029-2.76.279-5.343,1.994-7.507s5.668-3.511,7.4-1.888" transform="translate(-868.666 -456.293)" fill="#263238"/>
          </g>
          <g id="Group_7577" data-name="Group 7577" transform="translate(1.919 3.251)">
            <g id="Group_7576" data-name="Group 7576">
              <g id="Group_7575" data-name="Group 7575">
                <g id="Group_7499" data-name="Group 7499">
                  <g id="Group_7498" data-name="Group 7498">
                    <g id="Group_7497" data-name="Group 7497">
                      <g id="Group_7488" data-name="Group 7488">
                        <g id="Group_7487" data-name="Group 7487">
                          <g id="Group_7486" data-name="Group 7486">
                            <g id="Group_7485" data-name="Group 7485">
                              <g id="Group_7484" data-name="Group 7484">
                                <g id="Group_7483" data-name="Group 7483">
                                  <g id="Group_7482" data-name="Group 7482">
                                    <g id="Group_7481" data-name="Group 7481">
                                      <path id="Path_10036" data-name="Path 10036" d="M872.184,472.149l-3.794,27.569a8.278,8.278,0,0,0,7.479,9.375h0a8.281,8.281,0,0,0,8.925-7.131c.284-2.075.525-3.806.567-4.017,0,0,7.109.305,8.572-6.571.706-3.323,1.605-10.286,2.345-16.595a13.1,13.1,0,0,0-10.446-14.36l-.665-.133C877.911,459.273,873,464.868,872.184,472.149Z" transform="translate(-868.312 -460.167)" fill="#ffbe9d"/>
                                    </g>
                                  </g>
                                </g>
                              </g>
                            </g>
                          </g>
                        </g>
                      </g>
                      <g id="Group_7496" data-name="Group 7496" transform="translate(8.604 33.331)">
                        <g id="Group_7495" data-name="Group 7495">
                          <g id="Group_7494" data-name="Group 7494">
                            <g id="Group_7493" data-name="Group 7493">
                              <g id="Group_7492" data-name="Group 7492">
                                <g id="Group_7491" data-name="Group 7491">
                                  <g id="Group_7490" data-name="Group 7490">
                                    <g id="Group_7489" data-name="Group 7489">
                                      <path id="Path_10037" data-name="Path 10037" d="M887.041,504.237a16.344,16.344,0,0,1-8.476-4.35s1.133,5.386,8.135,6.139Z" transform="translate(-878.565 -499.887)" fill="#eb996e"/>
                                    </g>
                                  </g>
                                </g>
                              </g>
                            </g>
                          </g>
                        </g>
                      </g>
                    </g>
                  </g>
                </g>
                <g id="Group_7574" data-name="Group 7574" transform="translate(11.475 10.43)">
                  <g id="Group_7573" data-name="Group 7573">
                    <g id="Group_7556" data-name="Group 7556" transform="translate(0 3.913)">
                      <g id="Group_7555" data-name="Group 7555">
                        <g id="Group_7554" data-name="Group 7554">
                          <g id="Group_7517" data-name="Group 7517" transform="translate(10.453 1.883)">
                            <g id="Group_7507" data-name="Group 7507" transform="translate(1.11 1.5)">
                              <g id="Group_7506" data-name="Group 7506">
                                <g id="Group_7505" data-name="Group 7505">
                                  <g id="Group_7504" data-name="Group 7504">
                                    <g id="Group_7503" data-name="Group 7503">
                                      <g id="Group_7502" data-name="Group 7502">
                                        <g id="Group_7501" data-name="Group 7501">
                                          <g id="Group_7500" data-name="Group 7500">
                                            <path id="Path_10038" data-name="Path 10038" d="M897.763,482.393a1,1,0,0,1-1.148.8.961.961,0,0,1-.837-1.091,1,1,0,0,1,1.147-.8A.961.961,0,0,1,897.763,482.393Z" transform="translate(-895.766 -481.291)" fill="#263238"/>
                                          </g>
                                        </g>
                                      </g>
                                    </g>
                                  </g>
                                </g>
                              </g>
                            </g>
                            <g id="Group_7516" data-name="Group 7516">
                              <g id="Group_7515" data-name="Group 7515">
                                <g id="Group_7514" data-name="Group 7514">
                                  <g id="Group_7513" data-name="Group 7513">
                                    <g id="Group_7512" data-name="Group 7512">
                                      <g id="Group_7511" data-name="Group 7511">
                                        <g id="Group_7510" data-name="Group 7510">
                                          <g id="Group_7509" data-name="Group 7509">
                                            <g id="Group_7508" data-name="Group 7508">
                                              <path id="Path_10039" data-name="Path 10039" d="M898.324,480.977c-.148.1-.783-.6-1.844-.806-1.056-.224-1.942.165-2.031.013-.045-.069.126-.275.514-.454a2.757,2.757,0,0,1,1.657-.17,2.644,2.644,0,0,1,1.435.8C898.332,480.677,898.4,480.931,898.324,480.977Z" transform="translate(-894.443 -479.504)" fill="#263238"/>
                                            </g>
                                          </g>
                                        </g>
                                      </g>
                                    </g>
                                  </g>
                                </g>
                              </g>
                            </g>
                          </g>
                          <g id="Group_7535" data-name="Group 7535">
                            <g id="Group_7525" data-name="Group 7525" transform="translate(1.102 1.667)">
                              <g id="Group_7524" data-name="Group 7524">
                                <g id="Group_7523" data-name="Group 7523">
                                  <g id="Group_7522" data-name="Group 7522">
                                    <g id="Group_7521" data-name="Group 7521">
                                      <g id="Group_7520" data-name="Group 7520">
                                        <g id="Group_7519" data-name="Group 7519">
                                          <g id="Group_7518" data-name="Group 7518">
                                            <path id="Path_10040" data-name="Path 10040" d="M885.3,480.348a1,1,0,0,1-1.147.8.959.959,0,0,1-.837-1.09,1,1,0,0,1,1.147-.8A.96.96,0,0,1,885.3,480.348Z" transform="translate(-883.299 -479.246)" fill="#263238"/>
                                          </g>
                                        </g>
                                      </g>
                                    </g>
                                  </g>
                                </g>
                              </g>
                            </g>
                            <g id="Group_7534" data-name="Group 7534">
                              <g id="Group_7533" data-name="Group 7533">
                                <g id="Group_7532" data-name="Group 7532">
                                  <g id="Group_7531" data-name="Group 7531">
                                    <g id="Group_7530" data-name="Group 7530">
                                      <g id="Group_7529" data-name="Group 7529">
                                        <g id="Group_7528" data-name="Group 7528">
                                          <g id="Group_7527" data-name="Group 7527">
                                            <g id="Group_7526" data-name="Group 7526">
                                              <path id="Path_10041" data-name="Path 10041" d="M885.868,478.733c-.148.1-.785-.6-1.844-.806-1.056-.224-1.943.165-2.032.013-.044-.069.125-.275.514-.454a2.76,2.76,0,0,1,1.658-.169,2.651,2.651,0,0,1,1.435.8C885.875,478.433,885.939,478.687,885.868,478.733Z" transform="translate(-881.986 -477.26)" fill="#263238"/>
                                            </g>
                                          </g>
                                        </g>
                                      </g>
                                    </g>
                                  </g>
                                </g>
                              </g>
                            </g>
                          </g>
                          <g id="Group_7544" data-name="Group 7544" transform="translate(6.157 1.174)">
                            <g id="Group_7543" data-name="Group 7543">
                              <g id="Group_7542" data-name="Group 7542">
                                <g id="Group_7541" data-name="Group 7541">
                                  <g id="Group_7540" data-name="Group 7540">
                                    <g id="Group_7539" data-name="Group 7539">
                                      <g id="Group_7538" data-name="Group 7538">
                                        <g id="Group_7537" data-name="Group 7537">
                                          <g id="Group_7536" data-name="Group 7536">
                                            <path id="Path_10042" data-name="Path 10042" d="M889.323,487.582a7.126,7.126,0,0,1,1.782.034c.276.026.543.023.625-.152a1.4,1.4,0,0,0-.02-.838q-.185-1.059-.389-2.22a35.986,35.986,0,0,1-.72-5.747,36.084,36.084,0,0,1,1.181,5.676q.185,1.164.352,2.225a1.6,1.6,0,0,1-.071,1.089.694.694,0,0,1-.524.307,1.866,1.866,0,0,1-.472-.029A7.021,7.021,0,0,1,889.323,487.582Z" transform="translate(-889.323 -478.659)" fill="#263238"/>
                                          </g>
                                        </g>
                                      </g>
                                    </g>
                                  </g>
                                </g>
                              </g>
                            </g>
                          </g>
                          <g id="Group_7553" data-name="Group 7553" transform="translate(2.566 10.206)">
                            <g id="Group_7552" data-name="Group 7552">
                              <g id="Group_7551" data-name="Group 7551">
                                <g id="Group_7550" data-name="Group 7550">
                                  <g id="Group_7549" data-name="Group 7549">
                                    <g id="Group_7548" data-name="Group 7548">
                                      <g id="Group_7547" data-name="Group 7547">
                                        <g id="Group_7546" data-name="Group 7546">
                                          <g id="Group_7545" data-name="Group 7545">
                                            <path id="Path_10043" data-name="Path 10043" d="M885.37,489.424c.174.024-.054,1.175.768,2.188s2.07,1.13,2.047,1.293c0,.076-.318.169-.838.08a2.921,2.921,0,0,1-1.722-1.014,2.544,2.544,0,0,1-.57-1.82C885.108,489.66,885.293,489.4,885.37,489.424Z" transform="translate(-885.044 -489.422)" fill="#263238"/>
                                          </g>
                                        </g>
                                      </g>
                                    </g>
                                  </g>
                                </g>
                              </g>
                            </g>
                          </g>
                        </g>
                      </g>
                    </g>
                    <g id="Group_7564" data-name="Group 7564" transform="translate(0.054)">
                      <g id="Group_7563" data-name="Group 7563">
                        <g id="Group_7562" data-name="Group 7562">
                          <g id="Group_7561" data-name="Group 7561">
                            <g id="Group_7560" data-name="Group 7560">
                              <g id="Group_7559" data-name="Group 7559">
                                <g id="Group_7558" data-name="Group 7558">
                                  <g id="Group_7557" data-name="Group 7557">
                                    <path id="Path_10044" data-name="Path 10044" d="M886.981,473.886c-.162.267-1.192-.081-2.465-.18-1.271-.124-2.345.039-2.459-.252-.049-.138.18-.374.641-.572a4.3,4.3,0,0,1,3.751.328C886.868,473.486,887.053,473.758,886.981,473.886Z" transform="translate(-882.05 -472.597)" fill="#263238"/>
                                  </g>
                                </g>
                              </g>
                            </g>
                          </g>
                        </g>
                      </g>
                    </g>
                    <g id="Group_7572" data-name="Group 7572" transform="translate(10.986 2.606)">
                      <g id="Group_7571" data-name="Group 7571">
                        <g id="Group_7570" data-name="Group 7570">
                          <g id="Group_7569" data-name="Group 7569">
                            <g id="Group_7568" data-name="Group 7568">
                              <g id="Group_7567" data-name="Group 7567">
                                <g id="Group_7566" data-name="Group 7566">
                                  <g id="Group_7565" data-name="Group 7565">
                                    <path id="Path_10045" data-name="Path 10045" d="M898.649,477.222c-.234.2-.915-.192-1.79-.379-.868-.218-1.652-.163-1.773-.448-.05-.138.114-.355.484-.518a2.648,2.648,0,0,1,2.872.666C898.7,476.852,898.755,477.12,898.649,477.222Z" transform="translate(-895.078 -475.702)" fill="#263238"/>
                                  </g>
                                </g>
                              </g>
                            </g>
                          </g>
                        </g>
                      </g>
                    </g>
                  </g>
                </g>
              </g>
            </g>
          </g>
          <g id="Group_7595" data-name="Group 7595" transform="translate(0 19.841)">
            <g id="Group_7585" data-name="Group 7585">
              <g id="Group_7584" data-name="Group 7584">
                <g id="Group_7583" data-name="Group 7583">
                  <g id="Group_7582" data-name="Group 7582">
                    <g id="Group_7581" data-name="Group 7581">
                      <g id="Group_7580" data-name="Group 7580">
                        <g id="Group_7579" data-name="Group 7579">
                          <g id="Group_7578" data-name="Group 7578">
                            <path id="Path_10046" data-name="Path 10046" d="M871.359,480.546c-.107-.075-4.457-2.347-5.248,2.4s4.134,4.559,4.165,4.424S871.359,480.546,871.359,480.546Z" transform="translate(-866.025 -479.937)" fill="#ffbe9d"/>
                          </g>
                        </g>
                      </g>
                    </g>
                  </g>
                </g>
              </g>
            </g>
            <g id="Group_7594" data-name="Group 7594" transform="translate(1.24 1.478)">
              <g id="Group_7593" data-name="Group 7593">
                <g id="Group_7592" data-name="Group 7592">
                  <g id="Group_7591" data-name="Group 7591">
                    <g id="Group_7590" data-name="Group 7590">
                      <g id="Group_7589" data-name="Group 7589">
                        <g id="Group_7588" data-name="Group 7588">
                          <g id="Group_7587" data-name="Group 7587">
                            <g id="Group_7586" data-name="Group 7586">
                              <path id="Path_10047" data-name="Path 10047" d="M869.364,485.611c-.018-.019-.092.044-.243.085a.838.838,0,0,1-.62-.091,2.072,2.072,0,0,1-.639-1.992,2.771,2.771,0,0,1,.428-1.144.971.971,0,0,1,.728-.531.427.427,0,0,1,.45.308c.042.144,0,.233.019.245s.115-.062.11-.264a.534.534,0,0,0-.138-.328.63.63,0,0,0-.436-.2,1.177,1.177,0,0,0-.986.592,2.838,2.838,0,0,0-.507,1.274,2.176,2.176,0,0,0,.864,2.25.9.9,0,0,0,.777,0C869.336,485.724,869.379,485.622,869.364,485.611Z" transform="translate(-867.503 -481.698)" fill="#eb996e"/>
                            </g>
                          </g>
                        </g>
                      </g>
                    </g>
                  </g>
                </g>
              </g>
            </g>
          </g>
          <g id="Group_7596" data-name="Group 7596" transform="translate(4.785 2.284)">
            <path id="Path_10048" data-name="Path 10048" d="M898.573,473.454a10.153,10.153,0,0,1-8.447-3.76c-1.393-1.757-2.278-4.059-4.25-5.126a5.716,5.716,0,0,0-4.4-.269,11.033,11.033,0,0,0-3.842,2.335c.632,3.769-1.045,7.5-2.679,10.957a1.912,1.912,0,0,1-.765.978c-.644.317-1.411-.185-1.8-.79a5.936,5.936,0,0,1-.665-3.328,19.772,19.772,0,0,1,1.573-7.636,13.456,13.456,0,0,1,4.958-5.937,12.751,12.751,0,0,1,9.433-1.562,15.662,15.662,0,0,1,8.27,4.964,9.175,9.175,0,0,1,2.228,3.912" transform="translate(-871.727 -459.015)" fill="#263238"/>
          </g>
        </g>
      </g>
      <g id="Group_7695" data-name="Group 7695" transform="translate(0 110.042)">
        <g id="Group_7686" data-name="Group 7686">
          <g id="Group_7601" data-name="Group 7601" transform="translate(8.335)">
            <g id="Group_7600" data-name="Group 7600">
              <g id="Group_7599" data-name="Group 7599">
                <path id="Path_10049" data-name="Path 10049" d="M673.791,586.655a1.763,1.763,0,0,1,.12-.288c.1-.2.223-.477.387-.825a20.772,20.772,0,0,0,1.136-3.3,29.14,29.14,0,0,0-.1-12.752,68.5,68.5,0,0,0-2.366-8.565c-1-3.04-2.163-6.266-3.113-9.752a37.75,37.75,0,0,1-1.537-11.213,43.9,43.9,0,0,1,2.61-11.865c1.288-3.947,2.621-7.8,3.02-11.685a17.811,17.811,0,0,0-2.142-10.791c-1.708-3.148-3.859-5.841-5.469-8.631a30.009,30.009,0,0,1-3.287-8.3,30.912,30.912,0,0,1-.208-12.856,23.92,23.92,0,0,1,1.342-4.54,1.7,1.7,0,0,1-.08.3c-.067.215-.157.5-.272.87a33.451,33.451,0,0,0-.833,3.4,31.319,31.319,0,0,0,.333,12.759,29.942,29.942,0,0,0,3.3,8.193c1.606,2.756,3.765,5.438,5.508,8.624a18.169,18.169,0,0,1,2.209,11.01c-.4,3.947-1.745,7.83-3.03,11.772a43.728,43.728,0,0,0-2.6,11.754,37.537,37.537,0,0,0,1.5,11.1c.934,3.47,2.084,6.7,3.072,9.744a67.506,67.506,0,0,1,2.326,8.616,28.806,28.806,0,0,1-.033,12.846,19.065,19.065,0,0,1-1.216,3.3l-.425.81A1.835,1.835,0,0,1,673.791,586.655Z" transform="translate(-662.269 -471.293)" fill="#263238"/>
              </g>
            </g>
          </g>
          <g id="Group_7607" data-name="Group 7607" transform="translate(13.683 11.762)">
            <g id="Group_7603" data-name="Group 7603">
              <g id="Group_7602" data-name="Group 7602">
                <path id="Path_10050" data-name="Path 10050" d="M669.551,501.993s-3.268-10.45,2.594-16.568a.362.362,0,0,1,.621.18C673.079,487.33,673.471,492.586,669.551,501.993Z" transform="translate(-668.643 -485.31)" fill="#e8505b"/>
              </g>
            </g>
            <g id="Group_7606" data-name="Group 7606" transform="translate(0.79 3.597)">
              <g id="Group_7605" data-name="Group 7605">
                <g id="Group_7604" data-name="Group 7604">
                  <path id="Path_10051" data-name="Path 10051" d="M671.66,489.6a9.6,9.6,0,0,1-.22,1.928l-.746,4.609c-.273,1.723-.52,3.281-.731,4.609a10.453,10.453,0,0,1-.347,1.907,8.13,8.13,0,0,1,.059-1.943c.108-1.193.319-2.836.615-4.639s.609-3.426.865-4.6A8.706,8.706,0,0,1,671.66,489.6Z" transform="translate(-669.584 -489.597)" fill="#263238"/>
                </g>
              </g>
            </g>
          </g>
          <g id="Group_7613" data-name="Group 7613" transform="translate(18.366 39.64)">
            <g id="Group_7609" data-name="Group 7609" transform="translate(0.063)">
              <g id="Group_7608" data-name="Group 7608">
                <path id="Path_10052" data-name="Path 10052" d="M674.3,531.982s2-10.765,10.041-13.431a.363.363,0,0,1,.465.45C684.275,520.672,682.163,525.5,674.3,531.982Z" transform="translate(-674.299 -518.531)" fill="#e8505b"/>
              </g>
            </g>
            <g id="Group_7612" data-name="Group 7612" transform="translate(0 2.798)">
              <g id="Group_7611" data-name="Group 7611">
                <g id="Group_7610" data-name="Group 7610">
                  <path id="Path_10053" data-name="Path 10053" d="M682.137,521.867a9.611,9.611,0,0,1-1.1,1.6l-2.814,3.725-2.8,3.732a10.512,10.512,0,0,1-1.2,1.524,8.039,8.039,0,0,1,.96-1.689c.654-1,1.608-2.358,2.713-3.813s2.142-2.744,2.914-3.658A8.737,8.737,0,0,1,682.137,521.867Z" transform="translate(-674.224 -521.865)" fill="#263238"/>
                </g>
              </g>
            </g>
          </g>
          <g id="Group_7619" data-name="Group 7619" transform="translate(16.169 64.258)">
            <g id="Group_7615" data-name="Group 7615" transform="translate(0.005)">
              <g id="Group_7614" data-name="Group 7614">
                <path id="Path_10054" data-name="Path 10054" d="M671.693,563.705s-1.213-10.88,5.708-15.768a.362.362,0,0,1,.575.295C677.954,549.985,677.336,555.22,671.693,563.705Z" transform="translate(-671.612 -547.868)" fill="#e8505b"/>
              </g>
            </g>
            <g id="Group_7618" data-name="Group 7618" transform="translate(0 3.364)">
              <g id="Group_7617" data-name="Group 7617">
                <g id="Group_7616" data-name="Group 7616">
                  <path id="Path_10055" data-name="Path 10055" d="M676.111,551.878a9.6,9.6,0,0,1-.584,1.85l-1.611,4.382-1.6,4.385a10.517,10.517,0,0,1-.7,1.807,8.116,8.116,0,0,1,.428-1.9c.334-1.151.854-2.724,1.489-4.437s1.252-3.247,1.726-4.347A8.689,8.689,0,0,1,676.111,551.878Z" transform="translate(-671.605 -551.877)" fill="#263238"/>
                </g>
              </g>
            </g>
          </g>
          <g id="Group_7625" data-name="Group 7625" transform="translate(22.231 91.642)">
            <g id="Group_7621" data-name="Group 7621" transform="translate(0.055)">
              <g id="Group_7620" data-name="Group 7620">
                <path id="Path_10056" data-name="Path 10056" d="M678.923,596.118s-.824-10.918,6.268-15.554a.362.362,0,0,1,.564.315C685.671,582.63,684.865,587.839,678.923,596.118Z" transform="translate(-678.894 -580.502)" fill="#e8505b"/>
              </g>
            </g>
            <g id="Group_7624" data-name="Group 7624" transform="translate(0 3.309)">
              <g id="Group_7623" data-name="Group 7623">
                <g id="Group_7622" data-name="Group 7622">
                  <path id="Path_10057" data-name="Path 10057" d="M683.775,584.446a9.653,9.653,0,0,1-.649,1.828l-1.767,4.321-1.753,4.325a10.593,10.593,0,0,1-.768,1.78,8.116,8.116,0,0,1,.5-1.879c.375-1.139.952-2.691,1.647-4.381s1.367-3.2,1.88-4.281A8.724,8.724,0,0,1,683.775,584.446Z" transform="translate(-678.829 -584.445)" fill="#263238"/>
                </g>
              </g>
            </g>
          </g>
          <g id="Group_7631" data-name="Group 7631" transform="translate(0 5.348)">
            <g id="Group_7627" data-name="Group 7627">
              <g id="Group_7626" data-name="Group 7626">
                <path id="Path_10058" data-name="Path 10058" d="M662.232,491.582s-9.7-5.068-9.9-13.539a.362.362,0,0,1,.566-.313C654.345,478.728,658.342,482.164,662.232,491.582Z" transform="translate(-652.337 -477.666)" fill="#e8505b"/>
              </g>
            </g>
            <g id="Group_7630" data-name="Group 7630" transform="translate(2.011 3.286)">
              <g id="Group_7629" data-name="Group 7629">
                <g id="Group_7628" data-name="Group 7628">
                  <path id="Path_10059" data-name="Path 10059" d="M654.737,481.583a9.647,9.647,0,0,1,1.209,1.518l2.737,3.783,2.745,3.774a10.555,10.555,0,0,1,1.106,1.592,8.075,8.075,0,0,1-1.333-1.413c-.769-.92-1.783-2.23-2.85-3.712s-2-2.851-2.642-3.859A8.736,8.736,0,0,1,654.737,481.583Z" transform="translate(-654.733 -481.582)" fill="#263238"/>
                </g>
              </g>
            </g>
          </g>
          <g id="Group_7637" data-name="Group 7637" transform="translate(9.615 28.393)">
            <g id="Group_7633" data-name="Group 7633">
              <g id="Group_7632" data-name="Group 7632">
                <path id="Path_10060" data-name="Path 10060" d="M674.5,518.441s-9.994-4.469-10.7-12.913a.363.363,0,0,1,.546-.347C665.843,506.089,670.042,509.276,674.5,518.441Z" transform="translate(-663.795 -505.129)" fill="#e8505b"/>
              </g>
            </g>
            <g id="Group_7636" data-name="Group 7636" transform="translate(2.186 3.18)">
              <g id="Group_7635" data-name="Group 7635">
                <g id="Group_7634" data-name="Group 7634">
                  <path id="Path_10061" data-name="Path 10061" d="M666.4,508.92a9.578,9.578,0,0,1,1.3,1.441l2.961,3.61,2.97,3.6a10.491,10.491,0,0,1,1.2,1.522,8.128,8.128,0,0,1-1.417-1.33c-.823-.871-1.915-2.116-3.07-3.533s-2.164-2.725-2.872-3.691A8.712,8.712,0,0,1,666.4,508.92Z" transform="translate(-666.401 -508.918)" fill="#263238"/>
                </g>
              </g>
            </g>
          </g>
          <g id="Group_7643" data-name="Group 7643" transform="translate(10.062 50.138)">
            <g id="Group_7639" data-name="Group 7639">
              <g id="Group_7638" data-name="Group 7638">
                <path id="Path_10062" data-name="Path 10062" d="M668.831,547.641s-6.862-8.532-3.643-16.369a.362.362,0,0,1,.644-.06C666.753,532.7,669.039,537.453,668.831,547.641Z" transform="translate(-664.328 -531.042)" fill="#e8505b"/>
              </g>
            </g>
            <g id="Group_7642" data-name="Group 7642" transform="translate(1.523 3.703)">
              <g id="Group_7641" data-name="Group 7641">
                <g id="Group_7640" data-name="Group 7640">
                  <path id="Path_10063" data-name="Path 10063" d="M666.16,535.455a9.569,9.569,0,0,1,.5,1.875c.286,1.315.621,2.858.992,4.562s.715,3.244,1,4.557a10.591,10.591,0,0,1,.375,1.9,8.009,8.009,0,0,1-.655-1.829c-.336-1.151-.741-2.757-1.124-4.543s-.686-3.412-.875-4.594A8.746,8.746,0,0,1,666.16,535.455Z" transform="translate(-666.143 -535.455)" fill="#263238"/>
                </g>
              </g>
            </g>
          </g>
          <g id="Group_7649" data-name="Group 7649" transform="translate(10.881 82.71)">
            <g id="Group_7645" data-name="Group 7645">
              <g id="Group_7644" data-name="Group 7644">
                <path id="Path_10064" data-name="Path 10064" d="M675.785,583.341s-9.918-4.636-10.48-13.091a.362.362,0,0,1,.551-.337C667.341,570.846,671.485,574.1,675.785,583.341Z" transform="translate(-665.304 -569.857)" fill="#e8505b"/>
              </g>
            </g>
            <g id="Group_7648" data-name="Group 7648" transform="translate(2.139 3.21)">
              <g id="Group_7647" data-name="Group 7647">
                <g id="Group_7646" data-name="Group 7646">
                  <path id="Path_10065" data-name="Path 10065" d="M667.856,573.684a9.757,9.757,0,0,1,1.275,1.463l2.9,3.659,2.909,3.65A10.565,10.565,0,0,1,676.114,584a8.063,8.063,0,0,1-1.395-1.353c-.808-.885-1.879-2.149-3.01-3.584s-2.118-2.761-2.81-3.738A8.636,8.636,0,0,1,667.856,573.684Z" transform="translate(-667.853 -573.682)" fill="#263238"/>
                </g>
              </g>
            </g>
          </g>
          <g id="Group_7685" data-name="Group 7685" transform="translate(18.935 50.659)">
            <g id="Group_7652" data-name="Group 7652" transform="translate(3.245 2.49)">
              <g id="Group_7651" data-name="Group 7651">
                <g id="Group_7650" data-name="Group 7650">
                  <path id="Path_10066" data-name="Path 10066" d="M697.706,534.63a.772.772,0,0,1,.013.241c0,.19-.01.42-.017.7-.029.658-.069,1.547-.117,2.655-.128,2.334-.306,5.588-.519,9.48v.009l0,.013a36.779,36.779,0,0,1-5.435,12.616c-1.989,3.141-4.072,6-5.87,8.652a61.388,61.388,0,0,0-4.4,7.274,30.891,30.891,0,0,0-2.058,5.338c-.175.655-.305,1.164-.381,1.513a2.726,2.726,0,0,1-.145.528,2.825,2.825,0,0,1,.065-.544c.049-.355.156-.873.307-1.536a28.153,28.153,0,0,1,1.953-5.424,58.034,58.034,0,0,1,4.349-7.358c1.785-2.674,3.858-5.534,5.835-8.659a37.3,37.3,0,0,0,5.437-12.465l0,.023c.274-3.889.5-7.139.666-9.471.09-1.106.161-1.992.215-2.648.028-.278.05-.507.07-.7A.814.814,0,0,1,697.706,534.63Z" transform="translate(-678.768 -534.63)" fill="#263238"/>
                </g>
              </g>
            </g>
            <g id="Group_7660" data-name="Group 7660" transform="translate(14.078 10.515)">
              <g id="Group_7654" data-name="Group 7654">
                <g id="Group_7653" data-name="Group 7653">
                  <path id="Path_10067" data-name="Path 10067" d="M693.877,561.068s4.2-10.11-1.083-16.734a.362.362,0,0,0-.634.122C691.691,546.146,690.825,551.345,693.877,561.068Z" transform="translate(-691.678 -544.193)" fill="#e8505b"/>
                </g>
              </g>
              <g id="Group_7657" data-name="Group 7657" transform="translate(1.404 3.665)">
                <g id="Group_7656" data-name="Group 7656">
                  <g id="Group_7655" data-name="Group 7655">
                    <path id="Path_10068" data-name="Path 10068" d="M693.381,548.561a8.677,8.677,0,0,1,.333,1.913c.148,1.187.315,2.833.446,4.655s.193,3.477.192,4.677a8.1,8.1,0,0,1-.117,1.939,10.445,10.445,0,0,1-.172-1.931c-.09-1.341-.195-2.915-.311-4.656s-.232-3.315-.325-4.657A9.626,9.626,0,0,1,693.381,548.561Z" transform="translate(-693.351 -548.561)" fill="#263238"/>
                  </g>
                </g>
              </g>
              <g id="Group_7659" data-name="Group 7659" opacity="0.3">
                <g id="Group_7658" data-name="Group 7658">
                  <path id="Path_10069" data-name="Path 10069" d="M693.877,561.068s4.2-10.11-1.083-16.734a.362.362,0,0,0-.634.122C691.691,546.146,690.825,551.345,693.877,561.068Z" transform="translate(-691.678 -544.193)"/>
                </g>
              </g>
            </g>
            <g id="Group_7668" data-name="Group 7668" transform="translate(0 35.045)">
              <g id="Group_7662" data-name="Group 7662">
                <g id="Group_7661" data-name="Group 7661">
                  <path id="Path_10070" data-name="Path 10070" d="M678.169,590.134s3.367-10.418-2.437-16.592a.362.362,0,0,0-.623.174C674.78,575.439,674.339,580.691,678.169,590.134Z" transform="translate(-674.901 -573.425)" fill="#e8505b"/>
                </g>
              </g>
              <g id="Group_7665" data-name="Group 7665" transform="translate(1.417 3.605)">
                <g id="Group_7664" data-name="Group 7664">
                  <g id="Group_7663" data-name="Group 7663">
                    <path id="Path_10071" data-name="Path 10071" d="M676.607,577.722a8.7,8.7,0,0,1,.487,1.88c.244,1.171.543,2.8.821,4.6s.474,3.45.571,4.645a8.11,8.11,0,0,1,.039,1.943,10.528,10.528,0,0,1-.328-1.91l-.687-4.615c-.263-1.725-.5-3.286-.7-4.616A9.618,9.618,0,0,1,676.607,577.722Z" transform="translate(-676.59 -577.722)" fill="#263238"/>
                  </g>
                </g>
              </g>
              <g id="Group_7667" data-name="Group 7667" opacity="0.3">
                <g id="Group_7666" data-name="Group 7666">
                  <path id="Path_10072" data-name="Path 10072" d="M678.169,590.134s3.367-10.418-2.437-16.592a.362.362,0,0,0-.623.174C674.78,575.439,674.339,580.691,678.169,590.134Z" transform="translate(-674.901 -573.425)"/>
                </g>
              </g>
            </g>
            <g id="Group_7676" data-name="Group 7676" transform="translate(21.627)">
              <g id="Group_7670" data-name="Group 7670">
                <g id="Group_7669" data-name="Group 7669">
                  <path id="Path_10073" data-name="Path 10073" d="M700.674,546.7s8.969-6.279,8.063-14.7a.362.362,0,0,0-.6-.237C706.835,532.931,703.315,536.854,700.674,546.7Z" transform="translate(-700.674 -531.662)" fill="#e8505b"/>
                </g>
              </g>
              <g id="Group_7672" data-name="Group 7672" opacity="0.3">
                <g id="Group_7671" data-name="Group 7671">
                  <path id="Path_10074" data-name="Path 10074" d="M700.674,546.7s8.969-6.279,8.063-14.7a.362.362,0,0,0-.6-.237C706.835,532.931,703.315,536.854,700.674,546.7Z" transform="translate(-700.674 -531.662)"/>
                </g>
              </g>
              <g id="Group_7675" data-name="Group 7675" transform="translate(0.083 3.475)">
                <g id="Group_7674" data-name="Group 7674">
                  <g id="Group_7673" data-name="Group 7673">
                    <path id="Path_10075" data-name="Path 10075" d="M707.131,535.8a8.743,8.743,0,0,1-.745,1.792c-.512,1.083-1.255,2.56-2.122,4.168s-1.7,3.038-2.346,4.049a8.064,8.064,0,0,1-1.14,1.573,10.627,10.627,0,0,1,.891-1.721l2.236-4.1,2.225-4.105A9.549,9.549,0,0,1,707.131,535.8Z" transform="translate(-700.773 -535.804)" fill="#263238"/>
                  </g>
                </g>
              </g>
            </g>
            <g id="Group_7684" data-name="Group 7684" transform="translate(6.884 31.285)">
              <g id="Group_7678" data-name="Group 7678">
                <g id="Group_7677" data-name="Group 7677">
                  <path id="Path_10076" data-name="Path 10076" d="M683.1,579.085s10.817-1.687,13.716-9.648a.362.362,0,0,0-.435-.478C694.7,569.441,689.811,571.413,683.1,579.085Z" transform="translate(-683.105 -568.945)" fill="#e8505b"/>
                </g>
              </g>
              <g id="Group_7680" data-name="Group 7680" opacity="0.3">
                <g id="Group_7679" data-name="Group 7679">
                  <path id="Path_10077" data-name="Path 10077" d="M683.1,579.085s10.817-1.687,13.716-9.648a.362.362,0,0,0-.435-.478C694.7,569.441,689.811,571.413,683.1,579.085Z" transform="translate(-683.105 -568.945)"/>
                </g>
              </g>
              <g id="Group_7683" data-name="Group 7683" transform="translate(0.066 2.598)">
                <g id="Group_7682" data-name="Group 7682">
                  <g id="Group_7681" data-name="Group 7681">
                    <path id="Path_10078" data-name="Path 10078" d="M693.991,572.044a8.761,8.761,0,0,1-1.459,1.281c-.936.746-2.253,1.745-3.74,2.807s-2.867,1.977-3.89,2.6a8.092,8.092,0,0,1-1.717.91,10.5,10.5,0,0,1,1.558-1.153l3.811-2.694,3.8-2.705A9.544,9.544,0,0,1,693.991,572.044Z" transform="translate(-683.184 -572.041)" fill="#263238"/>
                  </g>
                </g>
              </g>
            </g>
          </g>
        </g>
        <g id="Group_7688" data-name="Group 7688" transform="translate(12.344 111.993)">
          <g id="Group_7687" data-name="Group 7687">
            <path id="Path_10079" data-name="Path 10079" d="M670.2,604.753l-3.156,21.238h19.665l-2.549-21.238Z" transform="translate(-667.047 -604.753)" fill="#455a64"/>
          </g>
        </g>
        <g id="Group_7691" data-name="Group 7691" transform="translate(14.386 118.369)">
          <g id="Group_7690" data-name="Group 7690">
            <g id="Group_7689" data-name="Group 7689">
              <path id="Path_10080" data-name="Path 10080" d="M685.34,612.557a153.693,153.693,0,0,1-15.86,0,153.648,153.648,0,0,1,15.86,0Z" transform="translate(-669.48 -612.352)" fill="#263238"/>
            </g>
          </g>
        </g>
        <g id="Group_7694" data-name="Group 7694" transform="translate(14.256 120.059)">
          <g id="Group_7693" data-name="Group 7693">
            <g id="Group_7692" data-name="Group 7692">
              <path id="Path_10081" data-name="Path 10081" d="M685.705,614.571c0,.113-3.667.2-8.19.2s-8.19-.091-8.19-.2,3.666-.2,8.19-.2S685.705,614.458,685.705,614.571Z" transform="translate(-669.325 -614.366)" fill="#263238"/>
            </g>
          </g>
        </g>
      </g>
    </g>
  </g>
</svg>
