<svg id="Group_10286" data-name="Group 10286" xmlns="http://www.w3.org/2000/svg" width="15.342" height="17.47" viewBox="0 0 15.342 17.47">
  <g id="Group_7775" data-name="Group 7775" transform="translate(0)">
    <path id="Path_9427" data-name="Path 9427" d="M256.389,310.207H243.838c-.063,0-.125,0-.188,0-.159.012-.188.045-.181.2s.025.317.036.476c.082,1.173.189,2.343.287,3.515s.193,2.343.292,3.514c.087,1.024.176,2.048.253,3.073a1.984,1.984,0,0,0,.1.586,1.474,1.474,0,0,0,1.307,1.034h8.731a2.789,2.789,0,0,0,.415-.076,1.584,1.584,0,0,0,.966-1.307c.054-.451.079-.905.118-1.358q.081-.934.156-1.868c.05-.611.1-1.222.15-1.833.05-.634.1-1.268.158-1.9.051-.6.1-1.2.151-1.8.053-.628.11-1.256.153-1.885C256.772,310.208,256.763,310.207,256.389,310.207Zm-9,10.321a.482.482,0,0,1-.34-.447c-.061-.924-.116-1.849-.173-2.773q-.129-2.084-.26-4.167c-.026-.42-.055-.839-.077-1.259a.518.518,0,0,1,.487-.6c.307-.014.514.2.535.554q.162,2.62.328,5.239c.059.958.117,1.917.183,3.019A.493.493,0,0,1,247.387,320.527Zm3.238-.533a.511.511,0,0,1-.689.53.479.479,0,0,1-.331-.47q0-4.133,0-8.266a.5.5,0,0,1,.513-.505.513.513,0,0,1,.507.547q0,2.045,0,4.091T250.625,319.995Zm3.069-8.142c-.088,1.409-.175,2.776-.26,4.142q-.11,1.777-.217,3.554c-.01.17-.021.34-.033.51a.512.512,0,0,1-.537.5.5.5,0,0,1-.482-.534c.029-.624.072-1.247.111-1.871q.094-1.505.19-3.01c.07-1.122.137-2.245.208-3.367a.521.521,0,0,1,.547-.493A.51.51,0,0,1,253.693,311.853Z" transform="translate(-242.441 -305.137)" fill="#db3131"/>
    <path id="Path_9428" data-name="Path 9428" d="M250.265,275.328c-.864-.006-1.728,0-2.591,0-.141,0-.325.047-.411-.024s-.018-.265-.029-.406c0-.028,0-.057,0-.085a1.525,1.525,0,0,0-1.531-1.527c-1.364-.015-2.728-.011-4.091,0a1.5,1.5,0,0,0-1.479,1.135,2.64,2.64,0,0,0-.059.795c0,.085-.016.121-.111.115-.147-.009-.3,0-.443,0-.829,0-1.659-.005-2.489,0a1.02,1.02,0,0,0-1.008,1.309,1.033,1.033,0,0,0,1.063.735h12.342c.29,0,.579,0,.869,0a1.022,1.022,0,1,0-.032-2.043Zm-4.082-.028c-.075.088-.266.025-.406.026-.71,0-1.419,0-2.129,0-.8,0-1.6,0-2.4,0-.129,0-.17-.031-.155-.158a3.041,3.041,0,0,0,0-.306.517.517,0,0,1,.561-.561c.721,0,1.442,0,2.163,0q.9,0,1.805,0a.523.523,0,0,1,.586.587C246.21,275.031,246.255,275.217,246.183,275.3Z" transform="translate(-235.98 -273.275)" fill="#db3131"/>
  </g>
</svg>
