<svg xmlns="http://www.w3.org/2000/svg" width="45" height="45" viewBox="0 0 45 45">
  <g id="upload-svgrepo-com_1_" data-name="upload-svgrepo-com (1)" transform="translate(0 -0.8)">
    <g id="Group_10211" data-name="Group 10211" transform="translate(0 0.8)">
      <path id="Path_11653" data-name="Path 11653" d="M44.558,185.7l-6.4-9.966a2.671,2.671,0,0,0-2.248-1.234H33.077a.52.52,0,0,0-.433.807l6.91,10.764a.21.21,0,0,1-.175.325H31.511a.536.536,0,0,0-.525.51,8.507,8.507,0,0,1-16.99,0,.529.529,0,0,0-.525-.51H5.611a.213.213,0,0,1-.175-.325l6.91-10.764a.524.524,0,0,0-.433-.807H9.085a2.671,2.671,0,0,0-2.248,1.234L.442,185.7A2.814,2.814,0,0,0,0,187.212v13.881a2.455,2.455,0,0,0,2.442,2.459H42.558A2.455,2.455,0,0,0,45,201.093V187.212A2.759,2.759,0,0,0,44.558,185.7Z" transform="translate(0 -158.552)" fill="#737373"/>
      <path id="Path_11654" data-name="Path 11654" d="M175.8,1.162a.952.952,0,0,0-1.494,0l-6.115,7.776a.952.952,0,0,0,.742,1.54h2.413V25.166a3.711,3.711,0,0,0,3.712,3.712h0a3.711,3.711,0,0,0,3.712-3.712v-14.7h2.413a.952.952,0,0,0,.742-1.54Z" transform="translate(-152.553 -0.8)" fill="#737373"/>
    </g>
  </g>
</svg>
