<svg xmlns="http://www.w3.org/2000/svg" width="56.843" height="56.843" viewBox="0 0 56.843 56.843">
  <g id="Group_10155" data-name="Group 10155" transform="translate(-4 -4)">
    <path id="Path_11503" data-name="Path 11503" d="M18.211,4H46.632v7.095h7.105V4a7.106,7.106,0,0,1,7.105,7.105V53.737a7.106,7.106,0,0,1-7.105,7.105V53.727H46.632v7.116H18.211V53.727H11.105v7.116A7.1,7.1,0,0,1,4,53.737V11.105A7.1,7.1,0,0,1,11.105,4v7.095h7.105Zm9.07,37.878L40.069,33.13l-12.788-8.9Zm26.457,4.744V35.963H46.632V46.621Zm0-17.763V18.2H46.632V28.858ZM18.211,46.621V35.963H11.105V46.621Zm0-17.763V18.2H11.105V28.858Z" fill="#737373"/>
  </g>
</svg>
