<svg xmlns="http://www.w3.org/2000/svg" width="18.489" height="18.511" viewBox="0 0 18.489 18.511" fill="#fff">
  <g id="View_Details" data-name="View Details" transform="translate(-1220.198 -750.745)">
    <path id="Path_9339" data-name="Path 9339" d="M734.042,107.19a.375.375,0,0,1,.368-.348.369.369,0,0,1,.348.365.361.361,0,0,1-.375.352A.366.366,0,0,1,734.042,107.19Z" transform="translate(488.151 649.036)"/>
    <path id="Path_9340" data-name="Path 9340" d="M737.824,125.93c0,.234-.173.362-.5.362h-1.39c-.493,0-.986.005-1.479,0-.3,0-.478-.228-.385-.479a.319.319,0,0,1,.257-.223,1.642,1.642,0,0,1,.215-.017c.927,0,1.853,0,2.778,0C737.649,125.57,737.823,125.7,737.824,125.93Z" transform="translate(488.149 640.319)"/>
    <path id="Path_9341" data-name="Path 9341" d="M734.069,116.444a.369.369,0,0,1,.387-.236c.524,0,1.045,0,1.569,0s1.045,0,1.568,0a.379.379,0,0,1,.383.215.349.349,0,0,1-.211.48.625.625,0,0,1-.177.027c-1.04,0-2.079,0-3.119,0C734.155,116.93,733.973,116.7,734.069,116.444Z" transform="translate(488.15 644.676)"/>
    <path id="Path_9342" data-name="Path 9342" d="M738.225,111.877c.006.242-.167.366-.512.368h-3.189a.59.59,0,0,1-.265-.036.341.341,0,0,1-.21-.362.325.325,0,0,1,.282-.306,1.311,1.311,0,0,1,.215-.017q1.584,0,3.172,0C738.052,111.521,738.219,111.641,738.225,111.877Z" transform="translate(488.148 646.858)"/>
    <path id="Path_9343" data-name="Path 9343" d="M743.261,125.943a.359.359,0,1,1-.367-.358A.361.361,0,0,1,743.261,125.943Z" transform="translate(484.194 640.312)"/>
    <path id="Path_9344" data-name="Path 9344" d="M743.022,107.224a.354.354,0,0,1-.344.331c-.257.009-.516,0-.775,0h-4.561c-.27,0-.427-.135-.428-.356a.354.354,0,0,1,.316-.358,1.337,1.337,0,0,1,.2-.007h5.085a1.143,1.143,0,0,1,.215.013A.359.359,0,0,1,743.022,107.224Z" transform="translate(486.814 649.038)"/>
    <path id="Path_9345" data-name="Path 9345" d="M734.041,102.5a.356.356,0,0,1,.326-.329c.137-.011.276-.007.415-.007h6.406a1.153,1.153,0,0,1,.215.013.358.358,0,0,1,.284.331.351.351,0,0,1-.257.351.956.956,0,0,1-.23.027q-3.338,0-6.678,0a.815.815,0,0,1-.194-.021A.352.352,0,0,1,734.041,102.5Z" transform="translate(488.152 651.214)"/>
    <path id="Path_9346" data-name="Path 9346" d="M741.658,106.817a.38.38,0,0,0-.474.324c-.021.211.137.367.4.39a.933.933,0,0,1,.543.219.946.946,0,0,1,.32.682.365.365,0,0,0,.375.36.373.373,0,0,0,.343-.392A1.631,1.631,0,0,0,741.658,106.817Zm0,0a.38.38,0,0,0-.474.324c-.021.211.137.367.4.39a.933.933,0,0,1,.543.219.946.946,0,0,1,.32.682.365.365,0,0,0,.375.36.373.373,0,0,0,.343-.392A1.631,1.631,0,0,0,741.658,106.817Zm-.106-1.561a3.176,3.176,0,1,0,3.166,3.171A3.187,3.187,0,0,0,741.552,105.257Zm-.013,5.631A2.455,2.455,0,1,1,744,108.436,2.466,2.466,0,0,1,741.538,110.888Zm.12-4.071a.38.38,0,0,0-.474.324c-.021.211.137.367.4.39a.933.933,0,0,1,.543.219.946.946,0,0,1,.32.682.365.365,0,0,0,.375.36.373.373,0,0,0,.343-.392A1.631,1.631,0,0,0,741.658,106.817Zm-.106-1.561a3.176,3.176,0,1,0,3.166,3.171A3.187,3.187,0,0,0,741.552,105.257Zm-.013,5.631A2.455,2.455,0,1,1,744,108.436,2.466,2.466,0,0,1,741.538,110.888Zm.12-4.071a.38.38,0,0,0-.474.324c-.021.211.137.367.4.39a.933.933,0,0,1,.543.219.946.946,0,0,1,.32.682.365.365,0,0,0,.375.36.373.373,0,0,0,.343-.392A1.631,1.631,0,0,0,741.658,106.817Zm6.823,6.77c-.891-.887-1.778-1.778-2.669-2.664a.242.242,0,0,1-.057-.329,4.655,4.655,0,0,0,.462-2.924,4.723,4.723,0,0,0-1.1-2.338.559.559,0,0,1-.139-.392c0-1.2,0-2.395.006-3.593a.861.861,0,0,0-.268-.659q-1.62-1.61-3.231-3.229a.7.7,0,0,0-.379-.221H731.25a1.259,1.259,0,0,0-.442.135,1.122,1.122,0,0,0-.5.965q0,8.133,0,16.262a1.055,1.055,0,0,0,1.148,1.14h12.384a1.056,1.056,0,0,0,.636-.156,1.144,1.144,0,0,0,.508-.948c.01-.265,0-.529,0-.794,0-.042-.026-.1.033-.123a.775.775,0,0,1,.135.122c.51.51,1.022,1.02,1.53,1.533a1.2,1.2,0,0,0,.76.367,1.144,1.144,0,0,0,1.35-.919v-.649A.962.962,0,0,0,748.481,113.587ZM741.4,98.521l2.254,2.254c-.021.026-.072,0-.116,0q-.836,0-1.673,0c-.335,0-.465-.128-.465-.453C741.4,99.722,741.4,99.119,741.4,98.521Zm2.815,16.009c0,.346-.126.474-.465.474h-12.22c-.329,0-.459-.131-.459-.462V98.424c0-.329.131-.461.459-.461q4.5,0,8.99,0c.149,0,.16.05.16.172-.005.71,0,1.42,0,2.13a1.111,1.111,0,0,0,1.249,1.239c.7,0,1.409,0,2.113,0,.129,0,.183.017.181.169-.008.956,0,1.913,0,2.882a4.737,4.737,0,0,0-7.16,5.328H733.87c-.385,0-.769,0-1.156,0-.3.005-.478.236-.383.485a.36.36,0,0,0,.369.236c.386,0,.771,0,1.156,0,1.136,0,2.275,0,3.411,0a.162.162,0,0,1,.166.1,4.624,4.624,0,0,0,3.392,2.37,4.492,4.492,0,0,0,2.9-.485.207.207,0,0,1,.288.042.593.593,0,0,1,.21.5C744.2,113.591,744.213,114.061,744.213,114.53Zm-2.669-2.126a3.97,3.97,0,1,1,3.969-3.973A3.982,3.982,0,0,1,741.544,112.4Zm6.3,2.539a.479.479,0,0,1-.525-.038.973.973,0,0,1-.147-.133c-.855-.855-1.707-1.713-2.568-2.563-.1-.1-.1-.156.011-.242a3.308,3.308,0,0,0,.495-.5c.053-.063.088-.1.166-.016q1.337,1.345,2.679,2.681a.539.539,0,0,1,.16.386A.5.5,0,0,1,747.843,114.943Zm-6.292-9.686a3.176,3.176,0,1,0,3.166,3.171A3.187,3.187,0,0,0,741.552,105.257Zm-.013,5.631A2.455,2.455,0,1,1,744,108.436,2.466,2.466,0,0,1,741.538,110.888Zm.12-4.071a.38.38,0,0,0-.474.324c-.021.211.137.367.4.39a.933.933,0,0,1,.543.219.946.946,0,0,1,.32.682.365.365,0,0,0,.375.36.373.373,0,0,0,.343-.392A1.631,1.631,0,0,0,741.658,106.817Zm0,0a.38.38,0,0,0-.474.324c-.021.211.137.367.4.39a.933.933,0,0,1,.543.219.946.946,0,0,1,.32.682.365.365,0,0,0,.375.36.373.373,0,0,0,.343-.392A1.631,1.631,0,0,0,741.658,106.817Zm0,0a.38.38,0,0,0-.474.324c-.021.211.137.367.4.39a.933.933,0,0,1,.543.219.946.946,0,0,1,.32.682.365.365,0,0,0,.375.36.373.373,0,0,0,.343-.392A1.631,1.631,0,0,0,741.658,106.817Z" transform="translate(489.888 653.505)"/>
    <path id="Path_9347" data-name="Path 9347" d="M734.042,107.19a.375.375,0,0,1,.368-.348.369.369,0,0,1,.348.365.361.361,0,0,1-.375.352A.366.366,0,0,1,734.042,107.19Z" transform="translate(488.151 649.036)"/>
    <path id="Path_9348" data-name="Path 9348" d="M737.824,125.93c0,.234-.173.362-.5.362h-1.39c-.493,0-.986.005-1.479,0-.3,0-.478-.228-.385-.479a.319.319,0,0,1,.257-.223,1.642,1.642,0,0,1,.215-.017c.927,0,1.853,0,2.778,0C737.649,125.57,737.823,125.7,737.824,125.93Z" transform="translate(488.149 640.319)"/>
    <path id="Path_9349" data-name="Path 9349" d="M737.976,116.423a.349.349,0,0,1-.211.48.625.625,0,0,1-.177.027c-1.04,0-2.079,0-3.119,0-.314,0-.5-.229-.4-.485a.369.369,0,0,1,.387-.236c.524,0,1.045,0,1.569,0s1.045,0,1.568,0A.379.379,0,0,1,737.976,116.423Z" transform="translate(488.15 644.676)"/>
    <path id="Path_9350" data-name="Path 9350" d="M738.225,111.877c.006.242-.167.366-.512.368h-3.189a.59.59,0,0,1-.265-.036.341.341,0,0,1-.21-.362.325.325,0,0,1,.282-.306,1.311,1.311,0,0,1,.215-.017q1.584,0,3.172,0C738.052,111.521,738.219,111.641,738.225,111.877Z" transform="translate(488.148 646.858)"/>
    <path id="Path_9351" data-name="Path 9351" d="M743.261,125.943a.359.359,0,1,1-.367-.358A.361.361,0,0,1,743.261,125.943Z" transform="translate(484.194 640.312)"/>
    <path id="Path_9352" data-name="Path 9352" d="M743.022,107.224a.354.354,0,0,1-.344.331c-.257.009-.516,0-.775,0h-4.561c-.27,0-.427-.135-.428-.356a.354.354,0,0,1,.316-.358,1.337,1.337,0,0,1,.2-.007h5.085a1.143,1.143,0,0,1,.215.013A.359.359,0,0,1,743.022,107.224Z" transform="translate(486.814 649.038)"/>
    <path id="Path_9353" data-name="Path 9353" d="M734.041,102.5a.356.356,0,0,1,.326-.329c.137-.011.276-.007.415-.007h6.406a1.153,1.153,0,0,1,.215.013.358.358,0,0,1,.284.331.351.351,0,0,1-.257.351.956.956,0,0,1-.23.027q-3.338,0-6.678,0a.815.815,0,0,1-.194-.021A.352.352,0,0,1,734.041,102.5Z" transform="translate(488.152 651.214)"/>
    <path id="Path_9354" data-name="Path 9354" d="M752.631,116.735a.373.373,0,0,1-.343.392.365.365,0,0,1-.375-.36.945.945,0,0,0-.32-.682.934.934,0,0,0-.543-.219c-.263-.023-.421-.179-.4-.39a.38.38,0,0,1,.474-.324A1.631,1.631,0,0,1,752.631,116.735Z" transform="translate(480.421 645.169)"/>
    <path id="Path_9355" data-name="Path 9355" d="M748.565,112.237a3.176,3.176,0,1,0,3.166,3.171A3.187,3.187,0,0,0,748.565,112.237Zm-.013,5.631a2.455,2.455,0,1,1,2.458-2.452A2.466,2.466,0,0,1,748.552,117.868Z" transform="translate(482.874 646.524)"/>
    <path id="Path_9356" data-name="Path 9356" d="M741.687,102.506a.351.351,0,0,1-.257.351.956.956,0,0,1-.23.027q-3.338,0-6.678,0a.815.815,0,0,1-.194-.021.352.352,0,0,1-.286-.363.356.356,0,0,1,.326-.329c.137-.011.276-.007.415-.007h6.406a1.153,1.153,0,0,1,.215.013A.358.358,0,0,1,741.687,102.506Z" transform="translate(488.152 651.214)"/>
    <path id="Path_9357" data-name="Path 9357" d="M743.022,107.224a.354.354,0,0,1-.344.331c-.257.009-.516,0-.775,0h-4.561c-.27,0-.427-.135-.428-.356a.354.354,0,0,1,.316-.358,1.337,1.337,0,0,1,.2-.007h5.085a1.143,1.143,0,0,1,.215.013A.359.359,0,0,1,743.022,107.224Z" transform="translate(486.814 649.038)"/>
    <path id="Path_9358" data-name="Path 9358" d="M738.225,111.877c.006.242-.167.366-.512.368h-3.189a.59.59,0,0,1-.265-.036.341.341,0,0,1-.21-.362.325.325,0,0,1,.282-.306,1.311,1.311,0,0,1,.215-.017q1.584,0,3.172,0C738.052,111.521,738.219,111.641,738.225,111.877Z" transform="translate(488.148 646.858)"/>
    <path id="Path_9359" data-name="Path 9359" d="M737.765,116.9a.625.625,0,0,1-.177.027c-1.04,0-2.079,0-3.119,0-.314,0-.5-.229-.4-.485a.369.369,0,0,1,.387-.236c.524,0,1.045,0,1.569,0s1.045,0,1.568,0a.379.379,0,0,1,.383.215A.349.349,0,0,1,737.765,116.9Z" transform="translate(488.15 644.676)"/>
    <path id="Path_9360" data-name="Path 9360" d="M737.824,125.93c0,.234-.173.362-.5.362h-1.39c-.493,0-.986.005-1.479,0-.3,0-.478-.228-.385-.479a.319.319,0,0,1,.257-.223,1.642,1.642,0,0,1,.215-.017c.927,0,1.853,0,2.778,0C737.649,125.57,737.823,125.7,737.824,125.93Z" transform="translate(488.149 640.319)"/>
    <path id="Path_9361" data-name="Path 9361" d="M734.757,107.207a.361.361,0,0,1-.375.352.366.366,0,0,1-.341-.369.375.375,0,0,1,.368-.348A.369.369,0,0,1,734.757,107.207Z" transform="translate(488.151 649.036)"/>
    <path id="Path_9362" data-name="Path 9362" d="M743.261,125.943a.359.359,0,1,1-.367-.358A.361.361,0,0,1,743.261,125.943Z" transform="translate(484.194 640.312)"/>
    <path id="Path_9363" data-name="Path 9363" d="M752.631,116.735a.373.373,0,0,1-.343.392.365.365,0,0,1-.375-.36.945.945,0,0,0-.32-.682.934.934,0,0,0-.543-.219c-.263-.023-.421-.179-.4-.39a.38.38,0,0,1,.474-.324A1.631,1.631,0,0,1,752.631,116.735Z" transform="translate(480.421 645.169)"/>
    <path id="Path_9364" data-name="Path 9364" d="M748.565,112.237a3.176,3.176,0,1,0,3.166,3.171A3.187,3.187,0,0,0,748.565,112.237Zm-.013,5.631a2.455,2.455,0,1,1,2.458-2.452A2.466,2.466,0,0,1,748.552,117.868Z" transform="translate(482.874 646.524)"/>
    <path id="Path_9365" data-name="Path 9365" d="M752.631,116.735a.373.373,0,0,1-.343.392.365.365,0,0,1-.375-.36.945.945,0,0,0-.32-.682.934.934,0,0,0-.543-.219c-.263-.023-.421-.179-.4-.39a.38.38,0,0,1,.474-.324A1.631,1.631,0,0,1,752.631,116.735Z" transform="translate(480.421 645.169)"/>
    <path id="Path_9366" data-name="Path 9366" d="M752.631,116.735a.373.373,0,0,1-.343.392.365.365,0,0,1-.375-.36.945.945,0,0,0-.32-.682.934.934,0,0,0-.543-.219c-.263-.023-.421-.179-.4-.39a.38.38,0,0,1,.474-.324A1.631,1.631,0,0,1,752.631,116.735Z" transform="translate(480.421 645.169)"/>
  </g>
</svg>
