<svg xmlns="http://www.w3.org/2000/svg" width="35.002" height="56.843" viewBox="0 0 35.002 56.843">
  <g id="voice-recording-mic-svgrepo-com" transform="translate(-98.365)">
    <g id="Group_10158" data-name="Group 10158" transform="translate(111.877 13.666)">
      <g id="Group_10157" data-name="Group 10157" transform="translate(0)">
        <path id="Path_11504" data-name="Path 11504" d="M221.529,123.1h-.257a1.2,1.2,0,0,0,0,2.409h.257a1.2,1.2,0,0,0,0-2.409Z" transform="translate(-220.068 -123.097)" fill="#737373"/>
      </g>
    </g>
    <g id="Group_10160" data-name="Group 10160" transform="translate(98.365)">
      <g id="Group_10159" data-name="Group 10159" transform="translate(0)">
        <path id="Path_11505" data-name="Path 11505" d="M127.409,49.681h-8.076V39.862h1.323a1.2,1.2,0,1,0,0-2.409h-1.323V34.672h2.141a6.758,6.758,0,0,0,6.75-6.751V6.751A6.758,6.758,0,0,0,121.474,0H110.257a6.759,6.759,0,0,0-6.751,6.751V27.921a6.759,6.759,0,0,0,6.751,6.751H112.4v2.782h-1.134a1.2,1.2,0,1,0,0,2.409H112.4v9.819h-8.076a5.957,5.957,0,0,0-5.958,5.958,1.2,1.2,0,0,0,1.2,1.2h32.593a1.2,1.2,0,0,0,1.2-1.2A5.964,5.964,0,0,0,127.409,49.681ZM111.264,28.052a1.2,1.2,0,0,0-1.2,1.2v3a4.348,4.348,0,0,1-4.145-4.338V25.934h7.423a1.2,1.2,0,1,0,0-2.409h-7.423V21h7.423a1.2,1.2,0,1,0,0-2.409h-7.423V16.075h3.674a1.2,1.2,0,1,0,0-2.409h-3.674V11.146h7.423a1.2,1.2,0,1,0,0-2.409h-7.423V6.751a4.348,4.348,0,0,1,4.145-4.338v3a1.2,1.2,0,0,0,2.409,0V2.409h2.193V5.416a1.2,1.2,0,0,0,2.409,0V2.409h2.382V5.416a1.2,1.2,0,0,0,2.409,0V2.427a4.347,4.347,0,0,1,3.955,4.325V8.737h-7.423a1.2,1.2,0,1,0,0,2.409h7.423v2.521h-7.423a1.2,1.2,0,1,0,0,2.409h7.423V18.6h-7.423a1.2,1.2,0,1,0,0,2.409h7.423v2.521h-7.423a1.2,1.2,0,1,0,0,2.409h7.423V27.92a4.348,4.348,0,0,1-3.955,4.325V29.256a1.2,1.2,0,0,0-2.409,0v3.007H117.07V29.256a1.2,1.2,0,0,0-2.409,0v3.007h-2.193V29.256A1.2,1.2,0,0,0,111.264,28.052Zm3.543,9.4V34.672h2.117v2.782Zm2.117,2.409v9.819h-2.117V39.862ZM100.982,54.434a3.555,3.555,0,0,1,3.34-2.345h23.087a3.555,3.555,0,0,1,3.339,2.345Z" transform="translate(-98.365 0)" fill="#737373"/>
      </g>
    </g>
  </g>
</svg>
