<svg xmlns="http://www.w3.org/2000/svg" width="98.961" height="98.956" viewBox="0 0 98.961 98.956">
  <g id="Group_9901" data-name="Group 9901" transform="translate(-729.307 -636.75)">
    <path id="Path_11315" data-name="Path 11315" d="M828.267,691.1v.775a.248.248,0,0,0,0,.386v1.158a47.512,47.512,0,0,1-.9,6.553,46.99,46.99,0,0,1-6.784,15.55c-.933,1.385-1.672,1.591-2.883.975-.811-1-.847-1.433-.111-2.59a48.792,48.792,0,0,0,4.068-7.442,44.886,44.886,0,0,0,3.3-13.531,43.936,43.936,0,0,0-1.869-16.378,47.149,47.149,0,0,0-2.177-5.569c-.278-.631-.622-.936-1.334-.577a4.7,4.7,0,0,1-2.273.3c-.637-.009-.816.206-.514.811a15.614,15.614,0,0,1,1.5,4.567,16.34,16.34,0,0,1-2.512,11.7,5.521,5.521,0,0,0-1,3.275c.1,7.433.069,14.865.039,22.295-.015,3.784-2.24,5.973-6.042,6-3.475.024-6.948,0-10.423.006a7.422,7.422,0,0,0-.772.009c-.694.069-.793.251-.4.853s.826,1.152,1.265,1.7q1.741,2.194,3.5,4.37c.8.99.825.99,1.887.365a39.967,39.967,0,0,0,8.375-6.467,8.831,8.831,0,0,1,.912-.861,1.866,1.866,0,0,1,2.465-.045c.718,1.05.7,1.543-.158,2.464a42.624,42.624,0,0,1-11.2,8.587,47.512,47.512,0,0,1-11.028,4.292,28.779,28.779,0,0,1-7.143.966.562.562,0,0,0-.455.1h-.58c-.156-.159-.356-.081-.538-.1-.149.009-.308-.03-.425.1h-3.864c-.156-.159-.356-.081-.538-.1-.147.009-.305-.03-.425.1h-.966a48.114,48.114,0,0,1-7.023-1.02,46.523,46.523,0,0,1-28.241-20.213A45.592,45.592,0,0,1,736.1,695.3a25.412,25.412,0,0,1-.221-2.785c-.012-1.152-.218-1.337-1.37-1.337a5.375,5.375,0,0,1-3.1-.879,4.39,4.39,0,0,1-2.088-3.8c-.012-8.264-.024-16.528.006-24.792a4.7,4.7,0,0,1,4.528-4.636c1.122-.075,2.249-.039,3.374-.009a1.61,1.61,0,0,1,1.636,1.113c.156,1.5-.443,2.228-1.914,2.306-.76.042-1.522.03-2.282.006-1.528.153-2.073.694-2.076,2.207q-.022,11.44,0,22.878c0,1.555.616,2.144,2.192,2.154,3.637.021,7.274.042,10.908-.009a6.583,6.583,0,0,1,4.128,1.343q3.271,2.4,6.577,4.741a1.8,1.8,0,0,0,1.062.544,16.514,16.514,0,0,0,.048-2.1,4.2,4.2,0,0,1,4.54-4.507c.577-.006,1.157,0,1.738,0,1.717-.015,2.145-.431,2.219-2.168-.06-7.268-.015-14.539-.027-21.807-.006-3.11-.132-3.239-3.287-3.239q-8.538,0-17.079,0c-.386,0-.775.012-1.157-.015-1.457-.1-2.043-.792-1.938-2.267a1.681,1.681,0,0,1,1.78-1.19c1.256-.03,2.51-.018,3.766-.006a2.323,2.323,0,0,0,1.726-.706,45.915,45.915,0,0,1,24.179-12.442,53.143,53.143,0,0,1,7.478-.757c1.068-.045,1.148-.084,1.157-1.166a5.55,5.55,0,0,1,.667-2.782,4.474,4.474,0,0,1,4.1-2.429q15.4,0,30.8,0a4.771,4.771,0,0,1,4.752,4.421,10.394,10.394,0,0,1,.03,1.062c0,7.657.048,15.317-.042,22.974a9,9,0,0,0,1.035,4.3,41.359,41.359,0,0,1,4.077,13.414,24.436,24.436,0,0,0,.248,2.764v.58c-.132.12-.093.278-.1.428v.344c0,.117,0,.23,0,.344.009.149-.03.308.1.428v2.123A1.469,1.469,0,0,0,828.267,691.1Z"/>
    <path id="Path_11316" data-name="Path 11316" d="M762.54,655.693a.868.868,0,0,1,0-1.158Z" transform="translate(65.727 35.409)" fill="#181818"/>
    <path id="Path_11317" data-name="Path 11317" d="M746.16,669.792c.218-.021.449-.081.589.17h-.577c-.06-.033-.081-.072-.066-.111S746.139,669.792,746.16,669.792Z" transform="translate(33.438 65.743)" fill="#474747"/>
    <path id="Path_11318" data-name="Path 11318" d="M747.8,669.8c.2,0,.446-.144.562.159h-.577c-.066-.042-.087-.081-.06-.114A.1.1,0,0,1,747.8,669.8Z" transform="translate(36.651 65.743)" fill="#626262"/>
    <path id="Path_11319" data-name="Path 11319" d="M762.354,653.686c-.021-.158-.081-.332.162-.377v.386C762.455,653.785,762.4,653.779,762.354,653.686Z" transform="translate(65.752 32.968)" fill="#8d8d8d"/>
    <path id="Path_11320" data-name="Path 11320" d="M762.339,653.436a.733.733,0,0,1,.162.009v.386c-.06.087-.114.087-.162-.009Z" transform="translate(65.766 33.218)" fill="#6f6f6f"/>
    <path id="Path_11321" data-name="Path 11321" d="M762.343,653.564a1.463,1.463,0,0,1,.162.009v.386c-.063.09-.117.087-.168-.012Z" transform="translate(65.763 33.476)" fill="#565656"/>
    <path id="Path_11322" data-name="Path 11322" d="M762.343,653.692l.168.012v.386A.327.327,0,0,1,762.343,653.692Z" transform="translate(65.756 33.731)" fill="#3e3e3e"/>
    <path id="Path_11323" data-name="Path 11323" d="M762.513,655.567c-.263-.129-.216-.257,0-.386Z" transform="translate(65.754 36.695)" fill="#626262"/>
    <path id="Path_11324" data-name="Path 11324" d="M746.37,669.786a.817.817,0,0,1,.012.17H746C746.044,669.732,746.211,669.771,746.37,669.786Z" transform="translate(33.228 65.75)" fill="#747474"/>
    <path id="Path_11325" data-name="Path 11325" d="M748.011,669.792l-.015.159h-.386C747.694,669.768,747.843,669.759,748.011,669.792Z" transform="translate(36.441 65.756)" fill="#414141"/>
    <path id="Path_11326" data-name="Path 11326" d="M735.332,643.884a.97.97,0,0,0,1.035.592,10.481,10.481,0,0,1,1.986,0,.966.966,0,0,0,1.035-.592c-.179,1.567.3,2.1,1.914,2.1q9.543,0,19.082,0c1.977,0,2.6.619,2.6,2.578q0,11.032,0,22.071c0,.287-.03.574-.048.861a1.646,1.646,0,0,1-1.187.287c-1.095.009-2.186.033-3.281,0A5.859,5.859,0,0,0,753,674.93c-.817,1.337-1.244,1.451-2.512.565q-1.66-1.162-3.281-2.378a6.813,6.813,0,0,0-4.331-1.346c-3.149.039-6.3.018-9.451.009C731.5,671.775,731,671.3,731,669.4q-.023-11.095,0-22.19a1.585,1.585,0,0,1,.287-1.184c.727-.015,1.457-.036,2.184-.042C735.024,645.972,735.512,645.431,735.332,643.884Z" transform="translate(3.343 14.203)" fill="#f9f7f7"/>
    <path id="Path_11327" data-name="Path 11327" d="M775.95,654.079a1.612,1.612,0,0,1,1.358,1.522,2.241,2.241,0,0,1,.072.954q0,10.516,0,21.032c0,1.22-.072,1.316-1.3,1.319-4.211.021-8.426.039-12.64-.006a7.527,7.527,0,0,0-4.762,1.546c-.823.619-1.645,1.238-2.5,1.807-1.062.706-1.645.616-2.348-.41a6.487,6.487,0,0,0-5.557-2.937c-1.406-.027-1.786-.407-1.789-1.8q-.027-10.9,0-21.807c0-1.244.084-1.3,1.3-1.3q13.6,0,27.209.006A2.012,2.012,0,0,1,775.95,654.079Z" transform="translate(34.18 34.31)" fill="#febe54"/>
    <path id="Path_11328" data-name="Path 11328" d="M749.635,637.783q8.291-.013,16.579-.03,5.635-.009,11.276,0c1.753,0,2.468.709,2.471,2.444q0,10.552,0,21.11c0,.254-.024.511-.039.769a1.194,1.194,0,0,1-.888.3c-1.795.021-3.589.027-5.384,0a1.429,1.429,0,0,1-.823-.224c-.045-.045-.117-.093-.117-.147-.06-1.564-1.262-2.025-2.435-2.5a19.086,19.086,0,0,1-4.6-2.793c-1-.79-1.038-1.056-.32-2.067a21.769,21.769,0,0,0,3-6.23c.356-1.143.505-1.241,1.714-1.265a13.645,13.645,0,0,0,1.639-.036c.816-.114,1.343-.649,1.3-1.3-.042-.628-.538-1.023-1.388-1.032-1.995-.024-3.99,0-5.985-.012-1.343-.012-1.564-.239-1.591-1.579-.009-.416.015-.834-.024-1.253a.969.969,0,0,0-.879-.987,1.061,1.061,0,0,0-1.235.691,4.212,4.212,0,0,0-.236,1.516c-.03,1.537-.108,1.609-1.675,1.615q-2.557,0-5.115,0c-.257,0-.515-.006-.772.012-.655.042-1.14.335-1.193,1.023a1.164,1.164,0,0,0,.993,1.241,7.658,7.658,0,0,0,1.923.1c1.211.027,1.382.123,1.717,1.256a21.417,21.417,0,0,0,3.057,6.311c.649.921.613,1.2-.284,1.923a18.623,18.623,0,0,1-4.5,2.785c-.506.212-.993.461-1.487.694a1.376,1.376,0,0,0-.921,1.519c.036.314.087.664-.338.8a18.491,18.491,0,0,1-2.408-.078c-.978-.063-1.274-.413-1.337-1.409-.018-.257-.012-.514-.012-.772q0-10.364.006-20.73C749.327,638.881,749.2,638.274,749.635,637.783Z" transform="translate(39.824 1.99)" fill="#db4955"/>
    <path id="Path_11329" data-name="Path 11329" d="M755.63,682.78c-1.19-.443-1.525-.341-2.375.724a6.426,6.426,0,0,1-7.376,2.3,4.064,4.064,0,0,1-2.139-1.406,6.551,6.551,0,0,0-4.322-2.647,1.979,1.979,0,0,1-.879-1.214,47.2,47.2,0,0,1-3.12-10.391c-.072-.4-.209-.825.153-1.175q4.276,3.051,8.557,6.1a5.145,5.145,0,0,0,1.065.646,2.565,2.565,0,0,0,3.49-2.339c.045-1.22.03-2.447.006-3.667-.021-.855.356-1.247,1.208-1.235s1.738.018,2.6-.006a4.808,4.808,0,0,0,4.708-4.675c.039-1.029.015-2.058.015-3.087s0-2.061,0-3.168c.984.4,1.9.832,2.859,1.155a12.026,12.026,0,0,0,15.81-9.819c.087-.664.32-.84.96-.84,2.8,0,2.548.006,2.536,2.512,0,.709.006,1.415,0,2.124a2.577,2.577,0,0,0,1.382,2.468,2.548,2.548,0,0,0,2.821-.23c1.633-1.146,3.236-2.33,4.86-3.484a2.016,2.016,0,0,1,.969-.547,10,10,0,0,1-1.977,5.333,18.222,18.222,0,0,1-1.5,1.756,7.009,7.009,0,0,0-2.016,4.074c-.078.715-.32.861-1,.855-4.986-.03-9.975-.018-14.961-.015a4.922,4.922,0,0,0-5.336,4.98.8.8,0,0,1-.529.787,9.965,9.965,0,0,0-5.441,6.41c-.188.613-.395,1.22-.574,1.837-.344,1.172-.1,1.681,1.029,2.216A5.069,5.069,0,0,1,755.63,682.78Z" transform="translate(11.998 22.46)" fill="#0055d4"/>
    <path id="Path_11330" data-name="Path 11330" d="M750.586,667.01a18.971,18.971,0,0,0,1.5-3.676,1.754,1.754,0,0,0,1.78-1.457,15.148,15.148,0,0,1,1.385-3.682,6.816,6.816,0,0,1,2.208-2.243,2.031,2.031,0,0,1,.122,1.1q.009,9.117.006,18.233c0,3.509,1.989,5.506,5.491,5.524.61.006,1.223.033,1.831-.006.933-.06,1.271.392,1.253,1.271-.024,1.092,0,2.186-.009,3.281a2.622,2.622,0,0,0,4.31,2.2c1.953-1.409,3.915-2.808,5.862-4.229.377-.272.613-.467.972.081,1.5,2.294,3.314,4.343,5.016,6.478.682.853.685.865-.359,1.3a12.283,12.283,0,0,1-2.531.909,38.945,38.945,0,0,1-11.973-.466,45.865,45.865,0,0,1-21.17-9.87,43.758,43.758,0,0,1-7.992-8.578c-.518-.724-.514-.772-.224-1.2,3.792,1.935,7.432,1.869,10.866-.834a9.078,9.078,0,0,0,1.651-1.735C751.313,668.427,751.313,668.029,750.586,667.01Z" transform="translate(17.042 38.23)" fill="#b6e446"/>
    <path id="Path_11331" data-name="Path 11331" d="M773.152,694.417c-.691,1.086-1.708,1.926-2.333,3.066-1.026-.667-1.543-.619-2.441.3a44.213,44.213,0,0,1-9.658,7.474c-.532.308-.823.353-1.238-.194-1.675-2.2-3.416-4.349-5.106-6.541-.26-.338-.781-.718-.58-1.137.224-.469.85-.335,1.328-.335q5.644,0,11.294,0a5.108,5.108,0,0,0,4.5-2.151,5.2,5.2,0,0,0,.885-3.1c0-7.756.03-15.511-.033-23.267a3.916,3.916,0,0,1,.748-2.348c3.532-5.4,4.125-11.036,1.148-16.881-.407-.8-.125-.826.535-.8a5.613,5.613,0,0,0,3.269-.607c.551-.335.571.209.7.461a39.788,39.788,0,0,1,3.335,9.215,42.8,42.8,0,0,1-6.335,34.342C772.581,692.8,772.348,693.58,773.152,694.417Z" transform="translate(44.688 21.991)" fill="#0055d4"/>
    <path id="Path_11332" data-name="Path 11332" d="M758.361,652.479c-1.612-.162-2.085.269-2.088,1.908,0,1.573.012,3.146,0,4.72a4.74,4.74,0,0,0,1.845,3.945.974.974,0,0,1,.4,1.047,8.981,8.981,0,0,1-3.951,6.733,10.134,10.134,0,0,1-6.957-.161,16.126,16.126,0,0,1-3.99-2.1,2.024,2.024,0,0,1-.954-1.857c.045-2.118.012-4.235.018-6.353a1.432,1.432,0,0,1,.485-.811c3.036-2.958,3.757-6.6,3.084-10.621a14.736,14.736,0,0,0-2.381-5.949c-.254-.371-.691-.742-.323-1.286a42.879,42.879,0,0,1,12.078-1.741c.622-.009.655.29.652.769-.018,1.929-.009,3.858-.006,5.79,0,1.645.476,2.079,2.088,1.914a1.04,1.04,0,0,1,.347,1.029C758.618,650.466,759.052,651.54,758.361,652.479Z" transform="translate(26.6 6.377)" fill="#b6e446"/>
    <path id="Path_11333" data-name="Path 11333" d="M744.951,663.38c-.224.583.3.87.547,1.212a42.867,42.867,0,0,0,5.554,6.359,48.136,48.136,0,0,0,10.887,7.633,45.842,45.842,0,0,0,12.688,4.25,35.056,35.056,0,0,0,6.38.643c1.768-.015,3.535.009,5.3.018a32.768,32.768,0,0,1-8.282,2.067,42.626,42.626,0,0,1-26.572-4.792,43.06,43.06,0,0,1-16.839-16.295c-.3-.511-.317-.787.192-1.17a21.446,21.446,0,0,1,3.774-2.488c2.064-.957,3.308-.688,4.759,1.053A12.786,12.786,0,0,0,744.951,663.38Z" transform="translate(10.154 46.828)" fill="#aad541"/>
    <path id="Path_11334" data-name="Path 11334" d="M747.914,656.863v-4.053a2.214,2.214,0,0,0,.823-1.935c-.03-3.46-.015-6.921-.015-10.381,0-2.142.6-2.746,2.73-2.743.32,0,.64.021.96.03q0,11.508,0,23.01c0,1.193.078,1.3,1.235,1.277a13.8,13.8,0,0,1,2.479.194,3.333,3.333,0,0,1,1.516.335,13.709,13.709,0,0,1,2.39,2.6c.3.488.73.449,1.16.15.709-.49,1.433-.969,2.1-1.516a8,8,0,0,1,6.021-2.019,12.282,12.282,0,0,0,2.587-.042,1.133,1.133,0,0,1,.553.123,2.8,2.8,0,0,0,3.111-.027c.275.326.655.2.99.2,2.049.009,4.1,0,6.143,0,.012.192.036.383.039.574.027,2.441-.479,2.958-2.892,2.958-3.6,0-7.193.015-10.792-.006a5.414,5.414,0,0,0-3.407,1.086c-2.5,1.854-5.046,3.652-7.576,5.467a1.339,1.339,0,0,1-.828.419c0-.96,0-1.908,0-2.856a3.8,3.8,0,0,0-3.981-4.1c-.835-.03-1.669.012-2.5-.015a1.9,1.9,0,0,1-2.028-2.07c-.024-1.573-.036-3.146.006-4.72A2.176,2.176,0,0,0,747.914,656.863Z" transform="translate(37.047 1.993)" fill="#d72f3c"/>
    <path id="Path_11335" data-name="Path 11335" d="M778.037,654.133c-9.326,0-18.649.024-27.972-.012-1,0-1.223.272-1.217,1.235.042,7.265.021,14.533.024,21.8,0,1.436.075,1.5,1.546,1.51a6.522,6.522,0,0,1,5.9,3.308c.413.676.933.742,1.678.2,1.008-.736,2-1.5,3.024-2.21a7.036,7.036,0,0,1,4.232-1.307c4.373.039,8.746-.009,13.118.03.817.009,1.017-.248,1.014-1.035-.018-7.331,0-14.662.012-21.993a1.671,1.671,0,0,1,.117.942q0,11.293-.006,22.582c0,2.025-.7,2.7-2.74,2.707-3.733,0-7.462.021-11.2-.012a4.976,4.976,0,0,0-3.135,1.014c-2.455,1.812-4.947,3.58-7.427,5.363-.278.2-.562.395-1.011.709,0-1.092.009-2.007,0-2.922-.042-2.713-1.493-4.143-4.208-4.151-.61,0-1.223.006-1.833,0-1.777-.027-2.521-.766-2.524-2.533q0-8.784,0-17.563c0-1.8-.009-3.6,0-5.4a2.122,2.122,0,0,1,2.438-2.408q14.572-.009,29.144-.006C777.358,653.971,777.729,653.882,778.037,654.133Z" transform="translate(32.093 34.256)" fill="#fea342"/>
    <path id="Path_11336" data-name="Path 11336" d="M732.628,644.6v23.422c0,1.786.266,2.046,2.07,2.046,3.021,0,6.048.1,9.06-.036a8.418,8.418,0,0,1,5.829,2.025c.954.754,1.95,1.451,2.946,2.151.607.425,1.017.248,1.358-.425a6.032,6.032,0,0,1,5.77-3.721c1.543.024,3.086.006,4.627.006.063,1.57-.643,2.321-2.2,2.339-.8.009-1.609-.015-2.411.006a3.789,3.789,0,0,0-3.867,3.93c-.009,1,0,1.992,0,2.985-.344.141-.488-.15-.67-.281-2.611-1.866-5.225-3.733-7.816-5.632a5.062,5.062,0,0,0-3.137-1.014c-3.855.021-7.714.015-11.572.006a2.012,2.012,0,0,1-2.3-2.312q-.009-11.62,0-23.243A1.977,1.977,0,0,1,732.628,644.6Z" transform="translate(1.995 15.628)" fill="#efe8e5"/>
    <path id="Path_11337" data-name="Path 11337" d="M764.658,648.159c3.359,4.047,3.676,8.524,1.881,13.3a7.276,7.276,0,0,1-.4.876,4.283,4.283,0,0,1-.9,1.459c-.542.389-.942-.386-1.454-.547a7.476,7.476,0,0,0-2.264-.4c-2.668,0-5.339-.021-8.01-.033a1.287,1.287,0,0,1-.125-1.28,5.475,5.475,0,0,1,1.415-2.587,13,13,0,0,0,4.065-9.371c.021-1.379.23-1.537,1.579-1.51A31.962,31.962,0,0,1,764.658,648.159Z" transform="translate(47.724 22.481)" fill="#b6e446"/>
    <path id="Path_11338" data-name="Path 11338" d="M741.158,655.369a26.278,26.278,0,0,0,1.187,5.794A36.836,36.836,0,0,0,745,668.149c-3.039-.123-5.387,1.445-7.63,3.2-.61.479-.82.481-1.149-.266a44.115,44.115,0,0,1-3.694-15.532c-.027-.487.063-.691.6-.685,2.309.021,4.621.009,6.933.009A1.312,1.312,0,0,1,741.158,655.369Z" transform="translate(6.413 36.062)" fill="#0055d4"/>
    <path id="Path_11339" data-name="Path 11339" d="M742.189,643.56a28.729,28.729,0,0,1,4.22-2.276.474.474,0,0,1,.655.147,11.676,11.676,0,0,1,3.036,8.5,5.956,5.956,0,0,0-3.269-1.534c-2.527-.15-5.061-.018-7.591-.072-.3-.006-.706.176-.882-.153-.191-.359.119-.664.335-.939A18.03,18.03,0,0,1,742.189,643.56Z" transform="translate(17.901 8.881)" fill="#0055d4"/>
    <path id="Path_11340" data-name="Path 11340" d="M744.616,640.535c-.072.4.2.664.392.948a15.445,15.445,0,0,1,2.725,7.669,11.074,11.074,0,0,1-3.867,9.912,12.171,12.171,0,0,1-.042-3.362c2.994-5.186,1.373-9.828-1.693-14.36A11.5,11.5,0,0,1,744.616,640.535Z" transform="translate(25.533 7.535)" fill="#aad541"/>
    <path id="Path_11341" data-name="Path 11341" d="M766.142,648.184c-1.478,0-2.958.069-4.427-.021-.823-.048-1.038.4-1.074.984a22.55,22.55,0,0,1-.32,3.236,13.1,13.1,0,0,1-3.751,6.673,5.052,5.052,0,0,0-1.576,3.784c-.577.012-1.154,0-1.732.045-.637.051-.858-.111-.661-.8a4.7,4.7,0,0,1,1.235-2.141,14.754,14.754,0,0,0,4.433-10.549c.036-1.148.23-1.334,1.364-1.343,1.962-.015,3.921-.012,5.88-.009C765.729,648.04,765.971,647.971,766.142,648.184Z" transform="translate(46.24 22.457)" fill="#aad541"/>
    <path id="Path_11342" data-name="Path 11342" d="M742.821,645.606c.015,1.122.027,2.24.042,3.362,0,2.157.024,4.313-.033,6.467a1.831,1.831,0,0,0,.978,1.63,13.175,13.175,0,0,0,10.537,2.509,1.33,1.33,0,0,1,.287,0c-2.934,2.133-6.054,2.1-9.281.784-.266-.111-.511-.263-.778-.374a2.854,2.854,0,0,1-1.932-3.164c.158-3.389.045-6.8.054-10.193C742.7,646.288,742.584,645.923,742.821,645.606Z" transform="translate(26.536 17.632)" fill="#aad541"/>
    <path id="Path_11343" data-name="Path 11343" d="M744.025,642q-1.62,1.894-3.242,3.784c-.2.236-.49.428-.431.894,2.4,0,4.8-.006,7.2.006.371,0,.775-.126,1.113.156H737.376A34.794,34.794,0,0,1,744.025,642Z" transform="translate(16.066 10.444)" fill="#0055d4"/>
    <path id="Path_11344" data-name="Path 11344" d="M749.815,664.567a1.4,1.4,0,0,1-1.125,1.475,1.329,1.329,0,0,1-1.639-.837c-.374-.885-.733-1.78-1.038-2.689a.844.844,0,0,0-.951-.7c-2.378.036-4.756.027-7.134,0a.785.785,0,0,0-.9.619c-.287.882-.622,1.75-.972,2.608A1.449,1.449,0,1,1,733.365,664c2.105-5.608,4.232-11.207,6.341-16.812a1.787,1.787,0,0,1,1.794-1.328,1.821,1.821,0,0,1,1.777,1.358q3.163,8.358,6.353,16.7C749.719,664.16,749.77,664.411,749.815,664.567Z" transform="translate(7.814 18.139)"/>
    <path id="Path_11345" data-name="Path 11345" d="M767.2,655.7c1.062,0,2.124-.015,3.186.006a1.45,1.45,0,1,1,.039,2.889c-1.78.084-1.78.084-1.78,1.908,0,3.73-.006,7.463.006,11.2a1.558,1.558,0,0,1-1.011,1.681,1.422,1.422,0,0,1-1.882-1.438c-.03-1.7-.039-3.41.006-5.115.018-.655-.2-.811-.817-.793-1.382.042-2.767.024-4.148.006-.523-.006-.736.042-.562.691.99,3.724-1.43,6.775-5.306,6.724a10.419,10.419,0,0,1-7.229-2.423c-.838-.754-.993-1.591-.425-2.267.586-.694,1.433-.694,2.282.057a8.037,8.037,0,0,0,6.051,1.711,2.233,2.233,0,0,0-.081-4.45c-1.51-.069-3.024-.027-4.534-.039a1.571,1.571,0,0,1-1.6-.855,1.406,1.406,0,0,1,1.325-2.022c1.415-.045,2.83-.009,4.247-.018a2.409,2.409,0,0,0,2.354-1.205,2.236,2.236,0,0,0-1.926-3.329c-1.316-.057-2.635-.006-3.954-.018-1.059-.012-1.693-.547-1.714-1.415-.021-.912.628-1.469,1.747-1.478,1.253-.009,2.51-.015,3.763,0a5.131,5.131,0,0,1,5.028,6.655c-.2.685-.078.823.592.8,1.415-.039,2.832-.03,4.247,0,.5.009.673-.15.655-.658-.033-1.092-.039-2.189,0-3.281.018-.529-.177-.673-.664-.631a8.342,8.342,0,0,1-1.157,0,1.435,1.435,0,0,1-1.54-1.481,1.415,1.415,0,0,1,1.519-1.4C765.009,655.683,766.1,655.7,767.2,655.7Z" transform="translate(35.098 37.719)"/>
    <path id="Path_11346" data-name="Path 11346" d="M752.667,660.84a2.018,2.018,0,0,1-1.48-.464c-.517-1.307-.305-1.905.957-2.447A23.144,23.144,0,0,0,758.2,654.4c.521-.446.586-.715.141-1.3a18.957,18.957,0,0,1-3.3-6.912c-.143-.559-.374-.736-.918-.706-.706.036-1.415.03-2.121,0a1.513,1.513,0,0,1-1.609-1.457A1.464,1.464,0,0,1,752,642.6c2.156-.018,4.313-.03,6.466.006.673.012.927-.188.871-.867a9.1,9.1,0,0,1,.027-1.639,1.373,1.373,0,0,1,1.51-1.4,1.357,1.357,0,0,1,1.34,1.466,8.141,8.141,0,0,1,0,1.352c-.1.814.144,1.128,1.041,1.095,2.025-.072,4.053-.027,6.081-.021,1.155,0,1.818.505,1.854,1.373.036.906-.679,1.5-1.837,1.522-.834.015-1.827-.236-2.458.132s-.571,1.486-.858,2.261a20.142,20.142,0,0,1-2.862,5.33c-.362.473-.326.706.1,1.083a20.958,20.958,0,0,0,6.123,3.6,1.527,1.527,0,1,1-1.2,2.656c-.41-.177-.823-.341-1.235-.512a10.218,10.218,0,0,1-3.679-1.8,10.908,10.908,0,0,1-1.9-1.474c-.446-.455-.775-.365-1.214.027a23,23,0,0,1-6.5,3.873C753.358,660.792,753.044,661.019,752.667,660.84Z" transform="translate(41.984 3.878)"/>
    <path id="Path_11347" data-name="Path 11347" d="M751.193,649.278a24.236,24.236,0,0,0,7.729-4.561c.3-.281.5-.281.8,0a22.484,22.484,0,0,0,5.772,3.754,3.445,3.445,0,0,1-1.977.138,8.818,8.818,0,0,0-7.113,2.447,14.44,14.44,0,0,1-1.624,1.184c-.523.35-.969.383-1.349-.278a6.633,6.633,0,0,0-2.031-2.252C751.235,649.6,751.032,649.529,751.193,649.278Z" transform="translate(43.458 15.441)" fill="#db4955"/>
    <path id="Path_11348" data-name="Path 11348" d="M738,647.463l3.152,8.279c-2.022,0-3.936,0-5.85,0-.446,0-.335-.227-.236-.49C736.017,652.745,736.96,650.236,738,647.463Z" transform="translate(11.296 21.329)" fill="#f9f7f7"/>
    <path id="Path_11349" data-name="Path 11349" d="M758.63,641.34c-.1.311-.212.646-.329.981a17.789,17.789,0,0,1-2.18,4.268c-.236.35-.4.437-.682.03a18.765,18.765,0,0,1-2.471-5.085c-.137-.452-.006-.571.428-.568,1.573.015,3.15,0,4.723.012C758.34,640.978,758.678,640.873,758.63,641.34Z" transform="translate(47.005 8.394)" fill="#db4955"/>
  </g>
</svg>
