<svg xmlns="http://www.w3.org/2000/svg" width="25.23" height="22.322" viewBox="0 0 25.23 22.322">
  <g id="Group_6425" data-name="Group 6425" transform="translate(0)">
    <path id="Path_7405" data-name="Path 7405" d="M191.251,215.719h-5c-.419,0-.835,0-1.254,0-.185,0-.277-.064-.266-.256,0-.132,0-.263,0-.394a2.285,2.285,0,0,0-2.263-2.3c-1.983-.028-3.969-.025-5.955,0a2.257,2.257,0,0,0-2.238,1.972,4.633,4.633,0,0,0-.032.735c0,.167-.075.242-.238.238-.082,0-.163,0-.245,0h-5.98c-.643,0-.917.281-.917.913v11c0,1.734.007,3.464,0,5.194a2.184,2.184,0,0,0,1.578,2.135,3.061,3.061,0,0,0,.9.114q10.147-.005,20.3,0c.089,0,.181,0,.27,0a2.35,2.35,0,0,0,1.844-.988,2.038,2.038,0,0,0,.338-1.055V216.387C191.965,215.875,191.784,215.73,191.251,215.719Zm-15.455-.59a.749.749,0,0,1,.81-.81c1.041,0,2.082,0,3.123,0h2.6a.753.753,0,0,1,.846.849c0,.2.068.469-.036.59s-.384.036-.586.036q-1.54.005-3.073,0c-1.155,0-2.309-.007-3.468,0-.185,0-.242-.046-.224-.227A3.7,3.7,0,0,0,175.8,215.129Zm14.528,2.153c-.323.974-.643,1.936-.963,2.9l-1.258,3.773c-.188.568-.384.707-.991.707-1.222,0-2.444,0-3.667,0-.2,0-.306-.025-.266-.256a2.912,2.912,0,0,0,0-.394.756.756,0,0,0-.842-.831H178.1c-.5,0-1,0-1.5,0a.748.748,0,0,0-.806.817c0,.21.075.5-.036.615-.124.139-.416.043-.632.043-1.133.007-2.263,0-3.4,0a.742.742,0,0,1-.8-.533c-.764-2.27-1.517-4.544-2.281-6.843Zm-8.616,8.68c0,.142-.039.178-.178.174-.689,0-1.379,0-2.068,0-.664,0-1.329-.007-1.993,0-.16,0-.206-.043-.2-.2.011-.377.007-.753,0-1.133,0-.117.036-.149.153-.149,1.379,0,2.754,0,4.132,0,.121,0,.153.032.153.153C181.7,225.191,181.7,225.579,181.708,225.962Zm8.907,6.648c0,.643-.266.91-.91.91H169.279c-.657,0-.917-.263-.917-.927v-11.38l.039-.007c.266.8.529,1.588.8,2.384.114.334.22.668.338,1a2.205,2.205,0,0,0,2.189,1.546c1.268,0,2.54.007,3.812,0,.213,0,.295.043.263.263a2.918,2.918,0,0,0,0,.394.752.752,0,0,0,.824.824c1.794,0,3.592,0,5.386,0,.124,0,.249,0,.37,0a.75.75,0,0,0,.806-.792,4.122,4.122,0,0,0,0-.419c-.025-.2.025-.274.256-.27,1.247.014,2.494.007,3.741.007a2.239,2.239,0,0,0,2.313-1.681q.544-1.625,1.087-3.247c.011,0,.025,0,.039.007Z" transform="translate(-166.86 -212.754)" fill="#21558e"/>
  </g>
</svg>
