<svg xmlns="http://www.w3.org/2000/svg" xmlns:xlink="http://www.w3.org/1999/xlink" width="251.691" height="261.864" viewBox="0 0 251.691 261.864">
  <defs>
    <clipPath id="clip-path">
      <path id="Path_1114" data-name="Path 1114" d="M1106.708,731.35s-10.473-1.164-16.937-12.7-40.962-7.743-40.962-7.743.2,4.039,5.542,5.079l-3.728,1.8s1.092,4.62,10.875,4.215l-2.654,2.86s4.11,3.359,14.421,1.883l-1.945,2.5s4.822,3.356,12.993,1l-.877,2.317s6.2.448,9.855-1.145C1093.293,731.419,1100.359,735.774,1106.708,731.35Z" transform="translate(-1048.809 -710.315)" fill="#fff" stroke="#1a2e35" stroke-linecap="round" stroke-linejoin="round" stroke-width="1"/>
    </clipPath>
    <clipPath id="clip-path-2">
      <path id="Path_1127" data-name="Path 1127" d="M1119.278,715.91l-3.635,1.252-1.736-3.637a.817.817,0,0,0-1.018-.423l-12.349,4.254a.98.98,0,0,0-.642,1l.323,4.124-20.626,7.1a2.063,2.063,0,0,0-1.3,2.448l8.329,31.4a1.733,1.733,0,0,0,2.269,1.219l39.682-13.669a2.064,2.064,0,0,0,1.3-2.448l-8.33-31.4A1.732,1.732,0,0,0,1119.278,715.91Z" transform="translate(-1078.234 -713.053)" fill="#fdb2b9"/>
    </clipPath>
    <clipPath id="clip-path-3">
      <path id="Path_1130" data-name="Path 1130" d="M1126.169,752.691l-39.685,13.67a2.182,2.182,0,0,1-2.61-1.1l-.194-.4-9.365-19.376-4.632-9.578a1.646,1.646,0,0,1,.952-2.328l39.685-13.67a2.18,2.18,0,0,1,2.609,1.1l14.192,29.355A1.64,1.64,0,0,1,1126.169,752.691Z" transform="translate(-1069.502 -719.8)" fill="#fc6574" stroke="#1a2e35" stroke-linecap="round" stroke-linejoin="round" stroke-width="1"/>
    </clipPath>
    <clipPath id="clip-path-4">
      <path id="Path_1134" data-name="Path 1134" d="M1086.816,751.233s-10.293,2.257-20.115-6.591-41.28,5.807-41.28,5.807,1.484,3.762,6.878,3.033l-2.953,2.9s2.516,4.026,11.652.5l-1.6,3.561s4.969,1.863,14.263-2.843l-1.039,2.992s5.642,1.631,12.627-3.221l-.088,2.477s6.02-1.566,8.968-4.247C1074.133,755.6,1082.223,757.46,1086.816,751.233Z" transform="translate(-1025.421 -741.802)" fill="#fff" stroke="#1a2e35" stroke-linecap="round" stroke-linejoin="round" stroke-width="1"/>
    </clipPath>
    <clipPath id="clip-path-5">
      <path id="Path_1148" data-name="Path 1148" d="M846.586,973.519s-.427,19.334,31.583,33.592,119.049,21.209,134.9-29.035l-49.3-14.159H897.635l-14.561,6.6Z" transform="translate(-846.586 -963.917)" fill="#5ae4a7" stroke="#1a2e35" stroke-linecap="round" stroke-linejoin="round" stroke-width="1"/>
    </clipPath>
    <clipPath id="clip-path-6">
      <path id="Path_1170" data-name="Path 1170" d="M986.618,982.573v3.219a2.082,2.082,0,0,1-.063.514,2.184,2.184,0,0,1-2.117,1.657H908.065a2.184,2.184,0,0,1-2.118-1.657,2.088,2.088,0,0,1-.063-.514v-3.219Z" transform="translate(-905.884 -982.573)" fill="#757575" stroke="#1a2e35" stroke-linecap="round" stroke-linejoin="round" stroke-width="1"/>
    </clipPath>
    <clipPath id="clip-path-7">
      <path id="Path_1180" data-name="Path 1180" d="M1025.784,1038.285c-5.2,5.421-21.861,6.5-28.812,4.918-1.9-.43-8.807-.681-13.956-2.526-2.779-.986-5.043-2.432-5.735-4.624-1.992-6.249,15.591-18.139,15.591-18.139s11.219,2.16,13.546,2.715a44.2,44.2,0,0,0,8.22,1.143c5.337.231,8.944-.482,12.855,1.2C1031.949,1024.886,1032.012,1031.785,1025.784,1038.285Z" transform="translate(-977.123 -1017.913)" fill="#757575" stroke="#1a2e35" stroke-linecap="round" stroke-linejoin="round" stroke-width="1"/>
    </clipPath>
    <clipPath id="clip-path-8">
      <path id="Path_1192" data-name="Path 1192" d="M960.956,999.726c-1.678,11.334-19.157,23.654-19.157,23.654s-4.844-4.539-6.438-4.351-8.262-.283-8.262-.283-52.666-19.7-58.958-19.806c-3.942-.063-15.319-3.523-20.949-12.5-3.344-5.326-4.655-12.6-1.2-22.259,5.7-15.927,33.814-4.194,61.379,11.03,9.153,5.065,17.279,9.122,23.843,12.215,10.914,5.137,17.552,7.612,17.552,7.612l3.649-1.3Z" transform="translate(-843.959 -956.579)" fill="#fc6574" stroke="#1a2e35" stroke-linecap="round" stroke-linejoin="round" stroke-width="1"/>
    </clipPath>
  </defs>
  <g id="Group_2613" data-name="Group 2613" transform="translate(-812.008 -708.909)">
    <g id="Group_2581" data-name="Group 2581" transform="translate(812.706 709.607)">
      <circle id="Ellipse_52" data-name="Ellipse 52" cx="21.087" cy="21.087" r="21.087" transform="translate(0 34.26) rotate(-54.325)" fill="none" stroke="#1a2e35" stroke-linecap="round" stroke-linejoin="round" stroke-width="1"/>
      <path id="Path_1103" data-name="Path 1103" d="M863.13,724.5a23.236,23.236,0,0,0-31.458-.978" transform="translate(-817.441 -711.668)" fill="none" stroke="#1a2e35" stroke-linecap="round" stroke-linejoin="round" stroke-width="1"/>
      <path id="Path_1104" data-name="Path 1104" d="M879.4,752.244a23.219,23.219,0,0,0-4.058-23.67" transform="translate(-828.346 -714.342)" fill="none" stroke="#1a2e35" stroke-linecap="round" stroke-linejoin="round" stroke-width="1"/>
      <path id="Path_1105" data-name="Path 1105" d="M874.128,774.937l4.235,2.52-3.584-8.671a23.12,23.12,0,0,0,1.648-2.063" transform="translate(-828.041 -723.867)" fill="none" stroke="#1a2e35" stroke-linecap="round" stroke-linejoin="round" stroke-width="1"/>
      <path id="Path_1106" data-name="Path 1106" d="M831.672,772.253a23.243,23.243,0,0,0,28.027,1.787l2.087,1.242" transform="translate(-817.441 -725.248)" fill="none" stroke="#1a2e35" stroke-linecap="round" stroke-linejoin="round" stroke-width="1"/>
      <path id="Path_1107" data-name="Path 1107" d="M822.615,737.339a23.232,23.232,0,0,0,4.006,23.817" transform="translate(-814.767 -716.531)" fill="none" stroke="#1a2e35" stroke-linecap="round" stroke-linejoin="round" stroke-width="1"/>
      <path id="Path_1108" data-name="Path 1108" d="M825.837,731.434a22.938,22.938,0,0,0-1.393,2.334" transform="translate(-815.636 -715.056)" fill="none" stroke="#1a2e35" stroke-linecap="round" stroke-linejoin="round" stroke-width="1"/>
      <g id="Group_2580" data-name="Group 2580" transform="translate(17.829 19.617)">
        <path id="Path_1109" data-name="Path 1109" d="M844.278,755.63l-7.289-7.016a1.7,1.7,0,0,1,2.361-2.453" transform="translate(-836.467 -738.232)" fill="none" stroke="#1a2e35" stroke-linecap="round" stroke-linejoin="round" stroke-width="1"/>
        <path id="Path_1110" data-name="Path 1110" d="M859.472,736.508a1.7,1.7,0,1,1,2.83,1.893l-10.7,16a1.7,1.7,0,0,1-1.233.747c-.049.005-.1.008-.15.009a1.7,1.7,0,0,1-1.213-.476" transform="translate(-839.597 -735.752)" fill="none" stroke="#1a2e35" stroke-linecap="round" stroke-linejoin="round" stroke-width="1"/>
        <path id="Path_1111" data-name="Path 1111" d="M842.528,746.233l5.754,5.539,8.171-12.217" transform="translate(-837.98 -736.701)" fill="none" stroke="#1a2e35" stroke-linecap="round" stroke-linejoin="round" stroke-width="1"/>
      </g>
    </g>
    <g id="Group_2592" data-name="Group 2592" transform="translate(972.311 710.138)">
      <g id="Group_2584" data-name="Group 2584" transform="translate(17.549 0)">
        <g id="Group_2583" data-name="Group 2583">
          <path id="Path_1112" data-name="Path 1112" d="M1106.708,731.35s-10.473-1.164-16.937-12.7-40.962-7.743-40.962-7.743.2,4.039,5.542,5.079l-3.728,1.8s1.092,4.62,10.875,4.215l-2.654,2.86s4.11,3.359,14.421,1.883l-1.945,2.5s4.822,3.356,12.993,1l-.877,2.317s6.2.448,9.855-1.145C1093.293,731.419,1100.359,735.774,1106.708,731.35Z" transform="translate(-1048.809 -710.315)" fill="#fff"/>
          <g id="Group_2582" data-name="Group 2582" clip-path="url(#clip-path)">
            <path id="Path_1113" data-name="Path 1113" d="M1106.708,731.55c-6.348,4.422-13.416.069-13.416.069-3.653,1.588-9.853,1.147-9.853,1.147l.873-2.323c-8.174,2.36-12.993-1-12.993-1l1.945-2.5c-10.31,1.479-14.423-1.884-14.423-1.884l2.657-2.857c-9.783.4-10.872-4.214-10.872-4.214l3.728-1.8c-5.348-1.046-5.549-5.081-5.549-5.081s1.961,3.486,7.6,3.375c0,0-.948,2.353,4.832,2.788,0,0,4.88,2.084,8.422.528,0,0,1.19,2.417,5.435,2l-1.438,1.9s.441,2.489,5.7,1.254l-.767,2.442s1.729,2,8.5.512c0,0-2.117,1.384-1.422,2.086s2.834,1.043,4.679.861C1090.344,728.859,1097.569,734.554,1106.708,731.55Z" transform="translate(-1048.808 -710.514)" fill="#5ae4a7" opacity="0.4"/>
          </g>
          <path id="Path_1115" data-name="Path 1115" d="M1106.708,731.35s-10.473-1.164-16.937-12.7-40.962-7.743-40.962-7.743.2,4.039,5.542,5.079l-3.728,1.8s1.092,4.62,10.875,4.215l-2.654,2.86s4.11,3.359,14.421,1.883l-1.945,2.5s4.822,3.356,12.993,1l-.877,2.317s6.2.448,9.855-1.145C1093.293,731.419,1100.359,735.774,1106.708,731.35Z" transform="translate(-1048.809 -710.315)" fill="none" stroke="#1a2e35" stroke-linecap="round" stroke-linejoin="round" stroke-width="1"/>
        </g>
        <path id="Path_1116" data-name="Path 1116" d="M1063.631,714.031c-3.475.878-5.573.594-8.154,1.91,0,0,2.279,3.076,8.178,2.661" transform="translate(-1050.474 -711.243)" fill="#fff" stroke="#1a2e35" stroke-linecap="round" stroke-linejoin="round" stroke-width="1"/>
        <path id="Path_1117" data-name="Path 1117" d="M1068.413,721.706a24.531,24.531,0,0,0-4.364,1.367s.851,4,10.241,2.081" transform="translate(-1052.614 -713.159)" fill="none" stroke="#1a2e35" stroke-linecap="round" stroke-linejoin="round" stroke-width="1"/>
        <path id="Path_1118" data-name="Path 1118" d="M1081.653,728.089l-2.748,1.769a16.376,16.376,0,0,0,10.056.715" transform="translate(-1056.323 -714.753)" fill="none" stroke="#1a2e35" stroke-linecap="round" stroke-linejoin="round" stroke-width="1"/>
        <path id="Path_1119" data-name="Path 1119" d="M1095.038,731.532s-2.687,1.892-2.6,2.158,5.379,2.248,10.169-.357" transform="translate(-1059.702 -715.612)" fill="#fff" stroke="#1a2e35" stroke-linecap="round" stroke-linejoin="round" stroke-width="1"/>
        <path id="Path_1120" data-name="Path 1120" d="M1071.691,715.533c-1.646.713-6.517,1.457-6.839,2.171,0,0,1.6,4.461,9.773,1.944" transform="translate(-1052.814 -711.618)" fill="#fff" stroke="#1a2e35" stroke-linecap="round" stroke-linejoin="round" stroke-width="1"/>
        <path id="Path_1121" data-name="Path 1121" d="M1080.084,722.463a14.126,14.126,0,0,0-3.459,2s3.166,4.4,10.856.6" transform="translate(-1055.754 -713.348)" fill="#fff" stroke="#1a2e35" stroke-linecap="round" stroke-linejoin="round" stroke-width="1"/>
        <path id="Path_1122" data-name="Path 1122" d="M1091.426,725.92a5.439,5.439,0,0,0-2.919,3.181s3.8,2.458,10.318-.1" transform="translate(-1058.721 -714.211)" fill="#fff" stroke="#1a2e35" stroke-linecap="round" stroke-linejoin="round" stroke-width="1"/>
        <path id="Path_1123" data-name="Path 1123" d="M1081.363,717.562s-4.64.993-4.765,1.848a10.928,10.928,0,0,0,9.684,1.594" transform="translate(-1055.747 -712.125)" fill="#fff" stroke="#1a2e35" stroke-linecap="round" stroke-linejoin="round" stroke-width="1"/>
        <path id="Path_1124" data-name="Path 1124" d="M1089.83,721.6a5.128,5.128,0,0,0-1.831,1.532s1.792,2.659,6.411,1.213" transform="translate(-1058.594 -713.133)" fill="#fff" stroke="#1a2e35" stroke-linecap="round" stroke-linejoin="round" stroke-width="1"/>
      </g>
      <g id="Group_2586" data-name="Group 2586" transform="translate(39.627 2.055)">
        <path id="Path_1125" data-name="Path 1125" d="M1119.278,715.91l-3.635,1.252-1.736-3.637a.817.817,0,0,0-1.018-.423l-12.349,4.254a.98.98,0,0,0-.642,1l.323,4.124-20.626,7.1a2.063,2.063,0,0,0-1.3,2.448l8.329,31.4a1.733,1.733,0,0,0,2.269,1.219l39.682-13.669a2.064,2.064,0,0,0,1.3-2.448l-8.33-31.4A1.732,1.732,0,0,0,1119.278,715.91Z" transform="translate(-1078.234 -713.053)" fill="#fdb2b9"/>
        <g id="Group_2585" data-name="Group 2585" clip-path="url(#clip-path-2)">
          <path id="Path_1126" data-name="Path 1126" d="M1119.278,715.91l-3.635,1.252-1.736-3.637a.817.817,0,0,0-1.018-.423l-12.349,4.254a.98.98,0,0,0-.642,1l.323,4.124-20.626,7.1a2.063,2.063,0,0,0-1.3,2.448l8.329,31.4a1.733,1.733,0,0,0,2.269,1.219l39.682-13.669a2.064,2.064,0,0,0,1.3-2.448l-8.33-31.4A1.732,1.732,0,0,0,1119.278,715.91Z" transform="translate(-1078.234 -713.053)" opacity="0.2"/>
        </g>
      </g>
      <g id="Group_2588" data-name="Group 2588" transform="translate(33.075 7.117)">
        <path id="Path_1128" data-name="Path 1128" d="M1126.169,752.691l-39.685,13.67a2.182,2.182,0,0,1-2.61-1.1l-.194-.4-9.365-19.376-4.632-9.578a1.646,1.646,0,0,1,.952-2.328l39.685-13.67a2.18,2.18,0,0,1,2.609,1.1l14.192,29.355A1.64,1.64,0,0,1,1126.169,752.691Z" transform="translate(-1069.502 -719.8)" fill="#fc6574"/>
        <g id="Group_2587" data-name="Group 2587" clip-path="url(#clip-path-3)">
          <path id="Path_1129" data-name="Path 1129" d="M1099.426,754.288a11.722,11.722,0,0,1-9.77,10.6,22.416,22.416,0,0,1-4.374,8.521l-9.365-19.376C1083.841,755.4,1092.929,756.161,1099.426,754.288Z" transform="translate(-1071.104 -728.346)" opacity="0.2"/>
        </g>
        <path id="Path_1131" data-name="Path 1131" d="M1126.169,752.691l-39.685,13.67a2.182,2.182,0,0,1-2.61-1.1l-.194-.4-9.365-19.376-4.632-9.578a1.646,1.646,0,0,1,.952-2.328l39.685-13.67a2.18,2.18,0,0,1,2.609,1.1l14.192,29.355A1.64,1.64,0,0,1,1126.169,752.691Z" transform="translate(-1069.502 -719.8)" fill="none" stroke="#1a2e35" stroke-linecap="round" stroke-linejoin="round" stroke-width="1"/>
      </g>
      <g id="Group_2591" data-name="Group 2591" transform="translate(0 23.625)">
        <g id="Group_2590" data-name="Group 2590">
          <path id="Path_1132" data-name="Path 1132" d="M1086.816,751.233s-10.293,2.257-20.115-6.591-41.28,5.807-41.28,5.807,1.484,3.762,6.878,3.033l-2.953,2.9s2.516,4.026,11.652.5l-1.6,3.561s4.969,1.863,14.263-2.843l-1.039,2.992s5.642,1.631,12.627-3.221l-.088,2.477s6.02-1.566,8.968-4.247C1074.133,755.6,1082.223,757.46,1086.816,751.233Z" transform="translate(-1025.421 -741.802)" fill="#fff"/>
          <g id="Group_2589" data-name="Group 2589" clip-path="url(#clip-path-4)">
            <path id="Path_1133" data-name="Path 1133" d="M1086.818,754c-4.594,6.225-12.684,4.369-12.684,4.369-2.952,2.676-8.965,4.247-8.965,4.247l.082-2.481c-6.985,4.858-12.627,3.223-12.627,3.223l1.04-2.993c-9.29,4.708-14.265,2.842-14.265,2.842l1.6-3.559c-9.136,3.521-11.648-.5-11.648-.5l2.953-2.9c-5.4.725-6.885-3.032-6.885-3.032s2.976,2.673,8.284.757c0,0-.143,2.533,5.471,1.092,0,0,5.291.407,8.146-2.2,0,0,1.9,1.908,5.792.156l-.753,2.259s1.216,2.216,5.8-.642l.056,2.56s2.28,1.342,8.212-2.241c0,0-1.561,1.99-.678,2.432s3.019.079,4.708-.685C1070.455,756.7,1079.125,759.772,1086.818,754Z" transform="translate(-1025.42 -744.562)" fill="#5ae4a7" opacity="0.4"/>
          </g>
          <path id="Path_1135" data-name="Path 1135" d="M1086.816,751.233s-10.293,2.257-20.115-6.591-41.28,5.807-41.28,5.807,1.484,3.762,6.878,3.033l-2.953,2.9s2.516,4.026,11.652.5l-1.6,3.561s4.969,1.863,14.263-2.843l-1.039,2.992s5.642,1.631,12.627-3.221l-.088,2.477s6.02-1.566,8.968-4.247C1074.133,755.6,1082.223,757.46,1086.816,751.233Z" transform="translate(-1025.421 -741.802)" fill="none" stroke="#1a2e35" stroke-linecap="round" stroke-linejoin="round" stroke-width="1"/>
        </g>
        <path id="Path_1136" data-name="Path 1136" d="M1040.6,750.469c-3.01,1.946-5.087,2.349-7.111,4.425,0,0,3.146,2.182,8.6-.1" transform="translate(-1027.436 -743.966)" fill="#fff" stroke="#1a2e35" stroke-linecap="round" stroke-linejoin="round" stroke-width="1"/>
        <path id="Path_1137" data-name="Path 1137" d="M1047.534,756.609a24.532,24.532,0,0,0-3.695,2.694s2.089,3.515,10.368-1.314" transform="translate(-1030.02 -745.499)" fill="none" stroke="#1a2e35" stroke-linecap="round" stroke-linejoin="round" stroke-width="1"/>
        <path id="Path_1138" data-name="Path 1138" d="M1062.166,758.579l-2.036,2.557a16.372,16.372,0,0,0,9.754-2.548" transform="translate(-1034.087 -745.991)" fill="none" stroke="#1a2e35" stroke-linecap="round" stroke-linejoin="round" stroke-width="1"/>
        <path id="Path_1139" data-name="Path 1139" d="M1075.986,757.321s-1.939,2.654-1.769,2.877,5.816.4,9.518-3.6" transform="translate(-1037.602 -745.496)" fill="#fff" stroke="#1a2e35" stroke-linecap="round" stroke-linejoin="round" stroke-width="1"/>
        <path id="Path_1140" data-name="Path 1140" d="M1048.745,749.446c-1.33,1.2-5.7,3.47-5.781,4.25,0,0,2.941,3.713,9.88-1.294" transform="translate(-1029.801 -743.711)" fill="#fff" stroke="#1a2e35" stroke-linecap="round" stroke-linejoin="round" stroke-width="1"/>
        <path id="Path_1141" data-name="Path 1141" d="M1058.9,753.678a14.15,14.15,0,0,0-2.636,3s4.411,3.154,10.476-2.911" transform="translate(-1033.121 -744.767)" fill="#fff" stroke="#1a2e35" stroke-linecap="round" stroke-linejoin="round" stroke-width="1"/>
        <path id="Path_1142" data-name="Path 1142" d="M1070.876,753.371a5.441,5.441,0,0,0-1.745,3.95s4.386,1.11,9.742-3.4" transform="translate(-1036.334 -744.691)" fill="#fff" stroke="#1a2e35" stroke-linecap="round" stroke-linejoin="round" stroke-width="1"/>
        <path id="Path_1143" data-name="Path 1143" d="M1058.52,748.486s-4.077,2.43-3.92,3.279a10.926,10.926,0,0,0,9.684-1.6" transform="translate(-1032.705 -743.471)" fill="#fff" stroke="#1a2e35" stroke-linecap="round" stroke-linejoin="round" stroke-width="1"/>
        <path id="Path_1144" data-name="Path 1144" d="M1067.8,749.908a5.134,5.134,0,0,0-1.242,2.038s2.551,1.944,6.462-.909" transform="translate(-1035.692 -743.826)" fill="#fff" stroke="#1a2e35" stroke-linecap="round" stroke-linejoin="round" stroke-width="1"/>
      </g>
    </g>
    <path id="Path_1145" data-name="Path 1145" d="M1000.269,869.373c16.057-5.428,48.659-24.275,42.612-57.746-4.391-24.307-24.5-22.144-30.541-17.13-10.262,8.509-11.815,28.536,3.031,32.7,30.243,8.476,51.572-39.875,51.572-39.875" transform="translate(-46.83 -19.403)" fill="none" stroke="#1a2e35" stroke-linecap="round" stroke-linejoin="round" stroke-width="2" stroke-dasharray="8 5"/>
    <g id="Group_2612" data-name="Group 2612" transform="translate(836.156 749.231)">
      <g id="Group_2594" data-name="Group 2594" transform="translate(1.971 151.191)">
        <path id="Path_1146" data-name="Path 1146" d="M846.586,973.519s-.427,19.334,31.583,33.592,119.049,21.209,134.9-29.035l-49.3-14.159H897.635l-14.561,6.6Z" transform="translate(-846.586 -963.917)" fill="#5ae4a7"/>
        <g id="Group_2593" data-name="Group 2593" clip-path="url(#clip-path-5)">
          <path id="Path_1147" data-name="Path 1147" d="M846.586,973.519s-.427,19.334,31.583,33.592,119.049,21.209,134.9-29.035l-49.3-14.159H897.635l-14.561,6.6Z" transform="translate(-846.586 -963.917)" fill="#fdb2b9" opacity="0.2"/>
        </g>
        <path id="Path_1149" data-name="Path 1149" d="M846.586,973.519s-.427,19.334,31.583,33.592,119.049,21.209,134.9-29.035l-49.3-14.159H897.635l-14.561,6.6Z" transform="translate(-846.586 -963.917)" fill="none" stroke="#1a2e35" stroke-linecap="round" stroke-linejoin="round" stroke-width="1"/>
      </g>
      <path id="Path_1150" data-name="Path 1150" d="M888.859,863.581c-5.808,5.185-25.946,63.808-23.343,70.169s36.741,12.235,36.741,12.235-3.374-66.158-3.547-67.264S888.859,863.581,888.859,863.581Z" transform="translate(-849.284 -787.674)" fill="#1a2e35"/>
      <path id="Path_1151" data-name="Path 1151" d="M1012.833,863.581c5.807,5.185,25.945,63.808,23.343,70.169s-36.741,12.235-36.741,12.235,3.374-66.158,3.547-67.264S1012.833,863.581,1012.833,863.581Z" transform="translate(-882.778 -787.674)" fill="#1a2e35"/>
      <path id="Path_1152" data-name="Path 1152" d="M896.7,858.234s13.4-15.14,45.094-16.038c25.466-.723,42.9,11.89,45.386,16.038s-11.326,59.453-11.326,59.453l7.731,29.773s-41.479,13.826-78.534,0l4.978-31.432S896.979,865.977,896.7,858.234Z" transform="translate(-857.128 -782.328)" fill="#1a2e35"/>
      <g id="Group_2595" data-name="Group 2595" transform="translate(28.777 65.952)" opacity="0.5">
        <path id="Path_1153" data-name="Path 1153" d="M972.666,850.314s-11.479,12.65-23.134,9.125" transform="translate(-899.095 -850.314)" fill="none" stroke="#fff" stroke-linecap="round" stroke-linejoin="round" stroke-width="1"/>
        <path id="Path_1154" data-name="Path 1154" d="M967.57,881.433a65.294,65.294,0,0,0,8.13,1.05" transform="translate(-903.599 -858.084)" fill="none" stroke="#fff" stroke-linecap="round" stroke-linejoin="round" stroke-width="1"/>
        <path id="Path_1155" data-name="Path 1155" d="M923.685,860.211c7.282,6.623,18.027,12.3,29.376,15.137" transform="translate(-892.642 -852.785)" fill="none" stroke="#fff" stroke-linecap="round" stroke-linejoin="round" stroke-width="1"/>
        <path id="Path_1156" data-name="Path 1156" d="M1006.507,877.684a36.13,36.13,0,0,0-4.235,14.634" transform="translate(-912.263 -857.148)" fill="none" stroke="#fff" stroke-linecap="round" stroke-linejoin="round" stroke-width="1"/>
        <path id="Path_1157" data-name="Path 1157" d="M1013.874,866.9a40.616,40.616,0,0,0-3.346,4.657" transform="translate(-914.324 -854.455)" fill="none" stroke="#fff" stroke-linecap="round" stroke-linejoin="round" stroke-width="1"/>
        <path id="Path_1158" data-name="Path 1158" d="M1013.057,887.905c-5.185,2.281-9.955,10.369-9.955,10.369a62.358,62.358,0,0,1,4.977,13.273" transform="translate(-912.47 -859.7)" fill="none" stroke="#fff" stroke-linecap="round" stroke-linejoin="round" stroke-width="1"/>
        <path id="Path_1159" data-name="Path 1159" d="M1005.866,943.353s4.852-.786,7.881-4.028,11.821-2.369,13.066,0" transform="translate(-913.16 -872.01)" fill="none" stroke="#fff" stroke-linecap="round" stroke-linejoin="round" stroke-width="1"/>
        <path id="Path_1160" data-name="Path 1160" d="M1020.514,933.993s3.112-4.744,9.956-1.426" transform="translate(-916.818 -870.556)" fill="none" stroke="#fff" stroke-linecap="round" stroke-linejoin="round" stroke-width="1"/>
        <path id="Path_1161" data-name="Path 1161" d="M900.3,868.841s6.835,4.555,7.5,16.986" transform="translate(-886.802 -854.94)" fill="none" stroke="#fff" stroke-linecap="round" stroke-linejoin="round" stroke-width="1"/>
        <path id="Path_1162" data-name="Path 1162" d="M904.876,908.123c-1.853,5.122-3.865,10.362-4.874,15.732" transform="translate(-886.729 -864.748)" fill="none" stroke="#fff" stroke-linecap="round" stroke-linejoin="round" stroke-width="1"/>
        <path id="Path_1163" data-name="Path 1163" d="M902.249,891.479c1.813.461,5.916,2.181,6.265,4.293.163.984-1.282,3.34-1.621,4.243" transform="translate(-887.29 -860.592)" fill="none" stroke="#fff" stroke-linecap="round" stroke-linejoin="round" stroke-width="1"/>
        <path id="Path_1164" data-name="Path 1164" d="M892.311,935.668a4.2,4.2,0,0,1,3.966,1.135" transform="translate(-884.809 -871.604)" fill="none" stroke="#fff" stroke-linecap="round" stroke-linejoin="round" stroke-width="1"/>
        <path id="Path_1165" data-name="Path 1165" d="M882.312,939.319a26.419,26.419,0,0,1,3.892-2.136" transform="translate(-882.312 -872.003)" fill="none" stroke="#fff" stroke-linecap="round" stroke-linejoin="round" stroke-width="1"/>
        <path id="Path_1166" data-name="Path 1166" d="M891.433,942.3s.443-3.7,6.651-2.368,20.928,5.9,20.928,5.9" transform="translate(-884.589 -872.618)" fill="none" stroke="#fff" stroke-linecap="round" stroke-linejoin="round" stroke-width="1"/>
      </g>
      <path id="Path_1167" data-name="Path 1167" d="M967.671,839.671s-7.128,7.016-15.719,7.016-16.867-8.126-16.867-8.126,4.449-2.214,5.642-6.648a7.19,7.19,0,0,0,.18-.818c.323-1.943-.2-5.222-.945-8.516-1.178-5.14-2.926-10.287-2.926-10.287h27.875s-1.321,6.43-2.191,12.358c-.158,1.088-.308,2.153-.42,3.166-.128,1.088-.233,2.1-.285,3C961.63,837.1,967.671,839.671,967.671,839.671Z" transform="translate(-866.711 -774.869)" fill="#fff" stroke="#1a2e35" stroke-linecap="round" stroke-linejoin="round" stroke-width="1"/>
      <g id="Group_2599" data-name="Group 2599" transform="translate(38.717 108.9)">
        <g id="Group_2597" data-name="Group 2597" transform="translate(7.747 56.289)">
          <path id="Path_1168" data-name="Path 1168" d="M986.618,982.573v3.219a2.082,2.082,0,0,1-.063.514,2.184,2.184,0,0,1-2.117,1.657H908.065a2.184,2.184,0,0,1-2.118-1.657,2.088,2.088,0,0,1-.063-.514v-3.219Z" transform="translate(-905.884 -982.573)" fill="#757575"/>
          <g id="Group_2596" data-name="Group 2596" clip-path="url(#clip-path-6)">
            <path id="Path_1169" data-name="Path 1169" d="M986.618,982.573v3.219a2.082,2.082,0,0,1-.063.514H905.947a2.088,2.088,0,0,1-.063-.514v-3.219Z" transform="translate(-905.884 -982.573)" opacity="0.2"/>
          </g>
          <path id="Path_1171" data-name="Path 1171" d="M986.618,982.573v3.219a2.082,2.082,0,0,1-.063.514,2.184,2.184,0,0,1-2.117,1.657H908.065a2.184,2.184,0,0,1-2.118-1.657,2.088,2.088,0,0,1-.063-.514v-3.219Z" transform="translate(-905.884 -982.573)" fill="none" stroke="#1a2e35" stroke-linecap="round" stroke-linejoin="round" stroke-width="1"/>
        </g>
        <path id="Path_1172" data-name="Path 1172" d="M983.284,965.986H904.06a1.579,1.579,0,0,1-1.606-1.238l-6.881-55.495a1.475,1.475,0,0,1,1.5-1.7h93.2a1.475,1.475,0,0,1,1.5,1.7l-6.881,55.495A1.578,1.578,0,0,1,983.284,965.986Z" transform="translate(-895.56 -907.553)" fill="#757575" stroke="#1a2e35" stroke-linecap="round" stroke-linejoin="round" stroke-width="1"/>
        <path id="Path_1173" data-name="Path 1173" d="M905.051,965.761l-6.782-53.221a1.1,1.1,0,0,1,1.076-1.211h90a1.1,1.1,0,0,1,1.076,1.211l-6.782,53.221" transform="translate(-896.234 -908.496)" fill="#fff" opacity="0.2"/>
        <path id="Path_1174" data-name="Path 1174" d="M905.051,965.761l-6.782-53.221a1.1,1.1,0,0,1,1.076-1.211h90a1.1,1.1,0,0,1,1.076,1.211l-6.782,53.221" transform="translate(-896.234 -908.496)" fill="none" stroke="#1a2e35" stroke-linecap="round" stroke-linejoin="round" stroke-width="1"/>
        <g id="Group_2598" data-name="Group 2598" transform="translate(40.872 24.14)">
          <path id="Path_1175" data-name="Path 1175" d="M958.173,949.627h-8.142l9.457-9.9-4.391,7.857Z" transform="translate(-950.031 -939.726)" fill="#fc6574" stroke="#1a2e35" stroke-linecap="round" stroke-linejoin="round" stroke-width="1"/>
          <path id="Path_1176" data-name="Path 1176" d="M956.631,956.62l10.038-9.693H958.72l2.85,2.1Z" transform="translate(-951.679 -941.524)" fill="#fc6574" stroke="#1a2e35" stroke-linecap="round" stroke-linejoin="round" stroke-width="1"/>
        </g>
      </g>
      <g id="Group_2608" data-name="Group 2608" transform="translate(0 145.599)">
        <g id="Group_2602" data-name="Group 2602" transform="translate(99.916 46.107)">
          <path id="Path_1177" data-name="Path 1177" d="M1030.076,1027.546l2.4,2.728s2.237,5.118-3.968,11.383-22.343,7.53-28.618,6.415l-3.955.533-13.451-2.888s-6.812-3.334-4.031-9.179S1030.076,1027.546,1030.076,1027.546Z" transform="translate(-977.288 -1020.318)" fill="#fc6574" stroke="#1a2e35" stroke-linecap="round" stroke-linejoin="round" stroke-width="1"/>
          <g id="Group_2601" data-name="Group 2601">
            <path id="Path_1178" data-name="Path 1178" d="M1025.784,1038.285c-5.2,5.421-21.861,6.5-28.812,4.918-1.9-.43-8.807-.681-13.956-2.526-2.779-.986-5.043-2.432-5.735-4.624-1.992-6.249,15.591-18.139,15.591-18.139s11.219,2.16,13.546,2.715a44.2,44.2,0,0,0,8.22,1.143c5.337.231,8.944-.482,12.855,1.2C1031.949,1024.886,1032.012,1031.785,1025.784,1038.285Z" transform="translate(-977.123 -1017.913)" fill="#757575"/>
            <g id="Group_2600" data-name="Group 2600" clip-path="url(#clip-path-7)">
              <path id="Path_1179" data-name="Path 1179" d="M1014.638,1021.771c-4.005,6.543-14.008,19.1-31.623,18.905-2.779-.986-5.043-2.432-5.735-4.624-1.992-6.249,15.591-18.139,15.591-18.139s11.219,2.16,13.546,2.715A44.2,44.2,0,0,0,1014.638,1021.771Z" transform="translate(-977.123 -1017.913)" opacity="0.2"/>
            </g>
            <path id="Path_1181" data-name="Path 1181" d="M1025.784,1038.285c-5.2,5.421-21.861,6.5-28.812,4.918-1.9-.43-8.807-.681-13.956-2.526-2.779-.986-5.043-2.432-5.735-4.624-1.992-6.249,15.591-18.139,15.591-18.139s11.219,2.16,13.546,2.715a44.2,44.2,0,0,0,8.22,1.143c5.337.231,8.944-.482,12.855,1.2C1031.949,1024.886,1032.012,1031.785,1025.784,1038.285Z" transform="translate(-977.123 -1017.913)" fill="none" stroke="#1a2e35" stroke-linecap="round" stroke-linejoin="round" stroke-width="1"/>
          </g>
          <path id="Path_1182" data-name="Path 1182" d="M993.864,1028.082s17.263,5.207,20.5,4.872,3.638,2.316,3.638,2.316" transform="translate(-981.303 -1020.452)" fill="none" stroke="#1a2e35" stroke-linecap="round" stroke-linejoin="round" stroke-width="1"/>
          <path id="Path_1183" data-name="Path 1183" d="M997.552,1019.708s18.94,4.056,21.23,4.728a6.563,6.563,0,0,0,4.194-.186" transform="translate(-982.224 -1018.361)" fill="none" stroke="#1a2e35" stroke-linecap="round" stroke-linejoin="round" stroke-width="1"/>
          <path id="Path_1184" data-name="Path 1184" d="M1000.237,1020.133a10.644,10.644,0,0,1-5.985,8.669" transform="translate(-981.4 -1018.467)" fill="none" stroke="#1a2e35" stroke-linecap="round" stroke-linejoin="round" stroke-width="1"/>
          <path id="Path_1185" data-name="Path 1185" d="M1005.286,1021a13.2,13.2,0,0,1-5.017,9.157" transform="translate(-982.902 -1018.683)" fill="none" stroke="#1a2e35" stroke-linecap="round" stroke-linejoin="round" stroke-width="1"/>
          <path id="Path_1186" data-name="Path 1186" d="M1010.361,1022.72s1.022,5.54-4.867,9.614" transform="translate(-984.207 -1019.113)" fill="none" stroke="#1a2e35" stroke-linecap="round" stroke-linejoin="round" stroke-width="1"/>
          <path id="Path_1187" data-name="Path 1187" d="M1015.689,1023.31s.892,6.981-4.792,10.558" transform="translate(-985.556 -1019.26)" fill="none" stroke="#1a2e35" stroke-linecap="round" stroke-linejoin="round" stroke-width="1"/>
          <path id="Path_1188" data-name="Path 1188" d="M1021.305,1024.121s-.147,7.286-4.946,10.406" transform="translate(-986.919 -1019.463)" fill="none" stroke="#1a2e35" stroke-linecap="round" stroke-linejoin="round" stroke-width="1"/>
          <path id="Path_1189" data-name="Path 1189" d="M1026.107,1025.363s1.259,6.187-3.891,9.964" transform="translate(-988.382 -1019.773)" fill="none" stroke="#1a2e35" stroke-linecap="round" stroke-linejoin="round" stroke-width="1"/>
        </g>
        <g id="Group_2605" data-name="Group 2605" transform="translate(0 0.087)">
          <g id="Group_2604" data-name="Group 2604">
            <path id="Path_1190" data-name="Path 1190" d="M960.956,999.726c-1.678,11.334-19.157,23.654-19.157,23.654s-4.844-4.539-6.438-4.351-8.262-.283-8.262-.283-52.666-19.7-58.958-19.806c-3.942-.063-15.319-3.523-20.949-12.5-3.344-5.326-4.655-12.6-1.2-22.259,5.7-15.927,33.814-4.194,61.379,11.03,9.153,5.065,17.279,9.122,23.843,12.215,10.914,5.137,17.552,7.612,17.552,7.612l3.649-1.3Z" transform="translate(-843.959 -956.579)" fill="#fc6574"/>
            <g id="Group_2603" data-name="Group 2603" clip-path="url(#clip-path-8)">
              <path id="Path_1191" data-name="Path 1191" d="M962.032,1009.663c-1.678,11.334-19.157,23.654-19.157,23.654s-4.844-4.54-6.438-4.351-8.262-.283-8.262-.283-52.666-19.7-58.958-19.806c-3.942-.063-15.319-3.523-20.949-12.5,6.616.493,17.877,1.594,23.246,3.607,0,0-6.008,1.49-4.352,2.936s25.751,4.278,34.234,2.139c7.665-1.93,22.973-7.141,30.9-7.7,10.914,5.137,17.552,7.612,17.552,7.612l3.649-1.3Z" transform="translate(-845.035 -966.516)" opacity="0.2"/>
            </g>
            <path id="Path_1193" data-name="Path 1193" d="M960.956,999.726c-1.678,11.334-19.157,23.654-19.157,23.654s-4.844-4.539-6.438-4.351-8.262-.283-8.262-.283-52.666-19.7-58.958-19.806c-3.942-.063-15.319-3.523-20.949-12.5-3.344-5.326-4.655-12.6-1.2-22.259,5.7-15.927,33.814-4.194,61.379,11.03,9.153,5.065,17.279,9.122,23.843,12.215,10.914,5.137,17.552,7.612,17.552,7.612l3.649-1.3Z" transform="translate(-843.959 -956.579)" fill="none" stroke="#1a2e35" stroke-linecap="round" stroke-linejoin="round" stroke-width="1"/>
          </g>
          <path id="Path_1194" data-name="Path 1194" d="M937.756,999.087c1.866-.323,3.722-.708,5.555-1.189" transform="translate(-867.378 -966.896)" fill="none" stroke="#1a2e35" stroke-linecap="round" stroke-linejoin="round" stroke-width="1"/>
          <path id="Path_1195" data-name="Path 1195" d="M871.309,1000.669c15.257,1.219,30.962,1.569,46.155-.438" transform="translate(-850.788 -967.478)" fill="none" stroke="#1a2e35" stroke-linecap="round" stroke-linejoin="round" stroke-width="1"/>
        </g>
        <g id="Group_2606" data-name="Group 2606" transform="translate(16.632 47.158)">
          <path id="Path_1196" data-name="Path 1196" d="M868.916,1028.943l-2.4,2.729s-2.237,5.118,3.968,11.383,22.343,7.53,28.619,6.414l3.954.534,13.451-2.888s6.812-3.334,4.031-9.18S868.916,1028.943,868.916,1028.943Z" transform="translate(-866.126 -1021.718)" fill="#fc6574" stroke="#1a2e35" stroke-linecap="round" stroke-linejoin="round" stroke-width="1"/>
          <path id="Path_1197" data-name="Path 1197" d="M906.634,1019.314s-11.217,2.158-13.546,2.709c-10.427,2.463-15.45-.071-21.074,2.345-4.456,1.915-4.522,8.82,1.7,15.314,5.2,5.423,21.861,6.5,28.815,4.923,2.917-.663,17.709-.918,19.694-7.16S906.634,1019.314,906.634,1019.314Z" transform="translate(-866.803 -1019.314)" fill="#757575" stroke="#1a2e35" stroke-linecap="round" stroke-linejoin="round" stroke-width="1"/>
          <path id="Path_1198" data-name="Path 1198" d="M915.425,1029.479s-17.263,5.208-20.5,4.873-3.638,2.315-3.638,2.315" transform="translate(-872.408 -1021.852)" fill="none" stroke="#1a2e35" stroke-linecap="round" stroke-linejoin="round" stroke-width="1"/>
          <path id="Path_1199" data-name="Path 1199" d="M911.309,1021.106s-18.94,4.056-21.231,4.727a6.564,6.564,0,0,1-4.194-.186" transform="translate(-871.059 -1019.761)" fill="none" stroke="#1a2e35" stroke-linecap="round" stroke-linejoin="round" stroke-width="1"/>
          <path id="Path_1200" data-name="Path 1200" d="M915.092,1021.53a10.648,10.648,0,0,0,5.985,8.669" transform="translate(-878.351 -1019.867)" fill="none" stroke="#1a2e35" stroke-linecap="round" stroke-linejoin="round" stroke-width="1"/>
          <path id="Path_1201" data-name="Path 1201" d="M910.365,1022.393a13.211,13.211,0,0,0,5.017,9.158" transform="translate(-877.171 -1020.083)" fill="none" stroke="#1a2e35" stroke-linecap="round" stroke-linejoin="round" stroke-width="1"/>
          <path id="Path_1202" data-name="Path 1202" d="M905.318,1024.117s-1.022,5.54,4.867,9.614" transform="translate(-875.894 -1020.513)" fill="none" stroke="#1a2e35" stroke-linecap="round" stroke-linejoin="round" stroke-width="1"/>
          <path id="Path_1203" data-name="Path 1203" d="M900.021,1024.708s-.893,6.98,4.792,10.558" transform="translate(-874.576 -1020.661)" fill="none" stroke="#1a2e35" stroke-linecap="round" stroke-linejoin="round" stroke-width="1"/>
          <path id="Path_1204" data-name="Path 1204" d="M894.37,1025.519s.147,7.286,4.946,10.406" transform="translate(-873.178 -1020.863)" fill="none" stroke="#1a2e35" stroke-linecap="round" stroke-linejoin="round" stroke-width="1"/>
          <path id="Path_1205" data-name="Path 1205" d="M889.874,1026.761s-1.259,6.186,3.891,9.964" transform="translate(-872.021 -1021.173)" fill="none" stroke="#1a2e35" stroke-linecap="round" stroke-linejoin="round" stroke-width="1"/>
        </g>
        <g id="Group_2607" data-name="Group 2607" transform="translate(54.103)">
          <path id="Path_1206" data-name="Path 1206" d="M1030.953,964.045c-5.739-15.919-33.824-4.134-61.354,11.148-24.341,13.511-41.361,19.9-41.361,19.9l-3.646-1.291-8.527,6.009c1.694,11.331,19.205,23.613,19.205,23.613s4.828-4.55,6.43-4.365,8.252-.3,8.252-.3,52.637-19.8,58.922-19.913S1040.3,989.97,1030.953,964.045Z" transform="translate(-916.065 -956.464)" fill="#fc6574" stroke="#1a2e35" stroke-linecap="round" stroke-linejoin="round" stroke-width="1"/>
          <path id="Path_1207" data-name="Path 1207" d="M967.389,1021.081q2.284.163,4.575.176" transform="translate(-928.879 -972.597)" fill="none" stroke="#1a2e35" stroke-linecap="round" stroke-linejoin="round" stroke-width="1"/>
          <path id="Path_1208" data-name="Path 1208" d="M932.288,1007.951c5.5,5.841,14.53,8.374,22.171,9.422" transform="translate(-920.115 -969.319)" fill="none" stroke="#1a2e35" stroke-linecap="round" stroke-linejoin="round" stroke-width="1"/>
          <path id="Path_1209" data-name="Path 1209" d="M1014.855,994.19c10.765,2.052,22.744,3.925,33.575,1.394" transform="translate(-940.73 -965.883)" fill="none" stroke="#1a2e35" stroke-linecap="round" stroke-linejoin="round" stroke-width="1"/>
          <path id="Path_1210" data-name="Path 1210" d="M1003.842,991.788c1.52.384,3.05.731,4.583,1.058" transform="translate(-937.981 -965.283)" fill="none" stroke="#1a2e35" stroke-linecap="round" stroke-linejoin="round" stroke-width="1"/>
        </g>
      </g>
      <path id="Path_1211" data-name="Path 1211" d="M964.341,828.073c-.158,1.088-.308,2.153-.42,3.166-2.806,2.874-7.466,6.828-12.013,6.963-3.294.1-6.768-1.313-9.559-2.866a7.158,7.158,0,0,0,.18-.818c.323-1.943-.2-5.222-.945-8.516Z" transform="translate(-868.334 -778.292)" fill="#1a2e35"/>
      <g id="Group_2611" data-name="Group 2611" transform="translate(61.965 0)">
        <g id="Group_2609" data-name="Group 2609" transform="translate(0 30.165)">
          <path id="Path_1212" data-name="Path 1212" d="M981.105,804.039s2.048-1.926,3.055-1.293a3.855,3.855,0,0,1,1.646,4.063c-.548,1.636-2.926,4.485-3.109,6.147s-1.416,3.545-2.766,2.445S981.105,804.039,981.105,804.039Z" transform="translate(-939.774 -802.619)" fill="#fff" stroke="#1a2e35" stroke-linecap="round" stroke-linejoin="round" stroke-width="1"/>
          <path id="Path_1213" data-name="Path 1213" d="M931.384,804.039s-2.048-1.926-3.055-1.293a3.856,3.856,0,0,0-1.646,4.063c.548,1.636,2.926,4.485,3.109,6.147s1.416,3.545,2.766,2.445S931.384,804.039,931.384,804.039Z" transform="translate(-926.544 -802.619)" fill="#fff" stroke="#1a2e35" stroke-linecap="round" stroke-linejoin="round" stroke-width="1"/>
        </g>
        <path id="Path_1214" data-name="Path 1214" d="M950.6,769.43c26.635,0,19.429,32.205,14.528,43.594-1.721,4-10.216,9.6-14.528,9.6-4.011,0-12.032-5.28-13.66-9.037C931.988,802.146,925.217,769.43,950.6,769.43Z" transform="translate(-927.967 -764.167)" fill="#fff" stroke="#1a2e35" stroke-linecap="round" stroke-linejoin="round" stroke-width="1"/>
        <g id="Group_2610" data-name="Group 2610" transform="translate(9.937 30.823)">
          <path id="Path_1215" data-name="Path 1215" d="M962.731,804.032s6.937-2.144,9.08,2.144" transform="translate(-945.516 -803.495)" fill="none" stroke="#1a2e35" stroke-linecap="round" stroke-linejoin="round" stroke-width="1"/>
          <path id="Path_1216" data-name="Path 1216" d="M968.958,811.491c0,.818-.416,1.482-.928,1.482s-.928-.664-.928-1.482.415-1.482.928-1.482S968.958,810.672,968.958,811.491Z" transform="translate(-946.608 -805.122)" fill="#1a2e35"/>
          <path id="Path_1217" data-name="Path 1217" d="M948.868,804.032s-6.936-2.144-9.08,2.144" transform="translate(-939.788 -803.495)" fill="none" stroke="#1a2e35" stroke-linecap="round" stroke-linejoin="round" stroke-width="1"/>
          <path id="Path_1218" data-name="Path 1218" d="M945.046,811.491c0,.818.416,1.482.928,1.482s.928-.664.928-1.482-.416-1.482-.928-1.482S945.046,810.672,945.046,811.491Z" transform="translate(-941.101 -805.122)" fill="#1a2e35"/>
        </g>
        <path id="Path_1219" data-name="Path 1219" d="M953.085,820.094c-1.009,1.071,2.473,2.837,3.128,2.837s3.3-1.387,3.3-2.207" transform="translate(-933.125 -776.817)" fill="#fff" stroke="#1a2e35" stroke-linecap="round" stroke-linejoin="round" stroke-width="1"/>
        <path id="Path_1220" data-name="Path 1220" d="M961.014,777.458a33.718,33.718,0,0,1-20.526,0s-3.594-.21-5.013,1.6,0,7.389.378,9.658-3.121,3.847-2.648,9.585l-.474,2.168s-3.878-9.862-2.932-17.807,5.2-10.594,5.2-10.594,2.286-6.862,15.689-6.81c14.445.056,15.9,7.875,15.9,7.875s8.986,6.786,1.741,28.068l-.763-2.9a11.907,11.907,0,0,0-1.828-8.071c-1.262-1.841.756-7.378.284-10.216S961.014,777.458,961.014,777.458Z" transform="translate(-927.32 -763.125)" fill="#1a2e35"/>
        <path id="Path_1221" data-name="Path 1221" d="M949.6,827.353a13.563,13.563,0,0,0,5.784,1.258,15.046,15.046,0,0,0,5.53-.933" transform="translate(-932.301 -778.629)" fill="#fff" stroke="#1a2e35" stroke-linecap="round" stroke-linejoin="round" stroke-width="1"/>
        <path id="Path_1222" data-name="Path 1222" d="M960.064,779.284a27.006,27.006,0,0,0,3.124,8.3c2.268,3.595,4.909,3.958,5.663,8.339,0,0,6.916-11.657,1.069-21.889,0,0-1.835-11.614-19.879-11.614s-26.386,12.567-19.381,31.863a10.454,10.454,0,0,0,6.233-8.5,10.314,10.314,0,0,1-1.854,7.456s9.287-1.372,11.695-9.115c0,0-.936,5.146-4.039,7.328,0,0,3.506,4.425,7.535-2.489S956.607,777.9,960.064,779.284Z" transform="translate(-926.955 -762.416)" fill="#1a2e35"/>
        <path id="Path_1223" data-name="Path 1223" d="M950.042,786.91c-1.127,1.612-2.709,4.107-5,3.865" transform="translate(-931.164 -768.532)" fill="none" stroke="#fff" stroke-linecap="round" stroke-linejoin="round" stroke-width="1" opacity="0.2"/>
        <path id="Path_1224" data-name="Path 1224" d="M965.655,777.2c-3.038-6.183-9.63,1.39-11.783,4.384" transform="translate(-933.367 -765.517)" fill="none" stroke="#fff" stroke-linecap="round" stroke-linejoin="round" stroke-width="1" opacity="0.2"/>
        <path id="Path_1225" data-name="Path 1225" d="M934.831,779.808a6.689,6.689,0,0,1-2.589,1.465" transform="translate(-927.967 -766.758)" fill="none" stroke="#fff" stroke-linecap="round" stroke-linejoin="round" stroke-width="1" opacity="0.2"/>
        <path id="Path_1226" data-name="Path 1226" d="M958.136,769.456c-6.127-6.409-14.817,1.05-19.67,5.319" transform="translate(-929.521 -763.551)" fill="none" stroke="#fff" stroke-linecap="round" stroke-linejoin="round" stroke-width="1" opacity="0.2"/>
        <path id="Path_1227" data-name="Path 1227" d="M981.182,780.017a13.321,13.321,0,0,1,1.968,5.458" transform="translate(-940.186 -766.81)" fill="none" stroke="#fff" stroke-linecap="round" stroke-linejoin="round" stroke-width="1" opacity="0.2"/>
        <path id="Path_1228" data-name="Path 1228" d="M974.833,776.43a4.977,4.977,0,0,1,2.764.759" transform="translate(-938.601 -765.914)" fill="none" stroke="#fff" stroke-linecap="round" stroke-linejoin="round" stroke-width="1" opacity="0.2"/>
        <path id="Path_1229" data-name="Path 1229" d="M972.35,771.5s1.329-3.512,4-.94" transform="translate(-937.981 -764.214)" fill="none" stroke="#fff" stroke-linecap="round" stroke-linejoin="round" stroke-width="1" opacity="0.2"/>
      </g>
    </g>
  </g>
</svg>
