<svg id="Group_3544" data-name="Group 3544" xmlns="http://www.w3.org/2000/svg" width="24" height="24" viewBox="0 0 24 24">
  <path id="Path_2685" data-name="Path 2685" d="M0,0H24V24H0Z" fill="none"/>
  <path id="Path_2686" data-name="Path 2686" d="M17.8,19.817l-2.172,1.138a.392.392,0,0,1-.568-.41l.415-2.411-1.757-1.707a.389.389,0,0,1,.217-.665l2.428-.352,1.086-2.193a.392.392,0,0,1,.7,0l1.086,2.193,2.428.352a.39.39,0,0,1,.217.665l-1.757,1.707.414,2.41a.39.39,0,0,1-.567.411Z" fill="none" stroke="#2c3e50" stroke-linecap="round" stroke-linejoin="round" stroke-width="1.5"/>
  <path id="Path_2687" data-name="Path 2687" d="M6.2,19.817,4.028,20.955a.392.392,0,0,1-.568-.41l.415-2.411L2.118,16.427a.389.389,0,0,1,.217-.665l2.428-.352,1.086-2.193a.392.392,0,0,1,.7,0L7.637,15.41l2.428.352a.39.39,0,0,1,.217.665L8.525,18.134l.414,2.41a.39.39,0,0,1-.567.411L6.2,19.817Z" fill="none" stroke="#2c3e50" stroke-linecap="round" stroke-linejoin="round" stroke-width="1.5"/>
  <path id="Path_2688" data-name="Path 2688" d="M12,9.817,9.828,10.955a.392.392,0,0,1-.568-.41l.415-2.411L7.918,6.427a.389.389,0,0,1,.217-.665l2.428-.352,1.086-2.193a.392.392,0,0,1,.7,0L13.437,5.41l2.428.352a.39.39,0,0,1,.217.665L14.325,8.134l.414,2.41a.39.39,0,0,1-.567.411L12,9.817Z" fill="none" stroke="#2c3e50" stroke-linecap="round" stroke-linejoin="round" stroke-width="1.5"/>
</svg>
