<svg xmlns="http://www.w3.org/2000/svg" width="17.099" height="16.529" viewBox="0 0 17.099 16.529">
  <g id="Group_7711" data-name="Group 7711" transform="translate(-104.66 -302.308)">
    <path id="Path_10103" data-name="Path 10103" d="M131.012,325.491a.5.5,0,0,0-.474-.355c-.55-.036-1.1-.073-1.65-.1a.175.175,0,0,1-.18-.13c-.195-.5-.4-1-.593-1.5a.508.508,0,0,0-.49-.381.5.5,0,0,0-.492.375q-.3.75-.6,1.5c-.03.076-.057.129-.157.134-.545.029-1.089.068-1.633.1a.522.522,0,0,0-.515.351.5.5,0,0,0,.209.584c.41.341.82.685,1.233,1.023a.191.191,0,0,1,.075.24c-.068.217-.117.44-.172.66-.088.351-.175.7-.252,1.008a.5.5,0,0,0,.236.493.474.474,0,0,0,.535-.007c.46-.289.925-.575,1.379-.874a.241.241,0,0,1,.308.005c.433.28.871.554,1.309.829a.507.507,0,0,0,.634.023.52.52,0,0,0,.167-.6c-.129-.512-.253-1.024-.392-1.532a.208.208,0,0,1,.08-.253c.422-.344.841-.694,1.26-1.043A.485.485,0,0,0,131.012,325.491Zm-2.372,1.073a.542.542,0,0,0-.21.631c.068.238.122.481.194.772-.255-.161-.472-.293-.686-.432a.534.534,0,0,0-.637,0c-.213.139-.43.272-.683.432.062-.248.1-.462.171-.668a.629.629,0,0,0-.255-.8c-.18-.126-.339-.28-.537-.444.3-.022.558-.043.818-.056a.514.514,0,0,0,.494-.352c.1-.251.2-.5.311-.772.109.271.21.516.3.763a.521.521,0,0,0,.507.362c.257.012.515.035.811.056C129.022,326.247,128.835,326.411,128.64,326.564Z" transform="translate(-14.427 -15.293)"/>
    <path id="Path_10104" data-name="Path 10104" d="M121.734,308.527a.489.489,0,0,0-.455-.356q-1.309-.087-2.615-.169-1.384-.089-2.766-.175a.233.233,0,0,1-.24-.171c-.356-.915-.721-1.826-1.084-2.738q-.449-1.13-.9-2.257a.5.5,0,0,0-.673-.312.6.6,0,0,0-.318.385c-.648,1.629-1.3,3.256-1.939,4.887a.282.282,0,0,1-.283.21c-1.722.107-3.442.228-5.164.328a.657.657,0,0,0-.637.378v.267a1.172,1.172,0,0,0,.268.328q2.038,1.7,4.072,3.4a.187.187,0,0,1,.068.225c-.142.542-.28,1.085-.419,1.628q-.461,1.817-.921,3.632a.485.485,0,0,0,.217.562.545.545,0,0,0,.622-.057q2.245-1.424,4.491-2.844a.208.208,0,0,1,.264-.007c.889.569,1.783,1.131,2.674,1.695.63.4,1.257.8,1.888,1.192a.5.5,0,0,0,.757-.207.634.634,0,0,0,0-.424q-.66-2.581-1.321-5.162a.2.2,0,0,1,.076-.238c.521-.424,1.036-.858,1.554-1.289l2.605-2.166A.485.485,0,0,0,121.734,308.527Zm-2.161.894c-1.031.857-2.059,1.718-3.095,2.569a.593.593,0,0,0-.218.676c.367,1.408.723,2.817,1.083,4.226.012.047.019.1.032.164l-1.745-1.1c-.695-.439-1.393-.875-2.084-1.32a.591.591,0,0,0-.71,0c-1.226.783-2.459,1.558-3.689,2.336-.036.023-.076.045-.141.084.083-.329.157-.636.235-.94.294-1.15.585-2.3.886-3.451a.6.6,0,0,0-.22-.676c-1.088-.9-2.169-1.812-3.253-2.719l-.207-.177c.268-.019.5-.037.737-.052l3.8-.242a.558.558,0,0,0,.524-.392q.813-2.057,1.635-4.112c.012-.031.026-.061.053-.126.258.645.5,1.263.749,1.88.31.778.627,1.553.927,2.334a.6.6,0,0,0,.592.419c1.455.088,2.91.183,4.365.276.031,0,.062.008.133.018C119.815,309.219,119.7,309.321,119.574,309.421Z"/>
    <path id="Path_10105" data-name="Path 10105" d="M119.677,313.68a.5.5,0,1,1,1,0,.5.5,0,0,1-1,0Z" transform="translate(-11.086 -8.027)"/>
    <path id="Path_10106" data-name="Path 10106" d="M161.4,344.116a.487.487,0,0,1-.489-.5.5.5,0,0,1,.495-.5.506.506,0,0,1,.5.512A.5.5,0,0,1,161.4,344.116Z" transform="translate(-41.53 -30.13)"/>
    <path id="Path_10107" data-name="Path 10107" d="M110.923,343.632a.488.488,0,0,1-.5.493.5.5,0,0,1-.5-.491.5.5,0,0,1,.508-.5A.5.5,0,0,1,110.923,343.632Z" transform="translate(-3.887 -30.137)"/>
    <path id="Path_10108" data-name="Path 10108" d="M152.161,313.682a.5.5,0,0,1-.494.5.5.5,0,0,1-.5-.51.5.5,0,0,1,.506-.487A.489.489,0,0,1,152.161,313.682Z" transform="translate(-34.333 -8.028)"/>
    <path id="Path_10109" data-name="Path 10109" d="M135.909,362.644a.5.5,0,1,1,.505-.489A.5.5,0,0,1,135.909,362.644Z" transform="translate(-22.704 -43.808)"/>
    <path id="Path_10110" data-name="Path 10110" d="M131.012,325.491a.5.5,0,0,0-.474-.355c-.55-.036-1.1-.073-1.65-.1a.175.175,0,0,1-.18-.13c-.195-.5-.4-1-.593-1.5a.508.508,0,0,0-.49-.381.5.5,0,0,0-.492.375q-.3.75-.6,1.5c-.03.076-.057.129-.157.134-.545.029-1.089.068-1.633.1a.522.522,0,0,0-.515.351.5.5,0,0,0,.209.584c.41.341.82.685,1.233,1.023a.191.191,0,0,1,.075.24c-.068.217-.117.44-.172.66-.088.351-.175.7-.252,1.008a.5.5,0,0,0,.236.493.474.474,0,0,0,.535-.007c.46-.289.925-.575,1.379-.874a.241.241,0,0,1,.308.005c.433.28.871.554,1.309.829a.507.507,0,0,0,.634.023.52.52,0,0,0,.167-.6c-.129-.512-.253-1.024-.392-1.532a.208.208,0,0,1,.08-.253c.422-.344.841-.694,1.26-1.043A.485.485,0,0,0,131.012,325.491Zm-2.372,1.073a.542.542,0,0,0-.21.631c.068.238.122.481.194.772-.255-.161-.472-.293-.686-.432a.534.534,0,0,0-.637,0c-.213.139-.43.272-.683.432.062-.248.1-.462.171-.668a.629.629,0,0,0-.255-.8c-.18-.126-.339-.28-.537-.444.3-.022.558-.043.818-.056a.514.514,0,0,0,.494-.352c.1-.251.2-.5.311-.772.109.271.21.516.3.763a.521.521,0,0,0,.507.362c.257.012.515.035.811.056C129.022,326.247,128.835,326.411,128.64,326.564Z" transform="translate(-14.427 -15.293)" fill="#fefefe"/>
    <path id="Path_10111" data-name="Path 10111" d="M131.012,325.491a.5.5,0,0,0-.474-.355c-.55-.036-1.1-.073-1.65-.1a.175.175,0,0,1-.18-.13c-.195-.5-.4-1-.593-1.5a.508.508,0,0,0-.49-.381.5.5,0,0,0-.492.375q-.3.75-.6,1.5c-.03.076-.057.129-.157.134-.545.029-1.089.068-1.633.1a.522.522,0,0,0-.515.351.5.5,0,0,0,.209.584c.41.341.82.685,1.233,1.023a.191.191,0,0,1,.075.24c-.068.217-.117.44-.172.66-.088.351-.175.7-.252,1.008a.5.5,0,0,0,.236.493.474.474,0,0,0,.535-.007c.46-.289.925-.575,1.379-.874a.241.241,0,0,1,.308.005c.433.28.871.554,1.309.829a.507.507,0,0,0,.634.023.52.52,0,0,0,.167-.6c-.129-.512-.253-1.024-.392-1.532a.208.208,0,0,1,.08-.253c.422-.344.841-.694,1.26-1.043A.485.485,0,0,0,131.012,325.491Zm-2.372,1.073a.542.542,0,0,0-.21.631c.068.238.122.481.194.772-.255-.161-.472-.293-.686-.432a.534.534,0,0,0-.637,0c-.213.139-.43.272-.683.432.062-.248.1-.462.171-.668a.629.629,0,0,0-.255-.8c-.18-.126-.339-.28-.537-.444.3-.022.558-.043.818-.056a.514.514,0,0,0,.494-.352c.1-.251.2-.5.311-.772.109.271.21.516.3.763a.521.521,0,0,0,.507.362c.257.012.515.035.811.056C129.022,326.247,128.835,326.411,128.64,326.564Z" transform="translate(-14.427 -15.293)"/>
  </g>
</svg>
