<svg id="Group_9698" data-name="Group 9698" xmlns="http://www.w3.org/2000/svg" xmlns:xlink="http://www.w3.org/1999/xlink" width="243.524" height="239.843" viewBox="0 0 243.524 239.843">
  <defs>
    <clipPath id="clip-path">
      <path id="Path_11167" data-name="Path 11167" d="M716.573,380.651a61.353,61.353,0,0,0,8.135.246c6.588-.24,7.686-1.226,11.93-4.819a8.487,8.487,0,0,1,2.818-1.771c4.984-1.573,7.31,3.437,8.324,7.414,1.794,7.035,1.188,14.071.2,21.165-1.889,13.589-5.546,28.084-8.292,39.755-2.264,9.622-6.7,33.772-2.36,34.815,7.968,1.917,8.587-5.682,8.139-11.82-.873-11.946-1.24-25.052,2.013-36.731l19.005,11.659c-3.151,3.2-6.59,7.034-7.9,11.426-2.042,6.87.077,14.57.178,21.594.1,7.177-.737,14.514-4.368,20.844-3.68,6.416-16.316,11.994-24.713-1.121s-2.737-32.269-1.7-37.269c1.221-5.882,10.948-41.264,12.3-46.132,1.961-7.041,3.166-14.563,2.327-21.931-.248-2.18-.281-5.914-3.352-5.478-2.862.406-5.9,3.475-7.828,4.024-3.931,1.117-7.912-.5-11.569-2.336-.382-.192-3.517-1.521-3.517-1.82Z" transform="translate(-716.352 -374.01)" fill="none"/>
    </clipPath>
  </defs>
  <g id="Group_9641" data-name="Group 9641" transform="translate(61.671 0.949)">
    <g id="Group_9621" data-name="Group 9621" transform="translate(39.899)">
      <g id="Group_9614" data-name="Group 9614" transform="translate(139.32 46.856)">
        <rect id="Rectangle_6516" data-name="Rectangle 6516" width="5.318" height="0.901" transform="translate(0 5.307) rotate(-86.302)" fill="#007cff"/>
      </g>
      <g id="Group_9615" data-name="Group 9615" transform="translate(139.93 25.326)">
        <rect id="Rectangle_6517" data-name="Rectangle 6517" width="17.473" height="0.901" transform="translate(0 17.436) rotate(-86.308)" fill="#007cff"/>
      </g>
      <g id="Group_9616" data-name="Group 9616">
        <path id="Path_11143" data-name="Path 11143" d="M963.8,318.312H857.89A10.951,10.951,0,0,0,847.15,328.4L833.471,539.675a9.366,9.366,0,0,0,9.434,10.087H948.818a10.951,10.951,0,0,0,10.74-10.087L973.237,328.4A9.366,9.366,0,0,0,963.8,318.312Z" transform="translate(-833.45 -318.312)" fill="#007cff"/>
      </g>
      <g id="Group_9617" data-name="Group 9617" opacity="0.7">
        <path id="Path_11144" data-name="Path 11144" d="M960.44,318.312H857.89A10.951,10.951,0,0,0,847.15,328.4L833.471,539.675a9.366,9.366,0,0,0,9.434,10.087H945.456a10.951,10.951,0,0,0,10.74-10.087L969.874,328.4A9.366,9.366,0,0,0,960.44,318.312Z" transform="translate(-833.45 -318.312)" fill="#fff"/>
      </g>
      <g id="Group_9618" data-name="Group 9618" transform="translate(2.453 18.493)">
        <path id="Path_11145" data-name="Path 11145" d="M954.8,556.793H841.99a3.084,3.084,0,0,1-3.078-3.284L851.29,362.331a3.084,3.084,0,0,1,3.078-2.885H967.175a3.084,3.084,0,0,1,3.078,3.283L957.875,553.908A3.084,3.084,0,0,1,954.8,556.793Z" transform="translate(-838.905 -359.446)" fill="#fff"/>
      </g>
      <g id="Group_9619" data-name="Group 9619" transform="translate(50.742 8.966)">
        <path id="Path_11146" data-name="Path 11146" d="M988.85,341.525h-41a1.514,1.514,0,0,1-1.529-1.635h0a1.769,1.769,0,0,1,1.74-1.634h41a1.513,1.513,0,0,1,1.529,1.634h0A1.769,1.769,0,0,1,988.85,341.525Z" transform="translate(-946.316 -338.256)" fill="#fff"/>
      </g>
      <g id="Group_9620" data-name="Group 9620" transform="translate(53.236 219.856)">
        <path id="Path_11147" data-name="Path 11147" d="M959.9,811.359a4.277,4.277,0,0,1-4.224,4.016,3.776,3.776,0,0,1-3.808-4.016,4.277,4.277,0,0,1,4.224-4.016A3.776,3.776,0,0,1,959.9,811.359Z" transform="translate(-951.864 -807.343)" fill="#fff"/>
      </g>
    </g>
    <g id="Group_9622" data-name="Group 9622" transform="translate(43.507 71.447)" opacity="0.2">
      <path id="Path_11148" data-name="Path 11148" d="M943.921,477.233H847.594l-6.119,94.519H943.921a10.117,10.117,0,0,0,10.087-10.087V487.32A10.117,10.117,0,0,0,943.921,477.233Z" transform="translate(-841.475 -477.233)" fill="#007cff"/>
    </g>
    <g id="Group_9640" data-name="Group 9640" transform="translate(0 55.439)">
      <g id="Group_9623" data-name="Group 9623" transform="translate(8.84 7.602)">
        <rect id="Rectangle_6518" data-name="Rectangle 6518" width="138.228" height="94.518" rx="11.196" fill="#007cff"/>
      </g>
      <g id="Group_9627" data-name="Group 9627">
        <g id="Group_9624" data-name="Group 9624" transform="translate(3.103 3.101)">
          <path id="Path_11149" data-name="Path 11149" d="M754.121,451.941a.9.9,0,0,1-.637-.264l-1.615-1.615a.9.9,0,0,1,1.274-1.274l1.615,1.615a.9.9,0,0,1-.637,1.538Z" transform="translate(-751.605 -448.524)" fill="#007cff"/>
        </g>
        <g id="Group_9625" data-name="Group 9625" transform="translate(0 10.369)">
          <path id="Path_11150" data-name="Path 11150" d="M747.887,466.493H745.6a.9.9,0,0,1,0-1.8h2.284a.9.9,0,0,1,0,1.8Z" transform="translate(-744.702 -464.691)" fill="#007cff"/>
        </g>
        <g id="Group_9626" data-name="Group 9626" transform="translate(10.291)">
          <path id="Path_11151" data-name="Path 11151" d="M768.655,445.707a.9.9,0,0,1-.9-.837l-.163-2.278a.9.9,0,1,1,1.8-.128l.163,2.278a.9.9,0,0,1-.834.963Z" transform="translate(-767.593 -441.626)" fill="#007cff"/>
        </g>
      </g>
      <g id="Group_9628" data-name="Group 9628" transform="translate(88.041 92.407)">
        <path id="Path_11152" data-name="Path 11152" d="M940.534,647.17l36.238,36.238V647.17Z" transform="translate(-940.534 -647.17)" fill="#007cff"/>
      </g>
      <g id="Group_9631" data-name="Group 9631" transform="translate(46.186 21.275)">
        <g id="Group_9629" data-name="Group 9629">
          <path id="Path_11153" data-name="Path 11153" d="M899.222,544.2l-1.755-7.652a13.8,13.8,0,0,1-.015-6.1l2.442-10.9a21.367,21.367,0,0,0-11.3-23.7,5.278,5.278,0,0,0,.2-.615,5.161,5.161,0,1,0-10.142-1.611,21.367,21.367,0,0,0-20.332,16.612l-2.442,10.9a13.8,13.8,0,0,1-2.617,5.512l-4.852,6.172a4.551,4.551,0,0,0,2.583,7.253l42.8,9.589A4.551,4.551,0,0,0,899.222,544.2Z" transform="translate(-847.435 -488.949)" fill="#fff"/>
        </g>
        <g id="Group_9630" data-name="Group 9630" transform="translate(17.006 57.567)">
          <path id="Path_11154" data-name="Path 11154" d="M887.723,617.048a2.026,2.026,0,0,0-2.431,2.329,7.4,7.4,0,0,0,13.368,2.995,2.026,2.026,0,0,0-1.2-3.143Z" transform="translate(-885.263 -616.997)" fill="#fff"/>
        </g>
      </g>
      <g id="Group_9635" data-name="Group 9635" transform="translate(26.788 22.796)">
        <g id="Group_9632" data-name="Group 9632">
          <path id="Path_11155" data-name="Path 11155" d="M810.288,533.246a1.35,1.35,0,0,1-1.125-.6,28.9,28.9,0,0,1,7.989-40.085,1.352,1.352,0,0,1,1.5,2.248,26.2,26.2,0,0,0-7.242,36.336,1.351,1.351,0,0,1-1.123,2.1Z" transform="translate(-804.288 -492.332)" fill="#fff"/>
        </g>
        <g id="Group_9633" data-name="Group 9633" transform="translate(6.89 5.728)">
          <path id="Path_11156" data-name="Path 11156" d="M824.451,536.435a1.349,1.349,0,0,1-1.124-.6,22.014,22.014,0,0,1,6.085-30.532,1.352,1.352,0,0,1,1.5,2.248,19.311,19.311,0,0,0-5.339,26.783,1.351,1.351,0,0,1-1.123,2.1Z" transform="translate(-819.614 -505.074)" fill="#fff"/>
        </g>
        <g id="Group_9634" data-name="Group 9634" transform="translate(13.78 11.456)">
          <path id="Path_11157" data-name="Path 11157" d="M838.615,539.624a1.349,1.349,0,0,1-1.124-.6,15.127,15.127,0,0,1,4.18-20.98,1.352,1.352,0,0,1,1.5,2.248,12.424,12.424,0,0,0-3.434,17.231,1.352,1.352,0,0,1-1.123,2.1Z" transform="translate(-834.939 -517.815)" fill="#fff"/>
        </g>
      </g>
      <g id="Group_9639" data-name="Group 9639" transform="translate(103.032 42.909)">
        <g id="Group_9636" data-name="Group 9636" transform="translate(6.319)">
          <path id="Path_11158" data-name="Path 11158" d="M989.288,576.892a1.352,1.352,0,0,1-.621-2.553,26.2,26.2,0,0,0,11.26-35.3,1.351,1.351,0,1,1,2.4-1.24,28.9,28.9,0,0,1-12.422,38.939A1.351,1.351,0,0,1,989.288,576.892Z" transform="translate(-987.935 -537.07)" fill="#fff"/>
        </g>
        <g id="Group_9637" data-name="Group 9637" transform="translate(3.159 3.16)">
          <path id="Path_11159" data-name="Path 11159" d="M982.26,574.641a1.351,1.351,0,0,1-.621-2.552,19.309,19.309,0,0,0,8.3-26.019,1.352,1.352,0,0,1,2.4-1.24,22.016,22.016,0,0,1-9.461,29.661A1.346,1.346,0,0,1,982.26,574.641Z" transform="translate(-980.907 -544.099)" fill="#fff"/>
        </g>
        <g id="Group_9638" data-name="Group 9638" transform="translate(0 6.32)">
          <path id="Path_11160" data-name="Path 11160" d="M975.232,572.39a1.352,1.352,0,0,1-.621-2.553,12.422,12.422,0,0,0,5.34-16.738,1.352,1.352,0,0,1,2.4-1.241,15.145,15.145,0,0,1-6.5,20.381A1.35,1.35,0,0,1,975.232,572.39Z" transform="translate(-973.879 -551.128)" fill="#fff"/>
        </g>
      </g>
    </g>
  </g>
  <g id="Group_9697" data-name="Group 9697">
    <g id="Group_9643" data-name="Group 9643" transform="translate(0 236.325)">
      <g id="Group_9642" data-name="Group 9642">
        <ellipse id="Ellipse_331" data-name="Ellipse 331" cx="55.367" cy="1.759" rx="55.367" ry="1.759" fill="#b9bcfc"/>
      </g>
    </g>
    <g id="Group_9644" data-name="Group 9644" transform="translate(32.54 53.577)">
      <path id="Path_11161" data-name="Path 11161" d="M722.655,461.448c-3.232,9.3-12.627,13.5-19.624,13.28-5.765-.184-9.336-3.939-11.425-5.388-4.623-3.208-11.228-33.5-11.7-33.967,0,0,16.04,29.721,23.683,29.343s20.663-12.171,20.663-12.171Z" transform="translate(-679.906 -435.374)" fill="#8e3d2d"/>
    </g>
    <g id="Group_9645" data-name="Group 9645" transform="translate(47.403 116.415)">
      <path id="Path_11162" data-name="Path 11162" d="M719.992,575.148s57.744,39.439,57.744,48.355-55.2,60.15-55.2,62.7,4.246,7.789,4.246,7.789l7.926,2.4H722.257s-2.831-5.661-5.378-8.208-7.359-6.532,0-9.069S761.6,622.23,761.6,622.23L721.124,602.7Z" transform="translate(-712.965 -575.148)" fill="#1c1c1c"/>
    </g>
    <g id="Group_9646" data-name="Group 9646" transform="translate(26.407 112.272)">
      <path id="Path_11163" data-name="Path 11163" d="M676.822,565.932s-1.217,13.578,1.047,23.485,35.979,31.419,35.979,31.419-32.2,37.15-44.471,58.31c0,0-3.114,7.36-3.114,14.295h18.682s-6.794-6.652-11.04-6.652c0,0,36.117-34.352,55.041-50.883a14.71,14.71,0,0,0,2.562-19.242l-33.826-50.732Z" transform="translate(-666.264 -565.932)" fill="#31302c"/>
    </g>
    <g id="Group_9647" data-name="Group 9647" transform="translate(7.133 42.552)">
      <path id="Path_11164" data-name="Path 11164" d="M640.118,411.2c-.755-.755-10.848-1-15.871,6.991-1.526,2.426-.546,4.219-.546,8.884,0,19.7,13.127,57.4,29.648,62.534,8.8,2.735,35.172-11.029,35.172-11.029s-18.584-14.153-25.851-27.456-6.439-29.6-9.446-34.635S640.118,411.2,640.118,411.2Z" transform="translate(-623.391 -410.852)" fill="#d2d5ff"/>
    </g>
    <g id="Group_9650" data-name="Group 9650" transform="translate(48.926 25.989)">
      <g id="Group_9649" data-name="Group 9649">
        <g id="Group_9648" data-name="Group 9648" clip-path="url(#clip-path)">
          <path id="Path_11165" data-name="Path 11165" d="M716.352,371.171v0Z" transform="translate(-716.352 -372.447)" fill="#f5ab39"/>
          <rect id="Rectangle_6519" data-name="Rectangle 6519" width="0.627" height="133.69" transform="translate(0 -1.276)" fill="#f5ab39"/>
          <rect id="Rectangle_6520" data-name="Rectangle 6520" width="0.627" height="133.69" transform="translate(0.627 -1.276)" fill="#f5ac39"/>
          <rect id="Rectangle_6521" data-name="Rectangle 6521" width="0.627" height="133.69" transform="translate(1.253 -1.276)" fill="#f5ad3a"/>
          <rect id="Rectangle_6522" data-name="Rectangle 6522" width="0.627" height="133.69" transform="translate(1.88 -1.276)" fill="#f5ae3a"/>
          <rect id="Rectangle_6523" data-name="Rectangle 6523" width="0.627" height="133.69" transform="translate(2.507 -1.276)" fill="#f6af3a"/>
          <rect id="Rectangle_6524" data-name="Rectangle 6524" width="0.627" height="133.69" transform="translate(3.133 -1.276)" fill="#f6b03a"/>
          <rect id="Rectangle_6525" data-name="Rectangle 6525" width="0.627" height="133.69" transform="translate(3.76 -1.276)" fill="#f6b13b"/>
          <rect id="Rectangle_6526" data-name="Rectangle 6526" width="0.627" height="133.69" transform="translate(4.387 -1.276)" fill="#f6b23b"/>
          <rect id="Rectangle_6527" data-name="Rectangle 6527" width="0.627" height="133.69" transform="translate(5.013 -1.276)" fill="#f6b33b"/>
          <rect id="Rectangle_6528" data-name="Rectangle 6528" width="0.627" height="133.69" transform="translate(5.64 -1.276)" fill="#f6b43b"/>
          <rect id="Rectangle_6529" data-name="Rectangle 6529" width="0.627" height="133.69" transform="translate(6.267 -1.276)" fill="#f6b53c"/>
          <rect id="Rectangle_6530" data-name="Rectangle 6530" width="0.627" height="133.69" transform="translate(6.893 -1.276)" fill="#f6b63c"/>
          <rect id="Rectangle_6531" data-name="Rectangle 6531" width="0.627" height="133.69" transform="translate(7.52 -1.276)" fill="#f7b73c"/>
          <rect id="Rectangle_6532" data-name="Rectangle 6532" width="0.627" height="133.69" transform="translate(8.147 -1.276)" fill="#f7b83c"/>
          <rect id="Rectangle_6533" data-name="Rectangle 6533" width="0.627" height="133.69" transform="translate(8.773 -1.276)" fill="#f7b93d"/>
          <rect id="Rectangle_6534" data-name="Rectangle 6534" width="0.627" height="133.69" transform="translate(9.4 -1.276)" fill="#f7ba3d"/>
          <rect id="Rectangle_6535" data-name="Rectangle 6535" width="0.627" height="133.69" transform="translate(10.027 -1.276)" fill="#f7bb3d"/>
          <rect id="Rectangle_6536" data-name="Rectangle 6536" width="0.627" height="133.69" transform="translate(10.653 -1.276)" fill="#f7bc3d"/>
          <rect id="Rectangle_6537" data-name="Rectangle 6537" width="0.627" height="133.69" transform="translate(11.28 -1.276)" fill="#f7bd3e"/>
          <rect id="Rectangle_6538" data-name="Rectangle 6538" width="0.627" height="133.69" transform="translate(11.907 -1.276)" fill="#f7be3e"/>
          <rect id="Rectangle_6539" data-name="Rectangle 6539" width="0.627" height="133.69" transform="translate(12.533 -1.276)" fill="#f8bf3e"/>
          <rect id="Rectangle_6540" data-name="Rectangle 6540" width="0.627" height="133.69" transform="translate(13.16 -1.276)" fill="#f8c03e"/>
          <rect id="Rectangle_6541" data-name="Rectangle 6541" width="0.627" height="133.69" transform="translate(13.787 -1.276)" fill="#f8c13f"/>
          <rect id="Rectangle_6542" data-name="Rectangle 6542" width="0.627" height="133.69" transform="translate(14.413 -1.276)" fill="#f8c23f"/>
          <rect id="Rectangle_6543" data-name="Rectangle 6543" width="0.627" height="133.69" transform="translate(15.04 -1.276)" fill="#f8c33f"/>
          <rect id="Rectangle_6544" data-name="Rectangle 6544" width="0.627" height="133.69" transform="translate(15.667 -1.276)" fill="#f8c43f"/>
          <rect id="Rectangle_6545" data-name="Rectangle 6545" width="0.627" height="133.69" transform="translate(16.293 -1.276)" fill="#f8c540"/>
          <rect id="Rectangle_6546" data-name="Rectangle 6546" width="0.627" height="133.69" transform="translate(16.92 -1.276)" fill="#f8c640"/>
          <rect id="Rectangle_6547" data-name="Rectangle 6547" width="0.627" height="133.69" transform="translate(17.547 -1.276)" fill="#f9c740"/>
          <rect id="Rectangle_6548" data-name="Rectangle 6548" width="0.627" height="133.69" transform="translate(18.173 -1.276)" fill="#f9c840"/>
          <rect id="Rectangle_6549" data-name="Rectangle 6549" width="0.627" height="133.69" transform="translate(18.8 -1.276)" fill="#f9c941"/>
          <rect id="Rectangle_6550" data-name="Rectangle 6550" width="0.627" height="133.69" transform="translate(19.427 -1.276)" fill="#f9ca41"/>
          <rect id="Rectangle_6551" data-name="Rectangle 6551" width="0.627" height="133.69" transform="translate(20.053 -1.276)" fill="#f9cb41"/>
          <rect id="Rectangle_6552" data-name="Rectangle 6552" width="0.627" height="133.69" transform="translate(20.68 -1.276)" fill="#f9cc41"/>
          <rect id="Rectangle_6553" data-name="Rectangle 6553" width="0.627" height="133.69" transform="translate(21.307 -1.276)" fill="#f9cd42"/>
          <rect id="Rectangle_6554" data-name="Rectangle 6554" width="0.627" height="133.69" transform="translate(21.933 -1.276)" fill="#f9ce42"/>
          <rect id="Rectangle_6555" data-name="Rectangle 6555" width="0.627" height="133.69" transform="translate(22.56 -1.276)" fill="#facf42"/>
          <rect id="Rectangle_6556" data-name="Rectangle 6556" width="0.627" height="133.69" transform="translate(23.187 -1.276)" fill="#fad042"/>
          <rect id="Rectangle_6557" data-name="Rectangle 6557" width="0.627" height="133.69" transform="translate(23.813 -1.276)" fill="#fad143"/>
          <rect id="Rectangle_6558" data-name="Rectangle 6558" width="0.627" height="133.69" transform="translate(24.44 -1.276)" fill="#fad243"/>
          <rect id="Rectangle_6559" data-name="Rectangle 6559" width="0.627" height="133.69" transform="translate(25.067 -1.276)" fill="#fad443"/>
          <rect id="Rectangle_6560" data-name="Rectangle 6560" width="0.627" height="133.69" transform="translate(25.693 -1.276)" fill="#fad543"/>
          <rect id="Rectangle_6561" data-name="Rectangle 6561" width="0.627" height="133.69" transform="translate(26.32 -1.276)" fill="#fad644"/>
          <rect id="Rectangle_6562" data-name="Rectangle 6562" width="0.627" height="133.69" transform="translate(26.947 -1.276)" fill="#fad744"/>
          <rect id="Rectangle_6563" data-name="Rectangle 6563" width="0.627" height="133.69" transform="translate(27.573 -1.276)" fill="#fbd844"/>
          <rect id="Rectangle_6564" data-name="Rectangle 6564" width="0.627" height="133.69" transform="translate(28.2 -1.276)" fill="#fbd944"/>
          <rect id="Rectangle_6565" data-name="Rectangle 6565" width="0.627" height="133.69" transform="translate(28.827 -1.276)" fill="#fbda45"/>
          <rect id="Rectangle_6566" data-name="Rectangle 6566" width="0.627" height="133.69" transform="translate(29.453 -1.276)" fill="#fbdb45"/>
          <rect id="Rectangle_6567" data-name="Rectangle 6567" width="0.627" height="133.69" transform="translate(30.08 -1.276)" fill="#fbdc45"/>
          <rect id="Rectangle_6568" data-name="Rectangle 6568" width="0.627" height="133.69" transform="translate(30.707 -1.276)" fill="#fbdd45"/>
          <rect id="Rectangle_6569" data-name="Rectangle 6569" width="0.627" height="133.69" transform="translate(31.333 -1.276)" fill="#fbde46"/>
          <rect id="Rectangle_6570" data-name="Rectangle 6570" width="0.627" height="133.69" transform="translate(31.96 -1.276)" fill="#fbdf46"/>
          <rect id="Rectangle_6571" data-name="Rectangle 6571" width="0.627" height="133.69" transform="translate(32.587 -1.276)" fill="#fce046"/>
          <rect id="Rectangle_6572" data-name="Rectangle 6572" width="0.627" height="133.69" transform="translate(33.213 -1.276)" fill="#fce146"/>
          <rect id="Rectangle_6573" data-name="Rectangle 6573" width="0.627" height="133.69" transform="translate(33.84 -1.276)" fill="#fce247"/>
          <rect id="Rectangle_6574" data-name="Rectangle 6574" width="0.627" height="133.69" transform="translate(34.467 -1.276)" fill="#fce347"/>
          <rect id="Rectangle_6575" data-name="Rectangle 6575" width="0.627" height="133.69" transform="translate(35.093 -1.276)" fill="#fce447"/>
          <rect id="Rectangle_6576" data-name="Rectangle 6576" width="0.627" height="133.69" transform="translate(35.72 -1.276)" fill="#fce547"/>
          <rect id="Rectangle_6577" data-name="Rectangle 6577" width="0.627" height="133.69" transform="translate(36.347 -1.276)" fill="#fce648"/>
          <rect id="Rectangle_6578" data-name="Rectangle 6578" width="0.627" height="133.69" transform="translate(36.973 -1.276)" fill="#fce748"/>
          <rect id="Rectangle_6579" data-name="Rectangle 6579" width="0.627" height="133.69" transform="translate(37.6 -1.276)" fill="#fde848"/>
          <rect id="Rectangle_6580" data-name="Rectangle 6580" width="0.627" height="133.69" transform="translate(38.227 -1.276)" fill="#fde948"/>
          <rect id="Rectangle_6581" data-name="Rectangle 6581" width="0.627" height="133.69" transform="translate(38.853 -1.276)" fill="#fdea49"/>
          <rect id="Rectangle_6582" data-name="Rectangle 6582" width="0.627" height="133.69" transform="translate(39.48 -1.276)" fill="#fdeb49"/>
          <rect id="Rectangle_6583" data-name="Rectangle 6583" width="0.627" height="133.69" transform="translate(40.107 -1.276)" fill="#fdec49"/>
          <rect id="Rectangle_6584" data-name="Rectangle 6584" width="0.627" height="133.69" transform="translate(40.733 -1.276)" fill="#fded49"/>
          <rect id="Rectangle_6585" data-name="Rectangle 6585" width="0.627" height="133.69" transform="translate(41.36 -1.276)" fill="#fdee4a"/>
          <rect id="Rectangle_6586" data-name="Rectangle 6586" width="0.627" height="133.69" transform="translate(41.987 -1.276)" fill="#fdef4a"/>
          <rect id="Rectangle_6587" data-name="Rectangle 6587" width="0.627" height="133.69" transform="translate(42.613 -1.276)" fill="#fef04a"/>
          <rect id="Rectangle_6588" data-name="Rectangle 6588" width="0.627" height="133.69" transform="translate(43.24 -1.276)" fill="#fef14a"/>
          <rect id="Rectangle_6589" data-name="Rectangle 6589" width="0.627" height="133.69" transform="translate(43.867 -1.276)" fill="#fef24b"/>
          <rect id="Rectangle_6590" data-name="Rectangle 6590" width="0.627" height="133.69" transform="translate(44.493 -1.276)" fill="#fef34b"/>
          <rect id="Rectangle_6591" data-name="Rectangle 6591" width="0.627" height="133.69" transform="translate(45.12 -1.276)" fill="#fef44b"/>
          <rect id="Rectangle_6592" data-name="Rectangle 6592" width="0.627" height="133.69" transform="translate(45.747 -1.276)" fill="#fef54b"/>
          <rect id="Rectangle_6593" data-name="Rectangle 6593" width="0.627" height="133.69" transform="translate(46.373 -1.276)" fill="#fef64c"/>
          <rect id="Rectangle_6594" data-name="Rectangle 6594" width="0.627" height="133.69" transform="translate(47 -1.276)" fill="#fef74c"/>
          <rect id="Rectangle_6595" data-name="Rectangle 6595" width="0.627" height="133.69" transform="translate(47.627 -1.276)" fill="#fff84c"/>
          <rect id="Rectangle_6596" data-name="Rectangle 6596" width="0.627" height="133.69" transform="translate(48.253 -1.276)" fill="#fff94c"/>
          <rect id="Rectangle_6597" data-name="Rectangle 6597" width="0.627" height="133.69" transform="translate(48.88 -1.276)" fill="#fffa4d"/>
          <rect id="Rectangle_6598" data-name="Rectangle 6598" width="0.627" height="133.69" transform="translate(49.507 -1.276)" fill="#fffb4d"/>
          <path id="Path_11166" data-name="Path 11166" d="M827.865,504.86v0Z" transform="translate(-777.732 -372.447)" fill="#fffb4d"/>
        </g>
      </g>
    </g>
    <g id="Group_9651" data-name="Group 9651" transform="translate(4.166 47.844)">
      <path id="Path_11168" data-name="Path 11168" d="M626.862,423.637c-2.692-1.377-5.85-3.091-9.246,7.8s4.411,44.688,10.756,51.033,26.23,17.888,35.854,17.888,11.5,2.934,14.907,2.351,3.137-2.43,2.783-2.784-.141-.92-.141-1.91.341-1.627.341-2.477v-.849s1.182-1.7,0-1.7-8.479.142-12.088,1.415-27.669-10.756-29.934-21.3S636.087,428.355,626.862,423.637Z" transform="translate(-616.792 -422.622)" fill="#b85137"/>
    </g>
    <g id="Group_9652" data-name="Group 9652" transform="translate(10.349 47.599)">
      <path id="Path_11169" data-name="Path 11169" d="M647.665,472.8c-2.749-10.835-3.756-46.37-15.4-50.306a3.277,3.277,0,0,0-1.722-.046,4.809,4.809,0,0,1,3.517-.072C644.953,426.5,645.989,462.686,647.665,472.8Z" transform="translate(-630.546 -422.077)" fill="#e5674e"/>
    </g>
    <g id="Group_9662" data-name="Group 9662" transform="translate(18.412)">
      <g id="Group_9653" data-name="Group 9653" transform="translate(0 24.031)">
        <path id="Path_11170" data-name="Path 11170" d="M661.626,369.654s-5.616,3.7-9.111,12.708-5.125,8.335-3.245,10.259c2.592,2.653,11.631,5.623,14.479,3.245,0,0-.5-12.189,3.285-15.977Z" transform="translate(-648.479 -369.654)" fill="#b85137"/>
      </g>
      <g id="Group_9654" data-name="Group 9654" transform="translate(8.137 24.031)">
        <path id="Path_11171" data-name="Path 11171" d="M671.588,369.654a22.287,22.287,0,0,0-5.01,5.152c1.768,5.148,5.2,8.436,8.238,9.413a9.9,9.9,0,0,1,2.178-4.33Z" transform="translate(-666.578 -369.654)" fill="#934131"/>
      </g>
      <g id="Group_9655" data-name="Group 9655" transform="translate(7.359 4.992)">
        <path id="Path_11172" data-name="Path 11172" d="M678.25,327.747a11.107,11.107,0,0,1,7.239,10.36c0,1-1.721,3.7-1.721,4.623,0,4.248,1.721,5.7,1.721,5.7l-2.746.158a11.242,11.242,0,0,1-.3,5.626,9.3,9.3,0,0,1-4.2,4.484c-3.5,1.747-12.017-3.12-13.265-12.607S671.26,324.876,678.25,327.747Z" transform="translate(-664.848 -327.306)" fill="#b85137"/>
      </g>
      <g id="Group_9656" data-name="Group 9656" transform="translate(15.752)">
        <path id="Path_11173" data-name="Path 11173" d="M687.349,316.9v-.7a5.161,5.161,0,0,0-3.376,2.371c-.748,1.37-.457,2.6.012,4.092l.174-.07a7.085,7.085,0,0,1-.319-1.988,3.5,3.5,0,0,1,1.885-3.091,5.468,5.468,0,0,1,1.527-.593C687.322,316.907,687.416,316.9,687.349,316.9Z" transform="translate(-683.516 -316.202)" fill="#052f43"/>
      </g>
      <g id="Group_9657" data-name="Group 9657" transform="translate(23.34 18.201)">
        <path id="Path_11174" data-name="Path 11174" d="M701.891,357.946a.787.787,0,1,1-.258-1.186A.867.867,0,0,1,701.891,357.946Z" transform="translate(-700.395 -356.688)" fill="#052f43"/>
      </g>
      <g id="Group_9658" data-name="Group 9658" transform="translate(21.607 15.394)">
        <path id="Path_11175" data-name="Path 11175" d="M696.541,351.936a6.328,6.328,0,0,1,3.164-.835,5.783,5.783,0,0,1,1.911.41l.176-.871S698.277,349.7,696.541,351.936Z" transform="translate(-696.541 -350.442)" fill="#052f43"/>
      </g>
      <g id="Group_9659" data-name="Group 9659" transform="translate(5.991)">
        <path id="Path_11176" data-name="Path 11176" d="M676.5,317.239l9.823,4.864-1.287,2.015,2.615-1.3,3,2.735s-5.72,1.562-7.317,3.16c0,0-6.426-2.512-7.937-1s-1.251,8.255-3.451,8.255-3.45.3-4.249,1.1-3.118,7.49-3.118,7.49l-.631.827s-2.943-11.913-1.936-16.662,6.078-12.521,6.078-12.521h4.051l.5,2.159Z" transform="translate(-661.804 -316.202)" fill="#052f43"/>
      </g>
      <g id="Group_9660" data-name="Group 9660" transform="translate(10.881 15.038)">
        <path id="Path_11177" data-name="Path 11177" d="M676.325,353.245s-.922-4.936-2.619-3.238-.983,6.116,0,6.116S676.325,356.238,676.325,353.245Z" transform="translate(-672.683 -349.652)" fill="#b85137"/>
      </g>
      <g id="Group_9661" data-name="Group 9661" transform="translate(11.574 16.974)">
        <path id="Path_11178" data-name="Path 11178" d="M676.677,355.959s-.87-2.675-1.7-1.84-1.148,3.281,0,3.281S676.677,356.879,676.677,355.959Z" transform="translate(-674.224 -353.958)" fill="#934131"/>
      </g>
    </g>
    <g id="Group_9663" data-name="Group 9663" transform="translate(39.292 24.322)">
      <path id="Path_11179" data-name="Path 11179" d="M695.48,370.3c2.348,2.21,2.552,6.673-.557,8.635C696.5,376.4,697.016,374.316,695.48,370.3Z" transform="translate(-694.923 -370.301)" fill="#e5674e"/>
    </g>
    <g id="Group_9664" data-name="Group 9664" transform="translate(42.084 31.552)">
      <path id="Path_11180" data-name="Path 11180" d="M701.135,386.4s7.21-.212,8.39.954c.589.582-.18,2.737-.719,2.737a3.071,3.071,0,0,1-1.361-.682,23.84,23.84,0,0,0-3.49-1.164A7.3,7.3,0,0,1,701.135,386.4Z" transform="translate(-701.135 -386.384)" fill="#381a3f"/>
    </g>
    <g id="Group_9665" data-name="Group 9665" transform="translate(41.306 30.294)">
      <path id="Path_11181" data-name="Path 11181" d="M699.4,384.817s1.632,1.705,2.082,1.427.213-1.217.213-1.217,1.062-.546.552-1.049S700,383.6,700,383.6Z" transform="translate(-699.404 -383.586)" fill="#b85137"/>
    </g>
    <g id="Group_9666" data-name="Group 9666" transform="translate(78.295 78.751)">
      <path id="Path_11182" data-name="Path 11182" d="M782.283,491.76c-2.211,2.41,1.95,5.155,7.494,8.572,5.679,3.5,12.682,7.456,14.343,5.679C808.479,501.347,784.79,489.028,782.283,491.76Z" transform="translate(-781.678 -491.369)" fill="#ffe003"/>
    </g>
    <g id="Group_9667" data-name="Group 9667" transform="translate(78.215 79.142)">
      <path id="Path_11183" data-name="Path 11183" d="M782.185,492.239c-.835,1.056-.556,2.069.356,3.074,1.547,1.718,5.44,4.006,8.751,5.976a69.868,69.868,0,0,0,9.38,5.023c.96.361,2.6.872,3.35.177-1.8,2.267-10.721-2.993-13.176-4.461C787.023,499.67,779.14,495.211,782.185,492.239Z" transform="translate(-781.501 -492.239)" fill="#ffec68"/>
    </g>
    <g id="Group_9668" data-name="Group 9668" transform="translate(81.657 80.957)">
      <path id="Path_11184" data-name="Path 11184" d="M789.584,496.554c-1.565,1.7,1.379,3.646,5.3,6.063,4.017,2.476,8.971,5.274,10.146,4.017C808.113,503.336,791.357,494.622,789.584,496.554Z" transform="translate(-789.156 -496.278)" fill="#f9b406"/>
    </g>
    <g id="Group_9670" data-name="Group 9670" transform="translate(69.728 80.669)">
      <g id="Group_9669" data-name="Group 9669">
        <path id="Path_11185" data-name="Path 11185" d="M762.91,527.527a.291.291,0,0,1-.058-.006.287.287,0,0,1-.223-.34l6.453-31.315a.288.288,0,1,1,.564.116L763.192,527.3A.288.288,0,0,1,762.91,527.527Z" transform="translate(-762.622 -495.636)" fill="#ffc010"/>
      </g>
    </g>
    <g id="Group_9671" data-name="Group 9671" transform="translate(70.939 77.317)">
      <circle id="Ellipse_332" data-name="Ellipse 332" cx="2.567" cy="2.567" r="2.567" transform="translate(0 2.293) rotate(-26.529)" fill="#ffe003"/>
    </g>
    <g id="Group_9672" data-name="Group 9672" transform="translate(69.248 89.626)">
      <circle id="Ellipse_333" data-name="Ellipse 333" cx="2.567" cy="2.567" r="2.567" fill="#ffe003"/>
    </g>
    <g id="Group_9673" data-name="Group 9673" transform="translate(67.448 98.323)">
      <path id="Path_11186" data-name="Path 11186" d="M762.687,537.472a2.567,2.567,0,1,1-2.567-2.567A2.567,2.567,0,0,1,762.687,537.472Z" transform="translate(-757.552 -534.905)" fill="#ffe003"/>
    </g>
    <g id="Group_9674" data-name="Group 9674" transform="translate(65.721 108.301)">
      <circle id="Ellipse_334" data-name="Ellipse 334" cx="2.567" cy="2.567" r="2.567" fill="#ffe003"/>
    </g>
    <g id="Group_9675" data-name="Group 9675" transform="translate(66.681 131.02)">
      <path id="Path_11187" data-name="Path 11187" d="M764.986,612.2a4.57,4.57,0,1,1-4.57-4.57A4.57,4.57,0,0,1,764.986,612.2Z" transform="translate(-755.846 -607.633)" fill="#ff9739"/>
    </g>
    <g id="Group_9676" data-name="Group 9676" transform="translate(74.849 113.355)">
      <path id="Path_11188" data-name="Path 11188" d="M783.153,572.91a4.57,4.57,0,1,1-4.57-4.57A4.57,4.57,0,0,1,783.153,572.91Z" transform="translate(-774.013 -568.34)" fill="#ff9739"/>
    </g>
    <g id="Group_9677" data-name="Group 9677" transform="translate(75.063 125.491)">
      <path id="Path_11189" data-name="Path 11189" d="M780.953,598.566a3.232,3.232,0,1,1-3.232-3.232A3.232,3.232,0,0,1,780.953,598.566Z" transform="translate(-774.49 -595.334)" fill="#ff9739"/>
    </g>
    <g id="Group_9678" data-name="Group 9678" transform="translate(75.218 101.728)">
      <circle id="Ellipse_335" data-name="Ellipse 335" cx="4.57" cy="4.57" r="4.57" fill="#ff9739"/>
    </g>
    <g id="Group_9680" data-name="Group 9680" transform="translate(73.992 49.499)">
      <g id="Group_9679" data-name="Group 9679">
        <path id="Path_11190" data-name="Path 11190" d="M772.311,444.665l-.031,0a.192.192,0,0,1-.169-.216l2.983-17.983a.2.2,0,0,1,.231-.158.192.192,0,0,1,.169.216L772.511,444.5A.2.2,0,0,1,772.311,444.665Z" transform="translate(-772.109 -426.303)" fill="#ff0"/>
      </g>
    </g>
    <g id="Group_9681" data-name="Group 9681" transform="translate(72.428 65.384)">
      <path id="Path_11191" data-name="Path 11191" d="M772.331,463.489a1.851,1.851,0,1,1-1.851-1.851A1.852,1.852,0,0,1,772.331,463.489Z" transform="translate(-768.628 -461.638)" fill="#ffea71"/>
    </g>
    <g id="Group_9682" data-name="Group 9682" transform="translate(73.558 60.18)">
      <path id="Path_11192" data-name="Path 11192" d="M774.844,451.913a1.851,1.851,0,1,1-1.851-1.851A1.851,1.851,0,0,1,774.844,451.913Z" transform="translate(-771.142 -450.062)" fill="#ffea71"/>
    </g>
    <g id="Group_9683" data-name="Group 9683" transform="translate(74.551 54.279)">
      <path id="Path_11193" data-name="Path 11193" d="M777.055,438.788a1.851,1.851,0,1,1-1.851-1.851A1.851,1.851,0,0,1,777.055,438.788Z" transform="translate(-773.352 -436.937)" fill="#ffea71"/>
    </g>
    <g id="Group_9684" data-name="Group 9684" transform="translate(75.099 48.667)">
      <path id="Path_11194" data-name="Path 11194" d="M778.273,426.3a1.851,1.851,0,1,1-1.851-1.851A1.851,1.851,0,0,1,778.273,426.3Z" transform="translate(-774.571 -424.453)" fill="#ffea71"/>
    </g>
    <g id="Group_9685" data-name="Group 9685" transform="translate(77.488 66.143)">
      <path id="Path_11195" data-name="Path 11195" d="M783.515,464.825a2.9,2.9,0,0,1,.189,1.463c-.36,1.005-3.114,2.924-3.114,2.924l-.707-1.462,2.17-1.368S781.939,460.707,783.515,464.825Z" transform="translate(-779.883 -463.327)" fill="#8e3d2d"/>
    </g>
    <g id="Group_9686" data-name="Group 9686" transform="translate(74.279 66.782)">
      <path id="Path_11196" data-name="Path 11196" d="M778.089,468.9s-3.019-4.906-3.869-4.057,1.132,2.736,1.132,2.736l.7,1.886s-1.451-1.414-2.489-1.414-.943,2.208,0,2.208a4.5,4.5,0,0,1,2.129.917s-2.306-.566-2.872,0,2.439,2.01,2.439,2.01,1.135.62,1.984-1.833Z" transform="translate(-772.746 -464.746)" fill="#b85137"/>
    </g>
    <g id="Group_9687" data-name="Group 9687" transform="translate(64.691 103.466)">
      <path id="Path_11197" data-name="Path 11197" d="M775.239,546.344c-2.094,4.076-2.315,10.546-1.923,15.13.767,7.72,2.073,23.551-4.183,28.386-2.987,2.706-11.271,3.021-17.326-1.718a1.008,1.008,0,1,1,1.266-1.568l.021.018c5.073,4.258,12.561,4.373,15.143,2.131,5.892-4.195,5.043-20.241,4.578-27.214C772.57,556.908,773,550.382,775.239,546.344Z" transform="translate(-751.42 -546.344)" fill="#ff0"/>
    </g>
    <g id="Group_9688" data-name="Group 9688" transform="translate(55.264 27.361)">
      <path id="Path_11198" data-name="Path 11198" d="M738.879,384.113c1.484-.86,5.269-6.709,9.408-7.038a4.543,4.543,0,0,1,4.085,1.852c1.82,2.415,2.433,6.464,2.234,9.369-.241-3.267-1.369-8.732-4.36-10.065-3.94-1.6-7.435,3.71-10.338,6.375a5.593,5.593,0,0,1-2.649,1.179,12.639,12.639,0,0,1-6.54-.958.432.432,0,0,1,.311-.8C733.4,384.874,736.781,385.491,738.879,384.113Z" transform="translate(-730.452 -377.061)" fill="#ff0"/>
    </g>
    <g id="Group_9690" data-name="Group 9690" transform="translate(78.007 104.337)">
      <g id="Group_9689" data-name="Group 9689">
        <path id="Path_11199" data-name="Path 11199" d="M781.326,572.954h-.014a.288.288,0,0,1-.274-.3l1.124-24.1a.294.294,0,0,1,.3-.274.288.288,0,0,1,.274.3l-1.124,24.1A.288.288,0,0,1,781.326,572.954Z" transform="translate(-781.038 -548.282)" fill="#ff9739"/>
      </g>
    </g>
    <g id="Group_9692" data-name="Group 9692" transform="translate(18.533 121.383)">
      <g id="Group_9691" data-name="Group 9691">
        <path id="Path_11200" data-name="Path 11200" d="M674.586,628.6a.291.291,0,0,1-.1-.018,37.327,37.327,0,0,1-23.592-24.992,49.312,49.312,0,0,1-2.057-17.133.288.288,0,0,1,.573.055,48.7,48.7,0,0,0,2.04,16.928,36.768,36.768,0,0,0,23.233,24.6.288.288,0,0,1-.1.558Z" transform="translate(-648.748 -586.198)" fill="#1b2b80"/>
      </g>
    </g>
    <g id="Group_9694" data-name="Group 9694" transform="translate(21.228 159.073)">
      <g id="Group_9693" data-name="Group 9693">
        <path id="Path_11201" data-name="Path 11201" d="M684.2,685.643c-11.542,0-18.933-4.17-23.1-7.668a24.766,24.766,0,0,1-6.359-7.7l.522-.241a24.715,24.715,0,0,0,6.23,7.52c4.092,3.428,11.353,7.514,22.707,7.514Z" transform="translate(-654.743 -670.033)" fill="#1b2b80"/>
      </g>
    </g>
    <g id="Group_9696" data-name="Group 9696" transform="translate(66.393 17.953)">
      <g id="Group_9695" data-name="Group 9695">
        <path id="Path_11202" data-name="Path 11202" d="M778.288,367.23a.289.289,0,0,1-.268-.183c-2.1-5.348-5.139-8.659-9.044-9.841-6.492-1.966-13.251,2.675-13.318,2.722a.288.288,0,0,1-.33-.472c.285-.2,7.05-4.848,13.811-2.8,4.083,1.235,7.252,4.661,9.417,10.182a.288.288,0,0,1-.268.393Z" transform="translate(-755.206 -356.135)" fill="#1b2b80"/>
      </g>
    </g>
  </g>
</svg>
