<svg xmlns="http://www.w3.org/2000/svg" width="515.158" height="460.102" viewBox="0 0 515.158 460.102">
  <g id="Group_8953" data-name="Group 8953" transform="translate(-280.261 -370.954)">
    <g id="Group_8952" data-name="Group 8952" transform="translate(280.261 370.954)">
      <g id="Group_8929" data-name="Group 8929" transform="translate(1.847 157.62)">
        <g id="Group_8928" data-name="Group 8928" transform="translate(0 59.433)">
          <path id="Path_11122" data-name="Path 11122" d="M783.941,1107.6a83.075,83.075,0,0,0-44.042-43.027c-20.245-8.2-43.491-5.214-64.815-7.961-18.521-2.385-31.883-10.653-42.941-25.353-10.6-14.085-20.1-29.683-37.42-36.2-13.689-5.148-29.252-3.721-42.857,1.643-25.07,9.885-44,30.9-59.952,51.841-14.559,19.117-26.436,40.05-53.366,40.733-26.948.683-52.6-14.689-79.736-10.615-35.861,5.383-65.725,35.236-71.984,70.776-5.865,33.308,8.853,65.614,34.137,84.595h434.6C787.423,1200.238,804.141,1153.548,783.941,1107.6Z" transform="translate(-285.545 -991.86)" fill="#0049b2" opacity="0.44"/>
          <g id="Group_8927" data-name="Group 8927" transform="translate(13.904 6.72)">
            <path id="Path_11123" data-name="Path 11123" d="M563.393,1395.45h1.2a91.7,91.7,0,0,0,18.941-32.491c6.692-19.895,6.41-40.774-.794-58.791-3.641-9.105-8.9-17.591-13.982-25.8-5.156-8.323-10.488-16.929-14.106-26.151a58.34,58.34,0,0,1-3.266-12.085c-.3-.039-.6-.071-.9-.108a59.142,59.142,0,0,0,3.352,12.512c3.647,9.3,9,17.937,14.177,26.293,5.065,8.174,10.3,16.628,13.913,25.662,7.127,17.825,7.4,38.49.777,58.188A90.7,90.7,0,0,1,563.393,1395.45Z" transform="translate(-471.77 -1159.994)" fill="#fff"/>
            <path id="Path_11124" data-name="Path 11124" d="M1053.779,1208.638c8.954,1.908,17.584,3.62,25.929,4.7.143-.275.282-.552.423-.829-8.415-1.069-17.124-2.794-26.169-4.721-13.773-2.934-28.68-6.111-43.465-6.111a77.149,77.149,0,0,0-27.023,4.465,55.137,55.137,0,0,0-9.563,4.649c-7.91-3.371-15.862-7.052-23.74-11.092,5.716-4.306,11.493-8.523,17.331-12.6,43.34-30.263,83.337-47.42,121.979-52.29-.078-.283-.159-.566-.239-.849-38.745,4.909-78.83,22.11-122.24,52.422-5.962,4.164-11.861,8.473-17.694,12.873a292.924,292.924,0,0,1-26.085-15.158c-15.366-10.068-33.643-24.439-49.605-43.535,61.857-6.939,124.833-15.683,176.262-50.055,1.953-1.305,4.117-2.844,6.358-4.59-.248-.176-.5-.349-.749-.523-2.148,1.664-4.219,3.133-6.094,4.386-51.415,34.363-114.508,43.04-176.445,49.978a169.987,169.987,0,0,1-28.361-48.221c-10.91-28.9-10.334-57.258,1.58-77.806.518-.892,1.064-1.771,1.627-2.641-.5.228-.991.465-1.483.7q-.46.745-.9,1.5c-12.046,20.777-12.644,49.409-1.642,78.554a170.659,170.659,0,0,0,28.142,48.027q-5.378.6-10.747,1.191c-12.9,1.423-26.235,2.9-39.185,4.563-4.727.608-9.534,1.319-14.318,2.208-10.254-21.641-21.517-42.754-36.077-60.86-.208.207-.42.409-.63.614,14.435,17.969,25.628,38.924,35.82,60.414-20.863,3.979-41.121,11.458-51.937,28.868-10.1,16.258-10.093,38.732.027,66.8q.525,1.455,1.076,2.878h.936c-.4-1.039-.8-2.09-1.19-3.175-10.025-27.8-10.06-50.02-.107-66.04,10.688-17.2,30.835-24.582,51.582-28.513,3.62,7.657,7.117,15.378,10.592,23.05l.378.834c12.069,26.644,24.553,52.357,40.9,73.843h1.091c-16.494-21.526-29.047-47.393-41.192-74.2l-.378-.835c-3.446-7.608-6.913-15.262-10.5-22.855,4.691-.867,9.406-1.562,14.043-2.159,12.942-1.666,26.275-3.138,39.169-4.561q5.648-.623,11.317-1.254c16.114,19.394,34.625,33.964,50.166,44.148a293.355,293.355,0,0,0,25.791,15.012c-14.866,11.245-29.327,23.075-43.446,34.626q-7.333,6-14.819,12.081h1.386q7.052-5.721,13.986-11.4c14.219-11.632,28.782-23.547,43.754-34.858,7.834,4.03,15.742,7.7,23.61,11.071a65.147,65.147,0,0,0-24.841,30.319c-.664,1.612-1.244,3.239-1.781,4.872h.92c.507-1.521,1.05-3.037,1.669-4.54a64.148,64.148,0,0,1,25.011-30.234c21.995,9.344,43.611,16.281,62.184,21.776l.7.206c7.828,2.315,15.833,4.687,22.914,8.5.2-.226.4-.451.594-.677-7.2-3.9-15.32-6.309-23.26-8.656l-.7-.207c-18.385-5.44-39.753-12.291-61.512-21.5a54.146,54.146,0,0,1,8.873-4.251C1006.452,1198.554,1031.6,1203.912,1053.779,1208.638Z" transform="translate(-599.765 -1011.084)" fill="#fff"/>
            <path id="Path_11125" data-name="Path 11125" d="M349.026,1356.688c3.86,15.8,2.138,32.863-4.725,46.815a80.588,80.588,0,0,1-18.983,24.517c.159.248.322.493.483.739a81.492,81.492,0,0,0,19.284-24.87c6.952-14.133,8.7-31.413,4.79-47.408-3.054-12.5-9.192-23.084-17.673-30.743q-.284.334-.564.67C339.978,1333.948,346.017,1344.374,349.026,1356.688Z" transform="translate(-325.318 -1215.743)" fill="#fff"/>
          </g>
        </g>
        <path id="Path_11126" data-name="Path 11126" d="M856.669,828.792c7.614,7.78,11.026,20.886,6.828,32.97-4.064,11.7-12.974,21.392-23.68,27.622-8.613,5.013-19.848,7.778-28.319,2.529-6.33-3.923-9.613-11.619-9.8-19.064s2.321-14.7,5.416-21.474c4.362-9.548,10.232-18.807,18.978-24.614C838.151,818.757,849.351,821.314,856.669,828.792Z" transform="translate(-621.261 -821.845)" fill="#0049b2" opacity="0.44"/>
      </g>
      <g id="Group_8930" data-name="Group 8930" transform="translate(32.282 0)">
        <path id="Path_11127" data-name="Path 11127" d="M552.97,399.117H489.928V370.954H552.97Zm-61.731-1.311h60.42V372.265h-60.42Z" transform="translate(-448.916 -370.954)" fill="#0049b2" opacity="0.44"/>
        <path id="Path_11128" data-name="Path 11128" d="M435.649,476.16H372.607V448h63.042Zm-61.731-1.311h60.42V449.308h-60.42Z" transform="translate(-372.607 -421.065)" fill="#0049b2" opacity="0.44"/>
      </g>
      <g id="Group_8933" data-name="Group 8933" transform="translate(220.871 6.797)">
        <g id="Group_8931" data-name="Group 8931">
          <path id="Path_11129" data-name="Path 11129" d="M1217.149,471.467a97.432,97.432,0,0,0-21.54-37.429q-15.448-17.089-42.138-28.237t-67.822-11.158a265.341,265.341,0,0,0-66.88,8.85q-34.1,8.882-59.177,25.287l21.77,59.77L969.694,498l16.922,4.973q25.057-13.114,45.654-19.046a157.852,157.852,0,0,1,43.729-5.9q23.141,0,35.042,11.158,11.9,11.19,11.89,26.933a51.681,51.681,0,0,1-12.2,33.816q-12.245,14.781-27.024,29.883-10.268,10.485-19.928,21.654a155.437,155.437,0,0,0-17.039,23.984,130.4,130.4,0,0,0-11.89,27.574,113.178,113.178,0,0,0-4.5,33.154c0,3.954.084,8.657.314,14.129.039,1.009.092,1.994.152,2.965h-16l17.457,11.805h84.882a56.375,56.375,0,0,1-.649-9.191v-7.888a57.015,57.015,0,0,1,4.5-22,113.752,113.752,0,0,1,11.262-20.692,152.8,152.8,0,0,1,15.113-18.7q8.352-8.882,16.077-16.759,10.268-10.485,21.2-22.316a175.422,175.422,0,0,0,19.3-24.946,140.128,140.128,0,0,0,13.816-28.579,100.6,100.6,0,0,0,5.484-33.816A135.243,135.243,0,0,0,1217.149,471.467Z" transform="translate(-942.987 -393.159)" fill="#00326d"/>
          <path id="Path_11130" data-name="Path 11130" d="M1027.133,471.1a159.081,159.081,0,0,0-43.215,5.71q-20.356,5.741-45.119,18.432l-26.707-71.8q24.793-15.888,58.482-24.473a267.461,267.461,0,0,1,66.1-8.565q40.65,0,67.026,10.8t41.643,27.328a93.833,93.833,0,0,1,21.287,36.223,128.385,128.385,0,0,1,6.041,37.485,95.538,95.538,0,0,1-5.42,32.727,134.475,134.475,0,0,1-13.653,27.659,170.3,170.3,0,0,1-19.074,24.142q-10.8,11.45-20.956,21.6-7.634,7.634-15.888,16.219a148.547,148.547,0,0,0-14.936,18.1,109.393,109.393,0,0,0-11.13,20.025,54.191,54.191,0,0,0-4.448,21.287v7.634a53.466,53.466,0,0,0,.641,8.9H983.918a88.912,88.912,0,0,1-1.593-14.295c-.228-5.3-.31-9.847-.31-13.674a107.413,107.413,0,0,1,4.448-32.086,124.845,124.845,0,0,1,11.751-26.686,150.489,150.489,0,0,1,16.839-23.211q9.526-10.8,19.694-20.956,14.615-14.615,26.707-28.92a49.393,49.393,0,0,0,12.061-32.727q0-15.267-11.75-26.066T1027.133,471.1Z" transform="translate(-912.092 -390.399)" fill="#0049b2"/>
        </g>
        <g id="Group_8932" data-name="Group 8932" transform="translate(66.425 356.372)">
          <path id="Path_11131" data-name="Path 11131" d="M1246.553,1458.812q0,22.956-14.862,35.443a51.447,51.447,0,0,1-67.237,0q-14.837-12.5-14.845-35.443,0-22.93,14.846-35.443c15.252-12.871,37.816-15.739,55.673-6.706C1235.972,1424.68,1246.553,1440.959,1246.553,1458.812Z" transform="translate(-1133.003 -1410.866)" fill="#00326d"/>
          <path id="Path_11132" data-name="Path 11132" d="M1199.053,1457.795q0,22.955-14.862,35.443a51.447,51.447,0,0,1-67.238,0q-14.837-12.5-14.845-35.443,0-22.93,14.845-35.443a51.447,51.447,0,0,1,67.238,0Q1199.053,1434.873,1199.053,1457.795Z" transform="translate(-1102.108 -1409.848)" fill="#0049b2"/>
        </g>
      </g>
      <g id="Group_8951" data-name="Group 8951" transform="translate(28.351 80.266)">
        <g id="Group_8935" data-name="Group 8935" transform="translate(14.359 0)">
          <circle id="Ellipse_338" data-name="Ellipse 338" cx="9.141" cy="9.141" r="9.141" transform="matrix(0.184, -0.983, 0.983, 0.184, 70.587, 119.514)" fill="#d3dfff"/>
          <ellipse id="Ellipse_339" data-name="Ellipse 339" cx="5.142" cy="5.178" rx="5.142" ry="5.178" transform="translate(83.481 134.214) rotate(-79.386)" fill="#d3dfff"/>
          <g id="Group_8934" data-name="Group 8934" transform="translate(0)">
            <circle id="Ellipse_340" data-name="Ellipse 340" cx="41.198" cy="41.198" r="41.198" transform="translate(0 58.263) rotate(-45)" fill="#d3dfff"/>
          </g>
        </g>
        <g id="Group_8950" data-name="Group 8950" transform="translate(0 144.851)">
          <g id="Group_8938" data-name="Group 8938" transform="translate(21.08 143.174)">
            <g id="Group_8936" data-name="Group 8936" transform="translate(25.971 58.951)">
              <path id="Path_11133" data-name="Path 11133" d="M496.183,1606.939l3.363,12.965a7.428,7.428,0,0,0,7.763,5.42c11.027-.749,33.937-3.451,47.086-13.142l-3.738-18.685c-18.079-1.021-34.987-.016-49.627,4.913A7.16,7.16,0,0,0,496.183,1606.939Z" transform="translate(-495.961 -1593.136)" fill="#102048"/>
              <path id="Path_11134" data-name="Path 11134" d="M547.66,1630.435a.437.437,0,0,1-.421-.32l-4.516-16.168a.437.437,0,0,1,.842-.234l4.515,16.168a.437.437,0,0,1-.3.538A.447.447,0,0,1,547.66,1630.435Z" transform="translate(-526.366 -1606.312)" fill="#fff"/>
              <path id="Path_11135" data-name="Path 11135" d="M575.577,1624.184a.438.438,0,0,1-.421-.32l-4.515-16.168a.437.437,0,0,1,.842-.234L576,1623.63a.436.436,0,0,1-.421.554Z" transform="translate(-544.524 -1602.246)" fill="#fff"/>
            </g>
            <path id="Path_11136" data-name="Path 11136" d="M539.03,1427.171l-42.02,12.471,31.206,42.758,44.8,3.563,61.794-26.13L611.329,1424.5Z" transform="translate(-470.672 -1424.498)" fill="#fbc343"/>
            <path id="Path_11137" data-name="Path 11137" d="M671.892,1438.8c92.279-27.317,107.11,54.239-36.87,69.085-5.086-5.723-11.029-15.652-13.389-23.952l76.034-35.136Z" transform="translate(-551.73 -1430.186)" fill="#fbc343"/>
            <path id="Path_11138" data-name="Path 11138" d="M733.3,1608.683a39.923,39.923,0,0,1-8.451-4.112l-14.831,4.652,3.4,16.133,15.407,3.13C733.515,1619.9,733.789,1612.854,733.3,1608.683Z" transform="translate(-609.217 -1541.622)" fill="#f9b384"/>
            <path id="Path_11139" data-name="Path 11139" d="M621.35,1507.24l-.659-1.133c15.862-9.219,56.492-31.365,91.109-37.9l.243,1.289C677.626,1475.992,637.153,1498.056,621.35,1507.24Z" transform="translate(-551.117 -1452.93)" fill="#e49b31"/>
            <path id="Path_11140" data-name="Path 11140" d="M490.024,1428.183c-85.893-16.331-108.139,66.215,35.841,81.062a52.3,52.3,0,0,0,11.432-20.785A655.54,655.54,0,0,0,463.35,1446.2Z" transform="translate(-421.667 -1425.511)" fill="#fbc343"/>
            <path id="Path_11141" data-name="Path 11141" d="M597.166,1512.987c-4.086-2.6-8.343-5.35-12.851-8.26-22.627-14.609-48.273-31.168-70.062-40.609l.522-1.2c21.888,9.485,47.582,26.074,70.251,40.711,4.506,2.909,8.761,5.657,12.844,8.255Z" transform="translate(-481.888 -1449.486)" fill="#e49b31"/>
            <path id="Path_11142" data-name="Path 11142" d="M434.8,1526.273l-1.148-.634c3.224-5.837,8.388-9.774,15.349-11.7l.35,1.263C442.653,1517.057,437.893,1520.679,434.8,1526.273Z" transform="translate(-429.464 -1482.672)" fill="#e49b31"/>
            <path id="Path_11143" data-name="Path 11143" d="M922.7,1512.057c-3.09-5.594-7.85-9.215-14.551-11.072l.35-1.263c6.961,1.927,12.125,5.865,15.349,11.7Z" transform="translate(-738.084 -1473.426)" fill="#e49b31"/>
            <path id="Path_11144" data-name="Path 11144" d="M694.948,1616.1l-.958-.894c6.871-7.359,11.091-15.128,12.9-23.75l1.283.269C706.314,1600.59,701.987,1608.564,694.948,1616.1Z" transform="translate(-598.793 -1533.093)" fill="#e49b31"/>
            <g id="Group_8937" data-name="Group 8937" transform="translate(119.605 60.145)">
              <path id="Path_11145" data-name="Path 11145" d="M811.126,1598.661c-11.005-6.8-32.339,4.949-37.695,5.543a12.9,12.9,0,0,1-5.143-.738c.491,4.17.216,11.218-4.477,19.8l2.617.532s18.091,6.631,37.282,2.771C821.425,1623.01,819.778,1604.006,811.126,1598.661Z" transform="translate(-763.812 -1596.55)" fill="#102048"/>
              <path id="Path_11146" data-name="Path 11146" d="M851.778,1630.838a.448.448,0,0,1-.132-.02.437.437,0,0,1-.285-.548c1.307-4.14,1.878-12.284-1.909-17.754a.437.437,0,0,1,.719-.5c3.966,5.728,3.383,14.211,2.024,18.515A.437.437,0,0,1,851.778,1630.838Z" transform="translate(-819.464 -1606.488)" fill="#fff"/>
              <path id="Path_11147" data-name="Path 11147" d="M827.091,1635.526a.437.437,0,0,1-.417-.569c1.307-4.14,1.878-12.284-1.909-17.754a.437.437,0,0,1,.718-.5c3.966,5.728,3.383,14.21,2.024,18.514A.437.437,0,0,1,827.091,1635.526Z" transform="translate(-803.407 -1609.537)" fill="#fff"/>
            </g>
          </g>
          <g id="Group_8946" data-name="Group 8946">
            <g id="Group_8940" data-name="Group 8940" transform="translate(48.698 0.771)">
              <path id="Path_11148" data-name="Path 11148" d="M526.215,1055.78s21.632-18.4,20.831-21.891c-.572-2.5-6.7,1.165-6.7,1.165s8.594-10.2,8.157-11.434c-.781-2.212-6.724,1.912-6.724,1.912s4.017-5.782,2.1-6.724-6.108,2.621-6.108,2.621,2.446-3.21,1.3-4.053-6.108,2.621-6.108,2.621,1.779-4.048-2-2.513-30.285,25.858-30.285,25.858Z" transform="translate(-500.671 -1017.136)" fill="#f9b384"/>
              <g id="Group_8939" data-name="Group 8939" transform="translate(24.345 2.424)">
                <path id="Path_11149" data-name="Path 11149" d="M580.363,1053.275a.436.436,0,0,1-.295-.115c-3.713-3.392-5.35-4.216-9.447-5.476a.437.437,0,1,1,.257-.835c4.245,1.305,5.94,2.158,9.78,5.666a.437.437,0,0,1-.295.76Z" transform="translate(-570.312 -1038.873)" fill="#e28b6d"/>
                <path id="Path_11150" data-name="Path 11150" d="M579.6,1081.132a.445.445,0,0,1-.061,0,.437.437,0,0,1-.372-.493c.425-3.042,1.382-4.943,2.927-5.811,1.32-.743,3.039-.667,5.107.227a.437.437,0,0,1-.346.8c-1.8-.779-3.261-.869-4.332-.267-1.273.716-2.111,2.455-2.49,5.17A.437.437,0,0,1,579.6,1081.132Z" transform="translate(-576.071 -1056.753)" fill="#e28b6d"/>
                <path id="Path_11151" data-name="Path 11151" d="M576.687,1030.06a.437.437,0,0,1-.3-.755l5.428-5.116a.437.437,0,1,1,.6.636l-5.428,5.116A.433.433,0,0,1,576.687,1030.06Z" transform="translate(-574.174 -1024.07)" fill="#e28b6d"/>
                <path id="Path_11152" data-name="Path 11152" d="M591.062,1034.471a.437.437,0,0,1-.315-.739l5.214-5.432a.437.437,0,1,1,.631.6l-5.214,5.432A.435.435,0,0,1,591.062,1034.471Z" transform="translate(-583.524 -1026.733)" fill="#e28b6d"/>
                <path id="Path_11153" data-name="Path 11153" d="M605.749,1045.165a.437.437,0,0,1-.32-.735l4.091-4.388a.437.437,0,1,1,.639.6l-4.091,4.388A.438.438,0,0,1,605.749,1045.165Z" transform="translate(-593.077 -1034.368)" fill="#e28b6d"/>
              </g>
            </g>
            <g id="Group_8941" data-name="Group 8941" transform="translate(0 22.133)">
              <path id="Path_11154" data-name="Path 11154" d="M644.08,1285.6l-79.091,3.059-8.739-72.1s26.478-25.114,36.665-34.362l17.2-.882C663.468,1205.568,654.731,1235.858,644.08,1285.6Z" transform="translate(-488.123 -1145.284)" fill="#3a6bea"/>
              <path id="Path_11155" data-name="Path 11155" d="M710.329,1181.315s61.043,5.22,80.287,47.043c18.831,40.923-58.554,55.495-58.554,55.495Z" transform="translate(-588.34 -1145.284)" fill="#3a6bea"/>
              <path id="Path_11156" data-name="Path 11156" d="M413.577,1123.237l25.225-30.7-23.589-14.3c-9.84,6.842-28.868,22.338-44.993,39.887a33.3,33.3,0,0,0-7.74,13.38,28.791,28.791,0,0,0-.74,12.562h0a24.252,24.252,0,0,0,21.432,20.3c9.61,1.125,46.318-1.748,76.032-10.487l8.739-33.73C463.453,1117.611,430.077,1117.169,413.577,1123.237Z" transform="translate(-361.364 -1078.245)" fill="#3a6bea"/>
            </g>
            <g id="Group_8942" data-name="Group 8942" transform="translate(12.892 32.286)" opacity="0.8">
              <path id="Path_11157" data-name="Path 11157" d="M800.447,1206.386l.395-.09c-.276-.163-.553-.322-.829-.482a132.347,132.347,0,0,1-13.639,2.631c-2.734.33-11.87.933-14.54-5.154-1.328-3.028-.323-6.4,1.179-8.76l-.655-.187c-1.539,2.5-2.526,6.017-1.125,9.21,2.851,6.5,12.37,5.885,15.219,5.542A135.033,135.033,0,0,0,800.447,1206.386Z" transform="translate(-640.407 -1163.911)" fill="#fff"/>
              <path id="Path_11158" data-name="Path 11158" d="M900.875,1359.929c-2.917-1.126-5.929-2.291-9.1-1.993-5.555.525-10.31,6.019-10.6,12.246a19.208,19.208,0,0,0,4.518,12.611q.279-.174.556-.351a18.58,18.58,0,0,1-4.42-12.229c.274-5.914,4.762-11.129,10-11.625,3.011-.279,5.822.8,8.8,1.952,1.062.41,2.142.824,3.24,1.175.057-.211.112-.423.163-.637C902.971,1360.735,901.915,1360.33,900.875,1359.929Z" transform="translate(-712.348 -1270.286)" fill="#fff"/>
              <path id="Path_11159" data-name="Path 11159" d="M440.152,1298.213c-3.811-3.152-9.732-3.994-16.244-2.311a28.03,28.03,0,0,0-14.2,8.409c.225.072.444.154.672.221a27.489,27.489,0,0,1,13.693-7.994c6.3-1.632,12.015-.835,15.662,2.181a14.226,14.226,0,0,1,3.851,5.3l.677-.078A14.982,14.982,0,0,0,440.152,1298.213Z" transform="translate(-405.7 -1229.415)" fill="#fff"/>
              <path id="Path_11160" data-name="Path 11160" d="M398.243,1132.736a79.069,79.069,0,0,0,20.537-7.969,22.438,22.438,0,0,0,7.1-5.8,9.964,9.964,0,0,0,1.824-8.873,6.937,6.937,0,0,0-1.778-2.8l-.5.414a6.318,6.318,0,0,1,1.66,2.6,9.311,9.311,0,0,1-1.728,8.279,21.84,21.84,0,0,1-6.9,5.621,77.442,77.442,0,0,1-19.355,7.652Q398.669,1132.292,398.243,1132.736Z" transform="translate(-398.243 -1107.289)" fill="#fff"/>
            </g>
            <g id="Group_8944" data-name="Group 8944" transform="translate(78.457)">
              <path id="Path_11161" data-name="Path 11161" d="M685.244,1133.4l-.011,1.119-.177,17.385-.022,1.883a10.826,10.826,0,0,1-21.65-.011l-.21-21.484Z" transform="translate(-636.126 -1091.265)" fill="#f9b384"/>
              <path id="Path_11162" data-name="Path 11162" d="M700.571,1138.662l-.177,17.384c-9.661-3.933-13.639-14.393-13.639-14.393Z" transform="translate(-651.463 -1095.409)" fill="#102048"/>
              <path id="Path_11163" data-name="Path 11163" d="M684.9,1049.046c3.463,4.155,13.573,27.7,3.324,35.732-11.533,9.04-29.085-5.817-29.085-5.817l-2.354-27.423,15.235-4.016Z" transform="translate(-631.972 -1036.129)" fill="#f9b384"/>
              <path id="Path_11164" data-name="Path 11164" d="M602.854,1047.559s-33.792,17.625-6.239,68.428a13.839,13.839,0,0,0,18.083,6.189h0a13.706,13.706,0,0,0,6.011-19.141c-4.507-8.007-8.857-18.317-7-25.989Z" transform="translate(-585.801 -1036.153)" fill="#102048"/>
              <circle id="Ellipse_341" data-name="Ellipse 341" cx="9.141" cy="9.141" r="9.141" transform="translate(7.317 19.749) rotate(-45)" fill="#fbc343"/>
              <path id="Path_11165" data-name="Path 11165" d="M644.454,1045.663c-.988-5.7-1.589-9.614,4.174-12.553,0,0,20.313,3.693,24.191-3.97s-2.031-19.759-14.4-11.357c-31.67-6.186-35.917,23.452-26.315,33.332l9.478-1.455A3.451,3.451,0,0,0,644.454,1045.663Z" transform="translate(-612.965 -1014.931)" fill="#102048"/>
              <g id="Group_8943" data-name="Group 8943" transform="translate(40.868 20.329)">
                <circle id="Ellipse_342" data-name="Ellipse 342" cx="1.35" cy="1.35" r="1.35" transform="translate(4.998 9.068)" fill="#102048"/>
                <circle id="Ellipse_343" data-name="Ellipse 343" cx="1.35" cy="1.35" r="1.35" transform="translate(14.139 4.567)" fill="#102048"/>
                <path id="Path_11166" data-name="Path 11166" d="M738.866,1103.177a.382.382,0,0,1-.277-.645c.542-.57,1.135-1.372.885-1.953-.259-.6-1.354-.864-1.855-.864-1.077,0-1.595-1.917-1.687-2.3a.382.382,0,0,1,.743-.18c.2.81.642,1.716.944,1.716.516,0,2.093.244,2.557,1.326.332.774-.016,1.71-1.034,2.781A.382.382,0,0,1,738.866,1103.177Z" transform="translate(-724.311 -1088.602)" fill="#102048"/>
                <path id="Path_11167" data-name="Path 11167" d="M733.523,1126.313a.379.379,0,0,1-.214-.066,5.111,5.111,0,0,0-5.136-.262.382.382,0,0,1-.381-.663,5.812,5.812,0,0,1,5.945.292.382.382,0,0,1-.214.7Z" transform="translate(-718.9 -1106.613)" fill="#102048"/>
                <path id="Path_11168" data-name="Path 11168" d="M708.467,1084.983c.768,1.446-.57,1.736-2.139,2.569s-3.174,1.138-3.54.449.608-1.924,2.176-2.758S707.872,1083.864,708.467,1084.983Z" transform="translate(-702.71 -1080.413)" fill="#102048"/>
                <path id="Path_11169" data-name="Path 11169" d="M735.469,1075.046c.338,1.291,1.3.725,2.7.359s2.531-1.07,2.37-1.685-1.427-.818-2.827-.452S735.208,1074.047,735.469,1075.046Z" transform="translate(-723.993 -1073.085)" fill="#102048"/>
              </g>
              <circle id="Ellipse_344" data-name="Ellipse 344" cx="3.982" cy="3.982" r="3.982" transform="matrix(0.735, -0.678, 0.678, 0.735, 35.358, 36.822)" fill="#eb5d60" opacity="0.4"/>
              <ellipse id="Ellipse_345" data-name="Ellipse 345" cx="5.393" cy="6.128" rx="5.393" ry="6.128" transform="matrix(0.611, -0.792, 0.792, 0.611, 17.717, 37.59)" fill="#f9b384"/>
              <path id="Path_11170" data-name="Path 11170" d="M657.458,1118.4a.382.382,0,0,1-.383-.382,3.35,3.35,0,0,0-1.472-2.791,2.7,2.7,0,0,0-2.513-.335.382.382,0,0,1-.289-.708,3.46,3.46,0,0,1,3.228.408,4.113,4.113,0,0,1,1.81,3.426A.382.382,0,0,1,657.458,1118.4Z" transform="translate(-629.225 -1079.336)" fill="#102048"/>
            </g>
            <g id="Group_8945" data-name="Group 8945" transform="translate(38.093 66.828)">
              <rect id="Rectangle_6389" data-name="Rectangle 6389" width="20.326" height="0.874" transform="translate(0 14.925) rotate(-47.248)" fill="#102048"/>
              <path id="Path_11171" data-name="Path 11171" d="M787.391,1354.968l-.254-.836c10.044-3.061,19.792-6.724,28.626-17.771l.682.546C807.455,1348.15,797.571,1351.866,787.391,1354.968Z" transform="translate(-676.391 -1290.826)" fill="#102048"/>
            </g>
          </g>
          <g id="Group_8949" data-name="Group 8949" transform="translate(64.194 97.127)">
            <g id="Group_8947" data-name="Group 8947">
              <path id="Path_11172" data-name="Path 11172" d="M636.006,1292.776H550.564A5.805,5.805,0,0,0,545,1298.8v61a5.805,5.805,0,0,0,5.564,6.019h85.442a5.805,5.805,0,0,0,5.564-6.019v-61A5.805,5.805,0,0,0,636.006,1292.776Z" transform="translate(-545 -1292.776)" fill="#d3dfff"/>
            </g>
            <g id="Group_8948" data-name="Group 8948" transform="translate(41.439 30.917)">
              <path id="Path_11173" data-name="Path 11173" d="M674.9,1382.966a.613.613,0,0,1,.587.635v6.44a.613.613,0,0,1-.587.636h-9.021a.613.613,0,0,1-.587-.636v-6.44a.613.613,0,0,1,.587-.635H674.9m0-1.748h-9.021a2.362,2.362,0,0,0-2.335,2.383v6.44a2.363,2.363,0,0,0,2.335,2.384H674.9a2.363,2.363,0,0,0,2.335-2.384v-6.44a2.362,2.362,0,0,0-2.335-2.383Z" transform="translate(-663.542 -1381.218)" fill="#1f3c88"/>
            </g>
          </g>
        </g>
      </g>
      <rect id="Rectangle_6390" data-name="Rectangle 6390" width="515.158" height="1.748" transform="translate(0 458.354)" fill="#102048"/>
    </g>
    <path id="Path_11174" data-name="Path 11174" d="M511.389,760.239v-26.06c.261.061.26.3.322.489q1.629,4.85,3.241,9.707c.245.734.487,1.47.736,2.2a3.5,3.5,0,0,0,3.5,2.52q2.932,0,5.864,0c.641,0,.7.06.7.694,0,.21-.01.421.009.63a1.081,1.081,0,0,0,1.013,1.026,2.915,2.915,0,0,0,.314.011h8.9c.092,0,.184,0,.275-.007a1.086,1.086,0,0,0,1.058-1.065c.021-.275.007-.551.012-.826a.411.411,0,0,1,.463-.459c.144,0,.288,0,.433,0h5.628a3.493,3.493,0,0,0,3.554-2.559q1.968-5.879,3.925-11.761a1.053,1.053,0,0,1,.318-.609c.129.126.079.263.079.385q0,12.674.01,25.348a3.586,3.586,0,0,1-3.519,3.6c-.144.007-.288,0-.433,0q-16.256,0-32.511,0a4.1,4.1,0,0,1-2.156-.508,3.068,3.068,0,0,1-1.7-2.653A.225.225,0,0,0,511.389,760.239Z" transform="translate(-150.332 -236.245)" fill="#0049b2"/>
    <path id="Path_11175" data-name="Path 11175" d="M553.013,721.1q-4.211,0-8.421,0c-.311,0-.731.1-.909-.052-.21-.185-.045-.615-.066-.937-.007-.066,0-.133,0-.2a3.522,3.522,0,0,0-3.534-3.524c-3.15-.035-6.3-.028-9.445,0a3.434,3.434,0,0,0-3.171,1.961,4.67,4.67,0,0,0-.374,2.416c.007.276-.063.346-.343.343-1.9-.01-3.8-.007-5.705-.007h-3.8c.042.147.077.273.119.395q.687,2.066,1.377,4.129,1.432,4.3,2.86,8.6c.248.741.608,1.045,1.293,1.045,2.1.01,4.2,0,6.3.007.2,0,.276-.042.266-.255-.017-.315-.014-.629,0-.944a1.15,1.15,0,0,1,1.15-1.157q4.74-.021,9.484,0a1.165,1.165,0,0,1,1.168,1.185,5.952,5.952,0,0,1,0,.748c-.031.322.042.441.409.433,1.982-.021,3.964-.01,5.943-.01a1.314,1.314,0,0,0,1.521-1.108q1.363-4.1,2.73-8.191c.535-1.612,1.07-3.223,1.618-4.873Zm-11.826-.066c-.171.227-.682.063-1.045.066-1.6.007-3.2,0-4.8,0-1.86,0-3.719,0-5.583.007-.245,0-.35-.045-.325-.315.024-.287,0-.577.007-.867a1.162,1.162,0,0,1,1.167-1.182q4.735-.01,9.474,0a1.155,1.155,0,0,1,1.164,1.182C541.257,720.309,541.373,720.791,541.187,721.036Z" transform="translate(-154.136 -224.665)" fill="#0049b2"/>
    <path id="Path_11176" data-name="Path 11176" d="M562.426,772.807c-1.076,0-2.152-.007-3.227,0-.228,0-.321-.033-.311-.293.022-.589.017-1.181,0-1.771-.006-.229.036-.312.293-.31q3.247.018,6.494,0c.228,0,.321.033.311.293-.023.59-.025,1.181,0,1.771.012.282-.1.311-.335.308C564.577,772.8,563.5,772.807,562.426,772.807Z" transform="translate(-181.226 -259.835)" fill="#0049b2"/>
  </g>
</svg>
