<svg xmlns="http://www.w3.org/2000/svg" width="17.935" height="17.919" viewBox="0 0 17.935 17.919">
  <g id="star-rate-svgrepo-com_2_" data-name="star-rate-svgrepo-com (2)" transform="translate(0 -0.234)">
    <g id="Group_9006" data-name="Group 9006" transform="translate(0.001 0.235)">
      <g id="Group_9005" data-name="Group 9005" transform="translate(0)">
        <path id="Path_11439" data-name="Path 11439" d="M11.116,14.963a.372.372,0,0,0-.034-.454,1.418,1.418,0,0,1-.353-.773l-.081-.649a1.451,1.451,0,0,1,.217-.96.376.376,0,0,0,.058-.22l0-.138A2.111,2.111,0,0,1,13.1,9.53a.369.369,0,0,0,.132-.037,3.1,3.1,0,0,1,1.347-.3.375.375,0,0,0,.259-.109l2.244-2.244a.374.374,0,0,0-.215-.635l-5.412-.717L8.929.424a.39.39,0,0,0-.669,0L5.737,5.483.325,6.2a.374.374,0,0,0-.215.635L4.079,10.8,3,16.213a.372.372,0,0,0,.14.37.374.374,0,0,0,.395.037L8.6,14.087,10.63,15.1A.388.388,0,0,0,11.116,14.963Z" transform="translate(-0.001 -0.235)" fill="#2196f3"/>
        <path id="Path_11440" data-name="Path 11440" d="M284,282.957l-1.122-.28-.047-.188a2.472,2.472,0,0,0,.584-1.158.7.7,0,0,0,.374-.534l.081-.65a.7.7,0,0,0-.167-.545.674.674,0,0,0-.137-.12l.019-.4.069-.069a.953.953,0,0,0,.04-1.272,1.56,1.56,0,0,0-1.408-.657,2.359,2.359,0,0,0-1.3.327c-1.538.053-1.719.883-1.719,1.508,0,.123.022.355.043.547a.7.7,0,0,0-.32.677l.081.649a.684.684,0,0,0,.413.545,2.49,2.49,0,0,0,.552,1.116l-.055.22-1.122.28a2.036,2.036,0,0,0-1.543,1.978.374.374,0,0,0,.374.374h7.473a.374.374,0,0,0,.374-.374A2.035,2.035,0,0,0,284,282.957Z" transform="translate(-267.608 -267.39)" fill="#2196f3"/>
      </g>
    </g>
  </g>
</svg>
